G04 EAGLE Gerber X2 export*
%TF.Part,Single*%
%TF.FileFunction,Soldermask,Top,1*%
%TF.FilePolarity,Negative*%
%TF.GenerationSoftware,Autodesk,EAGLE,9.1.0*%
%TF.CreationDate,2020-06-24T00:01:39Z*%
G75*
%MOMM*%
%FSLAX34Y34*%
%LPD*%
%AMOC8*
5,1,8,0,0,1.08239X$1,22.5*%
G01*
%ADD10R,1.253200X0.803200*%
%ADD11R,1.803200X1.003200*%
%ADD12R,3.203200X2.303200*%
%ADD13C,1.727200*%
%ADD14R,1.363200X1.883200*%
%ADD15C,1.203200*%
%ADD16C,4.203200*%


D10*
X471000Y135500D03*
X471000Y154500D03*
X449000Y145000D03*
D11*
X539960Y101250D03*
X539960Y113750D03*
X539960Y126250D03*
X539960Y138750D03*
X539960Y151250D03*
X539960Y163750D03*
X539960Y176250D03*
X539960Y188750D03*
D12*
X568960Y214250D03*
X568960Y75750D03*
D11*
X130040Y188750D03*
X130040Y176250D03*
X130040Y163750D03*
X130040Y151250D03*
X130040Y138750D03*
X130040Y126250D03*
X130040Y113750D03*
X130040Y101250D03*
D12*
X101040Y75750D03*
X101040Y214250D03*
D13*
X51120Y119600D02*
X35880Y119600D01*
X35880Y145000D02*
X51120Y145000D01*
X51120Y170400D02*
X35880Y170400D01*
D14*
X310250Y85000D03*
X339750Y85000D03*
X339750Y115000D03*
X310250Y115000D03*
D15*
X100000Y185000D03*
X570000Y115000D03*
X100000Y110000D03*
X570000Y185000D03*
X570000Y150000D03*
X100000Y150000D03*
D16*
X251800Y145000D03*
D15*
X157500Y210000D03*
D16*
X401800Y145000D03*
M02*
