G04 EAGLE Gerber X2 export*
%TF.Part,Single*%
%TF.FileFunction,Profile,NP*%
%TF.FilePolarity,Positive*%
%TF.GenerationSoftware,Autodesk,EAGLE,9.1.0*%
%TF.CreationDate,2020-08-17T16:38:57Z*%
G75*
%MOMM*%
%FSLAX34Y34*%
%LPD*%
%AMOC8*
5,1,8,0,0,1.08239X$1,22.5*%
G01*
%ADD10C,0.254000*%


D10*
X0Y0D02*
X130000Y0D01*
X130000Y100600D01*
X0Y100600D01*
X0Y0D01*
X27500Y39719D02*
X27500Y40281D01*
X27437Y40839D01*
X27312Y41386D01*
X27127Y41916D01*
X26883Y42422D01*
X26584Y42898D01*
X26234Y43337D01*
X25837Y43734D01*
X25398Y44084D01*
X24922Y44383D01*
X24416Y44627D01*
X23886Y44812D01*
X23339Y44937D01*
X22781Y45000D01*
X22219Y45000D01*
X21661Y44937D01*
X21114Y44812D01*
X20584Y44627D01*
X20078Y44383D01*
X19602Y44084D01*
X19163Y43734D01*
X18766Y43337D01*
X18416Y42898D01*
X18117Y42422D01*
X17873Y41916D01*
X17688Y41386D01*
X17563Y40839D01*
X17500Y40281D01*
X17500Y39719D01*
X17563Y39161D01*
X17688Y38614D01*
X17873Y38084D01*
X18117Y37578D01*
X18416Y37102D01*
X18766Y36663D01*
X19163Y36266D01*
X19602Y35916D01*
X20078Y35617D01*
X20584Y35373D01*
X21114Y35188D01*
X21661Y35063D01*
X22219Y35000D01*
X22781Y35000D01*
X23339Y35063D01*
X23886Y35188D01*
X24416Y35373D01*
X24922Y35617D01*
X25398Y35916D01*
X25837Y36266D01*
X26234Y36663D01*
X26584Y37102D01*
X26883Y37578D01*
X27127Y38084D01*
X27312Y38614D01*
X27437Y39161D01*
X27500Y39719D01*
X112500Y39719D02*
X112500Y40281D01*
X112437Y40839D01*
X112312Y41386D01*
X112127Y41916D01*
X111883Y42422D01*
X111584Y42898D01*
X111234Y43337D01*
X110837Y43734D01*
X110398Y44084D01*
X109922Y44383D01*
X109416Y44627D01*
X108886Y44812D01*
X108339Y44937D01*
X107781Y45000D01*
X107219Y45000D01*
X106661Y44937D01*
X106114Y44812D01*
X105584Y44627D01*
X105078Y44383D01*
X104602Y44084D01*
X104163Y43734D01*
X103766Y43337D01*
X103416Y42898D01*
X103117Y42422D01*
X102873Y41916D01*
X102688Y41386D01*
X102563Y40839D01*
X102500Y40281D01*
X102500Y39719D01*
X102563Y39161D01*
X102688Y38614D01*
X102873Y38084D01*
X103117Y37578D01*
X103416Y37102D01*
X103766Y36663D01*
X104163Y36266D01*
X104602Y35916D01*
X105078Y35617D01*
X105584Y35373D01*
X106114Y35188D01*
X106661Y35063D01*
X107219Y35000D01*
X107781Y35000D01*
X108339Y35063D01*
X108886Y35188D01*
X109416Y35373D01*
X109922Y35617D01*
X110398Y35916D01*
X110837Y36266D01*
X111234Y36663D01*
X111584Y37102D01*
X111883Y37578D01*
X112127Y38084D01*
X112312Y38614D01*
X112437Y39161D01*
X112500Y39719D01*
M02*
