G04 EAGLE Gerber X2 export*
%TF.Part,Single*%
%TF.FileFunction,Legend,Top,1*%
%TF.FilePolarity,Positive*%
%TF.GenerationSoftware,Autodesk,EAGLE,9.1.0*%
%TF.CreationDate,2020-08-17T16:38:57Z*%
G75*
%MOMM*%
%FSLAX34Y34*%
%LPD*%
%AMOC8*
5,1,8,0,0,1.08239X$1,22.5*%
G01*
%ADD10C,0.101600*%
%ADD11C,0.127000*%


D10*
X65508Y508D02*
X68754Y508D01*
X68867Y510D01*
X68980Y516D01*
X69093Y526D01*
X69206Y540D01*
X69318Y557D01*
X69429Y579D01*
X69539Y604D01*
X69649Y634D01*
X69757Y667D01*
X69864Y704D01*
X69970Y744D01*
X70074Y789D01*
X70177Y837D01*
X70278Y888D01*
X70377Y943D01*
X70474Y1001D01*
X70569Y1063D01*
X70662Y1128D01*
X70752Y1196D01*
X70840Y1267D01*
X70926Y1342D01*
X71009Y1419D01*
X71089Y1499D01*
X71166Y1582D01*
X71241Y1668D01*
X71312Y1756D01*
X71380Y1846D01*
X71445Y1939D01*
X71507Y2034D01*
X71565Y2131D01*
X71620Y2230D01*
X71671Y2331D01*
X71719Y2434D01*
X71764Y2538D01*
X71804Y2644D01*
X71841Y2751D01*
X71874Y2859D01*
X71904Y2969D01*
X71929Y3079D01*
X71951Y3190D01*
X71968Y3302D01*
X71982Y3415D01*
X71992Y3528D01*
X71998Y3641D01*
X72000Y3754D01*
X71998Y3867D01*
X71992Y3980D01*
X71982Y4093D01*
X71968Y4206D01*
X71951Y4318D01*
X71929Y4429D01*
X71904Y4539D01*
X71874Y4649D01*
X71841Y4757D01*
X71804Y4864D01*
X71764Y4970D01*
X71719Y5074D01*
X71671Y5177D01*
X71620Y5278D01*
X71565Y5377D01*
X71507Y5474D01*
X71445Y5569D01*
X71380Y5662D01*
X71312Y5752D01*
X71241Y5840D01*
X71166Y5926D01*
X71089Y6009D01*
X71009Y6089D01*
X70926Y6166D01*
X70840Y6241D01*
X70752Y6312D01*
X70662Y6380D01*
X70569Y6445D01*
X70474Y6507D01*
X70377Y6565D01*
X70278Y6620D01*
X70177Y6671D01*
X70074Y6719D01*
X69970Y6764D01*
X69864Y6804D01*
X69757Y6841D01*
X69649Y6874D01*
X69539Y6904D01*
X69429Y6929D01*
X69318Y6951D01*
X69206Y6968D01*
X69093Y6982D01*
X68980Y6992D01*
X68867Y6998D01*
X68754Y7000D01*
X69403Y12192D02*
X65508Y12192D01*
X69403Y12192D02*
X69504Y12190D01*
X69604Y12184D01*
X69704Y12174D01*
X69804Y12161D01*
X69903Y12143D01*
X70002Y12122D01*
X70099Y12097D01*
X70196Y12068D01*
X70291Y12035D01*
X70385Y11999D01*
X70477Y11959D01*
X70568Y11916D01*
X70657Y11869D01*
X70744Y11819D01*
X70830Y11765D01*
X70913Y11708D01*
X70993Y11648D01*
X71072Y11585D01*
X71148Y11518D01*
X71221Y11449D01*
X71291Y11377D01*
X71359Y11303D01*
X71424Y11226D01*
X71485Y11146D01*
X71544Y11064D01*
X71599Y10980D01*
X71651Y10894D01*
X71700Y10806D01*
X71745Y10716D01*
X71787Y10624D01*
X71825Y10531D01*
X71859Y10436D01*
X71890Y10341D01*
X71917Y10244D01*
X71940Y10146D01*
X71960Y10047D01*
X71975Y9947D01*
X71987Y9847D01*
X71995Y9747D01*
X71999Y9646D01*
X71999Y9546D01*
X71995Y9445D01*
X71987Y9345D01*
X71975Y9245D01*
X71960Y9145D01*
X71940Y9046D01*
X71917Y8948D01*
X71890Y8851D01*
X71859Y8756D01*
X71825Y8661D01*
X71787Y8568D01*
X71745Y8476D01*
X71700Y8386D01*
X71651Y8298D01*
X71599Y8212D01*
X71544Y8128D01*
X71485Y8046D01*
X71424Y7966D01*
X71359Y7889D01*
X71291Y7815D01*
X71221Y7743D01*
X71148Y7674D01*
X71072Y7607D01*
X70993Y7544D01*
X70913Y7484D01*
X70830Y7427D01*
X70744Y7373D01*
X70657Y7323D01*
X70568Y7276D01*
X70477Y7233D01*
X70385Y7193D01*
X70291Y7157D01*
X70196Y7124D01*
X70099Y7095D01*
X70002Y7070D01*
X69903Y7049D01*
X69804Y7031D01*
X69704Y7018D01*
X69604Y7008D01*
X69504Y7002D01*
X69403Y7000D01*
X69403Y6999D02*
X66806Y6999D01*
X77488Y12192D02*
X77488Y508D01*
X77488Y12192D02*
X80734Y12192D01*
X80847Y12190D01*
X80960Y12184D01*
X81073Y12174D01*
X81186Y12160D01*
X81298Y12143D01*
X81409Y12121D01*
X81519Y12096D01*
X81629Y12066D01*
X81737Y12033D01*
X81844Y11996D01*
X81950Y11956D01*
X82054Y11911D01*
X82157Y11863D01*
X82258Y11812D01*
X82357Y11757D01*
X82454Y11699D01*
X82549Y11637D01*
X82642Y11572D01*
X82732Y11504D01*
X82820Y11433D01*
X82906Y11358D01*
X82989Y11281D01*
X83069Y11201D01*
X83146Y11118D01*
X83221Y11032D01*
X83292Y10944D01*
X83360Y10854D01*
X83425Y10761D01*
X83487Y10666D01*
X83545Y10569D01*
X83600Y10470D01*
X83651Y10369D01*
X83699Y10266D01*
X83744Y10162D01*
X83784Y10056D01*
X83821Y9949D01*
X83854Y9841D01*
X83884Y9731D01*
X83909Y9621D01*
X83931Y9510D01*
X83948Y9398D01*
X83962Y9285D01*
X83972Y9172D01*
X83978Y9059D01*
X83980Y8946D01*
X83978Y8833D01*
X83972Y8720D01*
X83962Y8607D01*
X83948Y8494D01*
X83931Y8382D01*
X83909Y8271D01*
X83884Y8161D01*
X83854Y8051D01*
X83821Y7943D01*
X83784Y7836D01*
X83744Y7730D01*
X83699Y7626D01*
X83651Y7523D01*
X83600Y7422D01*
X83545Y7323D01*
X83487Y7226D01*
X83425Y7131D01*
X83360Y7038D01*
X83292Y6948D01*
X83221Y6860D01*
X83146Y6774D01*
X83069Y6691D01*
X82989Y6611D01*
X82906Y6534D01*
X82820Y6459D01*
X82732Y6388D01*
X82642Y6320D01*
X82549Y6255D01*
X82454Y6193D01*
X82357Y6135D01*
X82258Y6080D01*
X82157Y6029D01*
X82054Y5981D01*
X81950Y5936D01*
X81844Y5896D01*
X81737Y5859D01*
X81629Y5826D01*
X81519Y5796D01*
X81409Y5771D01*
X81298Y5749D01*
X81186Y5732D01*
X81073Y5718D01*
X80960Y5708D01*
X80847Y5702D01*
X80734Y5700D01*
X80734Y5701D02*
X77488Y5701D01*
X89328Y508D02*
X89328Y12192D01*
X88029Y508D02*
X90626Y508D01*
X90626Y12192D02*
X88029Y12192D01*
X95607Y12192D02*
X95607Y508D01*
X102098Y508D02*
X95607Y12192D01*
X102098Y12192D02*
X102098Y508D01*
X106924Y-790D02*
X112117Y-790D01*
X119125Y508D02*
X121722Y508D01*
X119125Y508D02*
X119026Y510D01*
X118926Y516D01*
X118827Y525D01*
X118729Y538D01*
X118631Y555D01*
X118533Y576D01*
X118437Y601D01*
X118342Y629D01*
X118248Y661D01*
X118155Y696D01*
X118063Y735D01*
X117973Y778D01*
X117885Y823D01*
X117798Y873D01*
X117714Y925D01*
X117631Y981D01*
X117551Y1039D01*
X117473Y1101D01*
X117398Y1166D01*
X117325Y1234D01*
X117255Y1304D01*
X117187Y1377D01*
X117122Y1452D01*
X117060Y1530D01*
X117002Y1610D01*
X116946Y1693D01*
X116894Y1777D01*
X116844Y1864D01*
X116799Y1952D01*
X116756Y2042D01*
X116717Y2134D01*
X116682Y2227D01*
X116650Y2321D01*
X116622Y2416D01*
X116597Y2512D01*
X116576Y2610D01*
X116559Y2708D01*
X116546Y2806D01*
X116537Y2905D01*
X116531Y3005D01*
X116529Y3104D01*
X116529Y9596D01*
X116531Y9695D01*
X116537Y9795D01*
X116546Y9894D01*
X116559Y9992D01*
X116576Y10090D01*
X116597Y10188D01*
X116622Y10284D01*
X116650Y10379D01*
X116682Y10473D01*
X116717Y10566D01*
X116756Y10658D01*
X116799Y10748D01*
X116844Y10836D01*
X116894Y10923D01*
X116946Y11007D01*
X117002Y11090D01*
X117060Y11170D01*
X117122Y11248D01*
X117187Y11323D01*
X117255Y11396D01*
X117325Y11466D01*
X117398Y11534D01*
X117473Y11599D01*
X117551Y11661D01*
X117631Y11719D01*
X117714Y11775D01*
X117798Y11827D01*
X117885Y11877D01*
X117973Y11922D01*
X118063Y11965D01*
X118155Y12004D01*
X118247Y12039D01*
X118342Y12071D01*
X118437Y12099D01*
X118533Y12124D01*
X118631Y12145D01*
X118729Y12162D01*
X118827Y12175D01*
X118926Y12184D01*
X119026Y12190D01*
X119125Y12192D01*
X121722Y12192D01*
X126087Y8946D02*
X126087Y3754D01*
X126086Y8946D02*
X126088Y9059D01*
X126094Y9172D01*
X126104Y9285D01*
X126118Y9398D01*
X126135Y9510D01*
X126157Y9621D01*
X126182Y9731D01*
X126212Y9841D01*
X126245Y9949D01*
X126282Y10056D01*
X126322Y10162D01*
X126367Y10266D01*
X126415Y10369D01*
X126466Y10470D01*
X126521Y10569D01*
X126579Y10666D01*
X126641Y10761D01*
X126706Y10854D01*
X126774Y10944D01*
X126845Y11032D01*
X126920Y11118D01*
X126997Y11201D01*
X127077Y11281D01*
X127160Y11358D01*
X127246Y11433D01*
X127334Y11504D01*
X127424Y11572D01*
X127517Y11637D01*
X127612Y11699D01*
X127709Y11757D01*
X127808Y11812D01*
X127909Y11863D01*
X128012Y11911D01*
X128116Y11956D01*
X128222Y11996D01*
X128329Y12033D01*
X128437Y12066D01*
X128547Y12096D01*
X128657Y12121D01*
X128768Y12143D01*
X128880Y12160D01*
X128993Y12174D01*
X129106Y12184D01*
X129219Y12190D01*
X129332Y12192D01*
X129445Y12190D01*
X129558Y12184D01*
X129671Y12174D01*
X129784Y12160D01*
X129896Y12143D01*
X130007Y12121D01*
X130117Y12096D01*
X130227Y12066D01*
X130335Y12033D01*
X130442Y11996D01*
X130548Y11956D01*
X130652Y11911D01*
X130755Y11863D01*
X130856Y11812D01*
X130955Y11757D01*
X131052Y11699D01*
X131147Y11637D01*
X131240Y11572D01*
X131330Y11504D01*
X131418Y11433D01*
X131504Y11358D01*
X131587Y11281D01*
X131667Y11201D01*
X131744Y11118D01*
X131819Y11032D01*
X131890Y10944D01*
X131958Y10854D01*
X132023Y10761D01*
X132085Y10666D01*
X132143Y10569D01*
X132198Y10470D01*
X132249Y10369D01*
X132297Y10266D01*
X132342Y10162D01*
X132382Y10056D01*
X132419Y9949D01*
X132452Y9841D01*
X132482Y9731D01*
X132507Y9621D01*
X132529Y9510D01*
X132546Y9398D01*
X132560Y9285D01*
X132570Y9172D01*
X132576Y9059D01*
X132578Y8946D01*
X132578Y3754D01*
X132576Y3641D01*
X132570Y3528D01*
X132560Y3415D01*
X132546Y3302D01*
X132529Y3190D01*
X132507Y3079D01*
X132482Y2969D01*
X132452Y2859D01*
X132419Y2751D01*
X132382Y2644D01*
X132342Y2538D01*
X132297Y2434D01*
X132249Y2331D01*
X132198Y2230D01*
X132143Y2131D01*
X132085Y2034D01*
X132023Y1939D01*
X131958Y1846D01*
X131890Y1756D01*
X131819Y1668D01*
X131744Y1582D01*
X131667Y1499D01*
X131587Y1419D01*
X131504Y1342D01*
X131418Y1267D01*
X131330Y1196D01*
X131240Y1128D01*
X131147Y1063D01*
X131052Y1001D01*
X130955Y943D01*
X130856Y888D01*
X130755Y837D01*
X130652Y789D01*
X130548Y744D01*
X130442Y704D01*
X130335Y667D01*
X130227Y634D01*
X130117Y604D01*
X130007Y579D01*
X129896Y557D01*
X129784Y540D01*
X129671Y526D01*
X129558Y516D01*
X129445Y510D01*
X129332Y508D01*
X129219Y510D01*
X129106Y516D01*
X128993Y526D01*
X128880Y540D01*
X128768Y557D01*
X128657Y579D01*
X128547Y604D01*
X128437Y634D01*
X128329Y667D01*
X128222Y704D01*
X128116Y744D01*
X128012Y789D01*
X127909Y837D01*
X127808Y888D01*
X127709Y943D01*
X127612Y1001D01*
X127517Y1063D01*
X127424Y1128D01*
X127334Y1196D01*
X127246Y1267D01*
X127160Y1342D01*
X127077Y1419D01*
X126997Y1499D01*
X126920Y1582D01*
X126845Y1668D01*
X126774Y1756D01*
X126706Y1846D01*
X126641Y1939D01*
X126579Y2034D01*
X126521Y2131D01*
X126466Y2230D01*
X126415Y2331D01*
X126367Y2434D01*
X126322Y2538D01*
X126282Y2644D01*
X126245Y2751D01*
X126212Y2859D01*
X126182Y2969D01*
X126157Y3079D01*
X126135Y3190D01*
X126118Y3302D01*
X126104Y3415D01*
X126094Y3528D01*
X126088Y3641D01*
X126086Y3754D01*
X137898Y508D02*
X137898Y12192D01*
X144389Y508D01*
X144389Y12192D01*
X150112Y508D02*
X155305Y508D01*
X150112Y508D02*
X150112Y12192D01*
X155305Y12192D01*
X154007Y6999D02*
X150112Y6999D01*
X162178Y508D02*
X164775Y508D01*
X162178Y508D02*
X162079Y510D01*
X161979Y516D01*
X161880Y525D01*
X161782Y538D01*
X161684Y555D01*
X161586Y576D01*
X161490Y601D01*
X161395Y629D01*
X161301Y661D01*
X161208Y696D01*
X161116Y735D01*
X161026Y778D01*
X160938Y823D01*
X160851Y873D01*
X160767Y925D01*
X160684Y981D01*
X160604Y1039D01*
X160526Y1101D01*
X160451Y1166D01*
X160378Y1234D01*
X160308Y1304D01*
X160240Y1377D01*
X160175Y1452D01*
X160113Y1530D01*
X160055Y1610D01*
X159999Y1693D01*
X159947Y1777D01*
X159897Y1864D01*
X159852Y1952D01*
X159809Y2042D01*
X159770Y2134D01*
X159735Y2227D01*
X159703Y2321D01*
X159675Y2416D01*
X159650Y2512D01*
X159629Y2610D01*
X159612Y2708D01*
X159599Y2806D01*
X159590Y2905D01*
X159584Y3005D01*
X159582Y3104D01*
X159582Y9596D01*
X159584Y9695D01*
X159590Y9795D01*
X159599Y9894D01*
X159612Y9992D01*
X159629Y10090D01*
X159650Y10188D01*
X159675Y10284D01*
X159703Y10379D01*
X159735Y10473D01*
X159770Y10566D01*
X159809Y10658D01*
X159852Y10748D01*
X159897Y10836D01*
X159947Y10923D01*
X159999Y11007D01*
X160055Y11090D01*
X160113Y11170D01*
X160175Y11248D01*
X160240Y11323D01*
X160308Y11396D01*
X160378Y11466D01*
X160451Y11534D01*
X160526Y11599D01*
X160604Y11661D01*
X160684Y11719D01*
X160767Y11775D01*
X160851Y11827D01*
X160938Y11877D01*
X161026Y11922D01*
X161116Y11965D01*
X161208Y12004D01*
X161300Y12039D01*
X161395Y12071D01*
X161490Y12099D01*
X161586Y12124D01*
X161684Y12145D01*
X161782Y12162D01*
X161880Y12175D01*
X161979Y12184D01*
X162079Y12190D01*
X162178Y12192D01*
X164775Y12192D01*
X171623Y12192D02*
X171623Y508D01*
X168378Y12192D02*
X174869Y12192D01*
X179046Y8946D02*
X179046Y3754D01*
X179045Y8946D02*
X179047Y9059D01*
X179053Y9172D01*
X179063Y9285D01*
X179077Y9398D01*
X179094Y9510D01*
X179116Y9621D01*
X179141Y9731D01*
X179171Y9841D01*
X179204Y9949D01*
X179241Y10056D01*
X179281Y10162D01*
X179326Y10266D01*
X179374Y10369D01*
X179425Y10470D01*
X179480Y10569D01*
X179538Y10666D01*
X179600Y10761D01*
X179665Y10854D01*
X179733Y10944D01*
X179804Y11032D01*
X179879Y11118D01*
X179956Y11201D01*
X180036Y11281D01*
X180119Y11358D01*
X180205Y11433D01*
X180293Y11504D01*
X180383Y11572D01*
X180476Y11637D01*
X180571Y11699D01*
X180668Y11757D01*
X180767Y11812D01*
X180868Y11863D01*
X180971Y11911D01*
X181075Y11956D01*
X181181Y11996D01*
X181288Y12033D01*
X181396Y12066D01*
X181506Y12096D01*
X181616Y12121D01*
X181727Y12143D01*
X181839Y12160D01*
X181952Y12174D01*
X182065Y12184D01*
X182178Y12190D01*
X182291Y12192D01*
X182404Y12190D01*
X182517Y12184D01*
X182630Y12174D01*
X182743Y12160D01*
X182855Y12143D01*
X182966Y12121D01*
X183076Y12096D01*
X183186Y12066D01*
X183294Y12033D01*
X183401Y11996D01*
X183507Y11956D01*
X183611Y11911D01*
X183714Y11863D01*
X183815Y11812D01*
X183914Y11757D01*
X184011Y11699D01*
X184106Y11637D01*
X184199Y11572D01*
X184289Y11504D01*
X184377Y11433D01*
X184463Y11358D01*
X184546Y11281D01*
X184626Y11201D01*
X184703Y11118D01*
X184778Y11032D01*
X184849Y10944D01*
X184917Y10854D01*
X184982Y10761D01*
X185044Y10666D01*
X185102Y10569D01*
X185157Y10470D01*
X185208Y10369D01*
X185256Y10266D01*
X185301Y10162D01*
X185341Y10056D01*
X185378Y9949D01*
X185411Y9841D01*
X185441Y9731D01*
X185466Y9621D01*
X185488Y9510D01*
X185505Y9398D01*
X185519Y9285D01*
X185529Y9172D01*
X185535Y9059D01*
X185537Y8946D01*
X185537Y3754D01*
X185535Y3641D01*
X185529Y3528D01*
X185519Y3415D01*
X185505Y3302D01*
X185488Y3190D01*
X185466Y3079D01*
X185441Y2969D01*
X185411Y2859D01*
X185378Y2751D01*
X185341Y2644D01*
X185301Y2538D01*
X185256Y2434D01*
X185208Y2331D01*
X185157Y2230D01*
X185102Y2131D01*
X185044Y2034D01*
X184982Y1939D01*
X184917Y1846D01*
X184849Y1756D01*
X184778Y1668D01*
X184703Y1582D01*
X184626Y1499D01*
X184546Y1419D01*
X184463Y1342D01*
X184377Y1267D01*
X184289Y1196D01*
X184199Y1128D01*
X184106Y1063D01*
X184011Y1001D01*
X183914Y943D01*
X183815Y888D01*
X183714Y837D01*
X183611Y789D01*
X183507Y744D01*
X183401Y704D01*
X183294Y667D01*
X183186Y634D01*
X183076Y604D01*
X182966Y579D01*
X182855Y557D01*
X182743Y540D01*
X182630Y526D01*
X182517Y516D01*
X182404Y510D01*
X182291Y508D01*
X182178Y510D01*
X182065Y516D01*
X181952Y526D01*
X181839Y540D01*
X181727Y557D01*
X181616Y579D01*
X181506Y604D01*
X181396Y634D01*
X181288Y667D01*
X181181Y704D01*
X181075Y744D01*
X180971Y789D01*
X180868Y837D01*
X180767Y888D01*
X180668Y943D01*
X180571Y1001D01*
X180476Y1063D01*
X180383Y1128D01*
X180293Y1196D01*
X180205Y1267D01*
X180119Y1342D01*
X180036Y1419D01*
X179956Y1499D01*
X179879Y1582D01*
X179804Y1668D01*
X179733Y1756D01*
X179665Y1846D01*
X179600Y1939D01*
X179538Y2034D01*
X179480Y2131D01*
X179425Y2230D01*
X179374Y2331D01*
X179326Y2434D01*
X179281Y2538D01*
X179241Y2644D01*
X179204Y2751D01*
X179171Y2859D01*
X179141Y2969D01*
X179116Y3079D01*
X179094Y3190D01*
X179077Y3302D01*
X179063Y3415D01*
X179053Y3528D01*
X179047Y3641D01*
X179045Y3754D01*
X190930Y508D02*
X190930Y12192D01*
X194176Y12192D01*
X194289Y12190D01*
X194402Y12184D01*
X194515Y12174D01*
X194628Y12160D01*
X194740Y12143D01*
X194851Y12121D01*
X194961Y12096D01*
X195071Y12066D01*
X195179Y12033D01*
X195286Y11996D01*
X195392Y11956D01*
X195496Y11911D01*
X195599Y11863D01*
X195700Y11812D01*
X195799Y11757D01*
X195896Y11699D01*
X195991Y11637D01*
X196084Y11572D01*
X196174Y11504D01*
X196262Y11433D01*
X196348Y11358D01*
X196431Y11281D01*
X196511Y11201D01*
X196588Y11118D01*
X196663Y11032D01*
X196734Y10944D01*
X196802Y10854D01*
X196867Y10761D01*
X196929Y10666D01*
X196987Y10569D01*
X197042Y10470D01*
X197093Y10369D01*
X197141Y10266D01*
X197186Y10162D01*
X197226Y10056D01*
X197263Y9949D01*
X197296Y9841D01*
X197326Y9731D01*
X197351Y9621D01*
X197373Y9510D01*
X197390Y9398D01*
X197404Y9285D01*
X197414Y9172D01*
X197420Y9059D01*
X197422Y8946D01*
X197420Y8833D01*
X197414Y8720D01*
X197404Y8607D01*
X197390Y8494D01*
X197373Y8382D01*
X197351Y8271D01*
X197326Y8161D01*
X197296Y8051D01*
X197263Y7943D01*
X197226Y7836D01*
X197186Y7730D01*
X197141Y7626D01*
X197093Y7523D01*
X197042Y7422D01*
X196987Y7323D01*
X196929Y7226D01*
X196867Y7131D01*
X196802Y7038D01*
X196734Y6948D01*
X196663Y6860D01*
X196588Y6774D01*
X196511Y6691D01*
X196431Y6611D01*
X196348Y6534D01*
X196262Y6459D01*
X196174Y6388D01*
X196084Y6320D01*
X195991Y6255D01*
X195896Y6193D01*
X195799Y6135D01*
X195700Y6080D01*
X195599Y6029D01*
X195496Y5981D01*
X195392Y5936D01*
X195286Y5896D01*
X195179Y5859D01*
X195071Y5826D01*
X194961Y5796D01*
X194851Y5771D01*
X194740Y5749D01*
X194628Y5732D01*
X194515Y5718D01*
X194402Y5708D01*
X194289Y5702D01*
X194176Y5700D01*
X194176Y5701D02*
X190930Y5701D01*
X194825Y5701D02*
X197422Y508D01*
D11*
X102500Y92700D02*
X27500Y92700D01*
X102500Y92700D02*
X102500Y52700D01*
X27500Y52700D01*
X27500Y92700D01*
X27500Y105700D02*
X102500Y105700D01*
X27500Y105700D02*
X27500Y92700D01*
X102500Y92700D02*
X102500Y105700D01*
D10*
X69403Y89992D02*
X65508Y78308D01*
X73297Y78308D02*
X69403Y89992D01*
X72324Y81229D02*
X66482Y81229D01*
X76938Y89992D02*
X80833Y78308D01*
X84727Y89992D01*
X91614Y89992D02*
X89017Y80904D01*
X95508Y80904D01*
X93561Y83501D02*
X93561Y78308D01*
X100447Y78308D02*
X104342Y78308D01*
X104441Y78310D01*
X104541Y78316D01*
X104640Y78325D01*
X104738Y78338D01*
X104836Y78355D01*
X104934Y78376D01*
X105030Y78401D01*
X105125Y78429D01*
X105219Y78461D01*
X105312Y78496D01*
X105404Y78535D01*
X105494Y78578D01*
X105582Y78623D01*
X105669Y78673D01*
X105753Y78725D01*
X105836Y78781D01*
X105916Y78839D01*
X105994Y78901D01*
X106069Y78966D01*
X106142Y79034D01*
X106212Y79104D01*
X106280Y79177D01*
X106345Y79252D01*
X106407Y79330D01*
X106465Y79410D01*
X106521Y79493D01*
X106573Y79577D01*
X106623Y79664D01*
X106668Y79752D01*
X106711Y79842D01*
X106750Y79934D01*
X106785Y80027D01*
X106817Y80121D01*
X106845Y80216D01*
X106870Y80312D01*
X106891Y80410D01*
X106908Y80508D01*
X106921Y80606D01*
X106930Y80705D01*
X106936Y80805D01*
X106938Y80904D01*
X106938Y82203D01*
X106936Y82302D01*
X106930Y82402D01*
X106921Y82501D01*
X106908Y82599D01*
X106891Y82697D01*
X106870Y82795D01*
X106845Y82891D01*
X106817Y82986D01*
X106785Y83080D01*
X106750Y83173D01*
X106711Y83265D01*
X106668Y83355D01*
X106623Y83443D01*
X106573Y83530D01*
X106521Y83614D01*
X106465Y83697D01*
X106407Y83777D01*
X106345Y83855D01*
X106280Y83930D01*
X106212Y84003D01*
X106142Y84073D01*
X106069Y84141D01*
X105994Y84206D01*
X105916Y84268D01*
X105836Y84326D01*
X105753Y84382D01*
X105669Y84434D01*
X105582Y84484D01*
X105494Y84529D01*
X105404Y84572D01*
X105312Y84611D01*
X105219Y84646D01*
X105125Y84678D01*
X105030Y84706D01*
X104934Y84731D01*
X104836Y84752D01*
X104738Y84769D01*
X104640Y84782D01*
X104541Y84791D01*
X104441Y84797D01*
X104342Y84799D01*
X100447Y84799D01*
X100447Y89992D01*
X106938Y89992D01*
X115447Y89992D02*
X115554Y89990D01*
X115660Y89984D01*
X115766Y89974D01*
X115872Y89961D01*
X115978Y89943D01*
X116082Y89922D01*
X116186Y89897D01*
X116289Y89868D01*
X116390Y89836D01*
X116490Y89799D01*
X116589Y89759D01*
X116687Y89716D01*
X116783Y89669D01*
X116877Y89618D01*
X116969Y89564D01*
X117059Y89507D01*
X117147Y89447D01*
X117232Y89383D01*
X117315Y89316D01*
X117396Y89246D01*
X117474Y89174D01*
X117550Y89098D01*
X117622Y89020D01*
X117692Y88939D01*
X117759Y88856D01*
X117823Y88771D01*
X117883Y88683D01*
X117940Y88593D01*
X117994Y88501D01*
X118045Y88407D01*
X118092Y88311D01*
X118135Y88213D01*
X118175Y88114D01*
X118212Y88014D01*
X118244Y87913D01*
X118273Y87810D01*
X118298Y87706D01*
X118319Y87602D01*
X118337Y87496D01*
X118350Y87390D01*
X118360Y87284D01*
X118366Y87178D01*
X118368Y87071D01*
X115447Y89992D02*
X115326Y89990D01*
X115205Y89984D01*
X115085Y89974D01*
X114964Y89961D01*
X114845Y89943D01*
X114725Y89922D01*
X114607Y89897D01*
X114490Y89868D01*
X114373Y89835D01*
X114258Y89799D01*
X114144Y89758D01*
X114031Y89715D01*
X113919Y89667D01*
X113810Y89616D01*
X113702Y89561D01*
X113595Y89503D01*
X113491Y89442D01*
X113389Y89377D01*
X113289Y89309D01*
X113191Y89238D01*
X113095Y89164D01*
X113002Y89087D01*
X112912Y89006D01*
X112824Y88923D01*
X112739Y88837D01*
X112656Y88748D01*
X112577Y88657D01*
X112500Y88563D01*
X112427Y88467D01*
X112357Y88369D01*
X112290Y88268D01*
X112226Y88165D01*
X112166Y88060D01*
X112109Y87953D01*
X112055Y87845D01*
X112005Y87735D01*
X111959Y87623D01*
X111916Y87510D01*
X111877Y87395D01*
X117395Y84799D02*
X117474Y84876D01*
X117550Y84957D01*
X117623Y85040D01*
X117693Y85125D01*
X117760Y85213D01*
X117824Y85303D01*
X117884Y85395D01*
X117941Y85490D01*
X117995Y85586D01*
X118046Y85684D01*
X118093Y85784D01*
X118137Y85886D01*
X118177Y85989D01*
X118213Y86093D01*
X118245Y86199D01*
X118274Y86305D01*
X118299Y86413D01*
X118321Y86521D01*
X118338Y86631D01*
X118352Y86740D01*
X118361Y86850D01*
X118367Y86961D01*
X118369Y87071D01*
X117394Y84799D02*
X111877Y78308D01*
X118368Y78308D01*
X123307Y80904D02*
X125903Y89992D01*
X123307Y80904D02*
X129798Y80904D01*
X127851Y83501D02*
X127851Y78308D01*
X134243Y77010D02*
X139436Y77010D01*
X147395Y78308D02*
X147494Y78310D01*
X147594Y78316D01*
X147693Y78325D01*
X147791Y78338D01*
X147889Y78355D01*
X147987Y78376D01*
X148083Y78401D01*
X148178Y78429D01*
X148272Y78461D01*
X148365Y78496D01*
X148457Y78535D01*
X148547Y78578D01*
X148635Y78623D01*
X148722Y78673D01*
X148806Y78725D01*
X148889Y78781D01*
X148969Y78839D01*
X149047Y78901D01*
X149122Y78966D01*
X149195Y79034D01*
X149265Y79104D01*
X149333Y79177D01*
X149398Y79252D01*
X149460Y79330D01*
X149518Y79410D01*
X149574Y79493D01*
X149626Y79577D01*
X149676Y79664D01*
X149721Y79752D01*
X149764Y79842D01*
X149803Y79934D01*
X149838Y80027D01*
X149870Y80121D01*
X149898Y80216D01*
X149923Y80312D01*
X149944Y80410D01*
X149961Y80508D01*
X149974Y80606D01*
X149983Y80705D01*
X149989Y80805D01*
X149991Y80904D01*
X147395Y78308D02*
X147251Y78310D01*
X147106Y78316D01*
X146962Y78325D01*
X146819Y78338D01*
X146675Y78355D01*
X146532Y78376D01*
X146390Y78401D01*
X146249Y78429D01*
X146108Y78461D01*
X145968Y78497D01*
X145829Y78536D01*
X145691Y78579D01*
X145555Y78626D01*
X145419Y78676D01*
X145285Y78730D01*
X145153Y78787D01*
X145022Y78848D01*
X144893Y78912D01*
X144765Y78980D01*
X144639Y79050D01*
X144515Y79125D01*
X144394Y79202D01*
X144274Y79283D01*
X144156Y79366D01*
X144041Y79453D01*
X143928Y79543D01*
X143817Y79636D01*
X143709Y79731D01*
X143603Y79830D01*
X143500Y79931D01*
X143825Y87396D02*
X143827Y87495D01*
X143833Y87595D01*
X143842Y87694D01*
X143855Y87792D01*
X143872Y87890D01*
X143893Y87988D01*
X143918Y88084D01*
X143946Y88179D01*
X143978Y88273D01*
X144013Y88366D01*
X144052Y88458D01*
X144095Y88548D01*
X144140Y88636D01*
X144190Y88723D01*
X144242Y88807D01*
X144298Y88890D01*
X144356Y88970D01*
X144418Y89048D01*
X144483Y89123D01*
X144551Y89196D01*
X144621Y89266D01*
X144694Y89334D01*
X144769Y89399D01*
X144847Y89461D01*
X144927Y89519D01*
X145010Y89575D01*
X145094Y89627D01*
X145181Y89677D01*
X145269Y89722D01*
X145359Y89765D01*
X145451Y89804D01*
X145544Y89839D01*
X145638Y89871D01*
X145733Y89899D01*
X145830Y89924D01*
X145927Y89945D01*
X146025Y89962D01*
X146123Y89975D01*
X146222Y89984D01*
X146322Y89990D01*
X146421Y89992D01*
X146557Y89990D01*
X146693Y89984D01*
X146829Y89975D01*
X146965Y89962D01*
X147100Y89944D01*
X147234Y89924D01*
X147368Y89899D01*
X147502Y89871D01*
X147634Y89838D01*
X147765Y89803D01*
X147896Y89763D01*
X148025Y89720D01*
X148153Y89674D01*
X148279Y89623D01*
X148405Y89570D01*
X148528Y89512D01*
X148650Y89452D01*
X148770Y89388D01*
X148889Y89320D01*
X149005Y89250D01*
X149119Y89176D01*
X149232Y89099D01*
X149342Y89018D01*
X145122Y85124D02*
X145036Y85177D01*
X144952Y85234D01*
X144870Y85293D01*
X144790Y85356D01*
X144713Y85422D01*
X144638Y85490D01*
X144566Y85562D01*
X144497Y85636D01*
X144431Y85713D01*
X144368Y85792D01*
X144308Y85874D01*
X144251Y85958D01*
X144197Y86044D01*
X144147Y86132D01*
X144100Y86222D01*
X144056Y86313D01*
X144017Y86407D01*
X143980Y86501D01*
X143948Y86597D01*
X143919Y86695D01*
X143894Y86793D01*
X143873Y86892D01*
X143855Y86992D01*
X143842Y87092D01*
X143832Y87193D01*
X143826Y87295D01*
X143824Y87396D01*
X148693Y83176D02*
X148779Y83123D01*
X148863Y83066D01*
X148945Y83007D01*
X149025Y82944D01*
X149102Y82878D01*
X149177Y82810D01*
X149249Y82738D01*
X149318Y82664D01*
X149384Y82587D01*
X149447Y82508D01*
X149507Y82426D01*
X149564Y82342D01*
X149618Y82256D01*
X149668Y82168D01*
X149715Y82078D01*
X149759Y81987D01*
X149798Y81893D01*
X149835Y81799D01*
X149867Y81703D01*
X149896Y81605D01*
X149921Y81507D01*
X149942Y81408D01*
X149960Y81308D01*
X149973Y81208D01*
X149983Y81107D01*
X149989Y81005D01*
X149991Y80904D01*
X148693Y83176D02*
X145123Y85124D01*
X154126Y89992D02*
X156722Y78308D01*
X159319Y86097D01*
X161915Y78308D01*
X164511Y89992D01*
X169987Y89992D02*
X169987Y78308D01*
X171285Y78308D02*
X168688Y78308D01*
X168688Y89992D02*
X171285Y89992D01*
X178368Y89992D02*
X178368Y78308D01*
X175123Y89992D02*
X181614Y89992D01*
X188354Y78308D02*
X190951Y78308D01*
X188354Y78308D02*
X188255Y78310D01*
X188155Y78316D01*
X188056Y78325D01*
X187958Y78338D01*
X187860Y78355D01*
X187762Y78376D01*
X187666Y78401D01*
X187571Y78429D01*
X187477Y78461D01*
X187384Y78496D01*
X187292Y78535D01*
X187202Y78578D01*
X187114Y78623D01*
X187027Y78673D01*
X186943Y78725D01*
X186860Y78781D01*
X186780Y78839D01*
X186702Y78901D01*
X186627Y78966D01*
X186554Y79034D01*
X186484Y79104D01*
X186416Y79177D01*
X186351Y79252D01*
X186289Y79330D01*
X186231Y79410D01*
X186175Y79493D01*
X186123Y79577D01*
X186073Y79664D01*
X186028Y79752D01*
X185985Y79842D01*
X185946Y79934D01*
X185911Y80027D01*
X185879Y80121D01*
X185851Y80216D01*
X185826Y80312D01*
X185805Y80410D01*
X185788Y80508D01*
X185775Y80606D01*
X185766Y80705D01*
X185760Y80805D01*
X185758Y80904D01*
X185758Y87396D01*
X185760Y87495D01*
X185766Y87595D01*
X185775Y87694D01*
X185788Y87792D01*
X185805Y87890D01*
X185826Y87988D01*
X185851Y88084D01*
X185879Y88179D01*
X185911Y88273D01*
X185946Y88366D01*
X185985Y88458D01*
X186028Y88548D01*
X186073Y88636D01*
X186123Y88723D01*
X186175Y88807D01*
X186231Y88890D01*
X186289Y88970D01*
X186351Y89048D01*
X186416Y89123D01*
X186484Y89196D01*
X186554Y89266D01*
X186627Y89334D01*
X186702Y89399D01*
X186780Y89461D01*
X186860Y89519D01*
X186943Y89575D01*
X187027Y89627D01*
X187114Y89677D01*
X187202Y89722D01*
X187292Y89765D01*
X187384Y89804D01*
X187476Y89839D01*
X187571Y89871D01*
X187666Y89899D01*
X187762Y89924D01*
X187860Y89945D01*
X187958Y89962D01*
X188056Y89975D01*
X188155Y89984D01*
X188255Y89990D01*
X188354Y89992D01*
X190951Y89992D01*
X195697Y89992D02*
X195697Y78308D01*
X195697Y84799D02*
X202188Y84799D01*
X202188Y89992D02*
X202188Y78308D01*
M02*
