G04 EAGLE Gerber X2 export*
%TF.Part,Single*%
%TF.FileFunction,Legend,Top,1*%
%TF.FilePolarity,Positive*%
%TF.GenerationSoftware,Autodesk,EAGLE,9.1.0*%
%TF.CreationDate,2020-08-17T16:39:21Z*%
G75*
%MOMM*%
%FSLAX34Y34*%
%LPD*%
%AMOC8*
5,1,8,0,0,1.08239X$1,22.5*%
G01*
%ADD10C,0.127000*%
%ADD11C,0.101600*%


D10*
X50000Y93400D02*
X80000Y93400D01*
X80000Y100400D02*
X44500Y100400D01*
X42500Y112400D02*
X80000Y112400D01*
X80000Y121400D02*
X42500Y121400D01*
X44500Y100400D02*
X44413Y100398D01*
X44326Y100392D01*
X44239Y100383D01*
X44153Y100370D01*
X44067Y100353D01*
X43982Y100332D01*
X43899Y100307D01*
X43816Y100279D01*
X43735Y100248D01*
X43655Y100213D01*
X43577Y100174D01*
X43500Y100132D01*
X43425Y100087D01*
X43353Y100038D01*
X43282Y99987D01*
X43214Y99932D01*
X43149Y99875D01*
X43086Y99814D01*
X43025Y99751D01*
X42968Y99686D01*
X42913Y99618D01*
X42862Y99547D01*
X42813Y99475D01*
X42768Y99400D01*
X42726Y99323D01*
X42687Y99245D01*
X42652Y99165D01*
X42621Y99084D01*
X42593Y99001D01*
X42568Y98918D01*
X42547Y98833D01*
X42530Y98747D01*
X42517Y98661D01*
X42508Y98574D01*
X42502Y98487D01*
X42500Y98400D01*
X42500Y93400D01*
X50000Y93400D01*
X80000Y93400D02*
X80000Y100400D01*
X80000Y112400D02*
X80000Y121400D01*
X80000Y112400D02*
X80000Y100400D01*
X42500Y112400D02*
X42500Y121400D01*
X42500Y112400D02*
X42500Y98900D01*
X50000Y93400D02*
X50000Y86900D01*
X80000Y85400D02*
X80000Y93400D01*
X50000Y70900D02*
X50000Y62400D01*
X80000Y62400D01*
X80000Y70900D01*
D11*
X39483Y63296D02*
X39481Y63395D01*
X39475Y63495D01*
X39466Y63594D01*
X39453Y63693D01*
X39435Y63791D01*
X39415Y63888D01*
X39390Y63984D01*
X39362Y64080D01*
X39330Y64174D01*
X39295Y64267D01*
X39256Y64359D01*
X39213Y64449D01*
X39167Y64537D01*
X39118Y64624D01*
X39066Y64708D01*
X39010Y64791D01*
X38951Y64871D01*
X38889Y64949D01*
X38825Y65025D01*
X38757Y65098D01*
X38687Y65168D01*
X38614Y65236D01*
X38538Y65300D01*
X38460Y65362D01*
X38380Y65421D01*
X38297Y65477D01*
X38213Y65529D01*
X38126Y65578D01*
X38038Y65624D01*
X37948Y65667D01*
X37856Y65706D01*
X37763Y65741D01*
X37669Y65773D01*
X37573Y65801D01*
X37477Y65826D01*
X37380Y65846D01*
X37282Y65864D01*
X37183Y65877D01*
X37084Y65886D01*
X36985Y65892D01*
X36885Y65894D01*
X39482Y63296D02*
X39480Y63152D01*
X39474Y63007D01*
X39465Y62863D01*
X39452Y62719D01*
X39435Y62576D01*
X39414Y62433D01*
X39389Y62291D01*
X39361Y62149D01*
X39329Y62008D01*
X39293Y61868D01*
X39254Y61730D01*
X39211Y61592D01*
X39164Y61455D01*
X39114Y61320D01*
X39060Y61186D01*
X39003Y61053D01*
X38942Y60922D01*
X38878Y60793D01*
X38810Y60665D01*
X38739Y60539D01*
X38665Y60415D01*
X38588Y60293D01*
X38507Y60174D01*
X38423Y60056D01*
X38336Y59941D01*
X38247Y59828D01*
X38154Y59717D01*
X38058Y59609D01*
X37960Y59503D01*
X37859Y59400D01*
X30391Y59724D02*
X30291Y59726D01*
X30192Y59732D01*
X30093Y59741D01*
X29994Y59754D01*
X29896Y59772D01*
X29799Y59792D01*
X29703Y59817D01*
X29607Y59845D01*
X29513Y59877D01*
X29420Y59912D01*
X29328Y59951D01*
X29238Y59994D01*
X29150Y60040D01*
X29063Y60089D01*
X28979Y60141D01*
X28896Y60197D01*
X28816Y60256D01*
X28738Y60318D01*
X28662Y60382D01*
X28589Y60450D01*
X28519Y60520D01*
X28451Y60593D01*
X28387Y60669D01*
X28325Y60747D01*
X28266Y60827D01*
X28210Y60910D01*
X28158Y60994D01*
X28109Y61081D01*
X28063Y61169D01*
X28020Y61259D01*
X27981Y61351D01*
X27946Y61444D01*
X27914Y61538D01*
X27886Y61634D01*
X27861Y61730D01*
X27841Y61827D01*
X27823Y61925D01*
X27810Y62024D01*
X27801Y62123D01*
X27795Y62222D01*
X27793Y62322D01*
X27794Y62322D02*
X27796Y62458D01*
X27802Y62594D01*
X27811Y62730D01*
X27824Y62866D01*
X27842Y63001D01*
X27862Y63136D01*
X27887Y63270D01*
X27915Y63403D01*
X27948Y63535D01*
X27983Y63667D01*
X28023Y63797D01*
X28066Y63927D01*
X28113Y64055D01*
X28163Y64181D01*
X28217Y64306D01*
X28274Y64430D01*
X28335Y64552D01*
X28399Y64672D01*
X28466Y64791D01*
X28537Y64907D01*
X28611Y65022D01*
X28688Y65134D01*
X28768Y65244D01*
X32664Y61024D02*
X32611Y60937D01*
X32554Y60853D01*
X32494Y60771D01*
X32432Y60691D01*
X32366Y60614D01*
X32297Y60539D01*
X32226Y60468D01*
X32151Y60398D01*
X32075Y60332D01*
X31995Y60269D01*
X31914Y60209D01*
X31830Y60152D01*
X31744Y60098D01*
X31656Y60048D01*
X31566Y60001D01*
X31474Y59958D01*
X31381Y59918D01*
X31286Y59881D01*
X31190Y59849D01*
X31093Y59820D01*
X30994Y59795D01*
X30895Y59774D01*
X30795Y59756D01*
X30695Y59743D01*
X30594Y59733D01*
X30492Y59727D01*
X30391Y59725D01*
X34612Y64595D02*
X34665Y64682D01*
X34722Y64766D01*
X34782Y64848D01*
X34844Y64928D01*
X34910Y65005D01*
X34979Y65080D01*
X35050Y65152D01*
X35125Y65221D01*
X35201Y65287D01*
X35281Y65350D01*
X35362Y65410D01*
X35446Y65467D01*
X35532Y65521D01*
X35620Y65571D01*
X35710Y65618D01*
X35802Y65661D01*
X35895Y65701D01*
X35990Y65738D01*
X36086Y65770D01*
X36183Y65799D01*
X36282Y65824D01*
X36381Y65845D01*
X36481Y65863D01*
X36581Y65876D01*
X36682Y65886D01*
X36784Y65892D01*
X36885Y65894D01*
X34612Y64595D02*
X32664Y61024D01*
X30391Y70453D02*
X27793Y73700D01*
X39482Y73700D01*
X39482Y70453D02*
X39482Y76947D01*
X65508Y508D02*
X68754Y508D01*
X68867Y510D01*
X68980Y516D01*
X69093Y526D01*
X69206Y540D01*
X69318Y557D01*
X69429Y579D01*
X69539Y604D01*
X69649Y634D01*
X69757Y667D01*
X69864Y704D01*
X69970Y744D01*
X70074Y789D01*
X70177Y837D01*
X70278Y888D01*
X70377Y943D01*
X70474Y1001D01*
X70569Y1063D01*
X70662Y1128D01*
X70752Y1196D01*
X70840Y1267D01*
X70926Y1342D01*
X71009Y1419D01*
X71089Y1499D01*
X71166Y1582D01*
X71241Y1668D01*
X71312Y1756D01*
X71380Y1846D01*
X71445Y1939D01*
X71507Y2034D01*
X71565Y2131D01*
X71620Y2230D01*
X71671Y2331D01*
X71719Y2434D01*
X71764Y2538D01*
X71804Y2644D01*
X71841Y2751D01*
X71874Y2859D01*
X71904Y2969D01*
X71929Y3079D01*
X71951Y3190D01*
X71968Y3302D01*
X71982Y3415D01*
X71992Y3528D01*
X71998Y3641D01*
X72000Y3754D01*
X71998Y3867D01*
X71992Y3980D01*
X71982Y4093D01*
X71968Y4206D01*
X71951Y4318D01*
X71929Y4429D01*
X71904Y4539D01*
X71874Y4649D01*
X71841Y4757D01*
X71804Y4864D01*
X71764Y4970D01*
X71719Y5074D01*
X71671Y5177D01*
X71620Y5278D01*
X71565Y5377D01*
X71507Y5474D01*
X71445Y5569D01*
X71380Y5662D01*
X71312Y5752D01*
X71241Y5840D01*
X71166Y5926D01*
X71089Y6009D01*
X71009Y6089D01*
X70926Y6166D01*
X70840Y6241D01*
X70752Y6312D01*
X70662Y6380D01*
X70569Y6445D01*
X70474Y6507D01*
X70377Y6565D01*
X70278Y6620D01*
X70177Y6671D01*
X70074Y6719D01*
X69970Y6764D01*
X69864Y6804D01*
X69757Y6841D01*
X69649Y6874D01*
X69539Y6904D01*
X69429Y6929D01*
X69318Y6951D01*
X69206Y6968D01*
X69093Y6982D01*
X68980Y6992D01*
X68867Y6998D01*
X68754Y7000D01*
X69403Y12192D02*
X65508Y12192D01*
X69403Y12192D02*
X69504Y12190D01*
X69604Y12184D01*
X69704Y12174D01*
X69804Y12161D01*
X69903Y12143D01*
X70002Y12122D01*
X70099Y12097D01*
X70196Y12068D01*
X70291Y12035D01*
X70385Y11999D01*
X70477Y11959D01*
X70568Y11916D01*
X70657Y11869D01*
X70744Y11819D01*
X70830Y11765D01*
X70913Y11708D01*
X70993Y11648D01*
X71072Y11585D01*
X71148Y11518D01*
X71221Y11449D01*
X71291Y11377D01*
X71359Y11303D01*
X71424Y11226D01*
X71485Y11146D01*
X71544Y11064D01*
X71599Y10980D01*
X71651Y10894D01*
X71700Y10806D01*
X71745Y10716D01*
X71787Y10624D01*
X71825Y10531D01*
X71859Y10436D01*
X71890Y10341D01*
X71917Y10244D01*
X71940Y10146D01*
X71960Y10047D01*
X71975Y9947D01*
X71987Y9847D01*
X71995Y9747D01*
X71999Y9646D01*
X71999Y9546D01*
X71995Y9445D01*
X71987Y9345D01*
X71975Y9245D01*
X71960Y9145D01*
X71940Y9046D01*
X71917Y8948D01*
X71890Y8851D01*
X71859Y8756D01*
X71825Y8661D01*
X71787Y8568D01*
X71745Y8476D01*
X71700Y8386D01*
X71651Y8298D01*
X71599Y8212D01*
X71544Y8128D01*
X71485Y8046D01*
X71424Y7966D01*
X71359Y7889D01*
X71291Y7815D01*
X71221Y7743D01*
X71148Y7674D01*
X71072Y7607D01*
X70993Y7544D01*
X70913Y7484D01*
X70830Y7427D01*
X70744Y7373D01*
X70657Y7323D01*
X70568Y7276D01*
X70477Y7233D01*
X70385Y7193D01*
X70291Y7157D01*
X70196Y7124D01*
X70099Y7095D01*
X70002Y7070D01*
X69903Y7049D01*
X69804Y7031D01*
X69704Y7018D01*
X69604Y7008D01*
X69504Y7002D01*
X69403Y7000D01*
X69403Y6999D02*
X66806Y6999D01*
X77488Y12192D02*
X77488Y508D01*
X77488Y12192D02*
X80734Y12192D01*
X80847Y12190D01*
X80960Y12184D01*
X81073Y12174D01*
X81186Y12160D01*
X81298Y12143D01*
X81409Y12121D01*
X81519Y12096D01*
X81629Y12066D01*
X81737Y12033D01*
X81844Y11996D01*
X81950Y11956D01*
X82054Y11911D01*
X82157Y11863D01*
X82258Y11812D01*
X82357Y11757D01*
X82454Y11699D01*
X82549Y11637D01*
X82642Y11572D01*
X82732Y11504D01*
X82820Y11433D01*
X82906Y11358D01*
X82989Y11281D01*
X83069Y11201D01*
X83146Y11118D01*
X83221Y11032D01*
X83292Y10944D01*
X83360Y10854D01*
X83425Y10761D01*
X83487Y10666D01*
X83545Y10569D01*
X83600Y10470D01*
X83651Y10369D01*
X83699Y10266D01*
X83744Y10162D01*
X83784Y10056D01*
X83821Y9949D01*
X83854Y9841D01*
X83884Y9731D01*
X83909Y9621D01*
X83931Y9510D01*
X83948Y9398D01*
X83962Y9285D01*
X83972Y9172D01*
X83978Y9059D01*
X83980Y8946D01*
X83978Y8833D01*
X83972Y8720D01*
X83962Y8607D01*
X83948Y8494D01*
X83931Y8382D01*
X83909Y8271D01*
X83884Y8161D01*
X83854Y8051D01*
X83821Y7943D01*
X83784Y7836D01*
X83744Y7730D01*
X83699Y7626D01*
X83651Y7523D01*
X83600Y7422D01*
X83545Y7323D01*
X83487Y7226D01*
X83425Y7131D01*
X83360Y7038D01*
X83292Y6948D01*
X83221Y6860D01*
X83146Y6774D01*
X83069Y6691D01*
X82989Y6611D01*
X82906Y6534D01*
X82820Y6459D01*
X82732Y6388D01*
X82642Y6320D01*
X82549Y6255D01*
X82454Y6193D01*
X82357Y6135D01*
X82258Y6080D01*
X82157Y6029D01*
X82054Y5981D01*
X81950Y5936D01*
X81844Y5896D01*
X81737Y5859D01*
X81629Y5826D01*
X81519Y5796D01*
X81409Y5771D01*
X81298Y5749D01*
X81186Y5732D01*
X81073Y5718D01*
X80960Y5708D01*
X80847Y5702D01*
X80734Y5700D01*
X80734Y5701D02*
X77488Y5701D01*
X89328Y508D02*
X89328Y12192D01*
X88029Y508D02*
X90626Y508D01*
X90626Y12192D02*
X88029Y12192D01*
X95607Y12192D02*
X95607Y508D01*
X102098Y508D02*
X95607Y12192D01*
X102098Y12192D02*
X102098Y508D01*
X106924Y-790D02*
X112117Y-790D01*
X119125Y508D02*
X121722Y508D01*
X119125Y508D02*
X119026Y510D01*
X118926Y516D01*
X118827Y525D01*
X118729Y538D01*
X118631Y555D01*
X118533Y576D01*
X118437Y601D01*
X118342Y629D01*
X118248Y661D01*
X118155Y696D01*
X118063Y735D01*
X117973Y778D01*
X117885Y823D01*
X117798Y873D01*
X117714Y925D01*
X117631Y981D01*
X117551Y1039D01*
X117473Y1101D01*
X117398Y1166D01*
X117325Y1234D01*
X117255Y1304D01*
X117187Y1377D01*
X117122Y1452D01*
X117060Y1530D01*
X117002Y1610D01*
X116946Y1693D01*
X116894Y1777D01*
X116844Y1864D01*
X116799Y1952D01*
X116756Y2042D01*
X116717Y2134D01*
X116682Y2227D01*
X116650Y2321D01*
X116622Y2416D01*
X116597Y2512D01*
X116576Y2610D01*
X116559Y2708D01*
X116546Y2806D01*
X116537Y2905D01*
X116531Y3005D01*
X116529Y3104D01*
X116529Y9596D01*
X116531Y9695D01*
X116537Y9795D01*
X116546Y9894D01*
X116559Y9992D01*
X116576Y10090D01*
X116597Y10188D01*
X116622Y10284D01*
X116650Y10379D01*
X116682Y10473D01*
X116717Y10566D01*
X116756Y10658D01*
X116799Y10748D01*
X116844Y10836D01*
X116894Y10923D01*
X116946Y11007D01*
X117002Y11090D01*
X117060Y11170D01*
X117122Y11248D01*
X117187Y11323D01*
X117255Y11396D01*
X117325Y11466D01*
X117398Y11534D01*
X117473Y11599D01*
X117551Y11661D01*
X117631Y11719D01*
X117714Y11775D01*
X117798Y11827D01*
X117885Y11877D01*
X117973Y11922D01*
X118063Y11965D01*
X118155Y12004D01*
X118247Y12039D01*
X118342Y12071D01*
X118437Y12099D01*
X118533Y12124D01*
X118631Y12145D01*
X118729Y12162D01*
X118827Y12175D01*
X118926Y12184D01*
X119026Y12190D01*
X119125Y12192D01*
X121722Y12192D01*
X126087Y8946D02*
X126087Y3754D01*
X126086Y8946D02*
X126088Y9059D01*
X126094Y9172D01*
X126104Y9285D01*
X126118Y9398D01*
X126135Y9510D01*
X126157Y9621D01*
X126182Y9731D01*
X126212Y9841D01*
X126245Y9949D01*
X126282Y10056D01*
X126322Y10162D01*
X126367Y10266D01*
X126415Y10369D01*
X126466Y10470D01*
X126521Y10569D01*
X126579Y10666D01*
X126641Y10761D01*
X126706Y10854D01*
X126774Y10944D01*
X126845Y11032D01*
X126920Y11118D01*
X126997Y11201D01*
X127077Y11281D01*
X127160Y11358D01*
X127246Y11433D01*
X127334Y11504D01*
X127424Y11572D01*
X127517Y11637D01*
X127612Y11699D01*
X127709Y11757D01*
X127808Y11812D01*
X127909Y11863D01*
X128012Y11911D01*
X128116Y11956D01*
X128222Y11996D01*
X128329Y12033D01*
X128437Y12066D01*
X128547Y12096D01*
X128657Y12121D01*
X128768Y12143D01*
X128880Y12160D01*
X128993Y12174D01*
X129106Y12184D01*
X129219Y12190D01*
X129332Y12192D01*
X129445Y12190D01*
X129558Y12184D01*
X129671Y12174D01*
X129784Y12160D01*
X129896Y12143D01*
X130007Y12121D01*
X130117Y12096D01*
X130227Y12066D01*
X130335Y12033D01*
X130442Y11996D01*
X130548Y11956D01*
X130652Y11911D01*
X130755Y11863D01*
X130856Y11812D01*
X130955Y11757D01*
X131052Y11699D01*
X131147Y11637D01*
X131240Y11572D01*
X131330Y11504D01*
X131418Y11433D01*
X131504Y11358D01*
X131587Y11281D01*
X131667Y11201D01*
X131744Y11118D01*
X131819Y11032D01*
X131890Y10944D01*
X131958Y10854D01*
X132023Y10761D01*
X132085Y10666D01*
X132143Y10569D01*
X132198Y10470D01*
X132249Y10369D01*
X132297Y10266D01*
X132342Y10162D01*
X132382Y10056D01*
X132419Y9949D01*
X132452Y9841D01*
X132482Y9731D01*
X132507Y9621D01*
X132529Y9510D01*
X132546Y9398D01*
X132560Y9285D01*
X132570Y9172D01*
X132576Y9059D01*
X132578Y8946D01*
X132578Y3754D01*
X132576Y3641D01*
X132570Y3528D01*
X132560Y3415D01*
X132546Y3302D01*
X132529Y3190D01*
X132507Y3079D01*
X132482Y2969D01*
X132452Y2859D01*
X132419Y2751D01*
X132382Y2644D01*
X132342Y2538D01*
X132297Y2434D01*
X132249Y2331D01*
X132198Y2230D01*
X132143Y2131D01*
X132085Y2034D01*
X132023Y1939D01*
X131958Y1846D01*
X131890Y1756D01*
X131819Y1668D01*
X131744Y1582D01*
X131667Y1499D01*
X131587Y1419D01*
X131504Y1342D01*
X131418Y1267D01*
X131330Y1196D01*
X131240Y1128D01*
X131147Y1063D01*
X131052Y1001D01*
X130955Y943D01*
X130856Y888D01*
X130755Y837D01*
X130652Y789D01*
X130548Y744D01*
X130442Y704D01*
X130335Y667D01*
X130227Y634D01*
X130117Y604D01*
X130007Y579D01*
X129896Y557D01*
X129784Y540D01*
X129671Y526D01*
X129558Y516D01*
X129445Y510D01*
X129332Y508D01*
X129219Y510D01*
X129106Y516D01*
X128993Y526D01*
X128880Y540D01*
X128768Y557D01*
X128657Y579D01*
X128547Y604D01*
X128437Y634D01*
X128329Y667D01*
X128222Y704D01*
X128116Y744D01*
X128012Y789D01*
X127909Y837D01*
X127808Y888D01*
X127709Y943D01*
X127612Y1001D01*
X127517Y1063D01*
X127424Y1128D01*
X127334Y1196D01*
X127246Y1267D01*
X127160Y1342D01*
X127077Y1419D01*
X126997Y1499D01*
X126920Y1582D01*
X126845Y1668D01*
X126774Y1756D01*
X126706Y1846D01*
X126641Y1939D01*
X126579Y2034D01*
X126521Y2131D01*
X126466Y2230D01*
X126415Y2331D01*
X126367Y2434D01*
X126322Y2538D01*
X126282Y2644D01*
X126245Y2751D01*
X126212Y2859D01*
X126182Y2969D01*
X126157Y3079D01*
X126135Y3190D01*
X126118Y3302D01*
X126104Y3415D01*
X126094Y3528D01*
X126088Y3641D01*
X126086Y3754D01*
X137898Y508D02*
X137898Y12192D01*
X144389Y508D01*
X144389Y12192D01*
X150112Y508D02*
X155305Y508D01*
X150112Y508D02*
X150112Y12192D01*
X155305Y12192D01*
X154007Y6999D02*
X150112Y6999D01*
X162178Y508D02*
X164775Y508D01*
X162178Y508D02*
X162079Y510D01*
X161979Y516D01*
X161880Y525D01*
X161782Y538D01*
X161684Y555D01*
X161586Y576D01*
X161490Y601D01*
X161395Y629D01*
X161301Y661D01*
X161208Y696D01*
X161116Y735D01*
X161026Y778D01*
X160938Y823D01*
X160851Y873D01*
X160767Y925D01*
X160684Y981D01*
X160604Y1039D01*
X160526Y1101D01*
X160451Y1166D01*
X160378Y1234D01*
X160308Y1304D01*
X160240Y1377D01*
X160175Y1452D01*
X160113Y1530D01*
X160055Y1610D01*
X159999Y1693D01*
X159947Y1777D01*
X159897Y1864D01*
X159852Y1952D01*
X159809Y2042D01*
X159770Y2134D01*
X159735Y2227D01*
X159703Y2321D01*
X159675Y2416D01*
X159650Y2512D01*
X159629Y2610D01*
X159612Y2708D01*
X159599Y2806D01*
X159590Y2905D01*
X159584Y3005D01*
X159582Y3104D01*
X159582Y9596D01*
X159584Y9695D01*
X159590Y9795D01*
X159599Y9894D01*
X159612Y9992D01*
X159629Y10090D01*
X159650Y10188D01*
X159675Y10284D01*
X159703Y10379D01*
X159735Y10473D01*
X159770Y10566D01*
X159809Y10658D01*
X159852Y10748D01*
X159897Y10836D01*
X159947Y10923D01*
X159999Y11007D01*
X160055Y11090D01*
X160113Y11170D01*
X160175Y11248D01*
X160240Y11323D01*
X160308Y11396D01*
X160378Y11466D01*
X160451Y11534D01*
X160526Y11599D01*
X160604Y11661D01*
X160684Y11719D01*
X160767Y11775D01*
X160851Y11827D01*
X160938Y11877D01*
X161026Y11922D01*
X161116Y11965D01*
X161208Y12004D01*
X161300Y12039D01*
X161395Y12071D01*
X161490Y12099D01*
X161586Y12124D01*
X161684Y12145D01*
X161782Y12162D01*
X161880Y12175D01*
X161979Y12184D01*
X162079Y12190D01*
X162178Y12192D01*
X164775Y12192D01*
X171623Y12192D02*
X171623Y508D01*
X168378Y12192D02*
X174869Y12192D01*
X179046Y8946D02*
X179046Y3754D01*
X179045Y8946D02*
X179047Y9059D01*
X179053Y9172D01*
X179063Y9285D01*
X179077Y9398D01*
X179094Y9510D01*
X179116Y9621D01*
X179141Y9731D01*
X179171Y9841D01*
X179204Y9949D01*
X179241Y10056D01*
X179281Y10162D01*
X179326Y10266D01*
X179374Y10369D01*
X179425Y10470D01*
X179480Y10569D01*
X179538Y10666D01*
X179600Y10761D01*
X179665Y10854D01*
X179733Y10944D01*
X179804Y11032D01*
X179879Y11118D01*
X179956Y11201D01*
X180036Y11281D01*
X180119Y11358D01*
X180205Y11433D01*
X180293Y11504D01*
X180383Y11572D01*
X180476Y11637D01*
X180571Y11699D01*
X180668Y11757D01*
X180767Y11812D01*
X180868Y11863D01*
X180971Y11911D01*
X181075Y11956D01*
X181181Y11996D01*
X181288Y12033D01*
X181396Y12066D01*
X181506Y12096D01*
X181616Y12121D01*
X181727Y12143D01*
X181839Y12160D01*
X181952Y12174D01*
X182065Y12184D01*
X182178Y12190D01*
X182291Y12192D01*
X182404Y12190D01*
X182517Y12184D01*
X182630Y12174D01*
X182743Y12160D01*
X182855Y12143D01*
X182966Y12121D01*
X183076Y12096D01*
X183186Y12066D01*
X183294Y12033D01*
X183401Y11996D01*
X183507Y11956D01*
X183611Y11911D01*
X183714Y11863D01*
X183815Y11812D01*
X183914Y11757D01*
X184011Y11699D01*
X184106Y11637D01*
X184199Y11572D01*
X184289Y11504D01*
X184377Y11433D01*
X184463Y11358D01*
X184546Y11281D01*
X184626Y11201D01*
X184703Y11118D01*
X184778Y11032D01*
X184849Y10944D01*
X184917Y10854D01*
X184982Y10761D01*
X185044Y10666D01*
X185102Y10569D01*
X185157Y10470D01*
X185208Y10369D01*
X185256Y10266D01*
X185301Y10162D01*
X185341Y10056D01*
X185378Y9949D01*
X185411Y9841D01*
X185441Y9731D01*
X185466Y9621D01*
X185488Y9510D01*
X185505Y9398D01*
X185519Y9285D01*
X185529Y9172D01*
X185535Y9059D01*
X185537Y8946D01*
X185537Y3754D01*
X185535Y3641D01*
X185529Y3528D01*
X185519Y3415D01*
X185505Y3302D01*
X185488Y3190D01*
X185466Y3079D01*
X185441Y2969D01*
X185411Y2859D01*
X185378Y2751D01*
X185341Y2644D01*
X185301Y2538D01*
X185256Y2434D01*
X185208Y2331D01*
X185157Y2230D01*
X185102Y2131D01*
X185044Y2034D01*
X184982Y1939D01*
X184917Y1846D01*
X184849Y1756D01*
X184778Y1668D01*
X184703Y1582D01*
X184626Y1499D01*
X184546Y1419D01*
X184463Y1342D01*
X184377Y1267D01*
X184289Y1196D01*
X184199Y1128D01*
X184106Y1063D01*
X184011Y1001D01*
X183914Y943D01*
X183815Y888D01*
X183714Y837D01*
X183611Y789D01*
X183507Y744D01*
X183401Y704D01*
X183294Y667D01*
X183186Y634D01*
X183076Y604D01*
X182966Y579D01*
X182855Y557D01*
X182743Y540D01*
X182630Y526D01*
X182517Y516D01*
X182404Y510D01*
X182291Y508D01*
X182178Y510D01*
X182065Y516D01*
X181952Y526D01*
X181839Y540D01*
X181727Y557D01*
X181616Y579D01*
X181506Y604D01*
X181396Y634D01*
X181288Y667D01*
X181181Y704D01*
X181075Y744D01*
X180971Y789D01*
X180868Y837D01*
X180767Y888D01*
X180668Y943D01*
X180571Y1001D01*
X180476Y1063D01*
X180383Y1128D01*
X180293Y1196D01*
X180205Y1267D01*
X180119Y1342D01*
X180036Y1419D01*
X179956Y1499D01*
X179879Y1582D01*
X179804Y1668D01*
X179733Y1756D01*
X179665Y1846D01*
X179600Y1939D01*
X179538Y2034D01*
X179480Y2131D01*
X179425Y2230D01*
X179374Y2331D01*
X179326Y2434D01*
X179281Y2538D01*
X179241Y2644D01*
X179204Y2751D01*
X179171Y2859D01*
X179141Y2969D01*
X179116Y3079D01*
X179094Y3190D01*
X179077Y3302D01*
X179063Y3415D01*
X179053Y3528D01*
X179047Y3641D01*
X179045Y3754D01*
X190930Y508D02*
X190930Y12192D01*
X194176Y12192D01*
X194289Y12190D01*
X194402Y12184D01*
X194515Y12174D01*
X194628Y12160D01*
X194740Y12143D01*
X194851Y12121D01*
X194961Y12096D01*
X195071Y12066D01*
X195179Y12033D01*
X195286Y11996D01*
X195392Y11956D01*
X195496Y11911D01*
X195599Y11863D01*
X195700Y11812D01*
X195799Y11757D01*
X195896Y11699D01*
X195991Y11637D01*
X196084Y11572D01*
X196174Y11504D01*
X196262Y11433D01*
X196348Y11358D01*
X196431Y11281D01*
X196511Y11201D01*
X196588Y11118D01*
X196663Y11032D01*
X196734Y10944D01*
X196802Y10854D01*
X196867Y10761D01*
X196929Y10666D01*
X196987Y10569D01*
X197042Y10470D01*
X197093Y10369D01*
X197141Y10266D01*
X197186Y10162D01*
X197226Y10056D01*
X197263Y9949D01*
X197296Y9841D01*
X197326Y9731D01*
X197351Y9621D01*
X197373Y9510D01*
X197390Y9398D01*
X197404Y9285D01*
X197414Y9172D01*
X197420Y9059D01*
X197422Y8946D01*
X197420Y8833D01*
X197414Y8720D01*
X197404Y8607D01*
X197390Y8494D01*
X197373Y8382D01*
X197351Y8271D01*
X197326Y8161D01*
X197296Y8051D01*
X197263Y7943D01*
X197226Y7836D01*
X197186Y7730D01*
X197141Y7626D01*
X197093Y7523D01*
X197042Y7422D01*
X196987Y7323D01*
X196929Y7226D01*
X196867Y7131D01*
X196802Y7038D01*
X196734Y6948D01*
X196663Y6860D01*
X196588Y6774D01*
X196511Y6691D01*
X196431Y6611D01*
X196348Y6534D01*
X196262Y6459D01*
X196174Y6388D01*
X196084Y6320D01*
X195991Y6255D01*
X195896Y6193D01*
X195799Y6135D01*
X195700Y6080D01*
X195599Y6029D01*
X195496Y5981D01*
X195392Y5936D01*
X195286Y5896D01*
X195179Y5859D01*
X195071Y5826D01*
X194961Y5796D01*
X194851Y5771D01*
X194740Y5749D01*
X194628Y5732D01*
X194515Y5718D01*
X194402Y5708D01*
X194289Y5702D01*
X194176Y5700D01*
X194176Y5701D02*
X190930Y5701D01*
X194825Y5701D02*
X197422Y508D01*
M02*
