G04 EAGLE Gerber X2 export*
%TF.Part,Single*%
%TF.FileFunction,Copper,L1,Top,Mixed*%
%TF.FilePolarity,Positive*%
%TF.GenerationSoftware,Autodesk,EAGLE,9.1.0*%
%TF.CreationDate,2020-08-17T16:38:00Z*%
G75*
%MOMM*%
%FSLAX34Y34*%
%LPD*%
%AMOC8*
5,1,8,0,0,1.08239X$1,22.5*%
G01*
%ADD10R,1.050000X0.600000*%
%ADD11R,1.600000X0.800000*%
%ADD12R,3.000000X2.100000*%
%ADD13C,1.524000*%
%ADD14R,1.680000X1.160000*%
%ADD15C,1.000000*%
%ADD16C,1.000000*%
%ADD17C,1.500000*%
%ADD18C,0.800000*%
%ADD19C,0.500000*%
%ADD20C,4.000000*%

G36*
X104036Y10178D02*
X104036Y10178D01*
X104173Y10181D01*
X104258Y10198D01*
X104345Y10206D01*
X104477Y10242D01*
X104611Y10269D01*
X104692Y10301D01*
X104776Y10324D01*
X104899Y10383D01*
X105026Y10434D01*
X105100Y10480D01*
X105178Y10517D01*
X105289Y10598D01*
X105405Y10670D01*
X105470Y10728D01*
X105540Y10779D01*
X105635Y10878D01*
X105736Y10970D01*
X105790Y11039D01*
X105850Y11101D01*
X105925Y11215D01*
X106009Y11324D01*
X106049Y11401D01*
X106097Y11473D01*
X106151Y11599D01*
X106214Y11721D01*
X106239Y11804D01*
X106274Y11884D01*
X106305Y12017D01*
X106345Y12148D01*
X106355Y12234D01*
X106375Y12319D01*
X106382Y12455D01*
X106398Y12591D01*
X106393Y12678D01*
X106397Y12765D01*
X106380Y12900D01*
X106371Y13037D01*
X106351Y13122D01*
X106340Y13208D01*
X106298Y13338D01*
X106266Y13471D01*
X106230Y13550D01*
X106204Y13633D01*
X106140Y13754D01*
X106084Y13879D01*
X106036Y13951D01*
X105995Y14028D01*
X105910Y14136D01*
X105833Y14249D01*
X105741Y14350D01*
X105719Y14379D01*
X105701Y14395D01*
X105667Y14432D01*
X69065Y51034D01*
X67999Y53607D01*
X67999Y150143D01*
X69065Y152716D01*
X86034Y169685D01*
X88607Y170751D01*
X117000Y170751D01*
X117050Y170755D01*
X117100Y170753D01*
X117272Y170775D01*
X117445Y170791D01*
X117493Y170804D01*
X117543Y170810D01*
X117708Y170863D01*
X117876Y170909D01*
X117921Y170931D01*
X117968Y170946D01*
X118122Y171027D01*
X118278Y171102D01*
X118319Y171132D01*
X118363Y171155D01*
X118499Y171262D01*
X118640Y171364D01*
X118675Y171400D01*
X118714Y171431D01*
X118830Y171561D01*
X118950Y171686D01*
X118977Y171728D01*
X119011Y171766D01*
X119101Y171914D01*
X119197Y172058D01*
X119217Y172104D01*
X119243Y172147D01*
X119305Y172309D01*
X119374Y172469D01*
X119385Y172517D01*
X119403Y172564D01*
X119436Y172735D01*
X119475Y172904D01*
X119478Y172954D01*
X119487Y173003D01*
X119499Y173250D01*
X119499Y173751D01*
X130040Y173751D01*
X140581Y173751D01*
X140581Y171916D01*
X140388Y171195D01*
X140357Y171135D01*
X140341Y171084D01*
X140318Y171035D01*
X140275Y170870D01*
X140225Y170708D01*
X140219Y170655D01*
X140206Y170603D01*
X140193Y170433D01*
X140172Y170264D01*
X140176Y170211D01*
X140172Y170157D01*
X140189Y169988D01*
X140199Y169818D01*
X140212Y169766D01*
X140217Y169713D01*
X140265Y169550D01*
X140305Y169384D01*
X140327Y169335D01*
X140342Y169284D01*
X140417Y169132D01*
X140486Y168976D01*
X140516Y168932D01*
X140540Y168884D01*
X140541Y168883D01*
X140541Y160750D01*
X140545Y160700D01*
X140543Y160650D01*
X140565Y160478D01*
X140581Y160305D01*
X140594Y160257D01*
X140600Y160207D01*
X140653Y160042D01*
X140699Y159874D01*
X140721Y159829D01*
X140736Y159782D01*
X140817Y159628D01*
X140892Y159472D01*
X140922Y159431D01*
X140945Y159387D01*
X141053Y159250D01*
X141154Y159110D01*
X141190Y159075D01*
X141221Y159036D01*
X141351Y158920D01*
X141476Y158800D01*
X141518Y158773D01*
X141556Y158739D01*
X141704Y158649D01*
X141848Y158553D01*
X141894Y158533D01*
X141937Y158507D01*
X142099Y158445D01*
X142259Y158376D01*
X142307Y158365D01*
X142354Y158347D01*
X142525Y158314D01*
X142694Y158275D01*
X142744Y158272D01*
X142793Y158263D01*
X143040Y158251D01*
X191393Y158251D01*
X193966Y157185D01*
X248168Y102983D01*
X248311Y102863D01*
X248451Y102739D01*
X248482Y102720D01*
X248511Y102696D01*
X248673Y102604D01*
X248832Y102507D01*
X248867Y102494D01*
X248899Y102476D01*
X249075Y102414D01*
X249249Y102347D01*
X249285Y102340D01*
X249320Y102327D01*
X249505Y102298D01*
X249688Y102263D01*
X249738Y102260D01*
X249761Y102257D01*
X249798Y102258D01*
X249935Y102251D01*
X303229Y102251D01*
X303415Y102267D01*
X303601Y102279D01*
X303637Y102287D01*
X303674Y102291D01*
X303854Y102340D01*
X304035Y102384D01*
X304069Y102399D01*
X304105Y102409D01*
X304273Y102490D01*
X304443Y102566D01*
X304474Y102586D01*
X304507Y102602D01*
X304658Y102712D01*
X304813Y102817D01*
X304850Y102851D01*
X304869Y102864D01*
X304895Y102891D01*
X304996Y102983D01*
X305564Y103551D01*
X324436Y103551D01*
X325901Y102086D01*
X325901Y88414D01*
X324436Y86949D01*
X305564Y86949D01*
X304996Y87517D01*
X304853Y87637D01*
X304713Y87761D01*
X304682Y87780D01*
X304653Y87804D01*
X304491Y87896D01*
X304332Y87993D01*
X304297Y88006D01*
X304265Y88024D01*
X304089Y88086D01*
X303915Y88153D01*
X303879Y88160D01*
X303844Y88173D01*
X303659Y88202D01*
X303476Y88237D01*
X303426Y88240D01*
X303403Y88243D01*
X303366Y88242D01*
X303229Y88249D01*
X244607Y88249D01*
X242034Y89315D01*
X187832Y143517D01*
X187689Y143637D01*
X187549Y143761D01*
X187518Y143780D01*
X187489Y143804D01*
X187327Y143896D01*
X187168Y143993D01*
X187133Y144006D01*
X187101Y144024D01*
X186925Y144086D01*
X186751Y144153D01*
X186715Y144160D01*
X186680Y144173D01*
X186495Y144202D01*
X186312Y144237D01*
X186262Y144240D01*
X186239Y144243D01*
X186202Y144242D01*
X186065Y144249D01*
X143040Y144249D01*
X142990Y144245D01*
X142940Y144247D01*
X142768Y144225D01*
X142595Y144209D01*
X142547Y144196D01*
X142497Y144190D01*
X142332Y144137D01*
X142164Y144091D01*
X142119Y144069D01*
X142072Y144054D01*
X141918Y143973D01*
X141762Y143898D01*
X141721Y143868D01*
X141677Y143845D01*
X141540Y143738D01*
X141400Y143636D01*
X141365Y143600D01*
X141326Y143569D01*
X141210Y143439D01*
X141090Y143314D01*
X141063Y143272D01*
X141029Y143234D01*
X140939Y143086D01*
X140843Y142942D01*
X140823Y142896D01*
X140797Y142853D01*
X140735Y142691D01*
X140666Y142531D01*
X140655Y142483D01*
X140637Y142436D01*
X140604Y142265D01*
X140565Y142096D01*
X140562Y142046D01*
X140553Y141997D01*
X140541Y141750D01*
X140541Y136750D01*
X140545Y136700D01*
X140543Y136650D01*
X140565Y136478D01*
X140581Y136305D01*
X140594Y136257D01*
X140600Y136207D01*
X140653Y136042D01*
X140699Y135874D01*
X140721Y135829D01*
X140736Y135782D01*
X140817Y135628D01*
X140892Y135472D01*
X140922Y135431D01*
X140945Y135387D01*
X141052Y135250D01*
X141154Y135110D01*
X141190Y135075D01*
X141221Y135036D01*
X141351Y134920D01*
X141476Y134800D01*
X141518Y134773D01*
X141556Y134739D01*
X141704Y134649D01*
X141848Y134553D01*
X141894Y134533D01*
X141937Y134507D01*
X142099Y134445D01*
X142259Y134376D01*
X142307Y134365D01*
X142354Y134347D01*
X142525Y134314D01*
X142694Y134275D01*
X142744Y134272D01*
X142793Y134263D01*
X143040Y134251D01*
X172115Y134251D01*
X172301Y134267D01*
X172487Y134279D01*
X172523Y134287D01*
X172560Y134291D01*
X172740Y134340D01*
X172921Y134384D01*
X172955Y134399D01*
X172991Y134409D01*
X173159Y134490D01*
X173330Y134566D01*
X173360Y134586D01*
X173394Y134602D01*
X173545Y134712D01*
X173699Y134817D01*
X173736Y134851D01*
X173755Y134864D01*
X173781Y134891D01*
X173883Y134983D01*
X174052Y135152D01*
X177911Y136751D01*
X182089Y136751D01*
X185948Y135152D01*
X244868Y76233D01*
X245011Y76113D01*
X245150Y75989D01*
X245182Y75970D01*
X245210Y75946D01*
X245373Y75854D01*
X245532Y75757D01*
X245566Y75744D01*
X245599Y75726D01*
X245775Y75664D01*
X245949Y75597D01*
X245985Y75590D01*
X246020Y75577D01*
X246204Y75548D01*
X246388Y75513D01*
X246438Y75510D01*
X246461Y75507D01*
X246498Y75508D01*
X246635Y75501D01*
X335500Y75501D01*
X335550Y75505D01*
X335600Y75503D01*
X335772Y75525D01*
X335945Y75541D01*
X335993Y75554D01*
X336043Y75560D01*
X336208Y75613D01*
X336376Y75659D01*
X336421Y75681D01*
X336468Y75696D01*
X336622Y75777D01*
X336778Y75852D01*
X336819Y75882D01*
X336863Y75905D01*
X337000Y76012D01*
X337140Y76114D01*
X337175Y76150D01*
X337214Y76181D01*
X337330Y76311D01*
X337450Y76436D01*
X337477Y76478D01*
X337511Y76516D01*
X337601Y76664D01*
X337697Y76808D01*
X337717Y76854D01*
X337743Y76897D01*
X337805Y77059D01*
X337874Y77219D01*
X337885Y77267D01*
X337903Y77314D01*
X337936Y77485D01*
X337975Y77654D01*
X337978Y77704D01*
X337987Y77753D01*
X337999Y78000D01*
X337999Y84450D01*
X337995Y84500D01*
X337997Y84550D01*
X337975Y84722D01*
X337959Y84895D01*
X337946Y84943D01*
X337940Y84993D01*
X337887Y85158D01*
X337841Y85326D01*
X337819Y85371D01*
X337804Y85418D01*
X337723Y85572D01*
X337648Y85728D01*
X337618Y85769D01*
X337595Y85813D01*
X337488Y85950D01*
X337386Y86090D01*
X337350Y86125D01*
X337319Y86164D01*
X337189Y86280D01*
X337064Y86400D01*
X337022Y86427D01*
X336984Y86461D01*
X336836Y86551D01*
X336692Y86647D01*
X336646Y86667D01*
X336603Y86693D01*
X336441Y86755D01*
X336281Y86824D01*
X336233Y86835D01*
X336186Y86853D01*
X336015Y86886D01*
X335846Y86925D01*
X335796Y86928D01*
X335747Y86937D01*
X335568Y86946D01*
X334099Y88414D01*
X334099Y102086D01*
X335564Y103551D01*
X354436Y103551D01*
X355901Y102086D01*
X355901Y88414D01*
X354432Y86946D01*
X354400Y86947D01*
X354228Y86925D01*
X354055Y86909D01*
X354007Y86896D01*
X353957Y86890D01*
X353792Y86837D01*
X353624Y86791D01*
X353579Y86769D01*
X353532Y86754D01*
X353378Y86673D01*
X353222Y86598D01*
X353181Y86568D01*
X353137Y86545D01*
X353000Y86438D01*
X352860Y86336D01*
X352825Y86300D01*
X352786Y86269D01*
X352670Y86139D01*
X352550Y86014D01*
X352523Y85972D01*
X352489Y85934D01*
X352399Y85786D01*
X352303Y85642D01*
X352283Y85596D01*
X352257Y85553D01*
X352195Y85391D01*
X352126Y85231D01*
X352115Y85183D01*
X352097Y85136D01*
X352064Y84965D01*
X352025Y84796D01*
X352022Y84746D01*
X352013Y84697D01*
X352001Y84450D01*
X352001Y78000D01*
X352005Y77950D01*
X352003Y77900D01*
X352025Y77728D01*
X352041Y77555D01*
X352054Y77507D01*
X352060Y77457D01*
X352113Y77292D01*
X352159Y77124D01*
X352181Y77079D01*
X352196Y77032D01*
X352277Y76878D01*
X352352Y76722D01*
X352382Y76681D01*
X352405Y76637D01*
X352512Y76500D01*
X352614Y76360D01*
X352650Y76325D01*
X352681Y76286D01*
X352811Y76170D01*
X352936Y76050D01*
X352978Y76023D01*
X353016Y75989D01*
X353164Y75899D01*
X353308Y75803D01*
X353354Y75783D01*
X353397Y75757D01*
X353559Y75695D01*
X353719Y75626D01*
X353767Y75615D01*
X353814Y75597D01*
X353985Y75564D01*
X354154Y75525D01*
X354204Y75522D01*
X354253Y75513D01*
X354500Y75501D01*
X434615Y75501D01*
X434801Y75517D01*
X434987Y75529D01*
X435023Y75537D01*
X435060Y75541D01*
X435241Y75590D01*
X435421Y75634D01*
X435455Y75649D01*
X435491Y75659D01*
X435659Y75740D01*
X435830Y75816D01*
X435860Y75836D01*
X435894Y75852D01*
X436045Y75962D01*
X436199Y76067D01*
X436236Y76101D01*
X436255Y76114D01*
X436281Y76141D01*
X436382Y76233D01*
X459767Y99618D01*
X459887Y99761D01*
X460011Y99900D01*
X460030Y99932D01*
X460054Y99960D01*
X460146Y100122D01*
X460243Y100282D01*
X460256Y100317D01*
X460274Y100349D01*
X460336Y100525D01*
X460403Y100699D01*
X460410Y100735D01*
X460423Y100770D01*
X460452Y100954D01*
X460487Y101138D01*
X460490Y101188D01*
X460493Y101211D01*
X460492Y101248D01*
X460499Y101385D01*
X460499Y135615D01*
X460487Y135752D01*
X460484Y135888D01*
X460467Y135973D01*
X460459Y136060D01*
X460423Y136192D01*
X460396Y136326D01*
X460364Y136407D01*
X460341Y136491D01*
X460282Y136614D01*
X460231Y136741D01*
X460185Y136815D01*
X460148Y136894D01*
X460067Y137005D01*
X459995Y137121D01*
X459937Y137185D01*
X459886Y137255D01*
X459787Y137350D01*
X459695Y137452D01*
X459626Y137505D01*
X459564Y137565D01*
X459450Y137641D01*
X459341Y137724D01*
X459264Y137764D01*
X459192Y137812D01*
X459066Y137866D01*
X458944Y137929D01*
X458861Y137955D01*
X458781Y137989D01*
X458649Y138020D01*
X458517Y138060D01*
X458431Y138071D01*
X458346Y138090D01*
X458210Y138097D01*
X458074Y138113D01*
X457987Y138108D01*
X457900Y138113D01*
X457765Y138095D01*
X457628Y138087D01*
X457543Y138066D01*
X457457Y138055D01*
X457327Y138013D01*
X457194Y137981D01*
X457114Y137946D01*
X457032Y137919D01*
X456911Y137855D01*
X456786Y137800D01*
X456714Y137751D01*
X456637Y137710D01*
X456529Y137626D01*
X456416Y137549D01*
X456315Y137457D01*
X456286Y137434D01*
X456270Y137416D01*
X456233Y137382D01*
X454948Y136098D01*
X451089Y134499D01*
X421675Y134499D01*
X421669Y134499D01*
X421662Y134499D01*
X421446Y134479D01*
X421230Y134459D01*
X421224Y134458D01*
X421217Y134457D01*
X421007Y134398D01*
X420799Y134341D01*
X420794Y134338D01*
X420787Y134336D01*
X420594Y134242D01*
X420397Y134148D01*
X420391Y134144D01*
X420386Y134141D01*
X420213Y134015D01*
X420035Y133886D01*
X420030Y133881D01*
X420025Y133877D01*
X419875Y133719D01*
X419725Y133564D01*
X419722Y133558D01*
X419717Y133553D01*
X419597Y133371D01*
X419478Y133192D01*
X419476Y133186D01*
X419472Y133180D01*
X419366Y132956D01*
X419075Y132254D01*
X412746Y125925D01*
X404476Y122499D01*
X395524Y122499D01*
X387254Y125925D01*
X380925Y132254D01*
X377499Y140524D01*
X377499Y149476D01*
X380925Y157746D01*
X387254Y164075D01*
X395524Y167501D01*
X404476Y167501D01*
X412746Y164075D01*
X419075Y157746D01*
X419366Y157044D01*
X419369Y157038D01*
X419371Y157032D01*
X419473Y156839D01*
X419573Y156648D01*
X419577Y156643D01*
X419580Y156637D01*
X419716Y156464D01*
X419847Y156295D01*
X419852Y156291D01*
X419856Y156286D01*
X420021Y156140D01*
X420180Y155997D01*
X420186Y155994D01*
X420191Y155989D01*
X420376Y155877D01*
X420561Y155763D01*
X420567Y155761D01*
X420572Y155757D01*
X420774Y155679D01*
X420977Y155600D01*
X420983Y155599D01*
X420989Y155597D01*
X421202Y155556D01*
X421415Y155514D01*
X421421Y155514D01*
X421428Y155513D01*
X421675Y155501D01*
X451089Y155501D01*
X454948Y153902D01*
X457902Y150948D01*
X458505Y149494D01*
X458532Y149441D01*
X458553Y149384D01*
X458636Y149243D01*
X458712Y149098D01*
X458749Y149051D01*
X458779Y148999D01*
X458885Y148875D01*
X458986Y148745D01*
X459031Y148705D01*
X459070Y148660D01*
X459197Y148557D01*
X459319Y148447D01*
X459370Y148416D01*
X459417Y148378D01*
X459560Y148299D01*
X459699Y148213D01*
X459755Y148191D01*
X459808Y148162D01*
X459963Y148110D01*
X460115Y148051D01*
X460174Y148039D01*
X460231Y148020D01*
X460393Y147996D01*
X460553Y147965D01*
X460614Y147964D01*
X460673Y147955D01*
X460837Y147960D01*
X461000Y147958D01*
X461059Y147968D01*
X461120Y147970D01*
X461279Y148004D01*
X461441Y148031D01*
X461497Y148051D01*
X461556Y148064D01*
X461707Y148126D01*
X461861Y148181D01*
X461914Y148211D01*
X461969Y148234D01*
X462107Y148323D01*
X462249Y148404D01*
X462295Y148443D01*
X462345Y148475D01*
X462465Y148587D01*
X462590Y148692D01*
X462628Y148739D01*
X462672Y148780D01*
X462770Y148910D01*
X462874Y149036D01*
X462904Y149089D01*
X462940Y149137D01*
X463013Y149283D01*
X463093Y149426D01*
X463113Y149483D01*
X463140Y149537D01*
X463186Y149694D01*
X463239Y149848D01*
X463248Y149908D01*
X463265Y149966D01*
X463282Y150128D01*
X463308Y150290D01*
X463306Y150350D01*
X463312Y150410D01*
X463300Y150572D01*
X463296Y150736D01*
X463284Y150795D01*
X463280Y150855D01*
X463228Y151097D01*
X463209Y151166D01*
X463209Y152001D01*
X471000Y152001D01*
X478791Y152001D01*
X478791Y151166D01*
X478618Y150519D01*
X478283Y149940D01*
X477810Y149467D01*
X477228Y149131D01*
X477164Y149108D01*
X477090Y149090D01*
X476955Y149031D01*
X476817Y148980D01*
X476751Y148941D01*
X476680Y148911D01*
X476559Y148829D01*
X476432Y148754D01*
X476373Y148704D01*
X476310Y148661D01*
X476205Y148559D01*
X476093Y148463D01*
X476044Y148404D01*
X475989Y148350D01*
X475904Y148231D01*
X475811Y148117D01*
X475774Y148049D01*
X475729Y147987D01*
X475666Y147854D01*
X475595Y147726D01*
X475571Y147653D01*
X475538Y147583D01*
X475500Y147441D01*
X475453Y147302D01*
X475442Y147226D01*
X475422Y147152D01*
X475409Y147006D01*
X475388Y146860D01*
X475391Y146783D01*
X475384Y146707D01*
X475398Y146561D01*
X475403Y146414D01*
X475419Y146339D01*
X475426Y146262D01*
X475466Y146121D01*
X475497Y145977D01*
X475526Y145906D01*
X475547Y145832D01*
X475611Y145700D01*
X475667Y145564D01*
X475709Y145499D01*
X475743Y145430D01*
X475829Y145312D01*
X475908Y145188D01*
X475961Y145132D01*
X476006Y145070D01*
X476113Y144968D01*
X476213Y144861D01*
X476274Y144815D01*
X476330Y144762D01*
X476453Y144681D01*
X476570Y144593D01*
X476639Y144559D01*
X476703Y144517D01*
X476927Y144411D01*
X476948Y144402D01*
X479902Y141448D01*
X481501Y137589D01*
X481501Y94435D01*
X481513Y94299D01*
X481516Y94162D01*
X481533Y94077D01*
X481541Y93990D01*
X481577Y93858D01*
X481604Y93724D01*
X481636Y93643D01*
X481659Y93559D01*
X481718Y93436D01*
X481769Y93309D01*
X481815Y93235D01*
X481852Y93157D01*
X481933Y93046D01*
X482005Y92930D01*
X482063Y92865D01*
X482114Y92795D01*
X482213Y92700D01*
X482305Y92599D01*
X482374Y92545D01*
X482436Y92485D01*
X482550Y92410D01*
X482659Y92326D01*
X482736Y92286D01*
X482808Y92238D01*
X482934Y92184D01*
X483056Y92121D01*
X483139Y92096D01*
X483219Y92061D01*
X483352Y92030D01*
X483483Y91990D01*
X483569Y91980D01*
X483654Y91960D01*
X483790Y91953D01*
X483926Y91937D01*
X484013Y91942D01*
X484100Y91938D01*
X484235Y91955D01*
X484372Y91964D01*
X484457Y91984D01*
X484543Y91995D01*
X484673Y92037D01*
X484806Y92069D01*
X484886Y92105D01*
X484968Y92131D01*
X485089Y92195D01*
X485214Y92251D01*
X485286Y92299D01*
X485363Y92340D01*
X485471Y92425D01*
X485584Y92502D01*
X485685Y92594D01*
X485714Y92616D01*
X485730Y92634D01*
X485767Y92668D01*
X510464Y117364D01*
X512784Y119685D01*
X515357Y120751D01*
X526960Y120751D01*
X527010Y120755D01*
X527060Y120753D01*
X527232Y120775D01*
X527405Y120791D01*
X527453Y120804D01*
X527503Y120810D01*
X527668Y120863D01*
X527836Y120909D01*
X527881Y120931D01*
X527928Y120946D01*
X528082Y121027D01*
X528238Y121102D01*
X528279Y121132D01*
X528323Y121155D01*
X528460Y121262D01*
X528600Y121364D01*
X528635Y121400D01*
X528674Y121431D01*
X528790Y121561D01*
X528910Y121686D01*
X528937Y121728D01*
X528971Y121766D01*
X529061Y121914D01*
X529157Y122058D01*
X529177Y122104D01*
X529203Y122147D01*
X529265Y122309D01*
X529334Y122469D01*
X529345Y122517D01*
X529363Y122564D01*
X529396Y122735D01*
X529435Y122904D01*
X529438Y122954D01*
X529447Y123003D01*
X529459Y123250D01*
X529459Y131576D01*
X529504Y131721D01*
X529561Y131885D01*
X529569Y131935D01*
X529584Y131983D01*
X529605Y132155D01*
X529632Y132326D01*
X529631Y132376D01*
X529637Y132426D01*
X529627Y132599D01*
X529623Y132773D01*
X529613Y132822D01*
X529610Y132872D01*
X529569Y133041D01*
X529535Y133211D01*
X529516Y133257D01*
X529505Y133306D01*
X529459Y133408D01*
X529459Y144076D01*
X529504Y144221D01*
X529561Y144385D01*
X529569Y144435D01*
X529584Y144483D01*
X529605Y144655D01*
X529632Y144826D01*
X529631Y144876D01*
X529637Y144926D01*
X529627Y145099D01*
X529623Y145273D01*
X529613Y145322D01*
X529610Y145372D01*
X529569Y145541D01*
X529535Y145711D01*
X529516Y145757D01*
X529505Y145806D01*
X529459Y145908D01*
X529459Y156576D01*
X529504Y156721D01*
X529561Y156885D01*
X529569Y156935D01*
X529584Y156983D01*
X529605Y157154D01*
X529632Y157326D01*
X529631Y157376D01*
X529637Y157426D01*
X529627Y157599D01*
X529623Y157773D01*
X529613Y157822D01*
X529610Y157872D01*
X529569Y158041D01*
X529535Y158211D01*
X529516Y158257D01*
X529505Y158306D01*
X529459Y158408D01*
X529459Y168900D01*
X529467Y168914D01*
X529558Y169058D01*
X529577Y169108D01*
X529604Y169154D01*
X529660Y169315D01*
X529723Y169473D01*
X529734Y169525D01*
X529752Y169576D01*
X529779Y169744D01*
X529813Y169911D01*
X529814Y169964D01*
X529823Y170017D01*
X529819Y170187D01*
X529823Y170357D01*
X529815Y170410D01*
X529814Y170464D01*
X529780Y170630D01*
X529754Y170799D01*
X529736Y170849D01*
X529725Y170901D01*
X529663Y171060D01*
X529607Y171220D01*
X529604Y171225D01*
X529419Y171916D01*
X529419Y173751D01*
X539960Y173751D01*
X550501Y173751D01*
X550501Y173250D01*
X550505Y173200D01*
X550503Y173150D01*
X550525Y172978D01*
X550541Y172805D01*
X550554Y172757D01*
X550560Y172707D01*
X550613Y172542D01*
X550659Y172374D01*
X550681Y172329D01*
X550696Y172282D01*
X550777Y172128D01*
X550852Y171972D01*
X550882Y171931D01*
X550905Y171887D01*
X551012Y171750D01*
X551114Y171610D01*
X551150Y171575D01*
X551181Y171536D01*
X551311Y171420D01*
X551436Y171300D01*
X551478Y171273D01*
X551516Y171239D01*
X551664Y171149D01*
X551808Y171053D01*
X551854Y171033D01*
X551897Y171007D01*
X552059Y170945D01*
X552219Y170876D01*
X552267Y170865D01*
X552314Y170847D01*
X552485Y170814D01*
X552654Y170775D01*
X552704Y170772D01*
X552753Y170763D01*
X553000Y170751D01*
X554815Y170751D01*
X555001Y170767D01*
X555187Y170779D01*
X555223Y170787D01*
X555260Y170791D01*
X555440Y170840D01*
X555621Y170884D01*
X555655Y170899D01*
X555691Y170909D01*
X555859Y170990D01*
X556029Y171066D01*
X556060Y171086D01*
X556093Y171102D01*
X556244Y171212D01*
X556399Y171317D01*
X556436Y171351D01*
X556455Y171364D01*
X556481Y171391D01*
X556582Y171483D01*
X562267Y177168D01*
X562387Y177311D01*
X562511Y177451D01*
X562530Y177482D01*
X562554Y177511D01*
X562646Y177673D01*
X562743Y177832D01*
X562756Y177867D01*
X562774Y177899D01*
X562836Y178075D01*
X562903Y178249D01*
X562910Y178285D01*
X562923Y178320D01*
X562952Y178505D01*
X562987Y178688D01*
X562990Y178738D01*
X562993Y178761D01*
X562992Y178798D01*
X562999Y178935D01*
X562999Y181804D01*
X562986Y181946D01*
X562983Y182090D01*
X562967Y182168D01*
X562959Y182249D01*
X562921Y182387D01*
X562892Y182527D01*
X562851Y182643D01*
X562841Y182679D01*
X562829Y182704D01*
X562809Y182760D01*
X562499Y183508D01*
X562499Y186492D01*
X563641Y189249D01*
X565751Y191359D01*
X568508Y192501D01*
X571492Y192501D01*
X574249Y191359D01*
X576359Y189249D01*
X577501Y186492D01*
X577501Y183508D01*
X577191Y182760D01*
X577148Y182624D01*
X577097Y182490D01*
X577082Y182411D01*
X577058Y182334D01*
X577040Y182192D01*
X577013Y182051D01*
X577007Y181928D01*
X577002Y181891D01*
X577004Y181864D01*
X577001Y181804D01*
X577001Y173607D01*
X575935Y171034D01*
X573614Y168714D01*
X573614Y168713D01*
X567418Y162517D01*
X567330Y162412D01*
X567235Y162314D01*
X567187Y162241D01*
X567131Y162174D01*
X567064Y162056D01*
X566988Y161942D01*
X566954Y161862D01*
X566911Y161786D01*
X566865Y161657D01*
X566811Y161531D01*
X566791Y161447D01*
X566762Y161365D01*
X566741Y161229D01*
X566710Y161096D01*
X566706Y161010D01*
X566692Y160924D01*
X566695Y160787D01*
X566688Y160650D01*
X566699Y160564D01*
X566701Y160477D01*
X566728Y160343D01*
X566745Y160207D01*
X566772Y160124D01*
X566789Y160039D01*
X566839Y159912D01*
X566881Y159782D01*
X566922Y159705D01*
X566954Y159624D01*
X567026Y159508D01*
X567090Y159387D01*
X567144Y159319D01*
X567190Y159245D01*
X567282Y159143D01*
X567366Y159036D01*
X567431Y158978D01*
X567490Y158914D01*
X567598Y158830D01*
X567701Y158739D01*
X567775Y158694D01*
X567844Y158641D01*
X567965Y158578D01*
X568082Y158507D01*
X568163Y158476D01*
X568241Y158436D01*
X568371Y158396D01*
X568499Y158347D01*
X568585Y158330D01*
X568668Y158305D01*
X568803Y158289D01*
X568938Y158263D01*
X569074Y158256D01*
X569111Y158252D01*
X569135Y158253D01*
X569185Y158251D01*
X571393Y158251D01*
X573966Y157185D01*
X575935Y155216D01*
X576129Y154748D01*
X576195Y154620D01*
X576254Y154489D01*
X576268Y154468D01*
X577501Y151492D01*
X577501Y148508D01*
X576359Y145751D01*
X574521Y143914D01*
X574489Y143875D01*
X574452Y143842D01*
X574346Y143704D01*
X574235Y143571D01*
X574210Y143527D01*
X574180Y143488D01*
X574100Y143333D01*
X574014Y143183D01*
X573998Y143135D01*
X573975Y143091D01*
X573924Y142925D01*
X573866Y142761D01*
X573858Y142712D01*
X573843Y142664D01*
X573823Y142492D01*
X573795Y142320D01*
X573796Y142270D01*
X573790Y142220D01*
X573801Y142047D01*
X573804Y141873D01*
X573814Y141824D01*
X573817Y141774D01*
X573858Y141606D01*
X573893Y141436D01*
X573911Y141389D01*
X573923Y141340D01*
X573993Y141182D01*
X574057Y141020D01*
X574084Y140978D01*
X574104Y140932D01*
X574202Y140788D01*
X574293Y140641D01*
X574327Y140604D01*
X574355Y140563D01*
X574521Y140379D01*
X600935Y113966D01*
X602001Y111393D01*
X602001Y53607D01*
X600935Y51034D01*
X564333Y14432D01*
X564245Y14327D01*
X564150Y14229D01*
X564102Y14156D01*
X564046Y14089D01*
X563979Y13971D01*
X563903Y13857D01*
X563869Y13777D01*
X563826Y13701D01*
X563780Y13572D01*
X563726Y13446D01*
X563706Y13362D01*
X563677Y13280D01*
X563656Y13144D01*
X563625Y13011D01*
X563621Y12925D01*
X563607Y12839D01*
X563610Y12702D01*
X563603Y12565D01*
X563614Y12479D01*
X563616Y12392D01*
X563643Y12258D01*
X563660Y12122D01*
X563687Y12039D01*
X563704Y11954D01*
X563754Y11827D01*
X563796Y11697D01*
X563837Y11620D01*
X563869Y11539D01*
X563941Y11423D01*
X564005Y11302D01*
X564059Y11234D01*
X564105Y11160D01*
X564197Y11058D01*
X564281Y10951D01*
X564346Y10893D01*
X564405Y10829D01*
X564513Y10745D01*
X564616Y10654D01*
X564690Y10609D01*
X564759Y10556D01*
X564880Y10493D01*
X564997Y10422D01*
X565078Y10391D01*
X565156Y10351D01*
X565286Y10311D01*
X565414Y10262D01*
X565500Y10245D01*
X565583Y10220D01*
X565718Y10204D01*
X565853Y10178D01*
X565989Y10171D01*
X566026Y10167D01*
X566050Y10168D01*
X566100Y10166D01*
X617000Y10166D01*
X617050Y10170D01*
X617100Y10168D01*
X617272Y10190D01*
X617445Y10206D01*
X617493Y10219D01*
X617543Y10225D01*
X617708Y10278D01*
X617876Y10324D01*
X617921Y10346D01*
X617968Y10361D01*
X618122Y10442D01*
X618278Y10517D01*
X618319Y10547D01*
X618363Y10570D01*
X618500Y10677D01*
X618640Y10779D01*
X618675Y10815D01*
X618714Y10846D01*
X618830Y10976D01*
X618950Y11101D01*
X618977Y11143D01*
X619011Y11181D01*
X619101Y11329D01*
X619197Y11473D01*
X619217Y11519D01*
X619243Y11562D01*
X619305Y11724D01*
X619374Y11884D01*
X619385Y11932D01*
X619403Y11979D01*
X619436Y12150D01*
X619475Y12319D01*
X619478Y12369D01*
X619487Y12418D01*
X619499Y12665D01*
X619499Y14085D01*
X619481Y14293D01*
X619465Y14500D01*
X619461Y14515D01*
X619459Y14530D01*
X619404Y14731D01*
X619351Y14932D01*
X619345Y14946D01*
X619341Y14961D01*
X619251Y15149D01*
X619163Y15337D01*
X619154Y15350D01*
X619148Y15364D01*
X619025Y15532D01*
X618906Y15702D01*
X618895Y15713D01*
X618886Y15725D01*
X618736Y15870D01*
X618587Y16016D01*
X618571Y16028D01*
X618564Y16035D01*
X618542Y16049D01*
X618389Y16163D01*
X613758Y19258D01*
X608855Y26595D01*
X607133Y35250D01*
X608855Y43905D01*
X613758Y51242D01*
X618389Y54337D01*
X618551Y54467D01*
X618714Y54596D01*
X618724Y54608D01*
X618736Y54617D01*
X618872Y54774D01*
X619011Y54930D01*
X619019Y54943D01*
X619029Y54955D01*
X619134Y55134D01*
X619243Y55312D01*
X619248Y55326D01*
X619256Y55339D01*
X619328Y55534D01*
X619403Y55729D01*
X619406Y55744D01*
X619411Y55758D01*
X619448Y55962D01*
X619487Y56168D01*
X619488Y56188D01*
X619490Y56198D01*
X619490Y56223D01*
X619499Y56415D01*
X619499Y234085D01*
X619481Y234293D01*
X619465Y234500D01*
X619461Y234515D01*
X619459Y234530D01*
X619404Y234731D01*
X619351Y234932D01*
X619345Y234946D01*
X619341Y234961D01*
X619251Y235149D01*
X619163Y235337D01*
X619154Y235350D01*
X619148Y235364D01*
X619025Y235532D01*
X618906Y235702D01*
X618895Y235713D01*
X618886Y235725D01*
X618735Y235870D01*
X618587Y236016D01*
X618571Y236028D01*
X618564Y236035D01*
X618542Y236049D01*
X618388Y236163D01*
X613758Y239258D01*
X608855Y246595D01*
X607133Y255250D01*
X608855Y263905D01*
X613758Y271242D01*
X618388Y274337D01*
X618550Y274467D01*
X618714Y274596D01*
X618724Y274608D01*
X618736Y274617D01*
X618872Y274775D01*
X619011Y274930D01*
X619019Y274943D01*
X619029Y274955D01*
X619135Y275135D01*
X619243Y275312D01*
X619248Y275326D01*
X619256Y275339D01*
X619328Y275534D01*
X619403Y275729D01*
X619406Y275744D01*
X619411Y275758D01*
X619448Y275962D01*
X619487Y276168D01*
X619488Y276188D01*
X619490Y276198D01*
X619490Y276223D01*
X619499Y276415D01*
X619499Y277335D01*
X619495Y277385D01*
X619497Y277435D01*
X619475Y277607D01*
X619459Y277780D01*
X619446Y277828D01*
X619440Y277878D01*
X619387Y278043D01*
X619341Y278211D01*
X619319Y278256D01*
X619304Y278303D01*
X619223Y278457D01*
X619148Y278613D01*
X619118Y278654D01*
X619095Y278698D01*
X618988Y278835D01*
X618886Y278975D01*
X618850Y279010D01*
X618819Y279049D01*
X618689Y279165D01*
X618564Y279285D01*
X618522Y279312D01*
X618484Y279346D01*
X618336Y279436D01*
X618192Y279532D01*
X618145Y279552D01*
X618103Y279578D01*
X617941Y279640D01*
X617781Y279709D01*
X617733Y279720D01*
X617686Y279738D01*
X617515Y279771D01*
X617346Y279810D01*
X617296Y279813D01*
X617247Y279822D01*
X617000Y279834D01*
X31123Y279834D01*
X30965Y279820D01*
X30807Y279814D01*
X30743Y279800D01*
X30678Y279794D01*
X30525Y279752D01*
X30370Y279718D01*
X30310Y279693D01*
X30247Y279676D01*
X30104Y279607D01*
X29958Y279546D01*
X29903Y279511D01*
X29844Y279483D01*
X29716Y279390D01*
X29583Y279304D01*
X29535Y279259D01*
X29483Y279221D01*
X29373Y279106D01*
X29257Y278998D01*
X29218Y278946D01*
X29173Y278899D01*
X29085Y278767D01*
X28991Y278639D01*
X28962Y278581D01*
X28926Y278527D01*
X28863Y278381D01*
X28793Y278239D01*
X28775Y278176D01*
X28749Y278116D01*
X28713Y277962D01*
X28669Y277810D01*
X28662Y277745D01*
X28648Y277681D01*
X28640Y277523D01*
X28624Y277365D01*
X28629Y277300D01*
X28626Y277235D01*
X28646Y277078D01*
X28658Y276920D01*
X28675Y276857D01*
X28683Y276792D01*
X28731Y276641D01*
X28771Y276488D01*
X28799Y276429D01*
X28819Y276367D01*
X28893Y276227D01*
X28960Y276083D01*
X28997Y276030D01*
X29028Y275972D01*
X29126Y275847D01*
X29217Y275718D01*
X29264Y275672D01*
X29304Y275621D01*
X29423Y275515D01*
X29536Y275404D01*
X29612Y275348D01*
X29638Y275324D01*
X29667Y275307D01*
X29734Y275257D01*
X35742Y271242D01*
X40645Y263905D01*
X42367Y255250D01*
X40645Y246595D01*
X35742Y239258D01*
X28405Y234355D01*
X19750Y232633D01*
X10959Y234382D01*
X10833Y234395D01*
X10709Y234419D01*
X10611Y234419D01*
X10515Y234430D01*
X10389Y234420D01*
X10262Y234421D01*
X10166Y234404D01*
X10069Y234397D01*
X9947Y234366D01*
X9822Y234344D01*
X9731Y234311D01*
X9636Y234286D01*
X9522Y234234D01*
X9403Y234190D01*
X9319Y234141D01*
X9230Y234100D01*
X9127Y234028D01*
X9018Y233964D01*
X8944Y233900D01*
X8864Y233845D01*
X8775Y233755D01*
X8679Y233673D01*
X8618Y233597D01*
X8549Y233528D01*
X8477Y233424D01*
X8397Y233326D01*
X8350Y233240D01*
X8295Y233160D01*
X8243Y233045D01*
X8182Y232934D01*
X8125Y232784D01*
X8111Y232753D01*
X8107Y232736D01*
X8094Y232703D01*
X7927Y232190D01*
X3670Y226330D01*
X3281Y226047D01*
X3161Y225942D01*
X3036Y225844D01*
X2993Y225796D01*
X2944Y225753D01*
X2845Y225629D01*
X2739Y225510D01*
X2706Y225455D01*
X2666Y225404D01*
X2590Y225264D01*
X2507Y225128D01*
X2484Y225068D01*
X2453Y225011D01*
X2404Y224860D01*
X2347Y224711D01*
X2335Y224648D01*
X2315Y224587D01*
X2293Y224429D01*
X2263Y224273D01*
X2258Y224179D01*
X2254Y224144D01*
X2255Y224111D01*
X2251Y224025D01*
X2251Y205534D01*
X2251Y205527D01*
X2251Y205521D01*
X2271Y205307D01*
X2291Y205089D01*
X2292Y205082D01*
X2293Y205076D01*
X2351Y204870D01*
X2409Y204658D01*
X2412Y204652D01*
X2414Y204646D01*
X2508Y204453D01*
X2602Y204255D01*
X2606Y204250D01*
X2609Y204244D01*
X2736Y204071D01*
X2864Y203894D01*
X2869Y203889D01*
X2873Y203884D01*
X3031Y203734D01*
X3186Y203584D01*
X3192Y203581D01*
X3197Y203576D01*
X3379Y203456D01*
X3558Y203337D01*
X3565Y203334D01*
X3570Y203331D01*
X3794Y203225D01*
X5258Y202618D01*
X8118Y199758D01*
X9666Y196022D01*
X9666Y167978D01*
X8118Y164242D01*
X5258Y161382D01*
X3794Y160775D01*
X3788Y160772D01*
X3782Y160770D01*
X3591Y160669D01*
X3398Y160568D01*
X3393Y160564D01*
X3387Y160561D01*
X3216Y160426D01*
X3045Y160294D01*
X3041Y160289D01*
X3036Y160285D01*
X2890Y160121D01*
X2747Y159961D01*
X2744Y159956D01*
X2739Y159951D01*
X2627Y159766D01*
X2513Y159581D01*
X2511Y159575D01*
X2507Y159569D01*
X2430Y159368D01*
X2350Y159165D01*
X2349Y159158D01*
X2347Y159152D01*
X2306Y158939D01*
X2264Y158726D01*
X2264Y158720D01*
X2263Y158713D01*
X2251Y158466D01*
X2251Y131534D01*
X2251Y131527D01*
X2251Y131521D01*
X2271Y131304D01*
X2291Y131089D01*
X2292Y131083D01*
X2293Y131076D01*
X2351Y130869D01*
X2409Y130658D01*
X2412Y130652D01*
X2414Y130646D01*
X2507Y130455D01*
X2602Y130256D01*
X2606Y130250D01*
X2609Y130244D01*
X2735Y130072D01*
X2864Y129894D01*
X2869Y129889D01*
X2873Y129884D01*
X3032Y129733D01*
X3186Y129584D01*
X3192Y129581D01*
X3197Y129576D01*
X3378Y129457D01*
X3558Y129337D01*
X3564Y129334D01*
X3570Y129331D01*
X3794Y129225D01*
X5258Y128618D01*
X8118Y125758D01*
X9666Y122022D01*
X9666Y93978D01*
X8118Y90242D01*
X5258Y87382D01*
X3794Y86775D01*
X3788Y86772D01*
X3782Y86770D01*
X3591Y86669D01*
X3398Y86568D01*
X3393Y86564D01*
X3387Y86561D01*
X3215Y86426D01*
X3045Y86294D01*
X3041Y86289D01*
X3036Y86285D01*
X2890Y86121D01*
X2747Y85961D01*
X2744Y85955D01*
X2739Y85951D01*
X2627Y85765D01*
X2513Y85581D01*
X2511Y85575D01*
X2507Y85569D01*
X2428Y85364D01*
X2350Y85165D01*
X2349Y85158D01*
X2347Y85152D01*
X2306Y84937D01*
X2264Y84726D01*
X2264Y84720D01*
X2263Y84713D01*
X2251Y84466D01*
X2251Y65975D01*
X2265Y65816D01*
X2271Y65657D01*
X2285Y65594D01*
X2291Y65530D01*
X2333Y65376D01*
X2367Y65221D01*
X2392Y65161D01*
X2409Y65099D01*
X2478Y64955D01*
X2540Y64809D01*
X2574Y64755D01*
X2602Y64696D01*
X2696Y64567D01*
X2782Y64434D01*
X2826Y64387D01*
X2864Y64334D01*
X2979Y64224D01*
X3088Y64108D01*
X3161Y64049D01*
X3186Y64025D01*
X3214Y64006D01*
X3281Y63953D01*
X3670Y63670D01*
X7927Y57810D01*
X7942Y57767D01*
X7991Y57651D01*
X8032Y57531D01*
X8079Y57445D01*
X8117Y57356D01*
X8187Y57250D01*
X8248Y57140D01*
X8309Y57064D01*
X8363Y56983D01*
X8450Y56891D01*
X8530Y56793D01*
X8604Y56730D01*
X8671Y56660D01*
X8773Y56585D01*
X8869Y56503D01*
X8953Y56454D01*
X9032Y56396D01*
X9146Y56341D01*
X9255Y56277D01*
X9346Y56244D01*
X9434Y56201D01*
X9556Y56167D01*
X9674Y56124D01*
X9770Y56108D01*
X9864Y56081D01*
X9990Y56070D01*
X10115Y56048D01*
X10212Y56049D01*
X10309Y56040D01*
X10435Y56051D01*
X10561Y56052D01*
X10720Y56075D01*
X10754Y56078D01*
X10771Y56083D01*
X10806Y56088D01*
X19750Y57867D01*
X28405Y56145D01*
X35742Y51242D01*
X40645Y43905D01*
X42367Y35250D01*
X40645Y26595D01*
X35742Y19258D01*
X28986Y14743D01*
X28863Y14644D01*
X28734Y14551D01*
X28689Y14504D01*
X28638Y14463D01*
X28535Y14343D01*
X28425Y14229D01*
X28389Y14174D01*
X28346Y14125D01*
X28265Y13989D01*
X28178Y13857D01*
X28152Y13797D01*
X28119Y13740D01*
X28063Y13592D01*
X28001Y13446D01*
X27986Y13383D01*
X27963Y13322D01*
X27935Y13166D01*
X27899Y13011D01*
X27896Y12946D01*
X27885Y12882D01*
X27885Y12723D01*
X27877Y12565D01*
X27886Y12500D01*
X27886Y12435D01*
X27915Y12279D01*
X27935Y12122D01*
X27955Y12060D01*
X27967Y11996D01*
X28022Y11848D01*
X28071Y11697D01*
X28101Y11639D01*
X28124Y11578D01*
X28206Y11442D01*
X28280Y11302D01*
X28320Y11251D01*
X28354Y11195D01*
X28458Y11075D01*
X28556Y10951D01*
X28605Y10907D01*
X28648Y10858D01*
X28772Y10759D01*
X28890Y10654D01*
X28946Y10620D01*
X28997Y10580D01*
X29137Y10504D01*
X29272Y10422D01*
X29333Y10399D01*
X29390Y10368D01*
X29541Y10319D01*
X29689Y10262D01*
X29753Y10249D01*
X29815Y10229D01*
X29972Y10208D01*
X30127Y10178D01*
X30222Y10173D01*
X30257Y10168D01*
X30291Y10170D01*
X30375Y10166D01*
X103900Y10166D01*
X104036Y10178D01*
G37*
%LPC*%
G36*
X539960Y178749D02*
X539960Y178749D01*
X529419Y178749D01*
X529419Y179250D01*
X529415Y179300D01*
X529417Y179350D01*
X529395Y179522D01*
X529379Y179695D01*
X529366Y179743D01*
X529360Y179793D01*
X529307Y179958D01*
X529261Y180126D01*
X529239Y180171D01*
X529224Y180218D01*
X529143Y180372D01*
X529068Y180528D01*
X529038Y180569D01*
X529015Y180613D01*
X528907Y180750D01*
X528806Y180890D01*
X528770Y180925D01*
X528739Y180964D01*
X528609Y181080D01*
X528484Y181200D01*
X528442Y181227D01*
X528404Y181261D01*
X528256Y181351D01*
X528112Y181447D01*
X528066Y181467D01*
X528023Y181493D01*
X527861Y181555D01*
X527701Y181624D01*
X527653Y181635D01*
X527606Y181653D01*
X527435Y181686D01*
X527266Y181725D01*
X527216Y181728D01*
X527167Y181737D01*
X526920Y181749D01*
X521107Y181749D01*
X518534Y182815D01*
X499065Y202284D01*
X497999Y204857D01*
X497999Y241065D01*
X497983Y241251D01*
X497971Y241437D01*
X497963Y241473D01*
X497959Y241510D01*
X497910Y241690D01*
X497866Y241871D01*
X497851Y241905D01*
X497841Y241941D01*
X497760Y242109D01*
X497684Y242279D01*
X497664Y242310D01*
X497648Y242343D01*
X497538Y242494D01*
X497433Y242649D01*
X497399Y242686D01*
X497386Y242705D01*
X497359Y242731D01*
X497267Y242832D01*
X480332Y259767D01*
X480189Y259887D01*
X480049Y260011D01*
X480018Y260030D01*
X479989Y260054D01*
X479827Y260146D01*
X479668Y260243D01*
X479633Y260256D01*
X479601Y260274D01*
X479425Y260336D01*
X479251Y260403D01*
X479215Y260410D01*
X479180Y260423D01*
X478995Y260452D01*
X478812Y260487D01*
X478762Y260490D01*
X478739Y260493D01*
X478702Y260492D01*
X478565Y260499D01*
X181435Y260499D01*
X181249Y260483D01*
X181063Y260471D01*
X181027Y260463D01*
X180990Y260459D01*
X180810Y260410D01*
X180629Y260366D01*
X180595Y260351D01*
X180559Y260341D01*
X180391Y260260D01*
X180221Y260184D01*
X180190Y260164D01*
X180157Y260148D01*
X180006Y260038D01*
X179851Y259933D01*
X179814Y259899D01*
X179795Y259886D01*
X179769Y259859D01*
X179668Y259767D01*
X165233Y245332D01*
X165113Y245189D01*
X164989Y245049D01*
X164970Y245018D01*
X164946Y244989D01*
X164854Y244827D01*
X164757Y244668D01*
X164744Y244633D01*
X164726Y244601D01*
X164664Y244425D01*
X164597Y244251D01*
X164590Y244215D01*
X164577Y244180D01*
X164548Y243995D01*
X164513Y243812D01*
X164510Y243762D01*
X164507Y243739D01*
X164508Y243702D01*
X164501Y243565D01*
X164501Y208196D01*
X164514Y208054D01*
X164517Y207910D01*
X164533Y207832D01*
X164541Y207751D01*
X164579Y207613D01*
X164608Y207473D01*
X164649Y207357D01*
X164659Y207321D01*
X164671Y207296D01*
X164691Y207240D01*
X165001Y206492D01*
X165001Y203508D01*
X164691Y202760D01*
X164648Y202624D01*
X164597Y202490D01*
X164582Y202411D01*
X164558Y202334D01*
X164540Y202192D01*
X164513Y202051D01*
X164507Y201928D01*
X164502Y201891D01*
X164504Y201864D01*
X164501Y201804D01*
X164501Y196107D01*
X163435Y193534D01*
X152716Y182815D01*
X150143Y181749D01*
X143080Y181749D01*
X143030Y181745D01*
X142980Y181747D01*
X142808Y181725D01*
X142635Y181709D01*
X142587Y181696D01*
X142537Y181690D01*
X142372Y181637D01*
X142204Y181591D01*
X142159Y181569D01*
X142112Y181554D01*
X141958Y181473D01*
X141802Y181398D01*
X141761Y181368D01*
X141717Y181345D01*
X141580Y181238D01*
X141440Y181136D01*
X141405Y181100D01*
X141366Y181069D01*
X141250Y180939D01*
X141130Y180814D01*
X141103Y180772D01*
X141069Y180734D01*
X140979Y180586D01*
X140883Y180442D01*
X140863Y180396D01*
X140837Y180353D01*
X140775Y180191D01*
X140706Y180031D01*
X140695Y179983D01*
X140677Y179936D01*
X140644Y179765D01*
X140605Y179596D01*
X140602Y179546D01*
X140593Y179497D01*
X140581Y179250D01*
X140581Y178749D01*
X130040Y178749D01*
X119499Y178749D01*
X119499Y180584D01*
X119692Y181305D01*
X119723Y181365D01*
X119739Y181416D01*
X119762Y181465D01*
X119805Y181630D01*
X119855Y181792D01*
X119861Y181845D01*
X119874Y181897D01*
X119887Y182067D01*
X119908Y182236D01*
X119904Y182289D01*
X119908Y182343D01*
X119891Y182512D01*
X119881Y182682D01*
X119868Y182734D01*
X119863Y182787D01*
X119815Y182950D01*
X119775Y183116D01*
X119753Y183165D01*
X119738Y183216D01*
X119663Y183368D01*
X119594Y183524D01*
X119564Y183568D01*
X119540Y183616D01*
X119539Y183617D01*
X119539Y193786D01*
X121004Y195251D01*
X126943Y195251D01*
X127086Y195264D01*
X127229Y195267D01*
X127308Y195283D01*
X127388Y195291D01*
X127526Y195329D01*
X127667Y195358D01*
X127783Y195399D01*
X127819Y195409D01*
X127843Y195421D01*
X127900Y195441D01*
X128647Y195751D01*
X144815Y195751D01*
X145001Y195767D01*
X145187Y195779D01*
X145223Y195787D01*
X145260Y195791D01*
X145440Y195840D01*
X145621Y195884D01*
X145655Y195899D01*
X145691Y195909D01*
X145859Y195990D01*
X146029Y196066D01*
X146060Y196086D01*
X146093Y196102D01*
X146244Y196212D01*
X146399Y196317D01*
X146436Y196351D01*
X146455Y196364D01*
X146481Y196391D01*
X146582Y196483D01*
X149767Y199668D01*
X149887Y199811D01*
X150011Y199951D01*
X150030Y199982D01*
X150054Y200011D01*
X150146Y200172D01*
X150243Y200332D01*
X150256Y200367D01*
X150274Y200399D01*
X150336Y200575D01*
X150403Y200749D01*
X150410Y200785D01*
X150423Y200820D01*
X150452Y201005D01*
X150487Y201188D01*
X150490Y201238D01*
X150493Y201261D01*
X150492Y201298D01*
X150499Y201435D01*
X150499Y201804D01*
X150486Y201946D01*
X150483Y202090D01*
X150467Y202168D01*
X150459Y202249D01*
X150421Y202387D01*
X150392Y202527D01*
X150351Y202643D01*
X150341Y202679D01*
X150329Y202704D01*
X150309Y202760D01*
X149999Y203508D01*
X149999Y206492D01*
X150309Y207240D01*
X150352Y207376D01*
X150403Y207510D01*
X150418Y207589D01*
X150442Y207666D01*
X150460Y207808D01*
X150487Y207949D01*
X150493Y208072D01*
X150498Y208109D01*
X150496Y208136D01*
X150499Y208196D01*
X150499Y248893D01*
X151565Y251466D01*
X173534Y273435D01*
X176107Y274501D01*
X483893Y274501D01*
X486466Y273435D01*
X488786Y271114D01*
X508614Y251286D01*
X510935Y248966D01*
X512001Y246393D01*
X512001Y210185D01*
X512017Y209999D01*
X512029Y209813D01*
X512037Y209777D01*
X512041Y209740D01*
X512090Y209560D01*
X512134Y209379D01*
X512149Y209345D01*
X512159Y209309D01*
X512240Y209141D01*
X512316Y208971D01*
X512336Y208940D01*
X512352Y208907D01*
X512462Y208756D01*
X512567Y208601D01*
X512601Y208564D01*
X512614Y208545D01*
X512641Y208519D01*
X512733Y208418D01*
X524668Y196483D01*
X524811Y196363D01*
X524951Y196239D01*
X524982Y196220D01*
X525011Y196196D01*
X525173Y196104D01*
X525332Y196007D01*
X525367Y195994D01*
X525399Y195976D01*
X525575Y195914D01*
X525749Y195847D01*
X525785Y195840D01*
X525820Y195827D01*
X526005Y195798D01*
X526188Y195763D01*
X526238Y195760D01*
X526261Y195757D01*
X526298Y195758D01*
X526435Y195751D01*
X541353Y195751D01*
X542100Y195441D01*
X542237Y195398D01*
X542371Y195347D01*
X542450Y195332D01*
X542527Y195308D01*
X542669Y195290D01*
X542810Y195263D01*
X542933Y195257D01*
X542970Y195252D01*
X542997Y195254D01*
X543057Y195251D01*
X548996Y195251D01*
X550461Y193786D01*
X550461Y183600D01*
X550453Y183586D01*
X550363Y183442D01*
X550343Y183392D01*
X550316Y183346D01*
X550260Y183185D01*
X550197Y183027D01*
X550186Y182975D01*
X550168Y182924D01*
X550141Y182756D01*
X550107Y182590D01*
X550106Y182536D01*
X550097Y182483D01*
X550101Y182313D01*
X550097Y182143D01*
X550105Y182090D01*
X550106Y182037D01*
X550140Y181870D01*
X550166Y181702D01*
X550184Y181651D01*
X550195Y181599D01*
X550257Y181441D01*
X550313Y181280D01*
X550316Y181275D01*
X550501Y180584D01*
X550501Y178749D01*
X539960Y178749D01*
X539960Y178749D01*
G37*
%LPD*%
%LPC*%
G36*
X245524Y122499D02*
X245524Y122499D01*
X237254Y125925D01*
X230925Y132254D01*
X227499Y140524D01*
X227499Y149476D01*
X230925Y157746D01*
X237254Y164075D01*
X245524Y167501D01*
X254476Y167501D01*
X262746Y164075D01*
X269075Y157746D01*
X272501Y149476D01*
X272501Y140524D01*
X269075Y132254D01*
X262746Y125925D01*
X254476Y122499D01*
X245524Y122499D01*
G37*
%LPD*%
%LPC*%
G36*
X552924Y201249D02*
X552924Y201249D01*
X551459Y202714D01*
X551459Y225786D01*
X552924Y227251D01*
X584996Y227251D01*
X586461Y225786D01*
X586461Y202714D01*
X584996Y201249D01*
X552924Y201249D01*
G37*
%LPD*%
%LPC*%
G36*
X85004Y201249D02*
X85004Y201249D01*
X83539Y202714D01*
X83539Y225786D01*
X85004Y227251D01*
X117076Y227251D01*
X118541Y225786D01*
X118541Y202714D01*
X117076Y201249D01*
X85004Y201249D01*
G37*
%LPD*%
%LPC*%
G36*
X33867Y160279D02*
X33867Y160279D01*
X30147Y161820D01*
X27300Y164667D01*
X25759Y168387D01*
X25759Y172413D01*
X27300Y176133D01*
X30147Y178980D01*
X33867Y180521D01*
X53133Y180521D01*
X56853Y178980D01*
X59700Y176133D01*
X61241Y172413D01*
X61241Y168387D01*
X59700Y164667D01*
X56853Y161820D01*
X53133Y160279D01*
X33867Y160279D01*
G37*
%LPD*%
%LPC*%
G36*
X33867Y134879D02*
X33867Y134879D01*
X30147Y136420D01*
X27300Y139267D01*
X25759Y142987D01*
X25759Y147013D01*
X27300Y150733D01*
X30147Y153580D01*
X33867Y155121D01*
X53133Y155121D01*
X56853Y153580D01*
X59700Y150733D01*
X61241Y147013D01*
X61241Y142987D01*
X59700Y139267D01*
X56853Y136420D01*
X53133Y134879D01*
X33867Y134879D01*
G37*
%LPD*%
%LPC*%
G36*
X33867Y109479D02*
X33867Y109479D01*
X30147Y111020D01*
X27300Y113867D01*
X25759Y117587D01*
X25759Y121613D01*
X27300Y125333D01*
X30147Y128180D01*
X33867Y129721D01*
X53133Y129721D01*
X56853Y128180D01*
X59700Y125333D01*
X61241Y121613D01*
X61241Y117587D01*
X59700Y113867D01*
X56853Y111020D01*
X53133Y109479D01*
X33867Y109479D01*
G37*
%LPD*%
%LPC*%
G36*
X317899Y127649D02*
X317899Y127649D01*
X317899Y133091D01*
X323734Y133091D01*
X324381Y132918D01*
X324960Y132583D01*
X325433Y132110D01*
X325768Y131531D01*
X325941Y130884D01*
X325941Y127649D01*
X317899Y127649D01*
G37*
%LPD*%
%LPC*%
G36*
X347899Y127649D02*
X347899Y127649D01*
X347899Y133091D01*
X353734Y133091D01*
X354381Y132918D01*
X354960Y132583D01*
X355433Y132110D01*
X355768Y131531D01*
X355941Y130884D01*
X355941Y127649D01*
X347899Y127649D01*
G37*
%LPD*%
%LPC*%
G36*
X334059Y127649D02*
X334059Y127649D01*
X334059Y130884D01*
X334232Y131531D01*
X334567Y132110D01*
X335040Y132583D01*
X335619Y132918D01*
X336266Y133091D01*
X342101Y133091D01*
X342101Y127649D01*
X334059Y127649D01*
G37*
%LPD*%
%LPC*%
G36*
X304059Y127649D02*
X304059Y127649D01*
X304059Y130884D01*
X304232Y131531D01*
X304567Y132110D01*
X305040Y132583D01*
X305619Y132918D01*
X306266Y133091D01*
X312101Y133091D01*
X312101Y127649D01*
X304059Y127649D01*
G37*
%LPD*%
%LPC*%
G36*
X347899Y121851D02*
X347899Y121851D01*
X355941Y121851D01*
X355941Y118616D01*
X355768Y117969D01*
X355433Y117390D01*
X354960Y116917D01*
X354381Y116582D01*
X353734Y116409D01*
X347899Y116409D01*
X347899Y121851D01*
G37*
%LPD*%
%LPC*%
G36*
X317899Y121851D02*
X317899Y121851D01*
X325941Y121851D01*
X325941Y118616D01*
X325768Y117969D01*
X325433Y117390D01*
X324960Y116917D01*
X324381Y116582D01*
X323734Y116409D01*
X317899Y116409D01*
X317899Y121851D01*
G37*
%LPD*%
%LPC*%
G36*
X336266Y116409D02*
X336266Y116409D01*
X335619Y116582D01*
X335040Y116917D01*
X334567Y117390D01*
X334232Y117969D01*
X334059Y118616D01*
X334059Y121851D01*
X342101Y121851D01*
X342101Y116409D01*
X336266Y116409D01*
G37*
%LPD*%
%LPC*%
G36*
X306266Y116409D02*
X306266Y116409D01*
X305619Y116582D01*
X305040Y116917D01*
X304567Y117390D01*
X304232Y117969D01*
X304059Y118616D01*
X304059Y121851D01*
X312101Y121851D01*
X312101Y116409D01*
X306266Y116409D01*
G37*
%LPD*%
%LPC*%
G36*
X473499Y156999D02*
X473499Y156999D01*
X473499Y160041D01*
X476584Y160041D01*
X477231Y159868D01*
X477810Y159533D01*
X478283Y159060D01*
X478618Y158481D01*
X478791Y157834D01*
X478791Y156999D01*
X473499Y156999D01*
G37*
%LPD*%
%LPC*%
G36*
X463209Y156999D02*
X463209Y156999D01*
X463209Y157834D01*
X463382Y158481D01*
X463717Y159060D01*
X464190Y159533D01*
X464769Y159868D01*
X465416Y160041D01*
X468501Y160041D01*
X468501Y156999D01*
X463209Y156999D01*
G37*
%LPD*%
D10*
X471000Y135500D03*
X471000Y154500D03*
X449000Y145000D03*
D11*
X539960Y101250D03*
X539960Y113750D03*
X539960Y126250D03*
X539960Y138750D03*
X539960Y151250D03*
X539960Y163750D03*
X539960Y176250D03*
X539960Y188750D03*
D12*
X568960Y214250D03*
X568960Y75750D03*
D11*
X130040Y188750D03*
X130040Y176250D03*
X130040Y163750D03*
X130040Y151250D03*
X130040Y138750D03*
X130040Y126250D03*
X130040Y113750D03*
X130040Y101250D03*
D12*
X101040Y75750D03*
X101040Y214250D03*
D13*
X51120Y119600D02*
X35880Y119600D01*
X35880Y145000D02*
X51120Y145000D01*
X51120Y170400D02*
X35880Y170400D01*
D14*
X345000Y95250D03*
X345000Y124750D03*
X315000Y124750D03*
X315000Y95250D03*
D15*
X100000Y185000D03*
D16*
X130040Y126250D02*
X180000Y126250D01*
D17*
X241250Y65000D01*
X345000Y65000D01*
D18*
X345000Y95250D01*
D17*
X471000Y96000D02*
X471000Y135500D01*
X440000Y65000D02*
X345000Y65000D01*
X440000Y65000D02*
X471000Y96000D01*
D18*
X165000Y113750D02*
X130040Y113750D01*
X165000Y113750D02*
X231750Y47000D01*
X450000Y47000D01*
X516750Y113750D01*
X539960Y113750D01*
D15*
X570000Y115000D03*
X100000Y110000D03*
D18*
X100000Y125000D02*
X113750Y138750D01*
X100000Y125000D02*
X100000Y110000D01*
X113750Y138750D02*
X130040Y138750D01*
X558750Y126250D02*
X570000Y115000D01*
X558750Y126250D02*
X539960Y126250D01*
X130040Y163750D02*
X90000Y163750D01*
X595000Y110000D02*
X595000Y55000D01*
X555165Y15165D02*
X114835Y15165D01*
X539960Y138750D02*
X566250Y138750D01*
X595000Y110000D01*
X90000Y163750D02*
X75000Y148750D01*
X75000Y55000D01*
X114835Y15165D01*
X555165Y15165D02*
X595000Y55000D01*
D15*
X570000Y185000D03*
D18*
X558750Y163750D02*
X539960Y163750D01*
X558750Y163750D02*
X570000Y175000D01*
X570000Y185000D01*
X570000Y151250D02*
X539960Y151250D01*
D19*
X570000Y151250D02*
X570000Y150000D01*
D15*
X570000Y150000D03*
X100000Y150000D03*
D18*
X100000Y151250D02*
X130040Y151250D01*
D19*
X100000Y151250D02*
X100000Y150000D01*
D18*
X130040Y151250D02*
X190000Y151250D01*
X246000Y95250D02*
X315000Y95250D01*
X246000Y95250D02*
X190000Y151250D01*
X230000Y30000D02*
X453750Y30000D01*
X525000Y101250D02*
X539960Y101250D01*
X230000Y30000D02*
X158750Y101250D01*
X130040Y101250D01*
X453750Y30000D02*
X525000Y101250D01*
D20*
X250000Y145000D03*
D18*
X522500Y188750D02*
X539960Y188750D01*
D15*
X157500Y205000D03*
D18*
X505000Y206250D02*
X522500Y188750D01*
X505000Y245000D02*
X482500Y267500D01*
X505000Y245000D02*
X505000Y206250D01*
X148750Y188750D02*
X130040Y188750D01*
X157500Y197500D02*
X157500Y205000D01*
X157500Y197500D02*
X148750Y188750D01*
X157500Y247500D02*
X177500Y267500D01*
X482500Y267500D01*
X157500Y247500D02*
X157500Y205000D01*
D20*
X400000Y145000D03*
D17*
X449000Y145000D01*
M02*
