G04 EAGLE Gerber X2 export*
%TF.Part,Single*%
%TF.FileFunction,Profile,NP*%
%TF.FilePolarity,Positive*%
%TF.GenerationSoftware,Autodesk,EAGLE,9.1.0*%
%TF.CreationDate,2020-08-17T16:38:00Z*%
G75*
%MOMM*%
%FSLAX34Y34*%
%LPD*%
%AMOC8*
5,1,8,0,0,1.08239X$1,22.5*%
G01*
%ADD10C,0.254000*%


D10*
X-87500Y72700D02*
X-87452Y71593D01*
X-87307Y70495D01*
X-87067Y69413D01*
X-86734Y68356D01*
X-86310Y67333D01*
X-85799Y66350D01*
X-85203Y65416D01*
X-84529Y64537D01*
X-83780Y63720D01*
X-82963Y62971D01*
X-82084Y62297D01*
X-81150Y61701D01*
X-80167Y61190D01*
X-79144Y60766D01*
X-78087Y60433D01*
X-77005Y60193D01*
X-75907Y60048D01*
X-74800Y60000D01*
X-12700Y60000D01*
X-11593Y59952D01*
X-10495Y59807D01*
X-9413Y59567D01*
X-8356Y59234D01*
X-7333Y58810D01*
X-6350Y58299D01*
X-5416Y57703D01*
X-4537Y57029D01*
X-3720Y56280D01*
X-2971Y55463D01*
X-2297Y54584D01*
X-1701Y53650D01*
X-1190Y52667D01*
X-766Y51644D01*
X-433Y50587D01*
X-193Y49505D01*
X-48Y48407D01*
X0Y47300D01*
X0Y12700D01*
X48Y11593D01*
X193Y10495D01*
X433Y9413D01*
X766Y8356D01*
X1190Y7333D01*
X1701Y6350D01*
X2297Y5416D01*
X2971Y4537D01*
X3720Y3720D01*
X4537Y2971D01*
X5416Y2297D01*
X6350Y1701D01*
X7333Y1190D01*
X8356Y766D01*
X9413Y433D01*
X10495Y193D01*
X11593Y48D01*
X12700Y0D01*
X637300Y0D01*
X638407Y48D01*
X639505Y193D01*
X640587Y433D01*
X641644Y766D01*
X642667Y1190D01*
X643650Y1701D01*
X644584Y2297D01*
X645463Y2971D01*
X646280Y3720D01*
X647029Y4537D01*
X647703Y5416D01*
X648299Y6350D01*
X648810Y7333D01*
X649234Y8356D01*
X649567Y9413D01*
X649807Y10495D01*
X649952Y11593D01*
X650000Y12700D01*
X650000Y47300D01*
X650048Y48407D01*
X650193Y49505D01*
X650433Y50587D01*
X650766Y51644D01*
X651190Y52667D01*
X651701Y53650D01*
X652297Y54584D01*
X652971Y55463D01*
X653720Y56280D01*
X654537Y57029D01*
X655416Y57703D01*
X656350Y58299D01*
X657333Y58810D01*
X658356Y59234D01*
X659413Y59567D01*
X660495Y59807D01*
X661593Y59952D01*
X662700Y60000D01*
X724800Y60000D01*
X725907Y60048D01*
X727005Y60193D01*
X728087Y60433D01*
X729144Y60766D01*
X730167Y61190D01*
X731150Y61701D01*
X732084Y62297D01*
X732963Y62971D01*
X733780Y63720D01*
X734529Y64537D01*
X735203Y65416D01*
X735799Y66350D01*
X736310Y67333D01*
X736734Y68356D01*
X737067Y69413D01*
X737307Y70495D01*
X737452Y71593D01*
X737500Y72700D01*
X737500Y217300D01*
X737452Y218407D01*
X737307Y219505D01*
X737067Y220587D01*
X736734Y221644D01*
X736310Y222667D01*
X735799Y223650D01*
X735203Y224584D01*
X734529Y225463D01*
X733780Y226280D01*
X732963Y227029D01*
X732084Y227703D01*
X731150Y228299D01*
X730167Y228810D01*
X729144Y229234D01*
X728087Y229567D01*
X727005Y229807D01*
X725907Y229952D01*
X724800Y230000D01*
X662700Y230000D01*
X661593Y230048D01*
X660495Y230193D01*
X659413Y230433D01*
X658356Y230766D01*
X657333Y231190D01*
X656350Y231701D01*
X655416Y232297D01*
X654537Y232971D01*
X653720Y233720D01*
X652971Y234537D01*
X652297Y235416D01*
X651701Y236350D01*
X651190Y237333D01*
X650766Y238356D01*
X650433Y239413D01*
X650193Y240495D01*
X650048Y241593D01*
X650000Y242700D01*
X650000Y277300D01*
X649952Y278407D01*
X649807Y279505D01*
X649567Y280587D01*
X649234Y281644D01*
X648810Y282667D01*
X648299Y283650D01*
X647703Y284584D01*
X647029Y285463D01*
X646280Y286280D01*
X645463Y287029D01*
X644584Y287703D01*
X643650Y288299D01*
X642667Y288810D01*
X641644Y289234D01*
X640587Y289567D01*
X639505Y289807D01*
X638407Y289952D01*
X637300Y290000D01*
X12700Y290000D01*
X11593Y289952D01*
X10495Y289807D01*
X9413Y289567D01*
X8356Y289234D01*
X7333Y288810D01*
X6350Y288299D01*
X5416Y287703D01*
X4537Y287029D01*
X3720Y286280D01*
X2971Y285463D01*
X2297Y284584D01*
X1701Y283650D01*
X1190Y282667D01*
X766Y281644D01*
X433Y280587D01*
X193Y279505D01*
X48Y278407D01*
X0Y277300D01*
X0Y242700D01*
X-48Y241593D01*
X-193Y240495D01*
X-433Y239413D01*
X-766Y238356D01*
X-1190Y237333D01*
X-1701Y236350D01*
X-2297Y235416D01*
X-2971Y234537D01*
X-3720Y233720D01*
X-4537Y232971D01*
X-5416Y232297D01*
X-6350Y231701D01*
X-7333Y231190D01*
X-8356Y230766D01*
X-9413Y230433D01*
X-10495Y230193D01*
X-11593Y230048D01*
X-12700Y230000D01*
X-74800Y230000D01*
X-75907Y229952D01*
X-77005Y229807D01*
X-78087Y229567D01*
X-79144Y229234D01*
X-80167Y228810D01*
X-81150Y228299D01*
X-82084Y227703D01*
X-82963Y227029D01*
X-83780Y226280D01*
X-84529Y225463D01*
X-85203Y224584D01*
X-85799Y223650D01*
X-86310Y222667D01*
X-86734Y221644D01*
X-87067Y220587D01*
X-87307Y219505D01*
X-87452Y218407D01*
X-87500Y217300D01*
X-87500Y72700D01*
X650500Y170000D02*
X684500Y170000D01*
X684500Y194000D01*
X650500Y194000D01*
X650500Y170000D01*
X-34500Y96000D02*
X-500Y96000D01*
X-500Y120000D01*
X-34500Y120000D01*
X-34500Y96000D01*
X-34500Y170000D02*
X-500Y170000D01*
X-500Y194000D01*
X-34500Y194000D01*
X-34500Y170000D01*
X650500Y96000D02*
X684500Y96000D01*
X684500Y120000D01*
X650500Y120000D01*
X650500Y96000D01*
X-8500Y144607D02*
X-8500Y145393D01*
X-8569Y146176D01*
X-8705Y146950D01*
X-8908Y147709D01*
X-9177Y148447D01*
X-9509Y149160D01*
X-9902Y149840D01*
X-10353Y150484D01*
X-10858Y151086D01*
X-11414Y151642D01*
X-12016Y152147D01*
X-12660Y152598D01*
X-13340Y152991D01*
X-14053Y153323D01*
X-14791Y153592D01*
X-15550Y153795D01*
X-16324Y153932D01*
X-17107Y154000D01*
X-17893Y154000D01*
X-18676Y153932D01*
X-19450Y153795D01*
X-20209Y153592D01*
X-20947Y153323D01*
X-21660Y152991D01*
X-22340Y152598D01*
X-22984Y152147D01*
X-23586Y151642D01*
X-24142Y151086D01*
X-24647Y150484D01*
X-25098Y149840D01*
X-25491Y149160D01*
X-25823Y148447D01*
X-26092Y147709D01*
X-26295Y146950D01*
X-26432Y146176D01*
X-26500Y145393D01*
X-26500Y144607D01*
X-26432Y143824D01*
X-26295Y143050D01*
X-26092Y142291D01*
X-25823Y141553D01*
X-25491Y140840D01*
X-25098Y140160D01*
X-24647Y139516D01*
X-24142Y138914D01*
X-23586Y138358D01*
X-22984Y137853D01*
X-22340Y137402D01*
X-21660Y137009D01*
X-20947Y136677D01*
X-20209Y136408D01*
X-19450Y136205D01*
X-18676Y136069D01*
X-17893Y136000D01*
X-17107Y136000D01*
X-16324Y136069D01*
X-15550Y136205D01*
X-14791Y136408D01*
X-14053Y136677D01*
X-13340Y137009D01*
X-12660Y137402D01*
X-12016Y137853D01*
X-11414Y138358D01*
X-10858Y138914D01*
X-10353Y139516D01*
X-9902Y140160D01*
X-9509Y140840D01*
X-9177Y141553D01*
X-8908Y142291D01*
X-8705Y143050D01*
X-8569Y143824D01*
X-8500Y144607D01*
X676500Y144607D02*
X676500Y145393D01*
X676432Y146176D01*
X676295Y146950D01*
X676092Y147709D01*
X675823Y148447D01*
X675491Y149160D01*
X675098Y149840D01*
X674647Y150484D01*
X674142Y151086D01*
X673586Y151642D01*
X672984Y152147D01*
X672340Y152598D01*
X671660Y152991D01*
X670947Y153323D01*
X670209Y153592D01*
X669450Y153795D01*
X668676Y153932D01*
X667893Y154000D01*
X667107Y154000D01*
X666324Y153932D01*
X665550Y153795D01*
X664791Y153592D01*
X664053Y153323D01*
X663340Y152991D01*
X662660Y152598D01*
X662016Y152147D01*
X661414Y151642D01*
X660858Y151086D01*
X660353Y150484D01*
X659902Y149840D01*
X659509Y149160D01*
X659177Y148447D01*
X658908Y147709D01*
X658705Y146950D01*
X658569Y146176D01*
X658500Y145393D01*
X658500Y144607D01*
X658569Y143824D01*
X658705Y143050D01*
X658908Y142291D01*
X659177Y141553D01*
X659509Y140840D01*
X659902Y140160D01*
X660353Y139516D01*
X660858Y138914D01*
X661414Y138358D01*
X662016Y137853D01*
X662660Y137402D01*
X663340Y137009D01*
X664053Y136677D01*
X664791Y136408D01*
X665550Y136205D01*
X666324Y136069D01*
X667107Y136000D01*
X667893Y136000D01*
X668676Y136069D01*
X669450Y136205D01*
X670209Y136408D01*
X670947Y136677D01*
X671660Y137009D01*
X672340Y137402D01*
X672984Y137853D01*
X673586Y138358D01*
X674142Y138914D01*
X674647Y139516D01*
X675098Y140160D01*
X675491Y140840D01*
X675823Y141553D01*
X676092Y142291D01*
X676295Y143050D01*
X676432Y143824D01*
X676500Y144607D01*
X32250Y254759D02*
X32250Y255741D01*
X32173Y256720D01*
X32019Y257691D01*
X31790Y258646D01*
X31486Y259580D01*
X31111Y260487D01*
X30665Y261362D01*
X30151Y262200D01*
X29574Y262995D01*
X28936Y263742D01*
X28242Y264436D01*
X27495Y265074D01*
X26700Y265651D01*
X25862Y266165D01*
X24987Y266611D01*
X24080Y266986D01*
X23146Y267290D01*
X22191Y267519D01*
X21220Y267673D01*
X20241Y267750D01*
X19259Y267750D01*
X18280Y267673D01*
X17310Y267519D01*
X16354Y267290D01*
X15420Y266986D01*
X14513Y266611D01*
X13638Y266165D01*
X12800Y265651D01*
X12005Y265074D01*
X11258Y264436D01*
X10564Y263742D01*
X9926Y262995D01*
X9349Y262200D01*
X8835Y261362D01*
X8389Y260487D01*
X8014Y259580D01*
X7710Y258646D01*
X7481Y257691D01*
X7327Y256720D01*
X7250Y255741D01*
X7250Y254759D01*
X7327Y253780D01*
X7481Y252810D01*
X7710Y251854D01*
X8014Y250920D01*
X8389Y250013D01*
X8835Y249138D01*
X9349Y248300D01*
X9926Y247505D01*
X10564Y246758D01*
X11258Y246064D01*
X12005Y245426D01*
X12800Y244849D01*
X13638Y244335D01*
X14513Y243889D01*
X15420Y243514D01*
X16354Y243210D01*
X17310Y242981D01*
X18280Y242827D01*
X19259Y242750D01*
X20241Y242750D01*
X21220Y242827D01*
X22191Y242981D01*
X23146Y243210D01*
X24080Y243514D01*
X24987Y243889D01*
X25862Y244335D01*
X26700Y244849D01*
X27495Y245426D01*
X28242Y246064D01*
X28936Y246758D01*
X29574Y247505D01*
X30151Y248300D01*
X30665Y249138D01*
X31111Y250013D01*
X31486Y250920D01*
X31790Y251854D01*
X32019Y252810D01*
X32173Y253780D01*
X32250Y254759D01*
X642250Y34759D02*
X642250Y35741D01*
X642173Y36720D01*
X642019Y37691D01*
X641790Y38646D01*
X641486Y39580D01*
X641111Y40487D01*
X640665Y41362D01*
X640151Y42200D01*
X639574Y42995D01*
X638936Y43742D01*
X638242Y44436D01*
X637495Y45074D01*
X636700Y45651D01*
X635862Y46165D01*
X634987Y46611D01*
X634080Y46986D01*
X633146Y47290D01*
X632191Y47519D01*
X631220Y47673D01*
X630241Y47750D01*
X629259Y47750D01*
X628280Y47673D01*
X627310Y47519D01*
X626354Y47290D01*
X625420Y46986D01*
X624513Y46611D01*
X623638Y46165D01*
X622800Y45651D01*
X622005Y45074D01*
X621258Y44436D01*
X620564Y43742D01*
X619926Y42995D01*
X619349Y42200D01*
X618835Y41362D01*
X618389Y40487D01*
X618014Y39580D01*
X617710Y38646D01*
X617481Y37691D01*
X617327Y36720D01*
X617250Y35741D01*
X617250Y34759D01*
X617327Y33780D01*
X617481Y32810D01*
X617710Y31854D01*
X618014Y30920D01*
X618389Y30013D01*
X618835Y29138D01*
X619349Y28300D01*
X619926Y27505D01*
X620564Y26758D01*
X621258Y26064D01*
X622005Y25426D01*
X622800Y24849D01*
X623638Y24335D01*
X624513Y23889D01*
X625420Y23514D01*
X626354Y23210D01*
X627310Y22981D01*
X628280Y22827D01*
X629259Y22750D01*
X630241Y22750D01*
X631220Y22827D01*
X632191Y22981D01*
X633146Y23210D01*
X634080Y23514D01*
X634987Y23889D01*
X635862Y24335D01*
X636700Y24849D01*
X637495Y25426D01*
X638242Y26064D01*
X638936Y26758D01*
X639574Y27505D01*
X640151Y28300D01*
X640665Y29138D01*
X641111Y30013D01*
X641486Y30920D01*
X641790Y31854D01*
X642019Y32810D01*
X642173Y33780D01*
X642250Y34759D01*
X642250Y254759D02*
X642250Y255741D01*
X642173Y256720D01*
X642019Y257691D01*
X641790Y258646D01*
X641486Y259580D01*
X641111Y260487D01*
X640665Y261362D01*
X640151Y262200D01*
X639574Y262995D01*
X638936Y263742D01*
X638242Y264436D01*
X637495Y265074D01*
X636700Y265651D01*
X635862Y266165D01*
X634987Y266611D01*
X634080Y266986D01*
X633146Y267290D01*
X632191Y267519D01*
X631220Y267673D01*
X630241Y267750D01*
X629259Y267750D01*
X628280Y267673D01*
X627310Y267519D01*
X626354Y267290D01*
X625420Y266986D01*
X624513Y266611D01*
X623638Y266165D01*
X622800Y265651D01*
X622005Y265074D01*
X621258Y264436D01*
X620564Y263742D01*
X619926Y262995D01*
X619349Y262200D01*
X618835Y261362D01*
X618389Y260487D01*
X618014Y259580D01*
X617710Y258646D01*
X617481Y257691D01*
X617327Y256720D01*
X617250Y255741D01*
X617250Y254759D01*
X617327Y253780D01*
X617481Y252810D01*
X617710Y251854D01*
X618014Y250920D01*
X618389Y250013D01*
X618835Y249138D01*
X619349Y248300D01*
X619926Y247505D01*
X620564Y246758D01*
X621258Y246064D01*
X622005Y245426D01*
X622800Y244849D01*
X623638Y244335D01*
X624513Y243889D01*
X625420Y243514D01*
X626354Y243210D01*
X627310Y242981D01*
X628280Y242827D01*
X629259Y242750D01*
X630241Y242750D01*
X631220Y242827D01*
X632191Y242981D01*
X633146Y243210D01*
X634080Y243514D01*
X634987Y243889D01*
X635862Y244335D01*
X636700Y244849D01*
X637495Y245426D01*
X638242Y246064D01*
X638936Y246758D01*
X639574Y247505D01*
X640151Y248300D01*
X640665Y249138D01*
X641111Y250013D01*
X641486Y250920D01*
X641790Y251854D01*
X642019Y252810D01*
X642173Y253780D01*
X642250Y254759D01*
X32250Y34759D02*
X32250Y35741D01*
X32173Y36720D01*
X32019Y37691D01*
X31790Y38646D01*
X31486Y39580D01*
X31111Y40487D01*
X30665Y41362D01*
X30151Y42200D01*
X29574Y42995D01*
X28936Y43742D01*
X28242Y44436D01*
X27495Y45074D01*
X26700Y45651D01*
X25862Y46165D01*
X24987Y46611D01*
X24080Y46986D01*
X23146Y47290D01*
X22191Y47519D01*
X21220Y47673D01*
X20241Y47750D01*
X19259Y47750D01*
X18280Y47673D01*
X17310Y47519D01*
X16354Y47290D01*
X15420Y46986D01*
X14513Y46611D01*
X13638Y46165D01*
X12800Y45651D01*
X12005Y45074D01*
X11258Y44436D01*
X10564Y43742D01*
X9926Y42995D01*
X9349Y42200D01*
X8835Y41362D01*
X8389Y40487D01*
X8014Y39580D01*
X7710Y38646D01*
X7481Y37691D01*
X7327Y36720D01*
X7250Y35741D01*
X7250Y34759D01*
X7327Y33780D01*
X7481Y32810D01*
X7710Y31854D01*
X8014Y30920D01*
X8389Y30013D01*
X8835Y29138D01*
X9349Y28300D01*
X9926Y27505D01*
X10564Y26758D01*
X11258Y26064D01*
X12005Y25426D01*
X12800Y24849D01*
X13638Y24335D01*
X14513Y23889D01*
X15420Y23514D01*
X16354Y23210D01*
X17310Y22981D01*
X18280Y22827D01*
X19259Y22750D01*
X20241Y22750D01*
X21220Y22827D01*
X22191Y22981D01*
X23146Y23210D01*
X24080Y23514D01*
X24987Y23889D01*
X25862Y24335D01*
X26700Y24849D01*
X27495Y25426D01*
X28242Y26064D01*
X28936Y26758D01*
X29574Y27505D01*
X30151Y28300D01*
X30665Y29138D01*
X31111Y30013D01*
X31486Y30920D01*
X31790Y31854D01*
X32019Y32810D01*
X32173Y33780D01*
X32250Y34759D01*
M02*
