G04 EAGLE Gerber X2 export*
%TF.Part,Single*%
%TF.FileFunction,Legend,Top,1*%
%TF.FilePolarity,Positive*%
%TF.GenerationSoftware,Autodesk,EAGLE,9.1.0*%
%TF.CreationDate,2020-08-17T16:38:00Z*%
G75*
%MOMM*%
%FSLAX34Y34*%
%LPD*%
%AMOC8*
5,1,8,0,0,1.08239X$1,22.5*%
G01*
%ADD10C,0.200000*%
%ADD11C,0.101600*%
%ADD12C,0.152400*%
%ADD13C,0.127000*%


D10*
X462250Y130500D02*
X457750Y130500D01*
X457750Y159500D01*
X462250Y159500D01*
X462250Y130500D01*
X465750Y130000D02*
X476250Y130000D01*
D11*
X485143Y139158D02*
X485143Y150842D01*
X489038Y144351D01*
X492933Y150842D01*
X492933Y139158D01*
X498366Y148246D02*
X501611Y150842D01*
X501611Y139158D01*
X498366Y139158D02*
X504857Y139158D01*
D10*
X550000Y73100D02*
X550000Y216900D01*
X592000Y216900D02*
X592000Y73100D01*
X525352Y101510D02*
X525354Y101561D01*
X525360Y101612D01*
X525370Y101662D01*
X525383Y101711D01*
X525401Y101759D01*
X525422Y101805D01*
X525447Y101850D01*
X525475Y101893D01*
X525506Y101933D01*
X525540Y101971D01*
X525577Y102006D01*
X525617Y102038D01*
X525659Y102067D01*
X525703Y102092D01*
X525749Y102114D01*
X525797Y102133D01*
X525846Y102147D01*
X525896Y102158D01*
X525946Y102165D01*
X525997Y102168D01*
X526048Y102167D01*
X526099Y102162D01*
X526149Y102153D01*
X526199Y102140D01*
X526247Y102124D01*
X526294Y102104D01*
X526339Y102080D01*
X526382Y102053D01*
X526423Y102022D01*
X526462Y101989D01*
X526497Y101952D01*
X526530Y101913D01*
X526560Y101872D01*
X526586Y101828D01*
X526609Y101782D01*
X526628Y101735D01*
X526644Y101686D01*
X526656Y101637D01*
X526664Y101586D01*
X526668Y101536D01*
X526668Y101484D01*
X526664Y101434D01*
X526656Y101383D01*
X526644Y101334D01*
X526628Y101285D01*
X526609Y101238D01*
X526586Y101192D01*
X526560Y101148D01*
X526530Y101107D01*
X526497Y101068D01*
X526462Y101031D01*
X526423Y100998D01*
X526382Y100967D01*
X526339Y100940D01*
X526294Y100916D01*
X526247Y100896D01*
X526199Y100880D01*
X526149Y100867D01*
X526099Y100858D01*
X526048Y100853D01*
X525997Y100852D01*
X525946Y100855D01*
X525896Y100862D01*
X525846Y100873D01*
X525797Y100887D01*
X525749Y100906D01*
X525703Y100928D01*
X525659Y100953D01*
X525617Y100982D01*
X525577Y101014D01*
X525540Y101049D01*
X525506Y101087D01*
X525475Y101127D01*
X525447Y101170D01*
X525422Y101215D01*
X525401Y101261D01*
X525383Y101309D01*
X525370Y101358D01*
X525360Y101408D01*
X525354Y101459D01*
X525352Y101510D01*
D11*
X564955Y244114D02*
X564955Y253202D01*
X564955Y244114D02*
X564953Y244015D01*
X564947Y243915D01*
X564938Y243816D01*
X564925Y243718D01*
X564908Y243620D01*
X564887Y243522D01*
X564862Y243426D01*
X564834Y243331D01*
X564802Y243237D01*
X564767Y243144D01*
X564728Y243052D01*
X564685Y242962D01*
X564640Y242874D01*
X564590Y242787D01*
X564538Y242703D01*
X564482Y242620D01*
X564424Y242540D01*
X564362Y242462D01*
X564297Y242387D01*
X564229Y242314D01*
X564159Y242244D01*
X564086Y242176D01*
X564011Y242111D01*
X563933Y242049D01*
X563853Y241991D01*
X563770Y241935D01*
X563686Y241883D01*
X563599Y241833D01*
X563511Y241788D01*
X563421Y241745D01*
X563329Y241706D01*
X563236Y241671D01*
X563142Y241639D01*
X563047Y241611D01*
X562951Y241586D01*
X562853Y241565D01*
X562755Y241548D01*
X562657Y241535D01*
X562558Y241526D01*
X562458Y241520D01*
X562359Y241518D01*
X561060Y241518D01*
X573799Y253202D02*
X573906Y253200D01*
X574012Y253194D01*
X574118Y253184D01*
X574224Y253171D01*
X574330Y253153D01*
X574434Y253132D01*
X574538Y253107D01*
X574641Y253078D01*
X574742Y253046D01*
X574842Y253009D01*
X574941Y252969D01*
X575039Y252926D01*
X575135Y252879D01*
X575229Y252828D01*
X575321Y252774D01*
X575411Y252717D01*
X575499Y252657D01*
X575584Y252593D01*
X575667Y252526D01*
X575748Y252456D01*
X575826Y252384D01*
X575902Y252308D01*
X575974Y252230D01*
X576044Y252149D01*
X576111Y252066D01*
X576175Y251981D01*
X576235Y251893D01*
X576292Y251803D01*
X576346Y251711D01*
X576397Y251617D01*
X576444Y251521D01*
X576487Y251423D01*
X576527Y251324D01*
X576564Y251224D01*
X576596Y251123D01*
X576625Y251020D01*
X576650Y250916D01*
X576671Y250812D01*
X576689Y250706D01*
X576702Y250600D01*
X576712Y250494D01*
X576718Y250388D01*
X576720Y250281D01*
X573799Y253202D02*
X573678Y253200D01*
X573557Y253194D01*
X573437Y253184D01*
X573316Y253171D01*
X573197Y253153D01*
X573077Y253132D01*
X572959Y253107D01*
X572842Y253078D01*
X572725Y253045D01*
X572610Y253009D01*
X572496Y252968D01*
X572383Y252925D01*
X572271Y252877D01*
X572162Y252826D01*
X572054Y252771D01*
X571947Y252713D01*
X571843Y252652D01*
X571741Y252587D01*
X571641Y252519D01*
X571543Y252448D01*
X571447Y252374D01*
X571354Y252297D01*
X571264Y252216D01*
X571176Y252133D01*
X571091Y252047D01*
X571008Y251958D01*
X570929Y251867D01*
X570852Y251773D01*
X570779Y251677D01*
X570709Y251579D01*
X570642Y251478D01*
X570578Y251375D01*
X570518Y251270D01*
X570461Y251163D01*
X570407Y251055D01*
X570357Y250945D01*
X570311Y250833D01*
X570268Y250720D01*
X570229Y250605D01*
X575746Y248009D02*
X575825Y248086D01*
X575901Y248167D01*
X575974Y248250D01*
X576044Y248335D01*
X576111Y248423D01*
X576175Y248513D01*
X576235Y248605D01*
X576292Y248700D01*
X576346Y248796D01*
X576397Y248894D01*
X576444Y248994D01*
X576488Y249096D01*
X576528Y249199D01*
X576564Y249303D01*
X576596Y249409D01*
X576625Y249515D01*
X576650Y249623D01*
X576672Y249731D01*
X576689Y249841D01*
X576703Y249950D01*
X576712Y250060D01*
X576718Y250171D01*
X576720Y250281D01*
X575746Y248009D02*
X570228Y241518D01*
X576720Y241518D01*
D10*
X120000Y216900D02*
X120000Y73100D01*
X78000Y73100D02*
X78000Y216900D01*
X143332Y188490D02*
X143334Y188541D01*
X143340Y188592D01*
X143350Y188642D01*
X143363Y188691D01*
X143381Y188739D01*
X143402Y188785D01*
X143427Y188830D01*
X143455Y188873D01*
X143486Y188913D01*
X143520Y188951D01*
X143557Y188986D01*
X143597Y189018D01*
X143639Y189047D01*
X143683Y189072D01*
X143729Y189094D01*
X143777Y189113D01*
X143826Y189127D01*
X143876Y189138D01*
X143926Y189145D01*
X143977Y189148D01*
X144028Y189147D01*
X144079Y189142D01*
X144129Y189133D01*
X144179Y189120D01*
X144227Y189104D01*
X144274Y189084D01*
X144319Y189060D01*
X144362Y189033D01*
X144403Y189002D01*
X144442Y188969D01*
X144477Y188932D01*
X144510Y188893D01*
X144540Y188852D01*
X144566Y188808D01*
X144589Y188762D01*
X144608Y188715D01*
X144624Y188666D01*
X144636Y188617D01*
X144644Y188566D01*
X144648Y188516D01*
X144648Y188464D01*
X144644Y188414D01*
X144636Y188363D01*
X144624Y188314D01*
X144608Y188265D01*
X144589Y188218D01*
X144566Y188172D01*
X144540Y188128D01*
X144510Y188087D01*
X144477Y188048D01*
X144442Y188011D01*
X144403Y187978D01*
X144362Y187947D01*
X144319Y187920D01*
X144274Y187896D01*
X144227Y187876D01*
X144179Y187860D01*
X144129Y187847D01*
X144079Y187838D01*
X144028Y187833D01*
X143977Y187832D01*
X143926Y187835D01*
X143876Y187842D01*
X143826Y187853D01*
X143777Y187867D01*
X143729Y187886D01*
X143683Y187908D01*
X143639Y187933D01*
X143597Y187962D01*
X143557Y187994D01*
X143520Y188029D01*
X143486Y188067D01*
X143455Y188107D01*
X143427Y188150D01*
X143402Y188195D01*
X143381Y188241D01*
X143363Y188289D01*
X143350Y188338D01*
X143340Y188388D01*
X143334Y188439D01*
X143332Y188490D01*
D11*
X97175Y239394D02*
X97175Y248482D01*
X97175Y239394D02*
X97173Y239295D01*
X97167Y239195D01*
X97158Y239096D01*
X97145Y238998D01*
X97128Y238900D01*
X97107Y238802D01*
X97082Y238706D01*
X97054Y238611D01*
X97022Y238517D01*
X96987Y238424D01*
X96948Y238332D01*
X96905Y238242D01*
X96860Y238154D01*
X96810Y238067D01*
X96758Y237983D01*
X96702Y237900D01*
X96644Y237820D01*
X96582Y237742D01*
X96517Y237667D01*
X96449Y237594D01*
X96379Y237524D01*
X96306Y237456D01*
X96231Y237391D01*
X96153Y237329D01*
X96073Y237271D01*
X95990Y237215D01*
X95906Y237163D01*
X95819Y237113D01*
X95731Y237068D01*
X95641Y237025D01*
X95549Y236986D01*
X95456Y236951D01*
X95362Y236919D01*
X95267Y236891D01*
X95171Y236866D01*
X95073Y236845D01*
X94975Y236828D01*
X94877Y236815D01*
X94778Y236806D01*
X94678Y236800D01*
X94579Y236798D01*
X93280Y236798D01*
X102449Y245886D02*
X105694Y248482D01*
X105694Y236798D01*
X102449Y236798D02*
X108940Y236798D01*
D12*
X30800Y125950D02*
X30800Y113250D01*
X30800Y125950D02*
X37150Y132300D01*
X49850Y132300D02*
X56200Y125950D01*
X37150Y132300D02*
X30800Y138650D01*
X30800Y151350D01*
X37150Y157700D01*
X49850Y157700D02*
X56200Y151350D01*
X56200Y138650D01*
X49850Y132300D01*
X49850Y106900D02*
X37150Y106900D01*
X30800Y113250D01*
X49850Y106900D02*
X56200Y113250D01*
X56200Y125950D01*
X37150Y157700D02*
X30800Y164050D01*
X30800Y176750D01*
X37150Y183100D01*
X49850Y183100D02*
X56200Y176750D01*
X56200Y164050D01*
X49850Y157700D01*
X49850Y183100D02*
X37150Y183100D01*
D13*
X37785Y98010D02*
X40325Y94835D01*
X37785Y98010D02*
X49215Y98010D01*
X49215Y94835D02*
X49215Y101185D01*
X10706Y142465D02*
X10706Y151355D01*
X10706Y142465D02*
X10704Y142365D01*
X10698Y142266D01*
X10688Y142166D01*
X10675Y142068D01*
X10657Y141969D01*
X10636Y141872D01*
X10611Y141776D01*
X10582Y141680D01*
X10549Y141586D01*
X10513Y141493D01*
X10473Y141402D01*
X10429Y141312D01*
X10382Y141224D01*
X10332Y141138D01*
X10278Y141054D01*
X10221Y140972D01*
X10161Y140893D01*
X10097Y140815D01*
X10031Y140741D01*
X9962Y140669D01*
X9890Y140600D01*
X9816Y140534D01*
X9738Y140470D01*
X9659Y140410D01*
X9577Y140353D01*
X9493Y140299D01*
X9407Y140249D01*
X9319Y140202D01*
X9229Y140158D01*
X9138Y140118D01*
X9045Y140082D01*
X8951Y140049D01*
X8855Y140020D01*
X8759Y139995D01*
X8662Y139974D01*
X8563Y139956D01*
X8465Y139943D01*
X8365Y139933D01*
X8266Y139927D01*
X8166Y139925D01*
X6896Y139925D01*
X16115Y139925D02*
X19290Y139925D01*
X19401Y139927D01*
X19511Y139933D01*
X19622Y139942D01*
X19732Y139956D01*
X19841Y139973D01*
X19950Y139994D01*
X20058Y140019D01*
X20165Y140048D01*
X20271Y140080D01*
X20376Y140116D01*
X20479Y140156D01*
X20581Y140199D01*
X20682Y140246D01*
X20781Y140297D01*
X20877Y140350D01*
X20972Y140407D01*
X21065Y140468D01*
X21156Y140531D01*
X21245Y140598D01*
X21331Y140668D01*
X21414Y140741D01*
X21496Y140816D01*
X21574Y140894D01*
X21649Y140976D01*
X21722Y141059D01*
X21792Y141145D01*
X21859Y141234D01*
X21922Y141325D01*
X21983Y141418D01*
X22040Y141512D01*
X22093Y141609D01*
X22144Y141708D01*
X22191Y141809D01*
X22234Y141911D01*
X22274Y142014D01*
X22310Y142119D01*
X22342Y142225D01*
X22371Y142332D01*
X22396Y142440D01*
X22417Y142549D01*
X22434Y142658D01*
X22448Y142768D01*
X22457Y142879D01*
X22463Y142989D01*
X22465Y143100D01*
X22463Y143211D01*
X22457Y143321D01*
X22448Y143432D01*
X22434Y143542D01*
X22417Y143651D01*
X22396Y143760D01*
X22371Y143868D01*
X22342Y143975D01*
X22310Y144081D01*
X22274Y144186D01*
X22234Y144289D01*
X22191Y144391D01*
X22144Y144492D01*
X22093Y144591D01*
X22040Y144687D01*
X21983Y144782D01*
X21922Y144875D01*
X21859Y144966D01*
X21792Y145055D01*
X21722Y145141D01*
X21649Y145224D01*
X21574Y145306D01*
X21496Y145384D01*
X21414Y145459D01*
X21331Y145532D01*
X21245Y145602D01*
X21156Y145669D01*
X21065Y145732D01*
X20972Y145793D01*
X20878Y145850D01*
X20781Y145903D01*
X20682Y145954D01*
X20581Y146001D01*
X20479Y146044D01*
X20376Y146084D01*
X20271Y146120D01*
X20165Y146152D01*
X20058Y146181D01*
X19950Y146206D01*
X19841Y146227D01*
X19732Y146244D01*
X19622Y146258D01*
X19511Y146267D01*
X19401Y146273D01*
X19290Y146275D01*
X19925Y151355D02*
X16115Y151355D01*
X19925Y151355D02*
X20025Y151353D01*
X20124Y151347D01*
X20224Y151337D01*
X20322Y151324D01*
X20421Y151306D01*
X20518Y151285D01*
X20614Y151260D01*
X20710Y151231D01*
X20804Y151198D01*
X20897Y151162D01*
X20988Y151122D01*
X21078Y151078D01*
X21166Y151031D01*
X21252Y150981D01*
X21336Y150927D01*
X21418Y150870D01*
X21497Y150810D01*
X21575Y150746D01*
X21649Y150680D01*
X21721Y150611D01*
X21790Y150539D01*
X21856Y150465D01*
X21920Y150387D01*
X21980Y150308D01*
X22037Y150226D01*
X22091Y150142D01*
X22141Y150056D01*
X22188Y149968D01*
X22232Y149878D01*
X22272Y149787D01*
X22308Y149694D01*
X22341Y149600D01*
X22370Y149504D01*
X22395Y149408D01*
X22416Y149311D01*
X22434Y149212D01*
X22447Y149114D01*
X22457Y149014D01*
X22463Y148915D01*
X22465Y148815D01*
X22463Y148715D01*
X22457Y148616D01*
X22447Y148516D01*
X22434Y148418D01*
X22416Y148319D01*
X22395Y148222D01*
X22370Y148126D01*
X22341Y148030D01*
X22308Y147936D01*
X22272Y147843D01*
X22232Y147752D01*
X22188Y147662D01*
X22141Y147574D01*
X22091Y147488D01*
X22037Y147404D01*
X21980Y147322D01*
X21920Y147243D01*
X21856Y147165D01*
X21790Y147091D01*
X21721Y147019D01*
X21649Y146950D01*
X21575Y146884D01*
X21497Y146820D01*
X21418Y146760D01*
X21336Y146703D01*
X21252Y146649D01*
X21166Y146599D01*
X21078Y146552D01*
X20988Y146508D01*
X20897Y146468D01*
X20804Y146432D01*
X20710Y146399D01*
X20614Y146370D01*
X20518Y146345D01*
X20421Y146324D01*
X20322Y146306D01*
X20224Y146293D01*
X20124Y146283D01*
X20025Y146277D01*
X19925Y146275D01*
X17385Y146275D01*
X336700Y115700D02*
X336700Y104300D01*
X353300Y104300D02*
X353300Y115700D01*
D11*
X338245Y141008D02*
X338245Y152692D01*
X341490Y152692D01*
X341603Y152690D01*
X341716Y152684D01*
X341829Y152674D01*
X341942Y152660D01*
X342054Y152643D01*
X342165Y152621D01*
X342275Y152596D01*
X342385Y152566D01*
X342493Y152533D01*
X342600Y152496D01*
X342706Y152456D01*
X342810Y152411D01*
X342913Y152363D01*
X343014Y152312D01*
X343113Y152257D01*
X343210Y152199D01*
X343305Y152137D01*
X343398Y152072D01*
X343488Y152004D01*
X343576Y151933D01*
X343662Y151858D01*
X343745Y151781D01*
X343825Y151701D01*
X343902Y151618D01*
X343977Y151532D01*
X344048Y151444D01*
X344116Y151354D01*
X344181Y151261D01*
X344243Y151166D01*
X344301Y151069D01*
X344356Y150970D01*
X344407Y150869D01*
X344455Y150766D01*
X344500Y150662D01*
X344540Y150556D01*
X344577Y150449D01*
X344610Y150341D01*
X344640Y150231D01*
X344665Y150121D01*
X344687Y150010D01*
X344704Y149898D01*
X344718Y149785D01*
X344728Y149672D01*
X344734Y149559D01*
X344736Y149446D01*
X344734Y149333D01*
X344728Y149220D01*
X344718Y149107D01*
X344704Y148994D01*
X344687Y148882D01*
X344665Y148771D01*
X344640Y148661D01*
X344610Y148551D01*
X344577Y148443D01*
X344540Y148336D01*
X344500Y148230D01*
X344455Y148126D01*
X344407Y148023D01*
X344356Y147922D01*
X344301Y147823D01*
X344243Y147726D01*
X344181Y147631D01*
X344116Y147538D01*
X344048Y147448D01*
X343977Y147360D01*
X343902Y147274D01*
X343825Y147191D01*
X343745Y147111D01*
X343662Y147034D01*
X343576Y146959D01*
X343488Y146888D01*
X343398Y146820D01*
X343305Y146755D01*
X343210Y146693D01*
X343113Y146635D01*
X343014Y146580D01*
X342913Y146529D01*
X342810Y146481D01*
X342706Y146436D01*
X342600Y146396D01*
X342493Y146359D01*
X342385Y146326D01*
X342275Y146296D01*
X342165Y146271D01*
X342054Y146249D01*
X341942Y146232D01*
X341829Y146218D01*
X341716Y146208D01*
X341603Y146202D01*
X341490Y146200D01*
X341490Y146201D02*
X338245Y146201D01*
X342139Y146201D02*
X344736Y141008D01*
X349601Y150096D02*
X352846Y152692D01*
X352846Y141008D01*
X349601Y141008D02*
X356092Y141008D01*
D13*
X323300Y115700D02*
X323300Y104300D01*
X306700Y104300D02*
X306700Y115700D01*
D11*
X303908Y140808D02*
X303908Y152492D01*
X307154Y152492D01*
X307267Y152490D01*
X307380Y152484D01*
X307493Y152474D01*
X307606Y152460D01*
X307718Y152443D01*
X307829Y152421D01*
X307939Y152396D01*
X308049Y152366D01*
X308157Y152333D01*
X308264Y152296D01*
X308370Y152256D01*
X308474Y152211D01*
X308577Y152163D01*
X308678Y152112D01*
X308777Y152057D01*
X308874Y151999D01*
X308969Y151937D01*
X309062Y151872D01*
X309152Y151804D01*
X309240Y151733D01*
X309326Y151658D01*
X309409Y151581D01*
X309489Y151501D01*
X309566Y151418D01*
X309641Y151332D01*
X309712Y151244D01*
X309780Y151154D01*
X309845Y151061D01*
X309907Y150966D01*
X309965Y150869D01*
X310020Y150770D01*
X310071Y150669D01*
X310119Y150566D01*
X310164Y150462D01*
X310204Y150356D01*
X310241Y150249D01*
X310274Y150141D01*
X310304Y150031D01*
X310329Y149921D01*
X310351Y149810D01*
X310368Y149698D01*
X310382Y149585D01*
X310392Y149472D01*
X310398Y149359D01*
X310400Y149246D01*
X310398Y149133D01*
X310392Y149020D01*
X310382Y148907D01*
X310368Y148794D01*
X310351Y148682D01*
X310329Y148571D01*
X310304Y148461D01*
X310274Y148351D01*
X310241Y148243D01*
X310204Y148136D01*
X310164Y148030D01*
X310119Y147926D01*
X310071Y147823D01*
X310020Y147722D01*
X309965Y147623D01*
X309907Y147526D01*
X309845Y147431D01*
X309780Y147338D01*
X309712Y147248D01*
X309641Y147160D01*
X309566Y147074D01*
X309489Y146991D01*
X309409Y146911D01*
X309326Y146834D01*
X309240Y146759D01*
X309152Y146688D01*
X309062Y146620D01*
X308969Y146555D01*
X308874Y146493D01*
X308777Y146435D01*
X308678Y146380D01*
X308577Y146329D01*
X308474Y146281D01*
X308370Y146236D01*
X308264Y146196D01*
X308157Y146159D01*
X308049Y146126D01*
X307939Y146096D01*
X307829Y146071D01*
X307718Y146049D01*
X307606Y146032D01*
X307493Y146018D01*
X307380Y146008D01*
X307267Y146002D01*
X307154Y146000D01*
X307154Y146001D02*
X303908Y146001D01*
X307803Y146001D02*
X310399Y140808D01*
X321755Y149571D02*
X321753Y149678D01*
X321747Y149784D01*
X321737Y149890D01*
X321724Y149996D01*
X321706Y150102D01*
X321685Y150206D01*
X321660Y150310D01*
X321631Y150413D01*
X321599Y150514D01*
X321562Y150614D01*
X321522Y150713D01*
X321479Y150811D01*
X321432Y150907D01*
X321381Y151001D01*
X321327Y151093D01*
X321270Y151183D01*
X321210Y151271D01*
X321146Y151356D01*
X321079Y151439D01*
X321009Y151520D01*
X320937Y151598D01*
X320861Y151674D01*
X320783Y151746D01*
X320702Y151816D01*
X320619Y151883D01*
X320534Y151947D01*
X320446Y152007D01*
X320356Y152064D01*
X320264Y152118D01*
X320170Y152169D01*
X320074Y152216D01*
X319976Y152259D01*
X319877Y152299D01*
X319777Y152336D01*
X319676Y152368D01*
X319573Y152397D01*
X319469Y152422D01*
X319365Y152443D01*
X319259Y152461D01*
X319153Y152474D01*
X319047Y152484D01*
X318941Y152490D01*
X318834Y152492D01*
X318713Y152490D01*
X318592Y152484D01*
X318472Y152474D01*
X318351Y152461D01*
X318232Y152443D01*
X318112Y152422D01*
X317994Y152397D01*
X317877Y152368D01*
X317760Y152335D01*
X317645Y152299D01*
X317531Y152258D01*
X317418Y152215D01*
X317306Y152167D01*
X317197Y152116D01*
X317089Y152061D01*
X316982Y152003D01*
X316878Y151942D01*
X316776Y151877D01*
X316676Y151809D01*
X316578Y151738D01*
X316482Y151664D01*
X316389Y151587D01*
X316299Y151506D01*
X316211Y151423D01*
X316126Y151337D01*
X316043Y151248D01*
X315964Y151157D01*
X315887Y151063D01*
X315814Y150967D01*
X315744Y150869D01*
X315677Y150768D01*
X315613Y150665D01*
X315553Y150560D01*
X315496Y150453D01*
X315442Y150345D01*
X315392Y150235D01*
X315346Y150123D01*
X315303Y150010D01*
X315264Y149895D01*
X320782Y147299D02*
X320861Y147376D01*
X320937Y147457D01*
X321010Y147540D01*
X321080Y147625D01*
X321147Y147713D01*
X321211Y147803D01*
X321271Y147895D01*
X321328Y147990D01*
X321382Y148086D01*
X321433Y148184D01*
X321480Y148284D01*
X321524Y148386D01*
X321564Y148489D01*
X321600Y148593D01*
X321632Y148699D01*
X321661Y148805D01*
X321686Y148913D01*
X321708Y149021D01*
X321725Y149131D01*
X321739Y149240D01*
X321748Y149350D01*
X321754Y149461D01*
X321756Y149571D01*
X320782Y147299D02*
X315264Y140808D01*
X321755Y140808D01*
M02*
