G04 EAGLE Gerber X2 export*
%TF.Part,Single*%
%TF.FileFunction,Profile,NP*%
%TF.FilePolarity,Positive*%
%TF.GenerationSoftware,Autodesk,EAGLE,9.1.0*%
%TF.CreationDate,2020-06-24T00:02:45Z*%
G75*
%MOMM*%
%FSLAX34Y34*%
%LPD*%
%AMOC8*
5,1,8,0,0,1.08239X$1,22.5*%
G01*
%ADD10C,0.254000*%


D10*
X-87700Y72700D02*
X-87652Y71593D01*
X-87507Y70495D01*
X-87267Y69413D01*
X-86934Y68356D01*
X-86510Y67333D01*
X-85999Y66350D01*
X-85403Y65416D01*
X-84729Y64537D01*
X-83980Y63720D01*
X-83163Y62971D01*
X-82284Y62297D01*
X-81350Y61701D01*
X-80367Y61190D01*
X-79344Y60766D01*
X-78287Y60433D01*
X-77205Y60193D01*
X-76107Y60048D01*
X-75000Y60000D01*
X-12900Y60000D01*
X-11793Y59952D01*
X-10695Y59807D01*
X-9613Y59567D01*
X-8556Y59234D01*
X-7533Y58810D01*
X-6550Y58299D01*
X-5616Y57703D01*
X-4737Y57029D01*
X-3920Y56280D01*
X-3171Y55463D01*
X-2497Y54584D01*
X-1901Y53650D01*
X-1390Y52667D01*
X-966Y51644D01*
X-633Y50587D01*
X-393Y49505D01*
X-248Y48407D01*
X-200Y47300D01*
X-200Y12700D01*
X-152Y11593D01*
X-7Y10495D01*
X233Y9413D01*
X566Y8356D01*
X990Y7333D01*
X1501Y6350D01*
X2097Y5416D01*
X2771Y4537D01*
X3520Y3720D01*
X4337Y2971D01*
X5216Y2297D01*
X6150Y1701D01*
X7133Y1190D01*
X8156Y766D01*
X9213Y433D01*
X10295Y193D01*
X11393Y48D01*
X12500Y0D01*
X637100Y0D01*
X638207Y48D01*
X639305Y193D01*
X640387Y433D01*
X641444Y766D01*
X642467Y1190D01*
X643450Y1701D01*
X644384Y2297D01*
X645263Y2971D01*
X646080Y3720D01*
X646829Y4537D01*
X647503Y5416D01*
X648099Y6350D01*
X648610Y7333D01*
X649034Y8356D01*
X649367Y9413D01*
X649607Y10495D01*
X649752Y11593D01*
X649800Y12700D01*
X649800Y47300D01*
X649848Y48407D01*
X649993Y49505D01*
X650233Y50587D01*
X650566Y51644D01*
X650990Y52667D01*
X651501Y53650D01*
X652097Y54584D01*
X652771Y55463D01*
X653520Y56280D01*
X654337Y57029D01*
X655216Y57703D01*
X656150Y58299D01*
X657133Y58810D01*
X658156Y59234D01*
X659213Y59567D01*
X660295Y59807D01*
X661393Y59952D01*
X662500Y60000D01*
X724600Y60000D01*
X725707Y60048D01*
X726805Y60193D01*
X727887Y60433D01*
X728944Y60766D01*
X729967Y61190D01*
X730950Y61701D01*
X731884Y62297D01*
X732763Y62971D01*
X733580Y63720D01*
X734329Y64537D01*
X735003Y65416D01*
X735599Y66350D01*
X736110Y67333D01*
X736534Y68356D01*
X736867Y69413D01*
X737107Y70495D01*
X737252Y71593D01*
X737300Y72700D01*
X737300Y217300D01*
X737252Y218407D01*
X737107Y219505D01*
X736867Y220587D01*
X736534Y221644D01*
X736110Y222667D01*
X735599Y223650D01*
X735003Y224584D01*
X734329Y225463D01*
X733580Y226280D01*
X732763Y227029D01*
X731884Y227703D01*
X730950Y228299D01*
X729967Y228810D01*
X728944Y229234D01*
X727887Y229567D01*
X726805Y229807D01*
X725707Y229952D01*
X724600Y230000D01*
X662500Y230000D01*
X661393Y230048D01*
X660295Y230193D01*
X659213Y230433D01*
X658156Y230766D01*
X657133Y231190D01*
X656150Y231701D01*
X655216Y232297D01*
X654337Y232971D01*
X653520Y233720D01*
X652771Y234537D01*
X652097Y235416D01*
X651501Y236350D01*
X650990Y237333D01*
X650566Y238356D01*
X650233Y239413D01*
X649993Y240495D01*
X649848Y241593D01*
X649800Y242700D01*
X649800Y277300D01*
X649752Y278407D01*
X649607Y279505D01*
X649367Y280587D01*
X649034Y281644D01*
X648610Y282667D01*
X648099Y283650D01*
X647503Y284584D01*
X646829Y285463D01*
X646080Y286280D01*
X645263Y287029D01*
X644384Y287703D01*
X643450Y288299D01*
X642467Y288810D01*
X641444Y289234D01*
X640387Y289567D01*
X639305Y289807D01*
X638207Y289952D01*
X637100Y290000D01*
X12500Y290000D01*
X11393Y289952D01*
X10295Y289807D01*
X9213Y289567D01*
X8156Y289234D01*
X7133Y288810D01*
X6150Y288299D01*
X5216Y287703D01*
X4337Y287029D01*
X3520Y286280D01*
X2771Y285463D01*
X2097Y284584D01*
X1501Y283650D01*
X990Y282667D01*
X566Y281644D01*
X233Y280587D01*
X-7Y279505D01*
X-152Y278407D01*
X-200Y277300D01*
X-200Y242700D01*
X-248Y241593D01*
X-393Y240495D01*
X-633Y239413D01*
X-966Y238356D01*
X-1390Y237333D01*
X-1901Y236350D01*
X-2497Y235416D01*
X-3171Y234537D01*
X-3920Y233720D01*
X-4737Y232971D01*
X-5616Y232297D01*
X-6550Y231701D01*
X-7533Y231190D01*
X-8556Y230766D01*
X-9613Y230433D01*
X-10695Y230193D01*
X-11793Y230048D01*
X-12900Y230000D01*
X-75000Y230000D01*
X-76107Y229952D01*
X-77205Y229807D01*
X-78287Y229567D01*
X-79344Y229234D01*
X-80367Y228810D01*
X-81350Y228299D01*
X-82284Y227703D01*
X-83163Y227029D01*
X-83980Y226280D01*
X-84729Y225463D01*
X-85403Y224584D01*
X-85999Y223650D01*
X-86510Y222667D01*
X-86934Y221644D01*
X-87267Y220587D01*
X-87507Y219505D01*
X-87652Y218407D01*
X-87700Y217300D01*
X-87700Y72700D01*
X-34700Y170000D02*
X-700Y170000D01*
X-700Y194000D01*
X-34700Y194000D01*
X-34700Y170000D01*
X-34700Y96000D02*
X-700Y96000D01*
X-700Y120000D01*
X-34700Y120000D01*
X-34700Y96000D01*
X-8700Y144607D02*
X-8700Y145393D01*
X-8769Y146176D01*
X-8905Y146950D01*
X-9108Y147709D01*
X-9377Y148447D01*
X-9709Y149160D01*
X-10102Y149840D01*
X-10553Y150484D01*
X-11058Y151086D01*
X-11614Y151642D01*
X-12216Y152147D01*
X-12860Y152598D01*
X-13540Y152991D01*
X-14253Y153323D01*
X-14991Y153592D01*
X-15750Y153795D01*
X-16524Y153932D01*
X-17307Y154000D01*
X-18093Y154000D01*
X-18876Y153932D01*
X-19650Y153795D01*
X-20409Y153592D01*
X-21147Y153323D01*
X-21860Y152991D01*
X-22540Y152598D01*
X-23184Y152147D01*
X-23786Y151642D01*
X-24342Y151086D01*
X-24847Y150484D01*
X-25298Y149840D01*
X-25691Y149160D01*
X-26023Y148447D01*
X-26292Y147709D01*
X-26495Y146950D01*
X-26632Y146176D01*
X-26700Y145393D01*
X-26700Y144607D01*
X-26632Y143824D01*
X-26495Y143050D01*
X-26292Y142291D01*
X-26023Y141553D01*
X-25691Y140840D01*
X-25298Y140160D01*
X-24847Y139516D01*
X-24342Y138914D01*
X-23786Y138358D01*
X-23184Y137853D01*
X-22540Y137402D01*
X-21860Y137009D01*
X-21147Y136677D01*
X-20409Y136408D01*
X-19650Y136205D01*
X-18876Y136069D01*
X-18093Y136000D01*
X-17307Y136000D01*
X-16524Y136069D01*
X-15750Y136205D01*
X-14991Y136408D01*
X-14253Y136677D01*
X-13540Y137009D01*
X-12860Y137402D01*
X-12216Y137853D01*
X-11614Y138358D01*
X-11058Y138914D01*
X-10553Y139516D01*
X-10102Y140160D01*
X-9709Y140840D01*
X-9377Y141553D01*
X-9108Y142291D01*
X-8905Y143050D01*
X-8769Y143824D01*
X-8700Y144607D01*
X646050Y143789D02*
X646050Y146211D01*
X645971Y148632D01*
X645812Y151048D01*
X645575Y153458D01*
X645259Y155860D01*
X644864Y158249D01*
X644392Y160624D01*
X643842Y162983D01*
X643215Y165322D01*
X642512Y167640D01*
X641734Y169933D01*
X640881Y172200D01*
X639954Y174437D01*
X638954Y176643D01*
X637883Y178815D01*
X636741Y180951D01*
X635530Y183049D01*
X634252Y185105D01*
X632906Y187119D01*
X631495Y189088D01*
X630021Y191009D01*
X628485Y192881D01*
X626888Y194702D01*
X625232Y196470D01*
X623520Y198182D01*
X621752Y199838D01*
X619931Y201435D01*
X618059Y202971D01*
X616138Y204445D01*
X614169Y205856D01*
X612155Y207202D01*
X610099Y208480D01*
X608001Y209691D01*
X605865Y210833D01*
X603693Y211904D01*
X601487Y212904D01*
X599250Y213831D01*
X596983Y214684D01*
X594690Y215462D01*
X592372Y216165D01*
X590033Y216792D01*
X587674Y217342D01*
X585299Y217814D01*
X582910Y218209D01*
X580508Y218525D01*
X578098Y218762D01*
X575682Y218921D01*
X573261Y219000D01*
X570839Y219000D01*
X568419Y218921D01*
X566002Y218762D01*
X563592Y218525D01*
X561191Y218209D01*
X558801Y217814D01*
X556426Y217342D01*
X554067Y216792D01*
X551728Y216165D01*
X549410Y215462D01*
X547117Y214684D01*
X544850Y213831D01*
X542613Y212904D01*
X540407Y211904D01*
X538235Y210833D01*
X536099Y209691D01*
X534001Y208480D01*
X531945Y207202D01*
X529931Y205856D01*
X527962Y204445D01*
X526041Y202971D01*
X524169Y201435D01*
X522348Y199838D01*
X520580Y198182D01*
X518868Y196470D01*
X517212Y194702D01*
X515615Y192881D01*
X514079Y191009D01*
X512605Y189088D01*
X511194Y187119D01*
X509849Y185105D01*
X508570Y183049D01*
X507359Y180951D01*
X506217Y178815D01*
X505146Y176643D01*
X504146Y174437D01*
X503220Y172200D01*
X502366Y169933D01*
X501588Y167640D01*
X500885Y165322D01*
X500258Y162983D01*
X499708Y160624D01*
X499236Y158249D01*
X498841Y155860D01*
X498525Y153458D01*
X498288Y151048D01*
X498129Y148632D01*
X498050Y146211D01*
X498050Y143789D01*
X498129Y141369D01*
X498288Y138952D01*
X498525Y136542D01*
X498841Y134141D01*
X499236Y131751D01*
X499708Y129376D01*
X500258Y127017D01*
X500885Y124678D01*
X501588Y122360D01*
X502366Y120067D01*
X503220Y117800D01*
X504146Y115563D01*
X505146Y113357D01*
X506217Y111185D01*
X507359Y109049D01*
X508570Y106951D01*
X509849Y104895D01*
X511194Y102881D01*
X512605Y100912D01*
X514079Y98991D01*
X515615Y97119D01*
X517212Y95298D01*
X518868Y93530D01*
X520580Y91818D01*
X522348Y90162D01*
X524169Y88565D01*
X526041Y87029D01*
X527962Y85555D01*
X529931Y84144D01*
X531945Y82799D01*
X534001Y81520D01*
X536099Y80309D01*
X538235Y79167D01*
X540407Y78096D01*
X542613Y77096D01*
X544850Y76170D01*
X547117Y75316D01*
X549410Y74538D01*
X551728Y73835D01*
X554067Y73208D01*
X556426Y72658D01*
X558801Y72186D01*
X561191Y71791D01*
X563592Y71475D01*
X566002Y71238D01*
X568419Y71079D01*
X570839Y71000D01*
X573261Y71000D01*
X575682Y71079D01*
X578098Y71238D01*
X580508Y71475D01*
X582910Y71791D01*
X585299Y72186D01*
X587674Y72658D01*
X590033Y73208D01*
X592372Y73835D01*
X594690Y74538D01*
X596983Y75316D01*
X599250Y76170D01*
X601487Y77096D01*
X603693Y78096D01*
X605865Y79167D01*
X608001Y80309D01*
X610099Y81520D01*
X612155Y82799D01*
X614169Y84144D01*
X616138Y85555D01*
X618059Y87029D01*
X619931Y88565D01*
X621752Y90162D01*
X623520Y91818D01*
X625232Y93530D01*
X626888Y95298D01*
X628485Y97119D01*
X630021Y98991D01*
X631495Y100912D01*
X632906Y102881D01*
X634252Y104895D01*
X635530Y106951D01*
X636741Y109049D01*
X637883Y111185D01*
X638954Y113357D01*
X639954Y115563D01*
X640881Y117800D01*
X641734Y120067D01*
X642512Y122360D01*
X643215Y124678D01*
X643842Y127017D01*
X644392Y129376D01*
X644864Y131751D01*
X645259Y134141D01*
X645575Y136542D01*
X645812Y138952D01*
X645971Y141369D01*
X646050Y143789D01*
X642550Y34759D02*
X642550Y35741D01*
X642473Y36720D01*
X642319Y37691D01*
X642090Y38646D01*
X641786Y39580D01*
X641411Y40487D01*
X640965Y41362D01*
X640451Y42200D01*
X639874Y42995D01*
X639236Y43742D01*
X638542Y44436D01*
X637795Y45074D01*
X637000Y45651D01*
X636162Y46165D01*
X635287Y46611D01*
X634380Y46986D01*
X633446Y47290D01*
X632491Y47519D01*
X631520Y47673D01*
X630541Y47750D01*
X629559Y47750D01*
X628580Y47673D01*
X627610Y47519D01*
X626654Y47290D01*
X625720Y46986D01*
X624813Y46611D01*
X623938Y46165D01*
X623100Y45651D01*
X622305Y45074D01*
X621558Y44436D01*
X620864Y43742D01*
X620226Y42995D01*
X619649Y42200D01*
X619135Y41362D01*
X618689Y40487D01*
X618314Y39580D01*
X618010Y38646D01*
X617781Y37691D01*
X617627Y36720D01*
X617550Y35741D01*
X617550Y34759D01*
X617627Y33780D01*
X617781Y32810D01*
X618010Y31854D01*
X618314Y30920D01*
X618689Y30013D01*
X619135Y29138D01*
X619649Y28300D01*
X620226Y27505D01*
X620864Y26758D01*
X621558Y26064D01*
X622305Y25426D01*
X623100Y24849D01*
X623938Y24335D01*
X624813Y23889D01*
X625720Y23514D01*
X626654Y23210D01*
X627610Y22981D01*
X628580Y22827D01*
X629559Y22750D01*
X630541Y22750D01*
X631520Y22827D01*
X632491Y22981D01*
X633446Y23210D01*
X634380Y23514D01*
X635287Y23889D01*
X636162Y24335D01*
X637000Y24849D01*
X637795Y25426D01*
X638542Y26064D01*
X639236Y26758D01*
X639874Y27505D01*
X640451Y28300D01*
X640965Y29138D01*
X641411Y30013D01*
X641786Y30920D01*
X642090Y31854D01*
X642319Y32810D01*
X642473Y33780D01*
X642550Y34759D01*
X32550Y254759D02*
X32550Y255741D01*
X32473Y256720D01*
X32319Y257691D01*
X32090Y258646D01*
X31786Y259580D01*
X31411Y260487D01*
X30965Y261362D01*
X30451Y262200D01*
X29874Y262995D01*
X29236Y263742D01*
X28542Y264436D01*
X27795Y265074D01*
X27000Y265651D01*
X26162Y266165D01*
X25287Y266611D01*
X24380Y266986D01*
X23446Y267290D01*
X22491Y267519D01*
X21520Y267673D01*
X20541Y267750D01*
X19559Y267750D01*
X18580Y267673D01*
X17610Y267519D01*
X16654Y267290D01*
X15720Y266986D01*
X14813Y266611D01*
X13938Y266165D01*
X13100Y265651D01*
X12305Y265074D01*
X11558Y264436D01*
X10864Y263742D01*
X10226Y262995D01*
X9649Y262200D01*
X9135Y261362D01*
X8689Y260487D01*
X8314Y259580D01*
X8010Y258646D01*
X7781Y257691D01*
X7627Y256720D01*
X7550Y255741D01*
X7550Y254759D01*
X7627Y253780D01*
X7781Y252810D01*
X8010Y251854D01*
X8314Y250920D01*
X8689Y250013D01*
X9135Y249138D01*
X9649Y248300D01*
X10226Y247505D01*
X10864Y246758D01*
X11558Y246064D01*
X12305Y245426D01*
X13100Y244849D01*
X13938Y244335D01*
X14813Y243889D01*
X15720Y243514D01*
X16654Y243210D01*
X17610Y242981D01*
X18580Y242827D01*
X19559Y242750D01*
X20541Y242750D01*
X21520Y242827D01*
X22491Y242981D01*
X23446Y243210D01*
X24380Y243514D01*
X25287Y243889D01*
X26162Y244335D01*
X27000Y244849D01*
X27795Y245426D01*
X28542Y246064D01*
X29236Y246758D01*
X29874Y247505D01*
X30451Y248300D01*
X30965Y249138D01*
X31411Y250013D01*
X31786Y250920D01*
X32090Y251854D01*
X32319Y252810D01*
X32473Y253780D01*
X32550Y254759D01*
X32550Y34759D02*
X32550Y35741D01*
X32473Y36720D01*
X32319Y37691D01*
X32090Y38646D01*
X31786Y39580D01*
X31411Y40487D01*
X30965Y41362D01*
X30451Y42200D01*
X29874Y42995D01*
X29236Y43742D01*
X28542Y44436D01*
X27795Y45074D01*
X27000Y45651D01*
X26162Y46165D01*
X25287Y46611D01*
X24380Y46986D01*
X23446Y47290D01*
X22491Y47519D01*
X21520Y47673D01*
X20541Y47750D01*
X19559Y47750D01*
X18580Y47673D01*
X17610Y47519D01*
X16654Y47290D01*
X15720Y46986D01*
X14813Y46611D01*
X13938Y46165D01*
X13100Y45651D01*
X12305Y45074D01*
X11558Y44436D01*
X10864Y43742D01*
X10226Y42995D01*
X9649Y42200D01*
X9135Y41362D01*
X8689Y40487D01*
X8314Y39580D01*
X8010Y38646D01*
X7781Y37691D01*
X7627Y36720D01*
X7550Y35741D01*
X7550Y34759D01*
X7627Y33780D01*
X7781Y32810D01*
X8010Y31854D01*
X8314Y30920D01*
X8689Y30013D01*
X9135Y29138D01*
X9649Y28300D01*
X10226Y27505D01*
X10864Y26758D01*
X11558Y26064D01*
X12305Y25426D01*
X13100Y24849D01*
X13938Y24335D01*
X14813Y23889D01*
X15720Y23514D01*
X16654Y23210D01*
X17610Y22981D01*
X18580Y22827D01*
X19559Y22750D01*
X20541Y22750D01*
X21520Y22827D01*
X22491Y22981D01*
X23446Y23210D01*
X24380Y23514D01*
X25287Y23889D01*
X26162Y24335D01*
X27000Y24849D01*
X27795Y25426D01*
X28542Y26064D01*
X29236Y26758D01*
X29874Y27505D01*
X30451Y28300D01*
X30965Y29138D01*
X31411Y30013D01*
X31786Y30920D01*
X32090Y31854D01*
X32319Y32810D01*
X32473Y33780D01*
X32550Y34759D01*
X642550Y254759D02*
X642550Y255741D01*
X642473Y256720D01*
X642319Y257691D01*
X642090Y258646D01*
X641786Y259580D01*
X641411Y260487D01*
X640965Y261362D01*
X640451Y262200D01*
X639874Y262995D01*
X639236Y263742D01*
X638542Y264436D01*
X637795Y265074D01*
X637000Y265651D01*
X636162Y266165D01*
X635287Y266611D01*
X634380Y266986D01*
X633446Y267290D01*
X632491Y267519D01*
X631520Y267673D01*
X630541Y267750D01*
X629559Y267750D01*
X628580Y267673D01*
X627610Y267519D01*
X626654Y267290D01*
X625720Y266986D01*
X624813Y266611D01*
X623938Y266165D01*
X623100Y265651D01*
X622305Y265074D01*
X621558Y264436D01*
X620864Y263742D01*
X620226Y262995D01*
X619649Y262200D01*
X619135Y261362D01*
X618689Y260487D01*
X618314Y259580D01*
X618010Y258646D01*
X617781Y257691D01*
X617627Y256720D01*
X617550Y255741D01*
X617550Y254759D01*
X617627Y253780D01*
X617781Y252810D01*
X618010Y251854D01*
X618314Y250920D01*
X618689Y250013D01*
X619135Y249138D01*
X619649Y248300D01*
X620226Y247505D01*
X620864Y246758D01*
X621558Y246064D01*
X622305Y245426D01*
X623100Y244849D01*
X623938Y244335D01*
X624813Y243889D01*
X625720Y243514D01*
X626654Y243210D01*
X627610Y242981D01*
X628580Y242827D01*
X629559Y242750D01*
X630541Y242750D01*
X631520Y242827D01*
X632491Y242981D01*
X633446Y243210D01*
X634380Y243514D01*
X635287Y243889D01*
X636162Y244335D01*
X637000Y244849D01*
X637795Y245426D01*
X638542Y246064D01*
X639236Y246758D01*
X639874Y247505D01*
X640451Y248300D01*
X640965Y249138D01*
X641411Y250013D01*
X641786Y250920D01*
X642090Y251854D01*
X642319Y252810D01*
X642473Y253780D01*
X642550Y254759D01*
M02*
