G04 EAGLE Gerber X2 export*
%TF.Part,Single*%
%TF.FileFunction,Copper,L1,Top,Mixed*%
%TF.FilePolarity,Positive*%
%TF.GenerationSoftware,Autodesk,EAGLE,9.1.0*%
%TF.CreationDate,2020-06-24T00:00:20Z*%
G75*
%MOMM*%
%FSLAX34Y34*%
%LPD*%
%AMOC8*
5,1,8,0,0,1.08239X$1,22.5*%
G01*
%ADD10R,1.050000X0.600000*%
%ADD11R,1.600000X0.800000*%
%ADD12R,3.000000X2.100000*%
%ADD13C,1.524000*%
%ADD14R,1.680000X1.160000*%
%ADD15R,1.160000X1.680000*%
%ADD16C,1.000000*%
%ADD17C,4.000000*%
%ADD18C,2.000000*%
%ADD19C,0.500000*%
%ADD20C,1.500000*%
%ADD21C,1.000000*%

G36*
X82079Y27428D02*
X82079Y27428D01*
X82216Y27431D01*
X82301Y27448D01*
X82388Y27456D01*
X82520Y27492D01*
X82654Y27519D01*
X82735Y27551D01*
X82819Y27574D01*
X82942Y27633D01*
X83069Y27684D01*
X83143Y27730D01*
X83221Y27767D01*
X83332Y27848D01*
X83448Y27920D01*
X83513Y27978D01*
X83583Y28029D01*
X83678Y28128D01*
X83779Y28220D01*
X83832Y28289D01*
X83893Y28351D01*
X83968Y28465D01*
X84052Y28574D01*
X84092Y28651D01*
X84140Y28723D01*
X84194Y28849D01*
X84257Y28971D01*
X84282Y29054D01*
X84317Y29134D01*
X84348Y29267D01*
X84388Y29398D01*
X84398Y29484D01*
X84418Y29569D01*
X84425Y29705D01*
X84441Y29841D01*
X84436Y29928D01*
X84440Y30015D01*
X84423Y30150D01*
X84414Y30287D01*
X84394Y30372D01*
X84383Y30458D01*
X84341Y30588D01*
X84309Y30721D01*
X84273Y30800D01*
X84247Y30883D01*
X84183Y31004D01*
X84127Y31129D01*
X84078Y31201D01*
X84038Y31278D01*
X83953Y31386D01*
X83876Y31499D01*
X83785Y31600D01*
X83762Y31629D01*
X83744Y31645D01*
X83710Y31682D01*
X83641Y31751D01*
X82499Y34508D01*
X82499Y37492D01*
X83641Y40249D01*
X85751Y42359D01*
X88508Y43501D01*
X91492Y43501D01*
X94249Y42359D01*
X94375Y42233D01*
X94518Y42113D01*
X94658Y41989D01*
X94689Y41970D01*
X94718Y41946D01*
X94880Y41854D01*
X95039Y41757D01*
X95074Y41744D01*
X95106Y41726D01*
X95282Y41664D01*
X95456Y41597D01*
X95493Y41590D01*
X95527Y41577D01*
X95712Y41548D01*
X95895Y41513D01*
X95945Y41510D01*
X95969Y41507D01*
X96006Y41508D01*
X96142Y41501D01*
X521334Y41501D01*
X521423Y41509D01*
X521512Y41507D01*
X521645Y41529D01*
X521778Y41541D01*
X521865Y41564D01*
X521953Y41579D01*
X522080Y41624D01*
X522209Y41659D01*
X522290Y41698D01*
X522374Y41728D01*
X522491Y41794D01*
X522612Y41852D01*
X522684Y41905D01*
X522762Y41949D01*
X522865Y42036D01*
X522974Y42114D01*
X523036Y42179D01*
X523104Y42236D01*
X523270Y42420D01*
X545212Y69317D01*
X545222Y69331D01*
X545233Y69343D01*
X545346Y69515D01*
X545463Y69687D01*
X545469Y69702D01*
X545479Y69717D01*
X545545Y69857D01*
X546041Y70353D01*
X546043Y70355D01*
X546045Y70357D01*
X546211Y70541D01*
X546658Y71089D01*
X546776Y71169D01*
X546948Y71283D01*
X546961Y71295D01*
X546975Y71304D01*
X547090Y71409D01*
X547738Y71677D01*
X547740Y71678D01*
X547743Y71679D01*
X547966Y71785D01*
X548589Y72120D01*
X548729Y72150D01*
X548932Y72189D01*
X548948Y72195D01*
X548964Y72198D01*
X549111Y72251D01*
X549812Y72251D01*
X549815Y72251D01*
X549817Y72251D01*
X550065Y72263D01*
X550768Y72335D01*
X550910Y72308D01*
X551111Y72267D01*
X551128Y72266D01*
X551145Y72263D01*
X551392Y72251D01*
X564000Y72251D01*
X564050Y72255D01*
X564100Y72253D01*
X564272Y72275D01*
X564445Y72291D01*
X564493Y72304D01*
X564543Y72310D01*
X564708Y72363D01*
X564876Y72409D01*
X564921Y72431D01*
X564968Y72446D01*
X565122Y72527D01*
X565278Y72602D01*
X565319Y72632D01*
X565363Y72655D01*
X565500Y72762D01*
X565640Y72864D01*
X565675Y72900D01*
X565714Y72931D01*
X565830Y73061D01*
X565950Y73186D01*
X565977Y73228D01*
X566011Y73266D01*
X566101Y73414D01*
X566197Y73558D01*
X566217Y73604D01*
X566243Y73647D01*
X566305Y73809D01*
X566374Y73969D01*
X566385Y74017D01*
X566403Y74064D01*
X566436Y74235D01*
X566475Y74404D01*
X566478Y74454D01*
X566487Y74503D01*
X566499Y74750D01*
X566499Y122500D01*
X566495Y122550D01*
X566497Y122600D01*
X566475Y122772D01*
X566459Y122945D01*
X566446Y122993D01*
X566440Y123043D01*
X566387Y123208D01*
X566341Y123376D01*
X566319Y123421D01*
X566304Y123468D01*
X566223Y123622D01*
X566148Y123778D01*
X566118Y123819D01*
X566095Y123863D01*
X565988Y124000D01*
X565886Y124140D01*
X565850Y124175D01*
X565819Y124214D01*
X565689Y124330D01*
X565564Y124450D01*
X565522Y124477D01*
X565484Y124511D01*
X565336Y124601D01*
X565192Y124697D01*
X565146Y124717D01*
X565103Y124743D01*
X564941Y124805D01*
X564781Y124874D01*
X564733Y124885D01*
X564686Y124903D01*
X564515Y124936D01*
X564346Y124975D01*
X564296Y124978D01*
X564247Y124987D01*
X564000Y124999D01*
X553911Y124999D01*
X550052Y126598D01*
X547098Y129552D01*
X545553Y133281D01*
X545510Y133363D01*
X545476Y133450D01*
X545407Y133561D01*
X545346Y133676D01*
X545289Y133750D01*
X545239Y133830D01*
X545152Y133926D01*
X545072Y134029D01*
X545002Y134091D01*
X544940Y134161D01*
X544836Y134240D01*
X544739Y134327D01*
X544660Y134376D01*
X544586Y134433D01*
X544470Y134493D01*
X544359Y134561D01*
X544272Y134595D01*
X544189Y134638D01*
X544064Y134676D01*
X543943Y134724D01*
X543851Y134742D01*
X543762Y134769D01*
X543632Y134785D01*
X543505Y134810D01*
X543411Y134811D01*
X543318Y134822D01*
X543188Y134814D01*
X543058Y134816D01*
X542966Y134801D01*
X542872Y134796D01*
X542746Y134765D01*
X542617Y134743D01*
X542529Y134712D01*
X542438Y134690D01*
X542319Y134637D01*
X542197Y134593D01*
X542115Y134546D01*
X542030Y134509D01*
X541922Y134435D01*
X541809Y134370D01*
X541738Y134310D01*
X541661Y134257D01*
X541477Y134091D01*
X541364Y133978D01*
X536586Y131999D01*
X507355Y131999D01*
X507169Y131983D01*
X506983Y131971D01*
X506947Y131963D01*
X506910Y131959D01*
X506730Y131910D01*
X506549Y131866D01*
X506516Y131851D01*
X506480Y131841D01*
X506311Y131760D01*
X506141Y131684D01*
X506110Y131664D01*
X506077Y131648D01*
X505926Y131538D01*
X505772Y131433D01*
X505734Y131399D01*
X505715Y131386D01*
X505690Y131359D01*
X505588Y131267D01*
X500246Y125925D01*
X491976Y122499D01*
X483024Y122499D01*
X474754Y125925D01*
X468425Y132254D01*
X464999Y140524D01*
X464999Y149476D01*
X468425Y157746D01*
X474754Y164075D01*
X483024Y167501D01*
X491976Y167501D01*
X500246Y164075D01*
X505588Y158733D01*
X505731Y158613D01*
X505871Y158489D01*
X505903Y158470D01*
X505931Y158446D01*
X506093Y158354D01*
X506252Y158257D01*
X506287Y158244D01*
X506319Y158226D01*
X506495Y158164D01*
X506669Y158097D01*
X506706Y158090D01*
X506741Y158077D01*
X506925Y158048D01*
X507108Y158013D01*
X507159Y158010D01*
X507182Y158007D01*
X507219Y158008D01*
X507355Y158001D01*
X536586Y158001D01*
X541364Y156022D01*
X543943Y153443D01*
X544048Y153355D01*
X544146Y153261D01*
X544219Y153212D01*
X544286Y153157D01*
X544404Y153089D01*
X544518Y153013D01*
X544598Y152979D01*
X544674Y152936D01*
X544803Y152890D01*
X544929Y152836D01*
X545013Y152817D01*
X545095Y152788D01*
X545231Y152766D01*
X545364Y152735D01*
X545450Y152731D01*
X545536Y152717D01*
X545673Y152720D01*
X545810Y152713D01*
X545896Y152724D01*
X545983Y152726D01*
X546117Y152753D01*
X546253Y152771D01*
X546336Y152797D01*
X546421Y152814D01*
X546548Y152865D01*
X546678Y152906D01*
X546755Y152947D01*
X546836Y152979D01*
X546952Y153051D01*
X547073Y153115D01*
X547141Y153169D01*
X547215Y153215D01*
X547317Y153307D01*
X547424Y153392D01*
X547482Y153457D01*
X547546Y153515D01*
X547630Y153623D01*
X547721Y153726D01*
X547766Y153800D01*
X547819Y153869D01*
X547882Y153991D01*
X547953Y154107D01*
X547984Y154189D01*
X548024Y154266D01*
X548064Y154397D01*
X548113Y154524D01*
X548130Y154610D01*
X548155Y154693D01*
X548171Y154828D01*
X548197Y154963D01*
X548204Y155100D01*
X548208Y155136D01*
X548207Y155160D01*
X548209Y155210D01*
X548209Y157834D01*
X548382Y158481D01*
X548717Y159060D01*
X549190Y159533D01*
X549769Y159868D01*
X550416Y160041D01*
X553501Y160041D01*
X553501Y154500D01*
X553505Y154450D01*
X553503Y154401D01*
X553525Y154229D01*
X553540Y154055D01*
X553554Y154007D01*
X553560Y153958D01*
X553613Y153792D01*
X553659Y153625D01*
X553681Y153580D01*
X553696Y153532D01*
X553777Y153379D01*
X553852Y153222D01*
X553882Y153181D01*
X553905Y153137D01*
X554012Y153001D01*
X554114Y152860D01*
X554115Y152860D01*
X554150Y152825D01*
X554181Y152786D01*
X554182Y152786D01*
X554312Y152670D01*
X554437Y152550D01*
X554478Y152522D01*
X554516Y152489D01*
X554664Y152399D01*
X554809Y152303D01*
X554855Y152283D01*
X554897Y152257D01*
X555060Y152195D01*
X555219Y152126D01*
X555267Y152115D01*
X555314Y152097D01*
X555485Y152064D01*
X555654Y152025D01*
X555704Y152022D01*
X555753Y152013D01*
X556000Y152001D01*
X563791Y152001D01*
X563791Y151166D01*
X563618Y150519D01*
X563173Y149750D01*
X563159Y149719D01*
X563141Y149692D01*
X563065Y149517D01*
X562985Y149344D01*
X562977Y149312D01*
X562964Y149281D01*
X562921Y149097D01*
X562873Y148912D01*
X562870Y148879D01*
X562862Y148846D01*
X562853Y148657D01*
X562839Y148467D01*
X562842Y148433D01*
X562840Y148400D01*
X562865Y148212D01*
X562884Y148022D01*
X562894Y147990D01*
X562898Y147957D01*
X562956Y147776D01*
X563009Y147593D01*
X563023Y147563D01*
X563034Y147532D01*
X563122Y147364D01*
X563207Y147193D01*
X563227Y147166D01*
X563243Y147137D01*
X563360Y146988D01*
X563474Y146835D01*
X563498Y146812D01*
X563519Y146786D01*
X563661Y146660D01*
X563800Y146530D01*
X563828Y146512D01*
X563853Y146489D01*
X564016Y146390D01*
X564175Y146287D01*
X564206Y146275D01*
X564235Y146257D01*
X564412Y146189D01*
X564588Y146116D01*
X564620Y146109D01*
X564652Y146097D01*
X564839Y146061D01*
X565024Y146020D01*
X565058Y146019D01*
X565090Y146013D01*
X565338Y146001D01*
X576589Y146001D01*
X580448Y144402D01*
X583754Y141097D01*
X585902Y138948D01*
X587501Y135089D01*
X587501Y76021D01*
X587517Y75835D01*
X587529Y75649D01*
X587537Y75613D01*
X587541Y75576D01*
X587590Y75396D01*
X587634Y75215D01*
X587649Y75181D01*
X587659Y75145D01*
X587740Y74977D01*
X587816Y74807D01*
X587836Y74776D01*
X587852Y74743D01*
X587962Y74592D01*
X588067Y74437D01*
X588101Y74400D01*
X588114Y74381D01*
X588141Y74355D01*
X588233Y74254D01*
X588901Y73586D01*
X588901Y59914D01*
X587436Y58449D01*
X585333Y58449D01*
X585273Y58444D01*
X585212Y58446D01*
X585050Y58424D01*
X584888Y58409D01*
X584829Y58393D01*
X584770Y58385D01*
X584615Y58334D01*
X584457Y58291D01*
X584403Y58265D01*
X584345Y58246D01*
X584123Y58137D01*
X581256Y56551D01*
X577105Y56081D01*
X575859Y56439D01*
X575856Y56440D01*
X575854Y56441D01*
X575631Y56483D01*
X575420Y56524D01*
X575417Y56524D01*
X575415Y56525D01*
X575168Y56537D01*
X574911Y56537D01*
X573659Y57056D01*
X573643Y57061D01*
X573627Y57068D01*
X573393Y57149D01*
X572090Y57523D01*
X571890Y57683D01*
X571888Y57684D01*
X571886Y57686D01*
X571698Y57809D01*
X571517Y57929D01*
X571515Y57930D01*
X571512Y57931D01*
X571289Y58037D01*
X570754Y58259D01*
X570617Y58302D01*
X570483Y58353D01*
X570404Y58368D01*
X570327Y58392D01*
X570185Y58410D01*
X570044Y58437D01*
X569921Y58443D01*
X569884Y58448D01*
X569857Y58446D01*
X569797Y58449D01*
X568564Y58449D01*
X566496Y60517D01*
X566353Y60637D01*
X566213Y60761D01*
X566182Y60780D01*
X566153Y60804D01*
X565991Y60896D01*
X565832Y60993D01*
X565797Y61006D01*
X565765Y61024D01*
X565589Y61086D01*
X565415Y61153D01*
X565379Y61160D01*
X565344Y61173D01*
X565159Y61202D01*
X564976Y61237D01*
X564926Y61240D01*
X564903Y61243D01*
X564866Y61242D01*
X564729Y61249D01*
X554015Y61249D01*
X553926Y61241D01*
X553836Y61243D01*
X553704Y61221D01*
X553570Y61209D01*
X553484Y61186D01*
X553396Y61171D01*
X553269Y61126D01*
X553140Y61091D01*
X553059Y61052D01*
X552974Y61022D01*
X552858Y60956D01*
X552737Y60898D01*
X552664Y60845D01*
X552587Y60801D01*
X552484Y60714D01*
X552375Y60636D01*
X552313Y60571D01*
X552244Y60514D01*
X552079Y60330D01*
X530136Y33433D01*
X530127Y33419D01*
X530115Y33407D01*
X530002Y33235D01*
X529886Y33063D01*
X529879Y33048D01*
X529870Y33033D01*
X529803Y32893D01*
X529307Y32397D01*
X529306Y32395D01*
X529304Y32393D01*
X529138Y32209D01*
X528555Y31495D01*
X528549Y31486D01*
X528542Y31479D01*
X528424Y31301D01*
X528305Y31125D01*
X528301Y31115D01*
X528295Y31107D01*
X528210Y30910D01*
X528124Y30716D01*
X528122Y30706D01*
X528118Y30696D01*
X528070Y30490D01*
X528020Y30282D01*
X528019Y30271D01*
X528017Y30261D01*
X528006Y30050D01*
X527994Y29836D01*
X527995Y29826D01*
X527995Y29815D01*
X528022Y29605D01*
X528048Y29393D01*
X528051Y29383D01*
X528052Y29372D01*
X528117Y29170D01*
X528180Y28966D01*
X528185Y28957D01*
X528188Y28947D01*
X528287Y28759D01*
X528386Y28569D01*
X528392Y28561D01*
X528397Y28552D01*
X528529Y28384D01*
X528659Y28216D01*
X528667Y28209D01*
X528673Y28201D01*
X528833Y28059D01*
X528991Y27917D01*
X528999Y27911D01*
X529007Y27904D01*
X529189Y27794D01*
X529370Y27682D01*
X529380Y27678D01*
X529389Y27672D01*
X529587Y27596D01*
X529786Y27518D01*
X529796Y27516D01*
X529806Y27512D01*
X530016Y27472D01*
X530224Y27430D01*
X530234Y27430D01*
X530245Y27428D01*
X530492Y27416D01*
X564794Y27416D01*
X564946Y27429D01*
X565100Y27435D01*
X565168Y27449D01*
X565238Y27456D01*
X565386Y27496D01*
X565536Y27529D01*
X565601Y27555D01*
X565669Y27574D01*
X565808Y27641D01*
X565949Y27699D01*
X566008Y27737D01*
X566072Y27767D01*
X566196Y27857D01*
X566325Y27940D01*
X566377Y27988D01*
X566434Y28029D01*
X566540Y28140D01*
X566652Y28244D01*
X566695Y28301D01*
X566743Y28351D01*
X566828Y28479D01*
X566920Y28602D01*
X566952Y28665D01*
X566990Y28723D01*
X567051Y28864D01*
X567120Y29002D01*
X567140Y29069D01*
X567167Y29134D01*
X567202Y29283D01*
X567245Y29430D01*
X567253Y29500D01*
X567269Y29569D01*
X567276Y29722D01*
X567292Y29874D01*
X567287Y29945D01*
X567291Y30015D01*
X567271Y30167D01*
X567260Y30320D01*
X567238Y30422D01*
X567233Y30458D01*
X567224Y30488D01*
X567208Y30562D01*
X567059Y31115D01*
X567059Y34351D01*
X577600Y34351D01*
X577650Y34355D01*
X577700Y34353D01*
X577871Y34375D01*
X578002Y34387D01*
X578054Y34375D01*
X578104Y34372D01*
X578153Y34363D01*
X578400Y34351D01*
X588941Y34351D01*
X588941Y31115D01*
X588792Y30562D01*
X588766Y30411D01*
X588731Y30261D01*
X588728Y30191D01*
X588716Y30122D01*
X588717Y29968D01*
X588709Y29815D01*
X588718Y29746D01*
X588719Y29675D01*
X588747Y29524D01*
X588767Y29372D01*
X588788Y29305D01*
X588801Y29236D01*
X588856Y29093D01*
X588902Y28947D01*
X588935Y28884D01*
X588960Y28819D01*
X589040Y28688D01*
X589112Y28552D01*
X589155Y28496D01*
X589191Y28436D01*
X589293Y28322D01*
X589388Y28201D01*
X589440Y28154D01*
X589487Y28101D01*
X589607Y28006D01*
X589722Y27904D01*
X589782Y27868D01*
X589837Y27824D01*
X589972Y27752D01*
X590104Y27672D01*
X590169Y27647D01*
X590231Y27614D01*
X590377Y27567D01*
X590520Y27512D01*
X590590Y27499D01*
X590656Y27477D01*
X590809Y27457D01*
X590959Y27428D01*
X591063Y27423D01*
X591099Y27418D01*
X591130Y27420D01*
X591206Y27416D01*
X676750Y27416D01*
X676800Y27420D01*
X676850Y27418D01*
X677022Y27440D01*
X677195Y27456D01*
X677243Y27469D01*
X677293Y27475D01*
X677458Y27528D01*
X677626Y27574D01*
X677671Y27596D01*
X677718Y27611D01*
X677872Y27692D01*
X678028Y27767D01*
X678069Y27797D01*
X678113Y27820D01*
X678250Y27927D01*
X678390Y28029D01*
X678425Y28065D01*
X678464Y28096D01*
X678580Y28226D01*
X678700Y28351D01*
X678727Y28393D01*
X678761Y28431D01*
X678851Y28579D01*
X678947Y28723D01*
X678967Y28769D01*
X678993Y28812D01*
X679055Y28974D01*
X679124Y29134D01*
X679135Y29182D01*
X679153Y29229D01*
X679186Y29400D01*
X679225Y29569D01*
X679228Y29619D01*
X679237Y29668D01*
X679249Y29915D01*
X679249Y127344D01*
X680087Y129366D01*
X681634Y130913D01*
X683656Y131751D01*
X697000Y131751D01*
X697050Y131755D01*
X697100Y131753D01*
X697272Y131775D01*
X697445Y131791D01*
X697493Y131804D01*
X697543Y131810D01*
X697708Y131863D01*
X697876Y131909D01*
X697921Y131931D01*
X697968Y131946D01*
X698122Y132027D01*
X698278Y132102D01*
X698319Y132132D01*
X698363Y132155D01*
X698500Y132262D01*
X698640Y132364D01*
X698675Y132400D01*
X698714Y132431D01*
X698830Y132561D01*
X698950Y132686D01*
X698977Y132728D01*
X699011Y132766D01*
X699101Y132914D01*
X699197Y133058D01*
X699217Y133104D01*
X699243Y133147D01*
X699305Y133309D01*
X699374Y133469D01*
X699385Y133517D01*
X699403Y133564D01*
X699436Y133735D01*
X699475Y133904D01*
X699478Y133954D01*
X699487Y134003D01*
X699499Y134250D01*
X699499Y144076D01*
X699544Y144221D01*
X699601Y144385D01*
X699609Y144435D01*
X699624Y144483D01*
X699645Y144655D01*
X699672Y144826D01*
X699671Y144876D01*
X699677Y144926D01*
X699667Y145099D01*
X699663Y145273D01*
X699653Y145322D01*
X699650Y145372D01*
X699609Y145541D01*
X699575Y145711D01*
X699556Y145757D01*
X699545Y145806D01*
X699499Y145908D01*
X699499Y156400D01*
X699507Y156414D01*
X699597Y156558D01*
X699617Y156608D01*
X699644Y156654D01*
X699700Y156815D01*
X699763Y156973D01*
X699774Y157025D01*
X699792Y157076D01*
X699819Y157244D01*
X699853Y157410D01*
X699854Y157464D01*
X699863Y157517D01*
X699859Y157687D01*
X699863Y157857D01*
X699855Y157910D01*
X699854Y157963D01*
X699820Y158130D01*
X699794Y158298D01*
X699776Y158349D01*
X699765Y158401D01*
X699703Y158559D01*
X699647Y158720D01*
X699644Y158725D01*
X699459Y159416D01*
X699459Y161251D01*
X710000Y161251D01*
X720541Y161251D01*
X720541Y159250D01*
X720545Y159200D01*
X720543Y159150D01*
X720565Y158978D01*
X720581Y158805D01*
X720594Y158757D01*
X720600Y158707D01*
X720653Y158542D01*
X720699Y158374D01*
X720721Y158329D01*
X720736Y158282D01*
X720817Y158128D01*
X720892Y157972D01*
X720922Y157931D01*
X720945Y157887D01*
X721052Y157750D01*
X721154Y157610D01*
X721190Y157575D01*
X721221Y157536D01*
X721351Y157420D01*
X721476Y157300D01*
X721518Y157273D01*
X721556Y157239D01*
X721704Y157149D01*
X721848Y157053D01*
X721894Y157033D01*
X721937Y157007D01*
X722099Y156945D01*
X722259Y156876D01*
X722307Y156865D01*
X722354Y156847D01*
X722525Y156814D01*
X722694Y156775D01*
X722744Y156772D01*
X722793Y156763D01*
X723040Y156751D01*
X726608Y156751D01*
X726744Y156763D01*
X726881Y156766D01*
X726966Y156783D01*
X727053Y156791D01*
X727185Y156827D01*
X727319Y156854D01*
X727400Y156886D01*
X727484Y156909D01*
X727607Y156969D01*
X727734Y157019D01*
X727808Y157065D01*
X727886Y157102D01*
X727997Y157183D01*
X728114Y157255D01*
X728178Y157313D01*
X728248Y157364D01*
X728343Y157463D01*
X728445Y157555D01*
X728498Y157624D01*
X728558Y157686D01*
X728633Y157801D01*
X728717Y157909D01*
X728757Y157986D01*
X728805Y158058D01*
X728859Y158184D01*
X728922Y158306D01*
X728948Y158389D01*
X728982Y158469D01*
X729013Y158602D01*
X729053Y158733D01*
X729063Y158819D01*
X729083Y158904D01*
X729090Y159040D01*
X729106Y159177D01*
X729101Y159263D01*
X729105Y159350D01*
X729087Y159486D01*
X729079Y159622D01*
X729059Y159707D01*
X729048Y159793D01*
X729006Y159923D01*
X728973Y160056D01*
X728938Y160136D01*
X728912Y160218D01*
X728848Y160339D01*
X728792Y160465D01*
X728743Y160536D01*
X728703Y160613D01*
X728694Y160625D01*
X727499Y163508D01*
X727499Y166492D01*
X728641Y169249D01*
X730751Y171359D01*
X733508Y172501D01*
X736492Y172501D01*
X739249Y171359D01*
X741359Y169249D01*
X742501Y166492D01*
X742501Y163508D01*
X741296Y160600D01*
X741271Y160556D01*
X741195Y160442D01*
X741161Y160362D01*
X741118Y160286D01*
X741072Y160157D01*
X741018Y160031D01*
X740999Y159947D01*
X740970Y159865D01*
X740948Y159730D01*
X740917Y159596D01*
X740913Y159510D01*
X740899Y159424D01*
X740902Y159287D01*
X740895Y159150D01*
X740906Y159064D01*
X740908Y158977D01*
X740935Y158843D01*
X740952Y158707D01*
X740979Y158624D01*
X740996Y158540D01*
X741047Y158412D01*
X741088Y158282D01*
X741129Y158205D01*
X741161Y158124D01*
X741233Y158008D01*
X741297Y157887D01*
X741351Y157819D01*
X741397Y157745D01*
X741489Y157644D01*
X741573Y157536D01*
X741638Y157478D01*
X741697Y157414D01*
X741805Y157330D01*
X741908Y157239D01*
X741982Y157194D01*
X742050Y157141D01*
X742172Y157078D01*
X742289Y157007D01*
X742370Y156976D01*
X742447Y156936D01*
X742578Y156896D01*
X742706Y156847D01*
X742791Y156830D01*
X742874Y156805D01*
X743010Y156789D01*
X743145Y156763D01*
X743281Y156756D01*
X743318Y156752D01*
X743341Y156753D01*
X743392Y156751D01*
X752000Y156751D01*
X752050Y156755D01*
X752100Y156753D01*
X752272Y156775D01*
X752445Y156791D01*
X752493Y156804D01*
X752543Y156810D01*
X752708Y156863D01*
X752876Y156909D01*
X752921Y156931D01*
X752968Y156946D01*
X753122Y157027D01*
X753278Y157102D01*
X753319Y157132D01*
X753363Y157155D01*
X753500Y157262D01*
X753640Y157364D01*
X753675Y157400D01*
X753714Y157431D01*
X753830Y157561D01*
X753950Y157686D01*
X753977Y157728D01*
X754011Y157766D01*
X754101Y157914D01*
X754197Y158058D01*
X754217Y158104D01*
X754243Y158147D01*
X754305Y158309D01*
X754374Y158469D01*
X754385Y158517D01*
X754403Y158564D01*
X754436Y158735D01*
X754475Y158904D01*
X754478Y158954D01*
X754487Y159003D01*
X754499Y159250D01*
X754499Y186250D01*
X754495Y186300D01*
X754497Y186350D01*
X754475Y186522D01*
X754459Y186695D01*
X754446Y186743D01*
X754440Y186793D01*
X754387Y186958D01*
X754341Y187126D01*
X754319Y187171D01*
X754304Y187218D01*
X754223Y187372D01*
X754148Y187528D01*
X754118Y187569D01*
X754095Y187613D01*
X753988Y187750D01*
X753886Y187890D01*
X753850Y187925D01*
X753819Y187964D01*
X753689Y188080D01*
X753564Y188200D01*
X753522Y188227D01*
X753484Y188261D01*
X753336Y188351D01*
X753192Y188447D01*
X753146Y188467D01*
X753103Y188493D01*
X752941Y188555D01*
X752781Y188624D01*
X752733Y188635D01*
X752686Y188653D01*
X752515Y188686D01*
X752346Y188725D01*
X752296Y188728D01*
X752247Y188737D01*
X752000Y188749D01*
X722964Y188749D01*
X721499Y190214D01*
X721499Y213286D01*
X722964Y214751D01*
X752000Y214751D01*
X752050Y214755D01*
X752100Y214753D01*
X752272Y214775D01*
X752445Y214791D01*
X752493Y214804D01*
X752543Y214810D01*
X752708Y214863D01*
X752876Y214909D01*
X752921Y214931D01*
X752968Y214946D01*
X753122Y215027D01*
X753278Y215102D01*
X753319Y215132D01*
X753363Y215155D01*
X753500Y215262D01*
X753640Y215364D01*
X753675Y215400D01*
X753714Y215431D01*
X753830Y215561D01*
X753950Y215686D01*
X753977Y215728D01*
X754011Y215766D01*
X754101Y215914D01*
X754197Y216058D01*
X754217Y216104D01*
X754243Y216147D01*
X754305Y216309D01*
X754374Y216469D01*
X754385Y216517D01*
X754403Y216564D01*
X754436Y216735D01*
X754475Y216904D01*
X754478Y216954D01*
X754487Y217003D01*
X754499Y217250D01*
X754499Y267000D01*
X754495Y267050D01*
X754497Y267100D01*
X754475Y267272D01*
X754459Y267445D01*
X754446Y267493D01*
X754440Y267543D01*
X754387Y267708D01*
X754341Y267876D01*
X754319Y267921D01*
X754304Y267968D01*
X754223Y268122D01*
X754148Y268278D01*
X754118Y268319D01*
X754095Y268363D01*
X753988Y268500D01*
X753886Y268640D01*
X753850Y268675D01*
X753819Y268714D01*
X753689Y268830D01*
X753564Y268950D01*
X753522Y268977D01*
X753484Y269011D01*
X753336Y269101D01*
X753192Y269197D01*
X753146Y269217D01*
X753103Y269243D01*
X752941Y269305D01*
X752781Y269374D01*
X752733Y269385D01*
X752686Y269403D01*
X752515Y269436D01*
X752346Y269475D01*
X752296Y269478D01*
X752247Y269487D01*
X752000Y269499D01*
X693885Y269499D01*
X693748Y269487D01*
X693612Y269484D01*
X693527Y269467D01*
X693440Y269459D01*
X693308Y269423D01*
X693174Y269396D01*
X693093Y269364D01*
X693009Y269341D01*
X692886Y269282D01*
X692759Y269231D01*
X692685Y269185D01*
X692606Y269148D01*
X692495Y269067D01*
X692379Y268995D01*
X692315Y268937D01*
X692245Y268886D01*
X692150Y268787D01*
X692048Y268695D01*
X691995Y268626D01*
X691935Y268564D01*
X691859Y268450D01*
X691776Y268341D01*
X691736Y268264D01*
X691688Y268192D01*
X691634Y268066D01*
X691571Y267944D01*
X691545Y267861D01*
X691511Y267781D01*
X691480Y267648D01*
X691440Y267517D01*
X691429Y267431D01*
X691410Y267346D01*
X691403Y267210D01*
X691387Y267074D01*
X691392Y266987D01*
X691387Y266900D01*
X691405Y266765D01*
X691413Y266628D01*
X691434Y266543D01*
X691445Y266457D01*
X691487Y266327D01*
X691519Y266194D01*
X691554Y266115D01*
X691581Y266032D01*
X691645Y265911D01*
X691700Y265786D01*
X691749Y265714D01*
X691790Y265637D01*
X691875Y265529D01*
X691951Y265416D01*
X692043Y265315D01*
X692066Y265286D01*
X692084Y265270D01*
X692118Y265233D01*
X693902Y263448D01*
X695501Y259589D01*
X695501Y186750D01*
X695505Y186700D01*
X695503Y186650D01*
X695525Y186478D01*
X695541Y186305D01*
X695554Y186257D01*
X695560Y186207D01*
X695613Y186042D01*
X695659Y185874D01*
X695681Y185829D01*
X695696Y185782D01*
X695777Y185628D01*
X695852Y185472D01*
X695882Y185431D01*
X695905Y185387D01*
X696012Y185250D01*
X696114Y185110D01*
X696150Y185075D01*
X696181Y185036D01*
X696311Y184920D01*
X696436Y184800D01*
X696478Y184773D01*
X696516Y184739D01*
X696664Y184649D01*
X696808Y184553D01*
X696854Y184533D01*
X696897Y184507D01*
X697059Y184445D01*
X697219Y184376D01*
X697267Y184365D01*
X697314Y184347D01*
X697485Y184314D01*
X697654Y184275D01*
X697704Y184272D01*
X697753Y184263D01*
X698000Y184251D01*
X711591Y184251D01*
X714753Y182941D01*
X714890Y182898D01*
X715024Y182847D01*
X715103Y182832D01*
X715180Y182808D01*
X715322Y182790D01*
X715463Y182763D01*
X715586Y182757D01*
X715623Y182752D01*
X715650Y182754D01*
X715710Y182751D01*
X719036Y182751D01*
X720501Y181286D01*
X720501Y171100D01*
X720493Y171086D01*
X720403Y170942D01*
X720383Y170892D01*
X720356Y170846D01*
X720300Y170685D01*
X720237Y170527D01*
X720226Y170475D01*
X720208Y170424D01*
X720181Y170256D01*
X720147Y170090D01*
X720146Y170036D01*
X720137Y169983D01*
X720141Y169813D01*
X720137Y169643D01*
X720145Y169590D01*
X720146Y169537D01*
X720180Y169370D01*
X720206Y169202D01*
X720224Y169151D01*
X720235Y169099D01*
X720297Y168941D01*
X720353Y168780D01*
X720356Y168775D01*
X720541Y168084D01*
X720541Y166249D01*
X710000Y166249D01*
X699405Y166249D01*
X699400Y166293D01*
X699347Y166458D01*
X699301Y166626D01*
X699279Y166671D01*
X699264Y166718D01*
X699183Y166872D01*
X699108Y167028D01*
X699078Y167069D01*
X699055Y167113D01*
X698948Y167250D01*
X698846Y167390D01*
X698810Y167425D01*
X698779Y167464D01*
X698649Y167580D01*
X698524Y167700D01*
X698482Y167727D01*
X698444Y167761D01*
X698296Y167851D01*
X698152Y167947D01*
X698106Y167967D01*
X698063Y167993D01*
X697901Y168055D01*
X697741Y168124D01*
X697693Y168135D01*
X697646Y168153D01*
X697475Y168186D01*
X697306Y168225D01*
X697256Y168228D01*
X697207Y168237D01*
X696960Y168249D01*
X692885Y168249D01*
X692699Y168233D01*
X692513Y168221D01*
X692477Y168213D01*
X692440Y168209D01*
X692260Y168160D01*
X692079Y168116D01*
X692045Y168101D01*
X692009Y168091D01*
X691841Y168010D01*
X691670Y167934D01*
X691640Y167914D01*
X691606Y167898D01*
X691455Y167788D01*
X691301Y167683D01*
X691264Y167649D01*
X691245Y167636D01*
X691219Y167609D01*
X691117Y167517D01*
X690948Y167348D01*
X687089Y165749D01*
X682911Y165749D01*
X679052Y167348D01*
X677132Y169267D01*
X677027Y169355D01*
X676929Y169450D01*
X676856Y169498D01*
X676789Y169554D01*
X676670Y169621D01*
X676557Y169697D01*
X676477Y169732D01*
X676401Y169775D01*
X676272Y169820D01*
X676146Y169874D01*
X676062Y169894D01*
X675980Y169923D01*
X675844Y169944D01*
X675711Y169975D01*
X675625Y169980D01*
X675539Y169993D01*
X675402Y169991D01*
X675265Y169998D01*
X675179Y169986D01*
X675092Y169985D01*
X674958Y169958D01*
X674822Y169940D01*
X674739Y169913D01*
X674654Y169896D01*
X674527Y169846D01*
X674397Y169804D01*
X674320Y169764D01*
X674239Y169731D01*
X674123Y169659D01*
X674002Y169595D01*
X673934Y169541D01*
X673860Y169495D01*
X673758Y169404D01*
X673651Y169319D01*
X673593Y169254D01*
X673529Y169196D01*
X673445Y169087D01*
X673354Y168985D01*
X673309Y168910D01*
X673256Y168842D01*
X673193Y168720D01*
X673122Y168603D01*
X673091Y168522D01*
X673051Y168445D01*
X673028Y168369D01*
X671318Y164242D01*
X668458Y161382D01*
X664722Y159834D01*
X662705Y159834D01*
X662579Y159823D01*
X662453Y159822D01*
X662358Y159803D01*
X662260Y159794D01*
X662138Y159761D01*
X662015Y159737D01*
X661924Y159702D01*
X661829Y159676D01*
X661716Y159621D01*
X661598Y159576D01*
X661515Y159525D01*
X661427Y159483D01*
X661324Y159409D01*
X661217Y159343D01*
X661144Y159278D01*
X661065Y159221D01*
X660977Y159130D01*
X660883Y159046D01*
X660823Y158969D01*
X660755Y158899D01*
X660686Y158794D01*
X660608Y158694D01*
X660562Y158608D01*
X660508Y158527D01*
X660458Y158411D01*
X660399Y158299D01*
X660370Y158206D01*
X660331Y158116D01*
X660303Y157994D01*
X660265Y157873D01*
X660252Y157776D01*
X660230Y157681D01*
X660224Y157556D01*
X660208Y157430D01*
X660213Y157333D01*
X660208Y157235D01*
X660224Y157110D01*
X660231Y156984D01*
X660253Y156889D01*
X660266Y156792D01*
X660304Y156672D01*
X660333Y156549D01*
X660391Y156398D01*
X660401Y156367D01*
X660409Y156351D01*
X660422Y156318D01*
X663692Y148973D01*
X663692Y141027D01*
X660422Y133682D01*
X660381Y133562D01*
X660331Y133446D01*
X660309Y133351D01*
X660277Y133259D01*
X660259Y133134D01*
X660230Y133011D01*
X660225Y132914D01*
X660210Y132817D01*
X660214Y132691D01*
X660208Y132565D01*
X660220Y132469D01*
X660223Y132371D01*
X660249Y132247D01*
X660266Y132122D01*
X660295Y132029D01*
X660315Y131934D01*
X660363Y131817D01*
X660401Y131697D01*
X660447Y131610D01*
X660484Y131520D01*
X660551Y131413D01*
X660610Y131302D01*
X660671Y131225D01*
X660723Y131143D01*
X660808Y131050D01*
X660886Y130951D01*
X660960Y130886D01*
X661026Y130814D01*
X661126Y130738D01*
X661221Y130654D01*
X661304Y130604D01*
X661382Y130545D01*
X661495Y130488D01*
X661602Y130422D01*
X661693Y130387D01*
X661781Y130343D01*
X661901Y130307D01*
X662019Y130262D01*
X662115Y130243D01*
X662209Y130216D01*
X662334Y130202D01*
X662458Y130178D01*
X662619Y130170D01*
X662653Y130166D01*
X662670Y130167D01*
X662705Y130166D01*
X664722Y130166D01*
X668458Y128618D01*
X671318Y125758D01*
X672866Y122022D01*
X672866Y93978D01*
X671318Y90242D01*
X668458Y87382D01*
X664722Y85834D01*
X626678Y85834D01*
X622942Y87382D01*
X620082Y90242D01*
X618534Y93978D01*
X618534Y122022D01*
X620082Y125758D01*
X622942Y128618D01*
X626678Y130166D01*
X627768Y130166D01*
X627931Y130180D01*
X628095Y130187D01*
X628153Y130200D01*
X628213Y130206D01*
X628371Y130249D01*
X628531Y130285D01*
X628586Y130308D01*
X628643Y130324D01*
X628791Y130395D01*
X628942Y130459D01*
X628992Y130492D01*
X629046Y130517D01*
X629179Y130614D01*
X629316Y130703D01*
X629360Y130744D01*
X629408Y130779D01*
X629522Y130898D01*
X629641Y131010D01*
X629676Y131058D01*
X629717Y131101D01*
X629808Y131238D01*
X629905Y131370D01*
X629932Y131424D01*
X629965Y131473D01*
X630030Y131624D01*
X630102Y131771D01*
X630118Y131829D01*
X630142Y131884D01*
X630179Y132043D01*
X630224Y132201D01*
X630229Y132261D01*
X630243Y132319D01*
X630251Y132482D01*
X630267Y132646D01*
X630262Y132705D01*
X630265Y132765D01*
X630244Y132927D01*
X630230Y133091D01*
X630215Y133149D01*
X630207Y133208D01*
X630157Y133364D01*
X630115Y133523D01*
X630090Y133577D01*
X630072Y133633D01*
X629995Y133778D01*
X629925Y133927D01*
X629878Y133998D01*
X629863Y134028D01*
X629841Y134056D01*
X629790Y134134D01*
X627542Y137227D01*
X625890Y145000D01*
X627542Y152773D01*
X629790Y155866D01*
X629874Y156007D01*
X629965Y156143D01*
X629988Y156198D01*
X630019Y156249D01*
X630077Y156403D01*
X630142Y156554D01*
X630155Y156612D01*
X630176Y156667D01*
X630206Y156829D01*
X630243Y156989D01*
X630246Y157048D01*
X630257Y157107D01*
X630257Y157271D01*
X630265Y157435D01*
X630257Y157494D01*
X630257Y157554D01*
X630228Y157715D01*
X630207Y157878D01*
X630189Y157935D01*
X630179Y157993D01*
X630122Y158147D01*
X630072Y158303D01*
X630044Y158356D01*
X630023Y158412D01*
X629939Y158553D01*
X629863Y158698D01*
X629826Y158745D01*
X629795Y158796D01*
X629688Y158920D01*
X629586Y159049D01*
X629542Y159089D01*
X629503Y159134D01*
X629375Y159237D01*
X629252Y159346D01*
X629201Y159377D01*
X629155Y159414D01*
X629011Y159493D01*
X628871Y159578D01*
X628815Y159599D01*
X628763Y159628D01*
X628607Y159679D01*
X628454Y159738D01*
X628395Y159749D01*
X628339Y159768D01*
X628176Y159791D01*
X628015Y159822D01*
X627929Y159826D01*
X627896Y159831D01*
X627861Y159830D01*
X627768Y159834D01*
X626678Y159834D01*
X622942Y161382D01*
X620082Y164242D01*
X618534Y167978D01*
X618534Y196022D01*
X620082Y199758D01*
X622942Y202618D01*
X626678Y204166D01*
X664722Y204166D01*
X668458Y202618D01*
X670233Y200844D01*
X670338Y200756D01*
X670436Y200661D01*
X670509Y200613D01*
X670576Y200557D01*
X670695Y200490D01*
X670808Y200414D01*
X670888Y200380D01*
X670964Y200337D01*
X671093Y200291D01*
X671219Y200237D01*
X671303Y200217D01*
X671385Y200188D01*
X671521Y200167D01*
X671654Y200136D01*
X671740Y200132D01*
X671826Y200118D01*
X671963Y200120D01*
X672100Y200114D01*
X672186Y200125D01*
X672273Y200127D01*
X672407Y200154D01*
X672543Y200171D01*
X672626Y200198D01*
X672711Y200215D01*
X672838Y200265D01*
X672968Y200307D01*
X673045Y200348D01*
X673126Y200380D01*
X673242Y200452D01*
X673363Y200516D01*
X673431Y200570D01*
X673505Y200616D01*
X673607Y200708D01*
X673714Y200792D01*
X673772Y200857D01*
X673836Y200916D01*
X673920Y201024D01*
X674011Y201126D01*
X674056Y201201D01*
X674109Y201270D01*
X674172Y201391D01*
X674243Y201508D01*
X674274Y201589D01*
X674314Y201667D01*
X674354Y201797D01*
X674403Y201925D01*
X674420Y202011D01*
X674445Y202094D01*
X674461Y202229D01*
X674487Y202364D01*
X674494Y202500D01*
X674498Y202537D01*
X674497Y202561D01*
X674499Y202611D01*
X674499Y244500D01*
X674495Y244550D01*
X674497Y244600D01*
X674475Y244772D01*
X674459Y244945D01*
X674446Y244993D01*
X674440Y245043D01*
X674387Y245208D01*
X674341Y245376D01*
X674319Y245421D01*
X674304Y245468D01*
X674223Y245622D01*
X674148Y245778D01*
X674118Y245819D01*
X674095Y245863D01*
X673988Y246000D01*
X673886Y246140D01*
X673850Y246175D01*
X673819Y246214D01*
X673689Y246330D01*
X673564Y246450D01*
X673522Y246477D01*
X673484Y246511D01*
X673336Y246601D01*
X673192Y246697D01*
X673146Y246717D01*
X673103Y246743D01*
X672941Y246805D01*
X672781Y246874D01*
X672733Y246885D01*
X672686Y246903D01*
X672515Y246936D01*
X672346Y246975D01*
X672296Y246978D01*
X672247Y246987D01*
X672000Y246999D01*
X283000Y246999D01*
X282950Y246995D01*
X282900Y246997D01*
X282728Y246975D01*
X282555Y246959D01*
X282507Y246946D01*
X282457Y246940D01*
X282292Y246887D01*
X282124Y246841D01*
X282079Y246819D01*
X282032Y246804D01*
X281878Y246723D01*
X281722Y246648D01*
X281681Y246618D01*
X281637Y246595D01*
X281500Y246488D01*
X281360Y246386D01*
X281325Y246350D01*
X281286Y246319D01*
X281170Y246189D01*
X281050Y246064D01*
X281023Y246022D01*
X280989Y245984D01*
X280899Y245836D01*
X280803Y245692D01*
X280783Y245646D01*
X280757Y245603D01*
X280695Y245441D01*
X280626Y245281D01*
X280615Y245233D01*
X280597Y245186D01*
X280564Y245015D01*
X280525Y244846D01*
X280522Y244796D01*
X280513Y244747D01*
X280501Y244500D01*
X280501Y207911D01*
X278902Y204052D01*
X275948Y201098D01*
X272089Y199499D01*
X267911Y199499D01*
X264052Y201098D01*
X261098Y204052D01*
X259499Y207911D01*
X259499Y244500D01*
X259495Y244550D01*
X259497Y244600D01*
X259475Y244772D01*
X259459Y244945D01*
X259446Y244993D01*
X259440Y245043D01*
X259387Y245208D01*
X259341Y245376D01*
X259319Y245421D01*
X259304Y245468D01*
X259223Y245622D01*
X259148Y245778D01*
X259118Y245819D01*
X259095Y245863D01*
X258988Y246000D01*
X258886Y246140D01*
X258850Y246175D01*
X258819Y246214D01*
X258689Y246330D01*
X258564Y246450D01*
X258522Y246477D01*
X258484Y246511D01*
X258336Y246601D01*
X258192Y246697D01*
X258146Y246717D01*
X258103Y246743D01*
X257941Y246805D01*
X257781Y246874D01*
X257733Y246885D01*
X257686Y246903D01*
X257515Y246936D01*
X257346Y246975D01*
X257296Y246978D01*
X257247Y246987D01*
X257000Y246999D01*
X159000Y246999D01*
X158950Y246995D01*
X158900Y246997D01*
X158728Y246975D01*
X158555Y246959D01*
X158507Y246946D01*
X158457Y246940D01*
X158292Y246887D01*
X158124Y246841D01*
X158079Y246819D01*
X158032Y246804D01*
X157878Y246723D01*
X157722Y246648D01*
X157681Y246618D01*
X157637Y246595D01*
X157500Y246488D01*
X157360Y246386D01*
X157325Y246350D01*
X157286Y246319D01*
X157170Y246189D01*
X157050Y246064D01*
X157023Y246022D01*
X156989Y245984D01*
X156899Y245836D01*
X156803Y245692D01*
X156783Y245646D01*
X156757Y245603D01*
X156695Y245441D01*
X156626Y245281D01*
X156615Y245233D01*
X156597Y245186D01*
X156564Y245015D01*
X156525Y244846D01*
X156522Y244796D01*
X156513Y244747D01*
X156501Y244500D01*
X156501Y205762D01*
X156509Y205669D01*
X156508Y205575D01*
X156529Y205447D01*
X156541Y205317D01*
X156565Y205226D01*
X156581Y205134D01*
X156625Y205012D01*
X156659Y204886D01*
X156700Y204802D01*
X156731Y204714D01*
X156796Y204601D01*
X156852Y204483D01*
X156907Y204407D01*
X156954Y204327D01*
X157038Y204227D01*
X157114Y204121D01*
X157182Y204057D01*
X157242Y203985D01*
X157342Y203902D01*
X157436Y203812D01*
X157514Y203760D01*
X157586Y203701D01*
X157700Y203637D01*
X157808Y203565D01*
X157894Y203528D01*
X157976Y203482D01*
X158099Y203439D01*
X158219Y203388D01*
X158309Y203367D01*
X158398Y203336D01*
X158527Y203316D01*
X158654Y203287D01*
X158747Y203282D01*
X158839Y203268D01*
X158970Y203271D01*
X159100Y203264D01*
X159192Y203276D01*
X159286Y203279D01*
X159414Y203305D01*
X159543Y203322D01*
X159632Y203350D01*
X159723Y203369D01*
X159956Y203453D01*
X161678Y204166D01*
X199722Y204166D01*
X203458Y202618D01*
X206318Y199758D01*
X207866Y196022D01*
X207866Y167978D01*
X206318Y164242D01*
X203458Y161382D01*
X199722Y159834D01*
X197705Y159834D01*
X197579Y159823D01*
X197453Y159822D01*
X197358Y159803D01*
X197260Y159794D01*
X197138Y159761D01*
X197015Y159737D01*
X196924Y159702D01*
X196829Y159676D01*
X196716Y159621D01*
X196598Y159576D01*
X196515Y159525D01*
X196427Y159483D01*
X196324Y159409D01*
X196217Y159343D01*
X196144Y159278D01*
X196065Y159221D01*
X195977Y159130D01*
X195883Y159046D01*
X195823Y158969D01*
X195755Y158899D01*
X195686Y158794D01*
X195608Y158694D01*
X195562Y158608D01*
X195508Y158527D01*
X195458Y158411D01*
X195399Y158299D01*
X195370Y158206D01*
X195331Y158116D01*
X195303Y157994D01*
X195265Y157873D01*
X195252Y157776D01*
X195230Y157681D01*
X195224Y157556D01*
X195208Y157430D01*
X195213Y157333D01*
X195208Y157235D01*
X195224Y157110D01*
X195231Y156984D01*
X195253Y156889D01*
X195266Y156792D01*
X195304Y156672D01*
X195333Y156549D01*
X195391Y156398D01*
X195401Y156367D01*
X195409Y156351D01*
X195422Y156318D01*
X198692Y148973D01*
X198692Y141027D01*
X195422Y133682D01*
X195381Y133562D01*
X195331Y133446D01*
X195309Y133351D01*
X195277Y133259D01*
X195259Y133134D01*
X195230Y133011D01*
X195225Y132914D01*
X195210Y132817D01*
X195214Y132691D01*
X195208Y132565D01*
X195220Y132469D01*
X195223Y132371D01*
X195249Y132247D01*
X195266Y132122D01*
X195295Y132029D01*
X195315Y131934D01*
X195363Y131817D01*
X195401Y131697D01*
X195447Y131610D01*
X195484Y131520D01*
X195551Y131413D01*
X195610Y131302D01*
X195671Y131225D01*
X195723Y131143D01*
X195808Y131050D01*
X195886Y130951D01*
X195960Y130886D01*
X196026Y130814D01*
X196126Y130738D01*
X196221Y130654D01*
X196304Y130604D01*
X196382Y130545D01*
X196495Y130488D01*
X196602Y130422D01*
X196693Y130387D01*
X196781Y130343D01*
X196901Y130307D01*
X197019Y130262D01*
X197115Y130243D01*
X197209Y130216D01*
X197334Y130202D01*
X197458Y130178D01*
X197619Y130170D01*
X197653Y130166D01*
X197670Y130167D01*
X197705Y130166D01*
X199722Y130166D01*
X203458Y128618D01*
X206318Y125758D01*
X207866Y122022D01*
X207866Y93978D01*
X206318Y90242D01*
X205844Y89767D01*
X205756Y89662D01*
X205661Y89564D01*
X205613Y89491D01*
X205557Y89424D01*
X205490Y89306D01*
X205414Y89192D01*
X205380Y89112D01*
X205337Y89036D01*
X205291Y88907D01*
X205237Y88781D01*
X205217Y88697D01*
X205188Y88615D01*
X205167Y88480D01*
X205136Y88346D01*
X205132Y88260D01*
X205118Y88174D01*
X205120Y88037D01*
X205114Y87900D01*
X205125Y87814D01*
X205127Y87727D01*
X205154Y87593D01*
X205171Y87457D01*
X205198Y87374D01*
X205215Y87289D01*
X205265Y87162D01*
X205307Y87032D01*
X205348Y86955D01*
X205380Y86874D01*
X205452Y86758D01*
X205516Y86637D01*
X205570Y86568D01*
X205616Y86495D01*
X205708Y86393D01*
X205792Y86286D01*
X205857Y86228D01*
X205916Y86164D01*
X206024Y86080D01*
X206126Y85989D01*
X206201Y85944D01*
X206270Y85891D01*
X206391Y85828D01*
X206508Y85757D01*
X206589Y85726D01*
X206666Y85686D01*
X206797Y85646D01*
X206925Y85597D01*
X207011Y85580D01*
X207094Y85555D01*
X207229Y85539D01*
X207364Y85513D01*
X207500Y85506D01*
X207537Y85502D01*
X207560Y85503D01*
X207611Y85501D01*
X212000Y85501D01*
X212050Y85505D01*
X212100Y85503D01*
X212272Y85525D01*
X212445Y85541D01*
X212493Y85554D01*
X212543Y85560D01*
X212708Y85613D01*
X212876Y85659D01*
X212921Y85681D01*
X212968Y85696D01*
X213122Y85777D01*
X213278Y85852D01*
X213319Y85882D01*
X213363Y85905D01*
X213500Y86012D01*
X213640Y86114D01*
X213675Y86150D01*
X213714Y86181D01*
X213830Y86311D01*
X213950Y86436D01*
X213977Y86478D01*
X214011Y86516D01*
X214101Y86664D01*
X214197Y86808D01*
X214217Y86854D01*
X214243Y86897D01*
X214305Y87059D01*
X214374Y87219D01*
X214385Y87267D01*
X214403Y87314D01*
X214436Y87485D01*
X214475Y87654D01*
X214478Y87704D01*
X214487Y87753D01*
X214499Y88000D01*
X214499Y146094D01*
X215337Y148116D01*
X216884Y149663D01*
X218906Y150501D01*
X223533Y150501D01*
X223719Y150517D01*
X223905Y150529D01*
X223941Y150537D01*
X223978Y150541D01*
X224158Y150590D01*
X224339Y150634D01*
X224373Y150649D01*
X224408Y150659D01*
X224577Y150740D01*
X224747Y150816D01*
X224777Y150836D01*
X224811Y150852D01*
X224963Y150962D01*
X225116Y151067D01*
X225154Y151100D01*
X225173Y151114D01*
X225199Y151141D01*
X225300Y151233D01*
X227647Y153580D01*
X231367Y155121D01*
X250633Y155121D01*
X254353Y153580D01*
X257200Y150733D01*
X258741Y147013D01*
X258741Y142987D01*
X257200Y139267D01*
X254353Y136420D01*
X250633Y134879D01*
X231367Y134879D01*
X228956Y135878D01*
X228867Y135906D01*
X228781Y135943D01*
X228655Y135972D01*
X228530Y136011D01*
X228437Y136023D01*
X228346Y136044D01*
X228216Y136050D01*
X228087Y136066D01*
X227993Y136061D01*
X227900Y136066D01*
X227771Y136049D01*
X227641Y136042D01*
X227550Y136020D01*
X227457Y136008D01*
X227333Y135969D01*
X227206Y135939D01*
X227121Y135901D01*
X227032Y135873D01*
X226916Y135812D01*
X226797Y135759D01*
X226720Y135707D01*
X226637Y135664D01*
X226534Y135583D01*
X226426Y135510D01*
X226359Y135445D01*
X226286Y135387D01*
X226199Y135290D01*
X226106Y135199D01*
X226051Y135123D01*
X225989Y135053D01*
X225922Y134942D01*
X225846Y134836D01*
X225806Y134751D01*
X225757Y134672D01*
X225710Y134550D01*
X225655Y134432D01*
X225630Y134342D01*
X225597Y134255D01*
X225572Y134126D01*
X225538Y134001D01*
X225531Y133908D01*
X225513Y133816D01*
X225501Y133569D01*
X225501Y131031D01*
X225509Y130938D01*
X225508Y130845D01*
X225529Y130716D01*
X225541Y130586D01*
X225565Y130496D01*
X225581Y130404D01*
X225625Y130281D01*
X225659Y130156D01*
X225700Y130071D01*
X225731Y129983D01*
X225796Y129871D01*
X225852Y129753D01*
X225907Y129677D01*
X225954Y129596D01*
X226038Y129497D01*
X226114Y129391D01*
X226182Y129326D01*
X226242Y129255D01*
X226342Y129172D01*
X226436Y129082D01*
X226514Y129030D01*
X226586Y128970D01*
X226700Y128906D01*
X226808Y128834D01*
X226894Y128797D01*
X226976Y128752D01*
X227099Y128709D01*
X227219Y128657D01*
X227309Y128636D01*
X227398Y128606D01*
X227527Y128586D01*
X227654Y128556D01*
X227747Y128552D01*
X227839Y128537D01*
X227970Y128540D01*
X228100Y128534D01*
X228192Y128546D01*
X228286Y128548D01*
X228414Y128575D01*
X228543Y128592D01*
X228632Y128620D01*
X228723Y128639D01*
X228956Y128722D01*
X231367Y129721D01*
X250633Y129721D01*
X254353Y128180D01*
X257200Y125333D01*
X258741Y121613D01*
X258741Y117587D01*
X257200Y113867D01*
X254353Y111020D01*
X250633Y109479D01*
X231367Y109479D01*
X228956Y110478D01*
X228867Y110506D01*
X228781Y110543D01*
X228655Y110572D01*
X228530Y110611D01*
X228437Y110623D01*
X228346Y110644D01*
X228216Y110650D01*
X228087Y110666D01*
X227993Y110661D01*
X227900Y110666D01*
X227771Y110649D01*
X227641Y110642D01*
X227550Y110620D01*
X227457Y110608D01*
X227333Y110569D01*
X227206Y110539D01*
X227121Y110501D01*
X227032Y110473D01*
X226916Y110412D01*
X226797Y110359D01*
X226720Y110307D01*
X226637Y110264D01*
X226534Y110183D01*
X226426Y110110D01*
X226359Y110045D01*
X226286Y109987D01*
X226199Y109890D01*
X226106Y109799D01*
X226051Y109723D01*
X225989Y109653D01*
X225922Y109542D01*
X225846Y109436D01*
X225806Y109351D01*
X225757Y109272D01*
X225710Y109150D01*
X225655Y109032D01*
X225630Y108942D01*
X225597Y108855D01*
X225572Y108726D01*
X225538Y108601D01*
X225531Y108508D01*
X225513Y108416D01*
X225501Y108169D01*
X225501Y88000D01*
X225505Y87950D01*
X225503Y87900D01*
X225525Y87728D01*
X225541Y87555D01*
X225554Y87507D01*
X225560Y87457D01*
X225613Y87292D01*
X225659Y87124D01*
X225681Y87079D01*
X225696Y87032D01*
X225777Y86878D01*
X225852Y86722D01*
X225882Y86681D01*
X225905Y86637D01*
X226012Y86500D01*
X226114Y86360D01*
X226150Y86325D01*
X226181Y86286D01*
X226311Y86170D01*
X226436Y86050D01*
X226478Y86023D01*
X226516Y85989D01*
X226664Y85899D01*
X226808Y85803D01*
X226854Y85783D01*
X226897Y85757D01*
X227059Y85695D01*
X227219Y85626D01*
X227267Y85615D01*
X227314Y85597D01*
X227485Y85564D01*
X227654Y85525D01*
X227704Y85522D01*
X227753Y85513D01*
X228000Y85501D01*
X264450Y85501D01*
X264500Y85505D01*
X264550Y85503D01*
X264722Y85525D01*
X264895Y85541D01*
X264943Y85554D01*
X264993Y85560D01*
X265158Y85613D01*
X265326Y85659D01*
X265371Y85681D01*
X265418Y85696D01*
X265572Y85777D01*
X265728Y85852D01*
X265769Y85882D01*
X265813Y85905D01*
X265950Y86012D01*
X266090Y86114D01*
X266125Y86150D01*
X266164Y86181D01*
X266280Y86311D01*
X266400Y86436D01*
X266427Y86478D01*
X266461Y86516D01*
X266551Y86664D01*
X266647Y86808D01*
X266667Y86854D01*
X266693Y86897D01*
X266755Y87059D01*
X266824Y87219D01*
X266835Y87267D01*
X266853Y87314D01*
X266886Y87485D01*
X266925Y87654D01*
X266928Y87704D01*
X266937Y87753D01*
X266949Y88000D01*
X266949Y89436D01*
X268414Y90901D01*
X282086Y90901D01*
X283551Y89436D01*
X283551Y70564D01*
X282086Y69099D01*
X268414Y69099D01*
X266949Y70564D01*
X266949Y72000D01*
X266945Y72050D01*
X266947Y72100D01*
X266925Y72272D01*
X266909Y72445D01*
X266896Y72493D01*
X266890Y72543D01*
X266837Y72708D01*
X266791Y72876D01*
X266769Y72921D01*
X266754Y72968D01*
X266673Y73122D01*
X266598Y73278D01*
X266568Y73319D01*
X266545Y73363D01*
X266438Y73500D01*
X266336Y73640D01*
X266300Y73675D01*
X266269Y73714D01*
X266139Y73830D01*
X266014Y73950D01*
X265972Y73977D01*
X265934Y74011D01*
X265786Y74101D01*
X265642Y74197D01*
X265596Y74217D01*
X265553Y74243D01*
X265391Y74305D01*
X265231Y74374D01*
X265183Y74385D01*
X265136Y74403D01*
X264965Y74436D01*
X264796Y74475D01*
X264746Y74478D01*
X264697Y74487D01*
X264450Y74499D01*
X148906Y74499D01*
X146884Y75337D01*
X145337Y76884D01*
X144499Y78906D01*
X144499Y93250D01*
X144495Y93300D01*
X144497Y93350D01*
X144475Y93522D01*
X144459Y93695D01*
X144446Y93743D01*
X144440Y93793D01*
X144387Y93958D01*
X144341Y94126D01*
X144319Y94171D01*
X144304Y94218D01*
X144223Y94372D01*
X144148Y94528D01*
X144118Y94569D01*
X144095Y94613D01*
X143988Y94750D01*
X143886Y94890D01*
X143850Y94925D01*
X143819Y94964D01*
X143689Y95080D01*
X143564Y95200D01*
X143522Y95227D01*
X143484Y95261D01*
X143336Y95351D01*
X143192Y95447D01*
X143146Y95467D01*
X143103Y95493D01*
X142941Y95555D01*
X142781Y95624D01*
X142733Y95635D01*
X142686Y95653D01*
X142515Y95686D01*
X142346Y95725D01*
X142296Y95728D01*
X142247Y95737D01*
X142000Y95749D01*
X141111Y95749D01*
X140925Y95733D01*
X140739Y95721D01*
X140703Y95713D01*
X140666Y95709D01*
X140486Y95660D01*
X140305Y95616D01*
X140271Y95601D01*
X140235Y95591D01*
X140067Y95510D01*
X139897Y95434D01*
X139866Y95414D01*
X139833Y95398D01*
X139681Y95288D01*
X139527Y95183D01*
X139490Y95149D01*
X139471Y95136D01*
X139445Y95109D01*
X139344Y95017D01*
X139076Y94749D01*
X121004Y94749D01*
X119539Y96214D01*
X119539Y105750D01*
X119535Y105800D01*
X119537Y105850D01*
X119515Y106022D01*
X119499Y106195D01*
X119486Y106243D01*
X119480Y106293D01*
X119427Y106458D01*
X119381Y106626D01*
X119359Y106671D01*
X119344Y106718D01*
X119263Y106872D01*
X119188Y107028D01*
X119158Y107069D01*
X119135Y107113D01*
X119028Y107250D01*
X118926Y107390D01*
X118890Y107425D01*
X118859Y107464D01*
X118729Y107580D01*
X118604Y107700D01*
X118562Y107727D01*
X118524Y107761D01*
X118376Y107851D01*
X118232Y107947D01*
X118186Y107967D01*
X118143Y107993D01*
X117981Y108055D01*
X117821Y108124D01*
X117773Y108135D01*
X117726Y108153D01*
X117555Y108186D01*
X117386Y108225D01*
X117336Y108228D01*
X117287Y108237D01*
X117040Y108249D01*
X77250Y108249D01*
X77200Y108245D01*
X77150Y108247D01*
X76978Y108225D01*
X76805Y108209D01*
X76757Y108196D01*
X76707Y108190D01*
X76542Y108137D01*
X76374Y108091D01*
X76329Y108069D01*
X76282Y108054D01*
X76128Y107973D01*
X75972Y107898D01*
X75931Y107868D01*
X75887Y107845D01*
X75750Y107738D01*
X75610Y107636D01*
X75575Y107600D01*
X75536Y107569D01*
X75420Y107439D01*
X75300Y107314D01*
X75273Y107272D01*
X75239Y107234D01*
X75149Y107086D01*
X75053Y106942D01*
X75033Y106896D01*
X75007Y106853D01*
X74945Y106691D01*
X74876Y106531D01*
X74865Y106483D01*
X74847Y106436D01*
X74814Y106265D01*
X74775Y106096D01*
X74772Y106046D01*
X74763Y105997D01*
X74751Y105750D01*
X74751Y29915D01*
X74755Y29865D01*
X74753Y29815D01*
X74775Y29643D01*
X74791Y29470D01*
X74804Y29422D01*
X74810Y29372D01*
X74863Y29207D01*
X74909Y29039D01*
X74931Y28994D01*
X74946Y28947D01*
X75027Y28793D01*
X75102Y28637D01*
X75132Y28596D01*
X75155Y28552D01*
X75262Y28415D01*
X75364Y28275D01*
X75400Y28240D01*
X75431Y28201D01*
X75561Y28085D01*
X75686Y27965D01*
X75728Y27938D01*
X75766Y27904D01*
X75914Y27814D01*
X76058Y27718D01*
X76104Y27698D01*
X76147Y27672D01*
X76309Y27610D01*
X76469Y27541D01*
X76517Y27530D01*
X76564Y27512D01*
X76735Y27479D01*
X76904Y27440D01*
X76954Y27437D01*
X77003Y27428D01*
X77250Y27416D01*
X81943Y27416D01*
X82079Y27428D01*
G37*
G36*
X151042Y106470D02*
X151042Y106470D01*
X151135Y106465D01*
X151264Y106482D01*
X151394Y106489D01*
X151485Y106511D01*
X151578Y106523D01*
X151702Y106563D01*
X151829Y106593D01*
X151914Y106630D01*
X152003Y106659D01*
X152118Y106720D01*
X152238Y106772D01*
X152316Y106824D01*
X152398Y106868D01*
X152500Y106948D01*
X152609Y107021D01*
X152676Y107086D01*
X152749Y107144D01*
X152836Y107241D01*
X152929Y107332D01*
X152984Y107408D01*
X153046Y107478D01*
X153113Y107589D01*
X153189Y107695D01*
X153229Y107780D01*
X153278Y107860D01*
X153325Y107981D01*
X153380Y108099D01*
X153405Y108189D01*
X153438Y108277D01*
X153463Y108405D01*
X153497Y108530D01*
X153504Y108624D01*
X153522Y108715D01*
X153534Y108963D01*
X153534Y122022D01*
X155082Y125758D01*
X157942Y128618D01*
X161678Y130166D01*
X162768Y130166D01*
X162931Y130180D01*
X163095Y130187D01*
X163153Y130200D01*
X163213Y130206D01*
X163371Y130249D01*
X163531Y130285D01*
X163586Y130308D01*
X163643Y130324D01*
X163791Y130395D01*
X163942Y130459D01*
X163992Y130492D01*
X164046Y130517D01*
X164179Y130614D01*
X164316Y130703D01*
X164360Y130744D01*
X164408Y130779D01*
X164522Y130898D01*
X164641Y131010D01*
X164676Y131058D01*
X164717Y131101D01*
X164808Y131238D01*
X164905Y131370D01*
X164932Y131424D01*
X164965Y131473D01*
X165030Y131624D01*
X165102Y131771D01*
X165118Y131829D01*
X165142Y131884D01*
X165179Y132043D01*
X165224Y132201D01*
X165229Y132261D01*
X165243Y132319D01*
X165251Y132482D01*
X165267Y132646D01*
X165262Y132705D01*
X165265Y132765D01*
X165244Y132927D01*
X165230Y133091D01*
X165215Y133149D01*
X165207Y133208D01*
X165157Y133364D01*
X165115Y133523D01*
X165090Y133577D01*
X165072Y133633D01*
X164995Y133778D01*
X164925Y133927D01*
X164878Y133998D01*
X164863Y134028D01*
X164841Y134056D01*
X164790Y134134D01*
X162542Y137227D01*
X160890Y145000D01*
X162542Y152773D01*
X164790Y155866D01*
X164874Y156007D01*
X164965Y156143D01*
X164988Y156198D01*
X165019Y156249D01*
X165077Y156403D01*
X165142Y156554D01*
X165155Y156612D01*
X165176Y156667D01*
X165206Y156829D01*
X165243Y156989D01*
X165246Y157048D01*
X165257Y157107D01*
X165257Y157271D01*
X165265Y157435D01*
X165257Y157494D01*
X165257Y157554D01*
X165228Y157715D01*
X165207Y157878D01*
X165189Y157935D01*
X165179Y157993D01*
X165122Y158147D01*
X165072Y158303D01*
X165044Y158356D01*
X165023Y158412D01*
X164939Y158553D01*
X164863Y158698D01*
X164826Y158745D01*
X164795Y158796D01*
X164688Y158920D01*
X164586Y159049D01*
X164542Y159089D01*
X164503Y159134D01*
X164375Y159237D01*
X164252Y159346D01*
X164201Y159377D01*
X164155Y159414D01*
X164011Y159493D01*
X163871Y159578D01*
X163815Y159599D01*
X163763Y159628D01*
X163607Y159679D01*
X163454Y159738D01*
X163395Y159749D01*
X163339Y159768D01*
X163176Y159791D01*
X163015Y159822D01*
X162929Y159826D01*
X162896Y159831D01*
X162861Y159830D01*
X162768Y159834D01*
X161678Y159834D01*
X157942Y161382D01*
X155082Y164242D01*
X153534Y167978D01*
X153534Y179015D01*
X153526Y179108D01*
X153527Y179201D01*
X153506Y179330D01*
X153494Y179459D01*
X153470Y179550D01*
X153454Y179642D01*
X153410Y179764D01*
X153376Y179890D01*
X153335Y179974D01*
X153304Y180062D01*
X153239Y180175D01*
X153183Y180293D01*
X153128Y180369D01*
X153081Y180450D01*
X152997Y180549D01*
X152921Y180655D01*
X152853Y180720D01*
X152793Y180791D01*
X152693Y180874D01*
X152599Y180964D01*
X152521Y181016D01*
X152449Y181076D01*
X152335Y181139D01*
X152227Y181211D01*
X152141Y181248D01*
X152059Y181294D01*
X151936Y181337D01*
X151816Y181388D01*
X151726Y181410D01*
X151637Y181440D01*
X151508Y181460D01*
X151381Y181490D01*
X151288Y181494D01*
X151196Y181509D01*
X151065Y181505D01*
X150935Y181512D01*
X150843Y181500D01*
X150749Y181497D01*
X150621Y181471D01*
X150492Y181454D01*
X150403Y181426D01*
X150312Y181407D01*
X150079Y181324D01*
X148089Y180499D01*
X143892Y180499D01*
X143861Y180512D01*
X143735Y180542D01*
X143610Y180581D01*
X143517Y180592D01*
X143426Y180614D01*
X143296Y180620D01*
X143167Y180636D01*
X143073Y180631D01*
X142980Y180636D01*
X142851Y180619D01*
X142721Y180612D01*
X142630Y180590D01*
X142537Y180578D01*
X142413Y180539D01*
X142286Y180508D01*
X142201Y180471D01*
X142112Y180442D01*
X141997Y180381D01*
X141877Y180329D01*
X141800Y180277D01*
X141717Y180233D01*
X141614Y180153D01*
X141506Y180080D01*
X141439Y180015D01*
X141366Y179957D01*
X141279Y179860D01*
X141186Y179769D01*
X141131Y179693D01*
X141069Y179623D01*
X141002Y179512D01*
X140926Y179406D01*
X140886Y179321D01*
X140837Y179241D01*
X140791Y179120D01*
X140735Y179002D01*
X140710Y178912D01*
X140677Y178824D01*
X140662Y178749D01*
X130040Y178749D01*
X119499Y178749D01*
X119499Y180584D01*
X119692Y181305D01*
X119723Y181365D01*
X119739Y181416D01*
X119762Y181465D01*
X119805Y181630D01*
X119855Y181792D01*
X119861Y181845D01*
X119874Y181897D01*
X119887Y182067D01*
X119908Y182236D01*
X119904Y182289D01*
X119908Y182343D01*
X119891Y182512D01*
X119881Y182682D01*
X119868Y182734D01*
X119863Y182787D01*
X119815Y182950D01*
X119775Y183116D01*
X119753Y183165D01*
X119738Y183216D01*
X119663Y183368D01*
X119594Y183524D01*
X119564Y183568D01*
X119540Y183616D01*
X119539Y183617D01*
X119539Y193786D01*
X121004Y195251D01*
X124330Y195251D01*
X124473Y195264D01*
X124616Y195267D01*
X124695Y195283D01*
X124775Y195291D01*
X124913Y195329D01*
X125054Y195358D01*
X125170Y195399D01*
X125206Y195409D01*
X125230Y195421D01*
X125287Y195441D01*
X128449Y196751D01*
X133000Y196751D01*
X133050Y196755D01*
X133100Y196753D01*
X133272Y196775D01*
X133445Y196791D01*
X133493Y196804D01*
X133543Y196810D01*
X133708Y196863D01*
X133876Y196909D01*
X133921Y196931D01*
X133968Y196946D01*
X134122Y197027D01*
X134278Y197102D01*
X134319Y197132D01*
X134363Y197155D01*
X134500Y197262D01*
X134640Y197364D01*
X134675Y197400D01*
X134714Y197431D01*
X134830Y197561D01*
X134950Y197686D01*
X134977Y197728D01*
X135011Y197766D01*
X135101Y197914D01*
X135197Y198058D01*
X135217Y198104D01*
X135243Y198147D01*
X135305Y198309D01*
X135374Y198469D01*
X135385Y198517D01*
X135403Y198564D01*
X135436Y198735D01*
X135475Y198904D01*
X135478Y198954D01*
X135487Y199003D01*
X135499Y199250D01*
X135499Y259589D01*
X137098Y263448D01*
X138882Y265233D01*
X138970Y265338D01*
X139065Y265436D01*
X139113Y265509D01*
X139169Y265576D01*
X139236Y265695D01*
X139312Y265808D01*
X139347Y265888D01*
X139390Y265964D01*
X139435Y266093D01*
X139489Y266219D01*
X139509Y266303D01*
X139538Y266385D01*
X139559Y266521D01*
X139590Y266654D01*
X139595Y266740D01*
X139608Y266826D01*
X139606Y266963D01*
X139613Y267100D01*
X139601Y267186D01*
X139600Y267273D01*
X139573Y267407D01*
X139555Y267543D01*
X139528Y267626D01*
X139511Y267711D01*
X139461Y267838D01*
X139419Y267968D01*
X139379Y268045D01*
X139346Y268126D01*
X139274Y268242D01*
X139210Y268363D01*
X139156Y268431D01*
X139110Y268505D01*
X139019Y268607D01*
X138934Y268714D01*
X138869Y268772D01*
X138811Y268836D01*
X138702Y268920D01*
X138600Y269011D01*
X138525Y269056D01*
X138457Y269109D01*
X138335Y269172D01*
X138218Y269243D01*
X138137Y269274D01*
X138060Y269314D01*
X137929Y269354D01*
X137801Y269403D01*
X137716Y269420D01*
X137633Y269445D01*
X137497Y269461D01*
X137362Y269487D01*
X137226Y269494D01*
X137189Y269498D01*
X137166Y269497D01*
X137115Y269499D01*
X68000Y269499D01*
X67950Y269495D01*
X67900Y269497D01*
X67728Y269475D01*
X67555Y269459D01*
X67507Y269446D01*
X67457Y269440D01*
X67292Y269387D01*
X67124Y269341D01*
X67079Y269319D01*
X67032Y269304D01*
X66878Y269223D01*
X66722Y269148D01*
X66681Y269118D01*
X66637Y269095D01*
X66500Y268988D01*
X66360Y268886D01*
X66325Y268850D01*
X66286Y268819D01*
X66170Y268689D01*
X66050Y268564D01*
X66023Y268522D01*
X65989Y268484D01*
X65899Y268336D01*
X65803Y268192D01*
X65783Y268146D01*
X65757Y268103D01*
X65695Y267941D01*
X65626Y267781D01*
X65615Y267733D01*
X65597Y267686D01*
X65564Y267515D01*
X65525Y267346D01*
X65522Y267296D01*
X65513Y267247D01*
X65501Y267000D01*
X65501Y171750D01*
X65505Y171700D01*
X65503Y171650D01*
X65525Y171478D01*
X65541Y171305D01*
X65554Y171257D01*
X65560Y171207D01*
X65613Y171042D01*
X65659Y170874D01*
X65681Y170829D01*
X65696Y170782D01*
X65777Y170628D01*
X65852Y170472D01*
X65882Y170431D01*
X65905Y170387D01*
X66012Y170250D01*
X66114Y170110D01*
X66150Y170075D01*
X66181Y170036D01*
X66311Y169920D01*
X66436Y169800D01*
X66478Y169773D01*
X66516Y169739D01*
X66664Y169649D01*
X66808Y169553D01*
X66854Y169533D01*
X66897Y169507D01*
X67059Y169445D01*
X67219Y169376D01*
X67267Y169365D01*
X67314Y169347D01*
X67485Y169314D01*
X67654Y169275D01*
X67704Y169272D01*
X67753Y169263D01*
X68000Y169251D01*
X117000Y169251D01*
X117050Y169255D01*
X117100Y169253D01*
X117272Y169275D01*
X117445Y169291D01*
X117493Y169304D01*
X117543Y169310D01*
X117708Y169363D01*
X117876Y169409D01*
X117921Y169431D01*
X117968Y169446D01*
X118122Y169527D01*
X118278Y169602D01*
X118319Y169632D01*
X118363Y169655D01*
X118500Y169762D01*
X118640Y169864D01*
X118675Y169900D01*
X118714Y169931D01*
X118830Y170061D01*
X118950Y170186D01*
X118977Y170228D01*
X119011Y170266D01*
X119101Y170414D01*
X119197Y170558D01*
X119217Y170604D01*
X119243Y170647D01*
X119305Y170810D01*
X119374Y170969D01*
X119385Y171017D01*
X119403Y171064D01*
X119436Y171235D01*
X119475Y171404D01*
X119478Y171454D01*
X119487Y171503D01*
X119499Y171750D01*
X119499Y173751D01*
X130040Y173751D01*
X140581Y173751D01*
X140581Y171916D01*
X140388Y171195D01*
X140357Y171135D01*
X140341Y171084D01*
X140318Y171035D01*
X140275Y170870D01*
X140225Y170708D01*
X140219Y170655D01*
X140206Y170603D01*
X140193Y170433D01*
X140172Y170264D01*
X140176Y170211D01*
X140172Y170157D01*
X140189Y169988D01*
X140199Y169818D01*
X140212Y169766D01*
X140217Y169713D01*
X140265Y169550D01*
X140305Y169384D01*
X140327Y169335D01*
X140342Y169284D01*
X140417Y169132D01*
X140486Y168976D01*
X140516Y168932D01*
X140540Y168884D01*
X140541Y168883D01*
X140541Y158424D01*
X140496Y158279D01*
X140439Y158115D01*
X140431Y158065D01*
X140416Y158017D01*
X140395Y157845D01*
X140368Y157674D01*
X140369Y157624D01*
X140363Y157574D01*
X140373Y157401D01*
X140377Y157227D01*
X140387Y157178D01*
X140390Y157128D01*
X140431Y156959D01*
X140465Y156789D01*
X140484Y156743D01*
X140495Y156694D01*
X140541Y156592D01*
X140541Y145924D01*
X140496Y145778D01*
X140439Y145615D01*
X140431Y145565D01*
X140416Y145517D01*
X140395Y145345D01*
X140368Y145174D01*
X140369Y145123D01*
X140363Y145074D01*
X140373Y144900D01*
X140377Y144727D01*
X140387Y144678D01*
X140390Y144628D01*
X140431Y144459D01*
X140465Y144289D01*
X140484Y144242D01*
X140495Y144194D01*
X140541Y144092D01*
X140541Y133424D01*
X140496Y133279D01*
X140439Y133115D01*
X140431Y133065D01*
X140416Y133017D01*
X140395Y132845D01*
X140368Y132674D01*
X140369Y132624D01*
X140363Y132574D01*
X140373Y132401D01*
X140377Y132227D01*
X140387Y132178D01*
X140390Y132128D01*
X140431Y131959D01*
X140465Y131789D01*
X140484Y131743D01*
X140495Y131694D01*
X140541Y131592D01*
X140541Y120924D01*
X140496Y120779D01*
X140439Y120615D01*
X140431Y120565D01*
X140416Y120517D01*
X140395Y120345D01*
X140368Y120174D01*
X140369Y120124D01*
X140363Y120074D01*
X140373Y119900D01*
X140377Y119727D01*
X140387Y119678D01*
X140390Y119628D01*
X140431Y119459D01*
X140465Y119289D01*
X140484Y119243D01*
X140495Y119194D01*
X140541Y119092D01*
X140541Y109250D01*
X140545Y109200D01*
X140543Y109150D01*
X140565Y108978D01*
X140581Y108805D01*
X140594Y108757D01*
X140600Y108707D01*
X140653Y108542D01*
X140699Y108374D01*
X140721Y108329D01*
X140736Y108282D01*
X140817Y108128D01*
X140892Y107972D01*
X140922Y107931D01*
X140945Y107887D01*
X141052Y107750D01*
X141154Y107610D01*
X141190Y107575D01*
X141221Y107536D01*
X141351Y107420D01*
X141476Y107300D01*
X141518Y107273D01*
X141556Y107239D01*
X141704Y107149D01*
X141848Y107053D01*
X141894Y107033D01*
X141937Y107007D01*
X142099Y106945D01*
X142259Y106876D01*
X142307Y106865D01*
X142354Y106847D01*
X142525Y106814D01*
X142694Y106775D01*
X142744Y106772D01*
X142793Y106763D01*
X143040Y106751D01*
X149844Y106751D01*
X150079Y106654D01*
X150168Y106626D01*
X150254Y106589D01*
X150380Y106559D01*
X150505Y106520D01*
X150598Y106509D01*
X150689Y106487D01*
X150819Y106481D01*
X150948Y106465D01*
X151042Y106470D01*
G37*
%LPC*%
G36*
X333024Y122499D02*
X333024Y122499D01*
X324754Y125925D01*
X318425Y132254D01*
X314999Y140524D01*
X314999Y149476D01*
X318425Y157746D01*
X324754Y164075D01*
X333024Y167501D01*
X341976Y167501D01*
X350246Y164075D01*
X356575Y157746D01*
X360001Y149476D01*
X360001Y140524D01*
X356575Y132254D01*
X350246Y125925D01*
X341976Y122499D01*
X333024Y122499D01*
G37*
%LPD*%
%LPC*%
G36*
X85004Y201249D02*
X85004Y201249D01*
X83539Y202714D01*
X83539Y225786D01*
X85004Y227251D01*
X117076Y227251D01*
X118541Y225786D01*
X118541Y202714D01*
X117076Y201249D01*
X85004Y201249D01*
G37*
%LPD*%
%LPC*%
G36*
X85004Y62749D02*
X85004Y62749D01*
X83539Y64214D01*
X83539Y87286D01*
X85004Y88751D01*
X117076Y88751D01*
X118541Y87286D01*
X118541Y64214D01*
X117076Y62749D01*
X85004Y62749D01*
G37*
%LPD*%
%LPC*%
G36*
X231367Y160279D02*
X231367Y160279D01*
X227647Y161820D01*
X224800Y164667D01*
X223259Y168387D01*
X223259Y172413D01*
X224800Y176133D01*
X227647Y178980D01*
X231367Y180521D01*
X250633Y180521D01*
X254353Y178980D01*
X257200Y176133D01*
X258741Y172413D01*
X258741Y168387D01*
X257200Y164667D01*
X254353Y161820D01*
X250633Y160279D01*
X231367Y160279D01*
G37*
%LPD*%
%LPC*%
G36*
X307649Y82899D02*
X307649Y82899D01*
X307649Y90941D01*
X310884Y90941D01*
X311531Y90768D01*
X312110Y90433D01*
X312583Y89960D01*
X312918Y89381D01*
X313091Y88734D01*
X313091Y82899D01*
X307649Y82899D01*
G37*
%LPD*%
%LPC*%
G36*
X580899Y40149D02*
X580899Y40149D01*
X580899Y45591D01*
X586734Y45591D01*
X587381Y45418D01*
X587960Y45083D01*
X588433Y44610D01*
X588768Y44031D01*
X588941Y43384D01*
X588941Y40149D01*
X580899Y40149D01*
G37*
%LPD*%
%LPC*%
G36*
X567059Y40149D02*
X567059Y40149D01*
X567059Y43384D01*
X567232Y44031D01*
X567567Y44610D01*
X568040Y45083D01*
X568619Y45418D01*
X569266Y45591D01*
X575101Y45591D01*
X575101Y40149D01*
X567059Y40149D01*
G37*
%LPD*%
%LPC*%
G36*
X296409Y82899D02*
X296409Y82899D01*
X296409Y88734D01*
X296582Y89381D01*
X296917Y89960D01*
X297390Y90433D01*
X297969Y90768D01*
X298616Y90941D01*
X301851Y90941D01*
X301851Y82899D01*
X296409Y82899D01*
G37*
%LPD*%
%LPC*%
G36*
X307649Y69059D02*
X307649Y69059D01*
X307649Y77101D01*
X313091Y77101D01*
X313091Y71266D01*
X312918Y70619D01*
X312583Y70040D01*
X312110Y69567D01*
X311531Y69232D01*
X310884Y69059D01*
X307649Y69059D01*
G37*
%LPD*%
%LPC*%
G36*
X298616Y69059D02*
X298616Y69059D01*
X297969Y69232D01*
X297390Y69567D01*
X296917Y70040D01*
X296582Y70619D01*
X296409Y71266D01*
X296409Y77101D01*
X301851Y77101D01*
X301851Y69059D01*
X298616Y69059D01*
G37*
%LPD*%
%LPC*%
G36*
X558499Y156999D02*
X558499Y156999D01*
X558499Y160041D01*
X561584Y160041D01*
X562231Y159868D01*
X562810Y159533D01*
X563283Y159060D01*
X563618Y158481D01*
X563791Y157834D01*
X563791Y156999D01*
X558499Y156999D01*
G37*
%LPD*%
D10*
X556000Y135500D03*
X556000Y154500D03*
X534000Y145000D03*
D11*
X130040Y188750D03*
X130040Y176250D03*
X130040Y163750D03*
X130040Y151250D03*
X130040Y138750D03*
X130040Y126250D03*
X130040Y113750D03*
X130040Y101250D03*
D12*
X101040Y75750D03*
X101040Y214250D03*
D13*
X233380Y119600D02*
X248620Y119600D01*
X248620Y145000D02*
X233380Y145000D01*
X233380Y170400D02*
X248620Y170400D01*
D14*
X578000Y66750D03*
X578000Y37250D03*
D15*
X304750Y80000D03*
X275250Y80000D03*
D11*
X710000Y113750D03*
X710000Y126250D03*
X710000Y138750D03*
X710000Y151250D03*
X710000Y163750D03*
X710000Y176250D03*
D12*
X739000Y88250D03*
X739000Y201750D03*
D16*
X242500Y210000D03*
D17*
X487500Y145000D03*
D18*
X534000Y145000D01*
D19*
X130040Y113750D02*
X69250Y113750D01*
X69250Y21915D01*
X684750Y21915D01*
X684750Y126250D02*
X710000Y126250D01*
X684750Y126250D02*
X684750Y21915D01*
D20*
X578000Y66750D02*
X577000Y67038D01*
X577000Y133000D01*
D19*
X574500Y135500D01*
D20*
X556000Y135500D01*
D19*
X90000Y126000D02*
X89226Y126774D01*
X129516Y126774D02*
X130040Y126250D01*
X129516Y126774D02*
X89226Y126774D01*
D16*
X90000Y126000D03*
X90000Y36000D03*
D19*
X550217Y66750D02*
X578000Y66750D01*
X550217Y66750D02*
X525132Y36000D01*
X90000Y36000D01*
X60000Y12665D02*
X760000Y12665D01*
X60000Y12665D02*
X60000Y138750D01*
X130040Y138750D01*
X710000Y113750D02*
X760000Y113750D01*
X760000Y12665D01*
X220000Y80000D02*
X220000Y145000D01*
X241000Y145000D01*
X220000Y80000D02*
X275250Y80000D01*
X148750Y101250D02*
X130040Y101250D01*
X148750Y101250D02*
X150000Y100000D01*
X150000Y80000D01*
X220000Y80000D01*
X760000Y151250D02*
X760000Y275000D01*
X60000Y275000D01*
D16*
X735000Y165000D03*
D19*
X61250Y163750D02*
X60000Y165000D01*
X61250Y163750D02*
X130040Y163750D01*
X60000Y165000D02*
X60000Y275000D01*
X710000Y151250D02*
X735000Y151250D01*
X760000Y151250D01*
X735000Y151250D02*
X735000Y165000D01*
D16*
X735000Y135000D03*
D19*
X130040Y151250D02*
X98750Y151250D01*
X97500Y150000D01*
D16*
X97500Y150000D03*
D19*
X710000Y138750D02*
X735000Y138750D01*
X735000Y135000D01*
D17*
X337500Y145000D03*
D21*
X143750Y188750D02*
X130040Y188750D01*
D19*
X143750Y188750D02*
X146000Y191000D01*
D20*
X146000Y257500D01*
X685000Y257500D02*
X685000Y176250D01*
X270000Y257500D02*
X146000Y257500D01*
X270000Y257500D02*
X685000Y257500D01*
X270000Y257500D02*
X270000Y210000D01*
D16*
X270000Y210000D03*
D21*
X685000Y176250D02*
X710000Y176250D01*
M02*
