G04 EAGLE Gerber X2 export*
%TF.Part,Single*%
%TF.FileFunction,Legend,Top,1*%
%TF.FilePolarity,Positive*%
%TF.GenerationSoftware,Autodesk,EAGLE,9.1.0*%
%TF.CreationDate,2020-06-24T00:00:21Z*%
G75*
%MOMM*%
%FSLAX34Y34*%
%LPD*%
%AMOC8*
5,1,8,0,0,1.08239X$1,22.5*%
G01*
%ADD10C,0.200000*%
%ADD11C,0.101600*%
%ADD12C,0.152400*%
%ADD13C,0.127000*%
%ADD14C,0.050800*%
%ADD15C,0.100000*%
%ADD16C,0.300000*%
%ADD17C,0.300000*%


D10*
X547250Y130500D02*
X542750Y130500D01*
X542750Y159500D01*
X547250Y159500D01*
X547250Y130500D01*
X550750Y130000D02*
X561250Y130000D01*
D11*
X501183Y157404D02*
X501183Y162596D01*
X501182Y162596D02*
X501184Y162709D01*
X501190Y162822D01*
X501200Y162935D01*
X501214Y163048D01*
X501231Y163160D01*
X501253Y163271D01*
X501278Y163381D01*
X501308Y163491D01*
X501341Y163599D01*
X501378Y163706D01*
X501418Y163812D01*
X501463Y163916D01*
X501511Y164019D01*
X501562Y164120D01*
X501617Y164219D01*
X501675Y164316D01*
X501737Y164411D01*
X501802Y164504D01*
X501870Y164594D01*
X501941Y164682D01*
X502016Y164768D01*
X502093Y164851D01*
X502173Y164931D01*
X502256Y165008D01*
X502342Y165083D01*
X502430Y165154D01*
X502520Y165222D01*
X502613Y165287D01*
X502708Y165349D01*
X502805Y165407D01*
X502904Y165462D01*
X503005Y165513D01*
X503108Y165561D01*
X503212Y165606D01*
X503318Y165646D01*
X503425Y165683D01*
X503533Y165716D01*
X503643Y165746D01*
X503753Y165771D01*
X503864Y165793D01*
X503976Y165810D01*
X504089Y165824D01*
X504202Y165834D01*
X504315Y165840D01*
X504428Y165842D01*
X504541Y165840D01*
X504654Y165834D01*
X504767Y165824D01*
X504880Y165810D01*
X504992Y165793D01*
X505103Y165771D01*
X505213Y165746D01*
X505323Y165716D01*
X505431Y165683D01*
X505538Y165646D01*
X505644Y165606D01*
X505748Y165561D01*
X505851Y165513D01*
X505952Y165462D01*
X506051Y165407D01*
X506148Y165349D01*
X506243Y165287D01*
X506336Y165222D01*
X506426Y165154D01*
X506514Y165083D01*
X506600Y165008D01*
X506683Y164931D01*
X506763Y164851D01*
X506840Y164768D01*
X506915Y164682D01*
X506986Y164594D01*
X507054Y164504D01*
X507119Y164411D01*
X507181Y164316D01*
X507239Y164219D01*
X507294Y164120D01*
X507345Y164019D01*
X507393Y163916D01*
X507438Y163812D01*
X507478Y163706D01*
X507515Y163599D01*
X507548Y163491D01*
X507578Y163381D01*
X507603Y163271D01*
X507625Y163160D01*
X507642Y163048D01*
X507656Y162935D01*
X507666Y162822D01*
X507672Y162709D01*
X507674Y162596D01*
X507674Y157404D01*
X507672Y157291D01*
X507666Y157178D01*
X507656Y157065D01*
X507642Y156952D01*
X507625Y156840D01*
X507603Y156729D01*
X507578Y156619D01*
X507548Y156509D01*
X507515Y156401D01*
X507478Y156294D01*
X507438Y156188D01*
X507393Y156084D01*
X507345Y155981D01*
X507294Y155880D01*
X507239Y155781D01*
X507181Y155684D01*
X507119Y155589D01*
X507054Y155496D01*
X506986Y155406D01*
X506915Y155318D01*
X506840Y155232D01*
X506763Y155149D01*
X506683Y155069D01*
X506600Y154992D01*
X506514Y154917D01*
X506426Y154846D01*
X506336Y154778D01*
X506243Y154713D01*
X506148Y154651D01*
X506051Y154593D01*
X505952Y154538D01*
X505851Y154487D01*
X505748Y154439D01*
X505644Y154394D01*
X505538Y154354D01*
X505431Y154317D01*
X505323Y154284D01*
X505213Y154254D01*
X505103Y154229D01*
X504992Y154207D01*
X504880Y154190D01*
X504767Y154176D01*
X504654Y154166D01*
X504541Y154160D01*
X504428Y154158D01*
X504315Y154160D01*
X504202Y154166D01*
X504089Y154176D01*
X503976Y154190D01*
X503864Y154207D01*
X503753Y154229D01*
X503643Y154254D01*
X503533Y154284D01*
X503425Y154317D01*
X503318Y154354D01*
X503212Y154394D01*
X503108Y154439D01*
X503005Y154487D01*
X502904Y154538D01*
X502805Y154593D01*
X502708Y154651D01*
X502613Y154713D01*
X502520Y154778D01*
X502430Y154846D01*
X502342Y154917D01*
X502256Y154992D01*
X502173Y155069D01*
X502093Y155149D01*
X502016Y155232D01*
X501941Y155318D01*
X501870Y155406D01*
X501802Y155496D01*
X501737Y155589D01*
X501675Y155684D01*
X501617Y155781D01*
X501562Y155880D01*
X501511Y155981D01*
X501463Y156084D01*
X501418Y156188D01*
X501378Y156294D01*
X501341Y156401D01*
X501308Y156509D01*
X501278Y156619D01*
X501253Y156729D01*
X501231Y156840D01*
X501214Y156952D01*
X501200Y157065D01*
X501190Y157178D01*
X501184Y157291D01*
X501182Y157404D01*
X506375Y156754D02*
X508972Y154158D01*
X512326Y163246D02*
X515572Y165842D01*
X515572Y154158D01*
X518817Y154158D02*
X512326Y154158D01*
X357110Y221144D02*
X357110Y232851D01*
X360361Y232851D02*
X353858Y232851D01*
X364545Y221144D02*
X368447Y221144D01*
X368447Y221145D02*
X368547Y221147D01*
X368646Y221153D01*
X368745Y221162D01*
X368844Y221175D01*
X368942Y221193D01*
X369040Y221213D01*
X369136Y221238D01*
X369232Y221266D01*
X369326Y221298D01*
X369419Y221334D01*
X369511Y221373D01*
X369601Y221415D01*
X369690Y221461D01*
X369776Y221510D01*
X369861Y221563D01*
X369943Y221619D01*
X370024Y221677D01*
X370102Y221739D01*
X370178Y221804D01*
X370251Y221872D01*
X370321Y221942D01*
X370389Y222016D01*
X370454Y222091D01*
X370516Y222169D01*
X370574Y222250D01*
X370630Y222332D01*
X370683Y222417D01*
X370732Y222503D01*
X370778Y222592D01*
X370820Y222682D01*
X370859Y222774D01*
X370895Y222867D01*
X370927Y222961D01*
X370955Y223057D01*
X370980Y223153D01*
X371000Y223251D01*
X371018Y223349D01*
X371031Y223448D01*
X371040Y223547D01*
X371046Y223646D01*
X371048Y223746D01*
X371048Y225046D01*
X371046Y225146D01*
X371040Y225245D01*
X371031Y225344D01*
X371018Y225443D01*
X371000Y225541D01*
X370980Y225639D01*
X370955Y225735D01*
X370927Y225831D01*
X370895Y225925D01*
X370859Y226018D01*
X370820Y226110D01*
X370778Y226200D01*
X370732Y226289D01*
X370683Y226375D01*
X370630Y226460D01*
X370574Y226542D01*
X370516Y226623D01*
X370454Y226701D01*
X370389Y226777D01*
X370321Y226850D01*
X370251Y226920D01*
X370178Y226988D01*
X370102Y227053D01*
X370024Y227115D01*
X369943Y227173D01*
X369861Y227229D01*
X369776Y227282D01*
X369690Y227331D01*
X369601Y227377D01*
X369511Y227419D01*
X369419Y227458D01*
X369326Y227494D01*
X369232Y227526D01*
X369136Y227554D01*
X369040Y227579D01*
X368942Y227599D01*
X368844Y227617D01*
X368745Y227630D01*
X368646Y227639D01*
X368547Y227645D01*
X368447Y227647D01*
X368447Y227648D02*
X364545Y227648D01*
X364545Y232851D01*
X371048Y232851D01*
X532110Y232851D02*
X532110Y221144D01*
X528858Y232851D02*
X535361Y232851D01*
X539545Y227648D02*
X543447Y227648D01*
X543447Y227647D02*
X543547Y227645D01*
X543646Y227639D01*
X543745Y227630D01*
X543844Y227617D01*
X543942Y227599D01*
X544040Y227579D01*
X544136Y227554D01*
X544232Y227526D01*
X544326Y227494D01*
X544419Y227458D01*
X544511Y227419D01*
X544601Y227377D01*
X544690Y227331D01*
X544776Y227282D01*
X544861Y227229D01*
X544943Y227173D01*
X545024Y227115D01*
X545102Y227053D01*
X545178Y226988D01*
X545251Y226920D01*
X545321Y226850D01*
X545389Y226777D01*
X545454Y226701D01*
X545516Y226623D01*
X545574Y226542D01*
X545630Y226460D01*
X545683Y226375D01*
X545732Y226289D01*
X545778Y226200D01*
X545820Y226110D01*
X545859Y226018D01*
X545895Y225925D01*
X545927Y225831D01*
X545955Y225735D01*
X545980Y225639D01*
X546000Y225541D01*
X546018Y225443D01*
X546031Y225344D01*
X546040Y225245D01*
X546046Y225146D01*
X546048Y225046D01*
X546048Y224396D01*
X546046Y224284D01*
X546040Y224172D01*
X546031Y224060D01*
X546017Y223948D01*
X546000Y223837D01*
X545978Y223727D01*
X545954Y223618D01*
X545925Y223509D01*
X545892Y223402D01*
X545856Y223295D01*
X545816Y223191D01*
X545773Y223087D01*
X545726Y222985D01*
X545676Y222885D01*
X545622Y222786D01*
X545564Y222690D01*
X545504Y222595D01*
X545440Y222503D01*
X545373Y222413D01*
X545303Y222325D01*
X545230Y222240D01*
X545154Y222157D01*
X545076Y222077D01*
X544994Y221999D01*
X544910Y221925D01*
X544824Y221853D01*
X544735Y221785D01*
X544643Y221720D01*
X544550Y221657D01*
X544454Y221599D01*
X544357Y221543D01*
X544257Y221491D01*
X544156Y221442D01*
X544053Y221397D01*
X543949Y221355D01*
X543844Y221317D01*
X543737Y221283D01*
X543629Y221252D01*
X543520Y221226D01*
X543410Y221202D01*
X543299Y221183D01*
X543188Y221168D01*
X543076Y221156D01*
X542964Y221148D01*
X542852Y221144D01*
X542740Y221144D01*
X542628Y221148D01*
X542516Y221156D01*
X542404Y221168D01*
X542293Y221183D01*
X542182Y221202D01*
X542072Y221226D01*
X541963Y221252D01*
X541855Y221283D01*
X541748Y221317D01*
X541643Y221355D01*
X541539Y221397D01*
X541436Y221442D01*
X541335Y221491D01*
X541235Y221543D01*
X541138Y221599D01*
X541042Y221657D01*
X540949Y221720D01*
X540857Y221785D01*
X540768Y221853D01*
X540682Y221925D01*
X540598Y221999D01*
X540516Y222077D01*
X540438Y222157D01*
X540362Y222240D01*
X540289Y222325D01*
X540219Y222413D01*
X540152Y222503D01*
X540088Y222595D01*
X540028Y222690D01*
X539970Y222786D01*
X539916Y222885D01*
X539866Y222985D01*
X539819Y223087D01*
X539776Y223191D01*
X539736Y223295D01*
X539700Y223402D01*
X539667Y223509D01*
X539638Y223618D01*
X539614Y223727D01*
X539592Y223837D01*
X539575Y223948D01*
X539561Y224060D01*
X539552Y224172D01*
X539546Y224284D01*
X539544Y224396D01*
X539545Y224396D02*
X539545Y227648D01*
X539547Y227791D01*
X539553Y227935D01*
X539563Y228078D01*
X539577Y228220D01*
X539594Y228363D01*
X539616Y228504D01*
X539642Y228645D01*
X539671Y228786D01*
X539704Y228925D01*
X539741Y229064D01*
X539782Y229201D01*
X539827Y229337D01*
X539875Y229472D01*
X539927Y229606D01*
X539983Y229738D01*
X540043Y229869D01*
X540106Y229997D01*
X540172Y230124D01*
X540242Y230249D01*
X540315Y230373D01*
X540392Y230494D01*
X540472Y230613D01*
X540556Y230729D01*
X540642Y230844D01*
X540732Y230956D01*
X540824Y231065D01*
X540920Y231172D01*
X541019Y231276D01*
X541120Y231377D01*
X541224Y231476D01*
X541331Y231572D01*
X541440Y231664D01*
X541552Y231754D01*
X541667Y231840D01*
X541783Y231924D01*
X541902Y232004D01*
X542023Y232081D01*
X542146Y232154D01*
X542272Y232224D01*
X542399Y232290D01*
X542527Y232353D01*
X542658Y232413D01*
X542790Y232469D01*
X542924Y232521D01*
X543059Y232569D01*
X543195Y232614D01*
X543332Y232655D01*
X543471Y232692D01*
X543610Y232725D01*
X543751Y232754D01*
X543892Y232780D01*
X544033Y232802D01*
X544176Y232819D01*
X544318Y232833D01*
X544461Y232843D01*
X544605Y232849D01*
X544748Y232851D01*
D10*
X120000Y216900D02*
X120000Y73100D01*
X78000Y73100D02*
X78000Y216900D01*
X143332Y188490D02*
X143334Y188541D01*
X143340Y188592D01*
X143350Y188642D01*
X143363Y188691D01*
X143381Y188739D01*
X143402Y188785D01*
X143427Y188830D01*
X143455Y188873D01*
X143486Y188913D01*
X143520Y188951D01*
X143557Y188986D01*
X143597Y189018D01*
X143639Y189047D01*
X143683Y189072D01*
X143729Y189094D01*
X143777Y189113D01*
X143826Y189127D01*
X143876Y189138D01*
X143926Y189145D01*
X143977Y189148D01*
X144028Y189147D01*
X144079Y189142D01*
X144129Y189133D01*
X144179Y189120D01*
X144227Y189104D01*
X144274Y189084D01*
X144319Y189060D01*
X144362Y189033D01*
X144403Y189002D01*
X144442Y188969D01*
X144477Y188932D01*
X144510Y188893D01*
X144540Y188852D01*
X144566Y188808D01*
X144589Y188762D01*
X144608Y188715D01*
X144624Y188666D01*
X144636Y188617D01*
X144644Y188566D01*
X144648Y188516D01*
X144648Y188464D01*
X144644Y188414D01*
X144636Y188363D01*
X144624Y188314D01*
X144608Y188265D01*
X144589Y188218D01*
X144566Y188172D01*
X144540Y188128D01*
X144510Y188087D01*
X144477Y188048D01*
X144442Y188011D01*
X144403Y187978D01*
X144362Y187947D01*
X144319Y187920D01*
X144274Y187896D01*
X144227Y187876D01*
X144179Y187860D01*
X144129Y187847D01*
X144079Y187838D01*
X144028Y187833D01*
X143977Y187832D01*
X143926Y187835D01*
X143876Y187842D01*
X143826Y187853D01*
X143777Y187867D01*
X143729Y187886D01*
X143683Y187908D01*
X143639Y187933D01*
X143597Y187962D01*
X143557Y187994D01*
X143520Y188029D01*
X143486Y188067D01*
X143455Y188107D01*
X143427Y188150D01*
X143402Y188195D01*
X143381Y188241D01*
X143363Y188289D01*
X143350Y188338D01*
X143340Y188388D01*
X143334Y188439D01*
X143332Y188490D01*
D11*
X103482Y98052D02*
X103482Y95456D01*
X103480Y95357D01*
X103474Y95257D01*
X103465Y95158D01*
X103452Y95060D01*
X103435Y94962D01*
X103414Y94864D01*
X103389Y94768D01*
X103361Y94673D01*
X103329Y94579D01*
X103294Y94486D01*
X103255Y94394D01*
X103212Y94304D01*
X103167Y94216D01*
X103117Y94129D01*
X103065Y94045D01*
X103009Y93962D01*
X102951Y93882D01*
X102889Y93804D01*
X102824Y93729D01*
X102756Y93656D01*
X102686Y93586D01*
X102613Y93518D01*
X102538Y93453D01*
X102460Y93391D01*
X102380Y93333D01*
X102297Y93277D01*
X102213Y93225D01*
X102126Y93175D01*
X102038Y93130D01*
X101948Y93087D01*
X101856Y93048D01*
X101763Y93013D01*
X101669Y92981D01*
X101574Y92953D01*
X101478Y92928D01*
X101380Y92907D01*
X101282Y92890D01*
X101184Y92877D01*
X101085Y92868D01*
X100985Y92862D01*
X100886Y92860D01*
X100886Y92859D02*
X94394Y92859D01*
X94295Y92861D01*
X94195Y92867D01*
X94096Y92876D01*
X93998Y92889D01*
X93900Y92907D01*
X93802Y92927D01*
X93706Y92952D01*
X93610Y92980D01*
X93516Y93012D01*
X93423Y93047D01*
X93332Y93086D01*
X93242Y93129D01*
X93153Y93174D01*
X93067Y93224D01*
X92982Y93276D01*
X92900Y93332D01*
X92820Y93391D01*
X92742Y93452D01*
X92666Y93517D01*
X92593Y93585D01*
X92523Y93655D01*
X92455Y93728D01*
X92390Y93804D01*
X92329Y93882D01*
X92270Y93962D01*
X92214Y94044D01*
X92162Y94129D01*
X92113Y94215D01*
X92067Y94304D01*
X92024Y94394D01*
X91985Y94485D01*
X91950Y94578D01*
X91918Y94672D01*
X91890Y94768D01*
X91865Y94864D01*
X91845Y94962D01*
X91827Y95060D01*
X91814Y95158D01*
X91805Y95257D01*
X91799Y95356D01*
X91797Y95456D01*
X91798Y95456D02*
X91798Y98052D01*
X95044Y102418D02*
X100236Y102418D01*
X95044Y102417D02*
X94931Y102419D01*
X94818Y102425D01*
X94705Y102435D01*
X94592Y102449D01*
X94480Y102466D01*
X94369Y102488D01*
X94259Y102513D01*
X94149Y102543D01*
X94041Y102576D01*
X93934Y102613D01*
X93828Y102653D01*
X93724Y102698D01*
X93621Y102746D01*
X93520Y102797D01*
X93421Y102852D01*
X93324Y102910D01*
X93229Y102972D01*
X93136Y103037D01*
X93046Y103105D01*
X92958Y103176D01*
X92872Y103251D01*
X92789Y103328D01*
X92709Y103408D01*
X92632Y103491D01*
X92557Y103577D01*
X92486Y103665D01*
X92418Y103755D01*
X92353Y103848D01*
X92291Y103943D01*
X92233Y104040D01*
X92178Y104139D01*
X92127Y104240D01*
X92079Y104343D01*
X92034Y104447D01*
X91994Y104553D01*
X91957Y104660D01*
X91924Y104768D01*
X91894Y104878D01*
X91869Y104988D01*
X91847Y105099D01*
X91830Y105211D01*
X91816Y105324D01*
X91806Y105437D01*
X91800Y105550D01*
X91798Y105663D01*
X91800Y105776D01*
X91806Y105889D01*
X91816Y106002D01*
X91830Y106115D01*
X91847Y106227D01*
X91869Y106338D01*
X91894Y106448D01*
X91924Y106558D01*
X91957Y106666D01*
X91994Y106773D01*
X92034Y106879D01*
X92079Y106983D01*
X92127Y107086D01*
X92178Y107187D01*
X92233Y107286D01*
X92291Y107383D01*
X92353Y107478D01*
X92418Y107571D01*
X92486Y107661D01*
X92557Y107749D01*
X92632Y107835D01*
X92709Y107918D01*
X92789Y107998D01*
X92872Y108075D01*
X92958Y108150D01*
X93046Y108221D01*
X93136Y108289D01*
X93229Y108354D01*
X93324Y108416D01*
X93421Y108474D01*
X93520Y108529D01*
X93621Y108580D01*
X93724Y108628D01*
X93828Y108673D01*
X93934Y108713D01*
X94041Y108750D01*
X94149Y108783D01*
X94259Y108813D01*
X94369Y108838D01*
X94480Y108860D01*
X94592Y108877D01*
X94705Y108891D01*
X94818Y108901D01*
X94931Y108907D01*
X95044Y108909D01*
X100236Y108909D01*
X100349Y108907D01*
X100462Y108901D01*
X100575Y108891D01*
X100688Y108877D01*
X100800Y108860D01*
X100911Y108838D01*
X101021Y108813D01*
X101131Y108783D01*
X101239Y108750D01*
X101346Y108713D01*
X101452Y108673D01*
X101556Y108628D01*
X101659Y108580D01*
X101760Y108529D01*
X101859Y108474D01*
X101956Y108416D01*
X102051Y108354D01*
X102144Y108289D01*
X102234Y108221D01*
X102322Y108150D01*
X102408Y108075D01*
X102491Y107998D01*
X102571Y107918D01*
X102648Y107835D01*
X102723Y107749D01*
X102794Y107661D01*
X102862Y107571D01*
X102927Y107478D01*
X102989Y107383D01*
X103047Y107286D01*
X103102Y107187D01*
X103153Y107086D01*
X103201Y106983D01*
X103246Y106879D01*
X103286Y106773D01*
X103323Y106666D01*
X103356Y106558D01*
X103386Y106448D01*
X103411Y106338D01*
X103433Y106227D01*
X103450Y106115D01*
X103464Y106002D01*
X103474Y105889D01*
X103480Y105776D01*
X103482Y105663D01*
X103480Y105550D01*
X103474Y105437D01*
X103464Y105324D01*
X103450Y105211D01*
X103433Y105099D01*
X103411Y104988D01*
X103386Y104878D01*
X103356Y104768D01*
X103323Y104660D01*
X103286Y104553D01*
X103246Y104447D01*
X103201Y104343D01*
X103153Y104240D01*
X103102Y104139D01*
X103047Y104040D01*
X102989Y103943D01*
X102927Y103848D01*
X102862Y103755D01*
X102794Y103665D01*
X102723Y103577D01*
X102648Y103491D01*
X102571Y103408D01*
X102491Y103328D01*
X102408Y103251D01*
X102322Y103176D01*
X102234Y103105D01*
X102144Y103037D01*
X102051Y102972D01*
X101956Y102910D01*
X101859Y102852D01*
X101760Y102797D01*
X101659Y102746D01*
X101556Y102698D01*
X101452Y102653D01*
X101346Y102613D01*
X101239Y102576D01*
X101131Y102543D01*
X101021Y102513D01*
X100911Y102488D01*
X100800Y102466D01*
X100688Y102449D01*
X100575Y102435D01*
X100462Y102425D01*
X100349Y102419D01*
X100236Y102417D01*
X103482Y114229D02*
X91798Y114229D01*
X103482Y120720D01*
X91798Y120720D01*
X103482Y126443D02*
X103482Y131636D01*
X103482Y126443D02*
X91798Y126443D01*
X91798Y131636D01*
X96991Y130338D02*
X96991Y126443D01*
X103482Y135296D02*
X91798Y143086D01*
X91798Y135296D02*
X103482Y143086D01*
X103482Y148335D02*
X91798Y148335D01*
X103482Y147037D02*
X103482Y149633D01*
X91798Y149633D02*
X91798Y147037D01*
X95044Y154234D02*
X100236Y154234D01*
X95044Y154233D02*
X94931Y154235D01*
X94818Y154241D01*
X94705Y154251D01*
X94592Y154265D01*
X94480Y154282D01*
X94369Y154304D01*
X94259Y154329D01*
X94149Y154359D01*
X94041Y154392D01*
X93934Y154429D01*
X93828Y154469D01*
X93724Y154514D01*
X93621Y154562D01*
X93520Y154613D01*
X93421Y154668D01*
X93324Y154726D01*
X93229Y154788D01*
X93136Y154853D01*
X93046Y154921D01*
X92958Y154992D01*
X92872Y155067D01*
X92789Y155144D01*
X92709Y155224D01*
X92632Y155307D01*
X92557Y155393D01*
X92486Y155481D01*
X92418Y155571D01*
X92353Y155664D01*
X92291Y155759D01*
X92233Y155856D01*
X92178Y155955D01*
X92127Y156056D01*
X92079Y156159D01*
X92034Y156263D01*
X91994Y156369D01*
X91957Y156476D01*
X91924Y156584D01*
X91894Y156694D01*
X91869Y156804D01*
X91847Y156915D01*
X91830Y157027D01*
X91816Y157140D01*
X91806Y157253D01*
X91800Y157366D01*
X91798Y157479D01*
X91800Y157592D01*
X91806Y157705D01*
X91816Y157818D01*
X91830Y157931D01*
X91847Y158043D01*
X91869Y158154D01*
X91894Y158264D01*
X91924Y158374D01*
X91957Y158482D01*
X91994Y158589D01*
X92034Y158695D01*
X92079Y158799D01*
X92127Y158902D01*
X92178Y159003D01*
X92233Y159102D01*
X92291Y159199D01*
X92353Y159294D01*
X92418Y159387D01*
X92486Y159477D01*
X92557Y159565D01*
X92632Y159651D01*
X92709Y159734D01*
X92789Y159814D01*
X92872Y159891D01*
X92958Y159966D01*
X93046Y160037D01*
X93136Y160105D01*
X93229Y160170D01*
X93324Y160232D01*
X93421Y160290D01*
X93520Y160345D01*
X93621Y160396D01*
X93724Y160444D01*
X93828Y160489D01*
X93934Y160529D01*
X94041Y160566D01*
X94149Y160599D01*
X94259Y160629D01*
X94369Y160654D01*
X94480Y160676D01*
X94592Y160693D01*
X94705Y160707D01*
X94818Y160717D01*
X94931Y160723D01*
X95044Y160725D01*
X100236Y160725D01*
X100349Y160723D01*
X100462Y160717D01*
X100575Y160707D01*
X100688Y160693D01*
X100800Y160676D01*
X100911Y160654D01*
X101021Y160629D01*
X101131Y160599D01*
X101239Y160566D01*
X101346Y160529D01*
X101452Y160489D01*
X101556Y160444D01*
X101659Y160396D01*
X101760Y160345D01*
X101859Y160290D01*
X101956Y160232D01*
X102051Y160170D01*
X102144Y160105D01*
X102234Y160037D01*
X102322Y159966D01*
X102408Y159891D01*
X102491Y159814D01*
X102571Y159734D01*
X102648Y159651D01*
X102723Y159565D01*
X102794Y159477D01*
X102862Y159387D01*
X102927Y159294D01*
X102989Y159199D01*
X103047Y159102D01*
X103102Y159003D01*
X103153Y158902D01*
X103201Y158799D01*
X103246Y158695D01*
X103286Y158589D01*
X103323Y158482D01*
X103356Y158374D01*
X103386Y158264D01*
X103411Y158154D01*
X103433Y158043D01*
X103450Y157931D01*
X103464Y157818D01*
X103474Y157705D01*
X103480Y157592D01*
X103482Y157479D01*
X103480Y157366D01*
X103474Y157253D01*
X103464Y157140D01*
X103450Y157027D01*
X103433Y156915D01*
X103411Y156804D01*
X103386Y156694D01*
X103356Y156584D01*
X103323Y156476D01*
X103286Y156369D01*
X103246Y156263D01*
X103201Y156159D01*
X103153Y156056D01*
X103102Y155955D01*
X103047Y155856D01*
X102989Y155759D01*
X102927Y155664D01*
X102862Y155571D01*
X102794Y155481D01*
X102723Y155393D01*
X102648Y155307D01*
X102571Y155224D01*
X102491Y155144D01*
X102408Y155067D01*
X102322Y154992D01*
X102234Y154921D01*
X102144Y154853D01*
X102051Y154788D01*
X101956Y154726D01*
X101859Y154668D01*
X101760Y154613D01*
X101659Y154562D01*
X101556Y154514D01*
X101452Y154469D01*
X101346Y154429D01*
X101239Y154392D01*
X101131Y154359D01*
X101021Y154329D01*
X100911Y154304D01*
X100800Y154282D01*
X100688Y154265D01*
X100575Y154251D01*
X100462Y154241D01*
X100349Y154235D01*
X100236Y154233D01*
X103482Y166045D02*
X91798Y166045D01*
X103482Y172536D01*
X91798Y172536D01*
X104780Y177362D02*
X104780Y182555D01*
X96991Y187550D02*
X96991Y190795D01*
X96990Y190795D02*
X96992Y190908D01*
X96998Y191021D01*
X97008Y191134D01*
X97022Y191247D01*
X97039Y191359D01*
X97061Y191470D01*
X97086Y191580D01*
X97116Y191690D01*
X97149Y191798D01*
X97186Y191905D01*
X97226Y192011D01*
X97271Y192115D01*
X97319Y192218D01*
X97370Y192319D01*
X97425Y192418D01*
X97483Y192515D01*
X97545Y192610D01*
X97610Y192703D01*
X97678Y192793D01*
X97749Y192881D01*
X97824Y192967D01*
X97901Y193050D01*
X97981Y193130D01*
X98064Y193207D01*
X98150Y193282D01*
X98238Y193353D01*
X98328Y193421D01*
X98421Y193486D01*
X98516Y193548D01*
X98613Y193606D01*
X98712Y193661D01*
X98813Y193712D01*
X98916Y193760D01*
X99020Y193805D01*
X99126Y193845D01*
X99233Y193882D01*
X99341Y193915D01*
X99451Y193945D01*
X99561Y193970D01*
X99672Y193992D01*
X99784Y194009D01*
X99897Y194023D01*
X100010Y194033D01*
X100123Y194039D01*
X100236Y194041D01*
X100349Y194039D01*
X100462Y194033D01*
X100575Y194023D01*
X100688Y194009D01*
X100800Y193992D01*
X100911Y193970D01*
X101021Y193945D01*
X101131Y193915D01*
X101239Y193882D01*
X101346Y193845D01*
X101452Y193805D01*
X101556Y193760D01*
X101659Y193712D01*
X101760Y193661D01*
X101859Y193606D01*
X101956Y193548D01*
X102051Y193486D01*
X102144Y193421D01*
X102234Y193353D01*
X102322Y193282D01*
X102408Y193207D01*
X102491Y193130D01*
X102571Y193050D01*
X102648Y192967D01*
X102723Y192881D01*
X102794Y192793D01*
X102862Y192703D01*
X102927Y192610D01*
X102989Y192515D01*
X103047Y192418D01*
X103102Y192319D01*
X103153Y192218D01*
X103201Y192115D01*
X103246Y192011D01*
X103286Y191905D01*
X103323Y191798D01*
X103356Y191690D01*
X103386Y191580D01*
X103411Y191470D01*
X103433Y191359D01*
X103450Y191247D01*
X103464Y191134D01*
X103474Y191021D01*
X103480Y190908D01*
X103482Y190795D01*
X103482Y187550D01*
X91798Y187550D01*
X91798Y190795D01*
X91800Y190896D01*
X91806Y190996D01*
X91816Y191096D01*
X91829Y191196D01*
X91847Y191295D01*
X91868Y191394D01*
X91893Y191491D01*
X91922Y191588D01*
X91955Y191683D01*
X91991Y191777D01*
X92031Y191869D01*
X92074Y191960D01*
X92121Y192049D01*
X92171Y192136D01*
X92225Y192222D01*
X92282Y192305D01*
X92342Y192385D01*
X92405Y192464D01*
X92472Y192540D01*
X92541Y192613D01*
X92613Y192683D01*
X92687Y192751D01*
X92764Y192816D01*
X92844Y192877D01*
X92926Y192936D01*
X93010Y192991D01*
X93096Y193043D01*
X93184Y193092D01*
X93274Y193137D01*
X93366Y193179D01*
X93459Y193217D01*
X93554Y193251D01*
X93649Y193282D01*
X93746Y193309D01*
X93844Y193332D01*
X93943Y193352D01*
X94043Y193367D01*
X94143Y193379D01*
X94243Y193387D01*
X94344Y193391D01*
X94444Y193391D01*
X94545Y193387D01*
X94645Y193379D01*
X94745Y193367D01*
X94845Y193352D01*
X94944Y193332D01*
X95042Y193309D01*
X95139Y193282D01*
X95234Y193251D01*
X95329Y193217D01*
X95422Y193179D01*
X95514Y193137D01*
X95604Y193092D01*
X95692Y193043D01*
X95778Y192991D01*
X95862Y192936D01*
X95944Y192877D01*
X96024Y192816D01*
X96101Y192751D01*
X96175Y192683D01*
X96247Y192613D01*
X96316Y192540D01*
X96383Y192464D01*
X96446Y192385D01*
X96506Y192305D01*
X96563Y192222D01*
X96617Y192136D01*
X96667Y192049D01*
X96714Y191960D01*
X96757Y191869D01*
X96797Y191777D01*
X96833Y191683D01*
X96866Y191588D01*
X96895Y191491D01*
X96920Y191394D01*
X96941Y191295D01*
X96959Y191196D01*
X96972Y191096D01*
X96982Y190996D01*
X96988Y190896D01*
X96990Y190795D01*
X94394Y198429D02*
X91798Y201675D01*
X103482Y201675D01*
X103482Y198429D02*
X103482Y204921D01*
D12*
X228300Y125950D02*
X228300Y113250D01*
X228300Y125950D02*
X234650Y132300D01*
X247350Y132300D02*
X253700Y125950D01*
X234650Y132300D02*
X228300Y138650D01*
X228300Y151350D01*
X234650Y157700D01*
X247350Y157700D02*
X253700Y151350D01*
X253700Y138650D01*
X247350Y132300D01*
X247350Y106900D02*
X234650Y106900D01*
X228300Y113250D01*
X247350Y106900D02*
X253700Y113250D01*
X253700Y125950D01*
X234650Y157700D02*
X228300Y164050D01*
X228300Y176750D01*
X234650Y183100D01*
X247350Y183100D02*
X253700Y176750D01*
X253700Y164050D01*
X247350Y157700D01*
X247350Y183100D02*
X234650Y183100D01*
D13*
X235285Y98010D02*
X237825Y94835D01*
X235285Y98010D02*
X246715Y98010D01*
X246715Y94835D02*
X246715Y101185D01*
X223855Y107535D02*
X212425Y107535D01*
X212425Y110710D01*
X212427Y110821D01*
X212433Y110931D01*
X212442Y111042D01*
X212456Y111152D01*
X212473Y111261D01*
X212494Y111370D01*
X212519Y111478D01*
X212548Y111585D01*
X212580Y111691D01*
X212616Y111796D01*
X212656Y111899D01*
X212699Y112001D01*
X212746Y112102D01*
X212797Y112201D01*
X212850Y112297D01*
X212907Y112392D01*
X212968Y112485D01*
X213031Y112576D01*
X213098Y112665D01*
X213168Y112751D01*
X213241Y112834D01*
X213316Y112916D01*
X213394Y112994D01*
X213476Y113069D01*
X213559Y113142D01*
X213645Y113212D01*
X213734Y113279D01*
X213825Y113342D01*
X213918Y113403D01*
X214013Y113460D01*
X214109Y113513D01*
X214208Y113564D01*
X214309Y113611D01*
X214411Y113654D01*
X214514Y113694D01*
X214619Y113730D01*
X214725Y113762D01*
X214832Y113791D01*
X214940Y113816D01*
X215049Y113837D01*
X215158Y113854D01*
X215268Y113868D01*
X215379Y113877D01*
X215489Y113883D01*
X215600Y113885D01*
X215711Y113883D01*
X215821Y113877D01*
X215932Y113868D01*
X216042Y113854D01*
X216151Y113837D01*
X216260Y113816D01*
X216368Y113791D01*
X216475Y113762D01*
X216581Y113730D01*
X216686Y113694D01*
X216789Y113654D01*
X216891Y113611D01*
X216992Y113564D01*
X217091Y113513D01*
X217188Y113460D01*
X217282Y113403D01*
X217375Y113342D01*
X217466Y113279D01*
X217555Y113212D01*
X217641Y113142D01*
X217724Y113069D01*
X217806Y112994D01*
X217884Y112916D01*
X217959Y112834D01*
X218032Y112751D01*
X218102Y112665D01*
X218169Y112576D01*
X218232Y112485D01*
X218293Y112392D01*
X218350Y112298D01*
X218403Y112201D01*
X218454Y112102D01*
X218501Y112001D01*
X218544Y111899D01*
X218584Y111796D01*
X218620Y111691D01*
X218652Y111585D01*
X218681Y111478D01*
X218706Y111370D01*
X218727Y111261D01*
X218744Y111152D01*
X218758Y111042D01*
X218767Y110931D01*
X218773Y110821D01*
X218775Y110710D01*
X218775Y107535D01*
X223855Y119283D02*
X212425Y119283D01*
X223855Y118013D02*
X223855Y120553D01*
X212425Y120553D02*
X212425Y118013D01*
X212425Y125633D02*
X223855Y125633D01*
X223855Y131983D02*
X212425Y125633D01*
X212425Y131983D02*
X223855Y131983D01*
X223855Y137850D02*
X223855Y142930D01*
X223855Y137850D02*
X212425Y137850D01*
X212425Y142930D01*
X217505Y141660D02*
X217505Y137850D01*
X223855Y150778D02*
X223853Y150878D01*
X223847Y150977D01*
X223837Y151077D01*
X223824Y151175D01*
X223806Y151274D01*
X223785Y151371D01*
X223760Y151467D01*
X223731Y151563D01*
X223698Y151657D01*
X223662Y151750D01*
X223622Y151841D01*
X223578Y151931D01*
X223531Y152019D01*
X223481Y152105D01*
X223427Y152189D01*
X223370Y152271D01*
X223310Y152350D01*
X223246Y152428D01*
X223180Y152502D01*
X223111Y152574D01*
X223039Y152643D01*
X222965Y152709D01*
X222887Y152773D01*
X222808Y152833D01*
X222726Y152890D01*
X222642Y152944D01*
X222556Y152994D01*
X222468Y153041D01*
X222378Y153085D01*
X222287Y153125D01*
X222194Y153161D01*
X222100Y153194D01*
X222004Y153223D01*
X221908Y153248D01*
X221811Y153269D01*
X221712Y153287D01*
X221614Y153300D01*
X221514Y153310D01*
X221415Y153316D01*
X221315Y153318D01*
X223855Y150778D02*
X223853Y150637D01*
X223848Y150496D01*
X223838Y150355D01*
X223825Y150214D01*
X223809Y150074D01*
X223788Y149934D01*
X223764Y149795D01*
X223736Y149656D01*
X223705Y149519D01*
X223670Y149382D01*
X223632Y149246D01*
X223590Y149111D01*
X223544Y148978D01*
X223495Y148845D01*
X223442Y148714D01*
X223386Y148585D01*
X223327Y148456D01*
X223264Y148330D01*
X223198Y148205D01*
X223129Y148082D01*
X223056Y147961D01*
X222980Y147842D01*
X222901Y147724D01*
X222820Y147609D01*
X222735Y147497D01*
X222647Y147386D01*
X222556Y147278D01*
X222463Y147172D01*
X222366Y147069D01*
X222267Y146968D01*
X214965Y147286D02*
X214865Y147288D01*
X214766Y147294D01*
X214666Y147304D01*
X214568Y147317D01*
X214469Y147335D01*
X214372Y147356D01*
X214276Y147381D01*
X214180Y147410D01*
X214086Y147443D01*
X213993Y147479D01*
X213902Y147519D01*
X213812Y147563D01*
X213724Y147610D01*
X213638Y147660D01*
X213554Y147714D01*
X213472Y147771D01*
X213393Y147831D01*
X213315Y147895D01*
X213241Y147961D01*
X213169Y148030D01*
X213100Y148102D01*
X213034Y148176D01*
X212970Y148254D01*
X212910Y148333D01*
X212853Y148415D01*
X212799Y148499D01*
X212749Y148585D01*
X212702Y148673D01*
X212658Y148763D01*
X212618Y148854D01*
X212582Y148947D01*
X212549Y149041D01*
X212520Y149137D01*
X212495Y149233D01*
X212474Y149330D01*
X212456Y149429D01*
X212443Y149527D01*
X212433Y149627D01*
X212427Y149726D01*
X212425Y149826D01*
X212427Y149959D01*
X212432Y150092D01*
X212442Y150225D01*
X212455Y150358D01*
X212472Y150490D01*
X212492Y150622D01*
X212516Y150753D01*
X212544Y150883D01*
X212575Y151013D01*
X212610Y151141D01*
X212649Y151269D01*
X212691Y151395D01*
X212737Y151520D01*
X212786Y151644D01*
X212838Y151767D01*
X212894Y151888D01*
X212954Y152007D01*
X213016Y152125D01*
X213082Y152240D01*
X213151Y152354D01*
X213224Y152466D01*
X213299Y152576D01*
X213378Y152684D01*
X217188Y148556D02*
X217136Y148472D01*
X217081Y148389D01*
X217022Y148309D01*
X216961Y148231D01*
X216897Y148156D01*
X216829Y148083D01*
X216759Y148012D01*
X216687Y147945D01*
X216612Y147880D01*
X216534Y147818D01*
X216454Y147759D01*
X216372Y147703D01*
X216288Y147651D01*
X216202Y147602D01*
X216114Y147556D01*
X216024Y147513D01*
X215933Y147474D01*
X215840Y147439D01*
X215746Y147407D01*
X215651Y147379D01*
X215555Y147354D01*
X215458Y147334D01*
X215360Y147316D01*
X215262Y147303D01*
X215163Y147294D01*
X215064Y147288D01*
X214965Y147286D01*
X219092Y152049D02*
X219144Y152133D01*
X219199Y152216D01*
X219258Y152296D01*
X219319Y152374D01*
X219383Y152449D01*
X219451Y152522D01*
X219521Y152593D01*
X219593Y152660D01*
X219668Y152725D01*
X219746Y152787D01*
X219826Y152846D01*
X219908Y152902D01*
X219992Y152954D01*
X220078Y153003D01*
X220166Y153049D01*
X220256Y153092D01*
X220347Y153131D01*
X220440Y153166D01*
X220534Y153198D01*
X220629Y153226D01*
X220725Y153251D01*
X220822Y153271D01*
X220920Y153289D01*
X221018Y153302D01*
X221117Y153311D01*
X221216Y153317D01*
X221315Y153319D01*
X219093Y152048D02*
X217188Y148556D01*
X225125Y157509D02*
X225125Y162589D01*
X223855Y170590D02*
X223853Y170690D01*
X223847Y170789D01*
X223837Y170889D01*
X223824Y170987D01*
X223806Y171086D01*
X223785Y171183D01*
X223760Y171279D01*
X223731Y171375D01*
X223698Y171469D01*
X223662Y171562D01*
X223622Y171653D01*
X223578Y171743D01*
X223531Y171831D01*
X223481Y171917D01*
X223427Y172001D01*
X223370Y172083D01*
X223310Y172162D01*
X223246Y172240D01*
X223180Y172314D01*
X223111Y172386D01*
X223039Y172455D01*
X222965Y172521D01*
X222887Y172585D01*
X222808Y172645D01*
X222726Y172702D01*
X222642Y172756D01*
X222556Y172806D01*
X222468Y172853D01*
X222378Y172897D01*
X222287Y172937D01*
X222194Y172973D01*
X222100Y173006D01*
X222004Y173035D01*
X221908Y173060D01*
X221811Y173081D01*
X221712Y173099D01*
X221614Y173112D01*
X221514Y173122D01*
X221415Y173128D01*
X221315Y173130D01*
X223855Y170590D02*
X223853Y170449D01*
X223848Y170308D01*
X223838Y170167D01*
X223825Y170026D01*
X223809Y169886D01*
X223788Y169746D01*
X223764Y169607D01*
X223736Y169468D01*
X223705Y169331D01*
X223670Y169194D01*
X223632Y169058D01*
X223590Y168923D01*
X223544Y168790D01*
X223495Y168657D01*
X223442Y168526D01*
X223386Y168397D01*
X223327Y168268D01*
X223264Y168142D01*
X223198Y168017D01*
X223129Y167894D01*
X223056Y167773D01*
X222980Y167654D01*
X222901Y167536D01*
X222820Y167421D01*
X222735Y167309D01*
X222647Y167198D01*
X222556Y167090D01*
X222463Y166984D01*
X222366Y166881D01*
X222267Y166780D01*
X214965Y167098D02*
X214865Y167100D01*
X214766Y167106D01*
X214666Y167116D01*
X214568Y167129D01*
X214469Y167147D01*
X214372Y167168D01*
X214276Y167193D01*
X214180Y167222D01*
X214086Y167255D01*
X213993Y167291D01*
X213902Y167331D01*
X213812Y167375D01*
X213724Y167422D01*
X213638Y167472D01*
X213554Y167526D01*
X213472Y167583D01*
X213393Y167643D01*
X213315Y167707D01*
X213241Y167773D01*
X213169Y167842D01*
X213100Y167914D01*
X213034Y167988D01*
X212970Y168066D01*
X212910Y168145D01*
X212853Y168227D01*
X212799Y168311D01*
X212749Y168397D01*
X212702Y168485D01*
X212658Y168575D01*
X212618Y168666D01*
X212582Y168759D01*
X212549Y168853D01*
X212520Y168949D01*
X212495Y169045D01*
X212474Y169142D01*
X212456Y169241D01*
X212443Y169339D01*
X212433Y169439D01*
X212427Y169538D01*
X212425Y169638D01*
X212427Y169771D01*
X212432Y169904D01*
X212442Y170037D01*
X212455Y170170D01*
X212472Y170302D01*
X212492Y170434D01*
X212516Y170565D01*
X212544Y170695D01*
X212575Y170825D01*
X212610Y170953D01*
X212649Y171081D01*
X212691Y171207D01*
X212737Y171332D01*
X212786Y171456D01*
X212838Y171579D01*
X212894Y171700D01*
X212954Y171819D01*
X213016Y171937D01*
X213082Y172052D01*
X213151Y172166D01*
X213224Y172278D01*
X213299Y172388D01*
X213378Y172496D01*
X217188Y168368D02*
X217136Y168284D01*
X217081Y168201D01*
X217022Y168121D01*
X216961Y168043D01*
X216897Y167968D01*
X216829Y167895D01*
X216759Y167824D01*
X216687Y167757D01*
X216612Y167692D01*
X216534Y167630D01*
X216454Y167571D01*
X216372Y167515D01*
X216288Y167463D01*
X216202Y167414D01*
X216114Y167368D01*
X216024Y167325D01*
X215933Y167286D01*
X215840Y167251D01*
X215746Y167219D01*
X215651Y167191D01*
X215555Y167166D01*
X215458Y167146D01*
X215360Y167128D01*
X215262Y167115D01*
X215163Y167106D01*
X215064Y167100D01*
X214965Y167098D01*
X219092Y171861D02*
X219144Y171945D01*
X219199Y172028D01*
X219258Y172108D01*
X219319Y172186D01*
X219383Y172261D01*
X219451Y172334D01*
X219521Y172405D01*
X219593Y172472D01*
X219668Y172537D01*
X219746Y172599D01*
X219826Y172658D01*
X219908Y172714D01*
X219992Y172766D01*
X220078Y172815D01*
X220166Y172861D01*
X220256Y172904D01*
X220347Y172943D01*
X220440Y172978D01*
X220534Y173010D01*
X220629Y173038D01*
X220725Y173063D01*
X220822Y173083D01*
X220920Y173101D01*
X221018Y173114D01*
X221117Y173123D01*
X221216Y173129D01*
X221315Y173131D01*
X219093Y171860D02*
X217188Y168368D01*
X212425Y177448D02*
X223855Y179988D01*
X216235Y182528D01*
X223855Y185068D01*
X212425Y187608D01*
X212425Y193196D02*
X223855Y193196D01*
X223855Y191926D02*
X223855Y194466D01*
X212425Y194466D02*
X212425Y191926D01*
X212425Y201578D02*
X223855Y201578D01*
X212425Y198403D02*
X212425Y204753D01*
X223855Y211574D02*
X223855Y214114D01*
X223855Y211574D02*
X223853Y211474D01*
X223847Y211375D01*
X223837Y211275D01*
X223824Y211177D01*
X223806Y211078D01*
X223785Y210981D01*
X223760Y210885D01*
X223731Y210789D01*
X223698Y210695D01*
X223662Y210602D01*
X223622Y210511D01*
X223578Y210421D01*
X223531Y210333D01*
X223481Y210247D01*
X223427Y210163D01*
X223370Y210081D01*
X223310Y210002D01*
X223246Y209924D01*
X223180Y209850D01*
X223111Y209778D01*
X223039Y209709D01*
X222965Y209643D01*
X222887Y209579D01*
X222808Y209519D01*
X222726Y209462D01*
X222642Y209408D01*
X222556Y209358D01*
X222468Y209311D01*
X222378Y209267D01*
X222287Y209227D01*
X222194Y209191D01*
X222100Y209158D01*
X222004Y209129D01*
X221908Y209104D01*
X221811Y209083D01*
X221712Y209065D01*
X221614Y209052D01*
X221514Y209042D01*
X221415Y209036D01*
X221315Y209034D01*
X214965Y209034D01*
X214865Y209036D01*
X214766Y209042D01*
X214666Y209052D01*
X214568Y209065D01*
X214469Y209083D01*
X214372Y209104D01*
X214276Y209129D01*
X214180Y209158D01*
X214086Y209191D01*
X213993Y209227D01*
X213902Y209267D01*
X213812Y209311D01*
X213724Y209358D01*
X213638Y209408D01*
X213554Y209462D01*
X213472Y209519D01*
X213393Y209579D01*
X213315Y209643D01*
X213241Y209709D01*
X213169Y209778D01*
X213100Y209850D01*
X213034Y209924D01*
X212970Y210002D01*
X212910Y210081D01*
X212853Y210163D01*
X212799Y210247D01*
X212749Y210333D01*
X212702Y210421D01*
X212658Y210511D01*
X212618Y210602D01*
X212582Y210695D01*
X212549Y210789D01*
X212520Y210885D01*
X212495Y210981D01*
X212474Y211078D01*
X212456Y211177D01*
X212443Y211275D01*
X212433Y211375D01*
X212427Y211474D01*
X212425Y211574D01*
X212425Y214114D01*
X212425Y218977D02*
X223855Y218977D01*
X217505Y218977D02*
X217505Y225327D01*
X212425Y225327D02*
X223855Y225327D01*
X586300Y57700D02*
X586300Y46300D01*
X569700Y46300D02*
X569700Y57700D01*
D14*
X590054Y42684D02*
X594546Y42684D01*
X590054Y42684D02*
X590054Y43931D01*
X590056Y44000D01*
X590062Y44068D01*
X590071Y44136D01*
X590084Y44204D01*
X590101Y44271D01*
X590122Y44336D01*
X590146Y44401D01*
X590173Y44464D01*
X590204Y44525D01*
X590239Y44585D01*
X590276Y44642D01*
X590317Y44698D01*
X590361Y44751D01*
X590407Y44801D01*
X590457Y44849D01*
X590509Y44894D01*
X590563Y44937D01*
X590619Y44976D01*
X590678Y45012D01*
X590738Y45045D01*
X590801Y45074D01*
X590864Y45100D01*
X590929Y45122D01*
X590996Y45141D01*
X591063Y45156D01*
X591131Y45167D01*
X591199Y45175D01*
X591268Y45179D01*
X591336Y45179D01*
X591405Y45175D01*
X591473Y45167D01*
X591541Y45156D01*
X591608Y45141D01*
X591675Y45122D01*
X591740Y45100D01*
X591803Y45074D01*
X591866Y45045D01*
X591926Y45012D01*
X591985Y44976D01*
X592041Y44937D01*
X592095Y44894D01*
X592147Y44849D01*
X592197Y44801D01*
X592243Y44751D01*
X592287Y44698D01*
X592328Y44642D01*
X592365Y44585D01*
X592400Y44525D01*
X592431Y44464D01*
X592458Y44401D01*
X592482Y44336D01*
X592503Y44271D01*
X592520Y44204D01*
X592533Y44136D01*
X592542Y44068D01*
X592548Y44000D01*
X592550Y43931D01*
X592550Y42684D01*
X592550Y44181D02*
X594546Y45179D01*
X595045Y46950D02*
X595045Y48947D01*
X594546Y50951D02*
X590054Y50951D01*
X592550Y52448D01*
X590054Y53946D01*
X594546Y53946D01*
X593298Y56151D02*
X591302Y56151D01*
X591302Y56150D02*
X591233Y56152D01*
X591165Y56158D01*
X591097Y56167D01*
X591029Y56180D01*
X590962Y56197D01*
X590897Y56218D01*
X590832Y56242D01*
X590769Y56269D01*
X590708Y56300D01*
X590648Y56335D01*
X590591Y56372D01*
X590535Y56413D01*
X590482Y56457D01*
X590432Y56503D01*
X590384Y56553D01*
X590339Y56605D01*
X590296Y56659D01*
X590257Y56715D01*
X590221Y56774D01*
X590188Y56834D01*
X590159Y56897D01*
X590133Y56960D01*
X590111Y57025D01*
X590092Y57092D01*
X590077Y57159D01*
X590066Y57227D01*
X590058Y57295D01*
X590054Y57364D01*
X590054Y57432D01*
X590058Y57501D01*
X590066Y57569D01*
X590077Y57637D01*
X590092Y57704D01*
X590111Y57771D01*
X590133Y57836D01*
X590159Y57899D01*
X590188Y57962D01*
X590221Y58022D01*
X590257Y58081D01*
X590296Y58137D01*
X590339Y58191D01*
X590384Y58243D01*
X590432Y58293D01*
X590482Y58339D01*
X590535Y58383D01*
X590591Y58424D01*
X590648Y58461D01*
X590708Y58496D01*
X590769Y58527D01*
X590832Y58554D01*
X590897Y58578D01*
X590962Y58599D01*
X591029Y58616D01*
X591097Y58629D01*
X591165Y58638D01*
X591233Y58644D01*
X591302Y58646D01*
X593298Y58646D01*
X593367Y58644D01*
X593435Y58638D01*
X593503Y58629D01*
X593571Y58616D01*
X593638Y58599D01*
X593703Y58578D01*
X593768Y58554D01*
X593831Y58527D01*
X593892Y58496D01*
X593952Y58461D01*
X594009Y58424D01*
X594065Y58383D01*
X594118Y58339D01*
X594168Y58293D01*
X594216Y58243D01*
X594261Y58191D01*
X594304Y58137D01*
X594343Y58081D01*
X594379Y58022D01*
X594412Y57962D01*
X594441Y57899D01*
X594467Y57836D01*
X594489Y57771D01*
X594508Y57704D01*
X594523Y57637D01*
X594534Y57569D01*
X594542Y57501D01*
X594546Y57432D01*
X594546Y57364D01*
X594542Y57295D01*
X594534Y57227D01*
X594523Y57159D01*
X594508Y57092D01*
X594489Y57025D01*
X594467Y56960D01*
X594441Y56897D01*
X594412Y56834D01*
X594379Y56774D01*
X594343Y56715D01*
X594304Y56659D01*
X594261Y56605D01*
X594216Y56553D01*
X594168Y56503D01*
X594118Y56457D01*
X594065Y56413D01*
X594009Y56372D01*
X593952Y56335D01*
X593892Y56300D01*
X593831Y56269D01*
X593768Y56242D01*
X593703Y56218D01*
X593638Y56197D01*
X593571Y56180D01*
X593503Y56167D01*
X593435Y56158D01*
X593367Y56152D01*
X593298Y56150D01*
X594546Y61998D02*
X594544Y62058D01*
X594539Y62118D01*
X594530Y62178D01*
X594517Y62237D01*
X594501Y62295D01*
X594481Y62352D01*
X594458Y62408D01*
X594432Y62462D01*
X594402Y62514D01*
X594369Y62565D01*
X594334Y62613D01*
X594295Y62660D01*
X594254Y62704D01*
X594210Y62745D01*
X594163Y62784D01*
X594115Y62819D01*
X594064Y62852D01*
X594012Y62882D01*
X593958Y62908D01*
X593902Y62931D01*
X593845Y62951D01*
X593787Y62967D01*
X593728Y62980D01*
X593668Y62989D01*
X593608Y62994D01*
X593548Y62996D01*
X594546Y61998D02*
X594544Y61910D01*
X594539Y61823D01*
X594530Y61736D01*
X594517Y61649D01*
X594501Y61563D01*
X594481Y61478D01*
X594457Y61393D01*
X594431Y61310D01*
X594400Y61227D01*
X594366Y61147D01*
X594329Y61067D01*
X594289Y60989D01*
X594246Y60913D01*
X594199Y60839D01*
X594149Y60767D01*
X594097Y60697D01*
X594041Y60629D01*
X593983Y60563D01*
X593922Y60500D01*
X591052Y60626D02*
X590992Y60628D01*
X590932Y60633D01*
X590872Y60642D01*
X590813Y60655D01*
X590755Y60671D01*
X590698Y60691D01*
X590642Y60714D01*
X590588Y60740D01*
X590536Y60770D01*
X590485Y60803D01*
X590437Y60838D01*
X590390Y60877D01*
X590346Y60918D01*
X590305Y60962D01*
X590266Y61009D01*
X590231Y61057D01*
X590198Y61108D01*
X590168Y61160D01*
X590142Y61214D01*
X590119Y61270D01*
X590099Y61327D01*
X590083Y61385D01*
X590070Y61444D01*
X590061Y61504D01*
X590056Y61564D01*
X590054Y61624D01*
X590056Y61710D01*
X590062Y61796D01*
X590072Y61881D01*
X590086Y61966D01*
X590103Y62050D01*
X590125Y62134D01*
X590150Y62216D01*
X590179Y62297D01*
X590212Y62377D01*
X590248Y62454D01*
X590288Y62531D01*
X590332Y62605D01*
X590378Y62677D01*
X590428Y62747D01*
X591926Y61124D02*
X591893Y61072D01*
X591856Y61022D01*
X591817Y60974D01*
X591775Y60928D01*
X591730Y60885D01*
X591683Y60845D01*
X591634Y60808D01*
X591582Y60774D01*
X591528Y60744D01*
X591472Y60716D01*
X591415Y60692D01*
X591357Y60672D01*
X591297Y60655D01*
X591237Y60642D01*
X591176Y60633D01*
X591114Y60627D01*
X591052Y60625D01*
X592674Y62497D02*
X592707Y62549D01*
X592744Y62599D01*
X592783Y62647D01*
X592825Y62693D01*
X592870Y62736D01*
X592917Y62776D01*
X592966Y62813D01*
X593018Y62847D01*
X593072Y62877D01*
X593128Y62905D01*
X593185Y62929D01*
X593243Y62949D01*
X593303Y62966D01*
X593363Y62979D01*
X593424Y62988D01*
X593486Y62994D01*
X593548Y62996D01*
X592674Y62497D02*
X591926Y61124D01*
X590054Y65011D02*
X594546Y65011D01*
X590054Y65011D02*
X590054Y67007D01*
X592050Y67007D02*
X592050Y65011D01*
X594546Y68911D02*
X594546Y70907D01*
X594546Y68911D02*
X590054Y68911D01*
X590054Y70907D01*
X592050Y70408D02*
X592050Y68911D01*
X590054Y73598D02*
X594546Y73598D01*
X590054Y72350D02*
X590054Y74846D01*
D13*
X295700Y71700D02*
X284300Y71700D01*
X284300Y88300D02*
X295700Y88300D01*
D14*
X281884Y67946D02*
X281884Y63454D01*
X281884Y67946D02*
X283131Y67946D01*
X283200Y67944D01*
X283268Y67938D01*
X283336Y67929D01*
X283404Y67916D01*
X283471Y67899D01*
X283536Y67878D01*
X283601Y67854D01*
X283664Y67827D01*
X283725Y67796D01*
X283785Y67761D01*
X283842Y67724D01*
X283898Y67683D01*
X283951Y67639D01*
X284001Y67593D01*
X284049Y67543D01*
X284094Y67491D01*
X284137Y67437D01*
X284176Y67381D01*
X284212Y67322D01*
X284245Y67262D01*
X284274Y67199D01*
X284300Y67136D01*
X284322Y67071D01*
X284341Y67004D01*
X284356Y66937D01*
X284367Y66869D01*
X284375Y66801D01*
X284379Y66732D01*
X284379Y66664D01*
X284375Y66595D01*
X284367Y66527D01*
X284356Y66459D01*
X284341Y66392D01*
X284322Y66325D01*
X284300Y66260D01*
X284274Y66197D01*
X284245Y66134D01*
X284212Y66074D01*
X284176Y66015D01*
X284137Y65959D01*
X284094Y65905D01*
X284049Y65853D01*
X284001Y65803D01*
X283951Y65757D01*
X283898Y65713D01*
X283842Y65672D01*
X283785Y65635D01*
X283725Y65600D01*
X283664Y65569D01*
X283601Y65542D01*
X283536Y65518D01*
X283471Y65497D01*
X283404Y65480D01*
X283336Y65467D01*
X283268Y65458D01*
X283200Y65452D01*
X283131Y65450D01*
X281884Y65450D01*
X283381Y65450D02*
X284379Y63454D01*
X286150Y62955D02*
X288147Y62955D01*
X291298Y63454D02*
X291361Y63456D01*
X291423Y63462D01*
X291485Y63472D01*
X291546Y63485D01*
X291606Y63503D01*
X291665Y63524D01*
X291723Y63549D01*
X291779Y63577D01*
X291833Y63609D01*
X291885Y63645D01*
X291934Y63683D01*
X291981Y63725D01*
X292026Y63769D01*
X292067Y63816D01*
X292105Y63865D01*
X292141Y63917D01*
X292173Y63971D01*
X292201Y64027D01*
X292226Y64085D01*
X292247Y64144D01*
X292265Y64204D01*
X292278Y64265D01*
X292288Y64327D01*
X292294Y64389D01*
X292296Y64452D01*
X291298Y63454D02*
X291210Y63456D01*
X291123Y63461D01*
X291036Y63470D01*
X290949Y63483D01*
X290863Y63499D01*
X290778Y63519D01*
X290693Y63543D01*
X290610Y63569D01*
X290527Y63600D01*
X290447Y63634D01*
X290367Y63671D01*
X290289Y63711D01*
X290213Y63754D01*
X290139Y63801D01*
X290067Y63851D01*
X289997Y63903D01*
X289929Y63959D01*
X289863Y64017D01*
X289800Y64078D01*
X289926Y66948D02*
X289928Y67008D01*
X289933Y67068D01*
X289942Y67128D01*
X289955Y67187D01*
X289971Y67245D01*
X289991Y67302D01*
X290014Y67358D01*
X290040Y67412D01*
X290070Y67464D01*
X290103Y67515D01*
X290138Y67563D01*
X290177Y67610D01*
X290218Y67654D01*
X290262Y67695D01*
X290309Y67734D01*
X290357Y67769D01*
X290408Y67802D01*
X290460Y67832D01*
X290514Y67858D01*
X290570Y67881D01*
X290627Y67901D01*
X290685Y67917D01*
X290744Y67930D01*
X290804Y67939D01*
X290864Y67944D01*
X290924Y67946D01*
X291010Y67944D01*
X291096Y67938D01*
X291181Y67928D01*
X291266Y67914D01*
X291350Y67897D01*
X291434Y67875D01*
X291516Y67850D01*
X291597Y67821D01*
X291677Y67788D01*
X291754Y67752D01*
X291831Y67712D01*
X291905Y67668D01*
X291977Y67622D01*
X292047Y67572D01*
X290424Y66074D02*
X290372Y66107D01*
X290322Y66144D01*
X290274Y66183D01*
X290228Y66225D01*
X290185Y66270D01*
X290145Y66317D01*
X290108Y66366D01*
X290074Y66418D01*
X290044Y66472D01*
X290016Y66528D01*
X289992Y66585D01*
X289972Y66643D01*
X289955Y66703D01*
X289942Y66763D01*
X289933Y66824D01*
X289927Y66886D01*
X289925Y66948D01*
X291797Y65326D02*
X291849Y65293D01*
X291899Y65256D01*
X291947Y65217D01*
X291993Y65175D01*
X292036Y65130D01*
X292076Y65083D01*
X292113Y65034D01*
X292147Y64982D01*
X292177Y64928D01*
X292205Y64872D01*
X292229Y64815D01*
X292249Y64757D01*
X292266Y64697D01*
X292279Y64637D01*
X292288Y64576D01*
X292294Y64514D01*
X292296Y64452D01*
X291797Y65326D02*
X290424Y66074D01*
X294002Y67946D02*
X295000Y63454D01*
X295998Y66449D01*
X296997Y63454D01*
X297995Y67946D01*
X300198Y67946D02*
X300198Y63454D01*
X299699Y63454D02*
X300697Y63454D01*
X300697Y67946D02*
X299699Y67946D01*
X303498Y67946D02*
X303498Y63454D01*
X302251Y67946D02*
X304746Y67946D01*
X307434Y63454D02*
X308432Y63454D01*
X307434Y63454D02*
X307374Y63456D01*
X307314Y63461D01*
X307254Y63470D01*
X307195Y63483D01*
X307137Y63499D01*
X307080Y63519D01*
X307024Y63542D01*
X306970Y63568D01*
X306918Y63598D01*
X306867Y63631D01*
X306819Y63666D01*
X306772Y63705D01*
X306728Y63746D01*
X306687Y63790D01*
X306648Y63837D01*
X306613Y63885D01*
X306580Y63936D01*
X306550Y63988D01*
X306524Y64042D01*
X306501Y64098D01*
X306481Y64155D01*
X306465Y64213D01*
X306452Y64272D01*
X306443Y64332D01*
X306438Y64392D01*
X306436Y64452D01*
X306436Y66948D01*
X306438Y67011D01*
X306444Y67073D01*
X306454Y67135D01*
X306467Y67196D01*
X306485Y67256D01*
X306506Y67315D01*
X306531Y67373D01*
X306559Y67429D01*
X306591Y67483D01*
X306627Y67535D01*
X306665Y67584D01*
X306706Y67631D01*
X306751Y67675D01*
X306798Y67717D01*
X306847Y67755D01*
X306899Y67791D01*
X306953Y67823D01*
X307009Y67851D01*
X307067Y67876D01*
X307126Y67897D01*
X307186Y67915D01*
X307247Y67928D01*
X307309Y67938D01*
X307371Y67944D01*
X307434Y67946D01*
X308432Y67946D01*
X310350Y67946D02*
X310350Y63454D01*
X310350Y65950D02*
X312846Y65950D01*
X312846Y67946D02*
X312846Y63454D01*
D15*
X760000Y83750D02*
X760000Y206250D01*
X718000Y206250D02*
X718000Y185000D01*
X718000Y105000D02*
X718000Y83750D01*
D16*
X695000Y115000D03*
D17*
X694956Y114998D01*
X694913Y114992D01*
X694871Y114983D01*
X694829Y114970D01*
X694789Y114953D01*
X694750Y114933D01*
X694713Y114910D01*
X694679Y114883D01*
X694646Y114854D01*
X694617Y114821D01*
X694590Y114787D01*
X694567Y114750D01*
X694547Y114711D01*
X694530Y114671D01*
X694517Y114629D01*
X694508Y114587D01*
X694502Y114544D01*
X694500Y114500D01*
X694502Y114456D01*
X694508Y114413D01*
X694517Y114371D01*
X694530Y114329D01*
X694547Y114289D01*
X694567Y114250D01*
X694590Y114213D01*
X694617Y114179D01*
X694646Y114146D01*
X694679Y114117D01*
X694713Y114090D01*
X694750Y114067D01*
X694789Y114047D01*
X694829Y114030D01*
X694871Y114017D01*
X694913Y114008D01*
X694956Y114002D01*
X695000Y114000D01*
D16*
X695000Y114000D03*
D17*
X695044Y114002D01*
X695087Y114008D01*
X695129Y114017D01*
X695171Y114030D01*
X695211Y114047D01*
X695250Y114067D01*
X695287Y114090D01*
X695321Y114117D01*
X695354Y114146D01*
X695383Y114179D01*
X695410Y114213D01*
X695433Y114250D01*
X695453Y114289D01*
X695470Y114329D01*
X695483Y114371D01*
X695492Y114413D01*
X695498Y114456D01*
X695500Y114500D01*
X695498Y114544D01*
X695492Y114587D01*
X695483Y114629D01*
X695470Y114671D01*
X695453Y114711D01*
X695433Y114750D01*
X695410Y114787D01*
X695383Y114821D01*
X695354Y114854D01*
X695321Y114883D01*
X695287Y114910D01*
X695250Y114933D01*
X695211Y114953D01*
X695171Y114970D01*
X695129Y114983D01*
X695087Y114992D01*
X695044Y114998D01*
X695000Y115000D01*
D11*
X733092Y94162D02*
X733092Y91566D01*
X733090Y91467D01*
X733084Y91367D01*
X733075Y91268D01*
X733062Y91170D01*
X733045Y91072D01*
X733024Y90974D01*
X732999Y90878D01*
X732971Y90783D01*
X732939Y90689D01*
X732904Y90596D01*
X732865Y90504D01*
X732822Y90414D01*
X732777Y90326D01*
X732727Y90239D01*
X732675Y90155D01*
X732619Y90072D01*
X732561Y89992D01*
X732499Y89914D01*
X732434Y89839D01*
X732366Y89766D01*
X732296Y89696D01*
X732223Y89628D01*
X732148Y89563D01*
X732070Y89501D01*
X731990Y89443D01*
X731907Y89387D01*
X731823Y89335D01*
X731736Y89285D01*
X731648Y89240D01*
X731558Y89197D01*
X731466Y89158D01*
X731373Y89123D01*
X731279Y89091D01*
X731184Y89063D01*
X731088Y89038D01*
X730990Y89017D01*
X730892Y89000D01*
X730794Y88987D01*
X730695Y88978D01*
X730595Y88972D01*
X730496Y88970D01*
X730496Y88969D02*
X724004Y88969D01*
X723905Y88971D01*
X723805Y88977D01*
X723706Y88986D01*
X723608Y88999D01*
X723510Y89017D01*
X723412Y89037D01*
X723316Y89062D01*
X723220Y89090D01*
X723126Y89122D01*
X723033Y89157D01*
X722942Y89196D01*
X722852Y89239D01*
X722763Y89284D01*
X722677Y89334D01*
X722592Y89386D01*
X722510Y89442D01*
X722430Y89501D01*
X722352Y89562D01*
X722276Y89627D01*
X722203Y89695D01*
X722133Y89765D01*
X722065Y89838D01*
X722000Y89914D01*
X721939Y89992D01*
X721880Y90072D01*
X721824Y90154D01*
X721772Y90239D01*
X721723Y90325D01*
X721677Y90414D01*
X721634Y90504D01*
X721595Y90595D01*
X721560Y90688D01*
X721528Y90782D01*
X721500Y90878D01*
X721475Y90974D01*
X721455Y91072D01*
X721437Y91170D01*
X721424Y91268D01*
X721415Y91367D01*
X721409Y91466D01*
X721407Y91566D01*
X721408Y91566D02*
X721408Y94162D01*
X724654Y98528D02*
X729846Y98528D01*
X724654Y98527D02*
X724541Y98529D01*
X724428Y98535D01*
X724315Y98545D01*
X724202Y98559D01*
X724090Y98576D01*
X723979Y98598D01*
X723869Y98623D01*
X723759Y98653D01*
X723651Y98686D01*
X723544Y98723D01*
X723438Y98763D01*
X723334Y98808D01*
X723231Y98856D01*
X723130Y98907D01*
X723031Y98962D01*
X722934Y99020D01*
X722839Y99082D01*
X722746Y99147D01*
X722656Y99215D01*
X722568Y99286D01*
X722482Y99361D01*
X722399Y99438D01*
X722319Y99518D01*
X722242Y99601D01*
X722167Y99687D01*
X722096Y99775D01*
X722028Y99865D01*
X721963Y99958D01*
X721901Y100053D01*
X721843Y100150D01*
X721788Y100249D01*
X721737Y100350D01*
X721689Y100453D01*
X721644Y100557D01*
X721604Y100663D01*
X721567Y100770D01*
X721534Y100878D01*
X721504Y100988D01*
X721479Y101098D01*
X721457Y101209D01*
X721440Y101321D01*
X721426Y101434D01*
X721416Y101547D01*
X721410Y101660D01*
X721408Y101773D01*
X721410Y101886D01*
X721416Y101999D01*
X721426Y102112D01*
X721440Y102225D01*
X721457Y102337D01*
X721479Y102448D01*
X721504Y102558D01*
X721534Y102668D01*
X721567Y102776D01*
X721604Y102883D01*
X721644Y102989D01*
X721689Y103093D01*
X721737Y103196D01*
X721788Y103297D01*
X721843Y103396D01*
X721901Y103493D01*
X721963Y103588D01*
X722028Y103681D01*
X722096Y103771D01*
X722167Y103859D01*
X722242Y103945D01*
X722319Y104028D01*
X722399Y104108D01*
X722482Y104185D01*
X722568Y104260D01*
X722656Y104331D01*
X722746Y104399D01*
X722839Y104464D01*
X722934Y104526D01*
X723031Y104584D01*
X723130Y104639D01*
X723231Y104690D01*
X723334Y104738D01*
X723438Y104783D01*
X723544Y104823D01*
X723651Y104860D01*
X723759Y104893D01*
X723869Y104923D01*
X723979Y104948D01*
X724090Y104970D01*
X724202Y104987D01*
X724315Y105001D01*
X724428Y105011D01*
X724541Y105017D01*
X724654Y105019D01*
X729846Y105019D01*
X729959Y105017D01*
X730072Y105011D01*
X730185Y105001D01*
X730298Y104987D01*
X730410Y104970D01*
X730521Y104948D01*
X730631Y104923D01*
X730741Y104893D01*
X730849Y104860D01*
X730956Y104823D01*
X731062Y104783D01*
X731166Y104738D01*
X731269Y104690D01*
X731370Y104639D01*
X731469Y104584D01*
X731566Y104526D01*
X731661Y104464D01*
X731754Y104399D01*
X731844Y104331D01*
X731932Y104260D01*
X732018Y104185D01*
X732101Y104108D01*
X732181Y104028D01*
X732258Y103945D01*
X732333Y103859D01*
X732404Y103771D01*
X732472Y103681D01*
X732537Y103588D01*
X732599Y103493D01*
X732657Y103396D01*
X732712Y103297D01*
X732763Y103196D01*
X732811Y103093D01*
X732856Y102989D01*
X732896Y102883D01*
X732933Y102776D01*
X732966Y102668D01*
X732996Y102558D01*
X733021Y102448D01*
X733043Y102337D01*
X733060Y102225D01*
X733074Y102112D01*
X733084Y101999D01*
X733090Y101886D01*
X733092Y101773D01*
X733090Y101660D01*
X733084Y101547D01*
X733074Y101434D01*
X733060Y101321D01*
X733043Y101209D01*
X733021Y101098D01*
X732996Y100988D01*
X732966Y100878D01*
X732933Y100770D01*
X732896Y100663D01*
X732856Y100557D01*
X732811Y100453D01*
X732763Y100350D01*
X732712Y100249D01*
X732657Y100150D01*
X732599Y100053D01*
X732537Y99958D01*
X732472Y99865D01*
X732404Y99775D01*
X732333Y99687D01*
X732258Y99601D01*
X732181Y99518D01*
X732101Y99438D01*
X732018Y99361D01*
X731932Y99286D01*
X731844Y99215D01*
X731754Y99147D01*
X731661Y99082D01*
X731566Y99020D01*
X731469Y98962D01*
X731370Y98907D01*
X731269Y98856D01*
X731166Y98808D01*
X731062Y98763D01*
X730956Y98723D01*
X730849Y98686D01*
X730741Y98653D01*
X730631Y98623D01*
X730521Y98598D01*
X730410Y98576D01*
X730298Y98559D01*
X730185Y98545D01*
X730072Y98535D01*
X729959Y98529D01*
X729846Y98527D01*
X733092Y110339D02*
X721408Y110339D01*
X733092Y116830D01*
X721408Y116830D01*
X733092Y122553D02*
X733092Y127746D01*
X733092Y122553D02*
X721408Y122553D01*
X721408Y127746D01*
X726601Y126448D02*
X726601Y122553D01*
X733092Y131406D02*
X721408Y139196D01*
X721408Y131406D02*
X733092Y139196D01*
X733092Y144445D02*
X721408Y144445D01*
X733092Y143147D02*
X733092Y145743D01*
X721408Y145743D02*
X721408Y143147D01*
X724654Y150344D02*
X729846Y150344D01*
X724654Y150343D02*
X724541Y150345D01*
X724428Y150351D01*
X724315Y150361D01*
X724202Y150375D01*
X724090Y150392D01*
X723979Y150414D01*
X723869Y150439D01*
X723759Y150469D01*
X723651Y150502D01*
X723544Y150539D01*
X723438Y150579D01*
X723334Y150624D01*
X723231Y150672D01*
X723130Y150723D01*
X723031Y150778D01*
X722934Y150836D01*
X722839Y150898D01*
X722746Y150963D01*
X722656Y151031D01*
X722568Y151102D01*
X722482Y151177D01*
X722399Y151254D01*
X722319Y151334D01*
X722242Y151417D01*
X722167Y151503D01*
X722096Y151591D01*
X722028Y151681D01*
X721963Y151774D01*
X721901Y151869D01*
X721843Y151966D01*
X721788Y152065D01*
X721737Y152166D01*
X721689Y152269D01*
X721644Y152373D01*
X721604Y152479D01*
X721567Y152586D01*
X721534Y152694D01*
X721504Y152804D01*
X721479Y152914D01*
X721457Y153025D01*
X721440Y153137D01*
X721426Y153250D01*
X721416Y153363D01*
X721410Y153476D01*
X721408Y153589D01*
X721410Y153702D01*
X721416Y153815D01*
X721426Y153928D01*
X721440Y154041D01*
X721457Y154153D01*
X721479Y154264D01*
X721504Y154374D01*
X721534Y154484D01*
X721567Y154592D01*
X721604Y154699D01*
X721644Y154805D01*
X721689Y154909D01*
X721737Y155012D01*
X721788Y155113D01*
X721843Y155212D01*
X721901Y155309D01*
X721963Y155404D01*
X722028Y155497D01*
X722096Y155587D01*
X722167Y155675D01*
X722242Y155761D01*
X722319Y155844D01*
X722399Y155924D01*
X722482Y156001D01*
X722568Y156076D01*
X722656Y156147D01*
X722746Y156215D01*
X722839Y156280D01*
X722934Y156342D01*
X723031Y156400D01*
X723130Y156455D01*
X723231Y156506D01*
X723334Y156554D01*
X723438Y156599D01*
X723544Y156639D01*
X723651Y156676D01*
X723759Y156709D01*
X723869Y156739D01*
X723979Y156764D01*
X724090Y156786D01*
X724202Y156803D01*
X724315Y156817D01*
X724428Y156827D01*
X724541Y156833D01*
X724654Y156835D01*
X729846Y156835D01*
X729959Y156833D01*
X730072Y156827D01*
X730185Y156817D01*
X730298Y156803D01*
X730410Y156786D01*
X730521Y156764D01*
X730631Y156739D01*
X730741Y156709D01*
X730849Y156676D01*
X730956Y156639D01*
X731062Y156599D01*
X731166Y156554D01*
X731269Y156506D01*
X731370Y156455D01*
X731469Y156400D01*
X731566Y156342D01*
X731661Y156280D01*
X731754Y156215D01*
X731844Y156147D01*
X731932Y156076D01*
X732018Y156001D01*
X732101Y155924D01*
X732181Y155844D01*
X732258Y155761D01*
X732333Y155675D01*
X732404Y155587D01*
X732472Y155497D01*
X732537Y155404D01*
X732599Y155309D01*
X732657Y155212D01*
X732712Y155113D01*
X732763Y155012D01*
X732811Y154909D01*
X732856Y154805D01*
X732896Y154699D01*
X732933Y154592D01*
X732966Y154484D01*
X732996Y154374D01*
X733021Y154264D01*
X733043Y154153D01*
X733060Y154041D01*
X733074Y153928D01*
X733084Y153815D01*
X733090Y153702D01*
X733092Y153589D01*
X733090Y153476D01*
X733084Y153363D01*
X733074Y153250D01*
X733060Y153137D01*
X733043Y153025D01*
X733021Y152914D01*
X732996Y152804D01*
X732966Y152694D01*
X732933Y152586D01*
X732896Y152479D01*
X732856Y152373D01*
X732811Y152269D01*
X732763Y152166D01*
X732712Y152065D01*
X732657Y151966D01*
X732599Y151869D01*
X732537Y151774D01*
X732472Y151681D01*
X732404Y151591D01*
X732333Y151503D01*
X732258Y151417D01*
X732181Y151334D01*
X732101Y151254D01*
X732018Y151177D01*
X731932Y151102D01*
X731844Y151031D01*
X731754Y150963D01*
X731661Y150898D01*
X731566Y150836D01*
X731469Y150778D01*
X731370Y150723D01*
X731269Y150672D01*
X731166Y150624D01*
X731062Y150579D01*
X730956Y150539D01*
X730849Y150502D01*
X730741Y150469D01*
X730631Y150439D01*
X730521Y150414D01*
X730410Y150392D01*
X730298Y150375D01*
X730185Y150361D01*
X730072Y150351D01*
X729959Y150345D01*
X729846Y150343D01*
X733092Y162155D02*
X721408Y162155D01*
X733092Y168646D01*
X721408Y168646D01*
X734390Y173472D02*
X734390Y178665D01*
X726601Y183660D02*
X726601Y186905D01*
X726600Y186905D02*
X726602Y187018D01*
X726608Y187131D01*
X726618Y187244D01*
X726632Y187357D01*
X726649Y187469D01*
X726671Y187580D01*
X726696Y187690D01*
X726726Y187800D01*
X726759Y187908D01*
X726796Y188015D01*
X726836Y188121D01*
X726881Y188225D01*
X726929Y188328D01*
X726980Y188429D01*
X727035Y188528D01*
X727093Y188625D01*
X727155Y188720D01*
X727220Y188813D01*
X727288Y188903D01*
X727359Y188991D01*
X727434Y189077D01*
X727511Y189160D01*
X727591Y189240D01*
X727674Y189317D01*
X727760Y189392D01*
X727848Y189463D01*
X727938Y189531D01*
X728031Y189596D01*
X728126Y189658D01*
X728223Y189716D01*
X728322Y189771D01*
X728423Y189822D01*
X728526Y189870D01*
X728630Y189915D01*
X728736Y189955D01*
X728843Y189992D01*
X728951Y190025D01*
X729061Y190055D01*
X729171Y190080D01*
X729282Y190102D01*
X729394Y190119D01*
X729507Y190133D01*
X729620Y190143D01*
X729733Y190149D01*
X729846Y190151D01*
X729959Y190149D01*
X730072Y190143D01*
X730185Y190133D01*
X730298Y190119D01*
X730410Y190102D01*
X730521Y190080D01*
X730631Y190055D01*
X730741Y190025D01*
X730849Y189992D01*
X730956Y189955D01*
X731062Y189915D01*
X731166Y189870D01*
X731269Y189822D01*
X731370Y189771D01*
X731469Y189716D01*
X731566Y189658D01*
X731661Y189596D01*
X731754Y189531D01*
X731844Y189463D01*
X731932Y189392D01*
X732018Y189317D01*
X732101Y189240D01*
X732181Y189160D01*
X732258Y189077D01*
X732333Y188991D01*
X732404Y188903D01*
X732472Y188813D01*
X732537Y188720D01*
X732599Y188625D01*
X732657Y188528D01*
X732712Y188429D01*
X732763Y188328D01*
X732811Y188225D01*
X732856Y188121D01*
X732896Y188015D01*
X732933Y187908D01*
X732966Y187800D01*
X732996Y187690D01*
X733021Y187580D01*
X733043Y187469D01*
X733060Y187357D01*
X733074Y187244D01*
X733084Y187131D01*
X733090Y187018D01*
X733092Y186905D01*
X733092Y183660D01*
X721408Y183660D01*
X721408Y186905D01*
X721410Y187006D01*
X721416Y187106D01*
X721426Y187206D01*
X721439Y187306D01*
X721457Y187405D01*
X721478Y187504D01*
X721503Y187601D01*
X721532Y187698D01*
X721565Y187793D01*
X721601Y187887D01*
X721641Y187979D01*
X721684Y188070D01*
X721731Y188159D01*
X721781Y188246D01*
X721835Y188332D01*
X721892Y188415D01*
X721952Y188495D01*
X722015Y188574D01*
X722082Y188650D01*
X722151Y188723D01*
X722223Y188793D01*
X722297Y188861D01*
X722374Y188926D01*
X722454Y188987D01*
X722536Y189046D01*
X722620Y189101D01*
X722706Y189153D01*
X722794Y189202D01*
X722884Y189247D01*
X722976Y189289D01*
X723069Y189327D01*
X723164Y189361D01*
X723259Y189392D01*
X723356Y189419D01*
X723454Y189442D01*
X723553Y189462D01*
X723653Y189477D01*
X723753Y189489D01*
X723853Y189497D01*
X723954Y189501D01*
X724054Y189501D01*
X724155Y189497D01*
X724255Y189489D01*
X724355Y189477D01*
X724455Y189462D01*
X724554Y189442D01*
X724652Y189419D01*
X724749Y189392D01*
X724844Y189361D01*
X724939Y189327D01*
X725032Y189289D01*
X725124Y189247D01*
X725214Y189202D01*
X725302Y189153D01*
X725388Y189101D01*
X725472Y189046D01*
X725554Y188987D01*
X725634Y188926D01*
X725711Y188861D01*
X725785Y188793D01*
X725857Y188723D01*
X725926Y188650D01*
X725993Y188574D01*
X726056Y188495D01*
X726116Y188415D01*
X726173Y188332D01*
X726227Y188246D01*
X726277Y188159D01*
X726324Y188070D01*
X726367Y187979D01*
X726407Y187887D01*
X726443Y187793D01*
X726476Y187698D01*
X726505Y187601D01*
X726530Y187504D01*
X726551Y187405D01*
X726569Y187306D01*
X726582Y187206D01*
X726592Y187106D01*
X726598Y187006D01*
X726600Y186905D01*
X721408Y198110D02*
X721410Y198217D01*
X721416Y198323D01*
X721426Y198429D01*
X721439Y198535D01*
X721457Y198641D01*
X721478Y198745D01*
X721503Y198849D01*
X721532Y198952D01*
X721564Y199053D01*
X721601Y199153D01*
X721641Y199252D01*
X721684Y199350D01*
X721731Y199446D01*
X721782Y199540D01*
X721836Y199632D01*
X721893Y199722D01*
X721953Y199810D01*
X722017Y199895D01*
X722084Y199978D01*
X722154Y200059D01*
X722226Y200137D01*
X722302Y200213D01*
X722380Y200285D01*
X722461Y200355D01*
X722544Y200422D01*
X722629Y200486D01*
X722717Y200546D01*
X722807Y200603D01*
X722899Y200657D01*
X722993Y200708D01*
X723089Y200755D01*
X723187Y200798D01*
X723286Y200838D01*
X723386Y200875D01*
X723487Y200907D01*
X723590Y200936D01*
X723694Y200961D01*
X723798Y200982D01*
X723904Y201000D01*
X724010Y201013D01*
X724116Y201023D01*
X724222Y201029D01*
X724329Y201031D01*
X721408Y198110D02*
X721410Y197989D01*
X721416Y197868D01*
X721426Y197748D01*
X721439Y197627D01*
X721457Y197508D01*
X721478Y197388D01*
X721503Y197270D01*
X721532Y197153D01*
X721565Y197036D01*
X721601Y196921D01*
X721642Y196807D01*
X721685Y196694D01*
X721733Y196582D01*
X721784Y196473D01*
X721839Y196365D01*
X721897Y196258D01*
X721958Y196154D01*
X722023Y196052D01*
X722091Y195952D01*
X722162Y195854D01*
X722236Y195758D01*
X722313Y195665D01*
X722394Y195575D01*
X722477Y195487D01*
X722563Y195402D01*
X722652Y195319D01*
X722743Y195240D01*
X722837Y195163D01*
X722933Y195090D01*
X723031Y195020D01*
X723132Y194953D01*
X723235Y194889D01*
X723340Y194829D01*
X723447Y194771D01*
X723555Y194718D01*
X723665Y194668D01*
X723777Y194622D01*
X723890Y194579D01*
X724005Y194540D01*
X726601Y200056D02*
X726523Y200135D01*
X726443Y200211D01*
X726360Y200284D01*
X726274Y200354D01*
X726187Y200421D01*
X726096Y200485D01*
X726004Y200545D01*
X725910Y200603D01*
X725813Y200657D01*
X725715Y200707D01*
X725615Y200754D01*
X725514Y200798D01*
X725411Y200838D01*
X725306Y200874D01*
X725201Y200906D01*
X725094Y200935D01*
X724987Y200960D01*
X724878Y200982D01*
X724769Y200999D01*
X724660Y201013D01*
X724550Y201022D01*
X724439Y201028D01*
X724329Y201030D01*
X726601Y200057D02*
X733092Y194539D01*
X733092Y201031D01*
M02*
