G04 EAGLE Gerber X2 export*
%TF.Part,Single*%
%TF.FileFunction,Soldermask,Top,1*%
%TF.FilePolarity,Negative*%
%TF.GenerationSoftware,Autodesk,EAGLE,9.1.0*%
%TF.CreationDate,2020-06-24T00:00:21Z*%
G75*
%MOMM*%
%FSLAX34Y34*%
%LPD*%
%AMOC8*
5,1,8,0,0,1.08239X$1,22.5*%
G01*
%ADD10R,1.253200X0.803200*%
%ADD11R,1.803200X1.003200*%
%ADD12R,3.203200X2.303200*%
%ADD13C,1.727200*%
%ADD14R,1.883200X1.363200*%
%ADD15R,1.363200X1.883200*%
%ADD16C,1.203200*%
%ADD17C,4.203200*%


D10*
X556000Y135500D03*
X556000Y154500D03*
X534000Y145000D03*
D11*
X130040Y188750D03*
X130040Y176250D03*
X130040Y163750D03*
X130040Y151250D03*
X130040Y138750D03*
X130040Y126250D03*
X130040Y113750D03*
X130040Y101250D03*
D12*
X101040Y75750D03*
X101040Y214250D03*
D13*
X233380Y119600D02*
X248620Y119600D01*
X248620Y145000D02*
X233380Y145000D01*
X233380Y170400D02*
X248620Y170400D01*
D14*
X578000Y66750D03*
X578000Y37250D03*
D15*
X304750Y80000D03*
X275250Y80000D03*
D11*
X710000Y113750D03*
X710000Y126250D03*
X710000Y138750D03*
X710000Y151250D03*
X710000Y163750D03*
X710000Y176250D03*
D12*
X739000Y88250D03*
X739000Y201750D03*
D16*
X242500Y210000D03*
D17*
X487500Y145000D03*
D16*
X90000Y126000D03*
X90000Y36000D03*
X735000Y165000D03*
X735000Y135000D03*
X97500Y150000D03*
D17*
X337500Y145000D03*
D16*
X270000Y210000D03*
M02*
