0
SECTION
2
HEADER
9
$ANGDIR
70
1
9
$AUNITS
70
0
9
$PROJECTNAME
1
interstage_A1
9
$TDCREATE
40
2458988.33401677
9
$INSUNITS
70
4
0
ENDSEC
0
SECTION
2
ENTITIES
0
POLYLINE
66
1
8
outline
10
0.0
20
0.0
30
0.0
70
1
0
VERTEX
8
0
10
0
20
1.27
30
0
0
VERTEX
8
0
10
0.0048312500000000005
20
1.1593125
30
0
0
VERTEX
8
0
10
0.019293750000000002
20
1.049465625
30
0
0
VERTEX
8
0
10
0.043275
20
0.9413
30
0
0
VERTEX
8
0
10
0.07659062500000001
20
0.835634375
30
0
0
VERTEX
8
0
10
0.118990625
20
0.733275
30
0
0
VERTEX
8
0
10
0.170146875
20
0.635
30
0
0
VERTEX
8
0
10
0.229678125
20
0.5415593750000001
30
0
0
VERTEX
8
0
10
0.29712500000000003
20
0.45365937500000003
30
0
0
VERTEX
8
0
10
0.371975
20
0.371975
30
0
0
VERTEX
8
0
10
0.45365937500000003
20
0.29712500000000003
30
0
0
VERTEX
8
0
10
0.5415593750000001
20
0.229678125
30
0
0
VERTEX
8
0
10
0.635
20
0.170146875
30
0
0
VERTEX
8
0
10
0.733275
20
0.118990625
30
0
0
VERTEX
8
0
10
0.835634375
20
0.07659062500000001
30
0
0
VERTEX
8
0
10
0.9413
20
0.043275
30
0
0
VERTEX
8
0
10
1.049465625
20
0.019293750000000002
30
0
0
VERTEX
8
0
10
1.1593125
20
0.0048312500000000005
30
0
0
VERTEX
8
0
10
1.27
20
0
30
0
0
VERTEX
8
0
10
81.23
20
0
30
0
0
VERTEX
8
0
10
81.3406875
20
0.0048312500000000005
30
0
0
VERTEX
8
0
10
81.450534375
20
0.019293750000000002
30
0
0
VERTEX
8
0
10
81.5587
20
0.043275
30
0
0
VERTEX
8
0
10
81.664365625
20
0.07659062500000001
30
0
0
VERTEX
8
0
10
81.76672500000001
20
0.118990625
30
0
0
VERTEX
8
0
10
81.86500000000001
20
0.170146875
30
0
0
VERTEX
8
0
10
81.95844062500001
20
0.229678125
30
0
0
VERTEX
8
0
10
82.046340625
20
0.29712500000000003
30
0
0
VERTEX
8
0
10
82.12802500000001
20
0.371975
30
0
0
VERTEX
8
0
10
82.202875
20
0.45365937500000003
30
0
0
VERTEX
8
0
10
82.27032187500001
20
0.5415593750000001
30
0
0
VERTEX
8
0
10
82.329853125
20
0.635
30
0
0
VERTEX
8
0
10
82.381009375
20
0.733275
30
0
0
VERTEX
8
0
10
82.423409375
20
0.835634375
30
0
0
VERTEX
8
0
10
82.456725
20
0.9413
30
0
0
VERTEX
8
0
10
82.48070625
20
1.049465625
30
0
0
VERTEX
8
0
10
82.49516875
20
1.1593125
30
0
0
VERTEX
8
0
10
82.5
20
1.27
30
0
0
VERTEX
8
0
10
82.5
20
27.73
30
0
0
VERTEX
8
0
10
82.49516875
20
27.8406875
30
0
0
VERTEX
8
0
10
82.48070625
20
27.950534375
30
0
0
VERTEX
8
0
10
82.456725
20
28.0587
30
0
0
VERTEX
8
0
10
82.423409375
20
28.164365625000002
30
0
0
VERTEX
8
0
10
82.381009375
20
28.266725
30
0
0
VERTEX
8
0
10
82.329853125
20
28.365000000000002
30
0
0
VERTEX
8
0
10
82.27032187500001
20
28.458440625
30
0
0
VERTEX
8
0
10
82.202875
20
28.546340625000003
30
0
0
VERTEX
8
0
10
82.12802500000001
20
28.628025
30
0
0
VERTEX
8
0
10
82.046340625
20
28.702875000000002
30
0
0
VERTEX
8
0
10
81.95844062500001
20
28.770321875
30
0
0
VERTEX
8
0
10
81.86500000000001
20
28.829853125
30
0
0
VERTEX
8
0
10
81.76672500000001
20
28.881009375
30
0
0
VERTEX
8
0
10
81.664365625
20
28.923409375000002
30
0
0
VERTEX
8
0
10
81.5587
20
28.956725000000002
30
0
0
VERTEX
8
0
10
81.450534375
20
28.98070625
30
0
0
VERTEX
8
0
10
81.3406875
20
28.99516875
30
0
0
VERTEX
8
0
10
81.23
20
29
30
0
0
VERTEX
8
0
10
1.27
20
29
30
0
0
VERTEX
8
0
10
1.1593125
20
28.99516875
30
0
0
VERTEX
8
0
10
1.049465625
20
28.98070625
30
0
0
VERTEX
8
0
10
0.9413
20
28.956725000000002
30
0
0
VERTEX
8
0
10
0.835634375
20
28.923409375000002
30
0
0
VERTEX
8
0
10
0.733275
20
28.881009375
30
0
0
VERTEX
8
0
10
0.635
20
28.829853125
30
0
0
VERTEX
8
0
10
0.5415593750000001
20
28.770321875
30
0
0
VERTEX
8
0
10
0.45365937500000003
20
28.702875000000002
30
0
0
VERTEX
8
0
10
0.371975
20
28.628025
30
0
0
VERTEX
8
0
10
0.29712500000000003
20
28.546340625000003
30
0
0
VERTEX
8
0
10
0.229678125
20
28.458440625
30
0
0
VERTEX
8
0
10
0.170146875
20
28.365000000000002
30
0
0
VERTEX
8
0
10
0.118990625
20
28.266725
30
0
0
VERTEX
8
0
10
0.07659062500000001
20
28.164365625000002
30
0
0
VERTEX
8
0
10
0.043275
20
28.0587
30
0
0
VERTEX
8
0
10
0.019293750000000002
20
27.950534375
30
0
0
VERTEX
8
0
10
0.0048312500000000005
20
27.8406875
30
0
0
VERTEX
8
0
10
0
20
27.73
30
0
0
VERTEX
8
0
10
0
20
1.27
30
0
0
SEQEND
0
POLYLINE
66
1
8
holes
10
0.0
20
0.0
30
0.0
70
1
0
VERTEX
8
0
10
80.5
20
3.4508875000000003
30
0
0
VERTEX
8
0
10
80.5
20
3.5491125
30
0
0
VERTEX
8
0
10
80.49229375
20
3.647034375
30
0
0
VERTEX
8
0
10
80.476928125
20
3.74405
30
0
0
VERTEX
8
0
10
80.453996875
20
3.8395625
30
0
0
VERTEX
8
0
10
80.42364375000001
20
3.93298125
30
0
0
VERTEX
8
0
10
80.38605625000001
20
4.023728125
30
0
0
VERTEX
8
0
10
80.3414625
20
4.111246875
30
0
0
VERTEX
8
0
10
80.2901375
20
4.195
30
0
0
VERTEX
8
0
10
80.232403125
20
4.274465625
30
0
0
VERTEX
8
0
10
80.16861250000001
20
4.34915625
30
0
0
VERTEX
8
0
10
80.09915625000001
20
4.4186125
30
0
0
VERTEX
8
0
10
80.024465625
20
4.482403125
30
0
0
VERTEX
8
0
10
79.94500000000001
20
4.5401375
30
0
0
VERTEX
8
0
10
79.861246875
20
4.5914625000000004
30
0
0
VERTEX
8
0
10
79.773728125
20
4.63605625
30
0
0
VERTEX
8
0
10
79.68298125
20
4.67364375
30
0
0
VERTEX
8
0
10
79.5895625
20
4.7039968750000005
30
0
0
VERTEX
8
0
10
79.49405
20
4.726928125000001
30
0
0
VERTEX
8
0
10
79.397034375
20
4.74229375
30
0
0
VERTEX
8
0
10
79.2991125
20
4.75
30
0
0
VERTEX
8
0
10
79.20088750000001
20
4.75
30
0
0
VERTEX
8
0
10
79.10296562500001
20
4.74229375
30
0
0
VERTEX
8
0
10
79.00595
20
4.726928125000001
30
0
0
VERTEX
8
0
10
78.9104375
20
4.7039968750000005
30
0
0
VERTEX
8
0
10
78.81701875
20
4.67364375
30
0
0
VERTEX
8
0
10
78.72627187500001
20
4.63605625
30
0
0
VERTEX
8
0
10
78.63875312500001
20
4.5914625000000004
30
0
0
VERTEX
8
0
10
78.555
20
4.5401375
30
0
0
VERTEX
8
0
10
78.47553437500001
20
4.482403125
30
0
0
VERTEX
8
0
10
78.40084375
20
4.4186125
30
0
0
VERTEX
8
0
10
78.3313875
20
4.34915625
30
0
0
VERTEX
8
0
10
78.26759687500001
20
4.274465625
30
0
0
VERTEX
8
0
10
78.2098625
20
4.195
30
0
0
VERTEX
8
0
10
78.15853750000001
20
4.111246875
30
0
0
VERTEX
8
0
10
78.11394375
20
4.023728125
30
0
0
VERTEX
8
0
10
78.07635625
20
3.93298125
30
0
0
VERTEX
8
0
10
78.046003125
20
3.8395625
30
0
0
VERTEX
8
0
10
78.023071875
20
3.74405
30
0
0
VERTEX
8
0
10
78.00770625
20
3.647034375
30
0
0
VERTEX
8
0
10
78
20
3.5491125
30
0
0
VERTEX
8
0
10
78
20
3.4508875000000003
30
0
0
VERTEX
8
0
10
78.00770625
20
3.352965625
30
0
0
VERTEX
8
0
10
78.023071875
20
3.2559500000000003
30
0
0
VERTEX
8
0
10
78.046003125
20
3.1604375
30
0
0
VERTEX
8
0
10
78.07635625
20
3.0670187500000003
30
0
0
VERTEX
8
0
10
78.11394375
20
2.976271875
30
0
0
VERTEX
8
0
10
78.15853750000001
20
2.888753125
30
0
0
VERTEX
8
0
10
78.2098625
20
2.805
30
0
0
VERTEX
8
0
10
78.26759687500001
20
2.725534375
30
0
0
VERTEX
8
0
10
78.3313875
20
2.65084375
30
0
0
VERTEX
8
0
10
78.40084375
20
2.5813875
30
0
0
VERTEX
8
0
10
78.47553437500001
20
2.517596875
30
0
0
VERTEX
8
0
10
78.555
20
2.4598625000000003
30
0
0
VERTEX
8
0
10
78.63875312500001
20
2.4085375
30
0
0
VERTEX
8
0
10
78.72627187500001
20
2.3639437500000002
30
0
0
VERTEX
8
0
10
78.81701875
20
2.32635625
30
0
0
VERTEX
8
0
10
78.9104375
20
2.296003125
30
0
0
VERTEX
8
0
10
79.00595
20
2.2730718750000003
30
0
0
VERTEX
8
0
10
79.10296562500001
20
2.25770625
30
0
0
VERTEX
8
0
10
79.20088750000001
20
2.25
30
0
0
VERTEX
8
0
10
79.2991125
20
2.25
30
0
0
VERTEX
8
0
10
79.397034375
20
2.25770625
30
0
0
VERTEX
8
0
10
79.49405
20
2.2730718750000003
30
0
0
VERTEX
8
0
10
79.5895625
20
2.296003125
30
0
0
VERTEX
8
0
10
79.68298125
20
2.32635625
30
0
0
VERTEX
8
0
10
79.773728125
20
2.3639437500000002
30
0
0
VERTEX
8
0
10
79.861246875
20
2.4085375
30
0
0
VERTEX
8
0
10
79.94500000000001
20
2.4598625000000003
30
0
0
VERTEX
8
0
10
80.024465625
20
2.517596875
30
0
0
VERTEX
8
0
10
80.09915625000001
20
2.5813875
30
0
0
VERTEX
8
0
10
80.16861250000001
20
2.65084375
30
0
0
VERTEX
8
0
10
80.232403125
20
2.725534375
30
0
0
VERTEX
8
0
10
80.2901375
20
2.805
30
0
0
VERTEX
8
0
10
80.3414625
20
2.888753125
30
0
0
VERTEX
8
0
10
80.38605625000001
20
2.976271875
30
0
0
VERTEX
8
0
10
80.42364375000001
20
3.0670187500000003
30
0
0
VERTEX
8
0
10
80.453996875
20
3.1604375
30
0
0
VERTEX
8
0
10
80.476928125
20
3.2559500000000003
30
0
0
VERTEX
8
0
10
80.49229375
20
3.352965625
30
0
0
VERTEX
8
0
10
80.5
20
3.4508875000000003
30
0
0
SEQEND
0
POLYLINE
66
1
8
holes
10
0.0
20
0.0
30
0.0
70
1
0
VERTEX
8
0
10
4.5
20
25.4508875
30
0
0
VERTEX
8
0
10
4.5
20
25.5491125
30
0
0
VERTEX
8
0
10
4.49229375
20
25.647034375
30
0
0
VERTEX
8
0
10
4.476928125000001
20
25.74405
30
0
0
VERTEX
8
0
10
4.4539968750000005
20
25.8395625
30
0
0
VERTEX
8
0
10
4.42364375
20
25.93298125
30
0
0
VERTEX
8
0
10
4.38605625
20
26.023728125
30
0
0
VERTEX
8
0
10
4.3414625000000004
20
26.111246875000003
30
0
0
VERTEX
8
0
10
4.2901375
20
26.195
30
0
0
VERTEX
8
0
10
4.232403125
20
26.274465625
30
0
0
VERTEX
8
0
10
4.1686125
20
26.34915625
30
0
0
VERTEX
8
0
10
4.09915625
20
26.418612500000002
30
0
0
VERTEX
8
0
10
4.024465625
20
26.482403125
30
0
0
VERTEX
8
0
10
3.9450000000000003
20
26.5401375
30
0
0
VERTEX
8
0
10
3.861246875
20
26.591462500000002
30
0
0
VERTEX
8
0
10
3.7737281250000003
20
26.636056250000003
30
0
0
VERTEX
8
0
10
3.68298125
20
26.67364375
30
0
0
VERTEX
8
0
10
3.5895625
20
26.703996875
30
0
0
VERTEX
8
0
10
3.49405
20
26.726928125
30
0
0
VERTEX
8
0
10
3.397034375
20
26.74229375
30
0
0
VERTEX
8
0
10
3.2991125
20
26.75
30
0
0
VERTEX
8
0
10
3.2008875000000003
20
26.75
30
0
0
VERTEX
8
0
10
3.102965625
20
26.74229375
30
0
0
VERTEX
8
0
10
3.0059500000000003
20
26.726928125
30
0
0
VERTEX
8
0
10
2.9104375
20
26.703996875
30
0
0
VERTEX
8
0
10
2.8170187500000003
20
26.67364375
30
0
0
VERTEX
8
0
10
2.726271875
20
26.636056250000003
30
0
0
VERTEX
8
0
10
2.638753125
20
26.591462500000002
30
0
0
VERTEX
8
0
10
2.555
20
26.5401375
30
0
0
VERTEX
8
0
10
2.475534375
20
26.482403125
30
0
0
VERTEX
8
0
10
2.40084375
20
26.418612500000002
30
0
0
VERTEX
8
0
10
2.3313875
20
26.34915625
30
0
0
VERTEX
8
0
10
2.267596875
20
26.274465625
30
0
0
VERTEX
8
0
10
2.2098625000000003
20
26.195
30
0
0
VERTEX
8
0
10
2.1585375
20
26.111246875000003
30
0
0
VERTEX
8
0
10
2.1139437500000002
20
26.023728125
30
0
0
VERTEX
8
0
10
2.07635625
20
25.93298125
30
0
0
VERTEX
8
0
10
2.046003125
20
25.8395625
30
0
0
VERTEX
8
0
10
2.0230718750000003
20
25.74405
30
0
0
VERTEX
8
0
10
2.00770625
20
25.647034375
30
0
0
VERTEX
8
0
10
2
20
25.5491125
30
0
0
VERTEX
8
0
10
2
20
25.4508875
30
0
0
VERTEX
8
0
10
2.00770625
20
25.352965625
30
0
0
VERTEX
8
0
10
2.0230718750000003
20
25.255950000000002
30
0
0
VERTEX
8
0
10
2.046003125
20
25.1604375
30
0
0
VERTEX
8
0
10
2.07635625
20
25.067018750000003
30
0
0
VERTEX
8
0
10
2.1139437500000002
20
24.976271875000002
30
0
0
VERTEX
8
0
10
2.1585375
20
24.888753125
30
0
0
VERTEX
8
0
10
2.2098625000000003
20
24.805
30
0
0
VERTEX
8
0
10
2.267596875
20
24.725534375000002
30
0
0
VERTEX
8
0
10
2.3313875
20
24.65084375
30
0
0
VERTEX
8
0
10
2.40084375
20
24.5813875
30
0
0
VERTEX
8
0
10
2.475534375
20
24.517596875000002
30
0
0
VERTEX
8
0
10
2.555
20
24.4598625
30
0
0
VERTEX
8
0
10
2.638753125
20
24.4085375
30
0
0
VERTEX
8
0
10
2.726271875
20
24.36394375
30
0
0
VERTEX
8
0
10
2.8170187500000003
20
24.32635625
30
0
0
VERTEX
8
0
10
2.9104375
20
24.296003125000002
30
0
0
VERTEX
8
0
10
3.0059500000000003
20
24.273071875
30
0
0
VERTEX
8
0
10
3.102965625
20
24.257706250000002
30
0
0
VERTEX
8
0
10
3.2008875000000003
20
24.25
30
0
0
VERTEX
8
0
10
3.2991125
20
24.25
30
0
0
VERTEX
8
0
10
3.397034375
20
24.257706250000002
30
0
0
VERTEX
8
0
10
3.49405
20
24.273071875
30
0
0
VERTEX
8
0
10
3.5895625
20
24.296003125000002
30
0
0
VERTEX
8
0
10
3.68298125
20
24.32635625
30
0
0
VERTEX
8
0
10
3.7737281250000003
20
24.36394375
30
0
0
VERTEX
8
0
10
3.861246875
20
24.4085375
30
0
0
VERTEX
8
0
10
3.9450000000000003
20
24.4598625
30
0
0
VERTEX
8
0
10
4.024465625
20
24.517596875000002
30
0
0
VERTEX
8
0
10
4.09915625
20
24.5813875
30
0
0
VERTEX
8
0
10
4.1686125
20
24.65084375
30
0
0
VERTEX
8
0
10
4.232403125
20
24.725534375000002
30
0
0
VERTEX
8
0
10
4.2901375
20
24.805
30
0
0
VERTEX
8
0
10
4.3414625000000004
20
24.888753125
30
0
0
VERTEX
8
0
10
4.38605625
20
24.976271875000002
30
0
0
VERTEX
8
0
10
4.42364375
20
25.067018750000003
30
0
0
VERTEX
8
0
10
4.4539968750000005
20
25.1604375
30
0
0
VERTEX
8
0
10
4.476928125000001
20
25.255950000000002
30
0
0
VERTEX
8
0
10
4.49229375
20
25.352965625
30
0
0
VERTEX
8
0
10
4.5
20
25.4508875
30
0
0
SEQEND
0
POLYLINE
66
1
8
holes
10
0.0
20
0.0
30
0.0
70
1
0
VERTEX
8
0
10
4.5
20
3.4508875000000003
30
0
0
VERTEX
8
0
10
4.5
20
3.5491125
30
0
0
VERTEX
8
0
10
4.49229375
20
3.647034375
30
0
0
VERTEX
8
0
10
4.476928125000001
20
3.74405
30
0
0
VERTEX
8
0
10
4.4539968750000005
20
3.8395625
30
0
0
VERTEX
8
0
10
4.42364375
20
3.93298125
30
0
0
VERTEX
8
0
10
4.38605625
20
4.023728125
30
0
0
VERTEX
8
0
10
4.3414625000000004
20
4.111246875
30
0
0
VERTEX
8
0
10
4.2901375
20
4.195
30
0
0
VERTEX
8
0
10
4.232403125
20
4.274465625
30
0
0
VERTEX
8
0
10
4.1686125
20
4.34915625
30
0
0
VERTEX
8
0
10
4.09915625
20
4.4186125
30
0
0
VERTEX
8
0
10
4.024465625
20
4.482403125
30
0
0
VERTEX
8
0
10
3.9450000000000003
20
4.5401375
30
0
0
VERTEX
8
0
10
3.861246875
20
4.5914625000000004
30
0
0
VERTEX
8
0
10
3.7737281250000003
20
4.63605625
30
0
0
VERTEX
8
0
10
3.68298125
20
4.67364375
30
0
0
VERTEX
8
0
10
3.5895625
20
4.7039968750000005
30
0
0
VERTEX
8
0
10
3.49405
20
4.726928125000001
30
0
0
VERTEX
8
0
10
3.397034375
20
4.74229375
30
0
0
VERTEX
8
0
10
3.2991125
20
4.75
30
0
0
VERTEX
8
0
10
3.2008875000000003
20
4.75
30
0
0
VERTEX
8
0
10
3.102965625
20
4.74229375
30
0
0
VERTEX
8
0
10
3.0059500000000003
20
4.726928125000001
30
0
0
VERTEX
8
0
10
2.9104375
20
4.7039968750000005
30
0
0
VERTEX
8
0
10
2.8170187500000003
20
4.67364375
30
0
0
VERTEX
8
0
10
2.726271875
20
4.63605625
30
0
0
VERTEX
8
0
10
2.638753125
20
4.5914625000000004
30
0
0
VERTEX
8
0
10
2.555
20
4.5401375
30
0
0
VERTEX
8
0
10
2.475534375
20
4.482403125
30
0
0
VERTEX
8
0
10
2.40084375
20
4.4186125
30
0
0
VERTEX
8
0
10
2.3313875
20
4.34915625
30
0
0
VERTEX
8
0
10
2.267596875
20
4.274465625
30
0
0
VERTEX
8
0
10
2.2098625000000003
20
4.195
30
0
0
VERTEX
8
0
10
2.1585375
20
4.111246875
30
0
0
VERTEX
8
0
10
2.1139437500000002
20
4.023728125
30
0
0
VERTEX
8
0
10
2.07635625
20
3.93298125
30
0
0
VERTEX
8
0
10
2.046003125
20
3.8395625
30
0
0
VERTEX
8
0
10
2.0230718750000003
20
3.74405
30
0
0
VERTEX
8
0
10
2.00770625
20
3.647034375
30
0
0
VERTEX
8
0
10
2
20
3.5491125
30
0
0
VERTEX
8
0
10
2
20
3.4508875000000003
30
0
0
VERTEX
8
0
10
2.00770625
20
3.352965625
30
0
0
VERTEX
8
0
10
2.0230718750000003
20
3.2559500000000003
30
0
0
VERTEX
8
0
10
2.046003125
20
3.1604375
30
0
0
VERTEX
8
0
10
2.07635625
20
3.0670187500000003
30
0
0
VERTEX
8
0
10
2.1139437500000002
20
2.976271875
30
0
0
VERTEX
8
0
10
2.1585375
20
2.888753125
30
0
0
VERTEX
8
0
10
2.2098625000000003
20
2.805
30
0
0
VERTEX
8
0
10
2.267596875
20
2.725534375
30
0
0
VERTEX
8
0
10
2.3313875
20
2.65084375
30
0
0
VERTEX
8
0
10
2.40084375
20
2.5813875
30
0
0
VERTEX
8
0
10
2.475534375
20
2.517596875
30
0
0
VERTEX
8
0
10
2.555
20
2.4598625000000003
30
0
0
VERTEX
8
0
10
2.638753125
20
2.4085375
30
0
0
VERTEX
8
0
10
2.726271875
20
2.3639437500000002
30
0
0
VERTEX
8
0
10
2.8170187500000003
20
2.32635625
30
0
0
VERTEX
8
0
10
2.9104375
20
2.296003125
30
0
0
VERTEX
8
0
10
3.0059500000000003
20
2.2730718750000003
30
0
0
VERTEX
8
0
10
3.102965625
20
2.25770625
30
0
0
VERTEX
8
0
10
3.2008875000000003
20
2.25
30
0
0
VERTEX
8
0
10
3.2991125
20
2.25
30
0
0
VERTEX
8
0
10
3.397034375
20
2.25770625
30
0
0
VERTEX
8
0
10
3.49405
20
2.2730718750000003
30
0
0
VERTEX
8
0
10
3.5895625
20
2.296003125
30
0
0
VERTEX
8
0
10
3.68298125
20
2.32635625
30
0
0
VERTEX
8
0
10
3.7737281250000003
20
2.3639437500000002
30
0
0
VERTEX
8
0
10
3.861246875
20
2.4085375
30
0
0
VERTEX
8
0
10
3.9450000000000003
20
2.4598625000000003
30
0
0
VERTEX
8
0
10
4.024465625
20
2.517596875
30
0
0
VERTEX
8
0
10
4.09915625
20
2.5813875
30
0
0
VERTEX
8
0
10
4.1686125
20
2.65084375
30
0
0
VERTEX
8
0
10
4.232403125
20
2.725534375
30
0
0
VERTEX
8
0
10
4.2901375
20
2.805
30
0
0
VERTEX
8
0
10
4.3414625000000004
20
2.888753125
30
0
0
VERTEX
8
0
10
4.38605625
20
2.976271875
30
0
0
VERTEX
8
0
10
4.42364375
20
3.0670187500000003
30
0
0
VERTEX
8
0
10
4.4539968750000005
20
3.1604375
30
0
0
VERTEX
8
0
10
4.476928125000001
20
3.2559500000000003
30
0
0
VERTEX
8
0
10
4.49229375
20
3.352965625
30
0
0
VERTEX
8
0
10
4.5
20
3.4508875000000003
30
0
0
SEQEND
0
POLYLINE
66
1
8
holes
10
0.0
20
0.0
30
0.0
70
1
0
VERTEX
8
0
10
80.5
20
25.4508875
30
0
0
VERTEX
8
0
10
80.5
20
25.5491125
30
0
0
VERTEX
8
0
10
80.49229375
20
25.647034375
30
0
0
VERTEX
8
0
10
80.476928125
20
25.74405
30
0
0
VERTEX
8
0
10
80.453996875
20
25.8395625
30
0
0
VERTEX
8
0
10
80.42364375000001
20
25.93298125
30
0
0
VERTEX
8
0
10
80.38605625000001
20
26.023728125
30
0
0
VERTEX
8
0
10
80.3414625
20
26.111246875000003
30
0
0
VERTEX
8
0
10
80.2901375
20
26.195
30
0
0
VERTEX
8
0
10
80.232403125
20
26.274465625
30
0
0
VERTEX
8
0
10
80.16861250000001
20
26.34915625
30
0
0
VERTEX
8
0
10
80.09915625000001
20
26.418612500000002
30
0
0
VERTEX
8
0
10
80.024465625
20
26.482403125
30
0
0
VERTEX
8
0
10
79.94500000000001
20
26.5401375
30
0
0
VERTEX
8
0
10
79.861246875
20
26.591462500000002
30
0
0
VERTEX
8
0
10
79.773728125
20
26.636056250000003
30
0
0
VERTEX
8
0
10
79.68298125
20
26.67364375
30
0
0
VERTEX
8
0
10
79.5895625
20
26.703996875
30
0
0
VERTEX
8
0
10
79.49405
20
26.726928125
30
0
0
VERTEX
8
0
10
79.397034375
20
26.74229375
30
0
0
VERTEX
8
0
10
79.2991125
20
26.75
30
0
0
VERTEX
8
0
10
79.20088750000001
20
26.75
30
0
0
VERTEX
8
0
10
79.10296562500001
20
26.74229375
30
0
0
VERTEX
8
0
10
79.00595
20
26.726928125
30
0
0
VERTEX
8
0
10
78.9104375
20
26.703996875
30
0
0
VERTEX
8
0
10
78.81701875
20
26.67364375
30
0
0
VERTEX
8
0
10
78.72627187500001
20
26.636056250000003
30
0
0
VERTEX
8
0
10
78.63875312500001
20
26.591462500000002
30
0
0
VERTEX
8
0
10
78.555
20
26.5401375
30
0
0
VERTEX
8
0
10
78.47553437500001
20
26.482403125
30
0
0
VERTEX
8
0
10
78.40084375
20
26.418612500000002
30
0
0
VERTEX
8
0
10
78.3313875
20
26.34915625
30
0
0
VERTEX
8
0
10
78.26759687500001
20
26.274465625
30
0
0
VERTEX
8
0
10
78.2098625
20
26.195
30
0
0
VERTEX
8
0
10
78.15853750000001
20
26.111246875000003
30
0
0
VERTEX
8
0
10
78.11394375
20
26.023728125
30
0
0
VERTEX
8
0
10
78.07635625
20
25.93298125
30
0
0
VERTEX
8
0
10
78.046003125
20
25.8395625
30
0
0
VERTEX
8
0
10
78.023071875
20
25.74405
30
0
0
VERTEX
8
0
10
78.00770625
20
25.647034375
30
0
0
VERTEX
8
0
10
78
20
25.5491125
30
0
0
VERTEX
8
0
10
78
20
25.4508875
30
0
0
VERTEX
8
0
10
78.00770625
20
25.352965625
30
0
0
VERTEX
8
0
10
78.023071875
20
25.255950000000002
30
0
0
VERTEX
8
0
10
78.046003125
20
25.1604375
30
0
0
VERTEX
8
0
10
78.07635625
20
25.067018750000003
30
0
0
VERTEX
8
0
10
78.11394375
20
24.976271875000002
30
0
0
VERTEX
8
0
10
78.15853750000001
20
24.888753125
30
0
0
VERTEX
8
0
10
78.2098625
20
24.805
30
0
0
VERTEX
8
0
10
78.26759687500001
20
24.725534375000002
30
0
0
VERTEX
8
0
10
78.3313875
20
24.65084375
30
0
0
VERTEX
8
0
10
78.40084375
20
24.5813875
30
0
0
VERTEX
8
0
10
78.47553437500001
20
24.517596875000002
30
0
0
VERTEX
8
0
10
78.555
20
24.4598625
30
0
0
VERTEX
8
0
10
78.63875312500001
20
24.4085375
30
0
0
VERTEX
8
0
10
78.72627187500001
20
24.36394375
30
0
0
VERTEX
8
0
10
78.81701875
20
24.32635625
30
0
0
VERTEX
8
0
10
78.9104375
20
24.296003125000002
30
0
0
VERTEX
8
0
10
79.00595
20
24.273071875
30
0
0
VERTEX
8
0
10
79.10296562500001
20
24.257706250000002
30
0
0
VERTEX
8
0
10
79.20088750000001
20
24.25
30
0
0
VERTEX
8
0
10
79.2991125
20
24.25
30
0
0
VERTEX
8
0
10
79.397034375
20
24.257706250000002
30
0
0
VERTEX
8
0
10
79.49405
20
24.273071875
30
0
0
VERTEX
8
0
10
79.5895625
20
24.296003125000002
30
0
0
VERTEX
8
0
10
79.68298125
20
24.32635625
30
0
0
VERTEX
8
0
10
79.773728125
20
24.36394375
30
0
0
VERTEX
8
0
10
79.861246875
20
24.4085375
30
0
0
VERTEX
8
0
10
79.94500000000001
20
24.4598625
30
0
0
VERTEX
8
0
10
80.024465625
20
24.517596875000002
30
0
0
VERTEX
8
0
10
80.09915625000001
20
24.5813875
30
0
0
VERTEX
8
0
10
80.16861250000001
20
24.65084375
30
0
0
VERTEX
8
0
10
80.232403125
20
24.725534375000002
30
0
0
VERTEX
8
0
10
80.2901375
20
24.805
30
0
0
VERTEX
8
0
10
80.3414625
20
24.888753125
30
0
0
VERTEX
8
0
10
80.38605625000001
20
24.976271875000002
30
0
0
VERTEX
8
0
10
80.42364375000001
20
25.067018750000003
30
0
0
VERTEX
8
0
10
80.453996875
20
25.1604375
30
0
0
VERTEX
8
0
10
80.476928125
20
25.255950000000002
30
0
0
VERTEX
8
0
10
80.49229375
20
25.352965625
30
0
0
VERTEX
8
0
10
80.5
20
25.4508875
30
0
0
SEQEND
0
POLYLINE
66
1
8
1_copper
10
0.0
20
0.0
30
0.0
70
1
0
VERTEX
8
0
10
10.5
20
24.975
30
0
0
VERTEX
8
0
10
7.5
20
24.975
30
0
0
VERTEX
8
0
10
7.5
20
22.875
30
0
0
VERTEX
8
0
10
10.5
20
22.875
30
0
0
SEQEND
0
POLYLINE
66
1
8
1_copper
10
0.0
20
0.0
30
0.0
70
1
0
VERTEX
8
0
10
75
20
24.975
30
0
0
VERTEX
8
0
10
72
20
24.975
30
0
0
VERTEX
8
0
10
72
20
22.875
30
0
0
VERTEX
8
0
10
75
20
22.875
30
0
0
SEQEND
0
POLYLINE
66
1
8
1_copper
10
0.0
20
0.0
30
0.0
70
1
0
VERTEX
8
0
10
32.375
20
24.900000000000002
30
0
0
VERTEX
8
0
10
30.275000000000002
20
24.900000000000002
30
0
0
VERTEX
8
0
10
30.275000000000002
20
21.900000000000002
30
0
0
VERTEX
8
0
10
32.375
20
21.900000000000002
30
0
0
SEQEND
0
POLYLINE
66
1
8
1_copper
10
0.0
20
0.0
30
0.0
70
1
0
VERTEX
8
0
10
28.725
20
24.900000000000002
30
0
0
VERTEX
8
0
10
26.625
20
24.900000000000002
30
0
0
VERTEX
8
0
10
26.625
20
21.900000000000002
30
0
0
VERTEX
8
0
10
28.725
20
21.900000000000002
30
0
0
SEQEND
0
POLYLINE
66
1
8
1_copper
10
0.0
20
0.0
30
0.0
70
1
0
VERTEX
8
0
10
17.375
20
24.900000000000002
30
0
0
VERTEX
8
0
10
15.275
20
24.900000000000002
30
0
0
VERTEX
8
0
10
15.275
20
21.900000000000002
30
0
0
VERTEX
8
0
10
17.375
20
21.900000000000002
30
0
0
SEQEND
0
POLYLINE
66
1
8
1_copper
10
0.0
20
0.0
30
0.0
70
1
0
VERTEX
8
0
10
43.725
20
24.900000000000002
30
0
0
VERTEX
8
0
10
41.625
20
24.900000000000002
30
0
0
VERTEX
8
0
10
41.625
20
21.900000000000002
30
0
0
VERTEX
8
0
10
43.725
20
21.900000000000002
30
0
0
SEQEND
0
POLYLINE
66
1
8
1_copper
10
0.0
20
0.0
30
0.0
70
1
0
VERTEX
8
0
10
12.700000000000001
20
21.775000000000002
30
0
0
VERTEX
8
0
10
11.1
20
21.775000000000002
30
0
0
VERTEX
8
0
10
11.1
20
20.975
30
0
0
VERTEX
8
0
10
12.700000000000001
20
20.975
30
0
0
SEQEND
0
POLYLINE
66
1
8
1_copper
10
0.0
20
0.0
30
0.0
70
1
0
VERTEX
8
0
10
25.525000000000002
20
21.3
30
0
0
VERTEX
8
0
10
24.725
20
21.3
30
0
0
VERTEX
8
0
10
24.725
20
19.7
30
0
0
VERTEX
8
0
10
25.525000000000002
20
19.7
30
0
0
SEQEND
0
POLYLINE
66
1
8
1_copper
10
0.0
20
0.0
30
0.0
70
1
0
VERTEX
8
0
10
12.700000000000001
20
20.525000000000002
30
0
0
VERTEX
8
0
10
11.1
20
20.525000000000002
30
0
0
VERTEX
8
0
10
11.1
20
19.725
30
0
0
VERTEX
8
0
10
12.700000000000001
20
19.725
30
0
0
SEQEND
0
POLYLINE
66
1
8
1_copper
10
0.0
20
0.0
30
0.0
70
1
0
VERTEX
8
0
10
12.700000000000001
20
19.275000000000002
30
0
0
VERTEX
8
0
10
11.1
20
19.275000000000002
30
0
0
VERTEX
8
0
10
11.1
20
18.475
30
0
0
VERTEX
8
0
10
12.700000000000001
20
18.475
30
0
0
SEQEND
0
POLYLINE
66
1
8
1_copper
10
0.0
20
0.0
30
0.0
70
1
0
VERTEX
8
0
10
12.700000000000001
20
18.025000000000002
30
0
0
VERTEX
8
0
10
11.1
20
18.025000000000002
30
0
0
VERTEX
8
0
10
11.1
20
17.225
30
0
0
VERTEX
8
0
10
12.700000000000001
20
17.225
30
0
0
SEQEND
0
POLYLINE
66
1
8
1_copper
10
0.0
20
0.0
30
0.0
70
1
0
VERTEX
8
0
10
12.700000000000001
20
16.775000000000002
30
0
0
VERTEX
8
0
10
11.1
20
16.775000000000002
30
0
0
VERTEX
8
0
10
11.1
20
15.975000000000001
30
0
0
VERTEX
8
0
10
12.700000000000001
20
15.975000000000001
30
0
0
SEQEND
0
POLYLINE
66
1
8
1_copper
10
0.0
20
0.0
30
0.0
70
1
0
VERTEX
8
0
10
12.700000000000001
20
15.525
30
0
0
VERTEX
8
0
10
11.1
20
15.525
30
0
0
VERTEX
8
0
10
11.1
20
14.725000000000001
30
0
0
VERTEX
8
0
10
12.700000000000001
20
14.725000000000001
30
0
0
SEQEND
0
POLYLINE
66
1
8
1_copper
10
0.0
20
0.0
30
0.0
70
1
0
VERTEX
8
0
10
12.700000000000001
20
14.275
30
0
0
VERTEX
8
0
10
11.1
20
14.275
30
0
0
VERTEX
8
0
10
11.1
20
13.475000000000001
30
0
0
VERTEX
8
0
10
12.700000000000001
20
13.475000000000001
30
0
0
SEQEND
0
POLYLINE
66
1
8
1_copper
10
0.0
20
0.0
30
0.0
70
1
0
VERTEX
8
0
10
12.700000000000001
20
13.025
30
0
0
VERTEX
8
0
10
11.1
20
13.025
30
0
0
VERTEX
8
0
10
11.1
20
12.225000000000001
30
0
0
VERTEX
8
0
10
12.700000000000001
20
12.225000000000001
30
0
0
SEQEND
0
POLYLINE
66
1
8
1_copper
10
0.0
20
0.0
30
0.0
70
1
0
VERTEX
8
0
10
12.700000000000001
20
11.775
30
0
0
VERTEX
8
0
10
11.1
20
11.775
30
0
0
VERTEX
8
0
10
11.1
20
10.975
30
0
0
VERTEX
8
0
10
12.700000000000001
20
10.975
30
0
0
SEQEND
0
POLYLINE
66
1
8
1_copper
10
0.0
20
0.0
30
0.0
70
1
0
VERTEX
8
0
10
12.700000000000001
20
10.525
30
0
0
VERTEX
8
0
10
11.1
20
10.525
30
0
0
VERTEX
8
0
10
11.1
20
9.725
30
0
0
VERTEX
8
0
10
12.700000000000001
20
9.725
30
0
0
SEQEND
0
POLYLINE
66
1
8
1_copper
10
0.0
20
0.0
30
0.0
70
1
0
VERTEX
8
0
10
39.342400000000005
20
10.4794
30
0
0
VERTEX
8
0
10
38.0724
20
10.4794
30
0
0
VERTEX
8
0
10
38.0724
20
9.9206
30
0
0
VERTEX
8
0
10
39.342400000000005
20
9.9206
30
0
0
SEQEND
0
POLYLINE
66
1
8
1_copper
10
0.0
20
0.0
30
0.0
70
1
0
VERTEX
8
0
10
53.2
20
10.35
30
0
0
VERTEX
8
0
10
52.45
20
10.35
30
0
0
VERTEX
8
0
10
52.45
20
9.65
30
0
0
VERTEX
8
0
10
53.2
20
9.65
30
0
0
SEQEND
0
POLYLINE
66
1
8
1_copper
10
0.0
20
0.0
30
0.0
70
1
0
VERTEX
8
0
10
54.550000000000004
20
9.35
30
0
0
VERTEX
8
0
10
53.800000000000004
20
9.35
30
0
0
VERTEX
8
0
10
53.800000000000004
20
8.65
30
0
0
VERTEX
8
0
10
54.550000000000004
20
8.65
30
0
0
SEQEND
0
POLYLINE
66
1
8
1_copper
10
0.0
20
0.0
30
0.0
70
1
0
VERTEX
8
0
10
12.700000000000001
20
9.275
30
0
0
VERTEX
8
0
10
11.1
20
9.275
30
0
0
VERTEX
8
0
10
11.1
20
8.475
30
0
0
VERTEX
8
0
10
12.700000000000001
20
8.475
30
0
0
SEQEND
0
POLYLINE
66
1
8
1_copper
10
0.0
20
0.0
30
0.0
70
1
0
VERTEX
8
0
10
39.342400000000005
20
8.8794
30
0
0
VERTEX
8
0
10
38.0724
20
8.8794
30
0
0
VERTEX
8
0
10
38.0724
20
8.3206
30
0
0
VERTEX
8
0
10
39.342400000000005
20
8.3206
30
0
0
SEQEND
0
POLYLINE
66
1
8
1_copper
10
0.0
20
0.0
30
0.0
70
1
0
VERTEX
8
0
10
39.342400000000005
20
8.0794
30
0
0
VERTEX
8
0
10
38.0724
20
8.0794
30
0
0
VERTEX
8
0
10
38.0724
20
7.5206
30
0
0
VERTEX
8
0
10
39.342400000000005
20
7.5206
30
0
0
SEQEND
0
POLYLINE
66
1
8
1_copper
10
0.0
20
0.0
30
0.0
70
1
0
VERTEX
8
0
10
12.700000000000001
20
8.025
30
0
0
VERTEX
8
0
10
11.1
20
8.025
30
0
0
VERTEX
8
0
10
11.1
20
7.2250000000000005
30
0
0
VERTEX
8
0
10
12.700000000000001
20
7.2250000000000005
30
0
0
SEQEND
0
POLYLINE
66
1
8
1_copper
10
0.0
20
0.0
30
0.0
70
1
0
VERTEX
8
0
10
71.4
20
8.025
30
0
0
VERTEX
8
0
10
69.8
20
8.025
30
0
0
VERTEX
8
0
10
69.8
20
7.2250000000000005
30
0
0
VERTEX
8
0
10
71.4
20
7.2250000000000005
30
0
0
SEQEND
0
POLYLINE
66
1
8
1_copper
10
0.0
20
0.0
30
0.0
70
1
0
VERTEX
8
0
10
39.342400000000005
20
7.279400000000001
30
0
0
VERTEX
8
0
10
38.0724
20
7.279400000000001
30
0
0
VERTEX
8
0
10
38.0724
20
6.7206
30
0
0
VERTEX
8
0
10
39.342400000000005
20
6.7206
30
0
0
SEQEND
0
POLYLINE
66
1
8
1_copper
10
0.0
20
0.0
30
0.0
70
1
0
VERTEX
8
0
10
18.625
20
7.1000000000000005
30
0
0
VERTEX
8
0
10
16.525000000000002
20
7.1000000000000005
30
0
0
VERTEX
8
0
10
16.525000000000002
20
4.1000000000000005
30
0
0
VERTEX
8
0
10
18.625
20
4.1000000000000005
30
0
0
SEQEND
0
POLYLINE
66
1
8
1_copper
10
0.0
20
0.0
30
0.0
70
1
0
VERTEX
8
0
10
27.475
20
7.1000000000000005
30
0
0
VERTEX
8
0
10
25.375
20
7.1000000000000005
30
0
0
VERTEX
8
0
10
25.375
20
4.1000000000000005
30
0
0
VERTEX
8
0
10
27.475
20
4.1000000000000005
30
0
0
SEQEND
0
POLYLINE
66
1
8
1_copper
10
0.0
20
0.0
30
0.0
70
1
0
VERTEX
8
0
10
39.342400000000005
20
6.4794
30
0
0
VERTEX
8
0
10
38.0724
20
6.4794
30
0
0
VERTEX
8
0
10
38.0724
20
5.9206
30
0
0
VERTEX
8
0
10
39.342400000000005
20
5.9206
30
0
0
SEQEND
0
POLYLINE
66
1
8
1_copper
10
0.0
20
0.0
30
0.0
70
1
0
VERTEX
8
0
10
10.5
20
6.125
30
0
0
VERTEX
8
0
10
7.5
20
6.125
30
0
0
VERTEX
8
0
10
7.5
20
4.025
30
0
0
VERTEX
8
0
10
10.5
20
4.025
30
0
0
SEQEND
0
POLYLINE
66
1
8
1_copper
10
0.0
20
0.0
30
0.0
70
1
0
VERTEX
8
0
10
75
20
6.125
30
0
0
VERTEX
8
0
10
72
20
6.125
30
0
0
VERTEX
8
0
10
72
20
4.025
30
0
0
VERTEX
8
0
10
75
20
4.025
30
0
0
SEQEND
0
POLYLINE
66
1
8
1_copper
10
0.0
20
0.0
30
0.0
70
1
0
VERTEX
8
0
10
41.2794
20
5.3424000000000005
30
0
0
VERTEX
8
0
10
40.720600000000005
20
5.3424000000000005
30
0
0
VERTEX
8
0
10
40.720600000000005
20
4.0724
30
0
0
VERTEX
8
0
10
41.2794
20
4.0724
30
0
0
SEQEND
0
POLYLINE
66
1
8
1_copper
10
0.0
20
0.0
30
0.0
70
1
0
VERTEX
8
0
10
40.479400000000005
20
5.3424000000000005
30
0
0
VERTEX
8
0
10
39.9206
20
5.3424000000000005
30
0
0
VERTEX
8
0
10
39.9206
20
4.0724
30
0
0
VERTEX
8
0
10
40.479400000000005
20
4.0724
30
0
0
SEQEND
0
POLYLINE
66
1
8
1_copper
10
0.0
20
0.0
30
0.0
70
1
0
VERTEX
8
0
10
27.676553125
20
18.054903125
30
0
42
0.3056511764052442
0
VERTEX
8
0
10
27.906750000000002
20
18.212621875
30
0
0
VERTEX
8
0
10
27.91361875
20
18.229590625
30
0
42
0.024000816780912045
0
VERTEX
8
0
10
27.919628125000003
20
18.255675
30
0
0
VERTEX
8
0
10
28.10375
20
18.439796875000003
30
0
0
VERTEX
8
0
10
30.896246875000003
20
18.439796875000003
30
0
0
VERTEX
8
0
10
31.080078125
20
18.255965625
30
0
42
0.3576354129191419
0
VERTEX
8
0
10
31.324796875
20
18.054796875
30
0
0
VERTEX
8
0
10
35.5702
20
18.054796875
30
0
42
0.41421356237309503
0
VERTEX
8
0
10
35.8202
20
18.304796875
30
0
0
VERTEX
8
0
10
35.8202
20
19.196
30
0
42
0.4142172235430691
0
VERTEX
8
0
10
35.570196875
20
19.446
30
0
0
VERTEX
8
0
10
35.375012500000004
20
19.446
30
0
0
VERTEX
8
0
10
35.375012500000004
20
19.7
30
0
0
VERTEX
8
0
10
35.525
20
19.7
30
0
0
VERTEX
8
0
10
35.525
20
21.3
30
0
0
VERTEX
8
0
10
35.375012500000004
20
21.3
30
0
0
VERTEX
8
0
10
35.375012500000004
20
21.553996875
30
0
0
VERTEX
8
0
10
35.55844375
20
21.553996875
30
0
42
0.3063923349958752
0
VERTEX
8
0
10
35.83809375
20
21.5955875
30
0
0
VERTEX
8
0
10
35.848656250000005
20
21.604796875
30
0
0
VERTEX
8
0
10
36.8202
20
21.604796875
30
0
42
0.41421356237309503
0
VERTEX
8
0
10
37.0702
20
21.854796875
30
0
0
VERTEX
8
0
10
37.0702
20
23.1103625
30
0
0
VERTEX
8
0
10
37.15465625
20
23.314259375000002
30
0
0
VERTEX
8
0
10
37.34589375
20
23.505496875000002
30
0
0
VERTEX
8
0
10
40.592321875
20
26.751921875
30
0
42
0.6681786379192989
0
VERTEX
8
0
10
40.415543750000005
20
27.178700000000003
30
0
0
VERTEX
8
0
10
34.679796875
20
27.178700000000003
30
0
42
0.41421356237309503
0
VERTEX
8
0
10
34.429796875
20
26.928700000000003
30
0
0
VERTEX
8
0
10
34.429796875
20
21.803996875
30
0
42
0.41421356237309503
0
VERTEX
8
0
10
34.679796875
20
21.553996875
30
0
0
VERTEX
8
0
10
34.874981250000005
20
21.553996875
30
0
0
VERTEX
8
0
10
34.874981250000005
20
21.3
30
0
0
VERTEX
8
0
10
34.725
20
21.3
30
0
0
VERTEX
8
0
10
34.725
20
19.7
30
0
0
VERTEX
8
0
10
34.874981250000005
20
19.7
30
0
0
VERTEX
8
0
10
34.874981250000005
20
19.446
30
0
0
VERTEX
8
0
10
34.691556250000005
20
19.446
30
0
42
0.3064161751311084
0
VERTEX
8
0
10
34.411890625000005
20
19.404400000000003
30
0
0
VERTEX
8
0
10
34.40134375
20
19.395200000000003
30
0
0
VERTEX
8
0
10
33.34875
20
19.395200000000003
30
0
0
VERTEX
8
0
10
33.1702
20
19.57375
30
0
0
VERTEX
8
0
10
33.1702
20
21.42625
30
0
42
0.30800199665033007
0
VERTEX
8
0
10
33.3202
20
21.6798
30
0
0
VERTEX
8
0
10
33.3202
20
26.928700000000003
30
0
42
0.41421356237309503
0
VERTEX
8
0
10
33.0702
20
27.178700000000003
30
0
0
VERTEX
8
0
10
23.429796875
20
27.178700000000003
30
0
42
0.41421356237309503
0
VERTEX
8
0
10
23.179796875
20
26.928700000000003
30
0
0
VERTEX
8
0
10
23.179796875
20
21.854796875
30
0
42
0.41421356237309503
0
VERTEX
8
0
10
23.429796875
20
21.604796875
30
0
0
VERTEX
8
0
10
25.651246875000002
20
21.604796875
30
0
0
VERTEX
8
0
10
25.829796875
20
21.426246875
30
0
0
VERTEX
8
0
10
25.829796875
20
19.57375
30
0
0
VERTEX
8
0
10
25.651246875000002
20
19.395200000000003
30
0
0
VERTEX
8
0
10
24.679796875
20
19.395200000000003
30
0
42
0.41421356237309503
0
VERTEX
8
0
10
24.429796875
20
19.145200000000003
30
0
0
VERTEX
8
0
10
24.429796875
20
18.854796875
30
0
42
0.41421356237309503
0
VERTEX
8
0
10
24.679796875
20
18.604796875
30
0
0
VERTEX
8
0
10
24.776246875000002
20
18.604796875
30
0
42
0.4924994204738591
0
VERTEX
8
0
10
25.176775000000003
20
18.557821875000002
30
0
0
VERTEX
8
0
10
25.223750000000003
20
18.604796875
30
0
0
VERTEX
8
0
10
26.776246875000002
20
18.604796875
30
0
0
VERTEX
8
0
10
26.954796875
20
18.426246875
30
0
0
VERTEX
8
0
10
26.954796875
20
18.304796875
30
0
42
0.41421356237309503
0
VERTEX
8
0
10
27.204796875
20
18.054796875
30
0
0
VERTEX
8
0
10
27.6752
20
18.054796875
30
0
0
SEQEND
0
POLYLINE
66
1
8
1_copper
10
0.0
20
0.0
30
0.0
70
1
0
VERTEX
8
0
10
21.821553125
20
1.016603125
30
0
42
0.4126285070906998
0
VERTEX
8
0
10
22.0702
20
1.266496875
30
0
0
VERTEX
8
0
10
22.0702
20
7.196000000000001
30
0
42
0.41421356237309503
0
VERTEX
8
0
10
21.8202
20
7.446000000000001
30
0
0
VERTEX
8
0
10
21.6250125
20
7.446000000000001
30
0
0
VERTEX
8
0
10
21.6250125
20
7.7
30
0
0
VERTEX
8
0
10
21.775000000000002
20
7.7
30
0
0
VERTEX
8
0
10
21.775000000000002
20
9.3
30
0
0
VERTEX
8
0
10
21.6250125
20
9.3
30
0
0
VERTEX
8
0
10
21.6250125
20
9.553996875000001
30
0
0
VERTEX
8
0
10
21.808440625
20
9.553996875000001
30
0
42
0.3064161751311084
0
VERTEX
8
0
10
22.088106250000003
20
9.595596875
30
0
0
VERTEX
8
0
10
22.098653125000002
20
9.604796875
30
0
0
VERTEX
8
0
10
24.401246875000002
20
9.604796875
30
0
0
VERTEX
8
0
10
24.579796875
20
9.426246875
30
0
0
VERTEX
8
0
10
24.579796875
20
7.57375
30
0
42
0.3080042994457903
0
VERTEX
8
0
10
24.429796875
20
7.3201937500000005
30
0
0
VERTEX
8
0
10
24.429796875
20
3.304796875
30
0
42
0.41421356237309503
0
VERTEX
8
0
10
24.679796875
20
3.054796875
30
0
0
VERTEX
8
0
10
40.995200000000004
20
3.054796875
30
0
42
0.41421356237309503
0
VERTEX
8
0
10
41.245200000000004
20
3.304796875
30
0
0
VERTEX
8
0
10
41.245200000000004
20
3.5176000000000003
30
0
42
0.41421356237309503
0
VERTEX
8
0
10
40.995200000000004
20
3.7676000000000003
30
0
0
VERTEX
8
0
10
39.79435
20
3.7676000000000003
30
0
0
VERTEX
8
0
10
39.6158
20
3.9461500000000003
30
0
0
VERTEX
8
0
10
39.6158
20
5.3658
30
0
42
0.41421356237309503
0
VERTEX
8
0
10
39.3658
20
5.6158
30
0
0
VERTEX
8
0
10
37.94615
20
5.6158
30
0
0
VERTEX
8
0
10
37.7676
20
5.7943500000000006
30
0
0
VERTEX
8
0
10
37.7676
20
10.9952
30
0
42
0.2869705416510043
0
VERTEX
8
0
10
37.62700625
20
11.219990625000001
30
0
0
VERTEX
8
0
10
37.609775
20
11.226750000000001
30
0
42
0.09092937012493771
0
VERTEX
8
0
10
37.514634375
20
11.2452
30
0
0
VERTEX
8
0
10
37.3107375
20
11.329656250000001
30
0
0
VERTEX
8
0
10
37.15465625
20
11.4857375
30
0
0
VERTEX
8
0
10
37.0702
20
11.689634375
30
0
0
VERTEX
8
0
10
37.0702
20
16.8133
30
0
42
0.5345129013934508
0
VERTEX
8
0
10
36.724528125
20
17.04426875
30
0
0
VERTEX
8
0
10
36.48535625
20
16.9452
30
0
0
VERTEX
8
0
10
34.473034375000005
20
16.9452
30
0
42
0.8206833258393369
0
VERTEX
8
0
10
34.377365625
20
16.464228125
30
0
0
VERTEX
8
0
10
34.913946875
20
16.241971875
30
0
0
VERTEX
8
0
10
35.491975000000004
20
15.663943750000001
30
0
0
VERTEX
8
0
10
35.804796875
20
14.908728125000001
30
0
0
VERTEX
8
0
10
35.804796875
20
14.091268750000001
30
0
0
VERTEX
8
0
10
35.491975000000004
20
13.336053125000001
30
0
0
VERTEX
8
0
10
34.91394375
20
12.758021875
30
0
0
VERTEX
8
0
10
34.158728125
20
12.4452
30
0
0
VERTEX
8
0
10
33.341268750000005
20
12.4452
30
0
0
VERTEX
8
0
10
32.586053125
20
12.758021875
30
0
0
VERTEX
8
0
10
32.008021875000004
20
13.336053125000001
30
0
0
VERTEX
8
0
10
31.6952
20
14.091268750000001
30
0
0
VERTEX
8
0
10
31.6952
20
14.908728125000001
30
0
0
VERTEX
8
0
10
32.008021875000004
20
15.663943750000001
30
0
0
VERTEX
8
0
10
32.58605
20
16.241971875
30
0
0
VERTEX
8
0
10
33.122631250000005
20
16.464228125
30
0
42
0.8206833258393369
0
VERTEX
8
0
10
33.0269625
20
16.9452
30
0
0
VERTEX
8
0
10
31.324796875
20
16.9452
30
0
42
0.30713194210232025
0
VERTEX
8
0
10
31.093246875000002
20
16.787375
30
0
0
VERTEX
8
0
10
31.086378125000003
20
16.77040625
30
0
42
0.024000816780912045
0
VERTEX
8
0
10
31.08036875
20
16.744321875
30
0
0
VERTEX
8
0
10
30.896246875000003
20
16.560200000000002
30
0
0
VERTEX
8
0
10
28.10375
20
16.560200000000002
30
0
0
VERTEX
8
0
10
27.91991875
20
16.74403125
30
0
42
0.3576354129191419
0
VERTEX
8
0
10
27.6752
20
16.9452
30
0
0
VERTEX
8
0
10
27.204796875
20
16.9452
30
0
42
0.41421356237309503
0
VERTEX
8
0
10
26.954796875
20
16.6952
30
0
0
VERTEX
8
0
10
26.954796875
20
16.57375
30
0
0
VERTEX
8
0
10
26.776246875000002
20
16.3952
30
0
0
VERTEX
8
0
10
25.223750000000003
20
16.3952
30
0
42
0.4925040492842589
0
VERTEX
8
0
10
24.823218750000002
20
16.442171875
30
0
0
VERTEX
8
0
10
24.776246875000002
20
16.3952
30
0
0
VERTEX
8
0
10
23.223750000000003
20
16.3952
30
0
0
VERTEX
8
0
10
23.0452
20
16.57375
30
0
0
VERTEX
8
0
10
23.0452
20
18.42625
30
0
0
VERTEX
8
0
10
23.246975000000003
20
18.628021875
30
0
42
0.19891466452070558
0
VERTEX
8
0
10
23.3202
20
18.8048
30
0
0
VERTEX
8
0
10
23.3202
20
19.145200000000003
30
0
42
0.41421356237309503
0
VERTEX
8
0
10
23.0702
20
19.395200000000003
30
0
0
VERTEX
8
0
10
22.098637500000002
20
19.395200000000003
30
0
42
0.21488535453193208
0
VERTEX
8
0
10
21.906368750000002
20
19.4665125
30
0
0
VERTEX
8
0
10
21.891403125
20
19.465821875
30
0
42
0.07873846713969306
0
VERTEX
8
0
10
21.808440625
20
19.446
30
0
0
VERTEX
8
0
10
21.6250125
20
19.446
30
0
0
VERTEX
8
0
10
21.6250125
20
19.7
30
0
0
VERTEX
8
0
10
21.775000000000002
20
19.7
30
0
0
VERTEX
8
0
10
21.775000000000002
20
21.3
30
0
0
VERTEX
8
0
10
21.6250125
20
21.3
30
0
0
VERTEX
8
0
10
21.6250125
20
21.553996875
30
0
0
VERTEX
8
0
10
21.8202
20
21.553996875
30
0
42
0.41421356237309503
0
VERTEX
8
0
10
22.0702
20
21.803996875
30
0
0
VERTEX
8
0
10
22.0702
20
26.928700000000003
30
0
42
0.41421356237309503
0
VERTEX
8
0
10
21.8202
20
27.178700000000003
30
0
0
VERTEX
8
0
10
7.304796875
20
27.178700000000003
30
0
42
0.41421356237309503
0
VERTEX
8
0
10
7.054796875
20
26.928700000000003
30
0
0
VERTEX
8
0
10
7.054796875
20
25.529796875000002
30
0
42
0.41421356237309503
0
VERTEX
8
0
10
7.304796875
20
25.279796875000002
30
0
0
VERTEX
8
0
10
10.626246875
20
25.279796875000002
30
0
0
VERTEX
8
0
10
10.804796875000001
20
25.101246875
30
0
0
VERTEX
8
0
10
10.804796875000001
20
22.74875
30
0
0
VERTEX
8
0
10
10.626246875
20
22.5702
30
0
0
VERTEX
8
0
10
7.304796875
20
22.5702
30
0
42
0.41421356237309503
0
VERTEX
8
0
10
7.054796875
20
22.3202
30
0
0
VERTEX
8
0
10
7.054796875
20
6.679796875
30
0
42
0.41421356237309503
0
VERTEX
8
0
10
7.304796875
20
6.429796875
30
0
0
VERTEX
8
0
10
10.626246875
20
6.429796875
30
0
0
VERTEX
8
0
10
10.804796875000001
20
6.2512468750000005
30
0
0
VERTEX
8
0
10
10.804796875000001
20
3.89875
30
0
0
VERTEX
8
0
10
10.626246875
20
3.7202
30
0
0
VERTEX
8
0
10
7.304796875
20
3.7202
30
0
42
0.41421356237309503
0
VERTEX
8
0
10
7.054796875
20
3.4702
30
0
0
VERTEX
8
0
10
7.054796875
20
2.304796875
30
0
42
0.41421356237309503
0
VERTEX
8
0
10
7.304796875
20
2.054796875
30
0
0
VERTEX
8
0
10
19.3202
20
2.054796875
30
0
42
0.41421356237309503
0
VERTEX
8
0
10
19.5702
20
2.304796875
30
0
0
VERTEX
8
0
10
19.5702
20
7.3201937500000005
30
0
42
0.198912367379658
0
VERTEX
8
0
10
19.496978125000002
20
7.496971875000001
30
0
0
VERTEX
8
0
10
19.4202
20
7.57375
30
0
0
VERTEX
8
0
10
19.4202
20
9.426246875
30
0
0
VERTEX
8
0
10
19.598750000000003
20
9.604796875
30
0
0
VERTEX
8
0
10
20.651359375000002
20
9.604796875
30
0
42
0.21488535453193208
0
VERTEX
8
0
10
20.843628125000002
20
9.533484375
30
0
0
VERTEX
8
0
10
20.85859375
20
9.534175000000001
30
0
42
0.07873846713969306
0
VERTEX
8
0
10
20.94155625
20
9.553996875000001
30
0
0
VERTEX
8
0
10
21.12498125
20
9.553996875000001
30
0
0
VERTEX
8
0
10
21.12498125
20
9.3
30
0
0
VERTEX
8
0
10
20.975
20
9.3
30
0
0
VERTEX
8
0
10
20.975
20
7.7
30
0
0
VERTEX
8
0
10
21.12498125
20
7.7
30
0
0
VERTEX
8
0
10
21.12498125
20
7.446000000000001
30
0
0
VERTEX
8
0
10
20.929796875
20
7.446000000000001
30
0
42
0.41421356237309503
0
VERTEX
8
0
10
20.679796875
20
7.196000000000001
30
0
0
VERTEX
8
0
10
20.679796875
20
1.389640625
30
0
42
0.573189487076852
0
VERTEX
8
0
10
20.899384375
20
1.016496875
30
0
0
VERTEX
8
0
10
21.8202
20
1.016496875
30
0
0
SEQEND
0
POLYLINE
66
1
8
1_copper
10
0.0
20
0.0
30
0.0
70
1
0
VERTEX
8
0
10
15.148750000000001
20
21.595200000000002
30
0
0
VERTEX
8
0
10
14.9702
20
21.77375
30
0
0
VERTEX
8
0
10
14.9702
20
25.026246875000002
30
0
0
VERTEX
8
0
10
15.148750000000001
20
25.204796875
30
0
0
VERTEX
8
0
10
17.501246875
20
25.204796875
30
0
0
VERTEX
8
0
10
17.679796875
20
25.026246875000002
30
0
0
VERTEX
8
0
10
17.679796875
20
21.77375
30
0
0
VERTEX
8
0
10
17.501246875
20
21.595200000000002
30
0
0
SEQEND
0
POLYLINE
66
1
8
1_copper
10
0.0
20
0.0
30
0.0
70
1
0
VERTEX
8
0
10
26.49875
20
21.595200000000002
30
0
0
VERTEX
8
0
10
26.3202
20
21.77375
30
0
0
VERTEX
8
0
10
26.3202
20
25.026246875000002
30
0
0
VERTEX
8
0
10
26.49875
20
25.204796875
30
0
0
VERTEX
8
0
10
28.851246875
20
25.204796875
30
0
0
VERTEX
8
0
10
29.029796875000002
20
25.026246875000002
30
0
0
VERTEX
8
0
10
29.029796875000002
20
21.77375
30
0
0
VERTEX
8
0
10
28.851246875
20
21.595200000000002
30
0
0
SEQEND
0
POLYLINE
66
1
8
1_copper
10
0.0
20
0.0
30
0.0
70
1
0
VERTEX
8
0
10
30.14875
20
21.595200000000002
30
0
0
VERTEX
8
0
10
29.970200000000002
20
21.77375
30
0
0
VERTEX
8
0
10
29.970200000000002
20
25.026246875000002
30
0
0
VERTEX
8
0
10
30.14875
20
25.204796875
30
0
0
VERTEX
8
0
10
32.501246875
20
25.204796875
30
0
0
VERTEX
8
0
10
32.679796875
20
25.026246875000002
30
0
0
VERTEX
8
0
10
32.679796875
20
21.77375
30
0
0
VERTEX
8
0
10
32.501246875
20
21.595200000000002
30
0
0
SEQEND
0
POLYLINE
66
1
8
1_copper
10
0.0
20
0.0
30
0.0
70
1
0
VERTEX
8
0
10
10.97375
20
6.9202
30
0
0
VERTEX
8
0
10
10.795200000000001
20
7.098750000000001
30
0
0
VERTEX
8
0
10
10.795200000000001
20
21.901246875000002
30
0
0
VERTEX
8
0
10
10.97375
20
22.079796875
30
0
0
VERTEX
8
0
10
12.826246875
20
22.079796875
30
0
0
VERTEX
8
0
10
13.004796875
20
21.901246875000002
30
0
0
VERTEX
8
0
10
13.004796875
20
7.098750000000001
30
0
0
VERTEX
8
0
10
12.826246875
20
6.9202
30
0
0
SEQEND
0
POLYLINE
66
1
8
1_copper
10
0.0
20
0.0
30
0.0
70
1
0
VERTEX
8
0
10
17.73875
20
15.4252
30
0
0
VERTEX
8
0
10
17.560200000000002
20
15.603750000000002
30
0
0
VERTEX
8
0
10
17.560200000000002
20
18.396246875
30
0
0
VERTEX
8
0
10
17.73875
20
18.574796875
30
0
0
VERTEX
8
0
10
18.0702
20
18.574796875
30
0
42
0.41421356237309503
0
VERTEX
8
0
10
18.3202
20
18.824796875
30
0
0
VERTEX
8
0
10
18.3202
20
19.32019375
30
0
42
0.198912367379658
0
VERTEX
8
0
10
18.246978125000002
20
19.496971875
30
0
0
VERTEX
8
0
10
18.1702
20
19.57375
30
0
0
VERTEX
8
0
10
18.1702
20
21.426246875
30
0
0
VERTEX
8
0
10
18.348750000000003
20
21.604796875
30
0
0
VERTEX
8
0
10
20.651359375000002
20
21.604796875
30
0
42
0.21488535453193208
0
VERTEX
8
0
10
20.843628125000002
20
21.533484375
30
0
0
VERTEX
8
0
10
20.85859375
20
21.534175
30
0
42
0.07873846713969306
0
VERTEX
8
0
10
20.94155625
20
21.553996875
30
0
0
VERTEX
8
0
10
21.12498125
20
21.553996875
30
0
0
VERTEX
8
0
10
21.12498125
20
21.3
30
0
0
VERTEX
8
0
10
20.975
20
21.3
30
0
0
VERTEX
8
0
10
20.975
20
19.7
30
0
0
VERTEX
8
0
10
21.12498125
20
19.7
30
0
0
VERTEX
8
0
10
21.12498125
20
19.446
30
0
0
VERTEX
8
0
10
20.9298
20
19.446
30
0
42
0.4142172235430691
0
VERTEX
8
0
10
20.679796875
20
19.196
30
0
0
VERTEX
8
0
10
20.679796875
20
18.824796875
30
0
42
0.41421356237309503
0
VERTEX
8
0
10
20.929796875
20
18.574796875
30
0
0
VERTEX
8
0
10
21.261246875
20
18.574796875
30
0
0
VERTEX
8
0
10
21.439796875000003
20
18.396246875
30
0
0
VERTEX
8
0
10
21.439796875000003
20
15.603750000000002
30
0
0
VERTEX
8
0
10
21.261246875
20
15.4252
30
0
0
VERTEX
8
0
10
19.73875
20
15.4252
30
0
42
0.5168027928548954
0
VERTEX
8
0
10
19.323218750000002
20
15.487171875000001
30
0
0
VERTEX
8
0
10
19.261246875
20
15.4252
30
0
0
SEQEND
0
POLYLINE
66
1
8
1_copper
10
0.0
20
0.0
30
0.0
70
1
0
VERTEX
8
0
10
69.8
20
20.525000000000002
30
0
0
VERTEX
8
0
10
69.8
20
19.725
30
0
0
VERTEX
8
0
10
71.4
20
19.725
30
0
0
VERTEX
8
0
10
71.4
20
19.87498125
30
0
0
VERTEX
8
0
10
71.653996875
20
19.87498125
30
0
0
VERTEX
8
0
10
71.653996875
20
19.69155625
30
0
42
0.3064161751311084
0
VERTEX
8
0
10
71.695596875
20
19.411890625
30
0
0
VERTEX
8
0
10
71.704796875
20
19.401343750000002
30
0
0
VERTEX
8
0
10
71.704796875
20
7.098750000000001
30
0
0
VERTEX
8
0
10
71.526246875
20
6.9202
30
0
0
VERTEX
8
0
10
69.67375
20
6.9202
30
0
0
VERTEX
8
0
10
69.4952
20
7.098750000000001
30
0
0
VERTEX
8
0
10
69.4952
20
8.0702
30
0
42
0.41421356237309503
0
VERTEX
8
0
10
69.2452
20
8.3202
30
0
0
VERTEX
8
0
10
64.98963437500001
20
8.3202
30
0
0
VERTEX
8
0
10
64.7857375
20
8.40465625
30
0
0
VERTEX
8
0
10
64.504021875
20
8.686371875
30
0
42
0.09407413562171209
0
VERTEX
8
0
10
64.45182187500001
20
8.763571875
30
0
0
VERTEX
8
0
10
64.22089375
20
8.994496875000001
30
0
0
VERTEX
8
0
10
64.124471875
20
9.090921875000001
30
0
42
0.5345174610794698
0
VERTEX
8
0
10
63.716721875000005
20
9.009815625
30
0
0
VERTEX
8
0
10
63.664984375
20
8.88490625
30
0
0
VERTEX
8
0
10
63.388618750000006
20
8.608540625
30
0
42
0.198912367379658
0
VERTEX
8
0
10
63.315396875000005
20
8.4317625
30
0
0
VERTEX
8
0
10
63.315396875000005
20
6.804796875
30
0
42
0.41421356237309503
0
VERTEX
8
0
10
63.565396875000005
20
6.554796875
30
0
0
VERTEX
8
0
10
64.0437
20
6.554796875
30
0
42
0.41421356237309503
0
VERTEX
8
0
10
64.2937
20
6.804796875
30
0
0
VERTEX
8
0
10
64.2937
20
6.848246875
30
0
0
VERTEX
8
0
10
64.47225
20
7.0267968750000005
30
0
0
VERTEX
8
0
10
66.527746875
20
7.0267968750000005
30
0
0
VERTEX
8
0
10
66.706296875
20
6.848246875
30
0
0
VERTEX
8
0
10
66.706296875
20
4.99575
30
0
0
VERTEX
8
0
10
66.527746875
20
4.817200000000001
30
0
0
VERTEX
8
0
10
64.47225
20
4.817200000000001
30
0
0
VERTEX
8
0
10
64.2937
20
4.99575
30
0
0
VERTEX
8
0
10
64.2937
20
5.1952
30
0
42
0.41421356237309503
0
VERTEX
8
0
10
64.0437
20
5.4452
30
0
0
VERTEX
8
0
10
63.9024
20
5.4452
30
0
42
0.5345129013934508
0
VERTEX
8
0
10
63.671431250000005
20
5.099528125
30
0
0
VERTEX
8
0
10
63.827396875000005
20
4.723
30
0
0
VERTEX
8
0
10
63.827396875000005
20
4.1414968750000005
30
0
42
0.6681818341876016
0
VERTEX
8
0
10
64.254175
20
3.9647218750000004
30
0
0
VERTEX
8
0
10
64.472246875
20
4.182796875
30
0
0
VERTEX
8
0
10
66.527746875
20
4.182796875
30
0
0
VERTEX
8
0
10
66.706296875
20
4.004246875
30
0
0
VERTEX
8
0
10
66.706296875
20
2.0712968750000003
30
0
42
0.41421356237309503
0
VERTEX
8
0
10
66.956296875
20
1.821296875
30
0
0
VERTEX
8
0
10
75.1952
20
1.821296875
30
0
42
0.41421356237309503
0
VERTEX
8
0
10
75.4452
20
2.0712968750000003
30
0
0
VERTEX
8
0
10
75.4452
20
3.4702
30
0
42
0.41421356237309503
0
VERTEX
8
0
10
75.1952
20
3.7202
30
0
0
VERTEX
8
0
10
71.87375
20
3.7202
30
0
0
VERTEX
8
0
10
71.6952
20
3.89875
30
0
0
VERTEX
8
0
10
71.6952
20
6.2512468750000005
30
0
0
VERTEX
8
0
10
71.87375
20
6.429796875
30
0
0
VERTEX
8
0
10
75.1952
20
6.429796875
30
0
42
0.41421356237309503
0
VERTEX
8
0
10
75.4452
20
6.679796875
30
0
0
VERTEX
8
0
10
75.4452
20
20.5702
30
0
42
0.41421356237309503
0
VERTEX
8
0
10
75.1952
20
20.8202
30
0
0
VERTEX
8
0
10
71.903996875
20
20.8202
30
0
42
0.41421356237309503
0
VERTEX
8
0
10
71.653996875
20
20.5702
30
0
0
VERTEX
8
0
10
71.653996875
20
20.3750125
30
0
0
VERTEX
8
0
10
71.4
20
20.3750125
30
0
0
VERTEX
8
0
10
71.4
20
20.525000000000002
30
0
0
SEQEND
0
POLYLINE
66
1
8
1_copper
10
0.0
20
0.0
30
0.0
70
1
0
VERTEX
8
0
10
55.46
20
8.65
30
0
0
VERTEX
8
0
10
55.46
20
8.387500000000001
30
0
0
VERTEX
8
0
10
55.177334375
20
8.387500000000001
30
0
42
0.5058016232011804
0
VERTEX
8
0
10
54.779221875000005
20
8.448175
30
0
0
VERTEX
8
0
10
54.67625
20
8.3452
30
0
0
VERTEX
8
0
10
53.67350625
20
8.3452
30
0
42
0.369660807296325
0
VERTEX
8
0
10
53.348953125
20
8.36460625
30
0
0
VERTEX
8
0
10
53.326690625000005
20
8.3452
30
0
0
VERTEX
8
0
10
52.323750000000004
20
8.3452
30
0
42
0.17989044073875277
0
VERTEX
8
0
10
52.175503125000006
20
8.4382125
30
0
0
VERTEX
8
0
10
52.158240625000005
20
8.4422875
30
0
42
0.288408454797746
0
VERTEX
8
0
10
51.8852625
20
8.387500000000001
30
0
0
VERTEX
8
0
10
51.54
20
8.387500000000001
30
0
0
VERTEX
8
0
10
51.54
20
8.65
30
0
0
VERTEX
8
0
10
50.46
20
8.65
30
0
0
VERTEX
8
0
10
50.46
20
8.375
30
0
0
VERTEX
8
0
10
50.135000000000005
20
8.375
30
0
0
VERTEX
8
0
10
50.135000000000005
20
10.270000000000001
30
0
0
VERTEX
8
0
10
48.865
20
10.270000000000001
30
0
0
VERTEX
8
0
10
48.865
20
9.65
30
0
0
VERTEX
8
0
10
47.927600000000005
20
9.65
30
0
0
VERTEX
8
0
10
47.927600000000005
20
9.679400000000001
30
0
0
VERTEX
8
0
10
46.6576
20
9.679400000000001
30
0
0
VERTEX
8
0
10
46.6576
20
9.1206
30
0
0
VERTEX
8
0
10
47.927600000000005
20
9.1206
30
0
0
VERTEX
8
0
10
47.927600000000005
20
9.15
30
0
0
VERTEX
8
0
10
48.865
20
9.15
30
0
0
VERTEX
8
0
10
48.865
20
8.05
30
0
0
VERTEX
8
0
10
47.927600000000005
20
8.05
30
0
0
VERTEX
8
0
10
47.927600000000005
20
8.0794
30
0
0
VERTEX
8
0
10
46.6576
20
8.0794
30
0
0
VERTEX
8
0
10
46.6576
20
7.5206
30
0
0
VERTEX
8
0
10
47.927600000000005
20
7.5206
30
0
0
VERTEX
8
0
10
47.927600000000005
20
7.550000000000001
30
0
0
VERTEX
8
0
10
49.300000000000004
20
7.550000000000001
30
0
42
0.09656659214173903
0
VERTEX
8
0
10
49.3984375
20
7.557128125
30
0
0
VERTEX
8
0
10
49.43249375
20
7.554796875
30
0
0
VERTEX
8
0
10
49.5675
20
7.554796875
30
0
42
0.327762025450327
0
VERTEX
8
0
10
49.8060125
20
7.73
30
0
0
VERTEX
8
0
10
50.135000000000005
20
7.73
30
0
0
VERTEX
8
0
10
50.135000000000005
20
7.875
30
0
0
VERTEX
8
0
10
50.46
20
7.875
30
0
0
VERTEX
8
0
10
50.46
20
7.6000000000000005
30
0
0
VERTEX
8
0
10
51.54
20
7.6000000000000005
30
0
0
VERTEX
8
0
10
51.54
20
7.8624937500000005
30
0
0
VERTEX
8
0
10
51.793996875000005
20
7.8624937500000005
30
0
42
0.4823191328451793
0
VERTEX
8
0
10
52.043996875000005
20
7.554796875
30
0
0
VERTEX
8
0
10
54.956
20
7.554796875
30
0
42
0.4823191328451793
0
VERTEX
8
0
10
55.206
20
7.8624937500000005
30
0
0
VERTEX
8
0
10
55.46
20
7.8624937500000005
30
0
0
VERTEX
8
0
10
55.46
20
7.6000000000000005
30
0
0
VERTEX
8
0
10
56.540000000000006
20
7.6000000000000005
30
0
0
VERTEX
8
0
10
56.540000000000006
20
7.8624937500000005
30
0
0
VERTEX
8
0
10
56.793996875000005
20
7.8624937500000005
30
0
42
0.4823191328451793
0
VERTEX
8
0
10
57.043996875000005
20
7.554796875
30
0
0
VERTEX
8
0
10
60.1952
20
7.554796875
30
0
42
0.41421356237309503
0
VERTEX
8
0
10
60.4452
20
7.804796875
30
0
0
VERTEX
8
0
10
60.4452
20
11.6103625
30
0
0
VERTEX
8
0
10
60.52965625
20
11.814259375
30
0
0
VERTEX
8
0
10
61.5607375
20
12.845340625
30
0
0
VERTEX
8
0
10
61.764634375
20
12.929796875000001
30
0
0
VERTEX
8
0
10
63.6103625
20
12.929796875000001
30
0
0
VERTEX
8
0
10
63.814259375000006
20
12.845340625
30
0
0
VERTEX
8
0
10
64.970340625
20
11.689259375
30
0
0
VERTEX
8
0
10
65.05479687500001
20
11.4853625
30
0
0
VERTEX
8
0
10
65.05479687500001
20
9.833359375
30
0
42
0.198912367379658
0
VERTEX
8
0
10
65.12801875000001
20
9.65658125
30
0
0
VERTEX
8
0
10
65.28158125
20
9.50301875
30
0
42
0.198912367379658
0
VERTEX
8
0
10
65.458359375
20
9.429796875000001
30
0
0
VERTEX
8
0
10
69.2452
20
9.429796875000001
30
0
42
0.41421356237309503
0
VERTEX
8
0
10
69.4952
20
9.679796875000001
30
0
0
VERTEX
8
0
10
69.4952
20
10.5702
30
0
42
0.41421356237309503
0
VERTEX
8
0
10
69.2452
20
10.8202
30
0
0
VERTEX
8
0
10
68.514634375
20
10.8202
30
0
0
VERTEX
8
0
10
68.3107375
20
10.90465625
30
0
0
VERTEX
8
0
10
62.343415625000006
20
16.871978125000002
30
0
42
0.198912367379658
0
VERTEX
8
0
10
62.1666375
20
16.9452
30
0
0
VERTEX
8
0
10
49.473034375000005
20
16.9452
30
0
42
0.8206833258393369
0
VERTEX
8
0
10
49.377365625
20
16.464228125
30
0
0
VERTEX
8
0
10
49.913946875
20
16.241971875
30
0
0
VERTEX
8
0
10
50.491975000000004
20
15.663943750000001
30
0
0
VERTEX
8
0
10
50.804796875
20
14.908728125000001
30
0
0
VERTEX
8
0
10
50.804796875
20
14.091268750000001
30
0
0
VERTEX
8
0
10
50.491975000000004
20
13.33605
30
0
0
VERTEX
8
0
10
49.937496875
20
12.781575
30
0
42
0.6681818341876016
0
VERTEX
8
0
10
50.114271875
20
12.354796875
30
0
0
VERTEX
8
0
10
56.1103625
20
12.354796875
30
0
0
VERTEX
8
0
10
56.314259375000006
20
12.270340625000001
30
0
0
VERTEX
8
0
10
56.470340625000006
20
12.114259375000001
30
0
0
VERTEX
8
0
10
56.554796875
20
11.9103625
30
0
0
VERTEX
8
0
10
56.554796875
20
10.9198
30
0
42
0.198912367379658
0
VERTEX
8
0
10
56.62801875
20
10.743021875
30
0
0
VERTEX
8
0
10
56.796621875
20
10.574418750000001
30
0
42
0.6681786379192989
0
VERTEX
8
0
10
57.223400000000005
20
10.751196875
30
0
0
VERTEX
8
0
10
57.223400000000005
20
11.093165625000001
30
0
0
VERTEX
8
0
10
57.248415625
20
11.251106250000001
30
0
0
VERTEX
8
0
10
57.2978375
20
11.403215625000001
30
0
0
VERTEX
8
0
10
57.37043125
20
11.545687500000001
30
0
0
VERTEX
8
0
10
57.4644375
20
11.675071875
30
0
0
VERTEX
8
0
10
57.577525
20
11.788159375000001
30
0
0
VERTEX
8
0
10
57.706909375
20
11.882165625
30
0
0
VERTEX
8
0
10
57.84938125
20
11.954759375
30
0
0
VERTEX
8
0
10
57.98539375
20
11.998953125
30
0
0
VERTEX
8
0
10
57.98539375
20
11.732434375
30
0
42
0.30447266367912973
0
VERTEX
8
0
10
57.4774
20
11.050634375000001
30
0
0
VERTEX
8
0
10
57.4774
20
9.451765625
30
0
42
0.30447266367912973
0
VERTEX
8
0
10
57.98539375
20
8.769965625000001
30
0
0
VERTEX
8
0
10
57.98539375
20
8.50344375
30
0
0
VERTEX
8
0
10
57.84938125
20
8.5476375
30
0
0
VERTEX
8
0
10
57.706909375
20
8.62023125
30
0
0
VERTEX
8
0
10
57.577525
20
8.714237500000001
30
0
0
VERTEX
8
0
10
57.4644375
20
8.827325
30
0
0
VERTEX
8
0
10
57.37043125
20
8.956709375
30
0
0
VERTEX
8
0
10
57.297834375
20
9.099187500000001
30
0
42
0.6273205248696048
0
VERTEX
8
0
10
56.8677125
20
9.246668750000001
30
0
0
VERTEX
8
0
10
56.761900000000004
20
9.14085625
30
0
42
0.3438417553570511
0
VERTEX
8
0
10
56.728153125000006
20
8.830696875000001
30
0
0
VERTEX
8
0
10
56.73785625
20
8.81518125
30
0
0
VERTEX
8
0
10
56.738053125
20
8.81495625
30
0
0
VERTEX
8
0
10
56.7766875
20
8.7480375
30
0
0
VERTEX
8
0
10
56.793996875000005
20
8.6834375
30
0
0
VERTEX
8
0
10
56.793996875000005
20
8.387500000000001
30
0
0
VERTEX
8
0
10
56.540000000000006
20
8.387500000000001
30
0
0
VERTEX
8
0
10
56.540000000000006
20
8.65
30
0
0
SEQEND
0
POLYLINE
66
1
8
1_copper
10
0.0
20
0.0
30
0.0
70
1
0
VERTEX
8
0
10
55.125
20
15.700012500000001
30
0
0
VERTEX
8
0
10
55.125
20
15.75
30
0
0
VERTEX
8
0
10
54.850012500000005
20
15.75
30
0
0
VERTEX
8
0
10
54.850012500000005
20
16.00399375
30
0
0
VERTEX
8
0
10
55.158440625000004
20
16.003996875000002
30
0
0
VERTEX
8
0
10
55.223037500000004
20
15.9866875
30
0
0
VERTEX
8
0
10
55.280953125
20
15.95325
30
0
0
VERTEX
8
0
10
55.328250000000004
20
15.905953125
30
0
0
VERTEX
8
0
10
55.3616875
20
15.8480375
30
0
0
VERTEX
8
0
10
55.378996875000006
20
15.783437500000002
30
0
0
VERTEX
8
0
10
55.378996875000006
20
15.700012500000001
30
0
0
SEQEND
0
POLYLINE
66
1
8
1_copper
10
0.0
20
0.0
30
0.0
70
1
0
VERTEX
8
0
10
53.821000000000005
20
15.700012500000001
30
0
0
VERTEX
8
0
10
53.821000000000005
20
15.783437500000002
30
0
0
VERTEX
8
0
10
53.838309375
20
15.8480375
30
0
0
VERTEX
8
0
10
53.871746875
20
15.905953125
30
0
0
VERTEX
8
0
10
53.91904375
20
15.95325
30
0
0
VERTEX
8
0
10
53.976959375
20
15.9866875
30
0
0
VERTEX
8
0
10
54.041559375000006
20
16.003996875000002
30
0
0
VERTEX
8
0
10
54.349981250000006
20
16.003996875000002
30
0
0
VERTEX
8
0
10
54.349981250000006
20
15.75
30
0
0
VERTEX
8
0
10
54.075
20
15.75
30
0
0
VERTEX
8
0
10
54.075
20
15.700012500000001
30
0
0
SEQEND
0
POLYLINE
66
1
8
1_copper
10
0.0
20
0.0
30
0.0
70
1
0
VERTEX
8
0
10
53.948750000000004
20
12.9452
30
0
0
VERTEX
8
0
10
53.7702
20
13.123750000000001
30
0
0
VERTEX
8
0
10
53.7702
20
13.976246875000001
30
0
0
VERTEX
8
0
10
53.948750000000004
20
14.154796875
30
0
0
VERTEX
8
0
10
55.255246875000005
20
14.154796875
30
0
42
0.1619129444030628
0
VERTEX
8
0
10
55.404803125
20
14.104796875
30
0
0
VERTEX
8
0
10
56.223200000000006
20
14.104796875
30
0
42
0.41421356237309503
0
VERTEX
8
0
10
56.473200000000006
20
14.354796875
30
0
0
VERTEX
8
0
10
56.473200000000006
20
15.527746875
30
0
0
VERTEX
8
0
10
56.65175
20
15.706296875000001
30
0
0
VERTEX
8
0
10
58.504246875
20
15.706296875000001
30
0
0
VERTEX
8
0
10
58.682796875
20
15.527746875
30
0
0
VERTEX
8
0
10
58.682796875
20
13.47225
30
0
0
VERTEX
8
0
10
58.504246875
20
13.293700000000001
30
0
0
VERTEX
8
0
10
57.259859375000005
20
13.293700000000001
30
0
42
0.198912367379658
0
VERTEX
8
0
10
57.08308125
20
13.220478125000001
30
0
0
VERTEX
8
0
10
56.942259375000006
20
13.079656250000001
30
0
0
VERTEX
8
0
10
56.7383625
20
12.9952
30
0
0
VERTEX
8
0
10
55.404803125
20
12.9952
30
0
42
0.123267606191884
0
VERTEX
8
0
10
55.287015625
20
12.9657125
30
0
0
VERTEX
8
0
10
55.27209375
20
12.956153125
30
0
0
VERTEX
8
0
10
55.2569875
20
12.94681875
30
0
0
VERTEX
8
0
10
55.25545625
20
12.945496875
30
0
0
VERTEX
8
0
10
55.254990625000005
20
12.9452
30
0
0
SEQEND
0
POLYLINE
66
1
8
1_copper
10
0.0
20
0.0
30
0.0
70
1
0
VERTEX
8
0
10
61.222
20
14.9
30
0
0
VERTEX
8
0
10
61.222
20
15.4015
30
0
0
VERTEX
8
0
10
60.822
20
15.4015
30
0
0
VERTEX
8
0
10
60.822
20
15.655496875
30
0
0
VERTEX
8
0
10
61.255437500000006
20
15.655496875
30
0
0
VERTEX
8
0
10
61.320037500000005
20
15.6381875
30
0
0
VERTEX
8
0
10
61.377953125000005
20
15.604750000000001
30
0
0
VERTEX
8
0
10
61.425250000000005
20
15.557453125
30
0
0
VERTEX
8
0
10
61.4586875
20
15.4995375
30
0
0
VERTEX
8
0
10
61.475996875
20
15.4349375
30
0
0
VERTEX
8
0
10
61.475996875
20
14.9
30
0
0
SEQEND
0
POLYLINE
66
1
8
1_copper
10
0.0
20
0.0
30
0.0
70
1
0
VERTEX
8
0
10
59.367996875
20
14.9
30
0
0
VERTEX
8
0
10
59.368
20
15.4349375
30
0
0
VERTEX
8
0
10
59.385309375000006
20
15.4995375
30
0
0
VERTEX
8
0
10
59.418746875000004
20
15.557453125
30
0
0
VERTEX
8
0
10
59.466043750000004
20
15.604750000000001
30
0
0
VERTEX
8
0
10
59.523959375000004
20
15.6381875
30
0
0
VERTEX
8
0
10
59.588559375
20
15.655496875
30
0
0
VERTEX
8
0
10
60.02199375
20
15.655496875
30
0
0
VERTEX
8
0
10
60.02199375
20
15.4015
30
0
0
VERTEX
8
0
10
59.622
20
15.4015
30
0
0
VERTEX
8
0
10
59.622
20
14.9
30
0
0
SEQEND
0
POLYLINE
66
1
8
1_copper
10
0.0
20
0.0
30
0.0
70
1
0
VERTEX
8
0
10
54.041559375000006
20
14.896
30
0
0
VERTEX
8
0
10
53.976959375
20
14.913309375
30
0
0
VERTEX
8
0
10
53.91904375
20
14.946746875
30
0
0
VERTEX
8
0
10
53.871746875
20
14.994043750000001
30
0
0
VERTEX
8
0
10
53.838309375
20
15.051959375000001
30
0
0
VERTEX
8
0
10
53.821000000000005
20
15.116559375000001
30
0
0
VERTEX
8
0
10
53.821000000000005
20
15.19998125
30
0
0
VERTEX
8
0
10
54.075
20
15.19998125
30
0
0
VERTEX
8
0
10
54.075
20
15.15
30
0
0
VERTEX
8
0
10
54.349981250000006
20
15.15
30
0
0
VERTEX
8
0
10
54.349981250000006
20
14.896
30
0
0
SEQEND
0
POLYLINE
66
1
8
1_copper
10
0.0
20
0.0
30
0.0
70
1
0
VERTEX
8
0
10
54.850012500000005
20
14.896
30
0
0
VERTEX
8
0
10
54.850012500000005
20
15.15
30
0
0
VERTEX
8
0
10
55.125
20
15.15
30
0
0
VERTEX
8
0
10
55.125
20
15.19998125
30
0
0
VERTEX
8
0
10
55.378996875000006
20
15.19998125
30
0
0
VERTEX
8
0
10
55.378996875000006
20
15.116559375000001
30
0
0
VERTEX
8
0
10
55.3616875
20
15.051959375000001
30
0
0
VERTEX
8
0
10
55.328250000000004
20
14.994043750000001
30
0
0
VERTEX
8
0
10
55.280953125
20
14.946746875
30
0
0
VERTEX
8
0
10
55.223037500000004
20
14.913309375
30
0
0
VERTEX
8
0
10
55.158437500000005
20
14.896
30
0
0
SEQEND
0
POLYLINE
66
1
8
1_copper
10
0.0
20
0.0
30
0.0
70
1
0
VERTEX
8
0
10
51.74875
20
13.8952
30
0
0
VERTEX
8
0
10
51.5702
20
14.07375
30
0
0
VERTEX
8
0
10
51.5702
20
14.926246875
30
0
0
VERTEX
8
0
10
51.74875
20
15.104796875
30
0
0
VERTEX
8
0
10
53.051246875000004
20
15.104796875
30
0
0
VERTEX
8
0
10
53.229796875000005
20
14.926246875
30
0
0
VERTEX
8
0
10
53.229796875000005
20
14.07375
30
0
0
VERTEX
8
0
10
53.051246875000004
20
13.8952
30
0
0
SEQEND
0
POLYLINE
66
1
8
1_copper
10
0.0
20
0.0
30
0.0
70
1
0
VERTEX
8
0
10
59.588559375
20
13.3445
30
0
0
VERTEX
8
0
10
59.523959375000004
20
13.361809375
30
0
0
VERTEX
8
0
10
59.466043750000004
20
13.395246875
30
0
0
VERTEX
8
0
10
59.418746875000004
20
13.44254375
30
0
0
VERTEX
8
0
10
59.385309375000006
20
13.500459375
30
0
0
VERTEX
8
0
10
59.368
20
13.565059375
30
0
0
VERTEX
8
0
10
59.368
20
14.099993750000001
30
0
0
VERTEX
8
0
10
59.622
20
14.099993750000001
30
0
0
VERTEX
8
0
10
59.622
20
13.598500000000001
30
0
0
VERTEX
8
0
10
60.02199375
20
13.598500000000001
30
0
0
VERTEX
8
0
10
60.02199375
20
13.3445
30
0
0
SEQEND
0
POLYLINE
66
1
8
1_copper
10
0.0
20
0.0
30
0.0
70
1
0
VERTEX
8
0
10
60.822
20
13.598500000000001
30
0
0
VERTEX
8
0
10
61.222
20
13.598500000000001
30
0
0
VERTEX
8
0
10
61.222
20
14.099993750000001
30
0
0
VERTEX
8
0
10
61.475996875
20
14.099993750000001
30
0
0
VERTEX
8
0
10
61.475996875
20
13.565059375
30
0
0
VERTEX
8
0
10
61.4586875
20
13.500459375
30
0
0
VERTEX
8
0
10
61.425250000000005
20
13.44254375
30
0
0
VERTEX
8
0
10
61.377953125000005
20
13.395246875
30
0
0
VERTEX
8
0
10
61.320037500000005
20
13.361809375
30
0
0
VERTEX
8
0
10
61.255437500000006
20
13.3445
30
0
0
VERTEX
8
0
10
60.822
20
13.344496875
30
0
0
SEQEND
0
POLYLINE
66
1
8
1_copper
10
0.0
20
0.0
30
0.0
70
1
0
VERTEX
8
0
10
59.001400000000004
20
10.5052
30
0
0
VERTEX
8
0
10
59.001400000000004
20
11.050634375000001
30
0
42
0.3044751469716126
0
VERTEX
8
0
10
58.4934
20
11.732437500000001
30
0
0
VERTEX
8
0
10
58.4934
20
11.998953125
30
0
0
VERTEX
8
0
10
58.629415625
20
11.954759375
30
0
0
VERTEX
8
0
10
58.771887500000005
20
11.882165625
30
0
0
VERTEX
8
0
10
58.901271875000006
20
11.788159375000001
30
0
0
VERTEX
8
0
10
59.014359375000005
20
11.675071875
30
0
0
VERTEX
8
0
10
59.108365625000005
20
11.545687500000001
30
0
0
VERTEX
8
0
10
59.180959375
20
11.403215625000001
30
0
0
VERTEX
8
0
10
59.23038125
20
11.251106250000001
30
0
0
VERTEX
8
0
10
59.255396875
20
11.093165625000001
30
0
0
VERTEX
8
0
10
59.255396875
20
10.5052
30
0
0
SEQEND
0
POLYLINE
66
1
8
1_copper
10
0.0
20
0.0
30
0.0
70
1
0
VERTEX
8
0
10
58.4934
20
8.7699625
30
0
42
0.3044751469716126
0
VERTEX
8
0
10
59.001400000000004
20
9.451765625
30
0
0
VERTEX
8
0
10
59.001400000000004
20
9.997193750000001
30
0
0
VERTEX
8
0
10
59.255396875
20
9.997193750000001
30
0
0
VERTEX
8
0
10
59.255396875
20
9.409231250000001
30
0
0
VERTEX
8
0
10
59.23038125
20
9.251290625000001
30
0
0
VERTEX
8
0
10
59.180959375
20
9.09918125
30
0
0
VERTEX
8
0
10
59.108365625000005
20
8.956709375
30
0
0
VERTEX
8
0
10
59.014359375000005
20
8.827325
30
0
0
VERTEX
8
0
10
58.901271875000006
20
8.714237500000001
30
0
0
VERTEX
8
0
10
58.771887500000005
20
8.62023125
30
0
0
VERTEX
8
0
10
58.629415625
20
8.5476375
30
0
0
VERTEX
8
0
10
58.4934
20
8.50344375
30
0
0
SEQEND
0
POLYLINE
66
1
8
1_copper
10
0.0
20
0.0
30
0.0
70
1
0
VERTEX
8
0
10
57.365184375000005
20
1.82135
30
0
42
0.6672134144671745
0
VERTEX
8
0
10
57.5412875
20
2.248078125
30
0
0
VERTEX
8
0
10
57.464434375
20
2.324928125
30
0
0
VERTEX
8
0
10
57.37043125
20
2.4543093750000002
30
0
0
VERTEX
8
0
10
57.2978375
20
2.5967812500000003
30
0
0
VERTEX
8
0
10
57.248415625
20
2.748890625
30
0
0
VERTEX
8
0
10
57.223400000000005
20
2.90683125
30
0
0
VERTEX
8
0
10
57.223400000000005
20
3.4947937500000004
30
0
0
VERTEX
8
0
10
57.4774
20
3.4947937500000004
30
0
0
VERTEX
8
0
10
57.4774
20
2.949365625
30
0
42
0.9520795017710562
0
VERTEX
8
0
10
59.001400000000004
20
2.949365625
30
0
0
VERTEX
8
0
10
59.001400000000004
20
3.4947937500000004
30
0
0
VERTEX
8
0
10
59.255396875
20
3.4947937500000004
30
0
0
VERTEX
8
0
10
59.255396875
20
2.90683125
30
0
0
VERTEX
8
0
10
59.23038125
20
2.748890625
30
0
0
VERTEX
8
0
10
59.180959375
20
2.5967812500000003
30
0
0
VERTEX
8
0
10
59.108365625000005
20
2.4543093750000002
30
0
0
VERTEX
8
0
10
59.014362500000004
20
2.324928125
30
0
42
0.8279872137147168
0
VERTEX
8
0
10
59.114284375000004
20
1.821296875
30
0
0
VERTEX
8
0
10
61.813868750000005
20
1.821296875
30
0
42
0.6681818341876016
0
VERTEX
8
0
10
61.990643750000004
20
2.248075
30
0
0
VERTEX
8
0
10
61.856209375000006
20
2.38250625
30
0
0
VERTEX
8
0
10
61.6938
20
2.7745968750000003
30
0
0
VERTEX
8
0
10
61.6938
20
4.723
30
0
0
VERTEX
8
0
10
61.856209375000006
20
5.1150875000000005
30
0
0
VERTEX
8
0
10
62.132578125
20
5.39145625
30
0
42
0.198912367379658
0
VERTEX
8
0
10
62.2058
20
5.568234375
30
0
0
VERTEX
8
0
10
62.2058
20
8.4317625
30
0
42
0.1989100702406298
0
VERTEX
8
0
10
62.132578125
20
8.6085375
30
0
0
VERTEX
8
0
10
61.981575
20
8.75954375
30
0
42
0.6681818341876016
0
VERTEX
8
0
10
61.554796875
20
8.58276875
30
0
0
VERTEX
8
0
10
61.554796875
20
6.889634375
30
0
0
VERTEX
8
0
10
61.470340625000006
20
6.6857375
30
0
0
VERTEX
8
0
10
61.314259375000006
20
6.52965625
30
0
0
VERTEX
8
0
10
61.1103625
20
6.445200000000001
30
0
0
VERTEX
8
0
10
49.104796875000005
20
6.445200000000001
30
0
42
0.41421356237309503
0
VERTEX
8
0
10
48.854796875000005
20
6.195200000000001
30
0
0
VERTEX
8
0
10
48.854796875000005
20
6.089634375
30
0
0
VERTEX
8
0
10
48.770340625
20
5.8857375
30
0
0
VERTEX
8
0
10
48.614259375
20
5.729656250000001
30
0
0
VERTEX
8
0
10
48.410362500000005
20
5.6452
30
0
0
VERTEX
8
0
10
48.186803125000004
20
5.6452
30
0
42
0.04359788716508366
0
VERTEX
8
0
10
48.143453125
20
5.6414125
30
0
0
VERTEX
8
0
10
48.126312500000004
20
5.6369750000000005
30
0
42
0.056301758697395975
0
VERTEX
8
0
10
48.069215625000005
20
5.6158
30
0
0
VERTEX
8
0
10
46.634196875
20
5.6158
30
0
42
0.41421356237309503
0
VERTEX
8
0
10
46.384196875
20
5.3658
30
0
0
VERTEX
8
0
10
46.384196875
20
3.9355125
30
0
42
0.5868909789487109
0
VERTEX
8
0
10
46.596396875
20
3.554796875
30
0
0
VERTEX
8
0
10
48.6666375
20
3.554796875
30
0
42
0.198912367379658
0
VERTEX
8
0
10
48.843415625000006
20
3.6280187500000003
30
0
0
VERTEX
8
0
10
49.18573125
20
3.970334375
30
0
42
0.4026806646914393
0
VERTEX
8
0
10
49.425200000000004
20
4.23656875
30
0
0
VERTEX
8
0
10
49.425200000000004
20
4.261246875
30
0
0
VERTEX
8
0
10
49.603750000000005
20
4.439796875
30
0
0
VERTEX
8
0
10
52.3102
20
4.439796875
30
0
42
0.41421356237309503
0
VERTEX
8
0
10
52.5602
20
4.689796875
30
0
0
VERTEX
8
0
10
52.5602
20
4.896246875
30
0
0
VERTEX
8
0
10
52.73875
20
5.0747968750000005
30
0
0
VERTEX
8
0
10
54.261246875000005
20
5.0747968750000005
30
0
42
0.5168027928548954
0
VERTEX
8
0
10
54.676778125000006
20
5.012825
30
0
0
VERTEX
8
0
10
54.73875
20
5.0747968750000005
30
0
0
VERTEX
8
0
10
56.261246875000005
20
5.0747968750000005
30
0
0
VERTEX
8
0
10
56.439796875000006
20
4.896246875
30
0
0
VERTEX
8
0
10
56.439796875000006
20
2.0712968750000003
30
0
42
0.41421356237309503
0
VERTEX
8
0
10
56.689796875000006
20
1.821296875
30
0
0
VERTEX
8
0
10
57.364512500000004
20
1.821296875
30
0
0
SEQEND
0
POLYLINE
66
1
8
1_copper
10
0.0
20
0.0
30
0.0
70
1
0
VERTEX
8
0
10
25.24875
20
3.7952000000000004
30
0
0
VERTEX
8
0
10
25.0702
20
3.9737500000000003
30
0
0
VERTEX
8
0
10
25.0702
20
7.226246875
30
0
0
VERTEX
8
0
10
25.24875
20
7.404796875000001
30
0
0
VERTEX
8
0
10
27.601246875
20
7.404796875000001
30
0
0
VERTEX
8
0
10
27.779796875000002
20
7.226246875
30
0
0
VERTEX
8
0
10
27.779796875000002
20
3.9737500000000003
30
0
0
VERTEX
8
0
10
27.601246875
20
3.7952000000000004
30
0
0
SEQEND
0
POLYLINE
66
1
8
1_copper
10
0.0
20
0.0
30
0.0
70
1
0
VERTEX
8
0
10
16.39875
20
3.7952000000000004
30
0
0
VERTEX
8
0
10
16.220200000000002
20
3.9737500000000003
30
0
0
VERTEX
8
0
10
16.220200000000002
20
7.226246875
30
0
0
VERTEX
8
0
10
16.39875
20
7.404796875000001
30
0
0
VERTEX
8
0
10
18.751246875
20
7.404796875000001
30
0
0
VERTEX
8
0
10
18.929796875
20
7.226246875
30
0
0
VERTEX
8
0
10
18.929796875
20
3.9737500000000003
30
0
0
VERTEX
8
0
10
18.751246875
20
3.7952000000000004
30
0
0
SEQEND
0
POLYLINE
66
1
8
1_copper
10
0.0
20
0.0
30
0.0
70
1
0
VERTEX
8
0
10
57.223396875000006
20
4.002800000000001
30
0
0
VERTEX
8
0
10
57.223400000000005
20
4.590765625
30
0
0
VERTEX
8
0
10
57.248415625
20
4.748706250000001
30
0
0
VERTEX
8
0
10
57.2978375
20
4.900815625
30
0
0
VERTEX
8
0
10
57.37043125
20
5.0432875
30
0
0
VERTEX
8
0
10
57.4644375
20
5.172671875
30
0
0
VERTEX
8
0
10
57.577525
20
5.2857593750000005
30
0
0
VERTEX
8
0
10
57.706909375
20
5.379765625
30
0
0
VERTEX
8
0
10
57.84938125
20
5.452359375
30
0
0
VERTEX
8
0
10
57.98539375
20
5.496553125
30
0
0
VERTEX
8
0
10
57.98539375
20
5.230034375000001
30
0
42
0.30447266367912973
0
VERTEX
8
0
10
57.4774
20
4.548234375
30
0
0
VERTEX
8
0
10
57.4774
20
4.002800000000001
30
0
0
SEQEND
0
POLYLINE
66
1
8
1_copper
10
0.0
20
0.0
30
0.0
70
1
0
VERTEX
8
0
10
59.001400000000004
20
4.002800000000001
30
0
0
VERTEX
8
0
10
59.001400000000004
20
4.548234375
30
0
42
0.3044751469716126
0
VERTEX
8
0
10
58.4934
20
5.2300375
30
0
0
VERTEX
8
0
10
58.4934
20
5.496553125
30
0
0
VERTEX
8
0
10
58.629415625
20
5.452359375
30
0
0
VERTEX
8
0
10
58.771887500000005
20
5.379765625
30
0
0
VERTEX
8
0
10
58.901271875000006
20
5.2857593750000005
30
0
0
VERTEX
8
0
10
59.014359375000005
20
5.172671875
30
0
0
VERTEX
8
0
10
59.108365625000005
20
5.0432875
30
0
0
VERTEX
8
0
10
59.180959375
20
4.900815625
30
0
0
VERTEX
8
0
10
59.23038125
20
4.748706250000001
30
0
0
VERTEX
8
0
10
59.255396875
20
4.590765625
30
0
0
VERTEX
8
0
10
59.255396875
20
4.002800000000001
30
0
0
SEQEND
0
POLYLINE
66
1
8
16_copper
10
0.0
20
0.0
30
0.0
70
1
0
VERTEX
8
0
10
58.351343750000005
20
8.7345375
30
0
42
0.3578057741447831
0
VERTEX
8
0
10
59.001400000000004
20
9.451765625
30
0
0
VERTEX
8
0
10
59.001400000000004
20
11.050634375000001
30
0
42
0.9520795017710562
0
VERTEX
8
0
10
57.4774
20
11.050634375000001
30
0
0
VERTEX
8
0
10
57.4774
20
9.451765625
30
0
0
VERTEX
8
0
10
57.4847375
20
9.37725625
30
0
0
VERTEX
8
0
10
57.49934375
20
9.303825
30
0
0
VERTEX
8
0
10
57.521078125
20
9.23218125
30
0
0
VERTEX
8
0
10
57.549728125
20
9.163009375
30
0
0
VERTEX
8
0
10
57.585021875
20
9.09698125
30
0
0
VERTEX
8
0
10
57.626618750000006
20
9.03473125
30
0
0
VERTEX
8
0
10
57.674115625000006
20
8.97685625
30
0
0
VERTEX
8
0
10
57.727056250000004
20
8.923915625000001
30
0
0
VERTEX
8
0
10
57.78493125
20
8.876418750000001
30
0
0
VERTEX
8
0
10
57.847181250000006
20
8.834821875000001
30
0
0
VERTEX
8
0
10
57.913209375
20
8.799528125
30
0
0
VERTEX
8
0
10
57.98238125
20
8.770878125000001
30
0
0
VERTEX
8
0
10
58.054025
20
8.74914375
30
0
0
VERTEX
8
0
10
58.12745625
20
8.7345375
30
0
0
VERTEX
8
0
10
58.201965625
20
8.7272
30
0
0
VERTEX
8
0
10
58.276834375
20
8.7272
30
0
0
SEQEND
0
POLYLINE
66
1
8
16_copper
10
0.0
20
0.0
30
0.0
70
1
0
VERTEX
8
0
10
58.351343750000005
20
2.2321375
30
0
42
0.3578057741447831
0
VERTEX
8
0
10
59.001400000000004
20
2.949365625
30
0
0
VERTEX
8
0
10
59.001400000000004
20
4.548234375
30
0
42
0.9520795017710562
0
VERTEX
8
0
10
57.4774
20
4.548234375
30
0
0
VERTEX
8
0
10
57.4774
20
2.949365625
30
0
0
VERTEX
8
0
10
57.4847375
20
2.87485625
30
0
0
VERTEX
8
0
10
57.49934375
20
2.801425
30
0
0
VERTEX
8
0
10
57.521078125
20
2.7297812500000003
30
0
0
VERTEX
8
0
10
57.549728125
20
2.660609375
30
0
0
VERTEX
8
0
10
57.585021875
20
2.59458125
30
0
0
VERTEX
8
0
10
57.626618750000006
20
2.53233125
30
0
0
VERTEX
8
0
10
57.674115625000006
20
2.4744562500000002
30
0
0
VERTEX
8
0
10
57.727056250000004
20
2.421515625
30
0
0
VERTEX
8
0
10
57.78493125
20
2.3740187500000003
30
0
0
VERTEX
8
0
10
57.847181250000006
20
2.332421875
30
0
0
VERTEX
8
0
10
57.913209375
20
2.297128125
30
0
0
VERTEX
8
0
10
57.98238125
20
2.268478125
30
0
0
VERTEX
8
0
10
58.054025
20
2.2467437500000003
30
0
0
VERTEX
8
0
10
58.12745625
20
2.2321375
30
0
0
VERTEX
8
0
10
58.201965625
20
2.2248
30
0
0
VERTEX
8
0
10
58.276834375
20
2.2248
30
0
0
SEQEND
0
POLYLINE
66
1
8
1_copper
10
0.0
20
0.0
30
0.0
70
1
0
VERTEX
8
0
10
53.2
20
9.35
30
0
0
VERTEX
8
0
10
52.45
20
9.35
30
0
0
VERTEX
8
0
10
52.45
20
9.25
30
0
0
VERTEX
8
0
10
52.103556250000004
20
9.25
30
0
0
VERTEX
8
0
10
51.54
20
9.813556250000001
30
0
0
VERTEX
8
0
10
51.54
20
10.4
30
0
0
VERTEX
8
0
10
51.25
20
10.4
30
0
0
VERTEX
8
0
10
51.25
20
11
30
0
42
0.41421356237309503
0
VERTEX
8
0
10
51
20
11.25
30
0
0
VERTEX
8
0
10
47.927600000000005
20
11.25
30
0
0
VERTEX
8
0
10
47.927600000000005
20
11.2794
30
0
0
VERTEX
8
0
10
46.6576
20
11.2794
30
0
0
VERTEX
8
0
10
46.6576
20
10.720600000000001
30
0
0
VERTEX
8
0
10
47.927600000000005
20
10.720600000000001
30
0
0
VERTEX
8
0
10
47.927600000000005
20
10.75
30
0
0
VERTEX
8
0
10
50.75
20
10.75
30
0
0
VERTEX
8
0
10
50.75
20
10.4
30
0
0
VERTEX
8
0
10
50.46
20
10.4
30
0
0
VERTEX
8
0
10
50.46
20
9.35
30
0
0
VERTEX
8
0
10
51.29644375
20
9.35
30
0
0
VERTEX
8
0
10
51.823221875
20
8.823221875
30
0
42
0.198912367379658
0
VERTEX
8
0
10
52
20
8.75
30
0
0
VERTEX
8
0
10
52.45
20
8.75
30
0
0
VERTEX
8
0
10
52.45
20
8.65
30
0
0
VERTEX
8
0
10
53.2
20
8.65
30
0
0
SEQEND
0
POLYLINE
66
1
8
1_copper
10
0.0
20
0.0
30
0.0
70
1
0
VERTEX
8
0
10
47.927600000000005
20
12.0794
30
0
0
VERTEX
8
0
10
46.6576
20
12.0794
30
0
0
VERTEX
8
0
10
46.6576
20
11.5206
30
0
0
VERTEX
8
0
10
47.927600000000005
20
11.5206
30
0
0
VERTEX
8
0
10
47.927600000000005
20
11.55
30
0
0
VERTEX
8
0
10
53.925000000000004
20
11.55
30
0
0
VERTEX
8
0
10
53.925000000000004
20
10.35
30
0
0
VERTEX
8
0
10
53.800000000000004
20
10.35
30
0
0
VERTEX
8
0
10
53.800000000000004
20
9.65
30
0
0
VERTEX
8
0
10
54.550000000000004
20
9.65
30
0
0
VERTEX
8
0
10
54.550000000000004
20
10.35
30
0
0
VERTEX
8
0
10
54.425000000000004
20
10.35
30
0
0
VERTEX
8
0
10
54.425000000000004
20
11.55
30
0
0
VERTEX
8
0
10
55.75
20
11.55
30
0
0
VERTEX
8
0
10
55.75
20
10.4
30
0
0
VERTEX
8
0
10
55.46
20
10.4
30
0
0
VERTEX
8
0
10
55.46
20
9.35
30
0
0
VERTEX
8
0
10
56.540000000000006
20
9.35
30
0
0
VERTEX
8
0
10
56.540000000000006
20
10.4
30
0
0
VERTEX
8
0
10
56.25
20
10.4
30
0
0
VERTEX
8
0
10
56.25
20
11.8
30
0
42
0.41421356237309503
0
VERTEX
8
0
10
56
20
12.05
30
0
0
VERTEX
8
0
10
47.927600000000005
20
12.05
30
0
0
SEQEND
0
POLYLINE
66
1
8
1_copper
10
0.0
20
0.0
30
0.0
70
1
0
VERTEX
8
0
10
26.650000000000002
20
17.25
30
0
0
VERTEX
8
0
10
28.23
20
17.25
30
0
0
VERTEX
8
0
10
28.23
20
16.865000000000002
30
0
0
VERTEX
8
0
10
30.770000000000003
20
16.865000000000002
30
0
0
VERTEX
8
0
10
30.770000000000003
20
17.25
30
0
0
VERTEX
8
0
10
36.375
20
17.25
30
0
42
0.41421356237309503
0
VERTEX
8
0
10
36.625
20
17.5
30
0
0
VERTEX
8
0
10
36.625
20
19.7
30
0
0
VERTEX
8
0
10
36.775
20
19.7
30
0
0
VERTEX
8
0
10
36.775
20
21.3
30
0
0
VERTEX
8
0
10
35.975
20
21.3
30
0
0
VERTEX
8
0
10
35.975
20
19.7
30
0
0
VERTEX
8
0
10
36.125
20
19.7
30
0
0
VERTEX
8
0
10
36.125
20
17.75
30
0
0
VERTEX
8
0
10
30.770000000000003
20
17.75
30
0
0
VERTEX
8
0
10
30.770000000000003
20
18.135
30
0
0
VERTEX
8
0
10
28.23
20
18.135
30
0
0
VERTEX
8
0
10
28.23
20
17.75
30
0
0
VERTEX
8
0
10
26.650000000000002
20
17.75
30
0
0
VERTEX
8
0
10
26.650000000000002
20
18.3
30
0
0
VERTEX
8
0
10
25.35
20
18.3
30
0
0
VERTEX
8
0
10
25.35
20
16.7
30
0
0
VERTEX
8
0
10
26.650000000000002
20
16.7
30
0
0
SEQEND
0
POLYLINE
66
1
8
1_copper
10
0.0
20
0.0
30
0.0
70
1
0
VERTEX
8
0
10
62.50358125
20
5.229121875000001
30
0
42
0.30334709750080463
0
VERTEX
8
0
10
61.9986
20
4.548234375
30
0
0
VERTEX
8
0
10
61.9986
20
2.949365625
30
0
42
0.3059715170880054
0
VERTEX
8
0
10
62.510600000000004
20
2.26635
30
0
0
VERTEX
8
0
10
62.510600000000004
20
1.5165000000000002
30
0
0
VERTEX
8
0
10
55.75
20
1.5165000000000002
30
0
0
VERTEX
8
0
10
55.75
20
2.23
30
0
0
VERTEX
8
0
10
56.135000000000005
20
2.23
30
0
0
VERTEX
8
0
10
56.135000000000005
20
4.7700000000000005
30
0
0
VERTEX
8
0
10
54.865
20
4.7700000000000005
30
0
0
VERTEX
8
0
10
54.865
20
2.23
30
0
0
VERTEX
8
0
10
55.25
20
2.23
30
0
0
VERTEX
8
0
10
55.25
20
1.5165000000000002
30
0
0
VERTEX
8
0
10
43.65
20
1.5165000000000002
30
0
0
VERTEX
8
0
10
43.65
20
4.0724
30
0
0
VERTEX
8
0
10
43.6794
20
4.0724
30
0
0
VERTEX
8
0
10
43.6794
20
5.3424000000000005
30
0
0
VERTEX
8
0
10
43.1206
20
5.3424000000000005
30
0
0
VERTEX
8
0
10
43.1206
20
4.0724
30
0
0
VERTEX
8
0
10
43.15
20
4.0724
30
0
0
VERTEX
8
0
10
43.15
20
1.2665
30
0
42
0.41421356237309503
0
VERTEX
8
0
10
43.4
20
1.0165
30
0
0
VERTEX
8
0
10
62.760600000000004
20
1.0165
30
0
42
0.41421356237309503
0
VERTEX
8
0
10
63.010600000000004
20
1.2665
30
0
0
VERTEX
8
0
10
63.010600000000004
20
2.26635
30
0
42
0.3059715170880054
0
VERTEX
8
0
10
63.522600000000004
20
2.949365625
30
0
0
VERTEX
8
0
10
63.522600000000004
20
4.548234375
30
0
42
0.3059715170880054
0
VERTEX
8
0
10
63.010600000000004
20
5.23125
30
0
0
VERTEX
8
0
10
63.010600000000004
20
5.75
30
0
0
VERTEX
8
0
10
64.5985
20
5.75
30
0
0
VERTEX
8
0
10
64.5985
20
5.122
30
0
0
VERTEX
8
0
10
66.4015
20
5.122
30
0
0
VERTEX
8
0
10
66.4015
20
6.722
30
0
0
VERTEX
8
0
10
64.5985
20
6.722
30
0
0
VERTEX
8
0
10
64.5985
20
6.25
30
0
0
VERTEX
8
0
10
63.010600000000004
20
6.25
30
0
0
VERTEX
8
0
10
63.010600000000004
20
8.76875
30
0
42
0.3059715170880054
0
VERTEX
8
0
10
63.522600000000004
20
9.451765625
30
0
0
VERTEX
8
0
10
63.522600000000004
20
11.050634375000001
30
0
42
0.9520795017710562
0
VERTEX
8
0
10
61.9986
20
11.050634375000001
30
0
0
VERTEX
8
0
10
61.9986
20
9.451765625
30
0
42
0.3059715170880054
0
VERTEX
8
0
10
62.510600000000004
20
8.76875
30
0
0
VERTEX
8
0
10
62.510600000000004
20
5.23125
30
0
0
SEQEND
0
POLYLINE
66
1
8
16_copper
10
0.0
20
0.0
30
0.0
70
1
0
VERTEX
8
0
10
62.872543750000006
20
8.7345375
30
0
42
0.3578057741447831
0
VERTEX
8
0
10
63.522600000000004
20
9.451765625
30
0
0
VERTEX
8
0
10
63.522600000000004
20
11.050634375000001
30
0
42
0.9520795017710562
0
VERTEX
8
0
10
61.9986
20
11.050634375000001
30
0
0
VERTEX
8
0
10
61.9986
20
9.451765625
30
0
0
VERTEX
8
0
10
62.0059375
20
9.37725625
30
0
0
VERTEX
8
0
10
62.02054375
20
9.303825
30
0
0
VERTEX
8
0
10
62.042278125
20
9.23218125
30
0
0
VERTEX
8
0
10
62.070928125
20
9.163009375
30
0
0
VERTEX
8
0
10
62.106221875
20
9.09698125
30
0
0
VERTEX
8
0
10
62.147818750000006
20
9.03473125
30
0
0
VERTEX
8
0
10
62.195315625000006
20
8.97685625
30
0
0
VERTEX
8
0
10
62.248256250000004
20
8.923915625000001
30
0
0
VERTEX
8
0
10
62.30613125
20
8.876418750000001
30
0
0
VERTEX
8
0
10
62.368381250000006
20
8.834821875000001
30
0
0
VERTEX
8
0
10
62.434409375
20
8.799528125
30
0
0
VERTEX
8
0
10
62.50358125
20
8.770878125000001
30
0
0
VERTEX
8
0
10
62.575225
20
8.74914375
30
0
0
VERTEX
8
0
10
62.64865625
20
8.7345375
30
0
0
VERTEX
8
0
10
62.723165625
20
8.7272
30
0
0
VERTEX
8
0
10
62.798034375
20
8.7272
30
0
0
SEQEND
0
POLYLINE
66
1
8
16_copper
10
0.0
20
0.0
30
0.0
70
1
0
VERTEX
8
0
10
62.872543750000006
20
2.2321375
30
0
42
0.3578057741447831
0
VERTEX
8
0
10
63.522600000000004
20
2.949365625
30
0
0
VERTEX
8
0
10
63.522600000000004
20
4.548234375
30
0
42
0.9520795017710562
0
VERTEX
8
0
10
61.9986
20
4.548234375
30
0
0
VERTEX
8
0
10
61.9986
20
2.949365625
30
0
0
VERTEX
8
0
10
62.0059375
20
2.87485625
30
0
0
VERTEX
8
0
10
62.02054375
20
2.801425
30
0
0
VERTEX
8
0
10
62.042278125
20
2.7297812500000003
30
0
0
VERTEX
8
0
10
62.070928125
20
2.660609375
30
0
0
VERTEX
8
0
10
62.106221875
20
2.59458125
30
0
0
VERTEX
8
0
10
62.147818750000006
20
2.53233125
30
0
0
VERTEX
8
0
10
62.195315625000006
20
2.4744562500000002
30
0
0
VERTEX
8
0
10
62.248256250000004
20
2.421515625
30
0
0
VERTEX
8
0
10
62.30613125
20
2.3740187500000003
30
0
0
VERTEX
8
0
10
62.368381250000006
20
2.332421875
30
0
0
VERTEX
8
0
10
62.434409375
20
2.297128125
30
0
0
VERTEX
8
0
10
62.50358125
20
2.268478125
30
0
0
VERTEX
8
0
10
62.575225
20
2.2467437500000003
30
0
0
VERTEX
8
0
10
62.64865625
20
2.2321375
30
0
0
VERTEX
8
0
10
62.723165625
20
2.2248
30
0
0
VERTEX
8
0
10
62.798034375
20
2.2248
30
0
0
SEQEND
0
POLYLINE
66
1
8
1_copper
10
0.0
20
0.0
30
0.0
70
1
0
VERTEX
8
0
10
76.24989375
20
27.734853125
30
0
42
0.4126285070906998
0
VERTEX
8
0
10
76
20
27.983500000000003
30
0
0
VERTEX
8
0
10
6.5
20
27.983500000000003
30
0
42
0.41421356237309503
0
VERTEX
8
0
10
6.25
20
27.733500000000003
30
0
0
VERTEX
8
0
10
6.25
20
1.5
30
0
42
0.41421356237309503
0
VERTEX
8
0
10
6.5
20
1.25
30
0
0
VERTEX
8
0
10
20.125
20
1.25
30
0
42
0.41421356237309503
0
VERTEX
8
0
10
20.375
20
1.5
30
0
0
VERTEX
8
0
10
20.375
20
7.7
30
0
0
VERTEX
8
0
10
20.525000000000002
20
7.7
30
0
0
VERTEX
8
0
10
20.525000000000002
20
9.3
30
0
0
VERTEX
8
0
10
19.725
20
9.3
30
0
0
VERTEX
8
0
10
19.725
20
7.7
30
0
0
VERTEX
8
0
10
19.875
20
7.7
30
0
0
VERTEX
8
0
10
19.875
20
1.75
30
0
0
VERTEX
8
0
10
6.75
20
1.75
30
0
0
VERTEX
8
0
10
6.75
20
27.483500000000003
30
0
0
VERTEX
8
0
10
22.375
20
27.483500000000003
30
0
0
VERTEX
8
0
10
22.375
20
21.3
30
0
0
VERTEX
8
0
10
22.225
20
21.3
30
0
0
VERTEX
8
0
10
22.225
20
19.7
30
0
0
VERTEX
8
0
10
23.025000000000002
20
19.7
30
0
0
VERTEX
8
0
10
23.025000000000002
20
21.3
30
0
0
VERTEX
8
0
10
22.875
20
21.3
30
0
0
VERTEX
8
0
10
22.875
20
27.483500000000003
30
0
0
VERTEX
8
0
10
33.625
20
27.483500000000003
30
0
0
VERTEX
8
0
10
33.625
20
21.3
30
0
0
VERTEX
8
0
10
33.475
20
21.3
30
0
0
VERTEX
8
0
10
33.475
20
19.7
30
0
0
VERTEX
8
0
10
34.275
20
19.7
30
0
0
VERTEX
8
0
10
34.275
20
21.3
30
0
0
VERTEX
8
0
10
34.125
20
21.3
30
0
0
VERTEX
8
0
10
34.125
20
27.483500000000003
30
0
0
VERTEX
8
0
10
75.75
20
27.483500000000003
30
0
0
VERTEX
8
0
10
75.75
20
21.625
30
0
0
VERTEX
8
0
10
71.4
20
21.625
30
0
0
VERTEX
8
0
10
71.4
20
21.775000000000002
30
0
0
VERTEX
8
0
10
69.8
20
21.775000000000002
30
0
0
VERTEX
8
0
10
69.8
20
20.975
30
0
0
VERTEX
8
0
10
71.4
20
20.975
30
0
0
VERTEX
8
0
10
71.4
20
21.125
30
0
0
VERTEX
8
0
10
75.75
20
21.125
30
0
0
VERTEX
8
0
10
75.75
20
1.5165000000000002
30
0
0
VERTEX
8
0
10
65.75
20
1.5165000000000002
30
0
0
VERTEX
8
0
10
65.75
20
2.278
30
0
0
VERTEX
8
0
10
66.4015
20
2.278
30
0
0
VERTEX
8
0
10
66.4015
20
3.878
30
0
0
VERTEX
8
0
10
64.5985
20
3.878
30
0
0
VERTEX
8
0
10
64.5985
20
2.278
30
0
0
VERTEX
8
0
10
65.25
20
2.278
30
0
0
VERTEX
8
0
10
65.25
20
1.2665
30
0
42
0.41421356237309503
0
VERTEX
8
0
10
65.5
20
1.0165
30
0
0
VERTEX
8
0
10
76
20
1.0165
30
0
42
0.41421356237309503
0
VERTEX
8
0
10
76.25
20
1.2665
30
0
0
VERTEX
8
0
10
76.25
20
27.733500000000003
30
0
0
SEQEND
0
POLYLINE
66
1
8
1_copper
10
0.0
20
0.0
30
0.0
70
1
0
VERTEX
8
0
10
46.6576
20
9.950000000000001
30
0
0
VERTEX
8
0
10
46.6576
20
9.9206
30
0
0
VERTEX
8
0
10
47.927600000000005
20
9.9206
30
0
0
VERTEX
8
0
10
47.927600000000005
20
10.4794
30
0
0
VERTEX
8
0
10
46.6576
20
10.4794
30
0
0
VERTEX
8
0
10
46.6576
20
10.450000000000001
30
0
0
VERTEX
8
0
10
45
20
10.450000000000001
30
0
42
0.41421356237309503
0
VERTEX
8
0
10
44.75
20
10.200000000000001
30
0
0
VERTEX
8
0
10
44.75
20
9.65
30
0
0
VERTEX
8
0
10
41.25
20
9.65
30
0
0
VERTEX
8
0
10
41.25
20
11
30
0
42
0.41421356237309503
0
VERTEX
8
0
10
41
20
11.25
30
0
0
VERTEX
8
0
10
39.342400000000005
20
11.25
30
0
0
VERTEX
8
0
10
39.342400000000005
20
11.2794
30
0
0
VERTEX
8
0
10
38.0724
20
11.2794
30
0
0
VERTEX
8
0
10
38.0724
20
10.720600000000001
30
0
0
VERTEX
8
0
10
39.342400000000005
20
10.720600000000001
30
0
0
VERTEX
8
0
10
39.342400000000005
20
10.75
30
0
0
VERTEX
8
0
10
40.75
20
10.75
30
0
0
VERTEX
8
0
10
40.75
20
9.65
30
0
0
VERTEX
8
0
10
39.342400000000005
20
9.65
30
0
0
VERTEX
8
0
10
39.342400000000005
20
9.679400000000001
30
0
0
VERTEX
8
0
10
38.0724
20
9.679400000000001
30
0
0
VERTEX
8
0
10
38.0724
20
9.1206
30
0
0
VERTEX
8
0
10
39.342400000000005
20
9.1206
30
0
0
VERTEX
8
0
10
39.342400000000005
20
9.15
30
0
0
VERTEX
8
0
10
44.75
20
9.15
30
0
0
VERTEX
8
0
10
44.75
20
8.6
30
0
42
0.41421356237309503
0
VERTEX
8
0
10
45
20
8.35
30
0
0
VERTEX
8
0
10
46.6576
20
8.35
30
0
0
VERTEX
8
0
10
46.6576
20
8.3206
30
0
0
VERTEX
8
0
10
47.927600000000005
20
8.3206
30
0
0
VERTEX
8
0
10
47.927600000000005
20
8.8794
30
0
0
VERTEX
8
0
10
46.6576
20
8.8794
30
0
0
VERTEX
8
0
10
46.6576
20
8.85
30
0
0
VERTEX
8
0
10
45.25
20
8.85
30
0
0
VERTEX
8
0
10
45.25
20
9.950000000000001
30
0
0
SEQEND
0
POLYLINE
66
1
8
1_copper
10
0.0
20
0.0
30
0.0
70
1
0
VERTEX
8
0
10
24.650000000000002
20
18.3
30
0
0
VERTEX
8
0
10
24.125
20
18.3
30
0
0
VERTEX
8
0
10
24.125
20
19.7
30
0
0
VERTEX
8
0
10
24.275000000000002
20
19.7
30
0
0
VERTEX
8
0
10
24.275000000000002
20
21.3
30
0
0
VERTEX
8
0
10
23.475
20
21.3
30
0
0
VERTEX
8
0
10
23.475
20
19.7
30
0
0
VERTEX
8
0
10
23.625
20
19.7
30
0
0
VERTEX
8
0
10
23.625
20
18.3
30
0
0
VERTEX
8
0
10
23.35
20
18.3
30
0
0
VERTEX
8
0
10
23.35
20
16.7
30
0
0
VERTEX
8
0
10
24.650000000000002
20
16.7
30
0
0
SEQEND
0
POLYLINE
66
1
8
1_copper
10
0.0
20
0.0
30
0.0
70
1
0
VERTEX
8
0
10
43.6794
20
13.9276
30
0
0
VERTEX
8
0
10
43.65
20
13.9276
30
0
0
VERTEX
8
0
10
43.65
20
17.29644375
30
0
0
VERTEX
8
0
10
47.603556250000004
20
21.25
30
0
0
VERTEX
8
0
10
49.278000000000006
20
21.25
30
0
0
VERTEX
8
0
10
49.278000000000006
20
20.5985
30
0
0
VERTEX
8
0
10
50.878
20
20.5985
30
0
0
VERTEX
8
0
10
50.878
20
22.401500000000002
30
0
0
VERTEX
8
0
10
49.278000000000006
20
22.401500000000002
30
0
0
VERTEX
8
0
10
49.278000000000006
20
21.75
30
0
0
VERTEX
8
0
10
47.5
20
21.75
30
0
42
0.198912367379658
0
VERTEX
8
0
10
47.323221875
20
21.676778125000002
30
0
0
VERTEX
8
0
10
43.223221875
20
17.576778125
30
0
42
0.198912367379658
0
VERTEX
8
0
10
43.15
20
17.400000000000002
30
0
0
VERTEX
8
0
10
43.15
20
13.9276
30
0
0
VERTEX
8
0
10
43.1206
20
13.9276
30
0
0
VERTEX
8
0
10
43.1206
20
12.6576
30
0
0
VERTEX
8
0
10
43.6794
20
12.6576
30
0
0
SEQEND
0
POLYLINE
66
1
8
1_copper
10
0.0
20
0.0
30
0.0
70
1
0
VERTEX
8
0
10
55.125
20
13.3
30
0
0
VERTEX
8
0
10
56.628
20
13.3
30
0
42
0.198912367379658
0
VERTEX
8
0
10
56.804778125000006
20
13.373221875
30
0
0
VERTEX
8
0
10
57.03005625
20
13.598500000000001
30
0
0
VERTEX
8
0
10
58.378
20
13.598500000000001
30
0
0
VERTEX
8
0
10
58.378
20
15.4015
30
0
0
VERTEX
8
0
10
56.778000000000006
20
15.4015
30
0
0
VERTEX
8
0
10
56.778000000000006
20
14.053556250000002
30
0
0
VERTEX
8
0
10
56.52444375
20
13.8
30
0
0
VERTEX
8
0
10
55.125
20
13.8
30
0
0
VERTEX
8
0
10
55.125
20
13.850000000000001
30
0
0
VERTEX
8
0
10
54.075
20
13.850000000000001
30
0
0
VERTEX
8
0
10
54.075
20
13.25
30
0
0
VERTEX
8
0
10
55.125
20
13.25
30
0
0
SEQEND
0
POLYLINE
66
1
8
1_copper
10
0.0
20
0.0
30
0.0
70
1
0
VERTEX
8
0
10
47.927600000000005
20
5.95
30
0
0
VERTEX
8
0
10
48.300000000000004
20
5.95
30
0
42
0.9999999999999999
0
VERTEX
8
0
10
48.300000000000004
20
6.45
30
0
0
VERTEX
8
0
10
47.927600000000005
20
6.45
30
0
0
VERTEX
8
0
10
47.927600000000005
20
6.4794
30
0
0
VERTEX
8
0
10
46.6576
20
6.4794
30
0
0
VERTEX
8
0
10
46.6576
20
5.9206
30
0
0
VERTEX
8
0
10
47.927600000000005
20
5.9206
30
0
0
SEQEND
0
POLYLINE
66
1
8
1_copper
10
0.0
20
0.0
30
0.0
70
1
0
VERTEX
8
0
10
53.722
20
22.401500000000002
30
0
0
VERTEX
8
0
10
52.122
20
22.401500000000002
30
0
0
VERTEX
8
0
10
52.122
20
20.5985
30
0
0
VERTEX
8
0
10
53.722
20
20.5985
30
0
0
SEQEND
0
POLYLINE
66
1
8
1_copper
10
0.0
20
0.0
30
0.0
70
1
0
VERTEX
8
0
10
21.135
20
18.27
30
0
0
VERTEX
8
0
10
20.375
20
18.27
30
0
0
VERTEX
8
0
10
20.375
20
19.7
30
0
0
VERTEX
8
0
10
20.525000000000002
20
19.7
30
0
0
VERTEX
8
0
10
20.525000000000002
20
21.3
30
0
0
VERTEX
8
0
10
19.725
20
21.3
30
0
0
VERTEX
8
0
10
19.725
20
19.7
30
0
0
VERTEX
8
0
10
19.875
20
19.7
30
0
0
VERTEX
8
0
10
19.875
20
18.27
30
0
0
VERTEX
8
0
10
19.865000000000002
20
18.27
30
0
0
VERTEX
8
0
10
19.865000000000002
20
15.73
30
0
0
VERTEX
8
0
10
21.135
20
15.73
30
0
0
SEQEND
0
POLYLINE
66
1
8
1_copper
10
0.0
20
0.0
30
0.0
70
1
0
VERTEX
8
0
10
53.501353125
20
1.75010625
30
0
42
0.4126285070906998
0
VERTEX
8
0
10
53.75
20
2
30
0
0
VERTEX
8
0
10
53.75
20
2.23
30
0
0
VERTEX
8
0
10
54.135000000000005
20
2.23
30
0
0
VERTEX
8
0
10
54.135000000000005
20
4.7700000000000005
30
0
0
VERTEX
8
0
10
52.865
20
4.7700000000000005
30
0
0
VERTEX
8
0
10
52.865
20
2.25
30
0
0
VERTEX
8
0
10
44.45
20
2.25
30
0
0
VERTEX
8
0
10
44.45
20
4.0724
30
0
0
VERTEX
8
0
10
44.479400000000005
20
4.0724
30
0
0
VERTEX
8
0
10
44.479400000000005
20
5.3424000000000005
30
0
0
VERTEX
8
0
10
43.9206
20
5.3424000000000005
30
0
0
VERTEX
8
0
10
43.9206
20
4.0724
30
0
0
VERTEX
8
0
10
43.95
20
4.0724
30
0
0
VERTEX
8
0
10
43.95
20
2
30
0
42
0.41421356237309503
0
VERTEX
8
0
10
44.2
20
1.75
30
0
0
VERTEX
8
0
10
53.5
20
1.75
30
0
0
SEQEND
0
POLYLINE
66
1
8
1_copper
10
0.0
20
0.0
30
0.0
70
1
0
VERTEX
8
0
10
19.135
20
18.27
30
0
0
VERTEX
8
0
10
19.125
20
18.27
30
0
0
VERTEX
8
0
10
19.125
20
19.7
30
0
0
VERTEX
8
0
10
19.275000000000002
20
19.7
30
0
0
VERTEX
8
0
10
19.275000000000002
20
21.3
30
0
0
VERTEX
8
0
10
18.475
20
21.3
30
0
0
VERTEX
8
0
10
18.475
20
19.7
30
0
0
VERTEX
8
0
10
18.625
20
19.7
30
0
0
VERTEX
8
0
10
18.625
20
18.27
30
0
0
VERTEX
8
0
10
17.865000000000002
20
18.27
30
0
0
VERTEX
8
0
10
17.865000000000002
20
15.73
30
0
0
VERTEX
8
0
10
19.135
20
15.73
30
0
0
SEQEND
0
POLYLINE
66
1
8
1_copper
10
0.0
20
0.0
30
0.0
70
1
0
VERTEX
8
0
10
49.00200625
20
2.750159375
30
0
42
0.19682628245095668
0
VERTEX
8
0
10
49.176778125000006
20
2.823221875
30
0
0
VERTEX
8
0
10
49.603556250000004
20
3.25
30
0
0
VERTEX
8
0
10
49.730000000000004
20
3.25
30
0
0
VERTEX
8
0
10
49.730000000000004
20
2.865
30
0
0
VERTEX
8
0
10
52.27
20
2.865
30
0
0
VERTEX
8
0
10
52.27
20
4.135
30
0
0
VERTEX
8
0
10
49.730000000000004
20
4.135
30
0
0
VERTEX
8
0
10
49.730000000000004
20
3.75
30
0
0
VERTEX
8
0
10
49.5
20
3.75
30
0
42
0.198912367379658
0
VERTEX
8
0
10
49.323221875
20
3.6767781250000002
30
0
0
VERTEX
8
0
10
48.89644375
20
3.25
30
0
0
VERTEX
8
0
10
45.25
20
3.25
30
0
0
VERTEX
8
0
10
45.25
20
4.0724
30
0
0
VERTEX
8
0
10
45.2794
20
4.0724
30
0
0
VERTEX
8
0
10
45.2794
20
5.3424000000000005
30
0
0
VERTEX
8
0
10
44.720600000000005
20
5.3424000000000005
30
0
0
VERTEX
8
0
10
44.720600000000005
20
4.0724
30
0
0
VERTEX
8
0
10
44.75
20
4.0724
30
0
0
VERTEX
8
0
10
44.75
20
3.1
30
0
42
0.198912367379658
0
VERTEX
8
0
10
44.823221875
20
2.9232218750000003
30
0
0
VERTEX
8
0
10
44.923221875
20
2.823221875
30
0
42
0.198912367379658
0
VERTEX
8
0
10
45.1
20
2.75
30
0
0
VERTEX
8
0
10
49
20
2.75
30
0
0
SEQEND
0
POLYLINE
66
1
8
1_copper
10
0.0
20
0.0
30
0.0
70
1
0
VERTEX
8
0
10
40.479400000000005
20
13.9276
30
0
0
VERTEX
8
0
10
40.45
20
13.9276
30
0
42
0.27333932935049843
0
VERTEX
8
0
10
40.376778125
20
14.176778125
30
0
0
VERTEX
8
0
10
39.125
20
15.428556250000002
30
0
0
VERTEX
8
0
10
39.125
20
19.7
30
0
0
VERTEX
8
0
10
39.275
20
19.7
30
0
0
VERTEX
8
0
10
39.275
20
21.3
30
0
0
VERTEX
8
0
10
39.125
20
21.3
30
0
0
VERTEX
8
0
10
39.125
20
22.89644375
30
0
0
VERTEX
8
0
10
41.478556250000004
20
25.25
30
0
0
VERTEX
8
0
10
67.25
20
25.25
30
0
0
VERTEX
8
0
10
67.25
20
19.225
30
0
42
0.198912367379658
0
VERTEX
8
0
10
67.323221875
20
19.048221875
30
0
0
VERTEX
8
0
10
68.92322187500001
20
17.448221875
30
0
42
0.198912367379658
0
VERTEX
8
0
10
69.10000000000001
20
17.375
30
0
0
VERTEX
8
0
10
69.8
20
17.375
30
0
0
VERTEX
8
0
10
69.8
20
17.225
30
0
0
VERTEX
8
0
10
71.4
20
17.225
30
0
0
VERTEX
8
0
10
71.4
20
18.025000000000002
30
0
0
VERTEX
8
0
10
69.8
20
18.025000000000002
30
0
0
VERTEX
8
0
10
69.8
20
17.875
30
0
0
VERTEX
8
0
10
69.20355625
20
17.875
30
0
0
VERTEX
8
0
10
67.75
20
19.328556250000002
30
0
0
VERTEX
8
0
10
67.75
20
25.5
30
0
42
0.41421356237309503
0
VERTEX
8
0
10
67.5
20
25.75
30
0
0
VERTEX
8
0
10
41.375
20
25.75
30
0
42
0.198912367379658
0
VERTEX
8
0
10
41.198221875
20
25.676778125000002
30
0
0
VERTEX
8
0
10
38.698221875
20
23.176778125000002
30
0
42
0.198912367379658
0
VERTEX
8
0
10
38.625
20
23
30
0
0
VERTEX
8
0
10
38.625
20
21.3
30
0
0
VERTEX
8
0
10
38.475
20
21.3
30
0
0
VERTEX
8
0
10
38.475
20
19.7
30
0
0
VERTEX
8
0
10
38.625
20
19.7
30
0
0
VERTEX
8
0
10
38.625
20
15.325000000000001
30
0
42
0.198912367379658
0
VERTEX
8
0
10
38.698221875
20
15.148221875
30
0
0
VERTEX
8
0
10
39.9206
20
13.92584375
30
0
0
VERTEX
8
0
10
39.9206
20
12.6576
30
0
0
VERTEX
8
0
10
40.479400000000005
20
12.6576
30
0
0
SEQEND
0
POLYLINE
66
1
8
1_copper
10
0.0
20
0.0
30
0.0
70
1
0
VERTEX
8
0
10
39.342400000000005
20
12.0794
30
0
0
VERTEX
8
0
10
38.0724
20
12.0794
30
0
0
VERTEX
8
0
10
38.0724
20
12.05
30
0
0
VERTEX
8
0
10
37.875
20
12.05
30
0
0
VERTEX
8
0
10
37.875
20
19.7
30
0
0
VERTEX
8
0
10
38.025
20
19.7
30
0
0
VERTEX
8
0
10
38.025
20
21.3
30
0
0
VERTEX
8
0
10
37.875
20
21.3
30
0
0
VERTEX
8
0
10
37.875
20
22.89644375
30
0
0
VERTEX
8
0
10
41.228556250000004
20
26.25
30
0
0
VERTEX
8
0
10
68.35000000000001
20
26.25
30
0
0
VERTEX
8
0
10
68.35000000000001
20
19.375
30
0
42
0.198912367379658
0
VERTEX
8
0
10
68.42322187500001
20
19.198221875
30
0
0
VERTEX
8
0
10
68.92322187500001
20
18.698221875
30
0
42
0.198912367379658
0
VERTEX
8
0
10
69.10000000000001
20
18.625
30
0
0
VERTEX
8
0
10
69.8
20
18.625
30
0
0
VERTEX
8
0
10
69.8
20
18.475
30
0
0
VERTEX
8
0
10
71.4
20
18.475
30
0
0
VERTEX
8
0
10
71.4
20
19.275000000000002
30
0
0
VERTEX
8
0
10
69.8
20
19.275000000000002
30
0
0
VERTEX
8
0
10
69.8
20
19.125
30
0
0
VERTEX
8
0
10
69.20355625
20
19.125
30
0
0
VERTEX
8
0
10
68.85000000000001
20
19.47855625
30
0
0
VERTEX
8
0
10
68.85000000000001
20
26.5
30
0
42
0.41421356237309503
0
VERTEX
8
0
10
68.60000000000001
20
26.75
30
0
0
VERTEX
8
0
10
41.125
20
26.75
30
0
42
0.198912367379658
0
VERTEX
8
0
10
40.948221875
20
26.676778125000002
30
0
0
VERTEX
8
0
10
37.448221875
20
23.176778125000002
30
0
42
0.198912367379658
0
VERTEX
8
0
10
37.375
20
23
30
0
0
VERTEX
8
0
10
37.375
20
21.3
30
0
0
VERTEX
8
0
10
37.225
20
21.3
30
0
0
VERTEX
8
0
10
37.225
20
19.7
30
0
0
VERTEX
8
0
10
37.375
20
19.7
30
0
0
VERTEX
8
0
10
37.375
20
11.8
30
0
42
0.41421356237309503
0
VERTEX
8
0
10
37.625
20
11.55
30
0
0
VERTEX
8
0
10
38.0724
20
11.55
30
0
0
VERTEX
8
0
10
38.0724
20
11.5206
30
0
0
VERTEX
8
0
10
39.342400000000005
20
11.5206
30
0
0
SEQEND
0
POLYLINE
66
1
8
1_copper
10
0.0
20
0.0
30
0.0
70
1
0
VERTEX
8
0
10
42.0794
20
13.9276
30
0
0
VERTEX
8
0
10
41.5206
20
13.9276
30
0
0
VERTEX
8
0
10
41.5206
20
12.6576
30
0
0
VERTEX
8
0
10
42.0794
20
12.6576
30
0
0
SEQEND
0
POLYLINE
66
1
8
1_copper
10
0.0
20
0.0
30
0.0
70
1
0
VERTEX
8
0
10
42.879400000000004
20
13.9276
30
0
0
VERTEX
8
0
10
42.85
20
13.9276
30
0
0
VERTEX
8
0
10
42.85
20
17.89644375
30
0
0
VERTEX
8
0
10
48.203556250000005
20
23.25
30
0
0
VERTEX
8
0
10
65.25
20
23.25
30
0
0
VERTEX
8
0
10
65.25
20
18.725
30
0
42
0.198912367379658
0
VERTEX
8
0
10
65.323221875
20
18.548221875
30
0
0
VERTEX
8
0
10
68.92322187500001
20
14.948221875000002
30
0
42
0.198912367379658
0
VERTEX
8
0
10
69.10000000000001
20
14.875
30
0
0
VERTEX
8
0
10
69.8
20
14.875
30
0
0
VERTEX
8
0
10
69.8
20
14.725000000000001
30
0
0
VERTEX
8
0
10
71.4
20
14.725000000000001
30
0
0
VERTEX
8
0
10
71.4
20
15.525
30
0
0
VERTEX
8
0
10
69.8
20
15.525
30
0
0
VERTEX
8
0
10
69.8
20
15.375
30
0
0
VERTEX
8
0
10
69.20355625
20
15.375
30
0
0
VERTEX
8
0
10
65.75
20
18.828556250000002
30
0
0
VERTEX
8
0
10
65.75
20
23.5
30
0
42
0.41421356237309503
0
VERTEX
8
0
10
65.5
20
23.75
30
0
0
VERTEX
8
0
10
48.1
20
23.75
30
0
42
0.198912367379658
0
VERTEX
8
0
10
47.923221875
20
23.676778125000002
30
0
0
VERTEX
8
0
10
42.423221875
20
18.176778125000002
30
0
42
0.198912367379658
0
VERTEX
8
0
10
42.35
20
18
30
0
0
VERTEX
8
0
10
42.35
20
13.9276
30
0
0
VERTEX
8
0
10
42.3206
20
13.9276
30
0
0
VERTEX
8
0
10
42.3206
20
12.6576
30
0
0
VERTEX
8
0
10
42.879400000000004
20
12.6576
30
0
0
SEQEND
0
POLYLINE
66
1
8
1_copper
10
0.0
20
0.0
30
0.0
70
1
0
VERTEX
8
0
10
44.479400000000005
20
13.9276
30
0
0
VERTEX
8
0
10
44.45
20
13.9276
30
0
0
VERTEX
8
0
10
44.45
20
16.596443750000002
30
0
0
VERTEX
8
0
10
47.103556250000004
20
19.25
30
0
0
VERTEX
8
0
10
63.39644375
20
19.25
30
0
0
VERTEX
8
0
10
68.948221875
20
13.698221875
30
0
42
0.198912367379658
0
VERTEX
8
0
10
69.125
20
13.625
30
0
0
VERTEX
8
0
10
69.8
20
13.625
30
0
0
VERTEX
8
0
10
69.8
20
13.475000000000001
30
0
0
VERTEX
8
0
10
71.4
20
13.475000000000001
30
0
0
VERTEX
8
0
10
71.4
20
14.275
30
0
0
VERTEX
8
0
10
69.8
20
14.275
30
0
0
VERTEX
8
0
10
69.8
20
14.125
30
0
0
VERTEX
8
0
10
69.22855625
20
14.125
30
0
0
VERTEX
8
0
10
63.676778125000006
20
19.676778125000002
30
0
42
0.198912367379658
0
VERTEX
8
0
10
63.5
20
19.75
30
0
0
VERTEX
8
0
10
47
20
19.75
30
0
42
0.198912367379658
0
VERTEX
8
0
10
46.823221875
20
19.676778125000002
30
0
0
VERTEX
8
0
10
44.023221875000004
20
16.876778125
30
0
42
0.198912367379658
0
VERTEX
8
0
10
43.95
20
16.7
30
0
0
VERTEX
8
0
10
43.95
20
13.9276
30
0
0
VERTEX
8
0
10
43.9206
20
13.9276
30
0
0
VERTEX
8
0
10
43.9206
20
12.6576
30
0
0
VERTEX
8
0
10
44.479400000000005
20
12.6576
30
0
0
SEQEND
0
POLYLINE
66
1
8
1_copper
10
0.0
20
0.0
30
0.0
70
1
0
VERTEX
8
0
10
71.4
20
10.525
30
0
0
VERTEX
8
0
10
69.8
20
10.525
30
0
0
VERTEX
8
0
10
69.8
20
9.725
30
0
0
VERTEX
8
0
10
71.4
20
9.725
30
0
0
SEQEND
0
POLYLINE
66
1
8
1_copper
10
0.0
20
0.0
30
0.0
70
1
0
VERTEX
8
0
10
46.0794
20
5.3424000000000005
30
0
0
VERTEX
8
0
10
45.5206
20
5.3424000000000005
30
0
0
VERTEX
8
0
10
45.5206
20
4.0724
30
0
0
VERTEX
8
0
10
46.0794
20
4.0724
30
0
0
SEQEND
0
POLYLINE
66
1
8
1_copper
10
0.0
20
0.0
30
0.0
70
1
0
VERTEX
8
0
10
71.4
20
11.775
30
0
0
VERTEX
8
0
10
69.8
20
11.775
30
0
0
VERTEX
8
0
10
69.8
20
11.625
30
0
0
VERTEX
8
0
10
68.72855625
20
11.625
30
0
0
VERTEX
8
0
10
62.676778125000006
20
17.676778125000002
30
0
42
0.198912367379658
0
VERTEX
8
0
10
62.5
20
17.75
30
0
0
VERTEX
8
0
10
48
20
17.75
30
0
42
0.198912367379658
0
VERTEX
8
0
10
47.823221875
20
17.676778125000002
30
0
0
VERTEX
8
0
10
45.623221875
20
15.476778125000001
30
0
42
0.198912367379658
0
VERTEX
8
0
10
45.550000000000004
20
15.3
30
0
0
VERTEX
8
0
10
45.550000000000004
20
13.9276
30
0
0
VERTEX
8
0
10
45.5206
20
13.9276
30
0
0
VERTEX
8
0
10
45.5206
20
12.6576
30
0
0
VERTEX
8
0
10
46.0794
20
12.6576
30
0
0
VERTEX
8
0
10
46.0794
20
13.9276
30
0
0
VERTEX
8
0
10
46.050000000000004
20
13.9276
30
0
0
VERTEX
8
0
10
46.050000000000004
20
15.19644375
30
0
0
VERTEX
8
0
10
48.103556250000004
20
17.25
30
0
0
VERTEX
8
0
10
62.39644375
20
17.25
30
0
0
VERTEX
8
0
10
68.448221875
20
11.198221875
30
0
42
0.198912367379658
0
VERTEX
8
0
10
68.625
20
11.125
30
0
0
VERTEX
8
0
10
69.8
20
11.125
30
0
0
VERTEX
8
0
10
69.8
20
10.975
30
0
0
VERTEX
8
0
10
71.4
20
10.975
30
0
0
SEQEND
0
POLYLINE
66
1
8
1_copper
10
0.0
20
0.0
30
0.0
70
1
0
VERTEX
8
0
10
71.4
20
13.025
30
0
0
VERTEX
8
0
10
69.8
20
13.025
30
0
0
VERTEX
8
0
10
69.8
20
12.875
30
0
0
VERTEX
8
0
10
68.97855625
20
12.875
30
0
0
VERTEX
8
0
10
63.176778125000006
20
18.676778125000002
30
0
42
0.198912367379658
0
VERTEX
8
0
10
63
20
18.75
30
0
0
VERTEX
8
0
10
47.5
20
18.75
30
0
42
0.198912367379658
0
VERTEX
8
0
10
47.323221875
20
18.676778125000002
30
0
0
VERTEX
8
0
10
44.823221875
20
16.176778125000002
30
0
42
0.198912367379658
0
VERTEX
8
0
10
44.75
20
16
30
0
0
VERTEX
8
0
10
44.75
20
13.9276
30
0
0
VERTEX
8
0
10
44.720600000000005
20
13.9276
30
0
0
VERTEX
8
0
10
44.720600000000005
20
12.6576
30
0
0
VERTEX
8
0
10
45.2794
20
12.6576
30
0
0
VERTEX
8
0
10
45.2794
20
13.9276
30
0
0
VERTEX
8
0
10
45.25
20
13.9276
30
0
0
VERTEX
8
0
10
45.25
20
15.896443750000001
30
0
0
VERTEX
8
0
10
47.603556250000004
20
18.25
30
0
0
VERTEX
8
0
10
62.89644375
20
18.25
30
0
0
VERTEX
8
0
10
68.698221875
20
12.448221875
30
0
42
0.198912367379658
0
VERTEX
8
0
10
68.875
20
12.375
30
0
0
VERTEX
8
0
10
69.8
20
12.375
30
0
0
VERTEX
8
0
10
69.8
20
12.225000000000001
30
0
0
VERTEX
8
0
10
71.4
20
12.225000000000001
30
0
0
SEQEND
0
POLYLINE
66
1
8
1_copper
10
0.0
20
0.0
30
0.0
70
1
0
VERTEX
8
0
10
47.927600000000005
20
6.75
30
0
0
VERTEX
8
0
10
61
20
6.75
30
0
42
0.41421356237309503
0
VERTEX
8
0
10
61.25
20
7
30
0
0
VERTEX
8
0
10
61.25
20
11.396443750000001
30
0
0
VERTEX
8
0
10
61.978556250000004
20
12.125
30
0
0
VERTEX
8
0
10
63.39644375
20
12.125
30
0
0
VERTEX
8
0
10
64.25
20
11.271443750000001
30
0
0
VERTEX
8
0
10
64.25
20
9.5
30
0
42
0.198912367379658
0
VERTEX
8
0
10
64.323221875
20
9.323221875
30
0
0
VERTEX
8
0
10
64.746925
20
8.89951875
30
0
42
0.09287069846149877
0
VERTEX
8
0
10
64.79822187500001
20
8.823221875
30
0
0
VERTEX
8
0
10
64.92322187500001
20
8.698221875
30
0
42
0.198912367379658
0
VERTEX
8
0
10
65.10000000000001
20
8.625
30
0
0
VERTEX
8
0
10
69.8
20
8.625
30
0
0
VERTEX
8
0
10
69.8
20
8.475
30
0
0
VERTEX
8
0
10
71.4
20
8.475
30
0
0
VERTEX
8
0
10
71.4
20
9.275
30
0
0
VERTEX
8
0
10
69.8
20
9.275
30
0
0
VERTEX
8
0
10
69.8
20
9.125
30
0
0
VERTEX
8
0
10
65.21589375
20
9.125
30
0
42
0.06027276315684033
0
VERTEX
8
0
10
65.176778125
20
9.176778125
30
0
0
VERTEX
8
0
10
64.75
20
9.60355625
30
0
0
VERTEX
8
0
10
64.75
20
11.375
30
0
42
0.198912367379658
0
VERTEX
8
0
10
64.676778125
20
11.551778125
30
0
0
VERTEX
8
0
10
63.676778125000006
20
12.551778125
30
0
42
0.198912367379658
0
VERTEX
8
0
10
63.5
20
12.625
30
0
0
VERTEX
8
0
10
61.875
20
12.625
30
0
42
0.198912367379658
0
VERTEX
8
0
10
61.698221875
20
12.551778125
30
0
0
VERTEX
8
0
10
60.823221875
20
11.676778125
30
0
42
0.198912367379658
0
VERTEX
8
0
10
60.75
20
11.5
30
0
0
VERTEX
8
0
10
60.75
20
7.25
30
0
0
VERTEX
8
0
10
47.927600000000005
20
7.25
30
0
0
VERTEX
8
0
10
47.927600000000005
20
7.279400000000001
30
0
0
VERTEX
8
0
10
46.6576
20
7.279400000000001
30
0
0
VERTEX
8
0
10
46.6576
20
6.7206
30
0
0
VERTEX
8
0
10
47.927600000000005
20
6.7206
30
0
0
SEQEND
0
POLYLINE
66
1
8
1_copper
10
0.0
20
0.0
30
0.0
70
1
0
VERTEX
8
0
10
41.2794
20
13.9276
30
0
0
VERTEX
8
0
10
41.25
20
13.9276
30
0
0
VERTEX
8
0
10
41.25
20
14.7926
30
0
42
0.198912367379658
0
VERTEX
8
0
10
41.176778125
20
14.969378125
30
0
0
VERTEX
8
0
10
40.375
20
15.77115625
30
0
0
VERTEX
8
0
10
40.375
20
19.7
30
0
0
VERTEX
8
0
10
40.525
20
19.7
30
0
0
VERTEX
8
0
10
40.525
20
20.25
30
0
0
VERTEX
8
0
10
43.625
20
20.25
30
0
42
0.198912367379658
0
VERTEX
8
0
10
43.801778125000006
20
20.323221875
30
0
0
VERTEX
8
0
10
47.728556250000004
20
24.25
30
0
0
VERTEX
8
0
10
66.25
20
24.25
30
0
0
VERTEX
8
0
10
66.25
20
19
30
0
42
0.198912367379658
0
VERTEX
8
0
10
66.323221875
20
18.823221875
30
0
0
VERTEX
8
0
10
68.948221875
20
16.198221875
30
0
42
0.198912367379658
0
VERTEX
8
0
10
69.125
20
16.125
30
0
0
VERTEX
8
0
10
69.8
20
16.125
30
0
0
VERTEX
8
0
10
69.8
20
15.975000000000001
30
0
0
VERTEX
8
0
10
71.4
20
15.975000000000001
30
0
0
VERTEX
8
0
10
71.4
20
16.775000000000002
30
0
0
VERTEX
8
0
10
69.8
20
16.775000000000002
30
0
0
VERTEX
8
0
10
69.8
20
16.625
30
0
0
VERTEX
8
0
10
69.22855625
20
16.625
30
0
0
VERTEX
8
0
10
66.75
20
19.10355625
30
0
0
VERTEX
8
0
10
66.75
20
24.5
30
0
42
0.41421356237309503
0
VERTEX
8
0
10
66.5
20
24.75
30
0
0
VERTEX
8
0
10
47.625
20
24.75
30
0
42
0.198912367379658
0
VERTEX
8
0
10
47.448221875
20
24.676778125000002
30
0
0
VERTEX
8
0
10
43.52144375
20
20.75
30
0
0
VERTEX
8
0
10
40.525
20
20.75
30
0
0
VERTEX
8
0
10
40.525
20
21.3
30
0
0
VERTEX
8
0
10
39.725
20
21.3
30
0
0
VERTEX
8
0
10
39.725
20
19.7
30
0
0
VERTEX
8
0
10
39.875
20
19.7
30
0
0
VERTEX
8
0
10
39.875
20
15.6676
30
0
42
0.198912367379658
0
VERTEX
8
0
10
39.948221875
20
15.490821875
30
0
0
VERTEX
8
0
10
40.75
20
14.689043750000002
30
0
0
VERTEX
8
0
10
40.75
20
13.9276
30
0
0
VERTEX
8
0
10
40.720600000000005
20
13.9276
30
0
0
VERTEX
8
0
10
40.720600000000005
20
12.6576
30
0
0
VERTEX
8
0
10
41.2794
20
12.6576
30
0
0
SEQEND
0
POLYLINE
66
1
8
1_copper
10
0.0
20
0.0
30
0.0
70
1
0
VERTEX
8
0
10
33.921621875
20
12.75749375
30
0
0
VERTEX
8
0
10
34.03521875
20
12.772450000000001
30
0
0
VERTEX
8
0
10
34.147596875000005
20
12.794803125000001
30
0
0
VERTEX
8
0
10
34.258271875
20
12.82445625
30
0
0
VERTEX
8
0
10
34.36676875
20
12.861287500000001
30
0
0
VERTEX
8
0
10
34.472625
20
12.905134375000001
30
0
0
VERTEX
8
0
10
34.575387500000005
20
12.9558125
30
0
0
VERTEX
8
0
10
34.6746125
20
13.013100000000001
30
0
0
VERTEX
8
0
10
34.769881250000005
20
13.07675625
30
0
0
VERTEX
8
0
10
34.860784375
20
13.14650625
30
0
0
VERTEX
8
0
10
34.946928125
20
13.222053125
30
0
0
VERTEX
8
0
10
35.027946875000005
20
13.303071875
30
0
0
VERTEX
8
0
10
35.10349375
20
13.389215625
30
0
0
VERTEX
8
0
10
35.173243750000005
20
13.48011875
30
0
0
VERTEX
8
0
10
35.2369
20
13.575387500000001
30
0
0
VERTEX
8
0
10
35.2941875
20
13.6746125
30
0
0
VERTEX
8
0
10
35.344865625000004
20
13.777375000000001
30
0
0
VERTEX
8
0
10
35.388712500000004
20
13.883231250000001
30
0
0
VERTEX
8
0
10
35.42554375
20
13.991728125
30
0
0
VERTEX
8
0
10
35.455196875
20
14.102403125
30
0
0
VERTEX
8
0
10
35.47755
20
14.214781250000001
30
0
0
VERTEX
8
0
10
35.492506250000005
20
14.328378125
30
0
0
VERTEX
8
0
10
35.5
20
14.442709375000002
30
0
0
VERTEX
8
0
10
35.5
20
14.557290625
30
0
0
VERTEX
8
0
10
35.492506250000005
20
14.671621875000001
30
0
0
VERTEX
8
0
10
35.47755
20
14.78521875
30
0
0
VERTEX
8
0
10
35.455196875
20
14.897596875000001
30
0
0
VERTEX
8
0
10
35.42554375
20
15.008271875
30
0
0
VERTEX
8
0
10
35.388712500000004
20
15.11676875
30
0
0
VERTEX
8
0
10
35.344865625000004
20
15.222625
30
0
0
VERTEX
8
0
10
35.2941875
20
15.325387500000001
30
0
0
VERTEX
8
0
10
35.2369
20
15.4246125
30
0
0
VERTEX
8
0
10
35.173243750000005
20
15.519881250000001
30
0
0
VERTEX
8
0
10
35.10349375
20
15.610784375000001
30
0
0
VERTEX
8
0
10
35.027946875000005
20
15.696928125000001
30
0
0
VERTEX
8
0
10
34.946928125
20
15.777946875000001
30
0
0
VERTEX
8
0
10
34.860784375
20
15.85349375
30
0
0
VERTEX
8
0
10
34.769881250000005
20
15.923243750000001
30
0
0
VERTEX
8
0
10
34.6746125
20
15.9869
30
0
0
VERTEX
8
0
10
34.575387500000005
20
16.0441875
30
0
0
VERTEX
8
0
10
34.472625
20
16.094865625
30
0
0
VERTEX
8
0
10
34.36676875
20
16.1387125
30
0
0
VERTEX
8
0
10
34.258271875
20
16.17554375
30
0
0
VERTEX
8
0
10
34.147596875000005
20
16.205196875000002
30
0
0
VERTEX
8
0
10
34.03521875
20
16.22755
30
0
0
VERTEX
8
0
10
33.921621875
20
16.24250625
30
0
0
VERTEX
8
0
10
33.807290625
20
16.25
30
0
0
VERTEX
8
0
10
33.692709375
20
16.25
30
0
0
VERTEX
8
0
10
33.578378125
20
16.24250625
30
0
0
VERTEX
8
0
10
33.46478125
20
16.22755
30
0
0
VERTEX
8
0
10
33.352403125
20
16.205196875000002
30
0
0
VERTEX
8
0
10
33.241728125
20
16.17554375
30
0
0
VERTEX
8
0
10
33.13323125
20
16.1387125
30
0
0
VERTEX
8
0
10
33.027375
20
16.094865625
30
0
0
VERTEX
8
0
10
32.9246125
20
16.0441875
30
0
0
VERTEX
8
0
10
32.825387500000005
20
15.9869
30
0
0
VERTEX
8
0
10
32.73011875
20
15.923243750000001
30
0
0
VERTEX
8
0
10
32.639215625
20
15.85349375
30
0
0
VERTEX
8
0
10
32.553071875
20
15.777946875000001
30
0
0
VERTEX
8
0
10
32.472053125
20
15.696928125000001
30
0
0
VERTEX
8
0
10
32.39650625
20
15.610784375000001
30
0
0
VERTEX
8
0
10
32.32675625
20
15.519881250000001
30
0
0
VERTEX
8
0
10
32.2631
20
15.4246125
30
0
0
VERTEX
8
0
10
32.2058125
20
15.325387500000001
30
0
0
VERTEX
8
0
10
32.155134375
20
15.222625
30
0
0
VERTEX
8
0
10
32.1112875
20
15.11676875
30
0
0
VERTEX
8
0
10
32.074456250000004
20
15.008271875
30
0
0
VERTEX
8
0
10
32.044803125
20
14.897596875000001
30
0
0
VERTEX
8
0
10
32.02245
20
14.78521875
30
0
0
VERTEX
8
0
10
32.00749375
20
14.671621875000001
30
0
0
VERTEX
8
0
10
32
20
14.557290625
30
0
0
VERTEX
8
0
10
32
20
14.442709375000002
30
0
0
VERTEX
8
0
10
32.00749375
20
14.328378125
30
0
0
VERTEX
8
0
10
32.02245
20
14.214781250000001
30
0
0
VERTEX
8
0
10
32.044803125
20
14.102403125
30
0
0
VERTEX
8
0
10
32.074456250000004
20
13.991728125
30
0
0
VERTEX
8
0
10
32.1112875
20
13.883231250000001
30
0
0
VERTEX
8
0
10
32.155134375
20
13.777375000000001
30
0
0
VERTEX
8
0
10
32.2058125
20
13.6746125
30
0
0
VERTEX
8
0
10
32.2631
20
13.575387500000001
30
0
0
VERTEX
8
0
10
32.32675625
20
13.48011875
30
0
0
VERTEX
8
0
10
32.39650625
20
13.389215625
30
0
0
VERTEX
8
0
10
32.472053125
20
13.303071875
30
0
0
VERTEX
8
0
10
32.553071875
20
13.222053125
30
0
0
VERTEX
8
0
10
32.639215625
20
13.14650625
30
0
0
VERTEX
8
0
10
32.73011875
20
13.07675625
30
0
0
VERTEX
8
0
10
32.825387500000005
20
13.013100000000001
30
0
0
VERTEX
8
0
10
32.9246125
20
12.9558125
30
0
0
VERTEX
8
0
10
33.027375
20
12.905134375000001
30
0
0
VERTEX
8
0
10
33.13323125
20
12.861287500000001
30
0
0
VERTEX
8
0
10
33.241728125
20
12.82445625
30
0
0
VERTEX
8
0
10
33.352403125
20
12.794803125000001
30
0
0
VERTEX
8
0
10
33.46478125
20
12.772450000000001
30
0
0
VERTEX
8
0
10
33.578378125
20
12.75749375
30
0
0
VERTEX
8
0
10
33.692709375
20
12.75
30
0
0
VERTEX
8
0
10
33.807290625
20
12.75
30
0
0
SEQEND
0
POLYLINE
66
1
8
16_copper
10
0.0
20
0.0
30
0.0
70
1
0
VERTEX
8
0
10
33.921621875
20
12.75749375
30
0
0
VERTEX
8
0
10
34.03521875
20
12.772450000000001
30
0
0
VERTEX
8
0
10
34.147596875000005
20
12.794803125000001
30
0
0
VERTEX
8
0
10
34.258271875
20
12.82445625
30
0
0
VERTEX
8
0
10
34.36676875
20
12.861287500000001
30
0
0
VERTEX
8
0
10
34.472625
20
12.905134375000001
30
0
0
VERTEX
8
0
10
34.575387500000005
20
12.9558125
30
0
0
VERTEX
8
0
10
34.6746125
20
13.013100000000001
30
0
0
VERTEX
8
0
10
34.769881250000005
20
13.07675625
30
0
0
VERTEX
8
0
10
34.860784375
20
13.14650625
30
0
0
VERTEX
8
0
10
34.946928125
20
13.222053125
30
0
0
VERTEX
8
0
10
35.027946875000005
20
13.303071875
30
0
0
VERTEX
8
0
10
35.10349375
20
13.389215625
30
0
0
VERTEX
8
0
10
35.173243750000005
20
13.48011875
30
0
0
VERTEX
8
0
10
35.2369
20
13.575387500000001
30
0
0
VERTEX
8
0
10
35.2941875
20
13.6746125
30
0
0
VERTEX
8
0
10
35.344865625000004
20
13.777375000000001
30
0
0
VERTEX
8
0
10
35.388712500000004
20
13.883231250000001
30
0
0
VERTEX
8
0
10
35.42554375
20
13.991728125
30
0
0
VERTEX
8
0
10
35.455196875
20
14.102403125
30
0
0
VERTEX
8
0
10
35.47755
20
14.214781250000001
30
0
0
VERTEX
8
0
10
35.492506250000005
20
14.328378125
30
0
0
VERTEX
8
0
10
35.5
20
14.442709375000002
30
0
0
VERTEX
8
0
10
35.5
20
14.557290625
30
0
0
VERTEX
8
0
10
35.492506250000005
20
14.671621875000001
30
0
0
VERTEX
8
0
10
35.47755
20
14.78521875
30
0
0
VERTEX
8
0
10
35.455196875
20
14.897596875000001
30
0
0
VERTEX
8
0
10
35.42554375
20
15.008271875
30
0
0
VERTEX
8
0
10
35.388712500000004
20
15.11676875
30
0
0
VERTEX
8
0
10
35.344865625000004
20
15.222625
30
0
0
VERTEX
8
0
10
35.2941875
20
15.325387500000001
30
0
0
VERTEX
8
0
10
35.2369
20
15.4246125
30
0
0
VERTEX
8
0
10
35.173243750000005
20
15.519881250000001
30
0
0
VERTEX
8
0
10
35.10349375
20
15.610784375000001
30
0
0
VERTEX
8
0
10
35.027946875000005
20
15.696928125000001
30
0
0
VERTEX
8
0
10
34.946928125
20
15.777946875000001
30
0
0
VERTEX
8
0
10
34.860784375
20
15.85349375
30
0
0
VERTEX
8
0
10
34.769881250000005
20
15.923243750000001
30
0
0
VERTEX
8
0
10
34.6746125
20
15.9869
30
0
0
VERTEX
8
0
10
34.575387500000005
20
16.0441875
30
0
0
VERTEX
8
0
10
34.472625
20
16.094865625
30
0
0
VERTEX
8
0
10
34.36676875
20
16.1387125
30
0
0
VERTEX
8
0
10
34.258271875
20
16.17554375
30
0
0
VERTEX
8
0
10
34.147596875000005
20
16.205196875000002
30
0
0
VERTEX
8
0
10
34.03521875
20
16.22755
30
0
0
VERTEX
8
0
10
33.921621875
20
16.24250625
30
0
0
VERTEX
8
0
10
33.807290625
20
16.25
30
0
0
VERTEX
8
0
10
33.692709375
20
16.25
30
0
0
VERTEX
8
0
10
33.578378125
20
16.24250625
30
0
0
VERTEX
8
0
10
33.46478125
20
16.22755
30
0
0
VERTEX
8
0
10
33.352403125
20
16.205196875000002
30
0
0
VERTEX
8
0
10
33.241728125
20
16.17554375
30
0
0
VERTEX
8
0
10
33.13323125
20
16.1387125
30
0
0
VERTEX
8
0
10
33.027375
20
16.094865625
30
0
0
VERTEX
8
0
10
32.9246125
20
16.0441875
30
0
0
VERTEX
8
0
10
32.825387500000005
20
15.9869
30
0
0
VERTEX
8
0
10
32.73011875
20
15.923243750000001
30
0
0
VERTEX
8
0
10
32.639215625
20
15.85349375
30
0
0
VERTEX
8
0
10
32.553071875
20
15.777946875000001
30
0
0
VERTEX
8
0
10
32.472053125
20
15.696928125000001
30
0
0
VERTEX
8
0
10
32.39650625
20
15.610784375000001
30
0
0
VERTEX
8
0
10
32.32675625
20
15.519881250000001
30
0
0
VERTEX
8
0
10
32.2631
20
15.4246125
30
0
0
VERTEX
8
0
10
32.2058125
20
15.325387500000001
30
0
0
VERTEX
8
0
10
32.155134375
20
15.222625
30
0
0
VERTEX
8
0
10
32.1112875
20
15.11676875
30
0
0
VERTEX
8
0
10
32.074456250000004
20
15.008271875
30
0
0
VERTEX
8
0
10
32.044803125
20
14.897596875000001
30
0
0
VERTEX
8
0
10
32.02245
20
14.78521875
30
0
0
VERTEX
8
0
10
32.00749375
20
14.671621875000001
30
0
0
VERTEX
8
0
10
32
20
14.557290625
30
0
0
VERTEX
8
0
10
32
20
14.442709375000002
30
0
0
VERTEX
8
0
10
32.00749375
20
14.328378125
30
0
0
VERTEX
8
0
10
32.02245
20
14.214781250000001
30
0
0
VERTEX
8
0
10
32.044803125
20
14.102403125
30
0
0
VERTEX
8
0
10
32.074456250000004
20
13.991728125
30
0
0
VERTEX
8
0
10
32.1112875
20
13.883231250000001
30
0
0
VERTEX
8
0
10
32.155134375
20
13.777375000000001
30
0
0
VERTEX
8
0
10
32.2058125
20
13.6746125
30
0
0
VERTEX
8
0
10
32.2631
20
13.575387500000001
30
0
0
VERTEX
8
0
10
32.32675625
20
13.48011875
30
0
0
VERTEX
8
0
10
32.39650625
20
13.389215625
30
0
0
VERTEX
8
0
10
32.472053125
20
13.303071875
30
0
0
VERTEX
8
0
10
32.553071875
20
13.222053125
30
0
0
VERTEX
8
0
10
32.639215625
20
13.14650625
30
0
0
VERTEX
8
0
10
32.73011875
20
13.07675625
30
0
0
VERTEX
8
0
10
32.825387500000005
20
13.013100000000001
30
0
0
VERTEX
8
0
10
32.9246125
20
12.9558125
30
0
0
VERTEX
8
0
10
33.027375
20
12.905134375000001
30
0
0
VERTEX
8
0
10
33.13323125
20
12.861287500000001
30
0
0
VERTEX
8
0
10
33.241728125
20
12.82445625
30
0
0
VERTEX
8
0
10
33.352403125
20
12.794803125000001
30
0
0
VERTEX
8
0
10
33.46478125
20
12.772450000000001
30
0
0
VERTEX
8
0
10
33.578378125
20
12.75749375
30
0
0
VERTEX
8
0
10
33.692709375
20
12.75
30
0
0
VERTEX
8
0
10
33.807290625
20
12.75
30
0
0
SEQEND
0
POLYLINE
66
1
8
1_copper
10
0.0
20
0.0
30
0.0
70
1
0
VERTEX
8
0
10
48.921621875
20
12.75749375
30
0
0
VERTEX
8
0
10
49.035218750000006
20
12.772450000000001
30
0
0
VERTEX
8
0
10
49.147596875000005
20
12.794803125000001
30
0
0
VERTEX
8
0
10
49.258271875000005
20
12.82445625
30
0
0
VERTEX
8
0
10
49.366768750000006
20
12.861287500000001
30
0
0
VERTEX
8
0
10
49.472625
20
12.905134375000001
30
0
0
VERTEX
8
0
10
49.575387500000005
20
12.9558125
30
0
0
VERTEX
8
0
10
49.6746125
20
13.013100000000001
30
0
0
VERTEX
8
0
10
49.769881250000005
20
13.07675625
30
0
0
VERTEX
8
0
10
49.860784375
20
13.14650625
30
0
0
VERTEX
8
0
10
49.946928125
20
13.222053125
30
0
0
VERTEX
8
0
10
50.027946875000005
20
13.303071875
30
0
0
VERTEX
8
0
10
50.103493750000005
20
13.389215625
30
0
0
VERTEX
8
0
10
50.173243750000005
20
13.48011875
30
0
0
VERTEX
8
0
10
50.236900000000006
20
13.575387500000001
30
0
0
VERTEX
8
0
10
50.2941875
20
13.6746125
30
0
0
VERTEX
8
0
10
50.344865625000004
20
13.777375000000001
30
0
0
VERTEX
8
0
10
50.388712500000004
20
13.883231250000001
30
0
0
VERTEX
8
0
10
50.42554375
20
13.991728125
30
0
0
VERTEX
8
0
10
50.455196875000006
20
14.102403125
30
0
0
VERTEX
8
0
10
50.47755
20
14.214781250000001
30
0
0
VERTEX
8
0
10
50.492506250000005
20
14.328378125
30
0
0
VERTEX
8
0
10
50.5
20
14.442709375000002
30
0
0
VERTEX
8
0
10
50.5
20
14.557290625
30
0
0
VERTEX
8
0
10
50.492506250000005
20
14.671621875000001
30
0
0
VERTEX
8
0
10
50.47755
20
14.78521875
30
0
0
VERTEX
8
0
10
50.455196875000006
20
14.897596875000001
30
0
0
VERTEX
8
0
10
50.42554375
20
15.008271875
30
0
0
VERTEX
8
0
10
50.388712500000004
20
15.11676875
30
0
0
VERTEX
8
0
10
50.344865625000004
20
15.222625
30
0
0
VERTEX
8
0
10
50.2941875
20
15.325387500000001
30
0
0
VERTEX
8
0
10
50.236900000000006
20
15.4246125
30
0
0
VERTEX
8
0
10
50.173243750000005
20
15.519881250000001
30
0
0
VERTEX
8
0
10
50.103493750000005
20
15.610784375000001
30
0
0
VERTEX
8
0
10
50.027946875000005
20
15.696928125000001
30
0
0
VERTEX
8
0
10
49.946928125
20
15.777946875000001
30
0
0
VERTEX
8
0
10
49.860784375
20
15.85349375
30
0
0
VERTEX
8
0
10
49.769881250000005
20
15.923243750000001
30
0
0
VERTEX
8
0
10
49.6746125
20
15.9869
30
0
0
VERTEX
8
0
10
49.575387500000005
20
16.0441875
30
0
0
VERTEX
8
0
10
49.472625
20
16.094865625
30
0
0
VERTEX
8
0
10
49.366768750000006
20
16.1387125
30
0
0
VERTEX
8
0
10
49.258271875000005
20
16.17554375
30
0
0
VERTEX
8
0
10
49.147596875000005
20
16.205196875000002
30
0
0
VERTEX
8
0
10
49.035218750000006
20
16.22755
30
0
0
VERTEX
8
0
10
48.921621875
20
16.24250625
30
0
0
VERTEX
8
0
10
48.807290625
20
16.25
30
0
0
VERTEX
8
0
10
48.692709375
20
16.25
30
0
0
VERTEX
8
0
10
48.578378125
20
16.24250625
30
0
0
VERTEX
8
0
10
48.46478125
20
16.22755
30
0
0
VERTEX
8
0
10
48.352403125
20
16.205196875000002
30
0
0
VERTEX
8
0
10
48.241728125
20
16.17554375
30
0
0
VERTEX
8
0
10
48.13323125
20
16.1387125
30
0
0
VERTEX
8
0
10
48.027375
20
16.094865625
30
0
0
VERTEX
8
0
10
47.9246125
20
16.0441875
30
0
0
VERTEX
8
0
10
47.825387500000005
20
15.9869
30
0
0
VERTEX
8
0
10
47.73011875
20
15.923243750000001
30
0
0
VERTEX
8
0
10
47.639215625000006
20
15.85349375
30
0
0
VERTEX
8
0
10
47.553071875
20
15.777946875000001
30
0
0
VERTEX
8
0
10
47.472053125
20
15.696928125000001
30
0
0
VERTEX
8
0
10
47.39650625
20
15.610784375000001
30
0
0
VERTEX
8
0
10
47.32675625
20
15.519881250000001
30
0
0
VERTEX
8
0
10
47.2631
20
15.4246125
30
0
0
VERTEX
8
0
10
47.2058125
20
15.325387500000001
30
0
0
VERTEX
8
0
10
47.155134375
20
15.222625
30
0
0
VERTEX
8
0
10
47.1112875
20
15.11676875
30
0
0
VERTEX
8
0
10
47.074456250000004
20
15.008271875
30
0
0
VERTEX
8
0
10
47.044803125
20
14.897596875000001
30
0
0
VERTEX
8
0
10
47.02245
20
14.78521875
30
0
0
VERTEX
8
0
10
47.00749375
20
14.671621875000001
30
0
0
VERTEX
8
0
10
47
20
14.557290625
30
0
0
VERTEX
8
0
10
47
20
14.442709375000002
30
0
0
VERTEX
8
0
10
47.00749375
20
14.328378125
30
0
0
VERTEX
8
0
10
47.02245
20
14.214781250000001
30
0
0
VERTEX
8
0
10
47.044803125
20
14.102403125
30
0
0
VERTEX
8
0
10
47.074456250000004
20
13.991728125
30
0
0
VERTEX
8
0
10
47.1112875
20
13.883231250000001
30
0
0
VERTEX
8
0
10
47.155134375
20
13.777375000000001
30
0
0
VERTEX
8
0
10
47.2058125
20
13.6746125
30
0
0
VERTEX
8
0
10
47.2631
20
13.575387500000001
30
0
0
VERTEX
8
0
10
47.32675625
20
13.48011875
30
0
0
VERTEX
8
0
10
47.39650625
20
13.389215625
30
0
0
VERTEX
8
0
10
47.472053125
20
13.303071875
30
0
0
VERTEX
8
0
10
47.553071875
20
13.222053125
30
0
0
VERTEX
8
0
10
47.639215625000006
20
13.14650625
30
0
0
VERTEX
8
0
10
47.73011875
20
13.07675625
30
0
0
VERTEX
8
0
10
47.825387500000005
20
13.013100000000001
30
0
0
VERTEX
8
0
10
47.9246125
20
12.9558125
30
0
0
VERTEX
8
0
10
48.027375
20
12.905134375000001
30
0
0
VERTEX
8
0
10
48.13323125
20
12.861287500000001
30
0
0
VERTEX
8
0
10
48.241728125
20
12.82445625
30
0
0
VERTEX
8
0
10
48.352403125
20
12.794803125000001
30
0
0
VERTEX
8
0
10
48.46478125
20
12.772450000000001
30
0
0
VERTEX
8
0
10
48.578378125
20
12.75749375
30
0
0
VERTEX
8
0
10
48.692709375
20
12.75
30
0
0
VERTEX
8
0
10
48.807290625
20
12.75
30
0
0
SEQEND
0
POLYLINE
66
1
8
16_copper
10
0.0
20
0.0
30
0.0
70
1
0
VERTEX
8
0
10
48.921621875
20
12.75749375
30
0
0
VERTEX
8
0
10
49.035218750000006
20
12.772450000000001
30
0
0
VERTEX
8
0
10
49.147596875000005
20
12.794803125000001
30
0
0
VERTEX
8
0
10
49.258271875000005
20
12.82445625
30
0
0
VERTEX
8
0
10
49.366768750000006
20
12.861287500000001
30
0
0
VERTEX
8
0
10
49.472625
20
12.905134375000001
30
0
0
VERTEX
8
0
10
49.575387500000005
20
12.9558125
30
0
0
VERTEX
8
0
10
49.6746125
20
13.013100000000001
30
0
0
VERTEX
8
0
10
49.769881250000005
20
13.07675625
30
0
0
VERTEX
8
0
10
49.860784375
20
13.14650625
30
0
0
VERTEX
8
0
10
49.946928125
20
13.222053125
30
0
0
VERTEX
8
0
10
50.027946875000005
20
13.303071875
30
0
0
VERTEX
8
0
10
50.103493750000005
20
13.389215625
30
0
0
VERTEX
8
0
10
50.173243750000005
20
13.48011875
30
0
0
VERTEX
8
0
10
50.236900000000006
20
13.575387500000001
30
0
0
VERTEX
8
0
10
50.2941875
20
13.6746125
30
0
0
VERTEX
8
0
10
50.344865625000004
20
13.777375000000001
30
0
0
VERTEX
8
0
10
50.388712500000004
20
13.883231250000001
30
0
0
VERTEX
8
0
10
50.42554375
20
13.991728125
30
0
0
VERTEX
8
0
10
50.455196875000006
20
14.102403125
30
0
0
VERTEX
8
0
10
50.47755
20
14.214781250000001
30
0
0
VERTEX
8
0
10
50.492506250000005
20
14.328378125
30
0
0
VERTEX
8
0
10
50.5
20
14.442709375000002
30
0
0
VERTEX
8
0
10
50.5
20
14.557290625
30
0
0
VERTEX
8
0
10
50.492506250000005
20
14.671621875000001
30
0
0
VERTEX
8
0
10
50.47755
20
14.78521875
30
0
0
VERTEX
8
0
10
50.455196875000006
20
14.897596875000001
30
0
0
VERTEX
8
0
10
50.42554375
20
15.008271875
30
0
0
VERTEX
8
0
10
50.388712500000004
20
15.11676875
30
0
0
VERTEX
8
0
10
50.344865625000004
20
15.222625
30
0
0
VERTEX
8
0
10
50.2941875
20
15.325387500000001
30
0
0
VERTEX
8
0
10
50.236900000000006
20
15.4246125
30
0
0
VERTEX
8
0
10
50.173243750000005
20
15.519881250000001
30
0
0
VERTEX
8
0
10
50.103493750000005
20
15.610784375000001
30
0
0
VERTEX
8
0
10
50.027946875000005
20
15.696928125000001
30
0
0
VERTEX
8
0
10
49.946928125
20
15.777946875000001
30
0
0
VERTEX
8
0
10
49.860784375
20
15.85349375
30
0
0
VERTEX
8
0
10
49.769881250000005
20
15.923243750000001
30
0
0
VERTEX
8
0
10
49.6746125
20
15.9869
30
0
0
VERTEX
8
0
10
49.575387500000005
20
16.0441875
30
0
0
VERTEX
8
0
10
49.472625
20
16.094865625
30
0
0
VERTEX
8
0
10
49.366768750000006
20
16.1387125
30
0
0
VERTEX
8
0
10
49.258271875000005
20
16.17554375
30
0
0
VERTEX
8
0
10
49.147596875000005
20
16.205196875000002
30
0
0
VERTEX
8
0
10
49.035218750000006
20
16.22755
30
0
0
VERTEX
8
0
10
48.921621875
20
16.24250625
30
0
0
VERTEX
8
0
10
48.807290625
20
16.25
30
0
0
VERTEX
8
0
10
48.692709375
20
16.25
30
0
0
VERTEX
8
0
10
48.578378125
20
16.24250625
30
0
0
VERTEX
8
0
10
48.46478125
20
16.22755
30
0
0
VERTEX
8
0
10
48.352403125
20
16.205196875000002
30
0
0
VERTEX
8
0
10
48.241728125
20
16.17554375
30
0
0
VERTEX
8
0
10
48.13323125
20
16.1387125
30
0
0
VERTEX
8
0
10
48.027375
20
16.094865625
30
0
0
VERTEX
8
0
10
47.9246125
20
16.0441875
30
0
0
VERTEX
8
0
10
47.825387500000005
20
15.9869
30
0
0
VERTEX
8
0
10
47.73011875
20
15.923243750000001
30
0
0
VERTEX
8
0
10
47.639215625000006
20
15.85349375
30
0
0
VERTEX
8
0
10
47.553071875
20
15.777946875000001
30
0
0
VERTEX
8
0
10
47.472053125
20
15.696928125000001
30
0
0
VERTEX
8
0
10
47.39650625
20
15.610784375000001
30
0
0
VERTEX
8
0
10
47.32675625
20
15.519881250000001
30
0
0
VERTEX
8
0
10
47.2631
20
15.4246125
30
0
0
VERTEX
8
0
10
47.2058125
20
15.325387500000001
30
0
0
VERTEX
8
0
10
47.155134375
20
15.222625
30
0
0
VERTEX
8
0
10
47.1112875
20
15.11676875
30
0
0
VERTEX
8
0
10
47.074456250000004
20
15.008271875
30
0
0
VERTEX
8
0
10
47.044803125
20
14.897596875000001
30
0
0
VERTEX
8
0
10
47.02245
20
14.78521875
30
0
0
VERTEX
8
0
10
47.00749375
20
14.671621875000001
30
0
0
VERTEX
8
0
10
47
20
14.557290625
30
0
0
VERTEX
8
0
10
47
20
14.442709375000002
30
0
0
VERTEX
8
0
10
47.00749375
20
14.328378125
30
0
0
VERTEX
8
0
10
47.02245
20
14.214781250000001
30
0
0
VERTEX
8
0
10
47.044803125
20
14.102403125
30
0
0
VERTEX
8
0
10
47.074456250000004
20
13.991728125
30
0
0
VERTEX
8
0
10
47.1112875
20
13.883231250000001
30
0
0
VERTEX
8
0
10
47.155134375
20
13.777375000000001
30
0
0
VERTEX
8
0
10
47.2058125
20
13.6746125
30
0
0
VERTEX
8
0
10
47.2631
20
13.575387500000001
30
0
0
VERTEX
8
0
10
47.32675625
20
13.48011875
30
0
0
VERTEX
8
0
10
47.39650625
20
13.389215625
30
0
0
VERTEX
8
0
10
47.472053125
20
13.303071875
30
0
0
VERTEX
8
0
10
47.553071875
20
13.222053125
30
0
0
VERTEX
8
0
10
47.639215625000006
20
13.14650625
30
0
0
VERTEX
8
0
10
47.73011875
20
13.07675625
30
0
0
VERTEX
8
0
10
47.825387500000005
20
13.013100000000001
30
0
0
VERTEX
8
0
10
47.9246125
20
12.9558125
30
0
0
VERTEX
8
0
10
48.027375
20
12.905134375000001
30
0
0
VERTEX
8
0
10
48.13323125
20
12.861287500000001
30
0
0
VERTEX
8
0
10
48.241728125
20
12.82445625
30
0
0
VERTEX
8
0
10
48.352403125
20
12.794803125000001
30
0
0
VERTEX
8
0
10
48.46478125
20
12.772450000000001
30
0
0
VERTEX
8
0
10
48.578378125
20
12.75749375
30
0
0
VERTEX
8
0
10
48.692709375
20
12.75
30
0
0
VERTEX
8
0
10
48.807290625
20
12.75
30
0
0
SEQEND
0
POLYLINE
66
1
8
1_copper
10
0.0
20
0.0
30
0.0
70
1
0
VERTEX
8
0
10
42.601353125
20
1.0166062500000002
30
0
42
0.4126285070906998
0
VERTEX
8
0
10
42.85
20
1.2665
30
0
0
VERTEX
8
0
10
42.85
20
4.0724
30
0
0
VERTEX
8
0
10
42.879400000000004
20
4.0724
30
0
0
VERTEX
8
0
10
42.879400000000004
20
5.3424000000000005
30
0
0
VERTEX
8
0
10
42.3206
20
5.3424000000000005
30
0
0
VERTEX
8
0
10
42.3206
20
4.0724
30
0
0
VERTEX
8
0
10
42.35
20
4.0724
30
0
0
VERTEX
8
0
10
42.35
20
1.5165000000000002
30
0
0
VERTEX
8
0
10
22.875
20
1.5165000000000002
30
0
0
VERTEX
8
0
10
22.875
20
7.7
30
0
0
VERTEX
8
0
10
23.025000000000002
20
7.7
30
0
0
VERTEX
8
0
10
23.025000000000002
20
9.3
30
0
0
VERTEX
8
0
10
22.225
20
9.3
30
0
0
VERTEX
8
0
10
22.225
20
7.7
30
0
0
VERTEX
8
0
10
22.375
20
7.7
30
0
0
VERTEX
8
0
10
22.375
20
1.2665
30
0
42
0.41421356237309503
0
VERTEX
8
0
10
22.625
20
1.0165
30
0
0
VERTEX
8
0
10
42.6
20
1.0165
30
0
0
SEQEND
0
POLYLINE
66
1
8
1_copper
10
0.0
20
0.0
30
0.0
70
1
0
VERTEX
8
0
10
41.801353125
20
2.25010625
30
0
42
0.4126285070906998
0
VERTEX
8
0
10
42.050000000000004
20
2.5
30
0
0
VERTEX
8
0
10
42.050000000000004
20
4.0724
30
0
0
VERTEX
8
0
10
42.0794
20
4.0724
30
0
0
VERTEX
8
0
10
42.0794
20
5.3424000000000005
30
0
0
VERTEX
8
0
10
41.5206
20
5.3424000000000005
30
0
0
VERTEX
8
0
10
41.5206
20
4.0724
30
0
0
VERTEX
8
0
10
41.550000000000004
20
4.0724
30
0
0
VERTEX
8
0
10
41.550000000000004
20
2.75
30
0
0
VERTEX
8
0
10
24.125
20
2.75
30
0
0
VERTEX
8
0
10
24.125
20
7.7
30
0
0
VERTEX
8
0
10
24.275000000000002
20
7.7
30
0
0
VERTEX
8
0
10
24.275000000000002
20
9.3
30
0
0
VERTEX
8
0
10
23.475
20
9.3
30
0
0
VERTEX
8
0
10
23.475
20
7.7
30
0
0
VERTEX
8
0
10
23.625
20
7.7
30
0
0
VERTEX
8
0
10
23.625
20
2.5
30
0
42
0.41421356237309503
0
VERTEX
8
0
10
23.875
20
2.25
30
0
0
VERTEX
8
0
10
41.800000000000004
20
2.25
30
0
0
SEQEND
0
POLYLINE
66
1
8
1_copper
10
0.0
20
0.0
30
0.0
70
1
0
VERTEX
8
0
10
52.925000000000004
20
14.8
30
0
0
VERTEX
8
0
10
51.875
20
14.8
30
0
0
VERTEX
8
0
10
51.875
20
14.200000000000001
30
0
0
VERTEX
8
0
10
52.925000000000004
20
14.200000000000001
30
0
0
SEQEND
0
CIRCLE
8
drills_via_1_16
10
33.75
20
14.5
30
0
40
0.9
0
CIRCLE
8
drills_via_1_16
10
48.75
20
14.5
30
0
40
0.9
0
CIRCLE
8
drills_PTH
10
62.760600000000004
20
10.2512
30
0
40
0.508
0
CIRCLE
8
drills_PTH
10
58.2394
20
10.2512
30
0
40
0.508
0
CIRCLE
8
drills_PTH
10
62.760600000000004
20
3.7488
30
0
40
0.508
0
CIRCLE
8
drills_PTH
10
58.2394
20
3.7488
30
0
40
0.508
0
ENDSEC
0
EOF