G04 EAGLE Gerber X2 export*
%TF.Part,Single*%
%TF.FileFunction,Profile,NP*%
%TF.FilePolarity,Positive*%
%TF.GenerationSoftware,Autodesk,EAGLE,9.1.0*%
%TF.CreationDate,2020-06-24T00:01:39Z*%
G75*
%MOMM*%
%FSLAX34Y34*%
%LPD*%
%AMOC8*
5,1,8,0,0,1.08239X$1,22.5*%
G01*
%ADD10C,0.254000*%


D10*
X-87300Y72700D02*
X-87252Y71593D01*
X-87107Y70495D01*
X-86867Y69413D01*
X-86534Y68356D01*
X-86110Y67333D01*
X-85599Y66350D01*
X-85003Y65416D01*
X-84329Y64537D01*
X-83580Y63720D01*
X-82763Y62971D01*
X-81884Y62297D01*
X-80950Y61701D01*
X-79967Y61190D01*
X-78944Y60766D01*
X-77887Y60433D01*
X-76805Y60193D01*
X-75707Y60048D01*
X-74600Y60000D01*
X-12500Y60000D01*
X-11393Y59952D01*
X-10295Y59807D01*
X-9213Y59567D01*
X-8156Y59234D01*
X-7133Y58810D01*
X-6150Y58299D01*
X-5216Y57703D01*
X-4337Y57029D01*
X-3520Y56280D01*
X-2771Y55463D01*
X-2097Y54584D01*
X-1501Y53650D01*
X-990Y52667D01*
X-566Y51644D01*
X-233Y50587D01*
X7Y49505D01*
X152Y48407D01*
X200Y47300D01*
X200Y12700D01*
X248Y11593D01*
X393Y10495D01*
X633Y9413D01*
X966Y8356D01*
X1390Y7333D01*
X1901Y6350D01*
X2497Y5416D01*
X3171Y4537D01*
X3920Y3720D01*
X4737Y2971D01*
X5616Y2297D01*
X6550Y1701D01*
X7533Y1190D01*
X8556Y766D01*
X9613Y433D01*
X10695Y193D01*
X11793Y48D01*
X12900Y0D01*
X637500Y0D01*
X638607Y48D01*
X639705Y193D01*
X640787Y433D01*
X641844Y766D01*
X642867Y1190D01*
X643850Y1701D01*
X644784Y2297D01*
X645663Y2971D01*
X646480Y3720D01*
X647229Y4537D01*
X647903Y5416D01*
X648499Y6350D01*
X649010Y7333D01*
X649434Y8356D01*
X649767Y9413D01*
X650007Y10495D01*
X650152Y11593D01*
X650200Y12700D01*
X650200Y47300D01*
X650248Y48407D01*
X650393Y49505D01*
X650633Y50587D01*
X650966Y51644D01*
X651390Y52667D01*
X651901Y53650D01*
X652497Y54584D01*
X653171Y55463D01*
X653920Y56280D01*
X654737Y57029D01*
X655616Y57703D01*
X656550Y58299D01*
X657533Y58810D01*
X658556Y59234D01*
X659613Y59567D01*
X660695Y59807D01*
X661793Y59952D01*
X662900Y60000D01*
X725000Y60000D01*
X726107Y60048D01*
X727205Y60193D01*
X728287Y60433D01*
X729344Y60766D01*
X730367Y61190D01*
X731350Y61701D01*
X732284Y62297D01*
X733163Y62971D01*
X733980Y63720D01*
X734729Y64537D01*
X735403Y65416D01*
X735999Y66350D01*
X736510Y67333D01*
X736934Y68356D01*
X737267Y69413D01*
X737507Y70495D01*
X737652Y71593D01*
X737700Y72700D01*
X737700Y217300D01*
X737652Y218407D01*
X737507Y219505D01*
X737267Y220587D01*
X736934Y221644D01*
X736510Y222667D01*
X735999Y223650D01*
X735403Y224584D01*
X734729Y225463D01*
X733980Y226280D01*
X733163Y227029D01*
X732284Y227703D01*
X731350Y228299D01*
X730367Y228810D01*
X729344Y229234D01*
X728287Y229567D01*
X727205Y229807D01*
X726107Y229952D01*
X725000Y230000D01*
X662900Y230000D01*
X661793Y230048D01*
X660695Y230193D01*
X659613Y230433D01*
X658556Y230766D01*
X657533Y231190D01*
X656550Y231701D01*
X655616Y232297D01*
X654737Y232971D01*
X653920Y233720D01*
X653171Y234537D01*
X652497Y235416D01*
X651901Y236350D01*
X651390Y237333D01*
X650966Y238356D01*
X650633Y239413D01*
X650393Y240495D01*
X650248Y241593D01*
X650200Y242700D01*
X650200Y277300D01*
X650152Y278407D01*
X650007Y279505D01*
X649767Y280587D01*
X649434Y281644D01*
X649010Y282667D01*
X648499Y283650D01*
X647903Y284584D01*
X647229Y285463D01*
X646480Y286280D01*
X645663Y287029D01*
X644784Y287703D01*
X643850Y288299D01*
X642867Y288810D01*
X641844Y289234D01*
X640787Y289567D01*
X639705Y289807D01*
X638607Y289952D01*
X637500Y290000D01*
X12900Y290000D01*
X11793Y289952D01*
X10695Y289807D01*
X9613Y289567D01*
X8556Y289234D01*
X7533Y288810D01*
X6550Y288299D01*
X5616Y287703D01*
X4737Y287029D01*
X3920Y286280D01*
X3171Y285463D01*
X2497Y284584D01*
X1901Y283650D01*
X1390Y282667D01*
X966Y281644D01*
X633Y280587D01*
X393Y279505D01*
X248Y278407D01*
X200Y277300D01*
X200Y242700D01*
X152Y241593D01*
X7Y240495D01*
X-233Y239413D01*
X-566Y238356D01*
X-990Y237333D01*
X-1501Y236350D01*
X-2097Y235416D01*
X-2771Y234537D01*
X-3520Y233720D01*
X-4337Y232971D01*
X-5216Y232297D01*
X-6150Y231701D01*
X-7133Y231190D01*
X-8156Y230766D01*
X-9213Y230433D01*
X-10295Y230193D01*
X-11393Y230048D01*
X-12500Y230000D01*
X-74600Y230000D01*
X-75707Y229952D01*
X-76805Y229807D01*
X-77887Y229567D01*
X-78944Y229234D01*
X-79967Y228810D01*
X-80950Y228299D01*
X-81884Y227703D01*
X-82763Y227029D01*
X-83580Y226280D01*
X-84329Y225463D01*
X-85003Y224584D01*
X-85599Y223650D01*
X-86110Y222667D01*
X-86534Y221644D01*
X-86867Y220587D01*
X-87107Y219505D01*
X-87252Y218407D01*
X-87300Y217300D01*
X-87300Y72700D01*
X650700Y170000D02*
X684700Y170000D01*
X684700Y194000D01*
X650700Y194000D01*
X650700Y170000D01*
X-34300Y96000D02*
X-300Y96000D01*
X-300Y120000D01*
X-34300Y120000D01*
X-34300Y96000D01*
X-34300Y170000D02*
X-300Y170000D01*
X-300Y194000D01*
X-34300Y194000D01*
X-34300Y170000D01*
X650700Y96000D02*
X684700Y96000D01*
X684700Y120000D01*
X650700Y120000D01*
X650700Y96000D01*
X-8300Y144607D02*
X-8300Y145393D01*
X-8369Y146176D01*
X-8505Y146950D01*
X-8708Y147709D01*
X-8977Y148447D01*
X-9309Y149160D01*
X-9702Y149840D01*
X-10153Y150484D01*
X-10658Y151086D01*
X-11214Y151642D01*
X-11816Y152147D01*
X-12460Y152598D01*
X-13140Y152991D01*
X-13853Y153323D01*
X-14591Y153592D01*
X-15350Y153795D01*
X-16124Y153932D01*
X-16907Y154000D01*
X-17693Y154000D01*
X-18476Y153932D01*
X-19250Y153795D01*
X-20009Y153592D01*
X-20747Y153323D01*
X-21460Y152991D01*
X-22140Y152598D01*
X-22784Y152147D01*
X-23386Y151642D01*
X-23942Y151086D01*
X-24447Y150484D01*
X-24898Y149840D01*
X-25291Y149160D01*
X-25623Y148447D01*
X-25892Y147709D01*
X-26095Y146950D01*
X-26232Y146176D01*
X-26300Y145393D01*
X-26300Y144607D01*
X-26232Y143824D01*
X-26095Y143050D01*
X-25892Y142291D01*
X-25623Y141553D01*
X-25291Y140840D01*
X-24898Y140160D01*
X-24447Y139516D01*
X-23942Y138914D01*
X-23386Y138358D01*
X-22784Y137853D01*
X-22140Y137402D01*
X-21460Y137009D01*
X-20747Y136677D01*
X-20009Y136408D01*
X-19250Y136205D01*
X-18476Y136069D01*
X-17693Y136000D01*
X-16907Y136000D01*
X-16124Y136069D01*
X-15350Y136205D01*
X-14591Y136408D01*
X-13853Y136677D01*
X-13140Y137009D01*
X-12460Y137402D01*
X-11816Y137853D01*
X-11214Y138358D01*
X-10658Y138914D01*
X-10153Y139516D01*
X-9702Y140160D01*
X-9309Y140840D01*
X-8977Y141553D01*
X-8708Y142291D01*
X-8505Y143050D01*
X-8369Y143824D01*
X-8300Y144607D01*
X676700Y144607D02*
X676700Y145393D01*
X676632Y146176D01*
X676495Y146950D01*
X676292Y147709D01*
X676023Y148447D01*
X675691Y149160D01*
X675298Y149840D01*
X674847Y150484D01*
X674342Y151086D01*
X673786Y151642D01*
X673184Y152147D01*
X672540Y152598D01*
X671860Y152991D01*
X671147Y153323D01*
X670409Y153592D01*
X669650Y153795D01*
X668876Y153932D01*
X668093Y154000D01*
X667307Y154000D01*
X666524Y153932D01*
X665750Y153795D01*
X664991Y153592D01*
X664253Y153323D01*
X663540Y152991D01*
X662860Y152598D01*
X662216Y152147D01*
X661614Y151642D01*
X661058Y151086D01*
X660553Y150484D01*
X660102Y149840D01*
X659709Y149160D01*
X659377Y148447D01*
X659108Y147709D01*
X658905Y146950D01*
X658769Y146176D01*
X658700Y145393D01*
X658700Y144607D01*
X658769Y143824D01*
X658905Y143050D01*
X659108Y142291D01*
X659377Y141553D01*
X659709Y140840D01*
X660102Y140160D01*
X660553Y139516D01*
X661058Y138914D01*
X661614Y138358D01*
X662216Y137853D01*
X662860Y137402D01*
X663540Y137009D01*
X664253Y136677D01*
X664991Y136408D01*
X665750Y136205D01*
X666524Y136069D01*
X667307Y136000D01*
X668093Y136000D01*
X668876Y136069D01*
X669650Y136205D01*
X670409Y136408D01*
X671147Y136677D01*
X671860Y137009D01*
X672540Y137402D01*
X673184Y137853D01*
X673786Y138358D01*
X674342Y138914D01*
X674847Y139516D01*
X675298Y140160D01*
X675691Y140840D01*
X676023Y141553D01*
X676292Y142291D01*
X676495Y143050D01*
X676632Y143824D01*
X676700Y144607D01*
X32450Y254759D02*
X32450Y255741D01*
X32373Y256720D01*
X32219Y257691D01*
X31990Y258646D01*
X31686Y259580D01*
X31311Y260487D01*
X30865Y261362D01*
X30351Y262200D01*
X29774Y262995D01*
X29136Y263742D01*
X28442Y264436D01*
X27695Y265074D01*
X26900Y265651D01*
X26062Y266165D01*
X25187Y266611D01*
X24280Y266986D01*
X23346Y267290D01*
X22391Y267519D01*
X21420Y267673D01*
X20441Y267750D01*
X19459Y267750D01*
X18480Y267673D01*
X17510Y267519D01*
X16554Y267290D01*
X15620Y266986D01*
X14713Y266611D01*
X13838Y266165D01*
X13000Y265651D01*
X12205Y265074D01*
X11458Y264436D01*
X10764Y263742D01*
X10126Y262995D01*
X9549Y262200D01*
X9035Y261362D01*
X8589Y260487D01*
X8214Y259580D01*
X7910Y258646D01*
X7681Y257691D01*
X7527Y256720D01*
X7450Y255741D01*
X7450Y254759D01*
X7527Y253780D01*
X7681Y252810D01*
X7910Y251854D01*
X8214Y250920D01*
X8589Y250013D01*
X9035Y249138D01*
X9549Y248300D01*
X10126Y247505D01*
X10764Y246758D01*
X11458Y246064D01*
X12205Y245426D01*
X13000Y244849D01*
X13838Y244335D01*
X14713Y243889D01*
X15620Y243514D01*
X16554Y243210D01*
X17510Y242981D01*
X18480Y242827D01*
X19459Y242750D01*
X20441Y242750D01*
X21420Y242827D01*
X22391Y242981D01*
X23346Y243210D01*
X24280Y243514D01*
X25187Y243889D01*
X26062Y244335D01*
X26900Y244849D01*
X27695Y245426D01*
X28442Y246064D01*
X29136Y246758D01*
X29774Y247505D01*
X30351Y248300D01*
X30865Y249138D01*
X31311Y250013D01*
X31686Y250920D01*
X31990Y251854D01*
X32219Y252810D01*
X32373Y253780D01*
X32450Y254759D01*
X642450Y34759D02*
X642450Y35741D01*
X642373Y36720D01*
X642219Y37691D01*
X641990Y38646D01*
X641686Y39580D01*
X641311Y40487D01*
X640865Y41362D01*
X640351Y42200D01*
X639774Y42995D01*
X639136Y43742D01*
X638442Y44436D01*
X637695Y45074D01*
X636900Y45651D01*
X636062Y46165D01*
X635187Y46611D01*
X634280Y46986D01*
X633346Y47290D01*
X632391Y47519D01*
X631420Y47673D01*
X630441Y47750D01*
X629459Y47750D01*
X628480Y47673D01*
X627510Y47519D01*
X626554Y47290D01*
X625620Y46986D01*
X624713Y46611D01*
X623838Y46165D01*
X623000Y45651D01*
X622205Y45074D01*
X621458Y44436D01*
X620764Y43742D01*
X620126Y42995D01*
X619549Y42200D01*
X619035Y41362D01*
X618589Y40487D01*
X618214Y39580D01*
X617910Y38646D01*
X617681Y37691D01*
X617527Y36720D01*
X617450Y35741D01*
X617450Y34759D01*
X617527Y33780D01*
X617681Y32810D01*
X617910Y31854D01*
X618214Y30920D01*
X618589Y30013D01*
X619035Y29138D01*
X619549Y28300D01*
X620126Y27505D01*
X620764Y26758D01*
X621458Y26064D01*
X622205Y25426D01*
X623000Y24849D01*
X623838Y24335D01*
X624713Y23889D01*
X625620Y23514D01*
X626554Y23210D01*
X627510Y22981D01*
X628480Y22827D01*
X629459Y22750D01*
X630441Y22750D01*
X631420Y22827D01*
X632391Y22981D01*
X633346Y23210D01*
X634280Y23514D01*
X635187Y23889D01*
X636062Y24335D01*
X636900Y24849D01*
X637695Y25426D01*
X638442Y26064D01*
X639136Y26758D01*
X639774Y27505D01*
X640351Y28300D01*
X640865Y29138D01*
X641311Y30013D01*
X641686Y30920D01*
X641990Y31854D01*
X642219Y32810D01*
X642373Y33780D01*
X642450Y34759D01*
X642450Y254759D02*
X642450Y255741D01*
X642373Y256720D01*
X642219Y257691D01*
X641990Y258646D01*
X641686Y259580D01*
X641311Y260487D01*
X640865Y261362D01*
X640351Y262200D01*
X639774Y262995D01*
X639136Y263742D01*
X638442Y264436D01*
X637695Y265074D01*
X636900Y265651D01*
X636062Y266165D01*
X635187Y266611D01*
X634280Y266986D01*
X633346Y267290D01*
X632391Y267519D01*
X631420Y267673D01*
X630441Y267750D01*
X629459Y267750D01*
X628480Y267673D01*
X627510Y267519D01*
X626554Y267290D01*
X625620Y266986D01*
X624713Y266611D01*
X623838Y266165D01*
X623000Y265651D01*
X622205Y265074D01*
X621458Y264436D01*
X620764Y263742D01*
X620126Y262995D01*
X619549Y262200D01*
X619035Y261362D01*
X618589Y260487D01*
X618214Y259580D01*
X617910Y258646D01*
X617681Y257691D01*
X617527Y256720D01*
X617450Y255741D01*
X617450Y254759D01*
X617527Y253780D01*
X617681Y252810D01*
X617910Y251854D01*
X618214Y250920D01*
X618589Y250013D01*
X619035Y249138D01*
X619549Y248300D01*
X620126Y247505D01*
X620764Y246758D01*
X621458Y246064D01*
X622205Y245426D01*
X623000Y244849D01*
X623838Y244335D01*
X624713Y243889D01*
X625620Y243514D01*
X626554Y243210D01*
X627510Y242981D01*
X628480Y242827D01*
X629459Y242750D01*
X630441Y242750D01*
X631420Y242827D01*
X632391Y242981D01*
X633346Y243210D01*
X634280Y243514D01*
X635187Y243889D01*
X636062Y244335D01*
X636900Y244849D01*
X637695Y245426D01*
X638442Y246064D01*
X639136Y246758D01*
X639774Y247505D01*
X640351Y248300D01*
X640865Y249138D01*
X641311Y250013D01*
X641686Y250920D01*
X641990Y251854D01*
X642219Y252810D01*
X642373Y253780D01*
X642450Y254759D01*
X32450Y34759D02*
X32450Y35741D01*
X32373Y36720D01*
X32219Y37691D01*
X31990Y38646D01*
X31686Y39580D01*
X31311Y40487D01*
X30865Y41362D01*
X30351Y42200D01*
X29774Y42995D01*
X29136Y43742D01*
X28442Y44436D01*
X27695Y45074D01*
X26900Y45651D01*
X26062Y46165D01*
X25187Y46611D01*
X24280Y46986D01*
X23346Y47290D01*
X22391Y47519D01*
X21420Y47673D01*
X20441Y47750D01*
X19459Y47750D01*
X18480Y47673D01*
X17510Y47519D01*
X16554Y47290D01*
X15620Y46986D01*
X14713Y46611D01*
X13838Y46165D01*
X13000Y45651D01*
X12205Y45074D01*
X11458Y44436D01*
X10764Y43742D01*
X10126Y42995D01*
X9549Y42200D01*
X9035Y41362D01*
X8589Y40487D01*
X8214Y39580D01*
X7910Y38646D01*
X7681Y37691D01*
X7527Y36720D01*
X7450Y35741D01*
X7450Y34759D01*
X7527Y33780D01*
X7681Y32810D01*
X7910Y31854D01*
X8214Y30920D01*
X8589Y30013D01*
X9035Y29138D01*
X9549Y28300D01*
X10126Y27505D01*
X10764Y26758D01*
X11458Y26064D01*
X12205Y25426D01*
X13000Y24849D01*
X13838Y24335D01*
X14713Y23889D01*
X15620Y23514D01*
X16554Y23210D01*
X17510Y22981D01*
X18480Y22827D01*
X19459Y22750D01*
X20441Y22750D01*
X21420Y22827D01*
X22391Y22981D01*
X23346Y23210D01*
X24280Y23514D01*
X25187Y23889D01*
X26062Y24335D01*
X26900Y24849D01*
X27695Y25426D01*
X28442Y26064D01*
X29136Y26758D01*
X29774Y27505D01*
X30351Y28300D01*
X30865Y29138D01*
X31311Y30013D01*
X31686Y30920D01*
X31990Y31854D01*
X32219Y32810D01*
X32373Y33780D01*
X32450Y34759D01*
M02*
