G04 EAGLE Gerber X2 export*
%TF.Part,Single*%
%TF.FileFunction,Copper,L2,Bot,Mixed*%
%TF.FilePolarity,Positive*%
%TF.GenerationSoftware,Autodesk,EAGLE,9.1.0*%
%TF.CreationDate,2020-08-17T16:32:54Z*%
G75*
%MOMM*%
%FSLAX34Y34*%
%LPD*%
%AMOC8*
5,1,8,0,0,1.08239X$1,22.5*%
G01*
%ADD10R,1.400000X0.450000*%
%ADD11C,1.524000*%
%ADD12C,1.000000*%
%ADD13C,0.800000*%
%ADD14C,4.000000*%
%ADD15C,0.500000*%

G36*
X770050Y2505D02*
X770050Y2505D01*
X770100Y2503D01*
X770272Y2525D01*
X770445Y2541D01*
X770493Y2554D01*
X770543Y2560D01*
X770708Y2613D01*
X770876Y2659D01*
X770921Y2681D01*
X770968Y2696D01*
X771122Y2777D01*
X771278Y2852D01*
X771319Y2882D01*
X771363Y2905D01*
X771500Y3012D01*
X771640Y3114D01*
X771675Y3150D01*
X771714Y3181D01*
X771830Y3311D01*
X771950Y3436D01*
X771977Y3478D01*
X772011Y3516D01*
X772101Y3664D01*
X772197Y3808D01*
X772217Y3855D01*
X772243Y3897D01*
X772305Y4059D01*
X772374Y4219D01*
X772385Y4267D01*
X772403Y4314D01*
X772436Y4485D01*
X772475Y4654D01*
X772478Y4704D01*
X772487Y4753D01*
X772499Y5000D01*
X772499Y285000D01*
X772495Y285050D01*
X772497Y285100D01*
X772475Y285272D01*
X772459Y285445D01*
X772446Y285493D01*
X772440Y285543D01*
X772387Y285708D01*
X772341Y285876D01*
X772319Y285921D01*
X772304Y285968D01*
X772223Y286122D01*
X772148Y286278D01*
X772118Y286319D01*
X772095Y286363D01*
X771988Y286500D01*
X771886Y286640D01*
X771850Y286675D01*
X771819Y286714D01*
X771689Y286830D01*
X771564Y286950D01*
X771522Y286977D01*
X771484Y287011D01*
X771336Y287101D01*
X771192Y287197D01*
X771146Y287217D01*
X771103Y287243D01*
X770941Y287305D01*
X770781Y287374D01*
X770733Y287385D01*
X770686Y287403D01*
X770515Y287436D01*
X770346Y287475D01*
X770296Y287478D01*
X770247Y287487D01*
X770000Y287499D01*
X747063Y287499D01*
X746926Y287487D01*
X746790Y287484D01*
X746705Y287467D01*
X746618Y287459D01*
X746486Y287423D01*
X746352Y287396D01*
X746271Y287364D01*
X746187Y287341D01*
X746064Y287282D01*
X745937Y287231D01*
X745863Y287185D01*
X745785Y287148D01*
X745673Y287067D01*
X745558Y286995D01*
X745493Y286937D01*
X745423Y286886D01*
X745328Y286787D01*
X745226Y286695D01*
X745173Y286626D01*
X745113Y286564D01*
X745038Y286450D01*
X744954Y286341D01*
X744914Y286264D01*
X744866Y286192D01*
X744812Y286066D01*
X744749Y285944D01*
X744723Y285861D01*
X744689Y285781D01*
X744658Y285648D01*
X744618Y285517D01*
X744607Y285431D01*
X744588Y285346D01*
X744581Y285210D01*
X744565Y285074D01*
X744570Y284987D01*
X744566Y284900D01*
X744583Y284765D01*
X744591Y284628D01*
X744612Y284543D01*
X744623Y284457D01*
X744665Y284327D01*
X744697Y284194D01*
X744732Y284115D01*
X744759Y284032D01*
X744823Y283911D01*
X744878Y283786D01*
X744927Y283714D01*
X744968Y283637D01*
X745053Y283529D01*
X745130Y283416D01*
X745221Y283315D01*
X745244Y283286D01*
X745262Y283270D01*
X745296Y283233D01*
X765511Y263017D01*
X766501Y260628D01*
X766501Y163707D01*
X765511Y161318D01*
X763331Y159137D01*
X752710Y148517D01*
X752618Y148407D01*
X752520Y148303D01*
X752476Y148236D01*
X752424Y148174D01*
X752353Y148050D01*
X752274Y147930D01*
X752222Y147818D01*
X752203Y147786D01*
X752194Y147760D01*
X752169Y147706D01*
X751359Y145751D01*
X749249Y143641D01*
X746492Y142499D01*
X743508Y142499D01*
X740751Y143641D01*
X738641Y145751D01*
X737499Y148508D01*
X737499Y151492D01*
X738641Y154249D01*
X740751Y156359D01*
X742706Y157169D01*
X742833Y157235D01*
X742964Y157293D01*
X743030Y157338D01*
X743102Y157376D01*
X743215Y157464D01*
X743333Y157544D01*
X743425Y157627D01*
X743454Y157650D01*
X743472Y157670D01*
X743517Y157710D01*
X752767Y166961D01*
X752887Y167104D01*
X753011Y167243D01*
X753030Y167275D01*
X753054Y167304D01*
X753146Y167466D01*
X753243Y167625D01*
X753256Y167660D01*
X753274Y167692D01*
X753336Y167868D01*
X753403Y168042D01*
X753410Y168078D01*
X753423Y168113D01*
X753452Y168298D01*
X753487Y168481D01*
X753490Y168531D01*
X753493Y168554D01*
X753492Y168591D01*
X753499Y168728D01*
X753499Y255607D01*
X753483Y255793D01*
X753471Y255979D01*
X753463Y256015D01*
X753459Y256052D01*
X753410Y256232D01*
X753366Y256413D01*
X753351Y256447D01*
X753341Y256483D01*
X753260Y256651D01*
X753184Y256821D01*
X753164Y256852D01*
X753148Y256885D01*
X753038Y257036D01*
X752933Y257191D01*
X752899Y257228D01*
X752886Y257247D01*
X752859Y257273D01*
X752767Y257374D01*
X739539Y270602D01*
X739396Y270722D01*
X739257Y270846D01*
X739225Y270865D01*
X739196Y270889D01*
X739035Y270981D01*
X738875Y271078D01*
X738840Y271091D01*
X738808Y271109D01*
X738632Y271171D01*
X738458Y271238D01*
X738422Y271245D01*
X738387Y271258D01*
X738202Y271287D01*
X738019Y271322D01*
X737969Y271325D01*
X737946Y271328D01*
X737909Y271327D01*
X737772Y271334D01*
X713893Y271334D01*
X713756Y271322D01*
X713620Y271319D01*
X713535Y271302D01*
X713448Y271294D01*
X713316Y271258D01*
X713182Y271231D01*
X713101Y271199D01*
X713017Y271176D01*
X712894Y271117D01*
X712767Y271066D01*
X712693Y271020D01*
X712615Y270983D01*
X712504Y270902D01*
X712388Y270830D01*
X712323Y270772D01*
X712253Y270721D01*
X712158Y270622D01*
X712056Y270530D01*
X712003Y270461D01*
X711943Y270399D01*
X711867Y270285D01*
X711784Y270176D01*
X711744Y270099D01*
X711696Y270027D01*
X711642Y269901D01*
X711579Y269779D01*
X711553Y269696D01*
X711519Y269616D01*
X711488Y269484D01*
X711448Y269352D01*
X711437Y269266D01*
X711418Y269181D01*
X711411Y269045D01*
X711395Y268909D01*
X711400Y268822D01*
X711396Y268735D01*
X711413Y268600D01*
X711421Y268463D01*
X711442Y268378D01*
X711453Y268292D01*
X711495Y268162D01*
X711527Y268029D01*
X711562Y267949D01*
X711589Y267867D01*
X711653Y267746D01*
X711708Y267621D01*
X711757Y267549D01*
X711798Y267472D01*
X711883Y267364D01*
X711960Y267251D01*
X712051Y267150D01*
X712074Y267121D01*
X712092Y267105D01*
X712126Y267068D01*
X713362Y265831D01*
X713363Y265831D01*
X730511Y248682D01*
X731501Y246293D01*
X731501Y154403D01*
X731514Y154261D01*
X731517Y154117D01*
X731533Y154039D01*
X731541Y153958D01*
X731579Y153820D01*
X731608Y153680D01*
X731649Y153564D01*
X731659Y153528D01*
X731671Y153503D01*
X731691Y153447D01*
X732501Y151492D01*
X732501Y148508D01*
X731359Y145751D01*
X729249Y143641D01*
X726492Y142499D01*
X723508Y142499D01*
X720751Y143641D01*
X718641Y145751D01*
X717499Y148508D01*
X717499Y151492D01*
X718309Y153447D01*
X718352Y153584D01*
X718403Y153717D01*
X718418Y153797D01*
X718442Y153873D01*
X718460Y154015D01*
X718487Y154156D01*
X718493Y154279D01*
X718498Y154316D01*
X718496Y154343D01*
X718499Y154403D01*
X718499Y241272D01*
X718483Y241458D01*
X718471Y241644D01*
X718463Y241680D01*
X718459Y241717D01*
X718410Y241897D01*
X718366Y242078D01*
X718351Y242112D01*
X718341Y242148D01*
X718260Y242316D01*
X718184Y242486D01*
X718164Y242517D01*
X718148Y242550D01*
X718038Y242701D01*
X717933Y242856D01*
X717899Y242893D01*
X717886Y242912D01*
X717859Y242938D01*
X717767Y243039D01*
X705539Y255267D01*
X705396Y255387D01*
X705257Y255511D01*
X705225Y255530D01*
X705196Y255554D01*
X705035Y255646D01*
X704875Y255743D01*
X704840Y255756D01*
X704808Y255774D01*
X704632Y255836D01*
X704458Y255903D01*
X704422Y255910D01*
X704387Y255923D01*
X704202Y255952D01*
X704019Y255987D01*
X703969Y255990D01*
X703946Y255993D01*
X703909Y255992D01*
X703772Y255999D01*
X691903Y255999D01*
X691761Y255986D01*
X691617Y255983D01*
X691539Y255967D01*
X691458Y255959D01*
X691320Y255921D01*
X691180Y255892D01*
X691064Y255851D01*
X691028Y255841D01*
X691003Y255829D01*
X690947Y255809D01*
X688992Y254999D01*
X686008Y254999D01*
X683251Y256141D01*
X681141Y258251D01*
X679999Y261008D01*
X679999Y263992D01*
X681141Y266749D01*
X681460Y267068D01*
X681548Y267173D01*
X681643Y267271D01*
X681691Y267344D01*
X681746Y267411D01*
X681814Y267529D01*
X681890Y267643D01*
X681924Y267723D01*
X681967Y267799D01*
X682013Y267928D01*
X682067Y268054D01*
X682087Y268138D01*
X682115Y268220D01*
X682137Y268356D01*
X682168Y268489D01*
X682172Y268575D01*
X682186Y268661D01*
X682183Y268798D01*
X682190Y268935D01*
X682179Y269021D01*
X682177Y269108D01*
X682150Y269242D01*
X682133Y269378D01*
X682106Y269461D01*
X682089Y269546D01*
X682038Y269673D01*
X681997Y269803D01*
X681956Y269880D01*
X681924Y269961D01*
X681852Y270077D01*
X681788Y270198D01*
X681734Y270266D01*
X681688Y270340D01*
X681596Y270442D01*
X681512Y270549D01*
X681447Y270607D01*
X681388Y270671D01*
X681280Y270755D01*
X681177Y270846D01*
X681103Y270891D01*
X681034Y270944D01*
X680912Y271007D01*
X680796Y271078D01*
X680715Y271109D01*
X680637Y271149D01*
X680506Y271189D01*
X680379Y271238D01*
X680293Y271255D01*
X680210Y271280D01*
X680075Y271296D01*
X679940Y271322D01*
X679804Y271329D01*
X679767Y271333D01*
X679743Y271332D01*
X679693Y271334D01*
X371563Y271334D01*
X371377Y271318D01*
X371191Y271306D01*
X371155Y271298D01*
X371118Y271294D01*
X370938Y271245D01*
X370757Y271201D01*
X370723Y271186D01*
X370687Y271176D01*
X370519Y271095D01*
X370349Y271019D01*
X370318Y270999D01*
X370285Y270983D01*
X370134Y270873D01*
X369979Y270768D01*
X369942Y270734D01*
X369923Y270721D01*
X369897Y270694D01*
X369796Y270602D01*
X357710Y258517D01*
X357618Y258407D01*
X357520Y258303D01*
X357476Y258236D01*
X357424Y258174D01*
X357353Y258050D01*
X357274Y257930D01*
X357222Y257818D01*
X357203Y257786D01*
X357194Y257760D01*
X357169Y257706D01*
X356359Y255751D01*
X354875Y254267D01*
X354787Y254162D01*
X354692Y254064D01*
X354644Y253991D01*
X354588Y253924D01*
X354521Y253805D01*
X354445Y253692D01*
X354411Y253612D01*
X354368Y253536D01*
X354322Y253407D01*
X354268Y253281D01*
X354248Y253197D01*
X354220Y253115D01*
X354198Y252979D01*
X354167Y252846D01*
X354163Y252760D01*
X354149Y252674D01*
X354152Y252537D01*
X354145Y252400D01*
X354156Y252314D01*
X354158Y252227D01*
X354185Y252093D01*
X354202Y251957D01*
X354229Y251874D01*
X354246Y251789D01*
X354297Y251662D01*
X354338Y251532D01*
X354379Y251455D01*
X354411Y251374D01*
X354483Y251258D01*
X354547Y251137D01*
X354601Y251069D01*
X354647Y250995D01*
X354739Y250893D01*
X354823Y250786D01*
X354888Y250728D01*
X354947Y250664D01*
X355055Y250580D01*
X355158Y250489D01*
X355232Y250444D01*
X355301Y250391D01*
X355422Y250328D01*
X355539Y250257D01*
X355620Y250226D01*
X355698Y250186D01*
X355828Y250146D01*
X355956Y250097D01*
X356042Y250080D01*
X356125Y250055D01*
X356260Y250039D01*
X356395Y250013D01*
X356532Y250006D01*
X356568Y250002D01*
X356592Y250003D01*
X356642Y250001D01*
X545995Y250001D01*
X547833Y249239D01*
X554239Y242833D01*
X555001Y240995D01*
X555001Y209005D01*
X554239Y207167D01*
X546083Y199011D01*
X544245Y198249D01*
X534000Y198249D01*
X533950Y198245D01*
X533900Y198247D01*
X533728Y198225D01*
X533555Y198209D01*
X533507Y198196D01*
X533457Y198190D01*
X533292Y198137D01*
X533124Y198091D01*
X533079Y198069D01*
X533032Y198054D01*
X532878Y197973D01*
X532722Y197898D01*
X532681Y197868D01*
X532637Y197845D01*
X532500Y197738D01*
X532360Y197636D01*
X532325Y197600D01*
X532286Y197569D01*
X532170Y197439D01*
X532050Y197314D01*
X532023Y197272D01*
X531989Y197234D01*
X531899Y197086D01*
X531803Y196942D01*
X531783Y196896D01*
X531757Y196853D01*
X531695Y196691D01*
X531626Y196531D01*
X531615Y196483D01*
X531597Y196436D01*
X531564Y196265D01*
X531525Y196096D01*
X531522Y196046D01*
X531513Y195997D01*
X531501Y195750D01*
X531501Y193313D01*
X531519Y193109D01*
X531534Y192908D01*
X531539Y192882D01*
X531541Y192868D01*
X531541Y192731D01*
X531472Y192718D01*
X531376Y192709D01*
X531254Y192676D01*
X531129Y192652D01*
X531039Y192617D01*
X530946Y192591D01*
X530831Y192536D01*
X530712Y192490D01*
X530630Y192440D01*
X530543Y192398D01*
X530440Y192323D01*
X530331Y192257D01*
X530209Y192156D01*
X530181Y192136D01*
X530168Y192123D01*
X530140Y192099D01*
X530007Y191955D01*
X529871Y191813D01*
X529856Y191791D01*
X529837Y191770D01*
X529732Y191605D01*
X529624Y191441D01*
X529613Y191416D01*
X529598Y191393D01*
X529524Y191211D01*
X529447Y191031D01*
X529441Y191005D01*
X529430Y190979D01*
X529390Y190787D01*
X529346Y190596D01*
X529344Y190569D01*
X529339Y190542D01*
X529333Y190346D01*
X529324Y190150D01*
X529327Y190123D01*
X529326Y190095D01*
X529356Y189901D01*
X529381Y189707D01*
X529390Y189681D01*
X529394Y189654D01*
X529458Y189468D01*
X529517Y189281D01*
X529530Y189257D01*
X529539Y189231D01*
X529634Y189060D01*
X529726Y188887D01*
X529743Y188865D01*
X529756Y188841D01*
X529880Y188690D01*
X530002Y188536D01*
X530023Y188517D01*
X530040Y188496D01*
X530189Y188370D01*
X530336Y188239D01*
X530360Y188225D01*
X530381Y188207D01*
X530551Y188109D01*
X530718Y188007D01*
X530744Y187997D01*
X530767Y187983D01*
X530952Y187917D01*
X531135Y187847D01*
X531162Y187841D01*
X531188Y187832D01*
X531380Y187800D01*
X531541Y187769D01*
X531541Y187666D01*
X531368Y187019D01*
X531033Y186440D01*
X530560Y185967D01*
X529981Y185632D01*
X529334Y185459D01*
X524499Y185459D01*
X524499Y189500D01*
X524495Y189550D01*
X524497Y189600D01*
X524475Y189772D01*
X524459Y189945D01*
X524446Y189993D01*
X524440Y190043D01*
X524387Y190208D01*
X524341Y190376D01*
X524319Y190421D01*
X524304Y190468D01*
X524223Y190622D01*
X524148Y190778D01*
X524118Y190819D01*
X524095Y190863D01*
X523988Y190999D01*
X523886Y191140D01*
X523850Y191175D01*
X523819Y191214D01*
X523689Y191330D01*
X523564Y191450D01*
X523522Y191477D01*
X523485Y191511D01*
X523336Y191601D01*
X523192Y191697D01*
X523146Y191717D01*
X523103Y191743D01*
X522941Y191805D01*
X522782Y191874D01*
X522733Y191885D01*
X522686Y191903D01*
X522515Y191936D01*
X522346Y191975D01*
X522297Y191978D01*
X522247Y191987D01*
X522000Y191999D01*
X521950Y191995D01*
X521900Y191997D01*
X521728Y191975D01*
X521555Y191959D01*
X521507Y191946D01*
X521457Y191940D01*
X521292Y191887D01*
X521124Y191841D01*
X521079Y191819D01*
X521031Y191804D01*
X520878Y191723D01*
X520721Y191648D01*
X520681Y191618D01*
X520637Y191595D01*
X520500Y191488D01*
X520360Y191386D01*
X520325Y191350D01*
X520286Y191319D01*
X520170Y191189D01*
X520050Y191064D01*
X520022Y191022D01*
X519989Y190984D01*
X519899Y190836D01*
X519803Y190692D01*
X519783Y190646D01*
X519757Y190603D01*
X519695Y190441D01*
X519626Y190281D01*
X519615Y190233D01*
X519597Y190186D01*
X519564Y190015D01*
X519525Y189846D01*
X519522Y189796D01*
X519513Y189747D01*
X519501Y189500D01*
X519501Y185459D01*
X514666Y185459D01*
X514019Y185632D01*
X513440Y185967D01*
X512967Y186440D01*
X512632Y187019D01*
X512459Y187666D01*
X512459Y187774D01*
X512570Y187781D01*
X512597Y187788D01*
X512624Y187790D01*
X512814Y187843D01*
X513003Y187890D01*
X513028Y187902D01*
X513055Y187909D01*
X513232Y187994D01*
X513410Y188075D01*
X513433Y188090D01*
X513457Y188102D01*
X513617Y188217D01*
X513778Y188329D01*
X513797Y188348D01*
X513819Y188364D01*
X513955Y188505D01*
X514094Y188644D01*
X514110Y188666D01*
X514129Y188686D01*
X514237Y188849D01*
X514349Y189010D01*
X514361Y189035D01*
X514376Y189058D01*
X514454Y189238D01*
X514535Y189417D01*
X514542Y189443D01*
X514553Y189468D01*
X514597Y189659D01*
X514646Y189849D01*
X514648Y189877D01*
X514654Y189903D01*
X514664Y190099D01*
X514678Y190295D01*
X514675Y190322D01*
X514676Y190350D01*
X514651Y190544D01*
X514630Y190739D01*
X514622Y190765D01*
X514619Y190793D01*
X514559Y190979D01*
X514504Y191167D01*
X514491Y191192D01*
X514483Y191218D01*
X514391Y191391D01*
X514303Y191567D01*
X514287Y191589D01*
X514274Y191613D01*
X514153Y191767D01*
X514035Y191924D01*
X514009Y191950D01*
X513998Y191964D01*
X513997Y191964D01*
X513972Y191987D01*
X513860Y192099D01*
X513759Y192176D01*
X513663Y192261D01*
X513581Y192311D01*
X513504Y192369D01*
X513390Y192427D01*
X513282Y192493D01*
X513192Y192528D01*
X513106Y192571D01*
X512984Y192608D01*
X512865Y192653D01*
X512770Y192672D01*
X512678Y192699D01*
X512551Y192713D01*
X512459Y192731D01*
X512459Y192920D01*
X512487Y193066D01*
X512488Y193093D01*
X512491Y193106D01*
X512491Y193136D01*
X512499Y193313D01*
X512499Y195750D01*
X512495Y195800D01*
X512497Y195850D01*
X512475Y196022D01*
X512459Y196195D01*
X512446Y196243D01*
X512440Y196293D01*
X512387Y196458D01*
X512341Y196626D01*
X512319Y196671D01*
X512304Y196718D01*
X512223Y196872D01*
X512148Y197028D01*
X512118Y197069D01*
X512095Y197113D01*
X511988Y197250D01*
X511886Y197390D01*
X511850Y197425D01*
X511819Y197464D01*
X511689Y197580D01*
X511564Y197700D01*
X511522Y197727D01*
X511484Y197761D01*
X511336Y197851D01*
X511192Y197947D01*
X511146Y197967D01*
X511103Y197993D01*
X510941Y198055D01*
X510781Y198124D01*
X510733Y198135D01*
X510686Y198153D01*
X510515Y198186D01*
X510346Y198225D01*
X510296Y198228D01*
X510247Y198237D01*
X510000Y198249D01*
X505755Y198249D01*
X503917Y199011D01*
X491767Y211161D01*
X491662Y211249D01*
X491564Y211343D01*
X491491Y211391D01*
X491424Y211447D01*
X491306Y211515D01*
X491192Y211590D01*
X491112Y211625D01*
X491036Y211668D01*
X490907Y211713D01*
X490781Y211767D01*
X490697Y211787D01*
X490615Y211816D01*
X490479Y211838D01*
X490346Y211869D01*
X490260Y211873D01*
X490174Y211887D01*
X490037Y211884D01*
X489900Y211891D01*
X489814Y211879D01*
X489727Y211878D01*
X489593Y211851D01*
X489457Y211833D01*
X489374Y211807D01*
X489289Y211789D01*
X489162Y211739D01*
X489032Y211697D01*
X488955Y211657D01*
X488874Y211625D01*
X488758Y211552D01*
X488637Y211488D01*
X488569Y211435D01*
X488495Y211389D01*
X488393Y211297D01*
X488286Y211212D01*
X488228Y211147D01*
X488164Y211089D01*
X488080Y210980D01*
X487989Y210878D01*
X487944Y210804D01*
X487891Y210735D01*
X487828Y210613D01*
X487757Y210496D01*
X487726Y210415D01*
X487686Y210338D01*
X487646Y210207D01*
X487597Y210079D01*
X487580Y209994D01*
X487555Y209911D01*
X487539Y209775D01*
X487513Y209641D01*
X487506Y209504D01*
X487502Y209467D01*
X487503Y209444D01*
X487501Y209393D01*
X487501Y199813D01*
X487519Y199611D01*
X487534Y199408D01*
X487539Y199382D01*
X487541Y199368D01*
X487541Y199231D01*
X487472Y199218D01*
X487376Y199209D01*
X487254Y199176D01*
X487129Y199152D01*
X487039Y199117D01*
X486946Y199091D01*
X486831Y199036D01*
X486712Y198990D01*
X486630Y198940D01*
X486543Y198898D01*
X486440Y198823D01*
X486331Y198757D01*
X486209Y198656D01*
X486181Y198636D01*
X486168Y198623D01*
X486140Y198599D01*
X486007Y198455D01*
X485871Y198313D01*
X485856Y198291D01*
X485837Y198270D01*
X485732Y198105D01*
X485624Y197941D01*
X485613Y197916D01*
X485598Y197893D01*
X485524Y197711D01*
X485447Y197531D01*
X485441Y197505D01*
X485430Y197479D01*
X485390Y197287D01*
X485346Y197096D01*
X485344Y197069D01*
X485339Y197042D01*
X485333Y196846D01*
X485324Y196650D01*
X485327Y196623D01*
X485326Y196595D01*
X485356Y196401D01*
X485381Y196207D01*
X485390Y196181D01*
X485394Y196154D01*
X485458Y195968D01*
X485517Y195781D01*
X485530Y195757D01*
X485539Y195731D01*
X485634Y195560D01*
X485726Y195387D01*
X485743Y195365D01*
X485756Y195341D01*
X485880Y195190D01*
X486002Y195036D01*
X486023Y195017D01*
X486040Y194996D01*
X486189Y194870D01*
X486336Y194739D01*
X486360Y194725D01*
X486381Y194707D01*
X486551Y194609D01*
X486718Y194507D01*
X486744Y194497D01*
X486767Y194483D01*
X486952Y194417D01*
X487135Y194347D01*
X487162Y194341D01*
X487188Y194332D01*
X487380Y194300D01*
X487541Y194269D01*
X487541Y194165D01*
X487536Y194147D01*
X487521Y194065D01*
X487498Y193985D01*
X487483Y193845D01*
X487459Y193707D01*
X487460Y193623D01*
X487451Y193541D01*
X487461Y193401D01*
X487462Y193260D01*
X487478Y193178D01*
X487484Y193095D01*
X487536Y192853D01*
X487541Y192835D01*
X487541Y192736D01*
X487463Y192726D01*
X487274Y192709D01*
X487241Y192700D01*
X487207Y192696D01*
X487026Y192641D01*
X486843Y192591D01*
X486812Y192576D01*
X486779Y192566D01*
X486555Y192462D01*
X486554Y192461D01*
X486499Y192426D01*
X486441Y192398D01*
X486440Y192397D01*
X486312Y192305D01*
X486179Y192219D01*
X486131Y192174D01*
X486078Y192136D01*
X485969Y192022D01*
X485853Y191913D01*
X485814Y191861D01*
X485769Y191813D01*
X485681Y191682D01*
X485587Y191555D01*
X485558Y191496D01*
X485521Y191441D01*
X485459Y191296D01*
X485389Y191155D01*
X485370Y191091D01*
X485344Y191031D01*
X485309Y190878D01*
X485265Y190725D01*
X485258Y190660D01*
X485243Y190596D01*
X485235Y190439D01*
X485219Y190281D01*
X485224Y190215D01*
X485221Y190150D01*
X485242Y189993D01*
X485254Y189836D01*
X485270Y189772D01*
X485279Y189707D01*
X485327Y189556D01*
X485367Y189404D01*
X485394Y189344D01*
X485414Y189281D01*
X485488Y189142D01*
X485555Y188998D01*
X485593Y188945D01*
X485624Y188887D01*
X485721Y188762D01*
X485812Y188633D01*
X485859Y188587D01*
X485900Y188536D01*
X486018Y188431D01*
X486131Y188320D01*
X486185Y188283D01*
X486234Y188239D01*
X486369Y188157D01*
X486500Y188068D01*
X486560Y188041D01*
X486616Y188007D01*
X486763Y187950D01*
X486907Y187886D01*
X486971Y187870D01*
X487032Y187847D01*
X487188Y187817D01*
X487341Y187779D01*
X487407Y187775D01*
X487471Y187763D01*
X487541Y187759D01*
X487541Y187666D01*
X487368Y187019D01*
X487033Y186440D01*
X486560Y185967D01*
X485981Y185632D01*
X485334Y185459D01*
X480499Y185459D01*
X480499Y190250D01*
X480499Y195750D01*
X480495Y195800D01*
X480497Y195850D01*
X480475Y196022D01*
X480459Y196195D01*
X480446Y196243D01*
X480440Y196293D01*
X480387Y196458D01*
X480341Y196626D01*
X480319Y196671D01*
X480304Y196718D01*
X480223Y196872D01*
X480148Y197028D01*
X480118Y197069D01*
X480095Y197113D01*
X479988Y197250D01*
X479886Y197390D01*
X479850Y197425D01*
X479819Y197464D01*
X479689Y197580D01*
X479564Y197700D01*
X479522Y197727D01*
X479485Y197761D01*
X479336Y197851D01*
X479192Y197947D01*
X479146Y197967D01*
X479103Y197993D01*
X478941Y198055D01*
X478782Y198124D01*
X478733Y198135D01*
X478686Y198153D01*
X478515Y198186D01*
X478346Y198225D01*
X478297Y198228D01*
X478247Y198237D01*
X478000Y198249D01*
X477950Y198245D01*
X477900Y198247D01*
X477728Y198225D01*
X477555Y198209D01*
X477507Y198196D01*
X477457Y198190D01*
X477292Y198137D01*
X477124Y198091D01*
X477079Y198069D01*
X477031Y198054D01*
X476878Y197973D01*
X476721Y197898D01*
X476681Y197868D01*
X476637Y197845D01*
X476500Y197738D01*
X476360Y197636D01*
X476325Y197600D01*
X476286Y197569D01*
X476170Y197439D01*
X476050Y197314D01*
X476022Y197272D01*
X475989Y197234D01*
X475899Y197086D01*
X475803Y196942D01*
X475783Y196896D01*
X475757Y196853D01*
X475695Y196691D01*
X475626Y196531D01*
X475615Y196483D01*
X475597Y196436D01*
X475564Y196265D01*
X475525Y196096D01*
X475522Y196046D01*
X475513Y195997D01*
X475501Y195750D01*
X475501Y190250D01*
X475501Y185459D01*
X470666Y185459D01*
X470019Y185632D01*
X469440Y185967D01*
X468967Y186440D01*
X468632Y187019D01*
X468459Y187666D01*
X468459Y187761D01*
X468569Y187776D01*
X468727Y187790D01*
X468790Y187808D01*
X468855Y187817D01*
X469005Y187867D01*
X469157Y187909D01*
X469217Y187937D01*
X469279Y187958D01*
X469417Y188034D01*
X469560Y188102D01*
X469613Y188141D01*
X469671Y188172D01*
X469794Y188271D01*
X469922Y188364D01*
X469967Y188411D01*
X470018Y188453D01*
X470122Y188572D01*
X470231Y188686D01*
X470268Y188741D01*
X470311Y188791D01*
X470391Y188927D01*
X470479Y189058D01*
X470505Y189119D01*
X470538Y189175D01*
X470593Y189323D01*
X470656Y189468D01*
X470670Y189532D01*
X470693Y189594D01*
X470721Y189750D01*
X470757Y189903D01*
X470760Y189969D01*
X470771Y190034D01*
X470771Y190192D01*
X470779Y190350D01*
X470770Y190415D01*
X470770Y190480D01*
X470742Y190636D01*
X470721Y190793D01*
X470701Y190855D01*
X470689Y190920D01*
X470634Y191068D01*
X470586Y191218D01*
X470555Y191276D01*
X470532Y191338D01*
X470450Y191474D01*
X470376Y191613D01*
X470336Y191664D01*
X470302Y191721D01*
X470198Y191840D01*
X470100Y191964D01*
X470051Y192008D01*
X470008Y192057D01*
X469884Y192156D01*
X469766Y192260D01*
X469710Y192295D01*
X469659Y192335D01*
X469446Y192461D01*
X469445Y192462D01*
X469413Y192475D01*
X469384Y192493D01*
X469208Y192561D01*
X469033Y192634D01*
X468999Y192641D01*
X468967Y192653D01*
X468781Y192689D01*
X468596Y192729D01*
X468562Y192731D01*
X468528Y192737D01*
X468459Y192741D01*
X468459Y192834D01*
X468464Y192853D01*
X468479Y192935D01*
X468502Y193015D01*
X468517Y193155D01*
X468541Y193293D01*
X468540Y193377D01*
X468549Y193459D01*
X468539Y193599D01*
X468538Y193740D01*
X468522Y193822D01*
X468516Y193905D01*
X468464Y194147D01*
X468459Y194165D01*
X468459Y195750D01*
X468455Y195800D01*
X468457Y195850D01*
X468435Y196022D01*
X468419Y196195D01*
X468406Y196243D01*
X468400Y196293D01*
X468347Y196458D01*
X468301Y196626D01*
X468279Y196671D01*
X468264Y196718D01*
X468183Y196872D01*
X468108Y197028D01*
X468078Y197069D01*
X468055Y197113D01*
X467948Y197250D01*
X467846Y197390D01*
X467810Y197425D01*
X467779Y197464D01*
X467649Y197580D01*
X467524Y197700D01*
X467482Y197727D01*
X467444Y197761D01*
X467296Y197851D01*
X467152Y197947D01*
X467106Y197967D01*
X467063Y197993D01*
X466901Y198055D01*
X466741Y198124D01*
X466693Y198135D01*
X466646Y198153D01*
X466475Y198186D01*
X466306Y198225D01*
X466256Y198228D01*
X466207Y198237D01*
X465960Y198249D01*
X465505Y198249D01*
X463667Y199011D01*
X460161Y202517D01*
X460017Y202637D01*
X459878Y202761D01*
X459846Y202780D01*
X459818Y202804D01*
X459656Y202896D01*
X459496Y202993D01*
X459462Y203006D01*
X459429Y203024D01*
X459253Y203086D01*
X459079Y203153D01*
X459043Y203160D01*
X459008Y203173D01*
X458824Y203202D01*
X458641Y203237D01*
X458590Y203240D01*
X458567Y203243D01*
X458530Y203242D01*
X458393Y203249D01*
X405978Y203249D01*
X405792Y203233D01*
X405606Y203221D01*
X405570Y203213D01*
X405533Y203209D01*
X405353Y203160D01*
X405172Y203116D01*
X405138Y203101D01*
X405102Y203091D01*
X404934Y203010D01*
X404764Y202934D01*
X404733Y202914D01*
X404700Y202898D01*
X404549Y202788D01*
X404394Y202683D01*
X404357Y202649D01*
X404338Y202636D01*
X404312Y202609D01*
X404211Y202517D01*
X358595Y156901D01*
X358591Y156896D01*
X358586Y156892D01*
X358446Y156724D01*
X358308Y156559D01*
X358305Y156553D01*
X358301Y156548D01*
X358194Y156357D01*
X358088Y156170D01*
X358086Y156164D01*
X358082Y156158D01*
X358012Y155954D01*
X357940Y155749D01*
X357939Y155742D01*
X357936Y155736D01*
X357903Y155522D01*
X357869Y155308D01*
X357869Y155301D01*
X357868Y155295D01*
X357873Y155076D01*
X357878Y154861D01*
X357879Y154855D01*
X357879Y154848D01*
X357924Y154633D01*
X357966Y154423D01*
X357968Y154417D01*
X357970Y154411D01*
X358053Y154178D01*
X360001Y149476D01*
X360001Y140524D01*
X356575Y132254D01*
X350246Y125925D01*
X341976Y122499D01*
X333024Y122499D01*
X324754Y125925D01*
X318425Y132254D01*
X314999Y140524D01*
X314999Y149476D01*
X318425Y157746D01*
X324754Y164075D01*
X333024Y167501D01*
X341976Y167501D01*
X346678Y165553D01*
X346684Y165551D01*
X346690Y165548D01*
X346896Y165485D01*
X347104Y165420D01*
X347111Y165419D01*
X347117Y165417D01*
X347330Y165391D01*
X347547Y165364D01*
X347554Y165365D01*
X347560Y165364D01*
X347775Y165377D01*
X347993Y165389D01*
X348000Y165390D01*
X348006Y165391D01*
X348214Y165441D01*
X348428Y165492D01*
X348434Y165495D01*
X348440Y165496D01*
X348636Y165583D01*
X348837Y165671D01*
X348843Y165675D01*
X348848Y165678D01*
X349030Y165801D01*
X349208Y165920D01*
X349212Y165925D01*
X349218Y165929D01*
X349401Y166095D01*
X394039Y210733D01*
X394127Y210838D01*
X394222Y210936D01*
X394270Y211009D01*
X394326Y211076D01*
X394393Y211194D01*
X394469Y211308D01*
X394504Y211388D01*
X394547Y211464D01*
X394592Y211593D01*
X394646Y211719D01*
X394666Y211803D01*
X394695Y211885D01*
X394716Y212021D01*
X394747Y212154D01*
X394752Y212240D01*
X394765Y212326D01*
X394763Y212463D01*
X394769Y212600D01*
X394758Y212686D01*
X394756Y212773D01*
X394729Y212907D01*
X394712Y213043D01*
X394685Y213126D01*
X394668Y213211D01*
X394618Y213338D01*
X394576Y213468D01*
X394535Y213545D01*
X394503Y213626D01*
X394431Y213742D01*
X394367Y213863D01*
X394313Y213932D01*
X394267Y214005D01*
X394176Y214107D01*
X394091Y214214D01*
X394026Y214272D01*
X393967Y214336D01*
X393859Y214420D01*
X393757Y214511D01*
X393682Y214556D01*
X393613Y214609D01*
X393492Y214672D01*
X393375Y214743D01*
X393294Y214774D01*
X393217Y214814D01*
X393086Y214854D01*
X392958Y214903D01*
X392872Y214920D01*
X392790Y214945D01*
X392654Y214961D01*
X392519Y214987D01*
X392383Y214994D01*
X392346Y214998D01*
X392323Y214997D01*
X392272Y214999D01*
X388107Y214999D01*
X387921Y214983D01*
X387735Y214971D01*
X387699Y214963D01*
X387662Y214959D01*
X387481Y214910D01*
X387301Y214866D01*
X387267Y214851D01*
X387231Y214841D01*
X387063Y214760D01*
X386892Y214684D01*
X386862Y214664D01*
X386828Y214648D01*
X386677Y214538D01*
X386523Y214433D01*
X386485Y214399D01*
X386466Y214386D01*
X386441Y214359D01*
X386339Y214267D01*
X371083Y199011D01*
X369245Y198249D01*
X359000Y198249D01*
X358950Y198245D01*
X358900Y198247D01*
X358728Y198225D01*
X358555Y198209D01*
X358507Y198196D01*
X358457Y198190D01*
X358292Y198137D01*
X358124Y198091D01*
X358079Y198069D01*
X358032Y198054D01*
X357878Y197973D01*
X357722Y197898D01*
X357681Y197868D01*
X357637Y197845D01*
X357500Y197738D01*
X357360Y197636D01*
X357325Y197600D01*
X357286Y197569D01*
X357170Y197439D01*
X357050Y197314D01*
X357023Y197272D01*
X356989Y197234D01*
X356899Y197086D01*
X356803Y196942D01*
X356783Y196896D01*
X356757Y196853D01*
X356695Y196691D01*
X356626Y196531D01*
X356615Y196483D01*
X356597Y196436D01*
X356564Y196265D01*
X356525Y196096D01*
X356522Y196046D01*
X356513Y195997D01*
X356501Y195750D01*
X356501Y193313D01*
X356519Y193111D01*
X356534Y192908D01*
X356539Y192882D01*
X356541Y192868D01*
X356541Y192731D01*
X356472Y192718D01*
X356376Y192709D01*
X356254Y192676D01*
X356129Y192652D01*
X356039Y192617D01*
X355946Y192591D01*
X355831Y192536D01*
X355712Y192490D01*
X355630Y192440D01*
X355543Y192398D01*
X355440Y192323D01*
X355331Y192257D01*
X355209Y192156D01*
X355181Y192136D01*
X355168Y192123D01*
X355140Y192099D01*
X355007Y191955D01*
X354871Y191813D01*
X354856Y191791D01*
X354837Y191770D01*
X354732Y191605D01*
X354624Y191441D01*
X354613Y191416D01*
X354598Y191393D01*
X354524Y191211D01*
X354447Y191031D01*
X354441Y191005D01*
X354430Y190979D01*
X354390Y190787D01*
X354346Y190596D01*
X354344Y190569D01*
X354339Y190542D01*
X354333Y190346D01*
X354324Y190150D01*
X354327Y190123D01*
X354326Y190095D01*
X354356Y189901D01*
X354381Y189707D01*
X354390Y189681D01*
X354394Y189654D01*
X354458Y189468D01*
X354517Y189281D01*
X354530Y189257D01*
X354539Y189231D01*
X354634Y189060D01*
X354726Y188887D01*
X354743Y188865D01*
X354756Y188841D01*
X354880Y188690D01*
X355002Y188536D01*
X355023Y188517D01*
X355040Y188496D01*
X355189Y188370D01*
X355336Y188239D01*
X355360Y188225D01*
X355381Y188207D01*
X355551Y188109D01*
X355718Y188007D01*
X355744Y187997D01*
X355767Y187983D01*
X355952Y187917D01*
X356135Y187847D01*
X356162Y187841D01*
X356188Y187832D01*
X356380Y187800D01*
X356541Y187769D01*
X356541Y187666D01*
X356368Y187019D01*
X356033Y186440D01*
X355560Y185967D01*
X354981Y185632D01*
X354334Y185459D01*
X349499Y185459D01*
X349499Y189500D01*
X349495Y189550D01*
X349497Y189600D01*
X349475Y189772D01*
X349459Y189945D01*
X349446Y189993D01*
X349440Y190043D01*
X349387Y190208D01*
X349341Y190376D01*
X349319Y190421D01*
X349304Y190468D01*
X349223Y190622D01*
X349148Y190778D01*
X349118Y190819D01*
X349095Y190863D01*
X348988Y190999D01*
X348886Y191140D01*
X348850Y191175D01*
X348819Y191214D01*
X348689Y191330D01*
X348564Y191450D01*
X348522Y191477D01*
X348485Y191511D01*
X348336Y191601D01*
X348192Y191697D01*
X348146Y191717D01*
X348103Y191743D01*
X347941Y191805D01*
X347782Y191874D01*
X347733Y191885D01*
X347686Y191903D01*
X347515Y191936D01*
X347346Y191975D01*
X347297Y191978D01*
X347247Y191987D01*
X347000Y191999D01*
X346950Y191995D01*
X346900Y191997D01*
X346728Y191975D01*
X346555Y191959D01*
X346507Y191946D01*
X346457Y191940D01*
X346292Y191887D01*
X346124Y191841D01*
X346079Y191819D01*
X346031Y191804D01*
X345878Y191723D01*
X345721Y191648D01*
X345681Y191618D01*
X345637Y191595D01*
X345500Y191488D01*
X345360Y191386D01*
X345325Y191350D01*
X345286Y191319D01*
X345170Y191189D01*
X345050Y191064D01*
X345022Y191022D01*
X344989Y190984D01*
X344899Y190836D01*
X344803Y190692D01*
X344783Y190646D01*
X344757Y190603D01*
X344695Y190441D01*
X344626Y190281D01*
X344615Y190233D01*
X344597Y190186D01*
X344564Y190015D01*
X344525Y189846D01*
X344522Y189796D01*
X344513Y189747D01*
X344501Y189500D01*
X344501Y185459D01*
X339666Y185459D01*
X339019Y185632D01*
X338440Y185967D01*
X337967Y186440D01*
X337632Y187019D01*
X337459Y187666D01*
X337459Y187767D01*
X337537Y187783D01*
X337624Y187790D01*
X337756Y187827D01*
X337890Y187854D01*
X337971Y187886D01*
X338055Y187909D01*
X338178Y187968D01*
X338305Y188019D01*
X338379Y188065D01*
X338457Y188102D01*
X338569Y188183D01*
X338684Y188255D01*
X338749Y188313D01*
X338819Y188364D01*
X338914Y188463D01*
X339016Y188555D01*
X339069Y188624D01*
X339129Y188686D01*
X339204Y188800D01*
X339288Y188909D01*
X339328Y188986D01*
X339376Y189058D01*
X339430Y189184D01*
X339493Y189305D01*
X339519Y189389D01*
X339553Y189468D01*
X339584Y189602D01*
X339624Y189732D01*
X339635Y189819D01*
X339654Y189903D01*
X339661Y190040D01*
X339677Y190176D01*
X339672Y190263D01*
X339676Y190350D01*
X339659Y190485D01*
X339651Y190622D01*
X339630Y190706D01*
X339619Y190793D01*
X339577Y190923D01*
X339545Y191056D01*
X339510Y191135D01*
X339483Y191218D01*
X339419Y191339D01*
X339364Y191464D01*
X339315Y191536D01*
X339274Y191613D01*
X339189Y191720D01*
X339113Y191834D01*
X339021Y191935D01*
X338998Y191964D01*
X338980Y191980D01*
X338946Y192017D01*
X338803Y192137D01*
X338663Y192261D01*
X338632Y192280D01*
X338603Y192304D01*
X338441Y192396D01*
X338282Y192493D01*
X338247Y192506D01*
X338215Y192525D01*
X338039Y192586D01*
X337865Y192653D01*
X337828Y192660D01*
X337793Y192673D01*
X337609Y192702D01*
X337459Y192731D01*
X337459Y192920D01*
X337487Y193066D01*
X337488Y193093D01*
X337491Y193106D01*
X337491Y193136D01*
X337499Y193313D01*
X337499Y213036D01*
X338964Y214501D01*
X344905Y214501D01*
X345047Y214514D01*
X345190Y214517D01*
X345269Y214533D01*
X345349Y214541D01*
X345488Y214579D01*
X345628Y214608D01*
X345744Y214649D01*
X345780Y214659D01*
X345805Y214671D01*
X345861Y214691D01*
X346005Y214751D01*
X356643Y214751D01*
X356829Y214767D01*
X357015Y214779D01*
X357051Y214787D01*
X357088Y214791D01*
X357268Y214840D01*
X357449Y214884D01*
X357483Y214899D01*
X357519Y214909D01*
X357687Y214990D01*
X357858Y215066D01*
X357888Y215086D01*
X357922Y215102D01*
X358073Y215212D01*
X358227Y215317D01*
X358265Y215351D01*
X358284Y215364D01*
X358309Y215391D01*
X358411Y215483D01*
X363661Y220733D01*
X363748Y220838D01*
X363843Y220936D01*
X363891Y221009D01*
X363947Y221076D01*
X364015Y221194D01*
X364090Y221308D01*
X364125Y221388D01*
X364168Y221464D01*
X364213Y221593D01*
X364267Y221719D01*
X364287Y221803D01*
X364316Y221885D01*
X364338Y222021D01*
X364369Y222154D01*
X364373Y222240D01*
X364387Y222326D01*
X364384Y222463D01*
X364391Y222600D01*
X364379Y222686D01*
X364378Y222773D01*
X364351Y222907D01*
X364333Y223043D01*
X364307Y223126D01*
X364289Y223211D01*
X364239Y223338D01*
X364197Y223468D01*
X364157Y223545D01*
X364125Y223626D01*
X364052Y223742D01*
X363988Y223863D01*
X363935Y223931D01*
X363889Y224005D01*
X363797Y224107D01*
X363712Y224214D01*
X363647Y224272D01*
X363589Y224336D01*
X363480Y224420D01*
X363378Y224511D01*
X363304Y224556D01*
X363235Y224609D01*
X363113Y224672D01*
X362996Y224743D01*
X362915Y224774D01*
X362838Y224814D01*
X362707Y224854D01*
X362579Y224903D01*
X362494Y224920D01*
X362411Y224945D01*
X362275Y224961D01*
X362141Y224987D01*
X362004Y224994D01*
X361967Y224998D01*
X361944Y224997D01*
X361893Y224999D01*
X153107Y224999D01*
X152921Y224983D01*
X152735Y224971D01*
X152699Y224963D01*
X152662Y224959D01*
X152481Y224910D01*
X152301Y224866D01*
X152267Y224851D01*
X152231Y224841D01*
X152063Y224760D01*
X151892Y224684D01*
X151862Y224664D01*
X151828Y224648D01*
X151677Y224538D01*
X151523Y224433D01*
X151485Y224399D01*
X151466Y224386D01*
X151441Y224359D01*
X151339Y224267D01*
X148233Y221161D01*
X148113Y221017D01*
X147989Y220878D01*
X147970Y220846D01*
X147946Y220818D01*
X147854Y220656D01*
X147757Y220496D01*
X147744Y220462D01*
X147726Y220429D01*
X147664Y220253D01*
X147597Y220079D01*
X147590Y220043D01*
X147577Y220008D01*
X147548Y219824D01*
X147513Y219641D01*
X147510Y219590D01*
X147507Y219567D01*
X147508Y219530D01*
X147501Y219393D01*
X147501Y218508D01*
X146691Y216553D01*
X146648Y216416D01*
X146597Y216283D01*
X146582Y216203D01*
X146558Y216127D01*
X146540Y215985D01*
X146513Y215844D01*
X146507Y215721D01*
X146502Y215684D01*
X146504Y215657D01*
X146501Y215597D01*
X146501Y74403D01*
X146514Y74261D01*
X146517Y74117D01*
X146533Y74039D01*
X146541Y73958D01*
X146579Y73820D01*
X146608Y73680D01*
X146649Y73564D01*
X146659Y73528D01*
X146671Y73503D01*
X146691Y73447D01*
X147501Y71492D01*
X147501Y68508D01*
X146359Y65751D01*
X144249Y63641D01*
X141492Y62499D01*
X138508Y62499D01*
X135751Y63641D01*
X133641Y65751D01*
X132499Y68508D01*
X132499Y71492D01*
X133309Y73447D01*
X133352Y73584D01*
X133403Y73717D01*
X133418Y73797D01*
X133442Y73873D01*
X133460Y74015D01*
X133487Y74156D01*
X133493Y74279D01*
X133498Y74316D01*
X133496Y74343D01*
X133499Y74403D01*
X133499Y215597D01*
X133486Y215739D01*
X133483Y215883D01*
X133467Y215961D01*
X133459Y216042D01*
X133421Y216180D01*
X133392Y216320D01*
X133351Y216436D01*
X133341Y216472D01*
X133329Y216497D01*
X133309Y216553D01*
X132499Y218508D01*
X132499Y221492D01*
X133641Y224249D01*
X135751Y226359D01*
X138508Y227501D01*
X139393Y227501D01*
X139402Y227501D01*
X139410Y227501D01*
X139622Y227521D01*
X139838Y227541D01*
X139846Y227543D01*
X139855Y227544D01*
X140061Y227602D01*
X140269Y227659D01*
X140276Y227663D01*
X140285Y227665D01*
X140511Y227765D01*
X140589Y227813D01*
X140672Y227852D01*
X140779Y227930D01*
X140891Y227999D01*
X140959Y228061D01*
X141034Y228114D01*
X141125Y228210D01*
X141223Y228298D01*
X141280Y228370D01*
X141343Y228436D01*
X141416Y228546D01*
X141497Y228651D01*
X141540Y228732D01*
X141590Y228808D01*
X141643Y228930D01*
X141704Y229047D01*
X141731Y229135D01*
X141767Y229219D01*
X141797Y229347D01*
X141837Y229473D01*
X141848Y229565D01*
X141869Y229654D01*
X141875Y229785D01*
X141891Y229917D01*
X141886Y230008D01*
X141891Y230100D01*
X141874Y230231D01*
X141866Y230363D01*
X141845Y230452D01*
X141833Y230543D01*
X141793Y230669D01*
X141762Y230797D01*
X141725Y230881D01*
X141697Y230968D01*
X141636Y231085D01*
X141582Y231206D01*
X141531Y231282D01*
X141488Y231363D01*
X141407Y231467D01*
X141333Y231577D01*
X141269Y231642D01*
X141212Y231714D01*
X141113Y231802D01*
X141021Y231897D01*
X140946Y231950D01*
X140878Y232011D01*
X140765Y232079D01*
X140658Y232156D01*
X140575Y232195D01*
X140496Y232243D01*
X140373Y232290D01*
X140254Y232347D01*
X140165Y232370D01*
X140079Y232403D01*
X139949Y232428D01*
X139822Y232462D01*
X139731Y232470D01*
X139641Y232487D01*
X139393Y232499D01*
X138508Y232499D01*
X135751Y233641D01*
X133641Y235751D01*
X132499Y238508D01*
X132499Y241492D01*
X133641Y244249D01*
X135751Y246359D01*
X138508Y247501D01*
X139393Y247501D01*
X139579Y247517D01*
X139765Y247529D01*
X139801Y247537D01*
X139838Y247541D01*
X140018Y247590D01*
X140199Y247634D01*
X140233Y247649D01*
X140269Y247659D01*
X140437Y247740D01*
X140608Y247816D01*
X140638Y247836D01*
X140672Y247852D01*
X140823Y247962D01*
X140977Y248067D01*
X141014Y248100D01*
X141034Y248114D01*
X141059Y248141D01*
X141161Y248233D01*
X142161Y249233D01*
X142248Y249338D01*
X142343Y249436D01*
X142391Y249509D01*
X142447Y249576D01*
X142515Y249695D01*
X142590Y249808D01*
X142625Y249888D01*
X142668Y249964D01*
X142713Y250093D01*
X142767Y250219D01*
X142787Y250303D01*
X142816Y250385D01*
X142838Y250520D01*
X142869Y250654D01*
X142873Y250740D01*
X142887Y250826D01*
X142884Y250963D01*
X142891Y251100D01*
X142879Y251186D01*
X142878Y251273D01*
X142851Y251407D01*
X142833Y251543D01*
X142807Y251626D01*
X142789Y251711D01*
X142739Y251838D01*
X142697Y251968D01*
X142657Y252045D01*
X142625Y252126D01*
X142552Y252242D01*
X142488Y252363D01*
X142434Y252432D01*
X142389Y252505D01*
X142297Y252607D01*
X142212Y252714D01*
X142147Y252772D01*
X142089Y252836D01*
X141980Y252920D01*
X141878Y253011D01*
X141804Y253056D01*
X141735Y253109D01*
X141613Y253172D01*
X141496Y253243D01*
X141415Y253274D01*
X141338Y253314D01*
X141207Y253354D01*
X141079Y253403D01*
X140994Y253420D01*
X140911Y253445D01*
X140775Y253461D01*
X140641Y253487D01*
X140504Y253494D01*
X140467Y253498D01*
X140444Y253497D01*
X140393Y253499D01*
X108728Y253499D01*
X108542Y253483D01*
X108356Y253471D01*
X108320Y253463D01*
X108283Y253459D01*
X108103Y253410D01*
X107922Y253366D01*
X107888Y253351D01*
X107852Y253341D01*
X107684Y253260D01*
X107514Y253184D01*
X107483Y253164D01*
X107450Y253148D01*
X107299Y253038D01*
X107144Y252933D01*
X107107Y252899D01*
X107088Y252886D01*
X107062Y252859D01*
X106961Y252767D01*
X87233Y233039D01*
X87113Y232896D01*
X86989Y232757D01*
X86970Y232725D01*
X86946Y232696D01*
X86854Y232535D01*
X86757Y232375D01*
X86744Y232340D01*
X86726Y232308D01*
X86664Y232132D01*
X86597Y231958D01*
X86590Y231922D01*
X86577Y231887D01*
X86548Y231702D01*
X86513Y231519D01*
X86510Y231469D01*
X86507Y231446D01*
X86508Y231409D01*
X86501Y231272D01*
X86501Y53728D01*
X86517Y53542D01*
X86529Y53356D01*
X86537Y53320D01*
X86541Y53283D01*
X86590Y53103D01*
X86634Y52922D01*
X86649Y52888D01*
X86659Y52852D01*
X86740Y52684D01*
X86816Y52514D01*
X86836Y52483D01*
X86852Y52450D01*
X86962Y52299D01*
X87067Y52144D01*
X87101Y52107D01*
X87114Y52088D01*
X87141Y52062D01*
X87233Y51961D01*
X106961Y32233D01*
X107104Y32113D01*
X107243Y31989D01*
X107275Y31970D01*
X107304Y31946D01*
X107465Y31854D01*
X107625Y31757D01*
X107660Y31744D01*
X107692Y31726D01*
X107868Y31664D01*
X108042Y31597D01*
X108078Y31590D01*
X108113Y31577D01*
X108298Y31548D01*
X108481Y31513D01*
X108531Y31510D01*
X108554Y31507D01*
X108591Y31508D01*
X108728Y31501D01*
X268272Y31501D01*
X268409Y31513D01*
X268545Y31516D01*
X268630Y31533D01*
X268717Y31541D01*
X268849Y31577D01*
X268983Y31604D01*
X269064Y31636D01*
X269148Y31659D01*
X269271Y31718D01*
X269398Y31769D01*
X269472Y31815D01*
X269550Y31852D01*
X269661Y31933D01*
X269777Y32005D01*
X269842Y32063D01*
X269912Y32114D01*
X270007Y32213D01*
X270109Y32305D01*
X270162Y32374D01*
X270222Y32436D01*
X270298Y32550D01*
X270381Y32659D01*
X270421Y32736D01*
X270469Y32808D01*
X270523Y32934D01*
X270586Y33056D01*
X270612Y33139D01*
X270646Y33219D01*
X270677Y33352D01*
X270717Y33483D01*
X270728Y33569D01*
X270747Y33654D01*
X270754Y33790D01*
X270770Y33926D01*
X270765Y34013D01*
X270769Y34100D01*
X270752Y34235D01*
X270744Y34372D01*
X270723Y34457D01*
X270712Y34543D01*
X270670Y34673D01*
X270638Y34806D01*
X270603Y34886D01*
X270576Y34968D01*
X270512Y35089D01*
X270457Y35214D01*
X270408Y35286D01*
X270367Y35363D01*
X270282Y35471D01*
X270205Y35584D01*
X270114Y35685D01*
X270091Y35714D01*
X270073Y35730D01*
X270039Y35767D01*
X269138Y36669D01*
X269137Y36669D01*
X266669Y39137D01*
X266669Y39138D01*
X264489Y41318D01*
X263499Y43707D01*
X263499Y116510D01*
X263483Y116690D01*
X263473Y116870D01*
X263463Y116912D01*
X263459Y116955D01*
X263411Y117129D01*
X263370Y117304D01*
X263352Y117344D01*
X263341Y117386D01*
X263263Y117549D01*
X263191Y117713D01*
X263167Y117749D01*
X263148Y117789D01*
X263042Y117935D01*
X262942Y118084D01*
X262911Y118115D01*
X262886Y118151D01*
X262756Y118275D01*
X262630Y118405D01*
X262595Y118430D01*
X262564Y118460D01*
X262414Y118560D01*
X262267Y118665D01*
X262228Y118683D01*
X262192Y118707D01*
X262026Y118779D01*
X261863Y118856D01*
X261821Y118867D01*
X261781Y118884D01*
X261607Y118925D01*
X261432Y118972D01*
X261389Y118976D01*
X261346Y118986D01*
X261167Y118994D01*
X260987Y119010D01*
X260944Y119006D01*
X260900Y119008D01*
X260722Y118984D01*
X260542Y118967D01*
X260500Y118956D01*
X260457Y118950D01*
X260285Y118895D01*
X260112Y118847D01*
X260073Y118828D01*
X260032Y118814D01*
X259873Y118730D01*
X259711Y118651D01*
X259675Y118626D01*
X259637Y118605D01*
X259495Y118494D01*
X259350Y118388D01*
X259320Y118356D01*
X259286Y118329D01*
X259166Y118194D01*
X259042Y118064D01*
X259018Y118028D01*
X258989Y117995D01*
X258896Y117841D01*
X258797Y117691D01*
X258771Y117636D01*
X258757Y117613D01*
X258744Y117578D01*
X258691Y117467D01*
X257200Y113867D01*
X254353Y111020D01*
X250633Y109479D01*
X231367Y109479D01*
X227647Y111020D01*
X224800Y113867D01*
X223252Y117603D01*
X223248Y117636D01*
X223243Y117698D01*
X223231Y117884D01*
X223223Y117920D01*
X223219Y117957D01*
X223170Y118137D01*
X223126Y118318D01*
X223111Y118352D01*
X223101Y118388D01*
X223020Y118556D01*
X222944Y118726D01*
X222924Y118757D01*
X222908Y118790D01*
X222798Y118941D01*
X222693Y119096D01*
X222659Y119133D01*
X222646Y119152D01*
X222619Y119178D01*
X222527Y119279D01*
X210489Y131318D01*
X209499Y133707D01*
X209499Y196293D01*
X210489Y198682D01*
X227068Y215261D01*
X229457Y216251D01*
X232043Y216251D01*
X234512Y215228D01*
X234525Y215220D01*
X234554Y215196D01*
X234715Y215104D01*
X234875Y215007D01*
X234910Y214994D01*
X234942Y214976D01*
X235118Y214914D01*
X235292Y214847D01*
X235328Y214840D01*
X235363Y214827D01*
X235548Y214798D01*
X235731Y214763D01*
X235781Y214760D01*
X235804Y214757D01*
X235841Y214758D01*
X235978Y214751D01*
X303995Y214751D01*
X304139Y214691D01*
X304276Y214648D01*
X304409Y214597D01*
X304489Y214582D01*
X304565Y214558D01*
X304707Y214540D01*
X304848Y214513D01*
X304971Y214507D01*
X305009Y214502D01*
X305035Y214504D01*
X305095Y214501D01*
X311036Y214501D01*
X312501Y213036D01*
X312501Y206313D01*
X312519Y206111D01*
X312534Y205908D01*
X312539Y205882D01*
X312541Y205868D01*
X312541Y205731D01*
X312472Y205718D01*
X312376Y205709D01*
X312254Y205676D01*
X312129Y205652D01*
X312039Y205617D01*
X311946Y205591D01*
X311831Y205536D01*
X311712Y205490D01*
X311630Y205440D01*
X311543Y205398D01*
X311440Y205323D01*
X311331Y205257D01*
X311209Y205156D01*
X311181Y205136D01*
X311168Y205123D01*
X311140Y205099D01*
X311007Y204955D01*
X310871Y204813D01*
X310856Y204791D01*
X310837Y204770D01*
X310732Y204605D01*
X310624Y204441D01*
X310613Y204416D01*
X310598Y204393D01*
X310524Y204211D01*
X310447Y204031D01*
X310441Y204005D01*
X310430Y203979D01*
X310390Y203787D01*
X310346Y203596D01*
X310344Y203569D01*
X310339Y203542D01*
X310333Y203346D01*
X310324Y203150D01*
X310327Y203123D01*
X310326Y203095D01*
X310356Y202901D01*
X310381Y202707D01*
X310390Y202681D01*
X310394Y202654D01*
X310458Y202468D01*
X310517Y202281D01*
X310530Y202257D01*
X310539Y202231D01*
X310634Y202060D01*
X310726Y201887D01*
X310743Y201865D01*
X310756Y201841D01*
X310880Y201690D01*
X311002Y201536D01*
X311023Y201517D01*
X311040Y201496D01*
X311189Y201370D01*
X311336Y201239D01*
X311360Y201225D01*
X311381Y201207D01*
X311551Y201109D01*
X311718Y201007D01*
X311744Y200997D01*
X311767Y200983D01*
X311952Y200917D01*
X312135Y200847D01*
X312162Y200841D01*
X312188Y200832D01*
X312380Y200800D01*
X312541Y200769D01*
X312541Y200665D01*
X312536Y200647D01*
X312521Y200565D01*
X312498Y200485D01*
X312483Y200345D01*
X312459Y200207D01*
X312460Y200123D01*
X312451Y200041D01*
X312461Y199901D01*
X312462Y199760D01*
X312478Y199678D01*
X312484Y199595D01*
X312536Y199353D01*
X312541Y199335D01*
X312541Y199242D01*
X312536Y199243D01*
X312502Y199237D01*
X312466Y199237D01*
X312370Y199218D01*
X312274Y199209D01*
X312184Y199185D01*
X312095Y199170D01*
X312062Y199159D01*
X312027Y199152D01*
X311937Y199117D01*
X311843Y199091D01*
X311760Y199051D01*
X311674Y199020D01*
X311644Y199003D01*
X311610Y198990D01*
X311471Y198913D01*
X311441Y198898D01*
X311426Y198887D01*
X311394Y198870D01*
X311394Y198869D01*
X311343Y198830D01*
X311287Y198798D01*
X311185Y198713D01*
X311079Y198636D01*
X311060Y198616D01*
X311038Y198600D01*
X310994Y198552D01*
X310945Y198511D01*
X310860Y198408D01*
X310769Y198314D01*
X310755Y198292D01*
X310736Y198271D01*
X310701Y198216D01*
X310660Y198167D01*
X310594Y198050D01*
X310522Y197942D01*
X310512Y197917D01*
X310496Y197894D01*
X310472Y197834D01*
X310440Y197778D01*
X310396Y197650D01*
X310345Y197532D01*
X310339Y197506D01*
X310328Y197480D01*
X310315Y197416D01*
X310294Y197356D01*
X310273Y197222D01*
X310244Y197096D01*
X310243Y197071D01*
X310237Y197043D01*
X310235Y196978D01*
X310225Y196914D01*
X310228Y196779D01*
X310222Y196650D01*
X310225Y196625D01*
X310224Y196596D01*
X310234Y196532D01*
X310235Y196468D01*
X310263Y196335D01*
X310279Y196207D01*
X310287Y196183D01*
X310291Y196154D01*
X310312Y196093D01*
X310325Y196030D01*
X310376Y195904D01*
X310415Y195781D01*
X310427Y195759D01*
X310436Y195732D01*
X310468Y195675D01*
X310492Y195616D01*
X310564Y195501D01*
X310624Y195387D01*
X310640Y195366D01*
X310654Y195342D01*
X310695Y195292D01*
X310729Y195237D01*
X310820Y195138D01*
X310900Y195036D01*
X310920Y195018D01*
X310938Y194997D01*
X310987Y194955D01*
X311030Y194907D01*
X311136Y194826D01*
X311235Y194739D01*
X311257Y194725D01*
X311278Y194708D01*
X311334Y194675D01*
X311385Y194636D01*
X311601Y194515D01*
X311601Y194514D01*
X311609Y194511D01*
X311616Y194507D01*
X311641Y194497D01*
X311665Y194484D01*
X311841Y194420D01*
X312017Y194351D01*
X312025Y194350D01*
X312033Y194347D01*
X312060Y194341D01*
X312085Y194332D01*
X312267Y194302D01*
X312455Y194265D01*
X312464Y194264D01*
X312472Y194263D01*
X312509Y194261D01*
X312526Y194258D01*
X312541Y194258D01*
X312541Y194165D01*
X312536Y194147D01*
X312521Y194065D01*
X312498Y193985D01*
X312483Y193845D01*
X312459Y193707D01*
X312460Y193623D01*
X312451Y193541D01*
X312461Y193401D01*
X312462Y193260D01*
X312478Y193178D01*
X312484Y193095D01*
X312536Y192853D01*
X312541Y192835D01*
X312541Y192736D01*
X312463Y192726D01*
X312274Y192709D01*
X312241Y192700D01*
X312207Y192696D01*
X312026Y192641D01*
X311843Y192591D01*
X311812Y192576D01*
X311779Y192566D01*
X311555Y192462D01*
X311554Y192461D01*
X311499Y192426D01*
X311441Y192398D01*
X311440Y192397D01*
X311312Y192305D01*
X311179Y192219D01*
X311131Y192174D01*
X311078Y192136D01*
X310969Y192022D01*
X310853Y191913D01*
X310814Y191861D01*
X310769Y191813D01*
X310681Y191682D01*
X310587Y191555D01*
X310558Y191496D01*
X310521Y191441D01*
X310459Y191296D01*
X310389Y191155D01*
X310370Y191091D01*
X310344Y191031D01*
X310309Y190878D01*
X310265Y190725D01*
X310258Y190660D01*
X310243Y190596D01*
X310235Y190439D01*
X310219Y190281D01*
X310224Y190215D01*
X310221Y190150D01*
X310242Y189993D01*
X310254Y189836D01*
X310270Y189772D01*
X310279Y189707D01*
X310327Y189556D01*
X310367Y189404D01*
X310394Y189344D01*
X310414Y189281D01*
X310488Y189142D01*
X310555Y188998D01*
X310593Y188945D01*
X310624Y188887D01*
X310721Y188762D01*
X310812Y188633D01*
X310859Y188587D01*
X310900Y188536D01*
X311018Y188431D01*
X311131Y188320D01*
X311185Y188283D01*
X311234Y188239D01*
X311369Y188157D01*
X311500Y188068D01*
X311560Y188041D01*
X311616Y188007D01*
X311763Y187950D01*
X311907Y187886D01*
X311971Y187870D01*
X312032Y187847D01*
X312188Y187817D01*
X312341Y187779D01*
X312407Y187775D01*
X312471Y187763D01*
X312541Y187759D01*
X312541Y187666D01*
X312368Y187019D01*
X312033Y186440D01*
X311560Y185967D01*
X310981Y185632D01*
X310334Y185459D01*
X305499Y185459D01*
X305499Y190250D01*
X305499Y196750D01*
X305499Y202250D01*
X305495Y202300D01*
X305497Y202350D01*
X305475Y202522D01*
X305459Y202695D01*
X305446Y202743D01*
X305440Y202793D01*
X305387Y202958D01*
X305341Y203126D01*
X305319Y203171D01*
X305304Y203218D01*
X305223Y203372D01*
X305148Y203528D01*
X305118Y203569D01*
X305095Y203613D01*
X304988Y203750D01*
X304886Y203890D01*
X304850Y203925D01*
X304819Y203964D01*
X304689Y204080D01*
X304564Y204200D01*
X304522Y204227D01*
X304485Y204261D01*
X304336Y204351D01*
X304192Y204447D01*
X304146Y204467D01*
X304103Y204493D01*
X303941Y204555D01*
X303782Y204624D01*
X303733Y204635D01*
X303686Y204653D01*
X303515Y204686D01*
X303346Y204725D01*
X303297Y204728D01*
X303247Y204737D01*
X303000Y204749D01*
X302950Y204745D01*
X302900Y204747D01*
X302728Y204725D01*
X302555Y204709D01*
X302507Y204696D01*
X302457Y204690D01*
X302292Y204637D01*
X302124Y204591D01*
X302079Y204569D01*
X302031Y204554D01*
X301878Y204473D01*
X301721Y204398D01*
X301681Y204368D01*
X301637Y204345D01*
X301500Y204238D01*
X301360Y204136D01*
X301325Y204100D01*
X301286Y204069D01*
X301170Y203939D01*
X301050Y203814D01*
X301022Y203772D01*
X300989Y203734D01*
X300899Y203586D01*
X300803Y203442D01*
X300783Y203396D01*
X300757Y203353D01*
X300695Y203191D01*
X300626Y203031D01*
X300615Y202983D01*
X300597Y202936D01*
X300564Y202765D01*
X300525Y202596D01*
X300522Y202546D01*
X300513Y202497D01*
X300501Y202250D01*
X300501Y196750D01*
X300501Y190250D01*
X300501Y185459D01*
X295666Y185459D01*
X295019Y185632D01*
X294440Y185967D01*
X293967Y186440D01*
X293632Y187019D01*
X293459Y187666D01*
X293459Y187761D01*
X293569Y187776D01*
X293727Y187790D01*
X293790Y187808D01*
X293855Y187817D01*
X294005Y187867D01*
X294157Y187909D01*
X294217Y187937D01*
X294279Y187958D01*
X294417Y188034D01*
X294560Y188102D01*
X294613Y188141D01*
X294671Y188172D01*
X294794Y188271D01*
X294922Y188364D01*
X294967Y188411D01*
X295018Y188453D01*
X295122Y188572D01*
X295231Y188686D01*
X295268Y188741D01*
X295311Y188791D01*
X295391Y188927D01*
X295479Y189058D01*
X295505Y189119D01*
X295538Y189175D01*
X295593Y189323D01*
X295656Y189468D01*
X295670Y189532D01*
X295693Y189594D01*
X295721Y189750D01*
X295757Y189903D01*
X295760Y189969D01*
X295771Y190034D01*
X295771Y190192D01*
X295779Y190350D01*
X295770Y190415D01*
X295770Y190480D01*
X295742Y190636D01*
X295721Y190793D01*
X295701Y190855D01*
X295689Y190920D01*
X295634Y191068D01*
X295586Y191218D01*
X295555Y191276D01*
X295532Y191338D01*
X295450Y191474D01*
X295376Y191613D01*
X295336Y191664D01*
X295302Y191721D01*
X295198Y191840D01*
X295100Y191964D01*
X295051Y192008D01*
X295008Y192057D01*
X294884Y192156D01*
X294766Y192260D01*
X294710Y192295D01*
X294659Y192335D01*
X294446Y192461D01*
X294445Y192462D01*
X294413Y192475D01*
X294384Y192493D01*
X294208Y192561D01*
X294033Y192634D01*
X293999Y192641D01*
X293967Y192653D01*
X293781Y192689D01*
X293596Y192729D01*
X293562Y192731D01*
X293528Y192737D01*
X293459Y192741D01*
X293459Y192835D01*
X293464Y192853D01*
X293479Y192935D01*
X293502Y193015D01*
X293517Y193155D01*
X293541Y193293D01*
X293540Y193377D01*
X293549Y193459D01*
X293539Y193599D01*
X293538Y193740D01*
X293522Y193822D01*
X293516Y193905D01*
X293464Y194147D01*
X293459Y194165D01*
X293459Y194266D01*
X293489Y194269D01*
X293673Y194282D01*
X293698Y194288D01*
X293726Y194290D01*
X293734Y194293D01*
X293742Y194294D01*
X293926Y194345D01*
X294106Y194391D01*
X294130Y194402D01*
X294157Y194409D01*
X294164Y194413D01*
X294172Y194415D01*
X294399Y194514D01*
X294399Y194515D01*
X294454Y194549D01*
X294513Y194575D01*
X294535Y194591D01*
X294559Y194602D01*
X294666Y194680D01*
X294779Y194749D01*
X294827Y194792D01*
X294880Y194829D01*
X294900Y194849D01*
X294921Y194864D01*
X295012Y194958D01*
X295111Y195048D01*
X295151Y195099D01*
X295197Y195144D01*
X295213Y195167D01*
X295231Y195186D01*
X295303Y195295D01*
X295385Y195401D01*
X295415Y195458D01*
X295452Y195511D01*
X295464Y195537D01*
X295478Y195558D01*
X295529Y195677D01*
X295592Y195797D01*
X295611Y195859D01*
X295638Y195917D01*
X295645Y195945D01*
X295655Y195968D01*
X295684Y196093D01*
X295724Y196223D01*
X295732Y196288D01*
X295748Y196350D01*
X295750Y196379D01*
X295752Y196387D01*
X295756Y196404D01*
X295762Y196532D01*
X295779Y196667D01*
X295776Y196731D01*
X295780Y196796D01*
X295777Y196824D01*
X295778Y196850D01*
X295762Y196978D01*
X295754Y197113D01*
X295739Y197176D01*
X295732Y197240D01*
X295724Y197267D01*
X295721Y197293D01*
X295681Y197416D01*
X295650Y197547D01*
X295624Y197606D01*
X295606Y197668D01*
X295593Y197694D01*
X295585Y197719D01*
X295524Y197833D01*
X295470Y197956D01*
X295434Y198010D01*
X295405Y198067D01*
X295388Y198090D01*
X295376Y198113D01*
X295295Y198216D01*
X295221Y198326D01*
X295176Y198373D01*
X295137Y198424D01*
X295116Y198443D01*
X295100Y198464D01*
X295002Y198551D01*
X294909Y198647D01*
X294856Y198684D01*
X294809Y198728D01*
X294779Y198749D01*
X294765Y198761D01*
X294737Y198778D01*
X294606Y198869D01*
X294606Y198870D01*
X294574Y198886D01*
X294545Y198906D01*
X294462Y198945D01*
X294384Y198993D01*
X294294Y199028D01*
X294207Y199071D01*
X294173Y199082D01*
X294141Y199097D01*
X294053Y199120D01*
X293967Y199153D01*
X293872Y199172D01*
X293779Y199199D01*
X293743Y199203D01*
X293710Y199212D01*
X293620Y199220D01*
X293528Y199237D01*
X293459Y199241D01*
X293459Y199335D01*
X293464Y199353D01*
X293479Y199435D01*
X293502Y199515D01*
X293517Y199655D01*
X293541Y199793D01*
X293540Y199877D01*
X293549Y199959D01*
X293539Y200099D01*
X293538Y200240D01*
X293522Y200322D01*
X293516Y200405D01*
X293464Y200647D01*
X293459Y200665D01*
X293459Y202250D01*
X293455Y202300D01*
X293457Y202350D01*
X293435Y202522D01*
X293419Y202695D01*
X293406Y202743D01*
X293400Y202793D01*
X293347Y202958D01*
X293301Y203126D01*
X293279Y203171D01*
X293264Y203218D01*
X293183Y203372D01*
X293108Y203528D01*
X293078Y203569D01*
X293055Y203613D01*
X292948Y203750D01*
X292846Y203890D01*
X292810Y203925D01*
X292779Y203964D01*
X292649Y204080D01*
X292524Y204200D01*
X292482Y204227D01*
X292444Y204261D01*
X292296Y204351D01*
X292152Y204447D01*
X292106Y204467D01*
X292063Y204493D01*
X291901Y204555D01*
X291741Y204624D01*
X291693Y204635D01*
X291646Y204653D01*
X291475Y204686D01*
X291306Y204725D01*
X291256Y204728D01*
X291207Y204737D01*
X290960Y204749D01*
X235978Y204749D01*
X235792Y204733D01*
X235606Y204721D01*
X235570Y204713D01*
X235533Y204709D01*
X235353Y204660D01*
X235172Y204616D01*
X235138Y204601D01*
X235102Y204591D01*
X234934Y204510D01*
X234764Y204434D01*
X234733Y204414D01*
X234700Y204398D01*
X234549Y204288D01*
X234394Y204183D01*
X234357Y204149D01*
X234338Y204136D01*
X234312Y204109D01*
X234211Y204017D01*
X223233Y193039D01*
X223113Y192896D01*
X222989Y192757D01*
X222970Y192725D01*
X222946Y192696D01*
X222854Y192535D01*
X222757Y192375D01*
X222744Y192340D01*
X222726Y192308D01*
X222664Y192132D01*
X222597Y191958D01*
X222590Y191922D01*
X222577Y191887D01*
X222548Y191702D01*
X222513Y191519D01*
X222510Y191469D01*
X222507Y191446D01*
X222508Y191409D01*
X222501Y191272D01*
X222501Y179867D01*
X222513Y179731D01*
X222516Y179594D01*
X222533Y179509D01*
X222541Y179422D01*
X222577Y179290D01*
X222604Y179156D01*
X222636Y179076D01*
X222659Y178992D01*
X222718Y178868D01*
X222769Y178741D01*
X222815Y178667D01*
X222852Y178589D01*
X222933Y178478D01*
X223005Y178362D01*
X223063Y178298D01*
X223114Y178227D01*
X223213Y178132D01*
X223305Y178031D01*
X223374Y177978D01*
X223436Y177918D01*
X223550Y177842D01*
X223659Y177758D01*
X223736Y177719D01*
X223808Y177670D01*
X223934Y177616D01*
X224056Y177553D01*
X224139Y177528D01*
X224219Y177493D01*
X224351Y177462D01*
X224483Y177422D01*
X224569Y177412D01*
X224654Y177392D01*
X224790Y177385D01*
X224926Y177369D01*
X225013Y177374D01*
X225100Y177370D01*
X225235Y177388D01*
X225372Y177396D01*
X225457Y177416D01*
X225543Y177428D01*
X225673Y177469D01*
X225806Y177502D01*
X225886Y177537D01*
X225968Y177563D01*
X226089Y177627D01*
X226214Y177683D01*
X226286Y177732D01*
X226363Y177772D01*
X226471Y177857D01*
X226584Y177934D01*
X226685Y178026D01*
X226714Y178049D01*
X226730Y178066D01*
X226767Y178100D01*
X227647Y178980D01*
X231367Y180521D01*
X250633Y180521D01*
X254353Y178980D01*
X257200Y176133D01*
X258741Y172413D01*
X258741Y168387D01*
X257200Y164667D01*
X254353Y161820D01*
X250633Y160279D01*
X231367Y160279D01*
X227647Y161820D01*
X226767Y162700D01*
X226662Y162788D01*
X226564Y162882D01*
X226491Y162931D01*
X226424Y162986D01*
X226305Y163054D01*
X226192Y163130D01*
X226112Y163164D01*
X226036Y163207D01*
X225907Y163252D01*
X225781Y163307D01*
X225697Y163326D01*
X225615Y163355D01*
X225480Y163377D01*
X225346Y163408D01*
X225260Y163412D01*
X225174Y163426D01*
X225037Y163423D01*
X224900Y163430D01*
X224814Y163419D01*
X224727Y163417D01*
X224593Y163390D01*
X224457Y163372D01*
X224374Y163346D01*
X224289Y163329D01*
X224162Y163278D01*
X224032Y163237D01*
X223955Y163196D01*
X223874Y163164D01*
X223758Y163092D01*
X223637Y163028D01*
X223569Y162974D01*
X223495Y162928D01*
X223393Y162836D01*
X223286Y162751D01*
X223228Y162686D01*
X223164Y162628D01*
X223080Y162520D01*
X222989Y162417D01*
X222944Y162343D01*
X222891Y162274D01*
X222828Y162152D01*
X222757Y162036D01*
X222726Y161954D01*
X222686Y161877D01*
X222646Y161746D01*
X222597Y161619D01*
X222580Y161533D01*
X222555Y161450D01*
X222539Y161314D01*
X222513Y161180D01*
X222506Y161043D01*
X222502Y161007D01*
X222503Y160983D01*
X222501Y160933D01*
X222501Y154467D01*
X222513Y154331D01*
X222516Y154194D01*
X222533Y154109D01*
X222541Y154022D01*
X222577Y153890D01*
X222604Y153756D01*
X222636Y153676D01*
X222659Y153592D01*
X222718Y153468D01*
X222769Y153341D01*
X222815Y153267D01*
X222852Y153189D01*
X222933Y153078D01*
X223005Y152962D01*
X223063Y152898D01*
X223114Y152827D01*
X223213Y152732D01*
X223305Y152631D01*
X223374Y152578D01*
X223436Y152518D01*
X223550Y152442D01*
X223659Y152358D01*
X223736Y152319D01*
X223808Y152270D01*
X223934Y152216D01*
X224056Y152153D01*
X224139Y152128D01*
X224219Y152093D01*
X224351Y152062D01*
X224483Y152022D01*
X224569Y152012D01*
X224654Y151992D01*
X224790Y151985D01*
X224926Y151969D01*
X225013Y151974D01*
X225100Y151970D01*
X225235Y151988D01*
X225372Y151996D01*
X225457Y152016D01*
X225543Y152028D01*
X225673Y152069D01*
X225806Y152102D01*
X225886Y152137D01*
X225968Y152163D01*
X226089Y152227D01*
X226214Y152283D01*
X226286Y152332D01*
X226363Y152372D01*
X226471Y152457D01*
X226584Y152534D01*
X226685Y152626D01*
X226714Y152649D01*
X226730Y152666D01*
X226767Y152700D01*
X227647Y153580D01*
X231367Y155121D01*
X250633Y155121D01*
X254353Y153580D01*
X256179Y151754D01*
X256289Y151662D01*
X256393Y151563D01*
X256460Y151519D01*
X256522Y151468D01*
X256646Y151397D01*
X256766Y151318D01*
X256877Y151265D01*
X256910Y151247D01*
X256935Y151238D01*
X256990Y151212D01*
X258682Y150511D01*
X260862Y148331D01*
X260863Y148331D01*
X273331Y135863D01*
X273331Y135862D01*
X275511Y133682D01*
X276501Y131293D01*
X276501Y49000D01*
X276505Y48950D01*
X276503Y48900D01*
X276525Y48728D01*
X276541Y48555D01*
X276554Y48507D01*
X276560Y48457D01*
X276613Y48292D01*
X276659Y48124D01*
X276681Y48079D01*
X276696Y48032D01*
X276777Y47878D01*
X276852Y47722D01*
X276882Y47681D01*
X276905Y47637D01*
X277012Y47500D01*
X277114Y47360D01*
X277150Y47325D01*
X277181Y47286D01*
X277311Y47170D01*
X277436Y47050D01*
X277478Y47023D01*
X277516Y46989D01*
X277664Y46899D01*
X277808Y46803D01*
X277854Y46783D01*
X277897Y46757D01*
X278059Y46695D01*
X278219Y46626D01*
X278267Y46615D01*
X278314Y46597D01*
X278485Y46564D01*
X278654Y46525D01*
X278704Y46522D01*
X278753Y46513D01*
X279000Y46501D01*
X438772Y46501D01*
X438958Y46517D01*
X439144Y46529D01*
X439180Y46537D01*
X439217Y46541D01*
X439397Y46590D01*
X439578Y46634D01*
X439612Y46649D01*
X439648Y46659D01*
X439816Y46740D01*
X439986Y46816D01*
X440017Y46836D01*
X440050Y46852D01*
X440201Y46962D01*
X440356Y47067D01*
X440393Y47101D01*
X440412Y47114D01*
X440438Y47141D01*
X440539Y47233D01*
X461637Y68331D01*
X461638Y68331D01*
X463818Y70511D01*
X466207Y71501D01*
X571393Y71501D01*
X573782Y70511D01*
X575963Y68331D01*
X582061Y62233D01*
X582204Y62113D01*
X582343Y61989D01*
X582375Y61970D01*
X582404Y61946D01*
X582566Y61854D01*
X582725Y61757D01*
X582760Y61744D01*
X582792Y61726D01*
X582968Y61664D01*
X583142Y61597D01*
X583178Y61590D01*
X583213Y61577D01*
X583397Y61548D01*
X583581Y61513D01*
X583631Y61510D01*
X583654Y61507D01*
X583691Y61508D01*
X583828Y61501D01*
X662522Y61501D01*
X662708Y61517D01*
X662894Y61529D01*
X662930Y61537D01*
X662967Y61541D01*
X663147Y61590D01*
X663328Y61634D01*
X663362Y61649D01*
X663398Y61659D01*
X663566Y61740D01*
X663736Y61816D01*
X663767Y61836D01*
X663800Y61852D01*
X663951Y61962D01*
X664106Y62067D01*
X664143Y62101D01*
X664162Y62114D01*
X664188Y62141D01*
X664289Y62233D01*
X680267Y78211D01*
X680355Y78316D01*
X680449Y78414D01*
X680477Y78455D01*
X680511Y78493D01*
X680530Y78525D01*
X680554Y78554D01*
X680622Y78674D01*
X680697Y78786D01*
X680716Y78831D01*
X680743Y78875D01*
X680756Y78910D01*
X680774Y78942D01*
X680821Y79074D01*
X680874Y79196D01*
X680884Y79243D01*
X680903Y79292D01*
X680910Y79328D01*
X680923Y79363D01*
X680945Y79503D01*
X680975Y79631D01*
X680977Y79679D01*
X680987Y79731D01*
X680990Y79781D01*
X680993Y79804D01*
X680992Y79841D01*
X680999Y79978D01*
X680999Y211272D01*
X680983Y211458D01*
X680971Y211644D01*
X680963Y211680D01*
X680959Y211717D01*
X680910Y211897D01*
X680866Y212078D01*
X680851Y212112D01*
X680841Y212148D01*
X680760Y212316D01*
X680684Y212486D01*
X680664Y212517D01*
X680648Y212550D01*
X680538Y212701D01*
X680433Y212856D01*
X680399Y212893D01*
X680386Y212912D01*
X680359Y212938D01*
X680267Y213039D01*
X655539Y237767D01*
X655396Y237887D01*
X655257Y238011D01*
X655225Y238030D01*
X655196Y238054D01*
X655035Y238146D01*
X654875Y238243D01*
X654840Y238256D01*
X654808Y238274D01*
X654632Y238336D01*
X654458Y238403D01*
X654422Y238410D01*
X654387Y238423D01*
X654202Y238452D01*
X654019Y238487D01*
X653969Y238490D01*
X653946Y238493D01*
X653909Y238492D01*
X653772Y238499D01*
X596903Y238499D01*
X596761Y238486D01*
X596617Y238483D01*
X596539Y238467D01*
X596458Y238459D01*
X596320Y238421D01*
X596180Y238392D01*
X596064Y238351D01*
X596028Y238341D01*
X596003Y238329D01*
X595947Y238309D01*
X593992Y237499D01*
X591008Y237499D01*
X588251Y238641D01*
X586141Y240751D01*
X584999Y243508D01*
X584999Y246492D01*
X586141Y249249D01*
X588251Y251359D01*
X591008Y252501D01*
X593992Y252501D01*
X595947Y251691D01*
X596083Y251648D01*
X596217Y251597D01*
X596297Y251582D01*
X596373Y251558D01*
X596515Y251540D01*
X596656Y251513D01*
X596779Y251507D01*
X596817Y251502D01*
X596843Y251504D01*
X596903Y251501D01*
X658793Y251501D01*
X661182Y250511D01*
X693011Y218682D01*
X694001Y216293D01*
X694001Y74957D01*
X693011Y72568D01*
X669932Y49489D01*
X667543Y48499D01*
X613142Y48499D01*
X613006Y48487D01*
X612869Y48484D01*
X612784Y48467D01*
X612697Y48459D01*
X612565Y48423D01*
X612431Y48396D01*
X612350Y48364D01*
X612266Y48341D01*
X612143Y48282D01*
X612016Y48231D01*
X611942Y48185D01*
X611864Y48148D01*
X611753Y48067D01*
X611637Y47995D01*
X611572Y47937D01*
X611502Y47886D01*
X611407Y47787D01*
X611306Y47695D01*
X611253Y47626D01*
X611192Y47564D01*
X611117Y47450D01*
X611033Y47341D01*
X610993Y47264D01*
X610945Y47192D01*
X610891Y47066D01*
X610828Y46944D01*
X610803Y46861D01*
X610768Y46781D01*
X610737Y46648D01*
X610697Y46517D01*
X610687Y46431D01*
X610667Y46346D01*
X610660Y46210D01*
X610644Y46074D01*
X610649Y45987D01*
X610645Y45900D01*
X610663Y45764D01*
X610671Y45628D01*
X610691Y45543D01*
X610702Y45457D01*
X610744Y45327D01*
X610776Y45194D01*
X610812Y45114D01*
X610838Y45032D01*
X610902Y44911D01*
X610958Y44786D01*
X611007Y44714D01*
X611047Y44637D01*
X611132Y44529D01*
X611209Y44416D01*
X611300Y44315D01*
X611323Y44286D01*
X611341Y44270D01*
X611358Y44252D01*
X612501Y41492D01*
X612501Y38508D01*
X611356Y35745D01*
X611287Y35662D01*
X611192Y35564D01*
X611144Y35491D01*
X611089Y35424D01*
X611021Y35306D01*
X610945Y35192D01*
X610911Y35112D01*
X610868Y35036D01*
X610822Y34907D01*
X610768Y34781D01*
X610748Y34697D01*
X610720Y34615D01*
X610698Y34479D01*
X610667Y34346D01*
X610663Y34260D01*
X610649Y34174D01*
X610652Y34037D01*
X610645Y33900D01*
X610656Y33814D01*
X610658Y33727D01*
X610685Y33593D01*
X610702Y33457D01*
X610729Y33374D01*
X610746Y33289D01*
X610797Y33162D01*
X610838Y33032D01*
X610879Y32955D01*
X610911Y32874D01*
X610983Y32758D01*
X611047Y32637D01*
X611101Y32569D01*
X611147Y32495D01*
X611239Y32393D01*
X611323Y32286D01*
X611388Y32228D01*
X611447Y32164D01*
X611555Y32080D01*
X611658Y31989D01*
X611732Y31944D01*
X611801Y31891D01*
X611923Y31828D01*
X612039Y31757D01*
X612120Y31726D01*
X612198Y31686D01*
X612328Y31646D01*
X612456Y31597D01*
X612542Y31580D01*
X612625Y31555D01*
X612760Y31539D01*
X612895Y31513D01*
X613031Y31506D01*
X613068Y31502D01*
X613092Y31503D01*
X613142Y31501D01*
X701272Y31501D01*
X701458Y31517D01*
X701644Y31529D01*
X701680Y31537D01*
X701717Y31541D01*
X701897Y31590D01*
X702078Y31634D01*
X702112Y31649D01*
X702148Y31659D01*
X702316Y31740D01*
X702486Y31816D01*
X702517Y31836D01*
X702550Y31852D01*
X702701Y31962D01*
X702856Y32067D01*
X702893Y32101D01*
X702912Y32114D01*
X702938Y32141D01*
X703039Y32233D01*
X707767Y36961D01*
X707887Y37104D01*
X708011Y37243D01*
X708030Y37275D01*
X708054Y37304D01*
X708146Y37465D01*
X708243Y37625D01*
X708256Y37660D01*
X708274Y37692D01*
X708336Y37868D01*
X708403Y38042D01*
X708410Y38078D01*
X708423Y38113D01*
X708452Y38298D01*
X708487Y38481D01*
X708490Y38531D01*
X708493Y38554D01*
X708492Y38591D01*
X708499Y38728D01*
X708499Y91293D01*
X709489Y93682D01*
X717290Y101483D01*
X717382Y101593D01*
X717480Y101697D01*
X717524Y101764D01*
X717576Y101826D01*
X717647Y101950D01*
X717726Y102070D01*
X717778Y102182D01*
X717797Y102214D01*
X717806Y102240D01*
X717831Y102294D01*
X718641Y104249D01*
X720751Y106359D01*
X723508Y107501D01*
X726492Y107501D01*
X729249Y106359D01*
X731359Y104249D01*
X732501Y101492D01*
X732501Y98508D01*
X731359Y95751D01*
X729249Y93641D01*
X727294Y92831D01*
X727167Y92765D01*
X727036Y92707D01*
X726970Y92662D01*
X726898Y92624D01*
X726785Y92536D01*
X726667Y92456D01*
X726575Y92373D01*
X726546Y92350D01*
X726528Y92330D01*
X726483Y92290D01*
X722233Y88039D01*
X722113Y87896D01*
X721989Y87757D01*
X721970Y87725D01*
X721946Y87696D01*
X721854Y87534D01*
X721757Y87375D01*
X721744Y87340D01*
X721726Y87308D01*
X721664Y87132D01*
X721597Y86958D01*
X721590Y86922D01*
X721577Y86887D01*
X721548Y86703D01*
X721513Y86519D01*
X721510Y86469D01*
X721507Y86446D01*
X721508Y86409D01*
X721501Y86272D01*
X721501Y33707D01*
X720511Y31318D01*
X712626Y23432D01*
X712538Y23327D01*
X712443Y23229D01*
X712395Y23156D01*
X712339Y23089D01*
X712272Y22971D01*
X712196Y22857D01*
X712161Y22777D01*
X712118Y22701D01*
X712073Y22572D01*
X712019Y22446D01*
X711999Y22362D01*
X711970Y22280D01*
X711949Y22144D01*
X711918Y22011D01*
X711913Y21925D01*
X711900Y21839D01*
X711902Y21702D01*
X711896Y21565D01*
X711907Y21479D01*
X711909Y21392D01*
X711936Y21258D01*
X711953Y21122D01*
X711980Y21039D01*
X711997Y20954D01*
X712047Y20827D01*
X712089Y20697D01*
X712130Y20620D01*
X712162Y20539D01*
X712234Y20423D01*
X712298Y20302D01*
X712352Y20234D01*
X712398Y20160D01*
X712490Y20058D01*
X712574Y19951D01*
X712639Y19893D01*
X712698Y19829D01*
X712806Y19745D01*
X712908Y19654D01*
X712983Y19609D01*
X713052Y19556D01*
X713173Y19493D01*
X713290Y19422D01*
X713371Y19391D01*
X713448Y19351D01*
X713579Y19311D01*
X713707Y19262D01*
X713793Y19245D01*
X713875Y19220D01*
X714011Y19204D01*
X714146Y19178D01*
X714282Y19171D01*
X714319Y19167D01*
X714342Y19168D01*
X714393Y19166D01*
X733937Y19166D01*
X734123Y19182D01*
X734309Y19194D01*
X734345Y19202D01*
X734382Y19206D01*
X734562Y19255D01*
X734743Y19299D01*
X734777Y19314D01*
X734813Y19324D01*
X734981Y19405D01*
X735151Y19481D01*
X735182Y19501D01*
X735215Y19517D01*
X735366Y19627D01*
X735521Y19732D01*
X735558Y19766D01*
X735577Y19779D01*
X735603Y19806D01*
X735704Y19898D01*
X749240Y33433D01*
X749355Y33571D01*
X749475Y33705D01*
X749498Y33742D01*
X749526Y33776D01*
X749615Y33932D01*
X749709Y34086D01*
X749725Y34126D01*
X749747Y34164D01*
X749806Y34334D01*
X749872Y34502D01*
X749880Y34544D01*
X749895Y34585D01*
X749923Y34763D01*
X749958Y34940D01*
X749959Y34984D01*
X749965Y35027D01*
X749962Y35206D01*
X749965Y35387D01*
X749957Y35430D01*
X749957Y35473D01*
X749921Y35650D01*
X749892Y35827D01*
X749877Y35868D01*
X749868Y35911D01*
X749802Y36079D01*
X749741Y36248D01*
X749720Y36286D01*
X749703Y36326D01*
X749608Y36479D01*
X749518Y36635D01*
X749490Y36668D01*
X749467Y36705D01*
X749346Y36839D01*
X749230Y36977D01*
X749197Y37004D01*
X749168Y37037D01*
X749024Y37147D01*
X748886Y37261D01*
X748848Y37282D01*
X748814Y37309D01*
X748653Y37392D01*
X748496Y37480D01*
X748455Y37494D01*
X748417Y37514D01*
X748245Y37567D01*
X748074Y37626D01*
X748031Y37632D01*
X747990Y37645D01*
X747811Y37667D01*
X747633Y37694D01*
X747589Y37693D01*
X747546Y37698D01*
X747367Y37688D01*
X747186Y37683D01*
X747144Y37674D01*
X747100Y37672D01*
X746926Y37629D01*
X746749Y37592D01*
X746692Y37572D01*
X746666Y37566D01*
X746632Y37551D01*
X746516Y37509D01*
X746492Y37499D01*
X743508Y37499D01*
X740751Y38641D01*
X738641Y40751D01*
X737499Y43508D01*
X737499Y46492D01*
X738309Y48447D01*
X738352Y48584D01*
X738403Y48717D01*
X738418Y48797D01*
X738442Y48873D01*
X738460Y49015D01*
X738487Y49156D01*
X738493Y49279D01*
X738498Y49316D01*
X738496Y49343D01*
X738499Y49403D01*
X738499Y95597D01*
X738486Y95739D01*
X738483Y95883D01*
X738467Y95961D01*
X738459Y96042D01*
X738421Y96180D01*
X738392Y96320D01*
X738351Y96436D01*
X738341Y96472D01*
X738329Y96497D01*
X738309Y96553D01*
X737499Y98508D01*
X737499Y101492D01*
X738641Y104249D01*
X740751Y106359D01*
X743508Y107501D01*
X746492Y107501D01*
X749255Y106356D01*
X749338Y106287D01*
X749436Y106192D01*
X749509Y106144D01*
X749576Y106089D01*
X749694Y106021D01*
X749808Y105945D01*
X749888Y105911D01*
X749964Y105868D01*
X750093Y105822D01*
X750219Y105768D01*
X750303Y105748D01*
X750385Y105720D01*
X750521Y105698D01*
X750654Y105667D01*
X750740Y105663D01*
X750826Y105649D01*
X750963Y105652D01*
X751100Y105645D01*
X751186Y105656D01*
X751273Y105658D01*
X751407Y105685D01*
X751543Y105702D01*
X751626Y105729D01*
X751711Y105746D01*
X751838Y105797D01*
X751968Y105838D01*
X752045Y105879D01*
X752126Y105911D01*
X752242Y105983D01*
X752363Y106047D01*
X752431Y106101D01*
X752505Y106147D01*
X752607Y106239D01*
X752714Y106323D01*
X752772Y106388D01*
X752836Y106447D01*
X752920Y106555D01*
X753011Y106658D01*
X753056Y106732D01*
X753109Y106801D01*
X753172Y106923D01*
X753243Y107039D01*
X753274Y107120D01*
X753314Y107198D01*
X753354Y107328D01*
X753403Y107456D01*
X753420Y107542D01*
X753445Y107625D01*
X753461Y107760D01*
X753487Y107895D01*
X753494Y108031D01*
X753498Y108068D01*
X753497Y108092D01*
X753499Y108142D01*
X753499Y108772D01*
X753483Y108958D01*
X753471Y109144D01*
X753463Y109180D01*
X753459Y109217D01*
X753410Y109397D01*
X753366Y109578D01*
X753351Y109612D01*
X753341Y109648D01*
X753260Y109816D01*
X753184Y109986D01*
X753164Y110017D01*
X753148Y110050D01*
X753038Y110201D01*
X752933Y110356D01*
X752899Y110393D01*
X752886Y110412D01*
X752859Y110438D01*
X752767Y110539D01*
X745539Y117767D01*
X745396Y117887D01*
X745257Y118011D01*
X745225Y118030D01*
X745196Y118054D01*
X745035Y118146D01*
X744875Y118243D01*
X744840Y118256D01*
X744808Y118274D01*
X744632Y118336D01*
X744458Y118403D01*
X744422Y118410D01*
X744387Y118423D01*
X744202Y118452D01*
X744019Y118487D01*
X743969Y118490D01*
X743946Y118493D01*
X743909Y118492D01*
X743772Y118499D01*
X729403Y118499D01*
X729261Y118486D01*
X729117Y118483D01*
X729039Y118467D01*
X728958Y118459D01*
X728820Y118421D01*
X728680Y118392D01*
X728564Y118351D01*
X728528Y118341D01*
X728503Y118329D01*
X728447Y118309D01*
X726492Y117499D01*
X723508Y117499D01*
X720751Y118641D01*
X718641Y120751D01*
X717499Y123508D01*
X717499Y126492D01*
X718641Y129249D01*
X720751Y131359D01*
X723508Y132501D01*
X726492Y132501D01*
X728447Y131691D01*
X728583Y131648D01*
X728717Y131597D01*
X728797Y131582D01*
X728873Y131558D01*
X729015Y131540D01*
X729156Y131513D01*
X729279Y131507D01*
X729317Y131502D01*
X729343Y131504D01*
X729403Y131501D01*
X748793Y131501D01*
X751182Y130511D01*
X765511Y116182D01*
X766501Y113793D01*
X766501Y33707D01*
X765511Y31318D01*
X741188Y6994D01*
X741184Y6992D01*
X741038Y6886D01*
X741008Y6855D01*
X740974Y6828D01*
X740854Y6694D01*
X740728Y6564D01*
X740705Y6528D01*
X740676Y6496D01*
X740581Y6342D01*
X740481Y6192D01*
X740464Y6152D01*
X740442Y6115D01*
X740376Y5947D01*
X740304Y5781D01*
X740294Y5740D01*
X740279Y5699D01*
X740244Y5522D01*
X740203Y5346D01*
X740201Y5303D01*
X740193Y5261D01*
X740190Y5081D01*
X740181Y4900D01*
X740186Y4857D01*
X740186Y4814D01*
X740215Y4636D01*
X740239Y4457D01*
X740252Y4416D01*
X740259Y4374D01*
X740319Y4204D01*
X740374Y4032D01*
X740394Y3994D01*
X740409Y3953D01*
X740499Y3796D01*
X740583Y3637D01*
X740610Y3603D01*
X740631Y3566D01*
X740748Y3428D01*
X740859Y3286D01*
X740892Y3257D01*
X740919Y3224D01*
X741059Y3109D01*
X741194Y2989D01*
X741230Y2967D01*
X741264Y2940D01*
X741422Y2851D01*
X741575Y2757D01*
X741615Y2742D01*
X741653Y2721D01*
X741824Y2662D01*
X741992Y2597D01*
X742035Y2589D01*
X742075Y2575D01*
X742253Y2547D01*
X742431Y2513D01*
X742490Y2510D01*
X742517Y2506D01*
X742554Y2507D01*
X742678Y2501D01*
X770000Y2501D01*
X770050Y2505D01*
G37*
G36*
X343494Y250013D02*
X343494Y250013D01*
X343631Y250016D01*
X343716Y250033D01*
X343803Y250041D01*
X343935Y250077D01*
X344069Y250104D01*
X344150Y250136D01*
X344234Y250159D01*
X344357Y250218D01*
X344484Y250269D01*
X344558Y250315D01*
X344636Y250352D01*
X344747Y250433D01*
X344863Y250505D01*
X344928Y250563D01*
X344998Y250614D01*
X345093Y250713D01*
X345194Y250805D01*
X345247Y250874D01*
X345308Y250936D01*
X345383Y251050D01*
X345467Y251159D01*
X345507Y251236D01*
X345555Y251308D01*
X345609Y251434D01*
X345672Y251556D01*
X345697Y251639D01*
X345732Y251719D01*
X345763Y251852D01*
X345803Y251983D01*
X345813Y252069D01*
X345833Y252154D01*
X345840Y252290D01*
X345856Y252426D01*
X345851Y252513D01*
X345855Y252600D01*
X345838Y252735D01*
X345829Y252872D01*
X345809Y252957D01*
X345798Y253043D01*
X345756Y253173D01*
X345724Y253306D01*
X345688Y253385D01*
X345662Y253468D01*
X345598Y253589D01*
X345542Y253714D01*
X345494Y253786D01*
X345453Y253863D01*
X345368Y253971D01*
X345291Y254084D01*
X345200Y254185D01*
X345177Y254214D01*
X345159Y254230D01*
X345125Y254267D01*
X343641Y255751D01*
X342499Y258508D01*
X342499Y261492D01*
X343641Y264249D01*
X345751Y266359D01*
X347706Y267169D01*
X347833Y267235D01*
X347964Y267293D01*
X348031Y267338D01*
X348102Y267376D01*
X348215Y267464D01*
X348333Y267544D01*
X348425Y267627D01*
X348454Y267650D01*
X348472Y267670D01*
X348517Y267710D01*
X361972Y281166D01*
X364039Y283233D01*
X364127Y283338D01*
X364222Y283436D01*
X364270Y283509D01*
X364326Y283576D01*
X364393Y283694D01*
X364469Y283808D01*
X364504Y283888D01*
X364546Y283964D01*
X364592Y284093D01*
X364646Y284219D01*
X364666Y284303D01*
X364695Y284385D01*
X364716Y284521D01*
X364747Y284654D01*
X364752Y284740D01*
X364765Y284826D01*
X364763Y284963D01*
X364769Y285100D01*
X364758Y285186D01*
X364756Y285273D01*
X364729Y285407D01*
X364712Y285543D01*
X364685Y285626D01*
X364668Y285711D01*
X364618Y285838D01*
X364576Y285968D01*
X364535Y286045D01*
X364503Y286126D01*
X364431Y286242D01*
X364367Y286363D01*
X364313Y286432D01*
X364267Y286505D01*
X364176Y286607D01*
X364091Y286714D01*
X364026Y286772D01*
X363967Y286836D01*
X363859Y286920D01*
X363757Y287011D01*
X363682Y287056D01*
X363613Y287109D01*
X363492Y287172D01*
X363375Y287243D01*
X363294Y287274D01*
X363217Y287314D01*
X363086Y287354D01*
X362958Y287403D01*
X362872Y287420D01*
X362790Y287445D01*
X362654Y287461D01*
X362519Y287487D01*
X362383Y287494D01*
X362346Y287498D01*
X362323Y287497D01*
X362272Y287499D01*
X237728Y287499D01*
X237591Y287487D01*
X237455Y287484D01*
X237370Y287467D01*
X237283Y287459D01*
X237151Y287423D01*
X237017Y287396D01*
X236936Y287364D01*
X236852Y287341D01*
X236729Y287282D01*
X236602Y287231D01*
X236528Y287185D01*
X236450Y287148D01*
X236338Y287067D01*
X236223Y286995D01*
X236158Y286937D01*
X236088Y286886D01*
X235993Y286787D01*
X235891Y286695D01*
X235838Y286626D01*
X235778Y286564D01*
X235703Y286450D01*
X235619Y286341D01*
X235579Y286264D01*
X235531Y286192D01*
X235477Y286066D01*
X235414Y285944D01*
X235388Y285861D01*
X235354Y285781D01*
X235323Y285648D01*
X235283Y285517D01*
X235272Y285431D01*
X235253Y285346D01*
X235246Y285210D01*
X235230Y285074D01*
X235235Y284987D01*
X235231Y284900D01*
X235248Y284765D01*
X235256Y284628D01*
X235277Y284543D01*
X235288Y284457D01*
X235330Y284327D01*
X235362Y284194D01*
X235397Y284115D01*
X235424Y284032D01*
X235488Y283911D01*
X235543Y283786D01*
X235592Y283714D01*
X235633Y283637D01*
X235718Y283529D01*
X235795Y283416D01*
X235886Y283315D01*
X235909Y283286D01*
X235927Y283270D01*
X235961Y283233D01*
X237863Y281331D01*
X251483Y267710D01*
X251593Y267618D01*
X251697Y267520D01*
X251764Y267476D01*
X251826Y267424D01*
X251950Y267353D01*
X252070Y267274D01*
X252182Y267222D01*
X252214Y267203D01*
X252240Y267194D01*
X252294Y267169D01*
X254249Y266359D01*
X256359Y264249D01*
X257501Y261492D01*
X257501Y258508D01*
X256359Y255751D01*
X254875Y254267D01*
X254787Y254162D01*
X254692Y254064D01*
X254644Y253991D01*
X254588Y253924D01*
X254521Y253805D01*
X254445Y253692D01*
X254411Y253612D01*
X254368Y253536D01*
X254322Y253407D01*
X254268Y253281D01*
X254248Y253197D01*
X254220Y253115D01*
X254198Y252979D01*
X254167Y252846D01*
X254163Y252760D01*
X254149Y252674D01*
X254152Y252537D01*
X254145Y252400D01*
X254156Y252314D01*
X254158Y252227D01*
X254185Y252093D01*
X254202Y251957D01*
X254229Y251874D01*
X254246Y251789D01*
X254297Y251662D01*
X254338Y251532D01*
X254379Y251455D01*
X254411Y251374D01*
X254483Y251258D01*
X254547Y251137D01*
X254601Y251069D01*
X254647Y250995D01*
X254739Y250893D01*
X254823Y250786D01*
X254888Y250728D01*
X254947Y250664D01*
X255055Y250580D01*
X255158Y250489D01*
X255232Y250444D01*
X255301Y250391D01*
X255422Y250328D01*
X255539Y250257D01*
X255620Y250226D01*
X255698Y250186D01*
X255828Y250146D01*
X255956Y250097D01*
X256042Y250080D01*
X256125Y250055D01*
X256260Y250039D01*
X256395Y250013D01*
X256532Y250006D01*
X256568Y250002D01*
X256592Y250003D01*
X256642Y250001D01*
X343358Y250001D01*
X343494Y250013D01*
G37*
%LPC*%
G36*
X483024Y122499D02*
X483024Y122499D01*
X474754Y125925D01*
X468425Y132254D01*
X464999Y140524D01*
X464999Y149476D01*
X468425Y157746D01*
X474754Y164075D01*
X483024Y167501D01*
X491976Y167501D01*
X500246Y164075D01*
X506575Y157746D01*
X510001Y149476D01*
X510001Y140524D01*
X506575Y132254D01*
X500246Y125925D01*
X491976Y122499D01*
X483024Y122499D01*
G37*
%LPD*%
D10*
X347000Y209750D03*
X347000Y203250D03*
X347000Y196750D03*
X347000Y190250D03*
X303000Y190250D03*
X303000Y196750D03*
X303000Y203250D03*
X303000Y209750D03*
X522000Y209750D03*
X522000Y203250D03*
X522000Y196750D03*
X522000Y190250D03*
X478000Y190250D03*
X478000Y196750D03*
X478000Y203250D03*
X478000Y209750D03*
D11*
X248620Y119600D02*
X233380Y119600D01*
X233380Y145000D02*
X248620Y145000D01*
X248620Y170400D02*
X233380Y170400D01*
D12*
X275000Y260000D03*
X325000Y260000D03*
X687500Y245000D03*
X241250Y190000D03*
X745000Y175000D03*
X350000Y260000D03*
X745000Y100000D03*
X745000Y150000D03*
X745000Y45000D03*
D13*
X367835Y277835D02*
X350000Y260000D01*
X367835Y277835D02*
X741500Y277835D01*
X760000Y259335D01*
X760000Y165000D02*
X745000Y150000D01*
X760000Y165000D02*
X760000Y259335D01*
X745000Y100000D02*
X745000Y45000D01*
D14*
X337500Y145000D03*
D13*
X216000Y135000D02*
X216000Y195000D01*
X216000Y135000D02*
X231400Y119600D01*
X241000Y119600D01*
D15*
X460000Y209750D02*
X478000Y209750D01*
D13*
X460000Y209750D02*
X402250Y209750D01*
X337500Y145000D01*
D15*
X466500Y203250D02*
X478000Y203250D01*
X466500Y203250D02*
X460000Y209750D01*
D13*
X230750Y209750D02*
X216000Y195000D01*
D15*
X230750Y209750D02*
X303000Y209750D01*
D12*
X560000Y40000D03*
D13*
X605000Y40000D01*
D12*
X605000Y40000D03*
X592500Y245000D03*
D13*
X570100Y65000D02*
X467500Y65000D01*
X687500Y76250D02*
X687500Y215000D01*
X270000Y130000D02*
X255000Y145000D01*
X241000Y145000D01*
X657500Y245000D02*
X687500Y215000D01*
X657500Y245000D02*
X592500Y245000D01*
X275000Y40000D02*
X270000Y45000D01*
X442500Y40000D02*
X467500Y65000D01*
X442500Y40000D02*
X275000Y40000D01*
X570100Y65000D02*
X580100Y55000D01*
X666250Y55000D02*
X687500Y76250D01*
X666250Y55000D02*
X580100Y55000D01*
X270000Y45000D02*
X270000Y130000D01*
D12*
X520000Y40000D03*
X250000Y260000D03*
D13*
X97000Y12665D02*
X492665Y12665D01*
X97000Y12665D02*
X65000Y44665D01*
X65000Y245000D01*
X232000Y278000D02*
X250000Y260000D01*
X98000Y278000D02*
X65000Y245000D01*
X98000Y278000D02*
X232000Y278000D01*
X492665Y12665D02*
X520000Y40000D01*
D12*
X495000Y40000D03*
D13*
X80000Y50000D02*
X80000Y235000D01*
D12*
X225000Y260000D03*
D13*
X80000Y50000D02*
X105000Y25000D01*
X480000Y25000D01*
X105000Y260000D02*
X80000Y235000D01*
X105000Y260000D02*
X225000Y260000D01*
X480000Y25000D02*
X495000Y40000D01*
D12*
X725000Y150000D03*
X687500Y262500D03*
D13*
X707500Y262500D02*
X725000Y245000D01*
X707500Y262500D02*
X687500Y262500D01*
X725000Y245000D02*
X725000Y150000D01*
D12*
X470000Y40000D03*
X725000Y125000D03*
D13*
X760000Y112500D02*
X760000Y35000D01*
X747500Y125000D02*
X725000Y125000D01*
X747500Y125000D02*
X760000Y112500D01*
X482500Y52500D02*
X470000Y40000D01*
X482500Y52500D02*
X531100Y52500D01*
X737665Y12665D02*
X760000Y35000D01*
X737665Y12665D02*
X552335Y12665D01*
X540000Y43600D02*
X531100Y52500D01*
X540000Y25000D02*
X552335Y12665D01*
X540000Y25000D02*
X540000Y43600D01*
D12*
X725000Y100000D03*
D13*
X715000Y90000D02*
X715000Y35000D01*
D12*
X575000Y25000D03*
D13*
X715000Y90000D02*
X725000Y100000D01*
X715000Y35000D02*
X705000Y25000D01*
X575000Y25000D01*
D12*
X140000Y240000D03*
D15*
X145000Y245000D02*
X545000Y245000D01*
X145000Y245000D02*
X140000Y240000D01*
X522000Y203250D02*
X543250Y203250D01*
X550000Y210000D01*
X385000Y220000D02*
X368250Y203250D01*
X506750Y203250D02*
X522000Y203250D01*
X506750Y203250D02*
X490000Y220000D01*
X385000Y220000D01*
X368250Y203250D02*
X347000Y203250D01*
X550000Y210000D02*
X550000Y240000D01*
X545000Y245000D01*
D12*
X140000Y70000D03*
X140000Y220000D03*
D13*
X140000Y70000D01*
D15*
X380000Y230000D02*
X495000Y230000D01*
X380000Y230000D02*
X150000Y230000D01*
X140000Y220000D01*
X347000Y209750D02*
X359750Y209750D01*
X380000Y230000D01*
X515250Y209750D02*
X522000Y209750D01*
X515250Y209750D02*
X495000Y230000D01*
D14*
X487500Y145000D03*
M02*
