G04 EAGLE Gerber X2 export*
%TF.Part,Single*%
%TF.FileFunction,Copper,L1,Top,Mixed*%
%TF.FilePolarity,Positive*%
%TF.GenerationSoftware,Autodesk,EAGLE,9.1.0*%
%TF.CreationDate,2020-08-17T16:32:53Z*%
G75*
%MOMM*%
%FSLAX34Y34*%
%LPD*%
%AMOC8*
5,1,8,0,0,1.08239X$1,22.5*%
G01*
%ADD10R,1.300000X1.600000*%
%ADD11R,1.080000X1.050000*%
%ADD12R,1.270000X0.558800*%
%ADD13R,0.558800X1.270000*%
%ADD14R,1.050000X0.600000*%
%ADD15R,1.950000X2.950000*%
%ADD16R,1.600000X0.800000*%
%ADD17R,3.000000X2.100000*%
%ADD18C,1.524000*%
%ADD19R,0.800000X1.600000*%
%ADD20R,2.100000X3.000000*%
%ADD21R,1.160000X1.680000*%
%ADD22R,1.200000X1.100000*%
%ADD23R,1.000000X0.450000*%
%ADD24C,1.000000*%
%ADD25C,0.800000*%
%ADD26C,0.500000*%
%ADD27C,4.000000*%
%ADD28C,1.000000*%
%ADD29C,1.500000*%

G36*
X770050Y2505D02*
X770050Y2505D01*
X770100Y2503D01*
X770272Y2525D01*
X770445Y2541D01*
X770493Y2554D01*
X770543Y2560D01*
X770708Y2613D01*
X770876Y2659D01*
X770921Y2681D01*
X770968Y2696D01*
X771122Y2777D01*
X771278Y2852D01*
X771319Y2882D01*
X771363Y2905D01*
X771500Y3012D01*
X771640Y3114D01*
X771675Y3150D01*
X771714Y3181D01*
X771830Y3311D01*
X771950Y3436D01*
X771977Y3478D01*
X772011Y3516D01*
X772101Y3664D01*
X772197Y3808D01*
X772217Y3855D01*
X772243Y3897D01*
X772305Y4059D01*
X772374Y4219D01*
X772385Y4267D01*
X772403Y4314D01*
X772436Y4485D01*
X772475Y4654D01*
X772478Y4704D01*
X772487Y4753D01*
X772499Y5000D01*
X772499Y285000D01*
X772495Y285050D01*
X772497Y285100D01*
X772475Y285272D01*
X772459Y285445D01*
X772446Y285493D01*
X772440Y285543D01*
X772387Y285708D01*
X772341Y285876D01*
X772319Y285921D01*
X772304Y285968D01*
X772223Y286122D01*
X772148Y286278D01*
X772118Y286319D01*
X772095Y286363D01*
X771988Y286500D01*
X771886Y286640D01*
X771850Y286675D01*
X771819Y286714D01*
X771689Y286830D01*
X771564Y286950D01*
X771522Y286977D01*
X771484Y287011D01*
X771336Y287101D01*
X771192Y287197D01*
X771146Y287217D01*
X771103Y287243D01*
X770941Y287305D01*
X770781Y287374D01*
X770733Y287385D01*
X770686Y287403D01*
X770515Y287436D01*
X770346Y287475D01*
X770296Y287478D01*
X770247Y287487D01*
X770000Y287499D01*
X747228Y287499D01*
X747091Y287487D01*
X746955Y287484D01*
X746870Y287467D01*
X746783Y287459D01*
X746651Y287423D01*
X746517Y287396D01*
X746436Y287364D01*
X746352Y287341D01*
X746229Y287282D01*
X746102Y287231D01*
X746028Y287185D01*
X745950Y287148D01*
X745838Y287067D01*
X745723Y286995D01*
X745658Y286937D01*
X745588Y286886D01*
X745493Y286787D01*
X745391Y286695D01*
X745338Y286626D01*
X745278Y286564D01*
X745203Y286450D01*
X745119Y286341D01*
X745079Y286264D01*
X745031Y286192D01*
X744977Y286066D01*
X744914Y285944D01*
X744888Y285861D01*
X744854Y285781D01*
X744823Y285648D01*
X744783Y285517D01*
X744772Y285431D01*
X744753Y285346D01*
X744746Y285210D01*
X744730Y285074D01*
X744735Y284987D01*
X744731Y284900D01*
X744748Y284765D01*
X744756Y284628D01*
X744777Y284543D01*
X744788Y284457D01*
X744830Y284327D01*
X744862Y284194D01*
X744897Y284115D01*
X744924Y284032D01*
X744988Y283911D01*
X745043Y283786D01*
X745092Y283714D01*
X745133Y283637D01*
X745218Y283529D01*
X745295Y283416D01*
X745386Y283315D01*
X745409Y283286D01*
X745427Y283270D01*
X745461Y283233D01*
X765511Y263182D01*
X766501Y260793D01*
X766501Y198707D01*
X765511Y196318D01*
X752432Y183239D01*
X750043Y182249D01*
X718000Y182249D01*
X717950Y182245D01*
X717900Y182247D01*
X717728Y182225D01*
X717555Y182209D01*
X717507Y182196D01*
X717457Y182190D01*
X717292Y182137D01*
X717124Y182091D01*
X717079Y182069D01*
X717032Y182054D01*
X716878Y181973D01*
X716722Y181898D01*
X716681Y181868D01*
X716637Y181845D01*
X716500Y181738D01*
X716360Y181636D01*
X716325Y181600D01*
X716286Y181569D01*
X716170Y181439D01*
X716050Y181314D01*
X716023Y181272D01*
X715989Y181234D01*
X715899Y181086D01*
X715803Y180942D01*
X715783Y180896D01*
X715757Y180853D01*
X715695Y180691D01*
X715626Y180531D01*
X715615Y180483D01*
X715597Y180436D01*
X715564Y180265D01*
X715525Y180096D01*
X715522Y180046D01*
X715513Y179997D01*
X715501Y179750D01*
X715501Y178749D01*
X704960Y178749D01*
X704910Y178745D01*
X704861Y178747D01*
X704689Y178725D01*
X704515Y178709D01*
X704467Y178696D01*
X704418Y178690D01*
X704252Y178637D01*
X704085Y178591D01*
X704040Y178569D01*
X703992Y178554D01*
X703839Y178473D01*
X703682Y178398D01*
X703641Y178368D01*
X703597Y178345D01*
X703461Y178238D01*
X703320Y178136D01*
X703285Y178100D01*
X703246Y178069D01*
X703131Y177939D01*
X703011Y177814D01*
X702983Y177772D01*
X702950Y177735D01*
X702860Y177586D01*
X702763Y177442D01*
X702744Y177396D01*
X702718Y177353D01*
X702655Y177191D01*
X702586Y177032D01*
X702575Y176983D01*
X702557Y176936D01*
X702524Y176765D01*
X702485Y176596D01*
X702483Y176547D01*
X702473Y176497D01*
X702461Y176250D01*
X702466Y176200D01*
X702463Y176150D01*
X702485Y175978D01*
X702501Y175805D01*
X702514Y175757D01*
X702521Y175707D01*
X702573Y175542D01*
X702619Y175374D01*
X702641Y175329D01*
X702656Y175281D01*
X702737Y175128D01*
X702813Y174971D01*
X702842Y174931D01*
X702866Y174887D01*
X702973Y174750D01*
X703075Y174610D01*
X703111Y174575D01*
X703142Y174536D01*
X703272Y174420D01*
X703397Y174300D01*
X703438Y174272D01*
X703476Y174239D01*
X703624Y174149D01*
X703769Y174053D01*
X703815Y174033D01*
X703857Y174007D01*
X704020Y173945D01*
X704179Y173876D01*
X704227Y173865D01*
X704274Y173847D01*
X704445Y173814D01*
X704614Y173775D01*
X704664Y173772D01*
X704713Y173763D01*
X704960Y173751D01*
X715501Y173751D01*
X715501Y172750D01*
X715505Y172700D01*
X715503Y172650D01*
X715525Y172478D01*
X715541Y172305D01*
X715554Y172257D01*
X715560Y172207D01*
X715613Y172042D01*
X715659Y171874D01*
X715681Y171829D01*
X715696Y171782D01*
X715777Y171628D01*
X715852Y171472D01*
X715882Y171431D01*
X715905Y171387D01*
X716012Y171250D01*
X716114Y171110D01*
X716150Y171075D01*
X716181Y171036D01*
X716311Y170920D01*
X716436Y170800D01*
X716478Y170773D01*
X716516Y170739D01*
X716664Y170649D01*
X716808Y170553D01*
X716854Y170533D01*
X716897Y170507D01*
X717059Y170445D01*
X717219Y170376D01*
X717267Y170365D01*
X717277Y170361D01*
X719932Y169261D01*
X730511Y158682D01*
X731501Y156293D01*
X731501Y154403D01*
X731514Y154261D01*
X731517Y154117D01*
X731533Y154039D01*
X731541Y153958D01*
X731579Y153820D01*
X731608Y153680D01*
X731649Y153564D01*
X731659Y153528D01*
X731671Y153503D01*
X731691Y153447D01*
X732501Y151492D01*
X732501Y148508D01*
X731359Y145751D01*
X729249Y143641D01*
X726492Y142499D01*
X723508Y142499D01*
X720751Y143641D01*
X719727Y144665D01*
X719622Y144753D01*
X719524Y144848D01*
X719451Y144896D01*
X719384Y144952D01*
X719265Y145019D01*
X719152Y145095D01*
X719072Y145129D01*
X718996Y145172D01*
X718867Y145218D01*
X718741Y145272D01*
X718657Y145292D01*
X718575Y145320D01*
X718440Y145342D01*
X718306Y145373D01*
X718220Y145377D01*
X718134Y145391D01*
X717997Y145388D01*
X717860Y145395D01*
X717774Y145384D01*
X717687Y145382D01*
X717553Y145355D01*
X717417Y145338D01*
X717334Y145311D01*
X717249Y145294D01*
X717122Y145243D01*
X716992Y145202D01*
X716915Y145161D01*
X716834Y145129D01*
X716718Y145057D01*
X716597Y144993D01*
X716529Y144939D01*
X716455Y144893D01*
X716353Y144801D01*
X716246Y144717D01*
X716188Y144652D01*
X716124Y144593D01*
X716040Y144485D01*
X715949Y144382D01*
X715904Y144308D01*
X715851Y144239D01*
X715788Y144118D01*
X715717Y144001D01*
X715686Y143920D01*
X715646Y143842D01*
X715606Y143712D01*
X715557Y143584D01*
X715540Y143498D01*
X715515Y143415D01*
X715499Y143280D01*
X715473Y143145D01*
X715466Y143008D01*
X715462Y142972D01*
X715463Y142948D01*
X715461Y142898D01*
X715461Y133424D01*
X715416Y133278D01*
X715359Y133115D01*
X715351Y133065D01*
X715336Y133017D01*
X715315Y132845D01*
X715288Y132674D01*
X715289Y132623D01*
X715283Y132574D01*
X715293Y132400D01*
X715297Y132227D01*
X715307Y132178D01*
X715310Y132128D01*
X715351Y131959D01*
X715385Y131789D01*
X715404Y131742D01*
X715415Y131694D01*
X715486Y131535D01*
X715550Y131374D01*
X715576Y131331D01*
X715597Y131285D01*
X715607Y131270D01*
X715619Y131226D01*
X715678Y131103D01*
X715729Y130976D01*
X715775Y130902D01*
X715812Y130824D01*
X715893Y130713D01*
X715965Y130597D01*
X716023Y130532D01*
X716074Y130462D01*
X716173Y130367D01*
X716265Y130266D01*
X716334Y130213D01*
X716396Y130152D01*
X716510Y130077D01*
X716619Y129993D01*
X716696Y129953D01*
X716768Y129905D01*
X716894Y129851D01*
X717016Y129788D01*
X717099Y129763D01*
X717179Y129728D01*
X717311Y129697D01*
X717443Y129657D01*
X717529Y129647D01*
X717614Y129627D01*
X717750Y129620D01*
X717886Y129604D01*
X717973Y129609D01*
X718060Y129605D01*
X718195Y129622D01*
X718332Y129631D01*
X718417Y129651D01*
X718503Y129662D01*
X718633Y129704D01*
X718766Y129736D01*
X718846Y129772D01*
X718928Y129798D01*
X719049Y129862D01*
X719174Y129918D01*
X719246Y129967D01*
X719323Y130007D01*
X719431Y130092D01*
X719544Y130169D01*
X719645Y130261D01*
X719674Y130283D01*
X719690Y130301D01*
X719727Y130335D01*
X720751Y131359D01*
X723508Y132501D01*
X726492Y132501D01*
X729249Y131359D01*
X731359Y129249D01*
X732501Y126492D01*
X732501Y123508D01*
X731691Y121553D01*
X731648Y121417D01*
X731597Y121283D01*
X731582Y121203D01*
X731558Y121127D01*
X731540Y120985D01*
X731513Y120844D01*
X731507Y120721D01*
X731502Y120683D01*
X731504Y120657D01*
X731501Y120597D01*
X731501Y118053D01*
X730511Y115664D01*
X726206Y111359D01*
X726147Y111288D01*
X726079Y111223D01*
X726003Y111116D01*
X725920Y111017D01*
X725874Y110935D01*
X725819Y110859D01*
X725764Y110742D01*
X725699Y110628D01*
X725668Y110540D01*
X725628Y110456D01*
X725594Y110330D01*
X725551Y110207D01*
X725536Y110114D01*
X725512Y110024D01*
X725501Y109895D01*
X725480Y109766D01*
X725482Y109672D01*
X725474Y109579D01*
X725487Y109449D01*
X725489Y109319D01*
X725508Y109228D01*
X725517Y109134D01*
X725552Y109009D01*
X725578Y108881D01*
X725612Y108794D01*
X725637Y108704D01*
X725694Y108587D01*
X725742Y108466D01*
X725792Y108387D01*
X725833Y108303D01*
X725910Y108198D01*
X725979Y108087D01*
X726041Y108018D01*
X726097Y107942D01*
X726191Y107852D01*
X726278Y107756D01*
X726353Y107699D01*
X726420Y107634D01*
X726529Y107563D01*
X726632Y107483D01*
X726715Y107440D01*
X726794Y107389D01*
X727017Y107283D01*
X729249Y106359D01*
X731359Y104249D01*
X732501Y101492D01*
X732501Y98508D01*
X731359Y95751D01*
X729249Y93641D01*
X729050Y93559D01*
X728891Y93476D01*
X728728Y93398D01*
X728693Y93372D01*
X728655Y93352D01*
X728513Y93241D01*
X728367Y93136D01*
X728336Y93104D01*
X728302Y93078D01*
X728182Y92943D01*
X728057Y92814D01*
X728033Y92777D01*
X728004Y92745D01*
X727910Y92592D01*
X727810Y92442D01*
X727793Y92402D01*
X727770Y92365D01*
X727704Y92196D01*
X727633Y92031D01*
X727623Y91989D01*
X727607Y91949D01*
X727572Y91771D01*
X727532Y91596D01*
X727529Y91553D01*
X727521Y91510D01*
X727518Y91330D01*
X727510Y91150D01*
X727515Y91107D01*
X727514Y91064D01*
X727544Y90886D01*
X727567Y90707D01*
X727580Y90666D01*
X727587Y90623D01*
X727648Y90453D01*
X727703Y90282D01*
X727723Y90243D01*
X727738Y90202D01*
X727828Y90046D01*
X727912Y89887D01*
X727939Y89853D01*
X727961Y89815D01*
X728077Y89677D01*
X728188Y89536D01*
X728221Y89507D01*
X728249Y89474D01*
X728388Y89359D01*
X728522Y89239D01*
X728559Y89217D01*
X728593Y89189D01*
X728750Y89101D01*
X728904Y89007D01*
X728945Y88992D01*
X728982Y88970D01*
X729152Y88912D01*
X729321Y88847D01*
X729364Y88839D01*
X729405Y88824D01*
X729582Y88797D01*
X729760Y88763D01*
X729820Y88760D01*
X729846Y88756D01*
X729883Y88757D01*
X730007Y88751D01*
X739993Y88751D01*
X740173Y88767D01*
X740352Y88777D01*
X740395Y88787D01*
X740438Y88791D01*
X740612Y88838D01*
X740787Y88880D01*
X740827Y88898D01*
X740869Y88909D01*
X741032Y88987D01*
X741196Y89059D01*
X741232Y89083D01*
X741272Y89102D01*
X741418Y89208D01*
X741567Y89308D01*
X741598Y89339D01*
X741633Y89364D01*
X741758Y89494D01*
X741887Y89620D01*
X741913Y89655D01*
X741943Y89686D01*
X742043Y89836D01*
X742147Y89983D01*
X742166Y90022D01*
X742190Y90058D01*
X742261Y90223D01*
X742339Y90387D01*
X742350Y90429D01*
X742367Y90469D01*
X742408Y90643D01*
X742455Y90818D01*
X742459Y90861D01*
X742468Y90904D01*
X742477Y91083D01*
X742492Y91263D01*
X742488Y91306D01*
X742490Y91350D01*
X742467Y91528D01*
X742450Y91708D01*
X742438Y91750D01*
X742433Y91793D01*
X742378Y91964D01*
X742329Y92138D01*
X742310Y92177D01*
X742297Y92218D01*
X742213Y92377D01*
X742134Y92540D01*
X742108Y92575D01*
X742088Y92613D01*
X741977Y92754D01*
X741870Y92900D01*
X741839Y92930D01*
X741812Y92964D01*
X741677Y93084D01*
X741547Y93208D01*
X741510Y93232D01*
X741478Y93261D01*
X741324Y93354D01*
X741173Y93453D01*
X741119Y93479D01*
X741096Y93493D01*
X741061Y93506D01*
X740950Y93559D01*
X740751Y93641D01*
X738641Y95751D01*
X737499Y98508D01*
X737499Y101492D01*
X738641Y104249D01*
X740751Y106359D01*
X741669Y106739D01*
X741721Y106766D01*
X741775Y106786D01*
X741918Y106869D01*
X742065Y106946D01*
X742111Y106982D01*
X742161Y107011D01*
X742287Y107119D01*
X742418Y107220D01*
X742456Y107264D01*
X742501Y107301D01*
X742665Y107487D01*
X743399Y108405D01*
X747398Y113403D01*
X747398Y113404D01*
X747952Y114096D01*
X747978Y114136D01*
X748011Y114173D01*
X748102Y114322D01*
X748198Y114468D01*
X748218Y114513D01*
X748243Y114554D01*
X748306Y114718D01*
X748375Y114878D01*
X748386Y114926D01*
X748403Y114971D01*
X748436Y115143D01*
X748476Y115314D01*
X748478Y115362D01*
X748487Y115410D01*
X748499Y115657D01*
X748499Y136272D01*
X748483Y136458D01*
X748471Y136644D01*
X748463Y136680D01*
X748459Y136717D01*
X748410Y136897D01*
X748366Y137078D01*
X748351Y137112D01*
X748341Y137148D01*
X748260Y137316D01*
X748184Y137486D01*
X748164Y137517D01*
X748148Y137550D01*
X748038Y137701D01*
X747933Y137856D01*
X747899Y137893D01*
X747886Y137912D01*
X747859Y137938D01*
X747767Y138039D01*
X743517Y142290D01*
X743407Y142382D01*
X743303Y142480D01*
X743236Y142524D01*
X743174Y142576D01*
X743050Y142647D01*
X742930Y142726D01*
X742818Y142778D01*
X742786Y142797D01*
X742760Y142806D01*
X742706Y142831D01*
X740751Y143641D01*
X738641Y145751D01*
X737499Y148508D01*
X737499Y151492D01*
X738641Y154249D01*
X740751Y156359D01*
X743508Y157501D01*
X746492Y157501D01*
X749249Y156359D01*
X751359Y154249D01*
X752169Y152294D01*
X752235Y152167D01*
X752293Y152036D01*
X752338Y151969D01*
X752376Y151898D01*
X752464Y151785D01*
X752544Y151667D01*
X752627Y151575D01*
X752650Y151546D01*
X752670Y151528D01*
X752710Y151483D01*
X760511Y143682D01*
X761501Y141293D01*
X761501Y112998D01*
X761502Y112984D01*
X761501Y112970D01*
X761516Y112722D01*
X761604Y111933D01*
X761599Y111918D01*
X761599Y111913D01*
X761597Y111908D01*
X761555Y111688D01*
X761514Y111480D01*
X761514Y111475D01*
X761513Y111470D01*
X761501Y111222D01*
X761501Y111207D01*
X761197Y110473D01*
X761192Y110459D01*
X761186Y110446D01*
X761105Y110212D01*
X760884Y109449D01*
X760874Y109437D01*
X760872Y109433D01*
X760868Y109429D01*
X760746Y109244D01*
X760628Y109064D01*
X760626Y109060D01*
X760623Y109056D01*
X760517Y108832D01*
X760511Y108818D01*
X759949Y108256D01*
X759940Y108244D01*
X759929Y108235D01*
X759765Y108050D01*
X753048Y99654D01*
X753022Y99614D01*
X752989Y99577D01*
X752898Y99428D01*
X752802Y99282D01*
X752782Y99237D01*
X752757Y99196D01*
X752694Y99032D01*
X752625Y98872D01*
X752614Y98824D01*
X752597Y98779D01*
X752583Y98706D01*
X751359Y95751D01*
X749249Y93641D01*
X749050Y93559D01*
X748891Y93476D01*
X748728Y93398D01*
X748693Y93372D01*
X748655Y93352D01*
X748513Y93241D01*
X748367Y93136D01*
X748336Y93104D01*
X748302Y93078D01*
X748182Y92943D01*
X748057Y92814D01*
X748033Y92777D01*
X748004Y92745D01*
X747910Y92592D01*
X747810Y92442D01*
X747793Y92402D01*
X747770Y92365D01*
X747704Y92196D01*
X747633Y92031D01*
X747623Y91989D01*
X747607Y91949D01*
X747572Y91771D01*
X747532Y91596D01*
X747529Y91553D01*
X747521Y91510D01*
X747518Y91330D01*
X747510Y91150D01*
X747515Y91107D01*
X747514Y91064D01*
X747544Y90886D01*
X747567Y90707D01*
X747580Y90666D01*
X747587Y90623D01*
X747648Y90453D01*
X747703Y90282D01*
X747723Y90243D01*
X747738Y90202D01*
X747828Y90046D01*
X747912Y89887D01*
X747939Y89853D01*
X747961Y89815D01*
X748077Y89677D01*
X748188Y89536D01*
X748221Y89507D01*
X748249Y89474D01*
X748388Y89359D01*
X748522Y89239D01*
X748559Y89217D01*
X748593Y89189D01*
X748750Y89101D01*
X748904Y89007D01*
X748945Y88992D01*
X748982Y88970D01*
X749152Y88912D01*
X749321Y88847D01*
X749364Y88839D01*
X749405Y88824D01*
X749582Y88797D01*
X749760Y88763D01*
X749820Y88760D01*
X749846Y88756D01*
X749883Y88757D01*
X749995Y88751D01*
X751461Y87286D01*
X751461Y64214D01*
X749996Y62749D01*
X717924Y62749D01*
X716459Y64214D01*
X716459Y87286D01*
X717924Y88751D01*
X719993Y88751D01*
X720173Y88767D01*
X720352Y88777D01*
X720395Y88787D01*
X720438Y88791D01*
X720612Y88838D01*
X720787Y88880D01*
X720827Y88898D01*
X720869Y88909D01*
X721032Y88987D01*
X721196Y89059D01*
X721232Y89083D01*
X721272Y89102D01*
X721418Y89208D01*
X721567Y89308D01*
X721598Y89339D01*
X721633Y89364D01*
X721758Y89494D01*
X721887Y89620D01*
X721913Y89655D01*
X721943Y89686D01*
X722043Y89836D01*
X722147Y89983D01*
X722166Y90022D01*
X722190Y90058D01*
X722261Y90223D01*
X722339Y90387D01*
X722350Y90429D01*
X722367Y90469D01*
X722408Y90643D01*
X722455Y90818D01*
X722459Y90861D01*
X722468Y90904D01*
X722477Y91083D01*
X722492Y91263D01*
X722488Y91306D01*
X722490Y91350D01*
X722467Y91528D01*
X722450Y91708D01*
X722438Y91750D01*
X722433Y91793D01*
X722378Y91964D01*
X722329Y92138D01*
X722310Y92177D01*
X722297Y92218D01*
X722213Y92377D01*
X722134Y92540D01*
X722108Y92575D01*
X722088Y92613D01*
X721977Y92754D01*
X721870Y92900D01*
X721839Y92930D01*
X721812Y92964D01*
X721677Y93084D01*
X721547Y93208D01*
X721510Y93232D01*
X721478Y93261D01*
X721324Y93354D01*
X721173Y93453D01*
X721119Y93479D01*
X721096Y93493D01*
X721061Y93506D01*
X720950Y93559D01*
X720751Y93641D01*
X720375Y94017D01*
X720232Y94137D01*
X720092Y94261D01*
X720061Y94280D01*
X720032Y94304D01*
X719870Y94396D01*
X719711Y94493D01*
X719676Y94506D01*
X719644Y94524D01*
X719468Y94586D01*
X719294Y94653D01*
X719257Y94660D01*
X719223Y94673D01*
X719038Y94702D01*
X718855Y94737D01*
X718805Y94740D01*
X718781Y94743D01*
X718744Y94742D01*
X718608Y94749D01*
X695924Y94749D01*
X694459Y96214D01*
X694459Y106576D01*
X694504Y106721D01*
X694561Y106885D01*
X694569Y106935D01*
X694584Y106983D01*
X694605Y107155D01*
X694632Y107326D01*
X694631Y107376D01*
X694637Y107426D01*
X694627Y107599D01*
X694623Y107773D01*
X694613Y107822D01*
X694610Y107872D01*
X694569Y108041D01*
X694535Y108211D01*
X694516Y108257D01*
X694505Y108306D01*
X694459Y108408D01*
X694459Y117250D01*
X694455Y117300D01*
X694457Y117350D01*
X694435Y117522D01*
X694419Y117695D01*
X694406Y117743D01*
X694400Y117793D01*
X694347Y117958D01*
X694301Y118126D01*
X694279Y118171D01*
X694264Y118218D01*
X694183Y118372D01*
X694108Y118528D01*
X694078Y118569D01*
X694055Y118613D01*
X693948Y118750D01*
X693846Y118890D01*
X693810Y118925D01*
X693779Y118964D01*
X693649Y119080D01*
X693524Y119200D01*
X693482Y119227D01*
X693444Y119261D01*
X693296Y119351D01*
X693152Y119447D01*
X693106Y119467D01*
X693063Y119493D01*
X692901Y119555D01*
X692741Y119624D01*
X692693Y119635D01*
X692646Y119653D01*
X692475Y119686D01*
X692306Y119725D01*
X692256Y119728D01*
X692207Y119737D01*
X691960Y119749D01*
X627457Y119749D01*
X625068Y120739D01*
X603239Y142568D01*
X602249Y144957D01*
X602249Y175022D01*
X602247Y175046D01*
X602247Y175049D01*
X602246Y175058D01*
X602233Y175208D01*
X602221Y175394D01*
X602213Y175430D01*
X602209Y175467D01*
X602160Y175647D01*
X602116Y175828D01*
X602101Y175862D01*
X602091Y175898D01*
X602010Y176066D01*
X601934Y176236D01*
X601914Y176267D01*
X601898Y176300D01*
X601788Y176451D01*
X601683Y176606D01*
X601649Y176643D01*
X601636Y176662D01*
X601609Y176688D01*
X601517Y176789D01*
X582539Y195767D01*
X582396Y195887D01*
X582257Y196011D01*
X582225Y196030D01*
X582196Y196054D01*
X582035Y196146D01*
X581875Y196243D01*
X581840Y196256D01*
X581808Y196274D01*
X581632Y196336D01*
X581458Y196403D01*
X581422Y196410D01*
X581387Y196423D01*
X581202Y196452D01*
X581019Y196487D01*
X580969Y196490D01*
X580946Y196493D01*
X580909Y196492D01*
X580772Y196499D01*
X478607Y196499D01*
X478421Y196483D01*
X478235Y196471D01*
X478199Y196463D01*
X478162Y196459D01*
X477981Y196410D01*
X477801Y196366D01*
X477767Y196351D01*
X477731Y196341D01*
X477563Y196260D01*
X477392Y196184D01*
X477362Y196164D01*
X477328Y196148D01*
X477177Y196038D01*
X477023Y195933D01*
X476985Y195899D01*
X476966Y195886D01*
X476941Y195859D01*
X476839Y195767D01*
X453733Y172661D01*
X453613Y172517D01*
X453489Y172378D01*
X453470Y172346D01*
X453446Y172318D01*
X453354Y172156D01*
X453257Y171996D01*
X453244Y171962D01*
X453226Y171929D01*
X453164Y171753D01*
X453097Y171579D01*
X453090Y171543D01*
X453077Y171508D01*
X453048Y171324D01*
X453013Y171141D01*
X453010Y171090D01*
X453007Y171067D01*
X453008Y171030D01*
X453001Y170893D01*
X453001Y141641D01*
X453017Y141455D01*
X453029Y141269D01*
X453037Y141233D01*
X453041Y141196D01*
X453090Y141016D01*
X453134Y140835D01*
X453149Y140801D01*
X453159Y140765D01*
X453240Y140597D01*
X453295Y140474D01*
X453295Y125794D01*
X453299Y125744D01*
X453297Y125694D01*
X453319Y125522D01*
X453335Y125349D01*
X453348Y125301D01*
X453354Y125251D01*
X453407Y125086D01*
X453453Y124918D01*
X453475Y124873D01*
X453490Y124826D01*
X453571Y124672D01*
X453646Y124516D01*
X453676Y124475D01*
X453699Y124431D01*
X453806Y124294D01*
X453908Y124154D01*
X453944Y124119D01*
X453975Y124080D01*
X454105Y123964D01*
X454230Y123844D01*
X454272Y123817D01*
X454310Y123783D01*
X454458Y123693D01*
X454602Y123597D01*
X454648Y123577D01*
X454691Y123551D01*
X454853Y123489D01*
X455013Y123420D01*
X455061Y123409D01*
X455108Y123391D01*
X455279Y123358D01*
X455448Y123319D01*
X455498Y123316D01*
X455547Y123307D01*
X455794Y123295D01*
X470477Y123295D01*
X470538Y123257D01*
X470573Y123244D01*
X470605Y123226D01*
X470781Y123164D01*
X470955Y123097D01*
X470991Y123090D01*
X471026Y123077D01*
X471211Y123048D01*
X471394Y123013D01*
X471444Y123010D01*
X471467Y123007D01*
X471471Y123007D01*
X471506Y123007D01*
X471641Y123001D01*
X471645Y123001D01*
X471781Y123013D01*
X471918Y123016D01*
X472003Y123033D01*
X472090Y123041D01*
X472222Y123077D01*
X472356Y123104D01*
X472436Y123136D01*
X472520Y123159D01*
X472644Y123218D01*
X472771Y123269D01*
X472845Y123315D01*
X472923Y123352D01*
X473034Y123433D01*
X473150Y123505D01*
X473214Y123563D01*
X473285Y123614D01*
X473380Y123713D01*
X473481Y123805D01*
X473534Y123874D01*
X473594Y123936D01*
X473670Y124050D01*
X473754Y124159D01*
X473794Y124236D01*
X473842Y124308D01*
X473896Y124434D01*
X473959Y124556D01*
X473984Y124639D01*
X474019Y124719D01*
X474050Y124852D01*
X474090Y124983D01*
X474100Y125069D01*
X474120Y125154D01*
X474127Y125290D01*
X474143Y125426D01*
X474138Y125513D01*
X474142Y125600D01*
X474124Y125735D01*
X474116Y125872D01*
X474096Y125957D01*
X474084Y126043D01*
X474043Y126173D01*
X474010Y126306D01*
X473975Y126385D01*
X473949Y126468D01*
X473885Y126589D01*
X473829Y126714D01*
X473780Y126786D01*
X473740Y126863D01*
X473655Y126971D01*
X473578Y127084D01*
X473486Y127185D01*
X473463Y127214D01*
X473446Y127230D01*
X473412Y127267D01*
X468425Y132254D01*
X464999Y140524D01*
X464999Y149476D01*
X468425Y157746D01*
X474754Y164075D01*
X483024Y167501D01*
X491976Y167501D01*
X500246Y164075D01*
X506575Y157746D01*
X507073Y156544D01*
X507076Y156538D01*
X507078Y156532D01*
X507180Y156340D01*
X507280Y156148D01*
X507284Y156143D01*
X507287Y156137D01*
X507421Y155967D01*
X507555Y155795D01*
X507559Y155791D01*
X507563Y155786D01*
X507726Y155642D01*
X507887Y155497D01*
X507893Y155494D01*
X507898Y155489D01*
X508083Y155377D01*
X508268Y155263D01*
X508274Y155261D01*
X508279Y155257D01*
X508482Y155179D01*
X508684Y155100D01*
X508690Y155099D01*
X508696Y155097D01*
X508911Y155056D01*
X509122Y155014D01*
X509129Y155014D01*
X509135Y155013D01*
X509382Y155001D01*
X525989Y155001D01*
X529665Y153478D01*
X532478Y150665D01*
X534001Y146989D01*
X534001Y143011D01*
X532478Y139335D01*
X529665Y136522D01*
X525989Y134999D01*
X509382Y134999D01*
X509376Y134999D01*
X509369Y134999D01*
X509156Y134979D01*
X508937Y134959D01*
X508931Y134958D01*
X508924Y134957D01*
X508719Y134899D01*
X508506Y134841D01*
X508501Y134838D01*
X508494Y134836D01*
X508301Y134742D01*
X508104Y134648D01*
X508098Y134644D01*
X508093Y134641D01*
X507919Y134514D01*
X507742Y134386D01*
X507737Y134381D01*
X507732Y134377D01*
X507581Y134219D01*
X507432Y134064D01*
X507429Y134058D01*
X507424Y134053D01*
X507306Y133873D01*
X507185Y133692D01*
X507183Y133686D01*
X507179Y133680D01*
X507073Y133456D01*
X506575Y132254D01*
X501588Y127267D01*
X501500Y127162D01*
X501406Y127064D01*
X501357Y126991D01*
X501302Y126924D01*
X501234Y126806D01*
X501158Y126692D01*
X501124Y126612D01*
X501081Y126536D01*
X501035Y126407D01*
X500981Y126281D01*
X500962Y126197D01*
X500933Y126115D01*
X500911Y125979D01*
X500880Y125846D01*
X500876Y125760D01*
X500862Y125674D01*
X500865Y125537D01*
X500858Y125400D01*
X500869Y125314D01*
X500871Y125227D01*
X500898Y125093D01*
X500916Y124957D01*
X500942Y124874D01*
X500959Y124789D01*
X501010Y124662D01*
X501051Y124532D01*
X501092Y124455D01*
X501124Y124374D01*
X501196Y124258D01*
X501260Y124137D01*
X501314Y124069D01*
X501360Y123995D01*
X501452Y123893D01*
X501537Y123786D01*
X501602Y123728D01*
X501660Y123664D01*
X501768Y123580D01*
X501871Y123489D01*
X501945Y123444D01*
X502014Y123391D01*
X502135Y123328D01*
X502252Y123257D01*
X502334Y123226D01*
X502411Y123186D01*
X502541Y123146D01*
X502669Y123097D01*
X502755Y123080D01*
X502838Y123055D01*
X502973Y123039D01*
X503108Y123013D01*
X503245Y123006D01*
X503281Y123002D01*
X503305Y123003D01*
X503355Y123001D01*
X532995Y123001D01*
X534833Y122239D01*
X544089Y112983D01*
X544232Y112863D01*
X544372Y112739D01*
X544404Y112720D01*
X544432Y112696D01*
X544594Y112604D01*
X544754Y112507D01*
X544788Y112494D01*
X544820Y112476D01*
X544997Y112414D01*
X545171Y112347D01*
X545207Y112340D01*
X545242Y112327D01*
X545426Y112298D01*
X545609Y112263D01*
X545660Y112260D01*
X545683Y112257D01*
X545720Y112258D01*
X545857Y112251D01*
X567286Y112251D01*
X568554Y110983D01*
X568697Y110863D01*
X568837Y110739D01*
X568868Y110720D01*
X568897Y110696D01*
X569059Y110604D01*
X569218Y110507D01*
X569253Y110494D01*
X569285Y110476D01*
X569461Y110414D01*
X569635Y110347D01*
X569671Y110340D01*
X569706Y110327D01*
X569891Y110298D01*
X570074Y110263D01*
X570124Y110260D01*
X570147Y110257D01*
X570184Y110258D01*
X570321Y110251D01*
X571279Y110251D01*
X571465Y110267D01*
X571651Y110279D01*
X571687Y110287D01*
X571724Y110291D01*
X571904Y110340D01*
X572085Y110384D01*
X572119Y110399D01*
X572155Y110409D01*
X572323Y110490D01*
X572493Y110566D01*
X572524Y110586D01*
X572557Y110602D01*
X572709Y110712D01*
X572863Y110817D01*
X572900Y110851D01*
X572919Y110864D01*
X572945Y110891D01*
X573046Y110983D01*
X573564Y111501D01*
X586436Y111501D01*
X587901Y110036D01*
X587901Y97464D01*
X587232Y96796D01*
X587200Y96757D01*
X587163Y96724D01*
X587057Y96586D01*
X586946Y96453D01*
X586921Y96409D01*
X586890Y96370D01*
X586811Y96215D01*
X586725Y96064D01*
X586708Y96017D01*
X586685Y95973D01*
X586634Y95807D01*
X586577Y95643D01*
X586569Y95594D01*
X586554Y95546D01*
X586534Y95374D01*
X586506Y95202D01*
X586507Y95152D01*
X586501Y95102D01*
X586512Y94929D01*
X586515Y94755D01*
X586525Y94706D01*
X586528Y94656D01*
X586569Y94487D01*
X586603Y94317D01*
X586622Y94271D01*
X586634Y94222D01*
X586704Y94063D01*
X586768Y93902D01*
X586795Y93860D01*
X586815Y93814D01*
X586913Y93670D01*
X587004Y93523D01*
X587038Y93486D01*
X587066Y93445D01*
X587232Y93261D01*
X587433Y93060D01*
X587768Y92481D01*
X587941Y91834D01*
X587941Y88874D01*
X580125Y88874D01*
X580075Y88870D01*
X580025Y88872D01*
X579854Y88850D01*
X579680Y88834D01*
X579632Y88821D01*
X579582Y88815D01*
X579417Y88762D01*
X579250Y88716D01*
X579204Y88694D01*
X579157Y88679D01*
X579004Y88598D01*
X578847Y88523D01*
X578806Y88493D01*
X578762Y88470D01*
X578626Y88363D01*
X578485Y88261D01*
X578450Y88225D01*
X578411Y88194D01*
X578296Y88064D01*
X578267Y88034D01*
X578235Y88011D01*
X578200Y87974D01*
X578161Y87943D01*
X578045Y87813D01*
X577925Y87688D01*
X577898Y87647D01*
X577864Y87609D01*
X577774Y87461D01*
X577678Y87316D01*
X577658Y87270D01*
X577632Y87228D01*
X577570Y87066D01*
X577501Y86906D01*
X577490Y86858D01*
X577472Y86811D01*
X577439Y86640D01*
X577400Y86471D01*
X577397Y86421D01*
X577388Y86372D01*
X577376Y86125D01*
X577376Y78459D01*
X574266Y78459D01*
X573619Y78632D01*
X573040Y78967D01*
X572539Y79468D01*
X572501Y79500D01*
X572467Y79537D01*
X572329Y79643D01*
X572196Y79754D01*
X572153Y79779D01*
X572113Y79810D01*
X571959Y79889D01*
X571808Y79975D01*
X571761Y79992D01*
X571716Y80015D01*
X571550Y80066D01*
X571386Y80123D01*
X571337Y80131D01*
X571289Y80146D01*
X571117Y80166D01*
X570945Y80194D01*
X570895Y80193D01*
X570846Y80199D01*
X570673Y80188D01*
X570499Y80185D01*
X570450Y80175D01*
X570400Y80172D01*
X570231Y80131D01*
X570061Y80097D01*
X570014Y80078D01*
X569966Y80066D01*
X569807Y79996D01*
X569646Y79932D01*
X569603Y79905D01*
X569557Y79885D01*
X569414Y79787D01*
X569266Y79696D01*
X569229Y79662D01*
X569188Y79634D01*
X569004Y79468D01*
X567286Y77749D01*
X545714Y77749D01*
X544249Y79214D01*
X544249Y97643D01*
X544233Y97829D01*
X544221Y98015D01*
X544213Y98051D01*
X544209Y98088D01*
X544160Y98269D01*
X544116Y98449D01*
X544101Y98483D01*
X544091Y98519D01*
X544010Y98687D01*
X543934Y98858D01*
X543914Y98888D01*
X543898Y98922D01*
X543788Y99073D01*
X543683Y99227D01*
X543649Y99265D01*
X543636Y99284D01*
X543609Y99309D01*
X543517Y99411D01*
X530661Y112267D01*
X530517Y112387D01*
X530378Y112511D01*
X530346Y112530D01*
X530318Y112554D01*
X530155Y112646D01*
X529996Y112743D01*
X529962Y112756D01*
X529929Y112774D01*
X529753Y112836D01*
X529579Y112903D01*
X529543Y112910D01*
X529508Y112923D01*
X529324Y112952D01*
X529141Y112987D01*
X529090Y112990D01*
X529067Y112993D01*
X529030Y112992D01*
X528893Y112999D01*
X528250Y112999D01*
X528200Y112995D01*
X528150Y112997D01*
X527978Y112975D01*
X527805Y112959D01*
X527757Y112946D01*
X527707Y112940D01*
X527542Y112887D01*
X527374Y112841D01*
X527329Y112819D01*
X527282Y112804D01*
X527128Y112723D01*
X526972Y112648D01*
X526931Y112618D01*
X526887Y112595D01*
X526750Y112488D01*
X526610Y112386D01*
X526575Y112350D01*
X526536Y112319D01*
X526420Y112189D01*
X526300Y112064D01*
X526273Y112022D01*
X526239Y111984D01*
X526149Y111836D01*
X526053Y111692D01*
X526033Y111646D01*
X526007Y111603D01*
X525945Y111441D01*
X525876Y111281D01*
X525865Y111233D01*
X525847Y111186D01*
X525814Y111015D01*
X525775Y110846D01*
X525772Y110796D01*
X525763Y110747D01*
X525751Y110500D01*
X525751Y79214D01*
X524286Y77749D01*
X502714Y77749D01*
X500996Y79468D01*
X500957Y79500D01*
X500923Y79537D01*
X500786Y79643D01*
X500653Y79754D01*
X500609Y79779D01*
X500569Y79810D01*
X500415Y79890D01*
X500264Y79975D01*
X500217Y79992D01*
X500173Y80015D01*
X500007Y80066D01*
X499843Y80123D01*
X499793Y80131D01*
X499746Y80146D01*
X499573Y80166D01*
X499402Y80194D01*
X499352Y80193D01*
X499302Y80199D01*
X499129Y80188D01*
X498955Y80185D01*
X498906Y80175D01*
X498856Y80172D01*
X498687Y80131D01*
X498517Y80097D01*
X498471Y80078D01*
X498422Y80066D01*
X498263Y79996D01*
X498102Y79932D01*
X498060Y79905D01*
X498014Y79885D01*
X497870Y79787D01*
X497723Y79696D01*
X497686Y79662D01*
X497644Y79634D01*
X497461Y79468D01*
X496960Y78967D01*
X496381Y78632D01*
X495734Y78459D01*
X492624Y78459D01*
X492624Y86125D01*
X492620Y86175D01*
X492622Y86225D01*
X492600Y86396D01*
X492584Y86570D01*
X492571Y86618D01*
X492565Y86668D01*
X492512Y86833D01*
X492466Y87000D01*
X492444Y87046D01*
X492429Y87093D01*
X492348Y87246D01*
X492273Y87403D01*
X492243Y87444D01*
X492220Y87488D01*
X492113Y87624D01*
X492011Y87765D01*
X491975Y87800D01*
X491944Y87839D01*
X491814Y87954D01*
X491784Y87983D01*
X491761Y88015D01*
X491724Y88050D01*
X491693Y88089D01*
X491563Y88205D01*
X491438Y88325D01*
X491397Y88352D01*
X491359Y88386D01*
X491211Y88476D01*
X491066Y88572D01*
X491020Y88592D01*
X490978Y88618D01*
X490816Y88680D01*
X490656Y88749D01*
X490608Y88760D01*
X490561Y88778D01*
X490390Y88811D01*
X490221Y88850D01*
X490171Y88853D01*
X490122Y88862D01*
X489875Y88874D01*
X482059Y88874D01*
X482059Y91834D01*
X482232Y92481D01*
X482567Y93060D01*
X482768Y93261D01*
X482800Y93300D01*
X482837Y93333D01*
X482943Y93471D01*
X483054Y93604D01*
X483079Y93647D01*
X483110Y93687D01*
X483189Y93842D01*
X483275Y93992D01*
X483292Y94039D01*
X483315Y94084D01*
X483366Y94250D01*
X483423Y94414D01*
X483431Y94463D01*
X483446Y94511D01*
X483466Y94683D01*
X483494Y94855D01*
X483493Y94905D01*
X483499Y94954D01*
X483488Y95128D01*
X483485Y95301D01*
X483475Y95350D01*
X483472Y95400D01*
X483431Y95569D01*
X483397Y95739D01*
X483378Y95786D01*
X483366Y95834D01*
X483296Y95993D01*
X483232Y96154D01*
X483205Y96197D01*
X483185Y96243D01*
X483087Y96387D01*
X482996Y96534D01*
X482962Y96571D01*
X482934Y96612D01*
X482768Y96796D01*
X482099Y97464D01*
X482099Y102500D01*
X482096Y102539D01*
X482097Y102571D01*
X482096Y102579D01*
X482097Y102600D01*
X482075Y102772D01*
X482059Y102945D01*
X482046Y102993D01*
X482040Y103043D01*
X481987Y103208D01*
X481941Y103376D01*
X481919Y103421D01*
X481904Y103468D01*
X481823Y103622D01*
X481748Y103778D01*
X481718Y103819D01*
X481695Y103863D01*
X481588Y104000D01*
X481486Y104140D01*
X481450Y104175D01*
X481419Y104214D01*
X481289Y104330D01*
X481164Y104450D01*
X481122Y104477D01*
X481084Y104511D01*
X480936Y104601D01*
X480792Y104697D01*
X480746Y104717D01*
X480703Y104743D01*
X480541Y104805D01*
X480381Y104874D01*
X480333Y104885D01*
X480286Y104903D01*
X480115Y104936D01*
X479946Y104975D01*
X479896Y104978D01*
X479847Y104987D01*
X479600Y104999D01*
X474276Y104999D01*
X474226Y104995D01*
X474176Y104997D01*
X474004Y104975D01*
X473831Y104959D01*
X473783Y104946D01*
X473733Y104940D01*
X473568Y104887D01*
X473400Y104841D01*
X473355Y104819D01*
X473308Y104804D01*
X473154Y104723D01*
X472998Y104648D01*
X472957Y104618D01*
X472913Y104595D01*
X472776Y104488D01*
X472636Y104386D01*
X472601Y104350D01*
X472562Y104319D01*
X472446Y104189D01*
X472326Y104064D01*
X472299Y104022D01*
X472265Y103984D01*
X472175Y103836D01*
X472079Y103692D01*
X472059Y103646D01*
X472033Y103603D01*
X471971Y103441D01*
X471902Y103281D01*
X471891Y103233D01*
X471873Y103186D01*
X471840Y103015D01*
X471801Y102846D01*
X471798Y102796D01*
X471789Y102747D01*
X471777Y102500D01*
X471777Y97607D01*
X471795Y97405D01*
X471810Y97202D01*
X471815Y97176D01*
X471817Y97162D01*
X471817Y96499D01*
X462926Y96499D01*
X462876Y96495D01*
X462827Y96497D01*
X462655Y96475D01*
X462481Y96459D01*
X462433Y96446D01*
X462384Y96440D01*
X462218Y96387D01*
X462051Y96341D01*
X462006Y96319D01*
X461958Y96304D01*
X461805Y96223D01*
X461648Y96148D01*
X461607Y96118D01*
X461563Y96095D01*
X461427Y95988D01*
X461286Y95886D01*
X461251Y95850D01*
X461212Y95819D01*
X461097Y95689D01*
X460977Y95564D01*
X460949Y95522D01*
X460916Y95485D01*
X460826Y95336D01*
X460729Y95192D01*
X460710Y95146D01*
X460684Y95103D01*
X460621Y94941D01*
X460552Y94782D01*
X460541Y94733D01*
X460523Y94686D01*
X460490Y94515D01*
X460451Y94346D01*
X460449Y94297D01*
X460439Y94247D01*
X460427Y94000D01*
X460432Y93950D01*
X460429Y93900D01*
X460451Y93728D01*
X460467Y93555D01*
X460480Y93507D01*
X460487Y93457D01*
X460539Y93292D01*
X460585Y93124D01*
X460607Y93079D01*
X460622Y93031D01*
X460703Y92878D01*
X460779Y92721D01*
X460808Y92681D01*
X460832Y92637D01*
X460939Y92500D01*
X461041Y92360D01*
X461077Y92325D01*
X461108Y92286D01*
X461238Y92170D01*
X461363Y92050D01*
X461404Y92022D01*
X461442Y91989D01*
X461590Y91899D01*
X461735Y91803D01*
X461781Y91783D01*
X461823Y91757D01*
X461986Y91695D01*
X462145Y91626D01*
X462193Y91615D01*
X462240Y91597D01*
X462411Y91564D01*
X462580Y91525D01*
X462630Y91522D01*
X462679Y91513D01*
X462926Y91501D01*
X471817Y91501D01*
X471817Y90786D01*
X471789Y90640D01*
X471788Y90613D01*
X471785Y90600D01*
X471785Y90570D01*
X471777Y90393D01*
X471777Y81607D01*
X471795Y81405D01*
X471810Y81202D01*
X471815Y81176D01*
X471817Y81162D01*
X471817Y80499D01*
X462926Y80499D01*
X453033Y80499D01*
X453020Y80511D01*
X452872Y80601D01*
X452728Y80697D01*
X452682Y80717D01*
X452639Y80743D01*
X452477Y80805D01*
X452317Y80874D01*
X452269Y80885D01*
X452222Y80903D01*
X452051Y80936D01*
X451882Y80975D01*
X451832Y80978D01*
X451783Y80987D01*
X451536Y80999D01*
X449005Y80999D01*
X447167Y81761D01*
X445761Y83167D01*
X444999Y85005D01*
X444999Y86500D01*
X444995Y86550D01*
X444997Y86600D01*
X444975Y86772D01*
X444959Y86945D01*
X444946Y86993D01*
X444940Y87043D01*
X444887Y87208D01*
X444841Y87376D01*
X444819Y87421D01*
X444804Y87468D01*
X444723Y87622D01*
X444648Y87778D01*
X444618Y87819D01*
X444595Y87863D01*
X444488Y88000D01*
X444386Y88140D01*
X444350Y88175D01*
X444319Y88214D01*
X444189Y88330D01*
X444064Y88450D01*
X444022Y88477D01*
X443984Y88511D01*
X443836Y88601D01*
X443692Y88697D01*
X443646Y88717D01*
X443603Y88743D01*
X443441Y88805D01*
X443281Y88874D01*
X443233Y88885D01*
X443186Y88903D01*
X443015Y88936D01*
X442846Y88975D01*
X442796Y88978D01*
X442747Y88987D01*
X442500Y88999D01*
X388424Y88999D01*
X388374Y88995D01*
X388324Y88997D01*
X388152Y88975D01*
X387979Y88959D01*
X387931Y88946D01*
X387881Y88940D01*
X387716Y88887D01*
X387548Y88841D01*
X387503Y88819D01*
X387456Y88804D01*
X387302Y88723D01*
X387146Y88648D01*
X387105Y88618D01*
X387061Y88595D01*
X386924Y88488D01*
X386784Y88386D01*
X386749Y88350D01*
X386710Y88319D01*
X386594Y88189D01*
X386474Y88064D01*
X386447Y88022D01*
X386413Y87984D01*
X386323Y87836D01*
X386227Y87692D01*
X386207Y87646D01*
X386181Y87603D01*
X386119Y87441D01*
X386050Y87281D01*
X386039Y87233D01*
X386021Y87186D01*
X385988Y87015D01*
X385949Y86846D01*
X385946Y86796D01*
X385937Y86747D01*
X385925Y86500D01*
X385925Y58424D01*
X385929Y58374D01*
X385927Y58324D01*
X385949Y58152D01*
X385965Y57979D01*
X385978Y57931D01*
X385984Y57881D01*
X386037Y57716D01*
X386083Y57548D01*
X386105Y57503D01*
X386120Y57456D01*
X386201Y57302D01*
X386276Y57146D01*
X386306Y57105D01*
X386329Y57061D01*
X386436Y56924D01*
X386538Y56784D01*
X386574Y56749D01*
X386605Y56710D01*
X386735Y56594D01*
X386860Y56474D01*
X386902Y56447D01*
X386940Y56413D01*
X387088Y56323D01*
X387232Y56227D01*
X387278Y56207D01*
X387321Y56181D01*
X387483Y56119D01*
X387643Y56050D01*
X387691Y56039D01*
X387738Y56021D01*
X387909Y55988D01*
X388078Y55949D01*
X388128Y55946D01*
X388177Y55937D01*
X388424Y55925D01*
X451576Y55925D01*
X451626Y55929D01*
X451676Y55927D01*
X451848Y55949D01*
X452021Y55965D01*
X452069Y55978D01*
X452119Y55984D01*
X452284Y56037D01*
X452452Y56083D01*
X452497Y56105D01*
X452544Y56120D01*
X452698Y56201D01*
X452854Y56276D01*
X452895Y56306D01*
X452939Y56329D01*
X453076Y56436D01*
X453216Y56538D01*
X453251Y56574D01*
X453290Y56605D01*
X453406Y56735D01*
X453526Y56860D01*
X453553Y56902D01*
X453587Y56940D01*
X453677Y57088D01*
X453773Y57232D01*
X453793Y57278D01*
X453819Y57321D01*
X453881Y57483D01*
X453950Y57643D01*
X453961Y57691D01*
X453979Y57738D01*
X454012Y57909D01*
X454051Y58078D01*
X454054Y58128D01*
X454063Y58177D01*
X454075Y58424D01*
X454075Y74393D01*
X454057Y74597D01*
X454042Y74798D01*
X454037Y74824D01*
X454035Y74838D01*
X454035Y75501D01*
X462926Y75501D01*
X472819Y75501D01*
X472832Y75489D01*
X472980Y75399D01*
X473124Y75303D01*
X473170Y75283D01*
X473213Y75257D01*
X473375Y75195D01*
X473535Y75126D01*
X473583Y75115D01*
X473630Y75097D01*
X473801Y75064D01*
X473970Y75025D01*
X474020Y75022D01*
X474069Y75013D01*
X474316Y75001D01*
X480972Y75001D01*
X481109Y75013D01*
X481246Y75016D01*
X481331Y75033D01*
X481417Y75041D01*
X481550Y75077D01*
X481683Y75104D01*
X481764Y75136D01*
X481848Y75159D01*
X481972Y75218D01*
X482099Y75269D01*
X482172Y75315D01*
X482231Y75343D01*
X482248Y75287D01*
X482281Y75154D01*
X482316Y75075D01*
X482343Y74992D01*
X482407Y74871D01*
X482462Y74746D01*
X482511Y74674D01*
X482552Y74597D01*
X482636Y74489D01*
X482713Y74376D01*
X482805Y74275D01*
X482828Y74246D01*
X482846Y74230D01*
X482879Y74193D01*
X484839Y72233D01*
X484983Y72113D01*
X485122Y71989D01*
X485154Y71970D01*
X485182Y71946D01*
X485345Y71854D01*
X485504Y71757D01*
X485538Y71744D01*
X485571Y71726D01*
X485746Y71664D01*
X485921Y71597D01*
X485957Y71590D01*
X485992Y71577D01*
X486176Y71548D01*
X486359Y71513D01*
X486410Y71510D01*
X486433Y71507D01*
X486470Y71508D01*
X486607Y71501D01*
X571293Y71501D01*
X573682Y70511D01*
X580511Y63682D01*
X581501Y61293D01*
X581501Y29403D01*
X581514Y29261D01*
X581517Y29117D01*
X581533Y29039D01*
X581541Y28958D01*
X581579Y28820D01*
X581608Y28680D01*
X581649Y28564D01*
X581659Y28528D01*
X581671Y28503D01*
X581691Y28447D01*
X582501Y26492D01*
X582501Y23508D01*
X581512Y21121D01*
X581484Y21032D01*
X581447Y20946D01*
X581418Y20820D01*
X581379Y20695D01*
X581367Y20602D01*
X581346Y20511D01*
X581340Y20381D01*
X581323Y20252D01*
X581329Y20158D01*
X581324Y20065D01*
X581341Y19936D01*
X581348Y19806D01*
X581370Y19715D01*
X581382Y19622D01*
X581421Y19498D01*
X581451Y19371D01*
X581489Y19286D01*
X581517Y19197D01*
X581578Y19082D01*
X581630Y18962D01*
X581683Y18884D01*
X581726Y18802D01*
X581807Y18699D01*
X581880Y18591D01*
X581945Y18524D01*
X582002Y18451D01*
X582100Y18364D01*
X582191Y18271D01*
X582267Y18216D01*
X582337Y18154D01*
X582448Y18087D01*
X582554Y18011D01*
X582639Y17971D01*
X582718Y17922D01*
X582840Y17875D01*
X582958Y17820D01*
X583048Y17795D01*
X583135Y17762D01*
X583263Y17737D01*
X583389Y17703D01*
X583482Y17696D01*
X583574Y17678D01*
X583821Y17666D01*
X674772Y17666D01*
X674958Y17682D01*
X675144Y17694D01*
X675180Y17702D01*
X675217Y17706D01*
X675397Y17755D01*
X675578Y17799D01*
X675612Y17814D01*
X675648Y17824D01*
X675816Y17905D01*
X675986Y17981D01*
X676017Y18001D01*
X676050Y18017D01*
X676201Y18127D01*
X676356Y18232D01*
X676393Y18266D01*
X676412Y18279D01*
X676438Y18306D01*
X676539Y18398D01*
X686785Y28644D01*
X686817Y28682D01*
X686854Y28716D01*
X686961Y28853D01*
X687072Y28987D01*
X687096Y29030D01*
X687127Y29070D01*
X687207Y29224D01*
X687292Y29375D01*
X687309Y29422D01*
X687332Y29467D01*
X687383Y29633D01*
X687441Y29796D01*
X687448Y29846D01*
X687463Y29894D01*
X687484Y30066D01*
X687511Y30237D01*
X687510Y30287D01*
X687516Y30337D01*
X687506Y30511D01*
X687502Y30684D01*
X687492Y30733D01*
X687489Y30783D01*
X687448Y30952D01*
X687414Y31122D01*
X687396Y31168D01*
X687384Y31217D01*
X687313Y31376D01*
X687249Y31537D01*
X687223Y31580D01*
X687202Y31625D01*
X687105Y31769D01*
X687013Y31916D01*
X686980Y31953D01*
X686951Y31995D01*
X686785Y32178D01*
X686499Y32464D01*
X686499Y45536D01*
X687964Y47001D01*
X702036Y47001D01*
X702804Y46233D01*
X702947Y46113D01*
X703087Y45989D01*
X703118Y45970D01*
X703147Y45946D01*
X703309Y45854D01*
X703468Y45757D01*
X703503Y45744D01*
X703535Y45726D01*
X703711Y45664D01*
X703885Y45597D01*
X703922Y45590D01*
X703956Y45578D01*
X704140Y45548D01*
X704324Y45513D01*
X704374Y45510D01*
X704397Y45507D01*
X704434Y45508D01*
X704571Y45501D01*
X735272Y45501D01*
X735458Y45517D01*
X735644Y45529D01*
X735680Y45537D01*
X735717Y45541D01*
X735897Y45590D01*
X736078Y45634D01*
X736112Y45649D01*
X736148Y45659D01*
X736316Y45740D01*
X736486Y45816D01*
X736517Y45836D01*
X736550Y45852D01*
X736701Y45962D01*
X736856Y46067D01*
X736893Y46101D01*
X736912Y46114D01*
X736938Y46141D01*
X737039Y46233D01*
X737290Y46483D01*
X737382Y46593D01*
X737480Y46697D01*
X737524Y46764D01*
X737576Y46826D01*
X737647Y46950D01*
X737726Y47070D01*
X737778Y47182D01*
X737797Y47214D01*
X737806Y47240D01*
X737831Y47294D01*
X738641Y49249D01*
X740751Y51359D01*
X743508Y52501D01*
X746492Y52501D01*
X749249Y51359D01*
X751359Y49249D01*
X752501Y46492D01*
X752501Y43508D01*
X751359Y40751D01*
X749249Y38641D01*
X747294Y37831D01*
X747167Y37765D01*
X747036Y37707D01*
X746969Y37662D01*
X746898Y37624D01*
X746785Y37536D01*
X746667Y37456D01*
X746575Y37373D01*
X746546Y37350D01*
X746528Y37330D01*
X746483Y37290D01*
X744863Y35669D01*
X744862Y35669D01*
X742682Y33489D01*
X740293Y32499D01*
X704571Y32499D01*
X704385Y32483D01*
X704199Y32471D01*
X704163Y32463D01*
X704126Y32459D01*
X703946Y32410D01*
X703765Y32366D01*
X703731Y32351D01*
X703695Y32341D01*
X703527Y32260D01*
X703357Y32184D01*
X703326Y32164D01*
X703293Y32148D01*
X703141Y32038D01*
X702987Y31933D01*
X702950Y31899D01*
X702931Y31886D01*
X702924Y31879D01*
X702923Y31878D01*
X702903Y31857D01*
X702804Y31767D01*
X702233Y31196D01*
X702113Y31053D01*
X701989Y30913D01*
X701970Y30882D01*
X701946Y30853D01*
X701854Y30691D01*
X701757Y30532D01*
X701744Y30497D01*
X701726Y30465D01*
X701664Y30289D01*
X701597Y30115D01*
X701590Y30078D01*
X701577Y30044D01*
X701548Y29860D01*
X701513Y29676D01*
X701510Y29626D01*
X701507Y29602D01*
X701508Y29566D01*
X701501Y29429D01*
X701501Y26372D01*
X700511Y23983D01*
X683523Y6994D01*
X683519Y6992D01*
X683373Y6886D01*
X683343Y6855D01*
X683309Y6828D01*
X683188Y6694D01*
X683063Y6564D01*
X683040Y6528D01*
X683011Y6495D01*
X682916Y6342D01*
X682816Y6192D01*
X682799Y6152D01*
X682776Y6115D01*
X682711Y5947D01*
X682639Y5781D01*
X682629Y5740D01*
X682614Y5699D01*
X682579Y5522D01*
X682538Y5346D01*
X682536Y5303D01*
X682528Y5261D01*
X682525Y5081D01*
X682516Y4900D01*
X682521Y4857D01*
X682521Y4814D01*
X682550Y4636D01*
X682574Y4457D01*
X682587Y4416D01*
X682594Y4373D01*
X682654Y4203D01*
X682709Y4032D01*
X682729Y3994D01*
X682744Y3953D01*
X682834Y3796D01*
X682918Y3637D01*
X682945Y3603D01*
X682967Y3565D01*
X683083Y3427D01*
X683194Y3286D01*
X683227Y3257D01*
X683255Y3224D01*
X683394Y3109D01*
X683529Y2989D01*
X683566Y2967D01*
X683599Y2939D01*
X683757Y2851D01*
X683910Y2757D01*
X683951Y2742D01*
X683988Y2721D01*
X684159Y2662D01*
X684327Y2597D01*
X684370Y2589D01*
X684410Y2575D01*
X684589Y2547D01*
X684766Y2513D01*
X684826Y2510D01*
X684852Y2506D01*
X684889Y2507D01*
X685013Y2501D01*
X770000Y2501D01*
X770050Y2505D01*
G37*
G36*
X269500Y86505D02*
X269500Y86505D01*
X269550Y86503D01*
X269722Y86525D01*
X269895Y86541D01*
X269943Y86554D01*
X269993Y86560D01*
X270158Y86613D01*
X270326Y86659D01*
X270371Y86681D01*
X270418Y86696D01*
X270571Y86777D01*
X270728Y86852D01*
X270769Y86882D01*
X270813Y86905D01*
X270950Y87012D01*
X271090Y87114D01*
X271125Y87150D01*
X271164Y87181D01*
X271280Y87311D01*
X271400Y87436D01*
X271427Y87478D01*
X271461Y87516D01*
X271551Y87664D01*
X271647Y87808D01*
X271667Y87854D01*
X271693Y87897D01*
X271755Y88059D01*
X271824Y88219D01*
X271835Y88267D01*
X271853Y88314D01*
X271886Y88485D01*
X271925Y88654D01*
X271928Y88704D01*
X271937Y88753D01*
X271949Y89000D01*
X271949Y89436D01*
X273414Y90901D01*
X284122Y90901D01*
X284259Y90913D01*
X284395Y90916D01*
X284480Y90933D01*
X284567Y90941D01*
X284699Y90977D01*
X284833Y91004D01*
X284914Y91036D01*
X284998Y91059D01*
X285121Y91118D01*
X285248Y91169D01*
X285322Y91215D01*
X285400Y91252D01*
X285511Y91333D01*
X285627Y91405D01*
X285692Y91463D01*
X285762Y91514D01*
X285857Y91613D01*
X285959Y91705D01*
X286012Y91774D01*
X286072Y91836D01*
X286148Y91950D01*
X286231Y92059D01*
X286271Y92136D01*
X286319Y92208D01*
X286373Y92334D01*
X286436Y92456D01*
X286462Y92539D01*
X286496Y92619D01*
X286527Y92752D01*
X286567Y92883D01*
X286578Y92969D01*
X286597Y93054D01*
X286604Y93190D01*
X286620Y93326D01*
X286615Y93413D01*
X286619Y93500D01*
X286602Y93635D01*
X286594Y93772D01*
X286573Y93857D01*
X286562Y93943D01*
X286520Y94073D01*
X286488Y94206D01*
X286453Y94285D01*
X286426Y94368D01*
X286362Y94489D01*
X286307Y94614D01*
X286258Y94686D01*
X286217Y94763D01*
X286132Y94871D01*
X286055Y94984D01*
X285964Y95085D01*
X285941Y95114D01*
X285923Y95130D01*
X285889Y95167D01*
X282689Y98367D01*
X282546Y98487D01*
X282407Y98611D01*
X282375Y98630D01*
X282346Y98654D01*
X282184Y98746D01*
X282025Y98843D01*
X281990Y98856D01*
X281958Y98874D01*
X281782Y98936D01*
X281608Y99003D01*
X281572Y99010D01*
X281537Y99023D01*
X281353Y99052D01*
X281169Y99087D01*
X281119Y99090D01*
X281096Y99093D01*
X281059Y99092D01*
X280922Y99099D01*
X273414Y99099D01*
X271949Y100564D01*
X271949Y117822D01*
X271933Y118008D01*
X271921Y118194D01*
X271913Y118230D01*
X271909Y118267D01*
X271860Y118447D01*
X271816Y118628D01*
X271801Y118662D01*
X271791Y118698D01*
X271710Y118867D01*
X271634Y119036D01*
X271614Y119067D01*
X271598Y119100D01*
X271488Y119252D01*
X271383Y119406D01*
X271350Y119443D01*
X271336Y119462D01*
X271309Y119488D01*
X271217Y119589D01*
X267892Y122914D01*
X267854Y122946D01*
X267820Y122984D01*
X267683Y123089D01*
X267549Y123201D01*
X267506Y123225D01*
X267466Y123256D01*
X267312Y123336D01*
X267161Y123421D01*
X267114Y123438D01*
X267069Y123461D01*
X266904Y123512D01*
X266740Y123570D01*
X266690Y123578D01*
X266642Y123592D01*
X266470Y123613D01*
X266299Y123640D01*
X266249Y123639D01*
X266199Y123645D01*
X266025Y123635D01*
X265852Y123631D01*
X265803Y123622D01*
X265753Y123619D01*
X265584Y123577D01*
X265414Y123543D01*
X265367Y123525D01*
X265319Y123513D01*
X265160Y123442D01*
X264999Y123378D01*
X264956Y123352D01*
X264911Y123332D01*
X264767Y123234D01*
X264620Y123142D01*
X264583Y123109D01*
X264541Y123080D01*
X264358Y122914D01*
X258887Y117444D01*
X258795Y117334D01*
X258697Y117230D01*
X258653Y117163D01*
X258601Y117101D01*
X258530Y116977D01*
X258452Y116857D01*
X258399Y116745D01*
X258380Y116713D01*
X258371Y116688D01*
X258346Y116633D01*
X257200Y113867D01*
X254353Y111020D01*
X250633Y109479D01*
X231367Y109479D01*
X227647Y111020D01*
X224800Y113867D01*
X223259Y117587D01*
X223259Y121613D01*
X224800Y125333D01*
X227647Y128180D01*
X231367Y129721D01*
X250638Y129721D01*
X250826Y129663D01*
X251033Y129598D01*
X251039Y129598D01*
X251045Y129596D01*
X251259Y129570D01*
X251476Y129543D01*
X251483Y129543D01*
X251489Y129543D01*
X251705Y129556D01*
X251922Y129567D01*
X251928Y129569D01*
X251935Y129569D01*
X252146Y129621D01*
X252356Y129671D01*
X252363Y129674D01*
X252369Y129675D01*
X252566Y129763D01*
X252766Y129850D01*
X252771Y129854D01*
X252777Y129856D01*
X252958Y129979D01*
X253136Y130099D01*
X253141Y130104D01*
X253147Y130107D01*
X253330Y130274D01*
X254215Y131159D01*
X254331Y131297D01*
X254451Y131431D01*
X254474Y131468D01*
X254502Y131501D01*
X254590Y131658D01*
X254685Y131811D01*
X254701Y131852D01*
X254722Y131890D01*
X254782Y132060D01*
X254848Y132227D01*
X254856Y132270D01*
X254870Y132311D01*
X254899Y132489D01*
X254934Y132666D01*
X254934Y132709D01*
X254941Y132752D01*
X254938Y132932D01*
X254940Y133112D01*
X254933Y133155D01*
X254932Y133199D01*
X254897Y133375D01*
X254867Y133553D01*
X254853Y133594D01*
X254844Y133637D01*
X254777Y133804D01*
X254717Y133974D01*
X254695Y134011D01*
X254679Y134052D01*
X254584Y134205D01*
X254494Y134361D01*
X254466Y134394D01*
X254443Y134431D01*
X254322Y134565D01*
X254206Y134702D01*
X254172Y134730D01*
X254143Y134762D01*
X254000Y134872D01*
X253862Y134987D01*
X253824Y135008D01*
X253789Y135035D01*
X253629Y135117D01*
X253472Y135206D01*
X253431Y135220D01*
X253392Y135240D01*
X253221Y135293D01*
X253050Y135351D01*
X253007Y135358D01*
X252965Y135371D01*
X252787Y135392D01*
X252609Y135420D01*
X252565Y135419D01*
X252522Y135424D01*
X252342Y135413D01*
X252162Y135409D01*
X252119Y135400D01*
X252076Y135397D01*
X251901Y135355D01*
X251725Y135318D01*
X251668Y135298D01*
X251642Y135292D01*
X251608Y135276D01*
X251491Y135235D01*
X250633Y134879D01*
X231367Y134879D01*
X227647Y136420D01*
X224800Y139267D01*
X223259Y142987D01*
X223259Y147013D01*
X224800Y150733D01*
X227647Y153580D01*
X231367Y155121D01*
X250633Y155121D01*
X254353Y153580D01*
X257200Y150733D01*
X257441Y150151D01*
X257524Y149991D01*
X257602Y149829D01*
X257628Y149794D01*
X257648Y149755D01*
X257759Y149613D01*
X257864Y149467D01*
X257896Y149437D01*
X257922Y149403D01*
X258057Y149282D01*
X258186Y149158D01*
X258223Y149133D01*
X258255Y149104D01*
X258408Y149010D01*
X258558Y148910D01*
X258599Y148893D01*
X258635Y148870D01*
X258803Y148805D01*
X258969Y148733D01*
X259011Y148724D01*
X259052Y148708D01*
X259228Y148673D01*
X259404Y148632D01*
X259447Y148630D01*
X259490Y148622D01*
X259670Y148619D01*
X259850Y148610D01*
X259893Y148616D01*
X259936Y148615D01*
X260114Y148644D01*
X260293Y148668D01*
X260334Y148681D01*
X260377Y148688D01*
X260547Y148749D01*
X260718Y148803D01*
X260757Y148824D01*
X260798Y148838D01*
X260954Y148928D01*
X261113Y149012D01*
X261147Y149039D01*
X261185Y149061D01*
X261323Y149177D01*
X261464Y149289D01*
X261493Y149321D01*
X261526Y149349D01*
X261641Y149488D01*
X261761Y149623D01*
X261783Y149660D01*
X261811Y149694D01*
X261899Y149850D01*
X261993Y150004D01*
X262008Y150045D01*
X262030Y150083D01*
X262089Y150253D01*
X262153Y150421D01*
X262161Y150464D01*
X262176Y150505D01*
X262203Y150683D01*
X262237Y150860D01*
X262240Y150920D01*
X262244Y150947D01*
X262243Y150984D01*
X262249Y151107D01*
X262249Y164293D01*
X262233Y164472D01*
X262223Y164652D01*
X262213Y164694D01*
X262209Y164738D01*
X262162Y164911D01*
X262120Y165086D01*
X262102Y165126D01*
X262091Y165168D01*
X262013Y165331D01*
X261941Y165496D01*
X261916Y165532D01*
X261898Y165571D01*
X261792Y165717D01*
X261692Y165866D01*
X261661Y165898D01*
X261636Y165933D01*
X261506Y166058D01*
X261380Y166187D01*
X261345Y166212D01*
X261314Y166242D01*
X261164Y166342D01*
X261017Y166447D01*
X260978Y166466D01*
X260942Y166490D01*
X260776Y166561D01*
X260613Y166638D01*
X260571Y166649D01*
X260531Y166667D01*
X260356Y166707D01*
X260182Y166754D01*
X260139Y166758D01*
X260096Y166768D01*
X259917Y166777D01*
X259737Y166792D01*
X259694Y166788D01*
X259650Y166790D01*
X259472Y166767D01*
X259292Y166750D01*
X259250Y166738D01*
X259207Y166732D01*
X259036Y166678D01*
X258862Y166629D01*
X258823Y166610D01*
X258782Y166597D01*
X258623Y166512D01*
X258460Y166434D01*
X258425Y166408D01*
X258387Y166388D01*
X258245Y166276D01*
X258100Y166170D01*
X258070Y166138D01*
X258036Y166111D01*
X257916Y165976D01*
X257792Y165846D01*
X257768Y165810D01*
X257739Y165777D01*
X257646Y165623D01*
X257547Y165473D01*
X257521Y165418D01*
X257507Y165396D01*
X257494Y165361D01*
X257441Y165249D01*
X257200Y164667D01*
X254353Y161820D01*
X250633Y160279D01*
X231367Y160279D01*
X227647Y161820D01*
X224800Y164667D01*
X223259Y168387D01*
X223259Y172413D01*
X224800Y176133D01*
X227647Y178980D01*
X231367Y180521D01*
X250633Y180521D01*
X254353Y178980D01*
X257200Y176133D01*
X257441Y175551D01*
X257524Y175391D01*
X257602Y175229D01*
X257628Y175194D01*
X257648Y175155D01*
X257759Y175013D01*
X257864Y174867D01*
X257896Y174837D01*
X257922Y174803D01*
X258057Y174682D01*
X258186Y174558D01*
X258223Y174533D01*
X258255Y174504D01*
X258408Y174410D01*
X258558Y174310D01*
X258599Y174293D01*
X258635Y174270D01*
X258803Y174205D01*
X258969Y174133D01*
X259011Y174124D01*
X259052Y174108D01*
X259228Y174073D01*
X259404Y174032D01*
X259447Y174030D01*
X259490Y174022D01*
X259670Y174019D01*
X259850Y174010D01*
X259893Y174016D01*
X259936Y174015D01*
X260114Y174044D01*
X260293Y174068D01*
X260334Y174081D01*
X260377Y174088D01*
X260547Y174149D01*
X260718Y174203D01*
X260757Y174224D01*
X260798Y174238D01*
X260954Y174328D01*
X261113Y174412D01*
X261147Y174439D01*
X261185Y174461D01*
X261323Y174577D01*
X261464Y174689D01*
X261493Y174721D01*
X261526Y174749D01*
X261641Y174888D01*
X261761Y175023D01*
X261783Y175060D01*
X261811Y175094D01*
X261899Y175250D01*
X261993Y175404D01*
X262008Y175445D01*
X262030Y175483D01*
X262089Y175653D01*
X262153Y175821D01*
X262161Y175864D01*
X262176Y175905D01*
X262203Y176083D01*
X262237Y176260D01*
X262240Y176320D01*
X262244Y176347D01*
X262243Y176384D01*
X262249Y176507D01*
X262249Y193960D01*
X262245Y194010D01*
X262247Y194060D01*
X262225Y194232D01*
X262209Y194405D01*
X262196Y194453D01*
X262190Y194503D01*
X262137Y194668D01*
X262091Y194836D01*
X262069Y194881D01*
X262054Y194928D01*
X261973Y195082D01*
X261898Y195238D01*
X261868Y195279D01*
X261845Y195323D01*
X261737Y195460D01*
X261636Y195600D01*
X261600Y195635D01*
X261569Y195674D01*
X261439Y195790D01*
X261314Y195910D01*
X261272Y195937D01*
X261234Y195971D01*
X261086Y196061D01*
X260942Y196157D01*
X260896Y196177D01*
X260853Y196203D01*
X260690Y196265D01*
X260531Y196334D01*
X260483Y196345D01*
X260436Y196363D01*
X260265Y196396D01*
X260096Y196435D01*
X260046Y196438D01*
X259997Y196447D01*
X259750Y196459D01*
X258749Y196459D01*
X258749Y207000D01*
X258749Y217541D01*
X259750Y217541D01*
X259800Y217545D01*
X259850Y217543D01*
X260022Y217565D01*
X260195Y217581D01*
X260243Y217594D01*
X260293Y217600D01*
X260458Y217653D01*
X260626Y217699D01*
X260671Y217721D01*
X260718Y217736D01*
X260872Y217817D01*
X261028Y217892D01*
X261069Y217922D01*
X261113Y217945D01*
X261250Y218052D01*
X261390Y218154D01*
X261425Y218190D01*
X261464Y218221D01*
X261580Y218351D01*
X261700Y218476D01*
X261727Y218518D01*
X261761Y218556D01*
X261851Y218704D01*
X261947Y218848D01*
X261967Y218894D01*
X261993Y218937D01*
X262055Y219099D01*
X262124Y219259D01*
X262135Y219307D01*
X262153Y219354D01*
X262186Y219525D01*
X262225Y219694D01*
X262228Y219744D01*
X262237Y219793D01*
X262249Y220040D01*
X262249Y226293D01*
X263239Y228682D01*
X300387Y265831D01*
X300388Y265831D01*
X301624Y267068D01*
X301712Y267173D01*
X301807Y267271D01*
X301855Y267344D01*
X301911Y267411D01*
X301978Y267530D01*
X302054Y267643D01*
X302089Y267723D01*
X302132Y267799D01*
X302177Y267928D01*
X302231Y268054D01*
X302251Y268138D01*
X302280Y268220D01*
X302301Y268355D01*
X302332Y268489D01*
X302337Y268575D01*
X302350Y268661D01*
X302348Y268798D01*
X302354Y268935D01*
X302343Y269021D01*
X302341Y269108D01*
X302314Y269242D01*
X302297Y269378D01*
X302270Y269461D01*
X302253Y269546D01*
X302203Y269673D01*
X302161Y269803D01*
X302120Y269880D01*
X302088Y269961D01*
X302016Y270077D01*
X301952Y270198D01*
X301898Y270266D01*
X301852Y270340D01*
X301760Y270442D01*
X301676Y270549D01*
X301611Y270607D01*
X301552Y270671D01*
X301444Y270755D01*
X301342Y270846D01*
X301267Y270891D01*
X301198Y270944D01*
X301077Y271007D01*
X300960Y271078D01*
X300879Y271109D01*
X300802Y271149D01*
X300671Y271189D01*
X300543Y271238D01*
X300458Y271255D01*
X300375Y271280D01*
X300239Y271296D01*
X300104Y271322D01*
X299968Y271329D01*
X299931Y271333D01*
X299908Y271332D01*
X299857Y271334D01*
X254802Y271334D01*
X254622Y271318D01*
X254442Y271308D01*
X254400Y271298D01*
X254357Y271294D01*
X254183Y271247D01*
X254008Y271205D01*
X253968Y271187D01*
X253926Y271176D01*
X253763Y271098D01*
X253599Y271026D01*
X253563Y271001D01*
X253523Y270983D01*
X253377Y270877D01*
X253228Y270777D01*
X253197Y270746D01*
X253161Y270721D01*
X253037Y270591D01*
X252907Y270465D01*
X252882Y270430D01*
X252852Y270399D01*
X252752Y270249D01*
X252647Y270102D01*
X252629Y270063D01*
X252605Y270027D01*
X252533Y269861D01*
X252456Y269698D01*
X252445Y269656D01*
X252428Y269616D01*
X252387Y269442D01*
X252340Y269267D01*
X252336Y269224D01*
X252326Y269181D01*
X252318Y269002D01*
X252302Y268822D01*
X252306Y268779D01*
X252304Y268735D01*
X252328Y268557D01*
X252345Y268377D01*
X252356Y268335D01*
X252362Y268292D01*
X252417Y268121D01*
X252465Y267947D01*
X252484Y267908D01*
X252498Y267867D01*
X252582Y267707D01*
X252661Y267546D01*
X252686Y267511D01*
X252707Y267472D01*
X252818Y267330D01*
X252924Y267185D01*
X252956Y267155D01*
X252983Y267121D01*
X253118Y267001D01*
X253248Y266877D01*
X253284Y266853D01*
X253317Y266824D01*
X253471Y266731D01*
X253622Y266632D01*
X253676Y266606D01*
X253699Y266592D01*
X253734Y266579D01*
X253845Y266526D01*
X254249Y266359D01*
X256359Y264249D01*
X257501Y261492D01*
X257501Y258508D01*
X256359Y255751D01*
X254249Y253641D01*
X252294Y252831D01*
X252167Y252765D01*
X252036Y252707D01*
X251969Y252662D01*
X251898Y252624D01*
X251785Y252536D01*
X251667Y252456D01*
X251575Y252373D01*
X251546Y252350D01*
X251528Y252330D01*
X251483Y252290D01*
X250983Y251789D01*
X250863Y251646D01*
X250739Y251507D01*
X250720Y251475D01*
X250696Y251446D01*
X250604Y251285D01*
X250507Y251125D01*
X250494Y251090D01*
X250476Y251058D01*
X250414Y250882D01*
X250347Y250708D01*
X250340Y250672D01*
X250327Y250637D01*
X250298Y250452D01*
X250263Y250269D01*
X250260Y250219D01*
X250257Y250196D01*
X250258Y250159D01*
X250251Y250022D01*
X250251Y220040D01*
X250255Y219990D01*
X250253Y219940D01*
X250275Y219768D01*
X250291Y219595D01*
X250304Y219547D01*
X250310Y219497D01*
X250363Y219332D01*
X250409Y219164D01*
X250431Y219119D01*
X250446Y219072D01*
X250527Y218918D01*
X250602Y218762D01*
X250632Y218721D01*
X250655Y218677D01*
X250762Y218540D01*
X250864Y218400D01*
X250900Y218365D01*
X250931Y218326D01*
X251061Y218210D01*
X251186Y218090D01*
X251228Y218063D01*
X251266Y218029D01*
X251414Y217939D01*
X251558Y217843D01*
X251604Y217823D01*
X251647Y217797D01*
X251809Y217735D01*
X251969Y217666D01*
X252017Y217655D01*
X252064Y217637D01*
X252235Y217604D01*
X252404Y217565D01*
X252454Y217562D01*
X252503Y217553D01*
X252750Y217541D01*
X253751Y217541D01*
X253751Y207000D01*
X253751Y196459D01*
X251916Y196459D01*
X251195Y196652D01*
X251135Y196683D01*
X251084Y196699D01*
X251035Y196722D01*
X250870Y196765D01*
X250708Y196815D01*
X250655Y196821D01*
X250603Y196834D01*
X250433Y196847D01*
X250264Y196868D01*
X250211Y196864D01*
X250157Y196868D01*
X249988Y196851D01*
X249818Y196841D01*
X249766Y196828D01*
X249713Y196823D01*
X249550Y196775D01*
X249384Y196735D01*
X249335Y196713D01*
X249284Y196698D01*
X249132Y196623D01*
X248976Y196554D01*
X248932Y196524D01*
X248884Y196500D01*
X248883Y196499D01*
X238424Y196499D01*
X238279Y196544D01*
X238115Y196601D01*
X238065Y196609D01*
X238017Y196624D01*
X237845Y196645D01*
X237674Y196672D01*
X237624Y196671D01*
X237574Y196677D01*
X237401Y196667D01*
X237227Y196663D01*
X237178Y196653D01*
X237128Y196650D01*
X236959Y196609D01*
X236789Y196575D01*
X236743Y196556D01*
X236694Y196545D01*
X236592Y196499D01*
X226214Y196499D01*
X224749Y197964D01*
X224749Y250022D01*
X224733Y250208D01*
X224721Y250394D01*
X224713Y250430D01*
X224709Y250467D01*
X224660Y250647D01*
X224616Y250828D01*
X224601Y250862D01*
X224591Y250898D01*
X224510Y251066D01*
X224434Y251236D01*
X224414Y251267D01*
X224398Y251300D01*
X224288Y251452D01*
X224183Y251606D01*
X224150Y251643D01*
X224136Y251662D01*
X224109Y251688D01*
X224017Y251789D01*
X223517Y252290D01*
X223407Y252382D01*
X223303Y252480D01*
X223236Y252524D01*
X223174Y252576D01*
X223050Y252647D01*
X222930Y252725D01*
X222818Y252778D01*
X222786Y252797D01*
X222761Y252806D01*
X222706Y252831D01*
X222206Y253038D01*
X222117Y253066D01*
X222031Y253103D01*
X221905Y253133D01*
X221780Y253172D01*
X221687Y253183D01*
X221596Y253205D01*
X221466Y253211D01*
X221337Y253227D01*
X221243Y253222D01*
X221150Y253227D01*
X221021Y253210D01*
X220891Y253203D01*
X220800Y253181D01*
X220707Y253169D01*
X220583Y253129D01*
X220456Y253099D01*
X220371Y253062D01*
X220282Y253033D01*
X220166Y252972D01*
X220047Y252920D01*
X219970Y252868D01*
X219887Y252824D01*
X219784Y252744D01*
X219676Y252671D01*
X219609Y252606D01*
X219536Y252548D01*
X219449Y252451D01*
X219356Y252360D01*
X219301Y252284D01*
X219239Y252214D01*
X219172Y252103D01*
X219096Y251997D01*
X219056Y251912D01*
X219007Y251832D01*
X218960Y251711D01*
X218905Y251593D01*
X218880Y251503D01*
X218847Y251415D01*
X218822Y251287D01*
X218788Y251162D01*
X218781Y251069D01*
X218763Y250977D01*
X218751Y250729D01*
X218751Y219964D01*
X217286Y218499D01*
X194214Y218499D01*
X192749Y219964D01*
X192749Y252036D01*
X194214Y253501D01*
X215833Y253501D01*
X215926Y253509D01*
X216020Y253508D01*
X216148Y253529D01*
X216278Y253541D01*
X216368Y253565D01*
X216460Y253581D01*
X216583Y253625D01*
X216709Y253659D01*
X216793Y253700D01*
X216881Y253731D01*
X216994Y253796D01*
X217111Y253852D01*
X217187Y253907D01*
X217268Y253954D01*
X217368Y254038D01*
X217473Y254114D01*
X217538Y254182D01*
X217609Y254242D01*
X217693Y254343D01*
X217783Y254436D01*
X217834Y254514D01*
X217894Y254586D01*
X217958Y254700D01*
X218030Y254808D01*
X218067Y254894D01*
X218113Y254976D01*
X218155Y255099D01*
X218207Y255219D01*
X218228Y255310D01*
X218259Y255398D01*
X218279Y255527D01*
X218308Y255654D01*
X218313Y255747D01*
X218327Y255839D01*
X218324Y255970D01*
X218330Y256100D01*
X218318Y256192D01*
X218316Y256286D01*
X218289Y256414D01*
X218273Y256543D01*
X218244Y256632D01*
X218225Y256723D01*
X218142Y256956D01*
X217499Y258508D01*
X217499Y261492D01*
X218641Y264249D01*
X220751Y266359D01*
X221155Y266526D01*
X221314Y266609D01*
X221477Y266687D01*
X221512Y266713D01*
X221551Y266733D01*
X221693Y266844D01*
X221839Y266949D01*
X221869Y266981D01*
X221903Y267007D01*
X222024Y267142D01*
X222148Y267271D01*
X222172Y267308D01*
X222201Y267340D01*
X222296Y267494D01*
X222395Y267643D01*
X222413Y267683D01*
X222435Y267720D01*
X222501Y267888D01*
X222572Y268054D01*
X222582Y268096D01*
X222598Y268136D01*
X222633Y268314D01*
X222674Y268489D01*
X222676Y268532D01*
X222684Y268575D01*
X222687Y268755D01*
X222696Y268935D01*
X222690Y268978D01*
X222691Y269021D01*
X222661Y269199D01*
X222638Y269378D01*
X222625Y269419D01*
X222618Y269462D01*
X222557Y269632D01*
X222502Y269803D01*
X222482Y269842D01*
X222467Y269883D01*
X222378Y270039D01*
X222293Y270198D01*
X222266Y270232D01*
X222245Y270270D01*
X222129Y270408D01*
X222017Y270549D01*
X221985Y270578D01*
X221957Y270611D01*
X221818Y270726D01*
X221683Y270846D01*
X221646Y270868D01*
X221612Y270896D01*
X221455Y270984D01*
X221301Y271078D01*
X221261Y271093D01*
X221223Y271115D01*
X221053Y271173D01*
X220884Y271238D01*
X220842Y271246D01*
X220801Y271261D01*
X220623Y271288D01*
X220446Y271322D01*
X220386Y271325D01*
X220359Y271329D01*
X220322Y271328D01*
X220198Y271334D01*
X176563Y271334D01*
X176377Y271318D01*
X176191Y271306D01*
X176155Y271298D01*
X176118Y271294D01*
X175938Y271245D01*
X175757Y271201D01*
X175723Y271186D01*
X175687Y271176D01*
X175519Y271095D01*
X175349Y271019D01*
X175318Y270999D01*
X175285Y270983D01*
X175134Y270873D01*
X174979Y270768D01*
X174942Y270734D01*
X174923Y270721D01*
X174897Y270694D01*
X174796Y270602D01*
X162233Y258039D01*
X162113Y257896D01*
X161989Y257757D01*
X161970Y257725D01*
X161946Y257696D01*
X161854Y257535D01*
X161757Y257375D01*
X161744Y257340D01*
X161726Y257308D01*
X161664Y257132D01*
X161597Y256958D01*
X161590Y256922D01*
X161577Y256887D01*
X161548Y256702D01*
X161513Y256519D01*
X161510Y256469D01*
X161507Y256446D01*
X161508Y256409D01*
X161501Y256272D01*
X161501Y163707D01*
X160511Y161318D01*
X144932Y145739D01*
X142543Y144749D01*
X133040Y144749D01*
X132990Y144745D01*
X132940Y144747D01*
X132768Y144725D01*
X132595Y144709D01*
X132547Y144696D01*
X132497Y144690D01*
X132332Y144637D01*
X132164Y144591D01*
X132119Y144569D01*
X132072Y144554D01*
X131918Y144473D01*
X131762Y144398D01*
X131721Y144368D01*
X131677Y144345D01*
X131540Y144238D01*
X131400Y144136D01*
X131365Y144100D01*
X131326Y144069D01*
X131210Y143939D01*
X131090Y143814D01*
X131063Y143772D01*
X131029Y143734D01*
X130939Y143586D01*
X130843Y143442D01*
X130823Y143396D01*
X130797Y143353D01*
X130735Y143191D01*
X130666Y143031D01*
X130655Y142983D01*
X130637Y142936D01*
X130604Y142765D01*
X130565Y142596D01*
X130562Y142546D01*
X130553Y142497D01*
X130541Y142250D01*
X130541Y141249D01*
X120000Y141249D01*
X109459Y141249D01*
X109459Y143084D01*
X109652Y143805D01*
X109683Y143865D01*
X109699Y143916D01*
X109722Y143965D01*
X109765Y144130D01*
X109815Y144292D01*
X109821Y144345D01*
X109834Y144397D01*
X109847Y144567D01*
X109868Y144736D01*
X109864Y144789D01*
X109868Y144843D01*
X109851Y145012D01*
X109841Y145182D01*
X109828Y145234D01*
X109823Y145287D01*
X109775Y145450D01*
X109735Y145616D01*
X109713Y145665D01*
X109698Y145716D01*
X109623Y145868D01*
X109554Y146024D01*
X109524Y146068D01*
X109500Y146116D01*
X109499Y146117D01*
X109499Y156576D01*
X109544Y156722D01*
X109601Y156885D01*
X109609Y156935D01*
X109624Y156983D01*
X109645Y157154D01*
X109672Y157326D01*
X109671Y157377D01*
X109677Y157426D01*
X109667Y157599D01*
X109663Y157773D01*
X109653Y157822D01*
X109650Y157872D01*
X109609Y158041D01*
X109575Y158211D01*
X109556Y158258D01*
X109545Y158306D01*
X109499Y158408D01*
X109499Y167250D01*
X109495Y167300D01*
X109497Y167350D01*
X109475Y167522D01*
X109459Y167695D01*
X109446Y167743D01*
X109440Y167793D01*
X109387Y167958D01*
X109341Y168126D01*
X109319Y168171D01*
X109304Y168218D01*
X109223Y168372D01*
X109148Y168528D01*
X109118Y168569D01*
X109095Y168613D01*
X108988Y168750D01*
X108886Y168890D01*
X108850Y168925D01*
X108819Y168964D01*
X108689Y169080D01*
X108564Y169200D01*
X108522Y169227D01*
X108484Y169261D01*
X108336Y169351D01*
X108192Y169447D01*
X108146Y169467D01*
X108103Y169493D01*
X107941Y169555D01*
X107781Y169624D01*
X107733Y169635D01*
X107686Y169653D01*
X107515Y169686D01*
X107346Y169725D01*
X107296Y169728D01*
X107247Y169737D01*
X107000Y169749D01*
X79978Y169749D01*
X79792Y169733D01*
X79606Y169721D01*
X79570Y169713D01*
X79533Y169709D01*
X79353Y169660D01*
X79172Y169616D01*
X79138Y169601D01*
X79102Y169591D01*
X78934Y169510D01*
X78764Y169434D01*
X78733Y169414D01*
X78700Y169398D01*
X78549Y169288D01*
X78394Y169183D01*
X78357Y169149D01*
X78338Y169136D01*
X78312Y169109D01*
X78211Y169017D01*
X72233Y163039D01*
X72113Y162896D01*
X71989Y162757D01*
X71970Y162725D01*
X71946Y162696D01*
X71854Y162535D01*
X71757Y162375D01*
X71744Y162340D01*
X71726Y162308D01*
X71664Y162132D01*
X71597Y161958D01*
X71590Y161922D01*
X71577Y161887D01*
X71548Y161702D01*
X71513Y161519D01*
X71510Y161469D01*
X71507Y161446D01*
X71508Y161409D01*
X71501Y161272D01*
X71501Y132978D01*
X71513Y132841D01*
X71516Y132705D01*
X71533Y132620D01*
X71541Y132533D01*
X71577Y132401D01*
X71604Y132267D01*
X71636Y132186D01*
X71659Y132102D01*
X71718Y131979D01*
X71769Y131852D01*
X71815Y131778D01*
X71852Y131700D01*
X71933Y131589D01*
X72005Y131473D01*
X72063Y131408D01*
X72114Y131338D01*
X72213Y131243D01*
X72305Y131141D01*
X72374Y131088D01*
X72436Y131028D01*
X72550Y130952D01*
X72659Y130869D01*
X72736Y130829D01*
X72808Y130781D01*
X72934Y130727D01*
X73056Y130664D01*
X73139Y130638D01*
X73219Y130604D01*
X73352Y130573D01*
X73483Y130533D01*
X73569Y130522D01*
X73654Y130503D01*
X73790Y130496D01*
X73926Y130480D01*
X74013Y130485D01*
X74100Y130481D01*
X74235Y130498D01*
X74372Y130506D01*
X74457Y130527D01*
X74543Y130538D01*
X74673Y130580D01*
X74806Y130612D01*
X74886Y130647D01*
X74968Y130674D01*
X75089Y130738D01*
X75214Y130793D01*
X75286Y130842D01*
X75363Y130883D01*
X75471Y130968D01*
X75584Y131045D01*
X75685Y131136D01*
X75714Y131159D01*
X75730Y131177D01*
X75767Y131211D01*
X76318Y131761D01*
X78707Y132751D01*
X106960Y132751D01*
X107010Y132755D01*
X107060Y132753D01*
X107232Y132775D01*
X107405Y132791D01*
X107453Y132804D01*
X107503Y132810D01*
X107668Y132863D01*
X107836Y132909D01*
X107881Y132931D01*
X107928Y132946D01*
X108082Y133027D01*
X108238Y133102D01*
X108279Y133132D01*
X108323Y133155D01*
X108460Y133263D01*
X108600Y133364D01*
X108635Y133400D01*
X108674Y133431D01*
X108790Y133561D01*
X108910Y133686D01*
X108937Y133728D01*
X108971Y133766D01*
X109061Y133914D01*
X109157Y134058D01*
X109177Y134104D01*
X109203Y134147D01*
X109265Y134310D01*
X109334Y134469D01*
X109345Y134517D01*
X109363Y134564D01*
X109396Y134735D01*
X109435Y134904D01*
X109438Y134954D01*
X109447Y135003D01*
X109459Y135250D01*
X109459Y136251D01*
X120000Y136251D01*
X130541Y136251D01*
X130541Y135250D01*
X130545Y135200D01*
X130543Y135150D01*
X130565Y134978D01*
X130581Y134805D01*
X130594Y134757D01*
X130600Y134707D01*
X130653Y134542D01*
X130699Y134374D01*
X130721Y134329D01*
X130736Y134282D01*
X130817Y134128D01*
X130892Y133972D01*
X130922Y133931D01*
X130945Y133887D01*
X131052Y133750D01*
X131154Y133610D01*
X131190Y133575D01*
X131221Y133536D01*
X131351Y133420D01*
X131476Y133300D01*
X131518Y133273D01*
X131556Y133239D01*
X131704Y133149D01*
X131848Y133053D01*
X131894Y133033D01*
X131937Y133007D01*
X132099Y132945D01*
X132259Y132876D01*
X132307Y132865D01*
X132354Y132847D01*
X132525Y132814D01*
X132694Y132775D01*
X132744Y132772D01*
X132793Y132763D01*
X133040Y132751D01*
X141293Y132751D01*
X143682Y131761D01*
X160511Y114932D01*
X161501Y112543D01*
X161501Y89000D01*
X161505Y88950D01*
X161503Y88900D01*
X161525Y88728D01*
X161541Y88555D01*
X161554Y88507D01*
X161560Y88457D01*
X161613Y88292D01*
X161659Y88124D01*
X161681Y88079D01*
X161696Y88032D01*
X161777Y87878D01*
X161852Y87722D01*
X161882Y87681D01*
X161905Y87637D01*
X162012Y87500D01*
X162114Y87360D01*
X162150Y87325D01*
X162181Y87286D01*
X162311Y87170D01*
X162436Y87050D01*
X162478Y87023D01*
X162516Y86989D01*
X162664Y86899D01*
X162808Y86803D01*
X162854Y86783D01*
X162897Y86757D01*
X163059Y86695D01*
X163219Y86626D01*
X163267Y86615D01*
X163314Y86597D01*
X163485Y86564D01*
X163654Y86525D01*
X163704Y86522D01*
X163753Y86513D01*
X164000Y86501D01*
X269450Y86501D01*
X269500Y86505D01*
G37*
G36*
X745208Y195267D02*
X745208Y195267D01*
X745394Y195279D01*
X745430Y195287D01*
X745467Y195291D01*
X745647Y195340D01*
X745828Y195384D01*
X745862Y195399D01*
X745898Y195409D01*
X746066Y195490D01*
X746236Y195566D01*
X746267Y195586D01*
X746300Y195602D01*
X746452Y195712D01*
X746606Y195817D01*
X746643Y195850D01*
X746662Y195864D01*
X746688Y195891D01*
X746789Y195983D01*
X747789Y196983D01*
X747877Y197088D01*
X747972Y197186D01*
X748020Y197259D01*
X748076Y197326D01*
X748143Y197445D01*
X748219Y197558D01*
X748253Y197638D01*
X748297Y197714D01*
X748342Y197843D01*
X748396Y197969D01*
X748416Y198053D01*
X748445Y198135D01*
X748466Y198270D01*
X748497Y198404D01*
X748502Y198490D01*
X748515Y198576D01*
X748513Y198713D01*
X748519Y198850D01*
X748508Y198936D01*
X748506Y199023D01*
X748479Y199157D01*
X748462Y199293D01*
X748435Y199376D01*
X748418Y199461D01*
X748368Y199588D01*
X748326Y199718D01*
X748285Y199795D01*
X748253Y199876D01*
X748181Y199992D01*
X748117Y200113D01*
X748063Y200182D01*
X748017Y200255D01*
X747926Y200357D01*
X747841Y200464D01*
X747776Y200522D01*
X747717Y200586D01*
X747609Y200670D01*
X747507Y200761D01*
X747432Y200806D01*
X747363Y200859D01*
X747242Y200922D01*
X747125Y200993D01*
X747044Y201024D01*
X746967Y201064D01*
X746836Y201104D01*
X746708Y201153D01*
X746623Y201170D01*
X746540Y201195D01*
X746404Y201211D01*
X746269Y201237D01*
X746133Y201244D01*
X746096Y201248D01*
X746073Y201247D01*
X746022Y201249D01*
X717924Y201249D01*
X716459Y202714D01*
X716459Y225786D01*
X717924Y227251D01*
X751000Y227251D01*
X751050Y227255D01*
X751100Y227253D01*
X751272Y227275D01*
X751445Y227291D01*
X751493Y227304D01*
X751543Y227310D01*
X751708Y227363D01*
X751876Y227409D01*
X751921Y227431D01*
X751968Y227446D01*
X752122Y227527D01*
X752278Y227602D01*
X752319Y227632D01*
X752363Y227655D01*
X752500Y227762D01*
X752640Y227864D01*
X752675Y227900D01*
X752714Y227931D01*
X752830Y228061D01*
X752950Y228186D01*
X752977Y228228D01*
X753011Y228266D01*
X753101Y228414D01*
X753197Y228558D01*
X753217Y228604D01*
X753243Y228647D01*
X753305Y228809D01*
X753374Y228969D01*
X753385Y229017D01*
X753403Y229064D01*
X753436Y229235D01*
X753475Y229404D01*
X753478Y229454D01*
X753487Y229503D01*
X753499Y229750D01*
X753499Y255772D01*
X753483Y255958D01*
X753471Y256144D01*
X753463Y256180D01*
X753459Y256217D01*
X753410Y256397D01*
X753366Y256578D01*
X753351Y256612D01*
X753341Y256648D01*
X753260Y256816D01*
X753184Y256986D01*
X753164Y257017D01*
X753148Y257050D01*
X753038Y257201D01*
X752933Y257356D01*
X752899Y257393D01*
X752886Y257412D01*
X752859Y257438D01*
X752767Y257539D01*
X739704Y270602D01*
X739561Y270722D01*
X739422Y270846D01*
X739390Y270865D01*
X739361Y270889D01*
X739200Y270981D01*
X739040Y271078D01*
X739005Y271091D01*
X738973Y271109D01*
X738797Y271171D01*
X738623Y271238D01*
X738587Y271245D01*
X738552Y271258D01*
X738367Y271287D01*
X738184Y271322D01*
X738134Y271325D01*
X738111Y271328D01*
X738074Y271327D01*
X737937Y271334D01*
X695307Y271334D01*
X695171Y271322D01*
X695034Y271319D01*
X694949Y271302D01*
X694862Y271294D01*
X694730Y271258D01*
X694596Y271231D01*
X694515Y271199D01*
X694431Y271176D01*
X694308Y271117D01*
X694181Y271066D01*
X694107Y271020D01*
X694029Y270983D01*
X693918Y270902D01*
X693802Y270830D01*
X693737Y270772D01*
X693667Y270721D01*
X693572Y270622D01*
X693471Y270530D01*
X693418Y270461D01*
X693357Y270399D01*
X693282Y270285D01*
X693198Y270176D01*
X693158Y270099D01*
X693110Y270027D01*
X693056Y269901D01*
X692993Y269779D01*
X692968Y269696D01*
X692933Y269616D01*
X692902Y269483D01*
X692862Y269352D01*
X692852Y269266D01*
X692832Y269181D01*
X692825Y269045D01*
X692809Y268909D01*
X692814Y268822D01*
X692810Y268735D01*
X692827Y268600D01*
X692836Y268463D01*
X692856Y268378D01*
X692867Y268292D01*
X692909Y268162D01*
X692941Y268029D01*
X692977Y267949D01*
X693003Y267867D01*
X693067Y267746D01*
X693123Y267621D01*
X693172Y267549D01*
X693212Y267472D01*
X693297Y267364D01*
X693374Y267251D01*
X693465Y267150D01*
X693488Y267121D01*
X693506Y267105D01*
X693540Y267068D01*
X693859Y266749D01*
X695001Y263992D01*
X695001Y261008D01*
X693859Y258251D01*
X691749Y256141D01*
X688992Y254999D01*
X686008Y254999D01*
X684053Y255809D01*
X683916Y255852D01*
X683783Y255903D01*
X683703Y255918D01*
X683627Y255942D01*
X683485Y255960D01*
X683344Y255987D01*
X683221Y255993D01*
X683184Y255998D01*
X683157Y255996D01*
X683097Y255999D01*
X670590Y255999D01*
X670540Y255995D01*
X670490Y255997D01*
X670318Y255975D01*
X670145Y255959D01*
X670097Y255946D01*
X670047Y255940D01*
X669882Y255887D01*
X669714Y255841D01*
X669669Y255819D01*
X669622Y255804D01*
X669468Y255723D01*
X669312Y255648D01*
X669271Y255618D01*
X669227Y255595D01*
X669090Y255488D01*
X668950Y255386D01*
X668915Y255350D01*
X668876Y255319D01*
X668760Y255189D01*
X668640Y255064D01*
X668613Y255022D01*
X668579Y254984D01*
X668489Y254836D01*
X668393Y254692D01*
X668373Y254646D01*
X668347Y254603D01*
X668285Y254441D01*
X668216Y254281D01*
X668205Y254233D01*
X668187Y254186D01*
X668154Y254015D01*
X668115Y253846D01*
X668112Y253796D01*
X668103Y253747D01*
X668091Y253500D01*
X668091Y247899D01*
X660150Y247899D01*
X660100Y247895D01*
X660050Y247897D01*
X659879Y247875D01*
X659748Y247863D01*
X659696Y247875D01*
X659646Y247878D01*
X659597Y247887D01*
X659350Y247899D01*
X651409Y247899D01*
X651409Y253500D01*
X651405Y253550D01*
X651407Y253600D01*
X651385Y253772D01*
X651369Y253945D01*
X651356Y253993D01*
X651350Y254043D01*
X651297Y254208D01*
X651251Y254376D01*
X651229Y254421D01*
X651214Y254468D01*
X651133Y254622D01*
X651058Y254778D01*
X651028Y254819D01*
X651005Y254863D01*
X650898Y255000D01*
X650796Y255140D01*
X650760Y255175D01*
X650729Y255214D01*
X650599Y255330D01*
X650474Y255450D01*
X650432Y255477D01*
X650394Y255511D01*
X650246Y255601D01*
X650102Y255697D01*
X650056Y255717D01*
X650013Y255743D01*
X649851Y255805D01*
X649691Y255874D01*
X649643Y255885D01*
X649596Y255903D01*
X649425Y255936D01*
X649256Y255975D01*
X649206Y255978D01*
X649157Y255987D01*
X648910Y255999D01*
X641050Y255999D01*
X641000Y255995D01*
X640950Y255997D01*
X640778Y255975D01*
X640605Y255959D01*
X640557Y255946D01*
X640507Y255940D01*
X640342Y255887D01*
X640174Y255841D01*
X640129Y255819D01*
X640082Y255804D01*
X639928Y255723D01*
X639772Y255648D01*
X639731Y255618D01*
X639687Y255595D01*
X639550Y255488D01*
X639410Y255386D01*
X639375Y255350D01*
X639336Y255319D01*
X639220Y255189D01*
X639100Y255064D01*
X639073Y255022D01*
X639039Y254984D01*
X638949Y254836D01*
X638853Y254692D01*
X638833Y254646D01*
X638807Y254603D01*
X638745Y254441D01*
X638676Y254281D01*
X638665Y254233D01*
X638647Y254186D01*
X638614Y254015D01*
X638575Y253846D01*
X638572Y253796D01*
X638563Y253747D01*
X638551Y253500D01*
X638551Y236500D01*
X638555Y236450D01*
X638553Y236400D01*
X638575Y236228D01*
X638591Y236055D01*
X638604Y236007D01*
X638610Y235957D01*
X638663Y235792D01*
X638709Y235624D01*
X638731Y235579D01*
X638746Y235532D01*
X638827Y235378D01*
X638902Y235222D01*
X638932Y235181D01*
X638955Y235137D01*
X639062Y235000D01*
X639164Y234860D01*
X639200Y234825D01*
X639231Y234786D01*
X639361Y234670D01*
X639486Y234550D01*
X639528Y234523D01*
X639566Y234489D01*
X639714Y234399D01*
X639858Y234303D01*
X639904Y234283D01*
X639947Y234257D01*
X640109Y234195D01*
X640269Y234126D01*
X640317Y234115D01*
X640364Y234097D01*
X640535Y234064D01*
X640704Y234025D01*
X640754Y234022D01*
X640803Y234013D01*
X641050Y234001D01*
X648910Y234001D01*
X648960Y234005D01*
X649010Y234003D01*
X649182Y234025D01*
X649355Y234041D01*
X649403Y234054D01*
X649453Y234060D01*
X649618Y234113D01*
X649786Y234159D01*
X649831Y234181D01*
X649878Y234196D01*
X650032Y234277D01*
X650188Y234352D01*
X650229Y234382D01*
X650273Y234405D01*
X650410Y234512D01*
X650550Y234614D01*
X650585Y234650D01*
X650624Y234681D01*
X650740Y234811D01*
X650860Y234936D01*
X650887Y234978D01*
X650921Y235016D01*
X651011Y235164D01*
X651107Y235308D01*
X651127Y235354D01*
X651153Y235397D01*
X651215Y235559D01*
X651284Y235719D01*
X651295Y235767D01*
X651313Y235814D01*
X651346Y235985D01*
X651385Y236154D01*
X651388Y236204D01*
X651397Y236253D01*
X651409Y236500D01*
X651409Y242101D01*
X659350Y242101D01*
X659400Y242105D01*
X659450Y242103D01*
X659621Y242125D01*
X659752Y242137D01*
X659804Y242125D01*
X659854Y242122D01*
X659903Y242113D01*
X660150Y242101D01*
X668091Y242101D01*
X668091Y236500D01*
X668095Y236450D01*
X668093Y236400D01*
X668115Y236228D01*
X668131Y236055D01*
X668144Y236007D01*
X668150Y235957D01*
X668203Y235792D01*
X668249Y235624D01*
X668271Y235579D01*
X668286Y235532D01*
X668367Y235378D01*
X668442Y235222D01*
X668472Y235181D01*
X668495Y235137D01*
X668602Y235000D01*
X668704Y234860D01*
X668740Y234825D01*
X668771Y234786D01*
X668901Y234670D01*
X669026Y234550D01*
X669068Y234523D01*
X669106Y234489D01*
X669254Y234399D01*
X669398Y234303D01*
X669444Y234283D01*
X669487Y234257D01*
X669649Y234195D01*
X669809Y234126D01*
X669857Y234115D01*
X669904Y234097D01*
X670075Y234064D01*
X670244Y234025D01*
X670294Y234022D01*
X670343Y234013D01*
X670590Y234001D01*
X676136Y234001D01*
X678525Y233011D01*
X693011Y218525D01*
X694001Y216136D01*
X694001Y197750D01*
X694005Y197700D01*
X694003Y197650D01*
X694025Y197478D01*
X694041Y197305D01*
X694054Y197257D01*
X694060Y197207D01*
X694113Y197042D01*
X694159Y196874D01*
X694181Y196829D01*
X694196Y196782D01*
X694277Y196628D01*
X694352Y196472D01*
X694382Y196431D01*
X694405Y196387D01*
X694512Y196250D01*
X694614Y196110D01*
X694650Y196075D01*
X694681Y196036D01*
X694811Y195920D01*
X694936Y195800D01*
X694978Y195773D01*
X695016Y195739D01*
X695164Y195649D01*
X695308Y195553D01*
X695354Y195533D01*
X695397Y195507D01*
X695559Y195445D01*
X695719Y195376D01*
X695767Y195365D01*
X695814Y195347D01*
X695985Y195314D01*
X696154Y195275D01*
X696204Y195272D01*
X696253Y195263D01*
X696500Y195251D01*
X745022Y195251D01*
X745208Y195267D01*
G37*
%LPC*%
G36*
X602445Y32940D02*
X602445Y32940D01*
X600751Y33641D01*
X600317Y34075D01*
X597855Y36538D01*
X597854Y36538D01*
X596787Y37605D01*
X595393Y38999D01*
X595005Y39936D01*
X594251Y41756D01*
X594251Y43226D01*
X594251Y45236D01*
X594251Y45237D01*
X594251Y119886D01*
X594235Y120072D01*
X594223Y120258D01*
X594215Y120294D01*
X594211Y120331D01*
X594162Y120511D01*
X594118Y120692D01*
X594103Y120726D01*
X594093Y120761D01*
X594012Y120930D01*
X593936Y121100D01*
X593916Y121131D01*
X593900Y121164D01*
X593790Y121315D01*
X593685Y121470D01*
X593651Y121507D01*
X593638Y121526D01*
X593611Y121552D01*
X593519Y121653D01*
X586905Y128267D01*
X586762Y128387D01*
X586622Y128511D01*
X586591Y128530D01*
X586562Y128554D01*
X586400Y128646D01*
X586241Y128743D01*
X586206Y128756D01*
X586174Y128774D01*
X585998Y128836D01*
X585824Y128903D01*
X585787Y128910D01*
X585753Y128923D01*
X585568Y128952D01*
X585385Y128987D01*
X585335Y128990D01*
X585311Y128993D01*
X585274Y128992D01*
X585138Y128999D01*
X544707Y128999D01*
X542752Y129809D01*
X542615Y129852D01*
X542482Y129903D01*
X542402Y129918D01*
X542326Y129942D01*
X542184Y129960D01*
X542043Y129987D01*
X541920Y129993D01*
X541882Y129998D01*
X541856Y129996D01*
X541796Y129999D01*
X539714Y129999D01*
X538249Y131464D01*
X538249Y139536D01*
X539714Y141001D01*
X541796Y141001D01*
X541938Y141014D01*
X542082Y141017D01*
X542160Y141033D01*
X542240Y141041D01*
X542379Y141079D01*
X542519Y141108D01*
X542635Y141149D01*
X542671Y141159D01*
X542695Y141171D01*
X542752Y141191D01*
X544707Y142001D01*
X575000Y142001D01*
X575050Y142005D01*
X575100Y142003D01*
X575272Y142025D01*
X575445Y142041D01*
X575493Y142054D01*
X575543Y142060D01*
X575708Y142113D01*
X575876Y142159D01*
X575921Y142181D01*
X575968Y142196D01*
X576122Y142277D01*
X576278Y142352D01*
X576319Y142382D01*
X576363Y142405D01*
X576500Y142512D01*
X576640Y142614D01*
X576675Y142650D01*
X576714Y142681D01*
X576830Y142811D01*
X576950Y142936D01*
X576977Y142978D01*
X577011Y143016D01*
X577101Y143164D01*
X577197Y143308D01*
X577217Y143354D01*
X577243Y143397D01*
X577305Y143559D01*
X577374Y143719D01*
X577385Y143767D01*
X577403Y143814D01*
X577436Y143985D01*
X577475Y144154D01*
X577478Y144204D01*
X577487Y144253D01*
X577499Y144500D01*
X577499Y160858D01*
X577483Y161044D01*
X577471Y161230D01*
X577463Y161266D01*
X577459Y161303D01*
X577410Y161483D01*
X577366Y161664D01*
X577351Y161698D01*
X577341Y161733D01*
X577260Y161901D01*
X577184Y162072D01*
X577164Y162103D01*
X577148Y162136D01*
X577038Y162287D01*
X576933Y162442D01*
X576899Y162479D01*
X576886Y162498D01*
X576859Y162524D01*
X576767Y162625D01*
X567625Y171767D01*
X567482Y171887D01*
X567342Y172011D01*
X567311Y172030D01*
X567282Y172054D01*
X567120Y172146D01*
X566961Y172243D01*
X566926Y172256D01*
X566894Y172274D01*
X566718Y172336D01*
X566544Y172403D01*
X566507Y172410D01*
X566473Y172423D01*
X566288Y172452D01*
X566105Y172487D01*
X566055Y172490D01*
X566031Y172493D01*
X565994Y172492D01*
X565858Y172499D01*
X560550Y172499D01*
X560500Y172495D01*
X560450Y172497D01*
X560278Y172475D01*
X560105Y172459D01*
X560057Y172446D01*
X560007Y172440D01*
X559842Y172387D01*
X559674Y172341D01*
X559629Y172319D01*
X559582Y172304D01*
X559428Y172223D01*
X559272Y172148D01*
X559231Y172118D01*
X559187Y172095D01*
X559050Y171988D01*
X558910Y171886D01*
X558875Y171850D01*
X558836Y171819D01*
X558720Y171689D01*
X558600Y171564D01*
X558573Y171522D01*
X558539Y171484D01*
X558449Y171336D01*
X558353Y171192D01*
X558333Y171146D01*
X558307Y171103D01*
X558245Y170941D01*
X558176Y170781D01*
X558165Y170733D01*
X558147Y170686D01*
X558141Y170654D01*
X556586Y169099D01*
X542914Y169099D01*
X541449Y170564D01*
X541449Y189436D01*
X542914Y190901D01*
X556586Y190901D01*
X558148Y189338D01*
X558163Y189292D01*
X558209Y189124D01*
X558231Y189079D01*
X558246Y189032D01*
X558327Y188878D01*
X558402Y188722D01*
X558432Y188681D01*
X558455Y188637D01*
X558562Y188500D01*
X558664Y188360D01*
X558700Y188325D01*
X558731Y188286D01*
X558861Y188170D01*
X558986Y188050D01*
X559028Y188023D01*
X559066Y187989D01*
X559214Y187899D01*
X559358Y187803D01*
X559404Y187783D01*
X559447Y187757D01*
X559609Y187695D01*
X559769Y187626D01*
X559817Y187615D01*
X559864Y187597D01*
X560035Y187564D01*
X560204Y187525D01*
X560254Y187522D01*
X560303Y187513D01*
X560550Y187501D01*
X571492Y187501D01*
X574249Y186359D01*
X591359Y169249D01*
X592501Y166492D01*
X592501Y144922D01*
X592504Y144885D01*
X592503Y144858D01*
X592515Y144766D01*
X592517Y144736D01*
X592529Y144550D01*
X592537Y144514D01*
X592541Y144477D01*
X592590Y144297D01*
X592634Y144116D01*
X592649Y144082D01*
X592659Y144046D01*
X592740Y143878D01*
X592816Y143708D01*
X592836Y143677D01*
X592852Y143644D01*
X592962Y143492D01*
X593067Y143338D01*
X593101Y143301D01*
X593114Y143282D01*
X593141Y143256D01*
X593233Y143155D01*
X594287Y142101D01*
X594287Y142100D01*
X608111Y128277D01*
X609253Y125520D01*
X609253Y47390D01*
X609269Y47204D01*
X609281Y47018D01*
X609289Y46982D01*
X609293Y46945D01*
X609342Y46765D01*
X609386Y46584D01*
X609401Y46550D01*
X609411Y46515D01*
X609492Y46346D01*
X609568Y46176D01*
X609588Y46145D01*
X609604Y46112D01*
X609714Y45961D01*
X609819Y45806D01*
X609853Y45769D01*
X609866Y45750D01*
X609893Y45724D01*
X609985Y45623D01*
X611359Y44249D01*
X611710Y43402D01*
X612501Y41492D01*
X612501Y40130D01*
X612501Y38508D01*
X612060Y37445D01*
X611359Y35751D01*
X610859Y35252D01*
X609249Y33641D01*
X608402Y33290D01*
X606492Y32499D01*
X605130Y32499D01*
X603508Y32499D01*
X602445Y32940D01*
G37*
%LPD*%
G36*
X295100Y179083D02*
X295100Y179083D01*
X295273Y179087D01*
X295322Y179097D01*
X295372Y179100D01*
X295541Y179141D01*
X295711Y179175D01*
X295757Y179194D01*
X295806Y179205D01*
X295965Y179276D01*
X296126Y179340D01*
X296168Y179366D01*
X296214Y179387D01*
X296358Y179484D01*
X296505Y179576D01*
X296542Y179610D01*
X296584Y179638D01*
X296767Y179804D01*
X297464Y180501D01*
X312536Y180501D01*
X312654Y180382D01*
X312693Y180350D01*
X312726Y180313D01*
X312864Y180207D01*
X312997Y180096D01*
X313041Y180071D01*
X313080Y180041D01*
X313235Y179961D01*
X313385Y179875D01*
X313433Y179859D01*
X313477Y179836D01*
X313643Y179785D01*
X313807Y179727D01*
X313856Y179719D01*
X313904Y179704D01*
X314076Y179684D01*
X314248Y179656D01*
X314298Y179657D01*
X314348Y179651D01*
X314521Y179662D01*
X314695Y179665D01*
X314744Y179675D01*
X314794Y179678D01*
X314962Y179719D01*
X315132Y179753D01*
X315179Y179772D01*
X315228Y179784D01*
X315386Y179854D01*
X315548Y179918D01*
X315590Y179945D01*
X315636Y179965D01*
X315780Y180063D01*
X315927Y180154D01*
X315964Y180188D01*
X316005Y180216D01*
X316189Y180382D01*
X324017Y188211D01*
X324114Y188326D01*
X324166Y188381D01*
X324183Y188406D01*
X324261Y188493D01*
X324280Y188525D01*
X324304Y188554D01*
X324396Y188716D01*
X324493Y188875D01*
X324506Y188910D01*
X324524Y188942D01*
X324586Y189118D01*
X324653Y189292D01*
X324660Y189328D01*
X324673Y189363D01*
X324702Y189548D01*
X324737Y189731D01*
X324740Y189781D01*
X324743Y189804D01*
X324742Y189841D01*
X324749Y189978D01*
X324749Y193960D01*
X324745Y194010D01*
X324747Y194060D01*
X324725Y194232D01*
X324709Y194405D01*
X324696Y194453D01*
X324690Y194503D01*
X324637Y194668D01*
X324591Y194836D01*
X324569Y194881D01*
X324554Y194928D01*
X324473Y195082D01*
X324398Y195238D01*
X324368Y195279D01*
X324345Y195323D01*
X324237Y195460D01*
X324136Y195600D01*
X324100Y195635D01*
X324069Y195674D01*
X323939Y195790D01*
X323814Y195910D01*
X323772Y195937D01*
X323734Y195971D01*
X323586Y196061D01*
X323442Y196157D01*
X323396Y196177D01*
X323353Y196203D01*
X323190Y196265D01*
X323031Y196334D01*
X322983Y196345D01*
X322936Y196363D01*
X322765Y196396D01*
X322596Y196435D01*
X322546Y196438D01*
X322497Y196447D01*
X322250Y196459D01*
X321249Y196459D01*
X321249Y207000D01*
X321249Y217541D01*
X322250Y217541D01*
X322300Y217545D01*
X322350Y217543D01*
X322522Y217565D01*
X322695Y217581D01*
X322743Y217594D01*
X322793Y217600D01*
X322958Y217653D01*
X323126Y217699D01*
X323171Y217721D01*
X323218Y217736D01*
X323372Y217817D01*
X323528Y217892D01*
X323569Y217922D01*
X323613Y217945D01*
X323750Y218052D01*
X323890Y218154D01*
X323925Y218190D01*
X323964Y218221D01*
X324080Y218351D01*
X324200Y218476D01*
X324227Y218518D01*
X324261Y218556D01*
X324351Y218704D01*
X324447Y218848D01*
X324467Y218894D01*
X324493Y218937D01*
X324555Y219099D01*
X324624Y219259D01*
X324635Y219307D01*
X324653Y219354D01*
X324686Y219525D01*
X324725Y219694D01*
X324728Y219744D01*
X324737Y219793D01*
X324749Y220040D01*
X324749Y242543D01*
X325739Y244932D01*
X342290Y261483D01*
X342382Y261593D01*
X342480Y261697D01*
X342524Y261764D01*
X342576Y261826D01*
X342647Y261950D01*
X342726Y262070D01*
X342778Y262182D01*
X342797Y262214D01*
X342806Y262240D01*
X342831Y262294D01*
X343641Y264249D01*
X345751Y266359D01*
X346155Y266526D01*
X346314Y266609D01*
X346477Y266687D01*
X346512Y266713D01*
X346551Y266733D01*
X346693Y266844D01*
X346839Y266949D01*
X346869Y266981D01*
X346903Y267007D01*
X347024Y267142D01*
X347148Y267271D01*
X347172Y267308D01*
X347201Y267340D01*
X347296Y267494D01*
X347395Y267643D01*
X347413Y267683D01*
X347435Y267720D01*
X347501Y267888D01*
X347572Y268054D01*
X347582Y268096D01*
X347598Y268136D01*
X347633Y268314D01*
X347674Y268489D01*
X347676Y268532D01*
X347684Y268575D01*
X347687Y268755D01*
X347696Y268935D01*
X347690Y268978D01*
X347691Y269021D01*
X347661Y269199D01*
X347638Y269378D01*
X347625Y269419D01*
X347618Y269462D01*
X347557Y269632D01*
X347502Y269803D01*
X347482Y269842D01*
X347467Y269883D01*
X347378Y270039D01*
X347293Y270198D01*
X347266Y270232D01*
X347245Y270270D01*
X347129Y270408D01*
X347017Y270549D01*
X346985Y270578D01*
X346957Y270611D01*
X346818Y270726D01*
X346683Y270846D01*
X346646Y270868D01*
X346612Y270896D01*
X346455Y270984D01*
X346301Y271078D01*
X346261Y271093D01*
X346223Y271115D01*
X346053Y271173D01*
X345884Y271238D01*
X345842Y271246D01*
X345801Y271261D01*
X345623Y271288D01*
X345446Y271322D01*
X345386Y271325D01*
X345359Y271329D01*
X345322Y271328D01*
X345198Y271334D01*
X325313Y271334D01*
X325127Y271318D01*
X324941Y271306D01*
X324905Y271298D01*
X324868Y271294D01*
X324688Y271245D01*
X324507Y271201D01*
X324473Y271186D01*
X324437Y271176D01*
X324269Y271095D01*
X324099Y271019D01*
X324068Y270999D01*
X324035Y270983D01*
X323884Y270873D01*
X323729Y270768D01*
X323692Y270734D01*
X323673Y270721D01*
X323647Y270694D01*
X323546Y270602D01*
X313483Y260539D01*
X313363Y260396D01*
X313239Y260257D01*
X313220Y260225D01*
X313196Y260196D01*
X313104Y260035D01*
X313007Y259875D01*
X312994Y259840D01*
X312976Y259808D01*
X312914Y259632D01*
X312847Y259458D01*
X312840Y259422D01*
X312827Y259387D01*
X312798Y259202D01*
X312763Y259019D01*
X312760Y258969D01*
X312757Y258946D01*
X312758Y258909D01*
X312751Y258772D01*
X312751Y220040D01*
X312755Y219990D01*
X312753Y219940D01*
X312775Y219768D01*
X312791Y219595D01*
X312804Y219547D01*
X312810Y219497D01*
X312863Y219332D01*
X312909Y219164D01*
X312931Y219119D01*
X312946Y219072D01*
X313027Y218918D01*
X313102Y218762D01*
X313132Y218721D01*
X313155Y218677D01*
X313262Y218540D01*
X313364Y218400D01*
X313400Y218365D01*
X313431Y218326D01*
X313561Y218210D01*
X313686Y218090D01*
X313728Y218063D01*
X313766Y218029D01*
X313914Y217939D01*
X314058Y217843D01*
X314104Y217823D01*
X314147Y217797D01*
X314309Y217735D01*
X314469Y217666D01*
X314517Y217655D01*
X314564Y217637D01*
X314735Y217604D01*
X314904Y217565D01*
X314954Y217562D01*
X315003Y217553D01*
X315250Y217541D01*
X316251Y217541D01*
X316251Y207000D01*
X316251Y196459D01*
X314416Y196459D01*
X313695Y196652D01*
X313635Y196683D01*
X313584Y196699D01*
X313535Y196722D01*
X313370Y196765D01*
X313208Y196815D01*
X313155Y196821D01*
X313103Y196834D01*
X312933Y196847D01*
X312764Y196868D01*
X312711Y196864D01*
X312657Y196868D01*
X312488Y196851D01*
X312318Y196841D01*
X312266Y196828D01*
X312213Y196823D01*
X312050Y196775D01*
X311884Y196735D01*
X311835Y196713D01*
X311784Y196698D01*
X311632Y196623D01*
X311476Y196554D01*
X311432Y196524D01*
X311384Y196500D01*
X311383Y196499D01*
X300924Y196499D01*
X300779Y196544D01*
X300615Y196601D01*
X300565Y196609D01*
X300517Y196624D01*
X300345Y196645D01*
X300174Y196672D01*
X300124Y196671D01*
X300074Y196677D01*
X299901Y196667D01*
X299727Y196663D01*
X299678Y196653D01*
X299628Y196650D01*
X299459Y196609D01*
X299289Y196575D01*
X299243Y196556D01*
X299194Y196545D01*
X299092Y196499D01*
X290250Y196499D01*
X290200Y196495D01*
X290150Y196497D01*
X289978Y196475D01*
X289805Y196459D01*
X289757Y196446D01*
X289707Y196440D01*
X289542Y196387D01*
X289374Y196341D01*
X289329Y196319D01*
X289282Y196304D01*
X289128Y196223D01*
X288972Y196148D01*
X288931Y196118D01*
X288887Y196095D01*
X288750Y195988D01*
X288610Y195886D01*
X288575Y195850D01*
X288536Y195819D01*
X288420Y195689D01*
X288300Y195564D01*
X288273Y195522D01*
X288239Y195484D01*
X288149Y195336D01*
X288053Y195192D01*
X288033Y195146D01*
X288007Y195103D01*
X287945Y194941D01*
X287876Y194781D01*
X287865Y194733D01*
X287847Y194686D01*
X287814Y194515D01*
X287775Y194346D01*
X287772Y194296D01*
X287763Y194247D01*
X287751Y194000D01*
X287751Y183000D01*
X287755Y182950D01*
X287753Y182900D01*
X287775Y182728D01*
X287791Y182555D01*
X287804Y182507D01*
X287810Y182457D01*
X287863Y182292D01*
X287909Y182124D01*
X287931Y182079D01*
X287946Y182032D01*
X288027Y181878D01*
X288102Y181722D01*
X288132Y181681D01*
X288155Y181637D01*
X288262Y181500D01*
X288364Y181360D01*
X288400Y181325D01*
X288431Y181286D01*
X288561Y181170D01*
X288686Y181050D01*
X288728Y181023D01*
X288766Y180989D01*
X288914Y180899D01*
X289058Y180803D01*
X289104Y180783D01*
X289147Y180757D01*
X289309Y180695D01*
X289469Y180626D01*
X289517Y180615D01*
X289564Y180597D01*
X289735Y180564D01*
X289904Y180525D01*
X289954Y180522D01*
X290003Y180513D01*
X290250Y180501D01*
X292536Y180501D01*
X293233Y179804D01*
X293271Y179772D01*
X293305Y179735D01*
X293442Y179629D01*
X293576Y179517D01*
X293619Y179493D01*
X293659Y179462D01*
X293813Y179382D01*
X293964Y179297D01*
X294011Y179280D01*
X294056Y179257D01*
X294221Y179206D01*
X294385Y179149D01*
X294435Y179141D01*
X294483Y179126D01*
X294655Y179105D01*
X294826Y179078D01*
X294876Y179079D01*
X294926Y179073D01*
X295100Y179083D01*
G37*
%LPC*%
G36*
X687964Y67999D02*
X687964Y67999D01*
X686499Y69464D01*
X686499Y82536D01*
X687964Y84001D01*
X702036Y84001D01*
X703501Y82536D01*
X703501Y69464D01*
X702036Y67999D01*
X687964Y67999D01*
G37*
%LPD*%
%LPC*%
G36*
X627964Y30999D02*
X627964Y30999D01*
X626499Y32464D01*
X626499Y45536D01*
X627964Y47001D01*
X642036Y47001D01*
X643501Y45536D01*
X643501Y32464D01*
X642036Y30999D01*
X627964Y30999D01*
G37*
%LPD*%
%LPC*%
G36*
X523149Y182899D02*
X523149Y182899D01*
X523149Y190941D01*
X526384Y190941D01*
X527031Y190768D01*
X527610Y190433D01*
X528083Y189960D01*
X528418Y189381D01*
X528591Y188734D01*
X528591Y182899D01*
X523149Y182899D01*
G37*
%LPD*%
%LPC*%
G36*
X523149Y169059D02*
X523149Y169059D01*
X523149Y177101D01*
X528591Y177101D01*
X528591Y171266D01*
X528418Y170619D01*
X528083Y170040D01*
X527610Y169567D01*
X527031Y169232D01*
X526384Y169059D01*
X523149Y169059D01*
G37*
%LPD*%
%LPC*%
G36*
X511909Y182899D02*
X511909Y182899D01*
X511909Y188734D01*
X512082Y189381D01*
X512417Y189960D01*
X512890Y190433D01*
X513469Y190768D01*
X514116Y190941D01*
X517351Y190941D01*
X517351Y182899D01*
X511909Y182899D01*
G37*
%LPD*%
%LPC*%
G36*
X514116Y169059D02*
X514116Y169059D01*
X513469Y169232D01*
X512890Y169567D01*
X512417Y170040D01*
X512082Y170619D01*
X511909Y171266D01*
X511909Y177101D01*
X517351Y177101D01*
X517351Y169059D01*
X514116Y169059D01*
G37*
%LPD*%
%LPC*%
G36*
X637749Y78749D02*
X637749Y78749D01*
X637749Y84041D01*
X641334Y84041D01*
X641981Y83868D01*
X642560Y83533D01*
X643033Y83060D01*
X643368Y82481D01*
X643541Y81834D01*
X643541Y78749D01*
X637749Y78749D01*
G37*
%LPD*%
%LPC*%
G36*
X626459Y78749D02*
X626459Y78749D01*
X626459Y81834D01*
X626632Y82481D01*
X626967Y83060D01*
X627440Y83533D01*
X628019Y83868D01*
X628666Y84041D01*
X632251Y84041D01*
X632251Y78749D01*
X626459Y78749D01*
G37*
%LPD*%
%LPC*%
G36*
X637749Y67959D02*
X637749Y67959D01*
X637749Y73251D01*
X643541Y73251D01*
X643541Y70166D01*
X643368Y69519D01*
X643033Y68940D01*
X642560Y68467D01*
X641981Y68132D01*
X641334Y67959D01*
X637749Y67959D01*
G37*
%LPD*%
%LPC*%
G36*
X628666Y67959D02*
X628666Y67959D01*
X628019Y68132D01*
X627440Y68467D01*
X626967Y68940D01*
X626632Y69519D01*
X626459Y70166D01*
X626459Y73251D01*
X632251Y73251D01*
X632251Y67959D01*
X628666Y67959D01*
G37*
%LPD*%
%LPC*%
G36*
X483370Y78173D02*
X483370Y78173D01*
X483338Y78306D01*
X483303Y78385D01*
X483276Y78468D01*
X483212Y78589D01*
X483157Y78714D01*
X483108Y78786D01*
X483067Y78863D01*
X482983Y78971D01*
X482906Y79084D01*
X482814Y79185D01*
X482791Y79214D01*
X482773Y79230D01*
X482740Y79267D01*
X482567Y79440D01*
X482232Y80019D01*
X482059Y80666D01*
X482059Y83626D01*
X487376Y83626D01*
X487376Y78459D01*
X484647Y78459D01*
X484510Y78447D01*
X484374Y78444D01*
X484288Y78427D01*
X484202Y78419D01*
X484070Y78383D01*
X483936Y78356D01*
X483855Y78324D01*
X483771Y78301D01*
X483648Y78242D01*
X483520Y78191D01*
X483447Y78145D01*
X483388Y78117D01*
X483370Y78173D01*
G37*
%LPD*%
%LPC*%
G36*
X582624Y78459D02*
X582624Y78459D01*
X582624Y83626D01*
X587941Y83626D01*
X587941Y80666D01*
X587768Y80019D01*
X587433Y79440D01*
X586960Y78967D01*
X586381Y78632D01*
X585734Y78459D01*
X582624Y78459D01*
G37*
%LPD*%
%LPC*%
G36*
X548499Y156999D02*
X548499Y156999D01*
X548499Y160041D01*
X551584Y160041D01*
X552231Y159868D01*
X552810Y159533D01*
X553283Y159060D01*
X553618Y158481D01*
X553791Y157834D01*
X553791Y156999D01*
X548499Y156999D01*
G37*
%LPD*%
%LPC*%
G36*
X538209Y156999D02*
X538209Y156999D01*
X538209Y157834D01*
X538382Y158481D01*
X538717Y159060D01*
X539190Y159533D01*
X539769Y159868D01*
X540416Y160041D01*
X543501Y160041D01*
X543501Y156999D01*
X538209Y156999D01*
G37*
%LPD*%
%LPC*%
G36*
X548499Y148959D02*
X548499Y148959D01*
X548499Y152001D01*
X553791Y152001D01*
X553791Y151166D01*
X553618Y150519D01*
X553283Y149940D01*
X552810Y149467D01*
X552231Y149132D01*
X551584Y148959D01*
X548499Y148959D01*
G37*
%LPD*%
%LPC*%
G36*
X540416Y148959D02*
X540416Y148959D01*
X539769Y149132D01*
X539190Y149467D01*
X538717Y149940D01*
X538382Y150519D01*
X538209Y151166D01*
X538209Y152001D01*
X543501Y152001D01*
X543501Y148959D01*
X540416Y148959D01*
G37*
%LPD*%
%LPC*%
G36*
X667499Y85249D02*
X667499Y85249D01*
X667499Y87541D01*
X670334Y87541D01*
X670981Y87368D01*
X671560Y87033D01*
X672033Y86560D01*
X672368Y85981D01*
X672541Y85334D01*
X672541Y85249D01*
X667499Y85249D01*
G37*
%LPD*%
%LPC*%
G36*
X667499Y34749D02*
X667499Y34749D01*
X667499Y37041D01*
X670334Y37041D01*
X670981Y36868D01*
X671560Y36533D01*
X672033Y36060D01*
X672368Y35481D01*
X672541Y34834D01*
X672541Y34749D01*
X667499Y34749D01*
G37*
%LPD*%
%LPC*%
G36*
X657459Y85249D02*
X657459Y85249D01*
X657459Y85334D01*
X657632Y85981D01*
X657967Y86560D01*
X658440Y87033D01*
X659019Y87368D01*
X659666Y87541D01*
X662501Y87541D01*
X662501Y85249D01*
X657459Y85249D01*
G37*
%LPD*%
%LPC*%
G36*
X657459Y34749D02*
X657459Y34749D01*
X657459Y34834D01*
X657632Y35481D01*
X657967Y36060D01*
X658440Y36533D01*
X659019Y36868D01*
X659666Y37041D01*
X662501Y37041D01*
X662501Y34749D01*
X657459Y34749D01*
G37*
%LPD*%
%LPC*%
G36*
X667499Y77959D02*
X667499Y77959D01*
X667499Y80251D01*
X672541Y80251D01*
X672541Y80166D01*
X672368Y79519D01*
X672033Y78940D01*
X671560Y78467D01*
X670981Y78132D01*
X670334Y77959D01*
X667499Y77959D01*
G37*
%LPD*%
%LPC*%
G36*
X667499Y27459D02*
X667499Y27459D01*
X667499Y29751D01*
X672541Y29751D01*
X672541Y29666D01*
X672368Y29019D01*
X672033Y28440D01*
X671560Y27967D01*
X670981Y27632D01*
X670334Y27459D01*
X667499Y27459D01*
G37*
%LPD*%
%LPC*%
G36*
X659666Y77959D02*
X659666Y77959D01*
X659019Y78132D01*
X658440Y78467D01*
X657967Y78940D01*
X657632Y79519D01*
X657459Y80166D01*
X657459Y80251D01*
X662501Y80251D01*
X662501Y77959D01*
X659666Y77959D01*
G37*
%LPD*%
%LPC*%
G36*
X659666Y27459D02*
X659666Y27459D01*
X659019Y27632D01*
X658440Y27967D01*
X657967Y28440D01*
X657632Y29019D01*
X657459Y29666D01*
X657459Y29751D01*
X662501Y29751D01*
X662501Y27459D01*
X659666Y27459D01*
G37*
%LPD*%
D10*
X285000Y170000D03*
X305000Y170000D03*
D11*
X580000Y103750D03*
X580000Y86250D03*
X490000Y103750D03*
X490000Y86250D03*
D12*
X462926Y62000D03*
X462926Y70000D03*
X462926Y78000D03*
X462926Y86000D03*
X462926Y94000D03*
X462926Y102000D03*
X462926Y110000D03*
X462926Y118000D03*
D13*
X448000Y132926D03*
X440000Y132926D03*
X432000Y132926D03*
X424000Y132926D03*
X416000Y132926D03*
X408000Y132926D03*
X400000Y132926D03*
X392000Y132926D03*
D12*
X377074Y118000D03*
X377074Y110000D03*
X377074Y102000D03*
X377074Y94000D03*
X377074Y86000D03*
X377074Y78000D03*
X377074Y70000D03*
X377074Y62000D03*
D13*
X392000Y47074D03*
X400000Y47074D03*
X408000Y47074D03*
X416000Y47074D03*
X424000Y47074D03*
X432000Y47074D03*
X440000Y47074D03*
X448000Y47074D03*
D14*
X546000Y135500D03*
X546000Y154500D03*
X524000Y145000D03*
D15*
X513500Y95000D03*
X556500Y95000D03*
D16*
X704960Y101250D03*
X704960Y113750D03*
X704960Y126250D03*
X704960Y138750D03*
X704960Y151250D03*
X704960Y163750D03*
X704960Y176250D03*
X704960Y188750D03*
D17*
X733960Y214250D03*
X733960Y75750D03*
D18*
X248620Y119600D02*
X233380Y119600D01*
X233380Y145000D02*
X248620Y145000D01*
X248620Y170400D02*
X233380Y170400D01*
D19*
X368750Y207000D03*
X356250Y207000D03*
X343750Y207000D03*
X331250Y207000D03*
X318750Y207000D03*
X306250Y207000D03*
X293750Y207000D03*
X281250Y207000D03*
X268750Y207000D03*
X256250Y207000D03*
X243750Y207000D03*
X231250Y207000D03*
D20*
X394250Y236000D03*
X205750Y236000D03*
D16*
X120000Y176250D03*
X120000Y163750D03*
X120000Y151250D03*
X120000Y138750D03*
X120000Y126250D03*
X120000Y113750D03*
D17*
X91000Y201750D03*
X91000Y88250D03*
D21*
X280250Y50000D03*
X309750Y50000D03*
X549750Y180000D03*
X520250Y180000D03*
X659750Y245000D03*
X630250Y245000D03*
X309750Y110000D03*
X280250Y110000D03*
X280250Y80000D03*
X309750Y80000D03*
D22*
X695000Y76000D03*
X695000Y39000D03*
X635000Y76000D03*
X635000Y39000D03*
D23*
X665000Y82750D03*
X665000Y32250D03*
D24*
X275000Y260000D03*
X325000Y260000D03*
D25*
X659750Y245000D02*
X687500Y245000D01*
D24*
X687500Y245000D03*
X241250Y190000D03*
X745000Y175000D03*
D26*
X483750Y110000D02*
X462926Y110000D01*
X483750Y110000D02*
X490000Y103750D01*
D25*
X504750Y103750D01*
D26*
X513500Y95000D01*
D25*
X565250Y103750D02*
X580000Y103750D01*
D26*
X565250Y103750D02*
X556500Y95000D01*
X555000Y95000D01*
X532000Y118000D02*
X462926Y118000D01*
X532000Y118000D02*
X555000Y95000D01*
D24*
X350000Y260000D03*
X745000Y100000D03*
X745000Y150000D03*
D26*
X331250Y200000D02*
X331250Y207000D01*
X424000Y47074D02*
X424000Y25000D01*
D24*
X745000Y45000D03*
D25*
X305000Y124750D02*
X305000Y170000D01*
X309750Y120000D02*
X309750Y110000D01*
X309750Y120000D02*
X305000Y124750D01*
X745000Y150000D02*
X755000Y140000D01*
X755000Y112500D02*
X745000Y100000D01*
X755000Y112500D02*
X755000Y140000D01*
X350000Y260000D02*
X331250Y241250D01*
X331250Y207000D01*
X331250Y186250D02*
X315000Y170000D01*
X305000Y170000D01*
X331250Y186250D02*
X331250Y200000D01*
X680000Y12665D02*
X695000Y27665D01*
X695000Y39000D01*
D26*
X680000Y12665D02*
X436335Y12665D01*
X424000Y25000D01*
D25*
X695000Y39000D02*
X739000Y39000D01*
X745000Y45000D01*
X760000Y200000D02*
X760000Y259500D01*
D26*
X462926Y86000D02*
X450000Y86000D01*
X450000Y102000D02*
X462926Y102000D01*
X450000Y102000D02*
X450000Y94000D01*
X450000Y86000D01*
X410000Y94000D02*
X377074Y94000D01*
X410000Y94000D02*
X450000Y94000D01*
X410000Y110000D02*
X377074Y110000D01*
X410000Y110000D02*
X410000Y94000D01*
D27*
X337500Y145000D03*
D26*
X332500Y110000D02*
X377074Y110000D01*
D25*
X337500Y145000D02*
X332500Y140000D01*
X332500Y110000D01*
D26*
X268750Y207000D02*
X268750Y215000D01*
D25*
X268750Y207000D02*
X268750Y136500D01*
X332500Y110000D02*
X332500Y80000D01*
X332500Y60000D01*
X268750Y215000D02*
X268750Y225000D01*
X306250Y207000D02*
X306250Y262500D01*
X741665Y277835D02*
X760000Y259500D01*
X741665Y277835D02*
X321585Y277835D01*
X704960Y188750D02*
X748750Y188750D01*
X760000Y200000D01*
X332500Y60000D02*
X322500Y50000D01*
X309750Y50000D01*
X309750Y80000D02*
X332500Y80000D01*
X268750Y225000D02*
X306250Y262500D01*
X141250Y151250D02*
X120000Y151250D01*
X141250Y151250D02*
X155000Y165000D01*
X155000Y260000D01*
X306250Y262500D02*
X321585Y277835D01*
X172835Y277835D01*
X155000Y260000D01*
X280250Y110000D02*
X295000Y95250D01*
X295000Y94750D02*
X309750Y80000D01*
X295000Y94750D02*
X295000Y95250D01*
X251850Y119600D02*
X241000Y119600D01*
X251850Y119600D02*
X268750Y136500D01*
X280250Y119750D02*
X280250Y110000D01*
X280250Y119750D02*
X268750Y131250D01*
X268750Y136500D01*
X281250Y173750D02*
X281250Y207000D01*
X281250Y173750D02*
X285000Y170000D01*
D26*
X462926Y62000D02*
X473000Y62000D01*
D24*
X560000Y40000D03*
X605000Y40000D03*
D25*
X545000Y52500D02*
X482500Y52500D01*
D26*
X473000Y62000D01*
D28*
X585000Y140780D02*
X590390Y135390D01*
X601752Y124028D01*
X601752Y43248D01*
X605000Y40000D01*
X570000Y180000D02*
X549750Y180000D01*
X570000Y180000D02*
X585000Y165000D01*
X585000Y140780D01*
D25*
X590280Y135500D02*
X546000Y135500D01*
X590280Y135500D02*
X590390Y135390D01*
X545000Y52500D02*
X557500Y40000D01*
X560000Y40000D01*
D26*
X424000Y132926D02*
X424000Y205000D01*
D24*
X592500Y245000D03*
D25*
X630250Y245000D01*
D26*
X464000Y245000D02*
X424000Y205000D01*
D25*
X464000Y245000D02*
X592500Y245000D01*
D24*
X520000Y40000D03*
X250000Y260000D03*
D26*
X432000Y47074D02*
X432000Y30000D01*
D25*
X243750Y253750D02*
X250000Y260000D01*
X243750Y253750D02*
X243750Y207000D01*
D26*
X502000Y22000D02*
X520000Y40000D01*
X502000Y22000D02*
X440000Y22000D01*
X432000Y30000D01*
X440000Y35000D02*
X440000Y47074D01*
D24*
X495000Y40000D03*
X225000Y260000D03*
D25*
X231250Y253750D01*
X231250Y207000D01*
D26*
X440000Y35000D02*
X445000Y30000D01*
X485000Y30000D02*
X495000Y40000D01*
X485000Y30000D02*
X445000Y30000D01*
X392000Y132926D02*
X392000Y154250D01*
X356250Y190000D01*
D25*
X356250Y207000D01*
X343750Y207000D02*
X343750Y186250D01*
D26*
X370000Y160000D01*
X370000Y118000D01*
X377074Y118000D01*
X416000Y132926D02*
X416000Y215000D01*
D24*
X725000Y150000D03*
X687500Y262500D03*
D26*
X463500Y262500D02*
X416000Y215000D01*
D25*
X463500Y262500D02*
X687500Y262500D01*
X704960Y163750D02*
X716250Y163750D01*
X725000Y155000D02*
X725000Y150000D01*
X725000Y155000D02*
X716250Y163750D01*
D26*
X432000Y132926D02*
X432000Y195000D01*
D25*
X695000Y151250D02*
X704960Y151250D01*
D26*
X464500Y227500D02*
X432000Y195000D01*
D25*
X674843Y227500D02*
X687500Y214843D01*
X687500Y158750D02*
X695000Y151250D01*
X687500Y158750D02*
X687500Y214843D01*
X674843Y227500D02*
X464500Y227500D01*
D26*
X448000Y47074D02*
X448000Y40000D01*
D24*
X470000Y40000D03*
D26*
X448000Y40000D01*
D24*
X725000Y125000D03*
D25*
X719404Y113750D02*
X704960Y113750D01*
X725000Y119346D02*
X725000Y125000D01*
X725000Y119346D02*
X719404Y113750D01*
D26*
X448000Y132926D02*
X448000Y174000D01*
X477000Y203000D01*
D25*
X584500Y203000D01*
X608750Y178750D01*
X608750Y146250D01*
X628750Y126250D02*
X704960Y126250D01*
X628750Y126250D02*
X608750Y146250D01*
D26*
X440000Y132926D02*
X440000Y185000D01*
D25*
X687500Y138750D02*
X704960Y138750D01*
D26*
X470000Y215000D02*
X440000Y185000D01*
D25*
X673000Y153250D02*
X687500Y138750D01*
X610000Y215000D02*
X470000Y215000D01*
X610000Y215000D02*
X657500Y215000D01*
X673000Y199500D01*
X673000Y153250D01*
D24*
X725000Y100000D03*
D26*
X480000Y70000D02*
X462926Y70000D01*
X480000Y70000D02*
X485000Y65000D01*
D24*
X575000Y25000D03*
D25*
X570000Y65000D02*
X485000Y65000D01*
X704960Y101250D02*
X723750Y101250D01*
X725000Y100000D01*
X575000Y60000D02*
X570000Y65000D01*
X575000Y60000D02*
X575000Y25000D01*
D26*
X400000Y163750D02*
X368750Y195000D01*
X400000Y163750D02*
X400000Y132926D01*
D25*
X368750Y195000D02*
X368750Y207000D01*
X97335Y12665D02*
X65000Y45000D01*
X97335Y12665D02*
X398665Y12665D01*
X120000Y126250D02*
X80000Y126250D01*
X65000Y111250D01*
X65000Y45000D01*
X120000Y126250D02*
X140000Y126250D01*
X155000Y111250D01*
X160000Y80000D02*
X280250Y80000D01*
X160000Y80000D02*
X155000Y85000D01*
X155000Y111250D01*
X120000Y176250D02*
X76250Y176250D01*
X65000Y165000D01*
X65000Y111250D01*
D24*
X140000Y240000D03*
D25*
X85000Y240000D01*
X65000Y220000D01*
X65000Y165000D01*
D26*
X398665Y12665D02*
X402665Y12665D01*
X416000Y26000D02*
X416000Y47074D01*
X416000Y26000D02*
X402665Y12665D01*
D25*
X280250Y50000D02*
X155000Y50000D01*
X290000Y25000D02*
X395000Y25000D01*
X131250Y113750D02*
X120000Y113750D01*
X131250Y113750D02*
X140000Y105000D01*
X140000Y65000D02*
X155000Y50000D01*
X140000Y70000D02*
X140000Y105000D01*
X140000Y70000D02*
X140000Y65000D01*
X280250Y50000D02*
X280250Y34750D01*
X290000Y25000D01*
D24*
X140000Y70000D03*
X140000Y220000D03*
D25*
X133750Y163750D02*
X120000Y163750D01*
X133750Y163750D02*
X140000Y170000D01*
X140000Y220000D01*
D26*
X395000Y25000D02*
X398000Y25000D01*
X404343Y25657D02*
X408000Y29314D01*
X404343Y25657D02*
X398657Y25657D01*
X398000Y25000D01*
X408000Y29314D02*
X408000Y47074D01*
D27*
X487500Y145000D03*
D29*
X524000Y145000D01*
M02*
