M48
;GenerationSoftware,Autodesk,EAGLE,9.1.0*%
;CreationDate,2020-08-17T16:32:53Z*%
FMAT,2
ICI,OFF
METRIC,TZ,000.000
T3C0.350
T2C1.016
T1C1.800
%
G90
M71
T1
X33750Y14500
X48750Y14500
T2
X24100Y11960
X24100Y14500
X24100Y17040
T3
X27500Y26000
X32500Y26000
X68750Y24500
X24125Y19000
X74500Y17500
X35000Y26000
X74500Y10000
X74500Y15000
X74500Y4500
X56000Y4000
X60500Y4000
X59250Y24500
X52000Y4000
X25000Y26000
X49500Y4000
X22500Y26000
X72500Y15000
X68750Y26250
X47000Y4000
X72500Y12500
X72500Y10000
X57500Y2500
X14000Y24000
X14000Y7000
X14000Y22000
M30