G04 EAGLE Gerber X2 export*
%TF.Part,Single*%
%TF.FileFunction,Legend,Top,1*%
%TF.FilePolarity,Positive*%
%TF.GenerationSoftware,Autodesk,EAGLE,9.1.0*%
%TF.CreationDate,2020-08-17T16:32:54Z*%
G75*
%MOMM*%
%FSLAX34Y34*%
%LPD*%
%AMOC8*
5,1,8,0,0,1.08239X$1,22.5*%
G01*
%ADD10C,0.101600*%
%ADD11C,0.203200*%
%ADD12C,0.254000*%
%ADD13C,0.200000*%
%ADD14C,0.127000*%
%ADD15C,0.152400*%
%ADD16C,0.100000*%
%ADD17C,0.300000*%
%ADD18C,0.300000*%
%ADD19C,0.200000*%


D10*
X290701Y149258D02*
X288104Y149258D01*
X288005Y149260D01*
X287905Y149266D01*
X287806Y149275D01*
X287708Y149288D01*
X287610Y149305D01*
X287512Y149326D01*
X287416Y149351D01*
X287321Y149379D01*
X287227Y149411D01*
X287134Y149446D01*
X287042Y149485D01*
X286952Y149528D01*
X286864Y149573D01*
X286777Y149623D01*
X286693Y149675D01*
X286610Y149731D01*
X286530Y149789D01*
X286452Y149851D01*
X286377Y149916D01*
X286304Y149984D01*
X286234Y150054D01*
X286166Y150127D01*
X286101Y150202D01*
X286039Y150280D01*
X285981Y150360D01*
X285925Y150443D01*
X285873Y150527D01*
X285823Y150614D01*
X285778Y150702D01*
X285735Y150792D01*
X285696Y150884D01*
X285661Y150977D01*
X285629Y151071D01*
X285601Y151166D01*
X285576Y151262D01*
X285555Y151360D01*
X285538Y151458D01*
X285525Y151556D01*
X285516Y151655D01*
X285510Y151755D01*
X285508Y151854D01*
X285508Y158346D01*
X285510Y158445D01*
X285516Y158545D01*
X285525Y158644D01*
X285538Y158742D01*
X285555Y158840D01*
X285576Y158938D01*
X285601Y159034D01*
X285629Y159129D01*
X285661Y159223D01*
X285696Y159316D01*
X285735Y159408D01*
X285778Y159498D01*
X285823Y159586D01*
X285873Y159673D01*
X285925Y159757D01*
X285981Y159840D01*
X286039Y159920D01*
X286101Y159998D01*
X286166Y160073D01*
X286234Y160146D01*
X286304Y160216D01*
X286377Y160284D01*
X286452Y160349D01*
X286530Y160411D01*
X286610Y160469D01*
X286693Y160525D01*
X286777Y160577D01*
X286864Y160627D01*
X286952Y160672D01*
X287042Y160715D01*
X287134Y160754D01*
X287226Y160789D01*
X287321Y160821D01*
X287416Y160849D01*
X287512Y160874D01*
X287610Y160895D01*
X287708Y160912D01*
X287806Y160925D01*
X287905Y160934D01*
X288005Y160940D01*
X288104Y160942D01*
X290701Y160942D01*
X295066Y158346D02*
X298312Y160942D01*
X298312Y149258D01*
X301557Y149258D02*
X295066Y149258D01*
X575104Y62008D02*
X577701Y62008D01*
X575104Y62008D02*
X575005Y62010D01*
X574905Y62016D01*
X574806Y62025D01*
X574708Y62038D01*
X574610Y62055D01*
X574512Y62076D01*
X574416Y62101D01*
X574321Y62129D01*
X574227Y62161D01*
X574134Y62196D01*
X574042Y62235D01*
X573952Y62278D01*
X573864Y62323D01*
X573777Y62373D01*
X573693Y62425D01*
X573610Y62481D01*
X573530Y62539D01*
X573452Y62601D01*
X573377Y62666D01*
X573304Y62734D01*
X573234Y62804D01*
X573166Y62877D01*
X573101Y62952D01*
X573039Y63030D01*
X572981Y63110D01*
X572925Y63193D01*
X572873Y63277D01*
X572823Y63364D01*
X572778Y63452D01*
X572735Y63542D01*
X572696Y63634D01*
X572661Y63727D01*
X572629Y63821D01*
X572601Y63916D01*
X572576Y64012D01*
X572555Y64110D01*
X572538Y64208D01*
X572525Y64306D01*
X572516Y64405D01*
X572510Y64505D01*
X572508Y64604D01*
X572508Y71096D01*
X572510Y71195D01*
X572516Y71295D01*
X572525Y71394D01*
X572538Y71492D01*
X572555Y71590D01*
X572576Y71688D01*
X572601Y71784D01*
X572629Y71879D01*
X572661Y71973D01*
X572696Y72066D01*
X572735Y72158D01*
X572778Y72248D01*
X572823Y72336D01*
X572873Y72423D01*
X572925Y72507D01*
X572981Y72590D01*
X573039Y72670D01*
X573101Y72748D01*
X573166Y72823D01*
X573234Y72896D01*
X573304Y72966D01*
X573377Y73034D01*
X573452Y73099D01*
X573530Y73161D01*
X573610Y73219D01*
X573693Y73275D01*
X573777Y73327D01*
X573864Y73377D01*
X573952Y73422D01*
X574042Y73465D01*
X574134Y73504D01*
X574226Y73539D01*
X574321Y73571D01*
X574416Y73599D01*
X574512Y73624D01*
X574610Y73645D01*
X574708Y73662D01*
X574806Y73675D01*
X574905Y73684D01*
X575005Y73690D01*
X575104Y73692D01*
X577701Y73692D01*
X582066Y62008D02*
X585312Y62008D01*
X585425Y62010D01*
X585538Y62016D01*
X585651Y62026D01*
X585764Y62040D01*
X585876Y62057D01*
X585987Y62079D01*
X586097Y62104D01*
X586207Y62134D01*
X586315Y62167D01*
X586422Y62204D01*
X586528Y62244D01*
X586632Y62289D01*
X586735Y62337D01*
X586836Y62388D01*
X586935Y62443D01*
X587032Y62501D01*
X587127Y62563D01*
X587220Y62628D01*
X587310Y62696D01*
X587398Y62767D01*
X587484Y62842D01*
X587567Y62919D01*
X587647Y62999D01*
X587724Y63082D01*
X587799Y63168D01*
X587870Y63256D01*
X587938Y63346D01*
X588003Y63439D01*
X588065Y63534D01*
X588123Y63631D01*
X588178Y63730D01*
X588229Y63831D01*
X588277Y63934D01*
X588322Y64038D01*
X588362Y64144D01*
X588399Y64251D01*
X588432Y64359D01*
X588462Y64469D01*
X588487Y64579D01*
X588509Y64690D01*
X588526Y64802D01*
X588540Y64915D01*
X588550Y65028D01*
X588556Y65141D01*
X588558Y65254D01*
X588556Y65367D01*
X588550Y65480D01*
X588540Y65593D01*
X588526Y65706D01*
X588509Y65818D01*
X588487Y65929D01*
X588462Y66039D01*
X588432Y66149D01*
X588399Y66257D01*
X588362Y66364D01*
X588322Y66470D01*
X588277Y66574D01*
X588229Y66677D01*
X588178Y66778D01*
X588123Y66877D01*
X588065Y66974D01*
X588003Y67069D01*
X587938Y67162D01*
X587870Y67252D01*
X587799Y67340D01*
X587724Y67426D01*
X587647Y67509D01*
X587567Y67589D01*
X587484Y67666D01*
X587398Y67741D01*
X587310Y67812D01*
X587220Y67880D01*
X587127Y67945D01*
X587032Y68007D01*
X586935Y68065D01*
X586836Y68120D01*
X586735Y68171D01*
X586632Y68219D01*
X586528Y68264D01*
X586422Y68304D01*
X586315Y68341D01*
X586207Y68374D01*
X586097Y68404D01*
X585987Y68429D01*
X585876Y68451D01*
X585764Y68468D01*
X585651Y68482D01*
X585538Y68492D01*
X585425Y68498D01*
X585312Y68500D01*
X585961Y73692D02*
X582066Y73692D01*
X585961Y73692D02*
X586062Y73690D01*
X586162Y73684D01*
X586262Y73674D01*
X586362Y73661D01*
X586461Y73643D01*
X586560Y73622D01*
X586657Y73597D01*
X586754Y73568D01*
X586849Y73535D01*
X586943Y73499D01*
X587035Y73459D01*
X587126Y73416D01*
X587215Y73369D01*
X587302Y73319D01*
X587388Y73265D01*
X587471Y73208D01*
X587551Y73148D01*
X587630Y73085D01*
X587706Y73018D01*
X587779Y72949D01*
X587849Y72877D01*
X587917Y72803D01*
X587982Y72726D01*
X588043Y72646D01*
X588102Y72564D01*
X588157Y72480D01*
X588209Y72394D01*
X588258Y72306D01*
X588303Y72216D01*
X588345Y72124D01*
X588383Y72031D01*
X588417Y71936D01*
X588448Y71841D01*
X588475Y71744D01*
X588498Y71646D01*
X588518Y71547D01*
X588533Y71447D01*
X588545Y71347D01*
X588553Y71247D01*
X588557Y71146D01*
X588557Y71046D01*
X588553Y70945D01*
X588545Y70845D01*
X588533Y70745D01*
X588518Y70645D01*
X588498Y70546D01*
X588475Y70448D01*
X588448Y70351D01*
X588417Y70256D01*
X588383Y70161D01*
X588345Y70068D01*
X588303Y69976D01*
X588258Y69886D01*
X588209Y69798D01*
X588157Y69712D01*
X588102Y69628D01*
X588043Y69546D01*
X587982Y69466D01*
X587917Y69389D01*
X587849Y69315D01*
X587779Y69243D01*
X587706Y69174D01*
X587630Y69107D01*
X587551Y69044D01*
X587471Y68984D01*
X587388Y68927D01*
X587302Y68873D01*
X587215Y68823D01*
X587126Y68776D01*
X587035Y68733D01*
X586943Y68693D01*
X586849Y68657D01*
X586754Y68624D01*
X586657Y68595D01*
X586560Y68570D01*
X586461Y68549D01*
X586362Y68531D01*
X586262Y68518D01*
X586162Y68508D01*
X586062Y68502D01*
X585961Y68500D01*
X585961Y68499D02*
X583364Y68499D01*
X487701Y62008D02*
X485104Y62008D01*
X485005Y62010D01*
X484905Y62016D01*
X484806Y62025D01*
X484708Y62038D01*
X484610Y62055D01*
X484512Y62076D01*
X484416Y62101D01*
X484321Y62129D01*
X484227Y62161D01*
X484134Y62196D01*
X484042Y62235D01*
X483952Y62278D01*
X483864Y62323D01*
X483777Y62373D01*
X483693Y62425D01*
X483610Y62481D01*
X483530Y62539D01*
X483452Y62601D01*
X483377Y62666D01*
X483304Y62734D01*
X483234Y62804D01*
X483166Y62877D01*
X483101Y62952D01*
X483039Y63030D01*
X482981Y63110D01*
X482925Y63193D01*
X482873Y63277D01*
X482823Y63364D01*
X482778Y63452D01*
X482735Y63542D01*
X482696Y63634D01*
X482661Y63727D01*
X482629Y63821D01*
X482601Y63916D01*
X482576Y64012D01*
X482555Y64110D01*
X482538Y64208D01*
X482525Y64306D01*
X482516Y64405D01*
X482510Y64505D01*
X482508Y64604D01*
X482508Y71096D01*
X482510Y71195D01*
X482516Y71295D01*
X482525Y71394D01*
X482538Y71492D01*
X482555Y71590D01*
X482576Y71688D01*
X482601Y71784D01*
X482629Y71879D01*
X482661Y71973D01*
X482696Y72066D01*
X482735Y72158D01*
X482778Y72248D01*
X482823Y72336D01*
X482873Y72423D01*
X482925Y72507D01*
X482981Y72590D01*
X483039Y72670D01*
X483101Y72748D01*
X483166Y72823D01*
X483234Y72896D01*
X483304Y72966D01*
X483377Y73034D01*
X483452Y73099D01*
X483530Y73161D01*
X483610Y73219D01*
X483693Y73275D01*
X483777Y73327D01*
X483864Y73377D01*
X483952Y73422D01*
X484042Y73465D01*
X484134Y73504D01*
X484226Y73539D01*
X484321Y73571D01*
X484416Y73599D01*
X484512Y73624D01*
X484610Y73645D01*
X484708Y73662D01*
X484806Y73675D01*
X484905Y73684D01*
X485005Y73690D01*
X485104Y73692D01*
X487701Y73692D01*
X495636Y73692D02*
X495743Y73690D01*
X495849Y73684D01*
X495955Y73674D01*
X496061Y73661D01*
X496167Y73643D01*
X496271Y73622D01*
X496375Y73597D01*
X496478Y73568D01*
X496579Y73536D01*
X496679Y73499D01*
X496778Y73459D01*
X496876Y73416D01*
X496972Y73369D01*
X497066Y73318D01*
X497158Y73264D01*
X497248Y73207D01*
X497336Y73147D01*
X497421Y73083D01*
X497504Y73016D01*
X497585Y72946D01*
X497663Y72874D01*
X497739Y72798D01*
X497811Y72720D01*
X497881Y72639D01*
X497948Y72556D01*
X498012Y72471D01*
X498072Y72383D01*
X498129Y72293D01*
X498183Y72201D01*
X498234Y72107D01*
X498281Y72011D01*
X498324Y71913D01*
X498364Y71814D01*
X498401Y71714D01*
X498433Y71613D01*
X498462Y71510D01*
X498487Y71406D01*
X498508Y71302D01*
X498526Y71196D01*
X498539Y71090D01*
X498549Y70984D01*
X498555Y70878D01*
X498557Y70771D01*
X495636Y73692D02*
X495515Y73690D01*
X495394Y73684D01*
X495274Y73674D01*
X495153Y73661D01*
X495034Y73643D01*
X494914Y73622D01*
X494796Y73597D01*
X494679Y73568D01*
X494562Y73535D01*
X494447Y73499D01*
X494333Y73458D01*
X494220Y73415D01*
X494108Y73367D01*
X493999Y73316D01*
X493891Y73261D01*
X493784Y73203D01*
X493680Y73142D01*
X493578Y73077D01*
X493478Y73009D01*
X493380Y72938D01*
X493284Y72864D01*
X493191Y72787D01*
X493101Y72706D01*
X493013Y72623D01*
X492928Y72537D01*
X492845Y72448D01*
X492766Y72357D01*
X492689Y72263D01*
X492616Y72167D01*
X492546Y72069D01*
X492479Y71968D01*
X492415Y71865D01*
X492355Y71760D01*
X492298Y71653D01*
X492244Y71545D01*
X492194Y71435D01*
X492148Y71323D01*
X492105Y71210D01*
X492066Y71095D01*
X497584Y68499D02*
X497663Y68576D01*
X497739Y68657D01*
X497812Y68740D01*
X497882Y68825D01*
X497949Y68913D01*
X498013Y69003D01*
X498073Y69095D01*
X498130Y69190D01*
X498184Y69286D01*
X498235Y69384D01*
X498282Y69484D01*
X498326Y69586D01*
X498366Y69689D01*
X498402Y69793D01*
X498434Y69899D01*
X498463Y70005D01*
X498488Y70113D01*
X498510Y70221D01*
X498527Y70331D01*
X498541Y70440D01*
X498550Y70550D01*
X498556Y70661D01*
X498558Y70771D01*
X497584Y68499D02*
X492066Y62008D01*
X498557Y62008D01*
D11*
X384950Y54950D02*
X384950Y125050D01*
X455050Y125050D01*
X455050Y58500D01*
X451500Y54950D02*
X384950Y54950D01*
X451500Y54950D02*
X455050Y58500D01*
X455052Y53170D02*
X455054Y53248D01*
X455060Y53325D01*
X455070Y53403D01*
X455084Y53479D01*
X455101Y53555D01*
X455123Y53630D01*
X455148Y53703D01*
X455177Y53776D01*
X455210Y53846D01*
X455247Y53915D01*
X455286Y53982D01*
X455329Y54047D01*
X455376Y54109D01*
X455425Y54169D01*
X455478Y54227D01*
X455533Y54281D01*
X455591Y54333D01*
X455652Y54382D01*
X455715Y54428D01*
X455781Y54470D01*
X455848Y54509D01*
X455917Y54544D01*
X455988Y54576D01*
X456061Y54604D01*
X456135Y54629D01*
X456210Y54649D01*
X456286Y54666D01*
X456363Y54679D01*
X456440Y54688D01*
X456518Y54693D01*
X456595Y54694D01*
X456673Y54691D01*
X456751Y54684D01*
X456828Y54673D01*
X456904Y54658D01*
X456980Y54640D01*
X457054Y54617D01*
X457128Y54591D01*
X457199Y54561D01*
X457270Y54527D01*
X457338Y54490D01*
X457404Y54449D01*
X457469Y54405D01*
X457531Y54358D01*
X457590Y54308D01*
X457647Y54254D01*
X457701Y54198D01*
X457752Y54140D01*
X457800Y54078D01*
X457845Y54015D01*
X457886Y53949D01*
X457924Y53881D01*
X457959Y53811D01*
X457990Y53740D01*
X458017Y53667D01*
X458040Y53593D01*
X458060Y53517D01*
X458076Y53441D01*
X458088Y53364D01*
X458096Y53287D01*
X458100Y53209D01*
X458100Y53131D01*
X458096Y53053D01*
X458088Y52976D01*
X458076Y52899D01*
X458060Y52823D01*
X458040Y52747D01*
X458017Y52673D01*
X457990Y52600D01*
X457959Y52529D01*
X457924Y52459D01*
X457886Y52391D01*
X457845Y52325D01*
X457800Y52262D01*
X457752Y52200D01*
X457701Y52142D01*
X457647Y52086D01*
X457590Y52032D01*
X457531Y51982D01*
X457469Y51935D01*
X457404Y51891D01*
X457338Y51850D01*
X457270Y51813D01*
X457199Y51779D01*
X457128Y51749D01*
X457054Y51723D01*
X456980Y51700D01*
X456904Y51682D01*
X456828Y51667D01*
X456751Y51656D01*
X456673Y51649D01*
X456595Y51646D01*
X456518Y51647D01*
X456440Y51652D01*
X456363Y51661D01*
X456286Y51674D01*
X456210Y51691D01*
X456135Y51711D01*
X456061Y51736D01*
X455988Y51764D01*
X455917Y51796D01*
X455848Y51831D01*
X455781Y51870D01*
X455715Y51912D01*
X455652Y51958D01*
X455591Y52007D01*
X455533Y52059D01*
X455478Y52113D01*
X455425Y52171D01*
X455376Y52231D01*
X455329Y52293D01*
X455286Y52358D01*
X455247Y52425D01*
X455210Y52494D01*
X455177Y52564D01*
X455148Y52637D01*
X455123Y52710D01*
X455101Y52785D01*
X455084Y52861D01*
X455070Y52937D01*
X455060Y53015D01*
X455054Y53092D01*
X455052Y53170D01*
D12*
X370175Y48580D02*
X370175Y38420D01*
X369046Y38420D02*
X371304Y38420D01*
X371304Y48580D02*
X369046Y48580D01*
X378696Y38420D02*
X380954Y38420D01*
X378696Y38420D02*
X378603Y38422D01*
X378510Y38428D01*
X378417Y38437D01*
X378324Y38451D01*
X378233Y38468D01*
X378142Y38489D01*
X378052Y38514D01*
X377963Y38542D01*
X377875Y38574D01*
X377789Y38610D01*
X377704Y38649D01*
X377621Y38692D01*
X377540Y38738D01*
X377461Y38788D01*
X377384Y38840D01*
X377309Y38896D01*
X377237Y38955D01*
X377167Y39017D01*
X377099Y39081D01*
X377035Y39149D01*
X376973Y39219D01*
X376914Y39291D01*
X376858Y39366D01*
X376806Y39443D01*
X376756Y39522D01*
X376710Y39603D01*
X376667Y39686D01*
X376628Y39771D01*
X376592Y39857D01*
X376560Y39945D01*
X376532Y40034D01*
X376507Y40124D01*
X376486Y40215D01*
X376469Y40306D01*
X376455Y40399D01*
X376446Y40492D01*
X376440Y40585D01*
X376438Y40678D01*
X376439Y40678D02*
X376439Y46322D01*
X376438Y46322D02*
X376440Y46415D01*
X376446Y46508D01*
X376455Y46601D01*
X376469Y46694D01*
X376486Y46785D01*
X376507Y46876D01*
X376532Y46966D01*
X376560Y47055D01*
X376592Y47143D01*
X376628Y47229D01*
X376667Y47314D01*
X376710Y47397D01*
X376756Y47478D01*
X376806Y47557D01*
X376858Y47634D01*
X376914Y47709D01*
X376973Y47781D01*
X377035Y47851D01*
X377099Y47919D01*
X377167Y47983D01*
X377237Y48045D01*
X377309Y48104D01*
X377384Y48160D01*
X377461Y48212D01*
X377540Y48262D01*
X377621Y48308D01*
X377704Y48351D01*
X377789Y48390D01*
X377875Y48426D01*
X377963Y48458D01*
X378052Y48486D01*
X378142Y48511D01*
X378233Y48532D01*
X378324Y48549D01*
X378417Y48563D01*
X378510Y48572D01*
X378603Y48578D01*
X378696Y48580D01*
X380954Y48580D01*
D13*
X532750Y130500D02*
X537250Y130500D01*
X532750Y130500D02*
X532750Y159500D01*
X537250Y159500D01*
X537250Y130500D01*
X540750Y130000D02*
X551250Y130000D01*
D10*
X560143Y139158D02*
X560143Y150842D01*
X564038Y144351D01*
X567933Y150842D01*
X567933Y139158D01*
X573366Y148246D02*
X576611Y150842D01*
X576611Y139158D01*
X573366Y139158D02*
X579857Y139158D01*
D14*
X560000Y112000D02*
X510000Y112000D01*
X510000Y78000D02*
X560000Y78000D01*
D10*
X532347Y67711D02*
X528452Y73229D01*
X532347Y67711D02*
X536242Y73229D01*
X532347Y67711D02*
X532347Y61545D01*
X540532Y70632D02*
X543777Y73229D01*
X543777Y61545D01*
X540532Y61545D02*
X547023Y61545D01*
D13*
X715000Y73100D02*
X715000Y216900D01*
X757000Y216900D02*
X757000Y73100D01*
X690352Y101510D02*
X690354Y101561D01*
X690360Y101612D01*
X690370Y101662D01*
X690383Y101711D01*
X690401Y101759D01*
X690422Y101805D01*
X690447Y101850D01*
X690475Y101893D01*
X690506Y101933D01*
X690540Y101971D01*
X690577Y102006D01*
X690617Y102038D01*
X690659Y102067D01*
X690703Y102092D01*
X690749Y102114D01*
X690797Y102133D01*
X690846Y102147D01*
X690896Y102158D01*
X690946Y102165D01*
X690997Y102168D01*
X691048Y102167D01*
X691099Y102162D01*
X691149Y102153D01*
X691199Y102140D01*
X691247Y102124D01*
X691294Y102104D01*
X691339Y102080D01*
X691382Y102053D01*
X691423Y102022D01*
X691462Y101989D01*
X691497Y101952D01*
X691530Y101913D01*
X691560Y101872D01*
X691586Y101828D01*
X691609Y101782D01*
X691628Y101735D01*
X691644Y101686D01*
X691656Y101637D01*
X691664Y101586D01*
X691668Y101536D01*
X691668Y101484D01*
X691664Y101434D01*
X691656Y101383D01*
X691644Y101334D01*
X691628Y101285D01*
X691609Y101238D01*
X691586Y101192D01*
X691560Y101148D01*
X691530Y101107D01*
X691497Y101068D01*
X691462Y101031D01*
X691423Y100998D01*
X691382Y100967D01*
X691339Y100940D01*
X691294Y100916D01*
X691247Y100896D01*
X691199Y100880D01*
X691149Y100867D01*
X691099Y100858D01*
X691048Y100853D01*
X690997Y100852D01*
X690946Y100855D01*
X690896Y100862D01*
X690846Y100873D01*
X690797Y100887D01*
X690749Y100906D01*
X690703Y100928D01*
X690659Y100953D01*
X690617Y100982D01*
X690577Y101014D01*
X690540Y101049D01*
X690506Y101087D01*
X690475Y101127D01*
X690447Y101170D01*
X690422Y101215D01*
X690401Y101261D01*
X690383Y101309D01*
X690370Y101358D01*
X690360Y101408D01*
X690354Y101459D01*
X690352Y101510D01*
D10*
X729955Y239114D02*
X729955Y248202D01*
X729955Y239114D02*
X729953Y239015D01*
X729947Y238915D01*
X729938Y238816D01*
X729925Y238718D01*
X729908Y238620D01*
X729887Y238522D01*
X729862Y238426D01*
X729834Y238331D01*
X729802Y238237D01*
X729767Y238144D01*
X729728Y238052D01*
X729685Y237962D01*
X729640Y237874D01*
X729590Y237787D01*
X729538Y237703D01*
X729482Y237620D01*
X729424Y237540D01*
X729362Y237462D01*
X729297Y237387D01*
X729229Y237314D01*
X729159Y237244D01*
X729086Y237176D01*
X729011Y237111D01*
X728933Y237049D01*
X728853Y236991D01*
X728770Y236935D01*
X728686Y236883D01*
X728599Y236833D01*
X728511Y236788D01*
X728421Y236745D01*
X728329Y236706D01*
X728236Y236671D01*
X728142Y236639D01*
X728047Y236611D01*
X727951Y236586D01*
X727853Y236565D01*
X727755Y236548D01*
X727657Y236535D01*
X727558Y236526D01*
X727458Y236520D01*
X727359Y236518D01*
X726060Y236518D01*
X738799Y248202D02*
X738906Y248200D01*
X739012Y248194D01*
X739118Y248184D01*
X739224Y248171D01*
X739330Y248153D01*
X739434Y248132D01*
X739538Y248107D01*
X739641Y248078D01*
X739742Y248046D01*
X739842Y248009D01*
X739941Y247969D01*
X740039Y247926D01*
X740135Y247879D01*
X740229Y247828D01*
X740321Y247774D01*
X740411Y247717D01*
X740499Y247657D01*
X740584Y247593D01*
X740667Y247526D01*
X740748Y247456D01*
X740826Y247384D01*
X740902Y247308D01*
X740974Y247230D01*
X741044Y247149D01*
X741111Y247066D01*
X741175Y246981D01*
X741235Y246893D01*
X741292Y246803D01*
X741346Y246711D01*
X741397Y246617D01*
X741444Y246521D01*
X741487Y246423D01*
X741527Y246324D01*
X741564Y246224D01*
X741596Y246123D01*
X741625Y246020D01*
X741650Y245916D01*
X741671Y245812D01*
X741689Y245706D01*
X741702Y245600D01*
X741712Y245494D01*
X741718Y245388D01*
X741720Y245281D01*
X738799Y248202D02*
X738678Y248200D01*
X738557Y248194D01*
X738437Y248184D01*
X738316Y248171D01*
X738197Y248153D01*
X738077Y248132D01*
X737959Y248107D01*
X737842Y248078D01*
X737725Y248045D01*
X737610Y248009D01*
X737496Y247968D01*
X737383Y247925D01*
X737271Y247877D01*
X737162Y247826D01*
X737054Y247771D01*
X736947Y247713D01*
X736843Y247652D01*
X736741Y247587D01*
X736641Y247519D01*
X736543Y247448D01*
X736447Y247374D01*
X736354Y247297D01*
X736264Y247216D01*
X736176Y247133D01*
X736091Y247047D01*
X736008Y246958D01*
X735929Y246867D01*
X735852Y246773D01*
X735779Y246677D01*
X735709Y246579D01*
X735642Y246478D01*
X735578Y246375D01*
X735518Y246270D01*
X735461Y246163D01*
X735407Y246055D01*
X735357Y245945D01*
X735311Y245833D01*
X735268Y245720D01*
X735229Y245605D01*
X740746Y243009D02*
X740825Y243086D01*
X740901Y243167D01*
X740974Y243250D01*
X741044Y243335D01*
X741111Y243423D01*
X741175Y243513D01*
X741235Y243605D01*
X741292Y243700D01*
X741346Y243796D01*
X741397Y243894D01*
X741444Y243994D01*
X741488Y244096D01*
X741528Y244199D01*
X741564Y244303D01*
X741596Y244409D01*
X741625Y244515D01*
X741650Y244623D01*
X741672Y244731D01*
X741689Y244841D01*
X741703Y244950D01*
X741712Y245060D01*
X741718Y245171D01*
X741720Y245281D01*
X740746Y243009D02*
X735228Y236518D01*
X741720Y236518D01*
D15*
X228300Y125950D02*
X228300Y113250D01*
X228300Y125950D02*
X234650Y132300D01*
X247350Y132300D02*
X253700Y125950D01*
X234650Y132300D02*
X228300Y138650D01*
X228300Y151350D01*
X234650Y157700D01*
X247350Y157700D02*
X253700Y151350D01*
X253700Y138650D01*
X247350Y132300D01*
X247350Y106900D02*
X234650Y106900D01*
X228300Y113250D01*
X247350Y106900D02*
X253700Y113250D01*
X253700Y125950D01*
X234650Y157700D02*
X228300Y164050D01*
X228300Y176750D01*
X234650Y183100D01*
X247350Y183100D02*
X253700Y176750D01*
X253700Y164050D01*
X247350Y157700D01*
X247350Y183100D02*
X234650Y183100D01*
D14*
X235285Y98010D02*
X237825Y94835D01*
X235285Y98010D02*
X246715Y98010D01*
X246715Y94835D02*
X246715Y101185D01*
X205706Y139965D02*
X205706Y148855D01*
X205706Y139965D02*
X205704Y139865D01*
X205698Y139766D01*
X205688Y139666D01*
X205675Y139568D01*
X205657Y139469D01*
X205636Y139372D01*
X205611Y139276D01*
X205582Y139180D01*
X205549Y139086D01*
X205513Y138993D01*
X205473Y138902D01*
X205429Y138812D01*
X205382Y138724D01*
X205332Y138638D01*
X205278Y138554D01*
X205221Y138472D01*
X205161Y138393D01*
X205097Y138315D01*
X205031Y138241D01*
X204962Y138169D01*
X204890Y138100D01*
X204816Y138034D01*
X204738Y137970D01*
X204659Y137910D01*
X204577Y137853D01*
X204493Y137799D01*
X204407Y137749D01*
X204319Y137702D01*
X204229Y137658D01*
X204138Y137618D01*
X204045Y137582D01*
X203951Y137549D01*
X203855Y137520D01*
X203759Y137495D01*
X203662Y137474D01*
X203563Y137456D01*
X203465Y137443D01*
X203365Y137433D01*
X203266Y137427D01*
X203166Y137425D01*
X201896Y137425D01*
X211115Y137425D02*
X214290Y137425D01*
X214401Y137427D01*
X214511Y137433D01*
X214622Y137442D01*
X214732Y137456D01*
X214841Y137473D01*
X214950Y137494D01*
X215058Y137519D01*
X215165Y137548D01*
X215271Y137580D01*
X215376Y137616D01*
X215479Y137656D01*
X215581Y137699D01*
X215682Y137746D01*
X215781Y137797D01*
X215877Y137850D01*
X215972Y137907D01*
X216065Y137968D01*
X216156Y138031D01*
X216245Y138098D01*
X216331Y138168D01*
X216414Y138241D01*
X216496Y138316D01*
X216574Y138394D01*
X216649Y138476D01*
X216722Y138559D01*
X216792Y138645D01*
X216859Y138734D01*
X216922Y138825D01*
X216983Y138918D01*
X217040Y139012D01*
X217093Y139109D01*
X217144Y139208D01*
X217191Y139309D01*
X217234Y139411D01*
X217274Y139514D01*
X217310Y139619D01*
X217342Y139725D01*
X217371Y139832D01*
X217396Y139940D01*
X217417Y140049D01*
X217434Y140158D01*
X217448Y140268D01*
X217457Y140379D01*
X217463Y140489D01*
X217465Y140600D01*
X217463Y140711D01*
X217457Y140821D01*
X217448Y140932D01*
X217434Y141042D01*
X217417Y141151D01*
X217396Y141260D01*
X217371Y141368D01*
X217342Y141475D01*
X217310Y141581D01*
X217274Y141686D01*
X217234Y141789D01*
X217191Y141891D01*
X217144Y141992D01*
X217093Y142091D01*
X217040Y142187D01*
X216983Y142282D01*
X216922Y142375D01*
X216859Y142466D01*
X216792Y142555D01*
X216722Y142641D01*
X216649Y142724D01*
X216574Y142806D01*
X216496Y142884D01*
X216414Y142959D01*
X216331Y143032D01*
X216245Y143102D01*
X216156Y143169D01*
X216065Y143232D01*
X215972Y143293D01*
X215878Y143350D01*
X215781Y143403D01*
X215682Y143454D01*
X215581Y143501D01*
X215479Y143544D01*
X215376Y143584D01*
X215271Y143620D01*
X215165Y143652D01*
X215058Y143681D01*
X214950Y143706D01*
X214841Y143727D01*
X214732Y143744D01*
X214622Y143758D01*
X214511Y143767D01*
X214401Y143773D01*
X214290Y143775D01*
X214925Y148855D02*
X211115Y148855D01*
X214925Y148855D02*
X215025Y148853D01*
X215124Y148847D01*
X215224Y148837D01*
X215322Y148824D01*
X215421Y148806D01*
X215518Y148785D01*
X215614Y148760D01*
X215710Y148731D01*
X215804Y148698D01*
X215897Y148662D01*
X215988Y148622D01*
X216078Y148578D01*
X216166Y148531D01*
X216252Y148481D01*
X216336Y148427D01*
X216418Y148370D01*
X216497Y148310D01*
X216575Y148246D01*
X216649Y148180D01*
X216721Y148111D01*
X216790Y148039D01*
X216856Y147965D01*
X216920Y147887D01*
X216980Y147808D01*
X217037Y147726D01*
X217091Y147642D01*
X217141Y147556D01*
X217188Y147468D01*
X217232Y147378D01*
X217272Y147287D01*
X217308Y147194D01*
X217341Y147100D01*
X217370Y147004D01*
X217395Y146908D01*
X217416Y146811D01*
X217434Y146712D01*
X217447Y146614D01*
X217457Y146514D01*
X217463Y146415D01*
X217465Y146315D01*
X217463Y146215D01*
X217457Y146116D01*
X217447Y146016D01*
X217434Y145918D01*
X217416Y145819D01*
X217395Y145722D01*
X217370Y145626D01*
X217341Y145530D01*
X217308Y145436D01*
X217272Y145343D01*
X217232Y145252D01*
X217188Y145162D01*
X217141Y145074D01*
X217091Y144988D01*
X217037Y144904D01*
X216980Y144822D01*
X216920Y144743D01*
X216856Y144665D01*
X216790Y144591D01*
X216721Y144519D01*
X216649Y144450D01*
X216575Y144384D01*
X216497Y144320D01*
X216418Y144260D01*
X216336Y144203D01*
X216252Y144149D01*
X216166Y144099D01*
X216078Y144052D01*
X215988Y144008D01*
X215897Y143968D01*
X215804Y143932D01*
X215710Y143899D01*
X215614Y143870D01*
X215518Y143845D01*
X215421Y143824D01*
X215322Y143806D01*
X215224Y143793D01*
X215124Y143783D01*
X215025Y143777D01*
X214925Y143775D01*
X212385Y143775D01*
D13*
X201250Y257000D02*
X398750Y257000D01*
X398750Y215000D02*
X377140Y215000D01*
X222860Y215000D02*
X201250Y215000D01*
X368230Y192620D02*
X368232Y192676D01*
X368238Y192731D01*
X368248Y192786D01*
X368262Y192840D01*
X368279Y192893D01*
X368300Y192944D01*
X368325Y192994D01*
X368354Y193042D01*
X368386Y193087D01*
X368421Y193131D01*
X368458Y193172D01*
X368499Y193209D01*
X368543Y193244D01*
X368588Y193276D01*
X368636Y193305D01*
X368686Y193330D01*
X368737Y193351D01*
X368790Y193368D01*
X368844Y193382D01*
X368899Y193392D01*
X368954Y193398D01*
X369010Y193400D01*
X369066Y193398D01*
X369121Y193392D01*
X369176Y193382D01*
X369230Y193368D01*
X369283Y193351D01*
X369334Y193330D01*
X369384Y193305D01*
X369432Y193276D01*
X369477Y193244D01*
X369521Y193209D01*
X369562Y193172D01*
X369599Y193131D01*
X369634Y193087D01*
X369666Y193042D01*
X369695Y192994D01*
X369720Y192944D01*
X369741Y192893D01*
X369758Y192840D01*
X369772Y192786D01*
X369782Y192731D01*
X369788Y192676D01*
X369790Y192620D01*
X369788Y192564D01*
X369782Y192509D01*
X369772Y192454D01*
X369758Y192400D01*
X369741Y192347D01*
X369720Y192296D01*
X369695Y192246D01*
X369666Y192198D01*
X369634Y192153D01*
X369599Y192109D01*
X369562Y192068D01*
X369521Y192031D01*
X369477Y191996D01*
X369432Y191964D01*
X369384Y191935D01*
X369334Y191910D01*
X369283Y191889D01*
X369230Y191872D01*
X369176Y191858D01*
X369121Y191848D01*
X369066Y191842D01*
X369010Y191840D01*
X368954Y191842D01*
X368899Y191848D01*
X368844Y191858D01*
X368790Y191872D01*
X368737Y191889D01*
X368686Y191910D01*
X368636Y191935D01*
X368588Y191964D01*
X368543Y191996D01*
X368499Y192031D01*
X368458Y192068D01*
X368421Y192109D01*
X368386Y192153D01*
X368354Y192198D01*
X368325Y192246D01*
X368300Y192296D01*
X368279Y192347D01*
X368262Y192400D01*
X368248Y192454D01*
X368238Y192509D01*
X368232Y192564D01*
X368230Y192620D01*
D10*
X176945Y232984D02*
X176945Y242072D01*
X176945Y232984D02*
X176943Y232885D01*
X176937Y232785D01*
X176928Y232686D01*
X176915Y232588D01*
X176898Y232490D01*
X176877Y232392D01*
X176852Y232296D01*
X176824Y232201D01*
X176792Y232107D01*
X176757Y232014D01*
X176718Y231922D01*
X176675Y231832D01*
X176630Y231744D01*
X176580Y231657D01*
X176528Y231573D01*
X176472Y231490D01*
X176414Y231410D01*
X176352Y231332D01*
X176287Y231257D01*
X176219Y231184D01*
X176149Y231114D01*
X176076Y231046D01*
X176001Y230981D01*
X175923Y230919D01*
X175843Y230861D01*
X175760Y230805D01*
X175676Y230753D01*
X175589Y230703D01*
X175501Y230658D01*
X175411Y230615D01*
X175319Y230576D01*
X175226Y230541D01*
X175132Y230509D01*
X175037Y230481D01*
X174941Y230456D01*
X174843Y230435D01*
X174745Y230418D01*
X174647Y230405D01*
X174548Y230396D01*
X174448Y230390D01*
X174349Y230388D01*
X173050Y230388D01*
X182218Y232984D02*
X184815Y242072D01*
X182218Y232984D02*
X188710Y232984D01*
X186762Y230388D02*
X186762Y235581D01*
D16*
X70000Y206250D02*
X70000Y83750D01*
X112000Y83750D02*
X112000Y105000D01*
X112000Y185000D02*
X112000Y206250D01*
D17*
X135000Y175000D03*
D18*
X135044Y175002D01*
X135087Y175008D01*
X135129Y175017D01*
X135171Y175030D01*
X135211Y175047D01*
X135250Y175067D01*
X135287Y175090D01*
X135321Y175117D01*
X135354Y175146D01*
X135383Y175179D01*
X135410Y175213D01*
X135433Y175250D01*
X135453Y175289D01*
X135470Y175329D01*
X135483Y175371D01*
X135492Y175413D01*
X135498Y175456D01*
X135500Y175500D01*
X135498Y175544D01*
X135492Y175587D01*
X135483Y175629D01*
X135470Y175671D01*
X135453Y175711D01*
X135433Y175750D01*
X135410Y175787D01*
X135383Y175821D01*
X135354Y175854D01*
X135321Y175883D01*
X135287Y175910D01*
X135250Y175933D01*
X135211Y175953D01*
X135171Y175970D01*
X135129Y175983D01*
X135087Y175992D01*
X135044Y175998D01*
X135000Y176000D01*
D17*
X135000Y176000D03*
D18*
X134956Y175998D01*
X134913Y175992D01*
X134871Y175983D01*
X134829Y175970D01*
X134789Y175953D01*
X134750Y175933D01*
X134713Y175910D01*
X134679Y175883D01*
X134646Y175854D01*
X134617Y175821D01*
X134590Y175787D01*
X134567Y175750D01*
X134547Y175711D01*
X134530Y175671D01*
X134517Y175629D01*
X134508Y175587D01*
X134502Y175544D01*
X134500Y175500D01*
X134502Y175456D01*
X134508Y175413D01*
X134517Y175371D01*
X134530Y175329D01*
X134547Y175289D01*
X134567Y175250D01*
X134590Y175213D01*
X134617Y175179D01*
X134646Y175146D01*
X134679Y175117D01*
X134713Y175090D01*
X134750Y175067D01*
X134789Y175047D01*
X134829Y175030D01*
X134871Y175017D01*
X134913Y175008D01*
X134956Y175002D01*
X135000Y175000D01*
D10*
X86065Y224504D02*
X86065Y233592D01*
X86065Y224504D02*
X86063Y224405D01*
X86057Y224305D01*
X86048Y224206D01*
X86035Y224108D01*
X86018Y224010D01*
X85997Y223912D01*
X85972Y223816D01*
X85944Y223721D01*
X85912Y223627D01*
X85877Y223534D01*
X85838Y223442D01*
X85795Y223352D01*
X85750Y223264D01*
X85700Y223177D01*
X85648Y223093D01*
X85592Y223010D01*
X85534Y222930D01*
X85472Y222852D01*
X85407Y222777D01*
X85339Y222704D01*
X85269Y222634D01*
X85196Y222566D01*
X85121Y222501D01*
X85043Y222439D01*
X84963Y222381D01*
X84880Y222325D01*
X84796Y222273D01*
X84709Y222223D01*
X84621Y222178D01*
X84531Y222135D01*
X84439Y222096D01*
X84346Y222061D01*
X84252Y222029D01*
X84157Y222001D01*
X84061Y221976D01*
X83963Y221955D01*
X83865Y221938D01*
X83767Y221925D01*
X83668Y221916D01*
X83568Y221910D01*
X83469Y221908D01*
X82170Y221908D01*
X91338Y230996D02*
X94584Y233592D01*
X94584Y221908D01*
X91338Y221908D02*
X97830Y221908D01*
D14*
X289300Y58300D02*
X300700Y58300D01*
X300700Y41700D02*
X289300Y41700D01*
D10*
X324245Y43008D02*
X324245Y54692D01*
X327490Y54692D01*
X327603Y54690D01*
X327716Y54684D01*
X327829Y54674D01*
X327942Y54660D01*
X328054Y54643D01*
X328165Y54621D01*
X328275Y54596D01*
X328385Y54566D01*
X328493Y54533D01*
X328600Y54496D01*
X328706Y54456D01*
X328810Y54411D01*
X328913Y54363D01*
X329014Y54312D01*
X329113Y54257D01*
X329210Y54199D01*
X329305Y54137D01*
X329398Y54072D01*
X329488Y54004D01*
X329576Y53933D01*
X329662Y53858D01*
X329745Y53781D01*
X329825Y53701D01*
X329902Y53618D01*
X329977Y53532D01*
X330048Y53444D01*
X330116Y53354D01*
X330181Y53261D01*
X330243Y53166D01*
X330301Y53069D01*
X330356Y52970D01*
X330407Y52869D01*
X330455Y52766D01*
X330500Y52662D01*
X330540Y52556D01*
X330577Y52449D01*
X330610Y52341D01*
X330640Y52231D01*
X330665Y52121D01*
X330687Y52010D01*
X330704Y51898D01*
X330718Y51785D01*
X330728Y51672D01*
X330734Y51559D01*
X330736Y51446D01*
X330734Y51333D01*
X330728Y51220D01*
X330718Y51107D01*
X330704Y50994D01*
X330687Y50882D01*
X330665Y50771D01*
X330640Y50661D01*
X330610Y50551D01*
X330577Y50443D01*
X330540Y50336D01*
X330500Y50230D01*
X330455Y50126D01*
X330407Y50023D01*
X330356Y49922D01*
X330301Y49823D01*
X330243Y49726D01*
X330181Y49631D01*
X330116Y49538D01*
X330048Y49448D01*
X329977Y49360D01*
X329902Y49274D01*
X329825Y49191D01*
X329745Y49111D01*
X329662Y49034D01*
X329576Y48959D01*
X329488Y48888D01*
X329398Y48820D01*
X329305Y48755D01*
X329210Y48693D01*
X329113Y48635D01*
X329014Y48580D01*
X328913Y48529D01*
X328810Y48481D01*
X328706Y48436D01*
X328600Y48396D01*
X328493Y48359D01*
X328385Y48326D01*
X328275Y48296D01*
X328165Y48271D01*
X328054Y48249D01*
X327942Y48232D01*
X327829Y48218D01*
X327716Y48208D01*
X327603Y48202D01*
X327490Y48200D01*
X327490Y48201D02*
X324245Y48201D01*
X328139Y48201D02*
X330736Y43008D01*
X335601Y43008D02*
X339496Y43008D01*
X339595Y43010D01*
X339695Y43016D01*
X339794Y43025D01*
X339892Y43038D01*
X339990Y43055D01*
X340088Y43076D01*
X340184Y43101D01*
X340279Y43129D01*
X340373Y43161D01*
X340466Y43196D01*
X340558Y43235D01*
X340648Y43278D01*
X340736Y43323D01*
X340823Y43373D01*
X340907Y43425D01*
X340990Y43481D01*
X341070Y43539D01*
X341148Y43601D01*
X341223Y43666D01*
X341296Y43734D01*
X341366Y43804D01*
X341434Y43877D01*
X341499Y43952D01*
X341561Y44030D01*
X341619Y44110D01*
X341675Y44193D01*
X341727Y44277D01*
X341777Y44364D01*
X341822Y44452D01*
X341865Y44542D01*
X341904Y44634D01*
X341939Y44727D01*
X341971Y44821D01*
X341999Y44916D01*
X342024Y45012D01*
X342045Y45110D01*
X342062Y45208D01*
X342075Y45306D01*
X342084Y45405D01*
X342090Y45505D01*
X342092Y45604D01*
X342092Y46903D01*
X342090Y47002D01*
X342084Y47102D01*
X342075Y47201D01*
X342062Y47299D01*
X342045Y47397D01*
X342024Y47495D01*
X341999Y47591D01*
X341971Y47686D01*
X341939Y47780D01*
X341904Y47873D01*
X341865Y47965D01*
X341822Y48055D01*
X341777Y48143D01*
X341727Y48230D01*
X341675Y48314D01*
X341619Y48397D01*
X341561Y48477D01*
X341499Y48555D01*
X341434Y48630D01*
X341366Y48703D01*
X341296Y48773D01*
X341223Y48841D01*
X341148Y48906D01*
X341070Y48968D01*
X340990Y49026D01*
X340907Y49082D01*
X340823Y49134D01*
X340736Y49184D01*
X340648Y49229D01*
X340558Y49272D01*
X340466Y49311D01*
X340373Y49346D01*
X340279Y49378D01*
X340184Y49406D01*
X340088Y49431D01*
X339990Y49452D01*
X339892Y49469D01*
X339794Y49482D01*
X339695Y49491D01*
X339595Y49497D01*
X339496Y49499D01*
X335601Y49499D01*
X335601Y54692D01*
X342092Y54692D01*
D14*
X529300Y171700D02*
X540700Y171700D01*
X540700Y188300D02*
X529300Y188300D01*
D10*
X562308Y185292D02*
X562308Y173608D01*
X562308Y185292D02*
X565554Y185292D01*
X565667Y185290D01*
X565780Y185284D01*
X565893Y185274D01*
X566006Y185260D01*
X566118Y185243D01*
X566229Y185221D01*
X566339Y185196D01*
X566449Y185166D01*
X566557Y185133D01*
X566664Y185096D01*
X566770Y185056D01*
X566874Y185011D01*
X566977Y184963D01*
X567078Y184912D01*
X567177Y184857D01*
X567274Y184799D01*
X567369Y184737D01*
X567462Y184672D01*
X567552Y184604D01*
X567640Y184533D01*
X567726Y184458D01*
X567809Y184381D01*
X567889Y184301D01*
X567966Y184218D01*
X568041Y184132D01*
X568112Y184044D01*
X568180Y183954D01*
X568245Y183861D01*
X568307Y183766D01*
X568365Y183669D01*
X568420Y183570D01*
X568471Y183469D01*
X568519Y183366D01*
X568564Y183262D01*
X568604Y183156D01*
X568641Y183049D01*
X568674Y182941D01*
X568704Y182831D01*
X568729Y182721D01*
X568751Y182610D01*
X568768Y182498D01*
X568782Y182385D01*
X568792Y182272D01*
X568798Y182159D01*
X568800Y182046D01*
X568798Y181933D01*
X568792Y181820D01*
X568782Y181707D01*
X568768Y181594D01*
X568751Y181482D01*
X568729Y181371D01*
X568704Y181261D01*
X568674Y181151D01*
X568641Y181043D01*
X568604Y180936D01*
X568564Y180830D01*
X568519Y180726D01*
X568471Y180623D01*
X568420Y180522D01*
X568365Y180423D01*
X568307Y180326D01*
X568245Y180231D01*
X568180Y180138D01*
X568112Y180048D01*
X568041Y179960D01*
X567966Y179874D01*
X567889Y179791D01*
X567809Y179711D01*
X567726Y179634D01*
X567640Y179559D01*
X567552Y179488D01*
X567462Y179420D01*
X567369Y179355D01*
X567274Y179293D01*
X567177Y179235D01*
X567078Y179180D01*
X566977Y179129D01*
X566874Y179081D01*
X566770Y179036D01*
X566664Y178996D01*
X566557Y178959D01*
X566449Y178926D01*
X566339Y178896D01*
X566229Y178871D01*
X566118Y178849D01*
X566006Y178832D01*
X565893Y178818D01*
X565780Y178808D01*
X565667Y178802D01*
X565554Y178800D01*
X565554Y178801D02*
X562308Y178801D01*
X566203Y178801D02*
X568799Y173608D01*
X573664Y182696D02*
X576910Y185292D01*
X576910Y173608D01*
X580155Y173608D02*
X573664Y173608D01*
D14*
X639300Y236700D02*
X650700Y236700D01*
X650700Y253300D02*
X639300Y253300D01*
D10*
X639745Y227692D02*
X639745Y216008D01*
X639745Y227692D02*
X642990Y227692D01*
X643103Y227690D01*
X643216Y227684D01*
X643329Y227674D01*
X643442Y227660D01*
X643554Y227643D01*
X643665Y227621D01*
X643775Y227596D01*
X643885Y227566D01*
X643993Y227533D01*
X644100Y227496D01*
X644206Y227456D01*
X644310Y227411D01*
X644413Y227363D01*
X644514Y227312D01*
X644613Y227257D01*
X644710Y227199D01*
X644805Y227137D01*
X644898Y227072D01*
X644988Y227004D01*
X645076Y226933D01*
X645162Y226858D01*
X645245Y226781D01*
X645325Y226701D01*
X645402Y226618D01*
X645477Y226532D01*
X645548Y226444D01*
X645616Y226354D01*
X645681Y226261D01*
X645743Y226166D01*
X645801Y226069D01*
X645856Y225970D01*
X645907Y225869D01*
X645955Y225766D01*
X646000Y225662D01*
X646040Y225556D01*
X646077Y225449D01*
X646110Y225341D01*
X646140Y225231D01*
X646165Y225121D01*
X646187Y225010D01*
X646204Y224898D01*
X646218Y224785D01*
X646228Y224672D01*
X646234Y224559D01*
X646236Y224446D01*
X646234Y224333D01*
X646228Y224220D01*
X646218Y224107D01*
X646204Y223994D01*
X646187Y223882D01*
X646165Y223771D01*
X646140Y223661D01*
X646110Y223551D01*
X646077Y223443D01*
X646040Y223336D01*
X646000Y223230D01*
X645955Y223126D01*
X645907Y223023D01*
X645856Y222922D01*
X645801Y222823D01*
X645743Y222726D01*
X645681Y222631D01*
X645616Y222538D01*
X645548Y222448D01*
X645477Y222360D01*
X645402Y222274D01*
X645325Y222191D01*
X645245Y222111D01*
X645162Y222034D01*
X645076Y221959D01*
X644988Y221888D01*
X644898Y221820D01*
X644805Y221755D01*
X644710Y221693D01*
X644613Y221635D01*
X644514Y221580D01*
X644413Y221529D01*
X644310Y221481D01*
X644206Y221436D01*
X644100Y221396D01*
X643993Y221359D01*
X643885Y221326D01*
X643775Y221296D01*
X643665Y221271D01*
X643554Y221249D01*
X643442Y221232D01*
X643329Y221218D01*
X643216Y221208D01*
X643103Y221202D01*
X642990Y221200D01*
X642990Y221201D02*
X639745Y221201D01*
X643639Y221201D02*
X646236Y216008D01*
X657592Y224771D02*
X657590Y224878D01*
X657584Y224984D01*
X657574Y225090D01*
X657561Y225196D01*
X657543Y225302D01*
X657522Y225406D01*
X657497Y225510D01*
X657468Y225613D01*
X657436Y225714D01*
X657399Y225814D01*
X657359Y225913D01*
X657316Y226011D01*
X657269Y226107D01*
X657218Y226201D01*
X657164Y226293D01*
X657107Y226383D01*
X657047Y226471D01*
X656983Y226556D01*
X656916Y226639D01*
X656846Y226720D01*
X656774Y226798D01*
X656698Y226874D01*
X656620Y226946D01*
X656539Y227016D01*
X656456Y227083D01*
X656371Y227147D01*
X656283Y227207D01*
X656193Y227264D01*
X656101Y227318D01*
X656007Y227369D01*
X655911Y227416D01*
X655813Y227459D01*
X655714Y227499D01*
X655614Y227536D01*
X655513Y227568D01*
X655410Y227597D01*
X655306Y227622D01*
X655202Y227643D01*
X655096Y227661D01*
X654990Y227674D01*
X654884Y227684D01*
X654778Y227690D01*
X654671Y227692D01*
X654550Y227690D01*
X654429Y227684D01*
X654309Y227674D01*
X654188Y227661D01*
X654069Y227643D01*
X653949Y227622D01*
X653831Y227597D01*
X653714Y227568D01*
X653597Y227535D01*
X653482Y227499D01*
X653368Y227458D01*
X653255Y227415D01*
X653143Y227367D01*
X653034Y227316D01*
X652926Y227261D01*
X652819Y227203D01*
X652715Y227142D01*
X652613Y227077D01*
X652513Y227009D01*
X652415Y226938D01*
X652319Y226864D01*
X652226Y226787D01*
X652136Y226706D01*
X652048Y226623D01*
X651963Y226537D01*
X651880Y226448D01*
X651801Y226357D01*
X651724Y226263D01*
X651651Y226167D01*
X651581Y226069D01*
X651514Y225968D01*
X651450Y225865D01*
X651390Y225760D01*
X651333Y225653D01*
X651279Y225545D01*
X651229Y225435D01*
X651183Y225323D01*
X651140Y225210D01*
X651101Y225095D01*
X656619Y222499D02*
X656698Y222576D01*
X656774Y222657D01*
X656847Y222740D01*
X656917Y222825D01*
X656984Y222913D01*
X657048Y223003D01*
X657108Y223095D01*
X657165Y223190D01*
X657219Y223286D01*
X657270Y223384D01*
X657317Y223484D01*
X657361Y223586D01*
X657401Y223689D01*
X657437Y223793D01*
X657469Y223899D01*
X657498Y224005D01*
X657523Y224113D01*
X657545Y224221D01*
X657562Y224331D01*
X657576Y224440D01*
X657585Y224550D01*
X657591Y224661D01*
X657593Y224771D01*
X656618Y222499D02*
X651101Y216008D01*
X657592Y216008D01*
D14*
X300700Y101700D02*
X289300Y101700D01*
X289300Y118300D02*
X300700Y118300D01*
D10*
X323408Y115492D02*
X323408Y103808D01*
X323408Y115492D02*
X326654Y115492D01*
X326767Y115490D01*
X326880Y115484D01*
X326993Y115474D01*
X327106Y115460D01*
X327218Y115443D01*
X327329Y115421D01*
X327439Y115396D01*
X327549Y115366D01*
X327657Y115333D01*
X327764Y115296D01*
X327870Y115256D01*
X327974Y115211D01*
X328077Y115163D01*
X328178Y115112D01*
X328277Y115057D01*
X328374Y114999D01*
X328469Y114937D01*
X328562Y114872D01*
X328652Y114804D01*
X328740Y114733D01*
X328826Y114658D01*
X328909Y114581D01*
X328989Y114501D01*
X329066Y114418D01*
X329141Y114332D01*
X329212Y114244D01*
X329280Y114154D01*
X329345Y114061D01*
X329407Y113966D01*
X329465Y113869D01*
X329520Y113770D01*
X329571Y113669D01*
X329619Y113566D01*
X329664Y113462D01*
X329704Y113356D01*
X329741Y113249D01*
X329774Y113141D01*
X329804Y113031D01*
X329829Y112921D01*
X329851Y112810D01*
X329868Y112698D01*
X329882Y112585D01*
X329892Y112472D01*
X329898Y112359D01*
X329900Y112246D01*
X329898Y112133D01*
X329892Y112020D01*
X329882Y111907D01*
X329868Y111794D01*
X329851Y111682D01*
X329829Y111571D01*
X329804Y111461D01*
X329774Y111351D01*
X329741Y111243D01*
X329704Y111136D01*
X329664Y111030D01*
X329619Y110926D01*
X329571Y110823D01*
X329520Y110722D01*
X329465Y110623D01*
X329407Y110526D01*
X329345Y110431D01*
X329280Y110338D01*
X329212Y110248D01*
X329141Y110160D01*
X329066Y110074D01*
X328989Y109991D01*
X328909Y109911D01*
X328826Y109834D01*
X328740Y109759D01*
X328652Y109688D01*
X328562Y109620D01*
X328469Y109555D01*
X328374Y109493D01*
X328277Y109435D01*
X328178Y109380D01*
X328077Y109329D01*
X327974Y109281D01*
X327870Y109236D01*
X327764Y109196D01*
X327657Y109159D01*
X327549Y109126D01*
X327439Y109096D01*
X327329Y109071D01*
X327218Y109049D01*
X327106Y109032D01*
X326993Y109018D01*
X326880Y109008D01*
X326767Y109002D01*
X326654Y109000D01*
X326654Y109001D02*
X323408Y109001D01*
X327303Y109001D02*
X329899Y103808D01*
X334764Y103808D02*
X338010Y103808D01*
X338123Y103810D01*
X338236Y103816D01*
X338349Y103826D01*
X338462Y103840D01*
X338574Y103857D01*
X338685Y103879D01*
X338795Y103904D01*
X338905Y103934D01*
X339013Y103967D01*
X339120Y104004D01*
X339226Y104044D01*
X339330Y104089D01*
X339433Y104137D01*
X339534Y104188D01*
X339633Y104243D01*
X339730Y104301D01*
X339825Y104363D01*
X339918Y104428D01*
X340008Y104496D01*
X340096Y104567D01*
X340182Y104642D01*
X340265Y104719D01*
X340345Y104799D01*
X340422Y104882D01*
X340497Y104968D01*
X340568Y105056D01*
X340636Y105146D01*
X340701Y105239D01*
X340763Y105334D01*
X340821Y105431D01*
X340876Y105530D01*
X340927Y105631D01*
X340975Y105734D01*
X341020Y105838D01*
X341060Y105944D01*
X341097Y106051D01*
X341130Y106159D01*
X341160Y106269D01*
X341185Y106379D01*
X341207Y106490D01*
X341224Y106602D01*
X341238Y106715D01*
X341248Y106828D01*
X341254Y106941D01*
X341256Y107054D01*
X341254Y107167D01*
X341248Y107280D01*
X341238Y107393D01*
X341224Y107506D01*
X341207Y107618D01*
X341185Y107729D01*
X341160Y107839D01*
X341130Y107949D01*
X341097Y108057D01*
X341060Y108164D01*
X341020Y108270D01*
X340975Y108374D01*
X340927Y108477D01*
X340876Y108578D01*
X340821Y108677D01*
X340763Y108774D01*
X340701Y108869D01*
X340636Y108962D01*
X340568Y109052D01*
X340497Y109140D01*
X340422Y109226D01*
X340345Y109309D01*
X340265Y109389D01*
X340182Y109466D01*
X340096Y109541D01*
X340008Y109612D01*
X339918Y109680D01*
X339825Y109745D01*
X339730Y109807D01*
X339633Y109865D01*
X339534Y109920D01*
X339433Y109971D01*
X339330Y110019D01*
X339226Y110064D01*
X339120Y110104D01*
X339013Y110141D01*
X338905Y110174D01*
X338795Y110204D01*
X338685Y110229D01*
X338574Y110251D01*
X338462Y110268D01*
X338349Y110282D01*
X338236Y110292D01*
X338123Y110298D01*
X338010Y110300D01*
X338659Y115492D02*
X334764Y115492D01*
X338659Y115492D02*
X338760Y115490D01*
X338860Y115484D01*
X338960Y115474D01*
X339060Y115461D01*
X339159Y115443D01*
X339258Y115422D01*
X339355Y115397D01*
X339452Y115368D01*
X339547Y115335D01*
X339641Y115299D01*
X339733Y115259D01*
X339824Y115216D01*
X339913Y115169D01*
X340000Y115119D01*
X340086Y115065D01*
X340169Y115008D01*
X340249Y114948D01*
X340328Y114885D01*
X340404Y114818D01*
X340477Y114749D01*
X340547Y114677D01*
X340615Y114603D01*
X340680Y114526D01*
X340741Y114446D01*
X340800Y114364D01*
X340855Y114280D01*
X340907Y114194D01*
X340956Y114106D01*
X341001Y114016D01*
X341043Y113924D01*
X341081Y113831D01*
X341115Y113736D01*
X341146Y113641D01*
X341173Y113544D01*
X341196Y113446D01*
X341216Y113347D01*
X341231Y113247D01*
X341243Y113147D01*
X341251Y113047D01*
X341255Y112946D01*
X341255Y112846D01*
X341251Y112745D01*
X341243Y112645D01*
X341231Y112545D01*
X341216Y112445D01*
X341196Y112346D01*
X341173Y112248D01*
X341146Y112151D01*
X341115Y112056D01*
X341081Y111961D01*
X341043Y111868D01*
X341001Y111776D01*
X340956Y111686D01*
X340907Y111598D01*
X340855Y111512D01*
X340800Y111428D01*
X340741Y111346D01*
X340680Y111266D01*
X340615Y111189D01*
X340547Y111115D01*
X340477Y111043D01*
X340404Y110974D01*
X340328Y110907D01*
X340249Y110844D01*
X340169Y110784D01*
X340086Y110727D01*
X340000Y110673D01*
X339913Y110623D01*
X339824Y110576D01*
X339733Y110533D01*
X339641Y110493D01*
X339547Y110457D01*
X339452Y110424D01*
X339355Y110395D01*
X339258Y110370D01*
X339159Y110349D01*
X339060Y110331D01*
X338960Y110318D01*
X338860Y110308D01*
X338760Y110302D01*
X338659Y110300D01*
X338659Y110299D02*
X336063Y110299D01*
D14*
X300700Y88300D02*
X289300Y88300D01*
X289300Y71700D02*
X300700Y71700D01*
D10*
X323745Y74008D02*
X323745Y85692D01*
X326990Y85692D01*
X327103Y85690D01*
X327216Y85684D01*
X327329Y85674D01*
X327442Y85660D01*
X327554Y85643D01*
X327665Y85621D01*
X327775Y85596D01*
X327885Y85566D01*
X327993Y85533D01*
X328100Y85496D01*
X328206Y85456D01*
X328310Y85411D01*
X328413Y85363D01*
X328514Y85312D01*
X328613Y85257D01*
X328710Y85199D01*
X328805Y85137D01*
X328898Y85072D01*
X328988Y85004D01*
X329076Y84933D01*
X329162Y84858D01*
X329245Y84781D01*
X329325Y84701D01*
X329402Y84618D01*
X329477Y84532D01*
X329548Y84444D01*
X329616Y84354D01*
X329681Y84261D01*
X329743Y84166D01*
X329801Y84069D01*
X329856Y83970D01*
X329907Y83869D01*
X329955Y83766D01*
X330000Y83662D01*
X330040Y83556D01*
X330077Y83449D01*
X330110Y83341D01*
X330140Y83231D01*
X330165Y83121D01*
X330187Y83010D01*
X330204Y82898D01*
X330218Y82785D01*
X330228Y82672D01*
X330234Y82559D01*
X330236Y82446D01*
X330234Y82333D01*
X330228Y82220D01*
X330218Y82107D01*
X330204Y81994D01*
X330187Y81882D01*
X330165Y81771D01*
X330140Y81661D01*
X330110Y81551D01*
X330077Y81443D01*
X330040Y81336D01*
X330000Y81230D01*
X329955Y81126D01*
X329907Y81023D01*
X329856Y80922D01*
X329801Y80823D01*
X329743Y80726D01*
X329681Y80631D01*
X329616Y80538D01*
X329548Y80448D01*
X329477Y80360D01*
X329402Y80274D01*
X329325Y80191D01*
X329245Y80111D01*
X329162Y80034D01*
X329076Y79959D01*
X328988Y79888D01*
X328898Y79820D01*
X328805Y79755D01*
X328710Y79693D01*
X328613Y79635D01*
X328514Y79580D01*
X328413Y79529D01*
X328310Y79481D01*
X328206Y79436D01*
X328100Y79396D01*
X327993Y79359D01*
X327885Y79326D01*
X327775Y79296D01*
X327665Y79271D01*
X327554Y79249D01*
X327442Y79232D01*
X327329Y79218D01*
X327216Y79208D01*
X327103Y79202D01*
X326990Y79200D01*
X326990Y79201D02*
X323745Y79201D01*
X327639Y79201D02*
X330236Y74008D01*
X335101Y76604D02*
X337697Y85692D01*
X335101Y76604D02*
X341592Y76604D01*
X339645Y79201D02*
X339645Y74008D01*
D16*
X640000Y67500D02*
X640000Y47500D01*
X690000Y47500D02*
X690000Y67500D01*
D19*
X705000Y75500D03*
D13*
X705002Y75438D01*
X705008Y75377D01*
X705017Y75316D01*
X705030Y75256D01*
X705047Y75197D01*
X705068Y75139D01*
X705092Y75082D01*
X705119Y75027D01*
X705150Y74974D01*
X705184Y74922D01*
X705221Y74873D01*
X705261Y74826D01*
X705304Y74782D01*
X705349Y74741D01*
X705397Y74702D01*
X705448Y74666D01*
X705500Y74634D01*
X705554Y74605D01*
X705610Y74579D01*
X705668Y74557D01*
X705726Y74538D01*
X705786Y74523D01*
X705847Y74512D01*
X705908Y74504D01*
X705969Y74500D01*
X706031Y74500D01*
X706092Y74504D01*
X706153Y74512D01*
X706214Y74523D01*
X706274Y74538D01*
X706332Y74557D01*
X706390Y74579D01*
X706446Y74605D01*
X706500Y74634D01*
X706552Y74666D01*
X706603Y74702D01*
X706651Y74741D01*
X706696Y74782D01*
X706739Y74826D01*
X706779Y74873D01*
X706816Y74922D01*
X706850Y74974D01*
X706881Y75027D01*
X706908Y75082D01*
X706932Y75139D01*
X706953Y75197D01*
X706970Y75256D01*
X706983Y75316D01*
X706992Y75377D01*
X706998Y75438D01*
X707000Y75500D01*
D19*
X707000Y75500D03*
D13*
X706998Y75562D01*
X706992Y75623D01*
X706983Y75684D01*
X706970Y75744D01*
X706953Y75803D01*
X706932Y75861D01*
X706908Y75918D01*
X706881Y75973D01*
X706850Y76026D01*
X706816Y76078D01*
X706779Y76127D01*
X706739Y76174D01*
X706696Y76218D01*
X706651Y76259D01*
X706603Y76298D01*
X706552Y76334D01*
X706500Y76366D01*
X706446Y76395D01*
X706390Y76421D01*
X706332Y76443D01*
X706274Y76462D01*
X706214Y76477D01*
X706153Y76488D01*
X706092Y76496D01*
X706031Y76500D01*
X705969Y76500D01*
X705908Y76496D01*
X705847Y76488D01*
X705786Y76477D01*
X705726Y76462D01*
X705668Y76443D01*
X705610Y76421D01*
X705554Y76395D01*
X705500Y76366D01*
X705448Y76334D01*
X705397Y76298D01*
X705349Y76259D01*
X705304Y76218D01*
X705261Y76174D01*
X705221Y76127D01*
X705184Y76078D01*
X705150Y76026D01*
X705119Y75973D01*
X705092Y75918D01*
X705068Y75861D01*
X705047Y75803D01*
X705030Y75744D01*
X705017Y75684D01*
X705008Y75623D01*
X705002Y75562D01*
X705000Y75500D01*
D10*
X653623Y27842D02*
X653623Y16158D01*
X653623Y27842D02*
X656869Y27842D01*
X656982Y27840D01*
X657095Y27834D01*
X657208Y27824D01*
X657321Y27810D01*
X657433Y27793D01*
X657544Y27771D01*
X657654Y27746D01*
X657764Y27716D01*
X657872Y27683D01*
X657979Y27646D01*
X658085Y27606D01*
X658189Y27561D01*
X658292Y27513D01*
X658393Y27462D01*
X658492Y27407D01*
X658589Y27349D01*
X658684Y27287D01*
X658777Y27222D01*
X658867Y27154D01*
X658955Y27083D01*
X659041Y27008D01*
X659124Y26931D01*
X659204Y26851D01*
X659281Y26768D01*
X659356Y26682D01*
X659427Y26594D01*
X659495Y26504D01*
X659560Y26411D01*
X659622Y26316D01*
X659680Y26219D01*
X659735Y26120D01*
X659786Y26019D01*
X659834Y25916D01*
X659879Y25812D01*
X659919Y25706D01*
X659956Y25599D01*
X659989Y25491D01*
X660019Y25381D01*
X660044Y25271D01*
X660066Y25160D01*
X660083Y25048D01*
X660097Y24935D01*
X660107Y24822D01*
X660113Y24709D01*
X660115Y24596D01*
X660113Y24483D01*
X660107Y24370D01*
X660097Y24257D01*
X660083Y24144D01*
X660066Y24032D01*
X660044Y23921D01*
X660019Y23811D01*
X659989Y23701D01*
X659956Y23593D01*
X659919Y23486D01*
X659879Y23380D01*
X659834Y23276D01*
X659786Y23173D01*
X659735Y23072D01*
X659680Y22973D01*
X659622Y22876D01*
X659560Y22781D01*
X659495Y22688D01*
X659427Y22598D01*
X659356Y22510D01*
X659281Y22424D01*
X659204Y22341D01*
X659124Y22261D01*
X659041Y22184D01*
X658955Y22109D01*
X658867Y22038D01*
X658777Y21970D01*
X658684Y21905D01*
X658589Y21843D01*
X658492Y21785D01*
X658393Y21730D01*
X658292Y21679D01*
X658189Y21631D01*
X658085Y21586D01*
X657979Y21546D01*
X657872Y21509D01*
X657764Y21476D01*
X657654Y21446D01*
X657544Y21421D01*
X657433Y21399D01*
X657321Y21382D01*
X657208Y21368D01*
X657095Y21358D01*
X656982Y21352D01*
X656869Y21350D01*
X656869Y21351D02*
X653623Y21351D01*
X657518Y21351D02*
X660114Y16158D01*
X668493Y16158D02*
X668592Y16160D01*
X668692Y16166D01*
X668791Y16175D01*
X668889Y16188D01*
X668987Y16205D01*
X669085Y16226D01*
X669181Y16251D01*
X669276Y16279D01*
X669370Y16311D01*
X669463Y16346D01*
X669555Y16385D01*
X669645Y16428D01*
X669733Y16473D01*
X669820Y16523D01*
X669904Y16575D01*
X669987Y16631D01*
X670067Y16689D01*
X670145Y16751D01*
X670220Y16816D01*
X670293Y16884D01*
X670363Y16954D01*
X670431Y17027D01*
X670496Y17102D01*
X670558Y17180D01*
X670616Y17260D01*
X670672Y17343D01*
X670724Y17427D01*
X670774Y17514D01*
X670819Y17602D01*
X670862Y17692D01*
X670901Y17784D01*
X670936Y17877D01*
X670968Y17971D01*
X670996Y18066D01*
X671021Y18162D01*
X671042Y18260D01*
X671059Y18358D01*
X671072Y18456D01*
X671081Y18555D01*
X671087Y18655D01*
X671089Y18754D01*
X668493Y16158D02*
X668349Y16160D01*
X668204Y16166D01*
X668060Y16175D01*
X667917Y16188D01*
X667773Y16205D01*
X667630Y16226D01*
X667488Y16251D01*
X667347Y16279D01*
X667206Y16311D01*
X667066Y16347D01*
X666927Y16386D01*
X666789Y16429D01*
X666653Y16476D01*
X666517Y16526D01*
X666383Y16580D01*
X666251Y16637D01*
X666120Y16698D01*
X665991Y16762D01*
X665863Y16830D01*
X665737Y16900D01*
X665613Y16975D01*
X665492Y17052D01*
X665372Y17133D01*
X665254Y17216D01*
X665139Y17303D01*
X665026Y17393D01*
X664915Y17486D01*
X664807Y17581D01*
X664701Y17680D01*
X664598Y17781D01*
X664924Y25246D02*
X664926Y25345D01*
X664932Y25445D01*
X664941Y25544D01*
X664954Y25642D01*
X664971Y25740D01*
X664992Y25838D01*
X665017Y25934D01*
X665045Y26029D01*
X665077Y26123D01*
X665112Y26216D01*
X665151Y26308D01*
X665194Y26398D01*
X665239Y26486D01*
X665289Y26573D01*
X665341Y26657D01*
X665397Y26740D01*
X665455Y26820D01*
X665517Y26898D01*
X665582Y26973D01*
X665650Y27046D01*
X665720Y27116D01*
X665793Y27184D01*
X665868Y27249D01*
X665946Y27311D01*
X666026Y27369D01*
X666109Y27425D01*
X666193Y27477D01*
X666280Y27527D01*
X666368Y27572D01*
X666458Y27615D01*
X666550Y27654D01*
X666643Y27689D01*
X666737Y27721D01*
X666832Y27749D01*
X666929Y27774D01*
X667026Y27795D01*
X667124Y27812D01*
X667222Y27825D01*
X667321Y27834D01*
X667421Y27840D01*
X667520Y27842D01*
X667656Y27840D01*
X667792Y27834D01*
X667928Y27825D01*
X668064Y27812D01*
X668199Y27794D01*
X668333Y27774D01*
X668467Y27749D01*
X668601Y27721D01*
X668733Y27688D01*
X668864Y27653D01*
X668995Y27613D01*
X669124Y27570D01*
X669252Y27524D01*
X669378Y27473D01*
X669504Y27420D01*
X669627Y27362D01*
X669749Y27302D01*
X669869Y27238D01*
X669988Y27170D01*
X670104Y27100D01*
X670218Y27026D01*
X670331Y26949D01*
X670441Y26868D01*
X666221Y22974D02*
X666135Y23027D01*
X666051Y23084D01*
X665969Y23143D01*
X665889Y23206D01*
X665812Y23272D01*
X665737Y23340D01*
X665665Y23412D01*
X665596Y23486D01*
X665530Y23563D01*
X665467Y23642D01*
X665407Y23724D01*
X665350Y23808D01*
X665296Y23894D01*
X665246Y23982D01*
X665199Y24072D01*
X665155Y24163D01*
X665116Y24257D01*
X665079Y24351D01*
X665047Y24447D01*
X665018Y24545D01*
X664993Y24643D01*
X664972Y24742D01*
X664954Y24842D01*
X664941Y24942D01*
X664931Y25043D01*
X664925Y25145D01*
X664923Y25246D01*
X669792Y21026D02*
X669878Y20973D01*
X669962Y20916D01*
X670044Y20857D01*
X670124Y20794D01*
X670201Y20728D01*
X670276Y20660D01*
X670348Y20588D01*
X670417Y20514D01*
X670483Y20437D01*
X670546Y20358D01*
X670606Y20276D01*
X670663Y20192D01*
X670717Y20106D01*
X670767Y20018D01*
X670814Y19928D01*
X670858Y19837D01*
X670897Y19743D01*
X670934Y19649D01*
X670966Y19553D01*
X670995Y19455D01*
X671020Y19357D01*
X671041Y19258D01*
X671059Y19158D01*
X671072Y19058D01*
X671082Y18957D01*
X671088Y18855D01*
X671090Y18754D01*
X669792Y21026D02*
X666221Y22974D01*
X678131Y27842D02*
X678131Y16158D01*
X674886Y27842D02*
X681377Y27842D01*
M02*
