G04 EAGLE Gerber X2 export*
%TF.Part,Single*%
%TF.FileFunction,Paste,Top*%
%TF.FilePolarity,Positive*%
%TF.GenerationSoftware,Autodesk,EAGLE,9.1.0*%
%TF.CreationDate,2020-08-17T16:32:54Z*%
G75*
%MOMM*%
%FSLAX34Y34*%
%LPD*%
%AMOC8*
5,1,8,0,0,1.08239X$1,22.5*%
G01*
%ADD10R,1.300000X1.600000*%
%ADD11R,1.080000X1.050000*%
%ADD12R,1.270000X0.558800*%
%ADD13R,0.558800X1.270000*%
%ADD14R,1.050000X0.600000*%
%ADD15R,1.950000X2.950000*%
%ADD16R,1.600000X0.800000*%
%ADD17R,3.000000X2.100000*%
%ADD18R,0.800000X1.600000*%
%ADD19R,2.100000X3.000000*%
%ADD20R,1.160000X1.680000*%
%ADD21R,1.200000X1.100000*%
%ADD22R,1.000000X0.450000*%


D10*
X285000Y170000D03*
X305000Y170000D03*
D11*
X580000Y103750D03*
X580000Y86250D03*
X490000Y103750D03*
X490000Y86250D03*
D12*
X462926Y62000D03*
X462926Y70000D03*
X462926Y78000D03*
X462926Y86000D03*
X462926Y94000D03*
X462926Y102000D03*
X462926Y110000D03*
X462926Y118000D03*
D13*
X448000Y132926D03*
X440000Y132926D03*
X432000Y132926D03*
X424000Y132926D03*
X416000Y132926D03*
X408000Y132926D03*
X400000Y132926D03*
X392000Y132926D03*
D12*
X377074Y118000D03*
X377074Y110000D03*
X377074Y102000D03*
X377074Y94000D03*
X377074Y86000D03*
X377074Y78000D03*
X377074Y70000D03*
X377074Y62000D03*
D13*
X392000Y47074D03*
X400000Y47074D03*
X408000Y47074D03*
X416000Y47074D03*
X424000Y47074D03*
X432000Y47074D03*
X440000Y47074D03*
X448000Y47074D03*
D14*
X546000Y135500D03*
X546000Y154500D03*
X524000Y145000D03*
D15*
X513500Y95000D03*
X556500Y95000D03*
D16*
X704960Y101250D03*
X704960Y113750D03*
X704960Y126250D03*
X704960Y138750D03*
X704960Y151250D03*
X704960Y163750D03*
X704960Y176250D03*
X704960Y188750D03*
D17*
X733960Y214250D03*
X733960Y75750D03*
D18*
X368750Y207000D03*
X356250Y207000D03*
X343750Y207000D03*
X331250Y207000D03*
X318750Y207000D03*
X306250Y207000D03*
X293750Y207000D03*
X281250Y207000D03*
X268750Y207000D03*
X256250Y207000D03*
X243750Y207000D03*
X231250Y207000D03*
D19*
X394250Y236000D03*
X205750Y236000D03*
D16*
X120000Y176250D03*
X120000Y163750D03*
X120000Y151250D03*
X120000Y138750D03*
X120000Y126250D03*
X120000Y113750D03*
D17*
X91000Y201750D03*
X91000Y88250D03*
D20*
X280250Y50000D03*
X309750Y50000D03*
X549750Y180000D03*
X520250Y180000D03*
X659750Y245000D03*
X630250Y245000D03*
X309750Y110000D03*
X280250Y110000D03*
X280250Y80000D03*
X309750Y80000D03*
D21*
X695000Y76000D03*
X695000Y39000D03*
X635000Y76000D03*
X635000Y39000D03*
D22*
X665000Y82750D03*
X665000Y32250D03*
M02*
