G04 EAGLE Gerber X2 export*
%TF.Part,Single*%
%TF.FileFunction,Soldermask,Top,1*%
%TF.FilePolarity,Negative*%
%TF.GenerationSoftware,Autodesk,EAGLE,9.1.0*%
%TF.CreationDate,2020-08-17T16:32:54Z*%
G75*
%MOMM*%
%FSLAX34Y34*%
%LPD*%
%AMOC8*
5,1,8,0,0,1.08239X$1,22.5*%
G01*
%ADD10R,1.503200X1.803200*%
%ADD11R,1.283200X1.253200*%
%ADD12R,1.473200X0.762000*%
%ADD13R,0.762000X1.473200*%
%ADD14R,1.253200X0.803200*%
%ADD15R,2.153200X3.153200*%
%ADD16R,1.803200X1.003200*%
%ADD17R,3.203200X2.303200*%
%ADD18C,1.727200*%
%ADD19R,1.003200X1.803200*%
%ADD20R,2.303200X3.203200*%
%ADD21R,1.363200X1.883200*%
%ADD22R,1.403200X1.303200*%
%ADD23R,1.203200X0.653200*%
%ADD24C,1.203200*%
%ADD25C,4.203200*%


D10*
X285000Y170000D03*
X305000Y170000D03*
D11*
X580000Y103750D03*
X580000Y86250D03*
X490000Y103750D03*
X490000Y86250D03*
D12*
X462926Y62000D03*
X462926Y70000D03*
X462926Y78000D03*
X462926Y86000D03*
X462926Y94000D03*
X462926Y102000D03*
X462926Y110000D03*
X462926Y118000D03*
D13*
X448000Y132926D03*
X440000Y132926D03*
X432000Y132926D03*
X424000Y132926D03*
X416000Y132926D03*
X408000Y132926D03*
X400000Y132926D03*
X392000Y132926D03*
D12*
X377074Y118000D03*
X377074Y110000D03*
X377074Y102000D03*
X377074Y94000D03*
X377074Y86000D03*
X377074Y78000D03*
X377074Y70000D03*
X377074Y62000D03*
D13*
X392000Y47074D03*
X400000Y47074D03*
X408000Y47074D03*
X416000Y47074D03*
X424000Y47074D03*
X432000Y47074D03*
X440000Y47074D03*
X448000Y47074D03*
D14*
X546000Y135500D03*
X546000Y154500D03*
X524000Y145000D03*
D15*
X513500Y95000D03*
X556500Y95000D03*
D16*
X704960Y101250D03*
X704960Y113750D03*
X704960Y126250D03*
X704960Y138750D03*
X704960Y151250D03*
X704960Y163750D03*
X704960Y176250D03*
X704960Y188750D03*
D17*
X733960Y214250D03*
X733960Y75750D03*
D18*
X248620Y119600D02*
X233380Y119600D01*
X233380Y145000D02*
X248620Y145000D01*
X248620Y170400D02*
X233380Y170400D01*
D19*
X368750Y207000D03*
X356250Y207000D03*
X343750Y207000D03*
X331250Y207000D03*
X318750Y207000D03*
X306250Y207000D03*
X293750Y207000D03*
X281250Y207000D03*
X268750Y207000D03*
X256250Y207000D03*
X243750Y207000D03*
X231250Y207000D03*
D20*
X394250Y236000D03*
X205750Y236000D03*
D16*
X120000Y176250D03*
X120000Y163750D03*
X120000Y151250D03*
X120000Y138750D03*
X120000Y126250D03*
X120000Y113750D03*
D17*
X91000Y201750D03*
X91000Y88250D03*
D21*
X280250Y50000D03*
X309750Y50000D03*
X549750Y180000D03*
X520250Y180000D03*
X659750Y245000D03*
X630250Y245000D03*
X309750Y110000D03*
X280250Y110000D03*
X280250Y80000D03*
X309750Y80000D03*
D22*
X695000Y76000D03*
X695000Y39000D03*
X635000Y76000D03*
X635000Y39000D03*
D23*
X665000Y82750D03*
X665000Y32250D03*
D24*
X275000Y260000D03*
X325000Y260000D03*
X687500Y245000D03*
X241250Y190000D03*
X745000Y175000D03*
X350000Y260000D03*
X745000Y100000D03*
X745000Y150000D03*
X745000Y45000D03*
D25*
X337500Y145000D03*
D24*
X560000Y40000D03*
X605000Y40000D03*
X592500Y245000D03*
X520000Y40000D03*
X250000Y260000D03*
X495000Y40000D03*
X225000Y260000D03*
X725000Y150000D03*
X687500Y262500D03*
X470000Y40000D03*
X725000Y125000D03*
X725000Y100000D03*
X575000Y25000D03*
X140000Y240000D03*
X140000Y70000D03*
X140000Y220000D03*
D25*
X487500Y145000D03*
M02*
