G04 EAGLE Gerber X2 export*
%TF.Part,Single*%
%TF.FileFunction,Copper,L1,Top,Mixed*%
%TF.FilePolarity,Positive*%
%TF.GenerationSoftware,Autodesk,EAGLE,9.1.0*%
%TF.CreationDate,2020-06-24T00:02:45Z*%
G75*
%MOMM*%
%FSLAX34Y34*%
%LPD*%
%AMOC8*
5,1,8,0,0,1.08239X$1,22.5*%
G01*
%ADD10R,1.050000X0.600000*%
%ADD11R,1.600000X0.800000*%
%ADD12R,3.000000X2.100000*%
%ADD13C,1.524000*%
%ADD14R,1.160000X1.680000*%
%ADD15C,1.000000*%
%ADD16C,0.500000*%
%ADD17C,1.500000*%
%ADD18C,1.000000*%
%ADD19C,4.000000*%

G36*
X89710Y10178D02*
X89710Y10178D01*
X89846Y10181D01*
X89931Y10198D01*
X90018Y10206D01*
X90150Y10242D01*
X90284Y10269D01*
X90365Y10301D01*
X90449Y10324D01*
X90572Y10383D01*
X90699Y10434D01*
X90773Y10480D01*
X90852Y10517D01*
X90963Y10598D01*
X91079Y10670D01*
X91143Y10728D01*
X91213Y10779D01*
X91308Y10878D01*
X91410Y10970D01*
X91463Y11039D01*
X91523Y11101D01*
X91599Y11215D01*
X91682Y11324D01*
X91722Y11401D01*
X91770Y11473D01*
X91824Y11599D01*
X91887Y11721D01*
X91913Y11804D01*
X91947Y11884D01*
X91978Y12017D01*
X92018Y12148D01*
X92029Y12234D01*
X92048Y12319D01*
X92055Y12455D01*
X92071Y12591D01*
X92066Y12678D01*
X92070Y12765D01*
X92053Y12900D01*
X92045Y13037D01*
X92024Y13122D01*
X92013Y13208D01*
X91971Y13338D01*
X91939Y13471D01*
X91904Y13550D01*
X91877Y13633D01*
X91813Y13754D01*
X91758Y13879D01*
X91709Y13951D01*
X91668Y14028D01*
X91583Y14136D01*
X91507Y14249D01*
X91415Y14350D01*
X91392Y14379D01*
X91374Y14395D01*
X91340Y14432D01*
X89469Y16304D01*
X88475Y18702D01*
X88475Y21298D01*
X89469Y23696D01*
X91505Y25733D01*
X91538Y25771D01*
X91575Y25805D01*
X91681Y25943D01*
X91792Y26076D01*
X91816Y26119D01*
X91847Y26159D01*
X91927Y26313D01*
X92013Y26464D01*
X92029Y26511D01*
X92052Y26556D01*
X92103Y26721D01*
X92161Y26885D01*
X92169Y26935D01*
X92183Y26983D01*
X92204Y27155D01*
X92231Y27326D01*
X92230Y27376D01*
X92236Y27426D01*
X92226Y27600D01*
X92222Y27773D01*
X92213Y27822D01*
X92210Y27872D01*
X92168Y28041D01*
X92134Y28211D01*
X92116Y28257D01*
X92104Y28306D01*
X92034Y28465D01*
X91969Y28626D01*
X91943Y28669D01*
X91923Y28714D01*
X91825Y28858D01*
X91733Y29005D01*
X91700Y29042D01*
X91672Y29084D01*
X91505Y29267D01*
X89469Y31304D01*
X88475Y33702D01*
X88475Y36298D01*
X89469Y38696D01*
X91304Y40531D01*
X93702Y41525D01*
X96298Y41525D01*
X98311Y40691D01*
X98447Y40648D01*
X98581Y40597D01*
X98660Y40582D01*
X98737Y40558D01*
X98879Y40540D01*
X99020Y40513D01*
X99143Y40507D01*
X99180Y40502D01*
X99207Y40504D01*
X99267Y40501D01*
X353686Y40501D01*
X353872Y40517D01*
X354058Y40529D01*
X354094Y40537D01*
X354131Y40541D01*
X354312Y40590D01*
X354492Y40634D01*
X354526Y40649D01*
X354562Y40659D01*
X354730Y40740D01*
X354901Y40816D01*
X354931Y40836D01*
X354965Y40852D01*
X355116Y40962D01*
X355270Y41067D01*
X355308Y41101D01*
X355327Y41114D01*
X355352Y41141D01*
X355454Y41233D01*
X385134Y70913D01*
X387156Y71751D01*
X415309Y71751D01*
X415496Y71767D01*
X415615Y71775D01*
X434382Y71775D01*
X434444Y71763D01*
X434494Y71760D01*
X434517Y71757D01*
X434554Y71758D01*
X434691Y71751D01*
X461094Y71751D01*
X463116Y70913D01*
X464663Y69366D01*
X465501Y67344D01*
X465501Y64267D01*
X465514Y64124D01*
X465517Y63981D01*
X465533Y63902D01*
X465541Y63822D01*
X465579Y63684D01*
X465608Y63544D01*
X465649Y63428D01*
X465659Y63392D01*
X465671Y63367D01*
X465691Y63311D01*
X466525Y61298D01*
X466525Y58702D01*
X465531Y56304D01*
X463696Y54469D01*
X461298Y53475D01*
X458702Y53475D01*
X456304Y54469D01*
X454469Y56304D01*
X453351Y59003D01*
X453317Y59126D01*
X453295Y59171D01*
X453280Y59218D01*
X453199Y59372D01*
X453124Y59528D01*
X453094Y59569D01*
X453071Y59613D01*
X452964Y59750D01*
X452862Y59890D01*
X452826Y59925D01*
X452795Y59964D01*
X452665Y60080D01*
X452540Y60200D01*
X452498Y60227D01*
X452460Y60261D01*
X452312Y60351D01*
X452168Y60447D01*
X452122Y60467D01*
X452079Y60493D01*
X451917Y60555D01*
X451757Y60624D01*
X451709Y60635D01*
X451662Y60653D01*
X451491Y60686D01*
X451322Y60725D01*
X451272Y60728D01*
X451223Y60737D01*
X450976Y60749D01*
X437024Y60749D01*
X436974Y60745D01*
X436924Y60747D01*
X436752Y60725D01*
X436579Y60709D01*
X436531Y60696D01*
X436481Y60690D01*
X436316Y60637D01*
X436148Y60591D01*
X436103Y60569D01*
X436056Y60554D01*
X435902Y60473D01*
X435746Y60398D01*
X435705Y60368D01*
X435661Y60345D01*
X435524Y60238D01*
X435384Y60136D01*
X435349Y60100D01*
X435310Y60069D01*
X435194Y59939D01*
X435074Y59814D01*
X435047Y59772D01*
X435013Y59734D01*
X434923Y59586D01*
X434827Y59442D01*
X434807Y59396D01*
X434781Y59353D01*
X434719Y59191D01*
X434650Y59031D01*
X434639Y58983D01*
X434621Y58936D01*
X434588Y58765D01*
X434549Y58596D01*
X434546Y58546D01*
X434537Y58497D01*
X434525Y58250D01*
X434525Y49118D01*
X433632Y48225D01*
X415618Y48225D01*
X415556Y48237D01*
X415506Y48240D01*
X415483Y48243D01*
X415446Y48242D01*
X415309Y48249D01*
X402064Y48249D01*
X401878Y48233D01*
X401692Y48221D01*
X401656Y48213D01*
X401619Y48209D01*
X401438Y48160D01*
X401258Y48116D01*
X401224Y48101D01*
X401188Y48091D01*
X401020Y48010D01*
X400849Y47934D01*
X400819Y47914D01*
X400785Y47898D01*
X400634Y47788D01*
X400480Y47683D01*
X400442Y47649D01*
X400423Y47636D01*
X400398Y47609D01*
X400296Y47517D01*
X368116Y15337D01*
X367240Y14974D01*
X367081Y14891D01*
X366918Y14813D01*
X366883Y14787D01*
X366844Y14767D01*
X366703Y14656D01*
X366556Y14551D01*
X366526Y14519D01*
X366492Y14493D01*
X366372Y14358D01*
X366247Y14229D01*
X366223Y14192D01*
X366194Y14160D01*
X366099Y14007D01*
X366000Y13857D01*
X365982Y13817D01*
X365960Y13779D01*
X365894Y13612D01*
X365823Y13446D01*
X365813Y13404D01*
X365797Y13363D01*
X365762Y13186D01*
X365721Y13011D01*
X365719Y12968D01*
X365711Y12925D01*
X365708Y12745D01*
X365699Y12565D01*
X365705Y12522D01*
X365704Y12478D01*
X365734Y12301D01*
X365757Y12122D01*
X365770Y12081D01*
X365777Y12038D01*
X365838Y11868D01*
X365893Y11697D01*
X365913Y11658D01*
X365928Y11617D01*
X366017Y11461D01*
X366102Y11302D01*
X366129Y11268D01*
X366150Y11230D01*
X366266Y11092D01*
X366378Y10951D01*
X366410Y10922D01*
X366439Y10889D01*
X366577Y10774D01*
X366712Y10654D01*
X366749Y10632D01*
X366783Y10604D01*
X366940Y10516D01*
X367094Y10422D01*
X367134Y10407D01*
X367172Y10385D01*
X367343Y10326D01*
X367511Y10262D01*
X367553Y10254D01*
X367595Y10239D01*
X367773Y10212D01*
X367949Y10178D01*
X368009Y10175D01*
X368036Y10171D01*
X368073Y10172D01*
X368197Y10166D01*
X493000Y10166D01*
X493050Y10170D01*
X493100Y10168D01*
X493272Y10190D01*
X493445Y10206D01*
X493493Y10219D01*
X493543Y10225D01*
X493708Y10278D01*
X493876Y10324D01*
X493921Y10346D01*
X493968Y10361D01*
X494122Y10442D01*
X494278Y10517D01*
X494319Y10547D01*
X494363Y10570D01*
X494500Y10677D01*
X494640Y10779D01*
X494675Y10815D01*
X494714Y10846D01*
X494830Y10976D01*
X494950Y11101D01*
X494977Y11143D01*
X495011Y11181D01*
X495101Y11329D01*
X495197Y11473D01*
X495217Y11519D01*
X495243Y11562D01*
X495305Y11724D01*
X495374Y11884D01*
X495385Y11932D01*
X495403Y11979D01*
X495436Y12150D01*
X495475Y12319D01*
X495478Y12369D01*
X495487Y12418D01*
X495499Y12665D01*
X495499Y109538D01*
X495492Y109621D01*
X495494Y109705D01*
X495472Y109843D01*
X495459Y109983D01*
X495437Y110064D01*
X495424Y110146D01*
X495378Y110278D01*
X495341Y110414D01*
X495305Y110489D01*
X495277Y110568D01*
X495175Y110767D01*
X489737Y127504D01*
X487898Y145000D01*
X489737Y162496D01*
X495178Y179240D01*
X495199Y179288D01*
X495243Y179359D01*
X495293Y179490D01*
X495352Y179617D01*
X495373Y179698D01*
X495403Y179776D01*
X495430Y179914D01*
X495465Y180049D01*
X495471Y180133D01*
X495487Y180215D01*
X495499Y180462D01*
X495499Y277335D01*
X495495Y277385D01*
X495497Y277435D01*
X495475Y277607D01*
X495459Y277780D01*
X495446Y277828D01*
X495440Y277878D01*
X495387Y278043D01*
X495341Y278211D01*
X495319Y278256D01*
X495304Y278303D01*
X495223Y278457D01*
X495148Y278613D01*
X495118Y278654D01*
X495095Y278698D01*
X494988Y278835D01*
X494886Y278975D01*
X494850Y279010D01*
X494819Y279049D01*
X494689Y279165D01*
X494564Y279285D01*
X494522Y279312D01*
X494484Y279346D01*
X494336Y279436D01*
X494192Y279532D01*
X494145Y279552D01*
X494103Y279578D01*
X493941Y279640D01*
X493781Y279709D01*
X493733Y279720D01*
X493686Y279738D01*
X493515Y279771D01*
X493346Y279810D01*
X493296Y279813D01*
X493247Y279822D01*
X493000Y279834D01*
X31423Y279834D01*
X31265Y279820D01*
X31107Y279814D01*
X31043Y279800D01*
X30978Y279794D01*
X30825Y279752D01*
X30670Y279718D01*
X30610Y279693D01*
X30547Y279676D01*
X30404Y279607D01*
X30258Y279546D01*
X30203Y279511D01*
X30144Y279483D01*
X30016Y279390D01*
X29883Y279304D01*
X29835Y279259D01*
X29783Y279221D01*
X29673Y279106D01*
X29557Y278998D01*
X29518Y278946D01*
X29473Y278899D01*
X29385Y278767D01*
X29291Y278639D01*
X29262Y278581D01*
X29226Y278527D01*
X29163Y278381D01*
X29093Y278239D01*
X29075Y278176D01*
X29049Y278116D01*
X29013Y277962D01*
X28969Y277810D01*
X28962Y277745D01*
X28948Y277681D01*
X28940Y277523D01*
X28924Y277365D01*
X28929Y277300D01*
X28926Y277235D01*
X28946Y277078D01*
X28958Y276920D01*
X28975Y276857D01*
X28983Y276792D01*
X29031Y276641D01*
X29071Y276488D01*
X29099Y276429D01*
X29119Y276367D01*
X29193Y276227D01*
X29260Y276083D01*
X29297Y276030D01*
X29328Y275972D01*
X29426Y275847D01*
X29517Y275718D01*
X29564Y275672D01*
X29604Y275621D01*
X29723Y275515D01*
X29836Y275404D01*
X29912Y275348D01*
X29938Y275324D01*
X29967Y275307D01*
X30034Y275257D01*
X36042Y271242D01*
X40945Y263905D01*
X42667Y255250D01*
X40945Y246595D01*
X36042Y239258D01*
X28705Y234355D01*
X20050Y232633D01*
X11242Y234385D01*
X11152Y234415D01*
X10993Y234476D01*
X10940Y234485D01*
X10889Y234502D01*
X10721Y234526D01*
X10554Y234558D01*
X10500Y234558D01*
X10447Y234566D01*
X10278Y234559D01*
X10107Y234560D01*
X10054Y234551D01*
X10001Y234549D01*
X9835Y234513D01*
X9667Y234483D01*
X9617Y234465D01*
X9565Y234453D01*
X9408Y234388D01*
X9248Y234329D01*
X9202Y234302D01*
X9152Y234281D01*
X9009Y234189D01*
X8863Y234103D01*
X8822Y234068D01*
X8777Y234039D01*
X8653Y233922D01*
X8524Y233812D01*
X8490Y233770D01*
X8451Y233733D01*
X8350Y233597D01*
X8243Y233465D01*
X8217Y233418D01*
X8185Y233375D01*
X8109Y233222D01*
X8027Y233073D01*
X8001Y233003D01*
X7987Y232974D01*
X7976Y232940D01*
X7939Y232842D01*
X7727Y232190D01*
X4978Y228406D01*
X4868Y228221D01*
X4757Y228039D01*
X4754Y228031D01*
X4749Y228022D01*
X4674Y227823D01*
X4597Y227623D01*
X4595Y227613D01*
X4592Y227604D01*
X4554Y227396D01*
X4513Y227184D01*
X4512Y227171D01*
X4511Y227165D01*
X4511Y227146D01*
X4501Y226937D01*
X4501Y207885D01*
X4513Y207748D01*
X4516Y207612D01*
X4533Y207527D01*
X4541Y207440D01*
X4577Y207308D01*
X4604Y207174D01*
X4636Y207093D01*
X4659Y207009D01*
X4718Y206886D01*
X4769Y206759D01*
X4815Y206685D01*
X4852Y206606D01*
X4933Y206495D01*
X5005Y206379D01*
X5063Y206315D01*
X5114Y206245D01*
X5213Y206150D01*
X5305Y206048D01*
X5374Y205995D01*
X5436Y205935D01*
X5550Y205859D01*
X5659Y205776D01*
X5736Y205736D01*
X5808Y205688D01*
X5934Y205634D01*
X6056Y205571D01*
X6139Y205545D01*
X6219Y205511D01*
X6352Y205480D01*
X6483Y205440D01*
X6569Y205429D01*
X6654Y205410D01*
X6790Y205403D01*
X6926Y205387D01*
X7013Y205392D01*
X7100Y205388D01*
X7235Y205405D01*
X7372Y205413D01*
X7457Y205434D01*
X7543Y205445D01*
X7673Y205487D01*
X7806Y205519D01*
X7886Y205554D01*
X7968Y205581D01*
X8089Y205645D01*
X8214Y205700D01*
X8286Y205749D01*
X8363Y205790D01*
X8471Y205875D01*
X8584Y205951D01*
X8685Y206043D01*
X8714Y206066D01*
X8730Y206084D01*
X8767Y206118D01*
X11552Y208902D01*
X15411Y210501D01*
X34615Y210501D01*
X34801Y210517D01*
X34987Y210529D01*
X35023Y210537D01*
X35060Y210541D01*
X35241Y210590D01*
X35421Y210634D01*
X35455Y210649D01*
X35491Y210659D01*
X35659Y210740D01*
X35830Y210816D01*
X35860Y210836D01*
X35894Y210852D01*
X36045Y210962D01*
X36199Y211067D01*
X36236Y211101D01*
X36255Y211114D01*
X36281Y211141D01*
X36382Y211233D01*
X59052Y233902D01*
X62911Y235501D01*
X139839Y235501D01*
X143698Y233902D01*
X146652Y230948D01*
X148251Y227089D01*
X148251Y223000D01*
X148255Y222950D01*
X148253Y222900D01*
X148275Y222728D01*
X148291Y222555D01*
X148304Y222507D01*
X148310Y222457D01*
X148363Y222292D01*
X148409Y222124D01*
X148431Y222079D01*
X148446Y222032D01*
X148527Y221878D01*
X148602Y221722D01*
X148632Y221681D01*
X148655Y221637D01*
X148762Y221500D01*
X148864Y221360D01*
X148900Y221325D01*
X148931Y221286D01*
X149061Y221170D01*
X149186Y221050D01*
X149228Y221023D01*
X149266Y220989D01*
X149414Y220899D01*
X149558Y220803D01*
X149604Y220783D01*
X149647Y220757D01*
X149809Y220695D01*
X149969Y220626D01*
X150017Y220615D01*
X150064Y220597D01*
X150235Y220564D01*
X150404Y220525D01*
X150454Y220522D01*
X150503Y220513D01*
X150750Y220501D01*
X157089Y220501D01*
X160948Y218902D01*
X163902Y215948D01*
X165501Y212089D01*
X165501Y207911D01*
X163902Y204052D01*
X160948Y201098D01*
X157089Y199499D01*
X150750Y199499D01*
X150700Y199495D01*
X150650Y199497D01*
X150478Y199475D01*
X150305Y199459D01*
X150257Y199446D01*
X150207Y199440D01*
X150042Y199387D01*
X149874Y199341D01*
X149829Y199319D01*
X149782Y199304D01*
X149628Y199223D01*
X149472Y199148D01*
X149431Y199118D01*
X149387Y199095D01*
X149250Y198988D01*
X149110Y198886D01*
X149075Y198850D01*
X149036Y198819D01*
X148920Y198689D01*
X148800Y198564D01*
X148773Y198522D01*
X148739Y198484D01*
X148649Y198336D01*
X148553Y198192D01*
X148533Y198146D01*
X148507Y198103D01*
X148445Y197941D01*
X148376Y197781D01*
X148365Y197733D01*
X148347Y197686D01*
X148314Y197515D01*
X148275Y197346D01*
X148272Y197296D01*
X148263Y197247D01*
X148251Y197000D01*
X148251Y174161D01*
X146652Y170302D01*
X143698Y167348D01*
X139839Y165749D01*
X135661Y165749D01*
X132996Y166853D01*
X132907Y166881D01*
X132821Y166918D01*
X132694Y166948D01*
X132570Y166986D01*
X132477Y166998D01*
X132386Y167019D01*
X132256Y167026D01*
X132127Y167042D01*
X132033Y167037D01*
X131940Y167041D01*
X131811Y167025D01*
X131681Y167017D01*
X131590Y166996D01*
X131497Y166984D01*
X131373Y166944D01*
X131246Y166914D01*
X131161Y166876D01*
X131072Y166848D01*
X130956Y166787D01*
X130837Y166735D01*
X130760Y166683D01*
X130677Y166639D01*
X130574Y166558D01*
X130466Y166486D01*
X130399Y166421D01*
X130326Y166363D01*
X130239Y166265D01*
X130223Y166249D01*
X119000Y166249D01*
X108459Y166249D01*
X108459Y168084D01*
X108632Y168731D01*
X109131Y169595D01*
X109155Y169646D01*
X109219Y169751D01*
X109232Y169785D01*
X109250Y169818D01*
X109300Y169958D01*
X109319Y170000D01*
X109329Y170036D01*
X109379Y170168D01*
X109386Y170204D01*
X109399Y170239D01*
X109426Y170408D01*
X109432Y170433D01*
X109434Y170452D01*
X109463Y170606D01*
X109466Y170657D01*
X109469Y170680D01*
X109468Y170717D01*
X109475Y170854D01*
X109475Y180882D01*
X110368Y181775D01*
X112175Y181775D01*
X112361Y181791D01*
X112547Y181803D01*
X112583Y181811D01*
X112620Y181815D01*
X112800Y181864D01*
X112981Y181908D01*
X113015Y181923D01*
X113050Y181933D01*
X113219Y182014D01*
X113389Y182090D01*
X113420Y182110D01*
X113453Y182126D01*
X113604Y182236D01*
X113759Y182341D01*
X113796Y182375D01*
X113815Y182388D01*
X113840Y182415D01*
X113942Y182507D01*
X114468Y183033D01*
X117409Y184251D01*
X124750Y184251D01*
X124800Y184255D01*
X124850Y184253D01*
X125022Y184275D01*
X125195Y184291D01*
X125243Y184304D01*
X125293Y184310D01*
X125458Y184363D01*
X125626Y184409D01*
X125671Y184431D01*
X125718Y184446D01*
X125872Y184527D01*
X126028Y184602D01*
X126069Y184632D01*
X126113Y184655D01*
X126250Y184762D01*
X126390Y184864D01*
X126425Y184900D01*
X126464Y184931D01*
X126580Y185061D01*
X126700Y185186D01*
X126727Y185228D01*
X126761Y185266D01*
X126851Y185414D01*
X126947Y185558D01*
X126967Y185604D01*
X126993Y185647D01*
X127055Y185809D01*
X127124Y185969D01*
X127135Y186017D01*
X127153Y186064D01*
X127186Y186235D01*
X127225Y186404D01*
X127228Y186454D01*
X127237Y186503D01*
X127249Y186750D01*
X127249Y212000D01*
X127245Y212050D01*
X127247Y212100D01*
X127225Y212272D01*
X127209Y212445D01*
X127196Y212493D01*
X127190Y212543D01*
X127137Y212708D01*
X127091Y212876D01*
X127069Y212921D01*
X127054Y212968D01*
X126973Y213122D01*
X126898Y213278D01*
X126868Y213319D01*
X126845Y213363D01*
X126738Y213500D01*
X126636Y213640D01*
X126600Y213675D01*
X126569Y213714D01*
X126439Y213830D01*
X126314Y213950D01*
X126272Y213977D01*
X126234Y214011D01*
X126086Y214101D01*
X125942Y214197D01*
X125896Y214217D01*
X125853Y214243D01*
X125691Y214305D01*
X125531Y214374D01*
X125483Y214385D01*
X125436Y214403D01*
X125265Y214436D01*
X125096Y214475D01*
X125046Y214478D01*
X124997Y214487D01*
X124750Y214499D01*
X109024Y214499D01*
X108974Y214495D01*
X108924Y214497D01*
X108752Y214475D01*
X108579Y214459D01*
X108531Y214446D01*
X108481Y214440D01*
X108316Y214387D01*
X108148Y214341D01*
X108103Y214319D01*
X108056Y214304D01*
X107902Y214223D01*
X107746Y214148D01*
X107705Y214118D01*
X107661Y214095D01*
X107524Y213988D01*
X107384Y213886D01*
X107349Y213850D01*
X107310Y213819D01*
X107194Y213689D01*
X107074Y213564D01*
X107047Y213522D01*
X107013Y213484D01*
X106923Y213336D01*
X106827Y213192D01*
X106807Y213146D01*
X106781Y213103D01*
X106719Y212941D01*
X106650Y212781D01*
X106639Y212733D01*
X106621Y212686D01*
X106588Y212515D01*
X106549Y212346D01*
X106546Y212296D01*
X106537Y212247D01*
X106525Y212000D01*
X106525Y190618D01*
X105632Y189725D01*
X74368Y189725D01*
X73475Y190618D01*
X73475Y212000D01*
X73471Y212050D01*
X73473Y212100D01*
X73451Y212272D01*
X73435Y212445D01*
X73422Y212493D01*
X73416Y212543D01*
X73363Y212708D01*
X73317Y212876D01*
X73295Y212921D01*
X73280Y212968D01*
X73199Y213122D01*
X73124Y213278D01*
X73094Y213319D01*
X73071Y213363D01*
X72964Y213500D01*
X72862Y213640D01*
X72826Y213675D01*
X72795Y213714D01*
X72665Y213830D01*
X72540Y213950D01*
X72498Y213977D01*
X72460Y214011D01*
X72312Y214101D01*
X72168Y214197D01*
X72122Y214217D01*
X72079Y214243D01*
X71917Y214305D01*
X71757Y214374D01*
X71709Y214385D01*
X71662Y214403D01*
X71491Y214436D01*
X71322Y214475D01*
X71272Y214478D01*
X71223Y214487D01*
X70976Y214499D01*
X70385Y214499D01*
X70199Y214483D01*
X70013Y214471D01*
X69977Y214463D01*
X69940Y214459D01*
X69759Y214410D01*
X69579Y214366D01*
X69545Y214351D01*
X69509Y214341D01*
X69341Y214260D01*
X69170Y214184D01*
X69140Y214164D01*
X69106Y214148D01*
X68955Y214038D01*
X68801Y213933D01*
X68764Y213899D01*
X68745Y213886D01*
X68719Y213859D01*
X68618Y213767D01*
X45948Y191098D01*
X42089Y189499D01*
X30500Y189499D01*
X30450Y189495D01*
X30400Y189497D01*
X30228Y189475D01*
X30055Y189459D01*
X30007Y189446D01*
X29957Y189440D01*
X29792Y189387D01*
X29624Y189341D01*
X29579Y189319D01*
X29532Y189304D01*
X29378Y189223D01*
X29222Y189148D01*
X29181Y189118D01*
X29137Y189095D01*
X29000Y188988D01*
X28860Y188886D01*
X28825Y188850D01*
X28786Y188819D01*
X28670Y188689D01*
X28550Y188564D01*
X28523Y188522D01*
X28489Y188484D01*
X28399Y188336D01*
X28303Y188192D01*
X28283Y188146D01*
X28257Y188103D01*
X28195Y187941D01*
X28126Y187781D01*
X28115Y187733D01*
X28097Y187686D01*
X28064Y187515D01*
X28025Y187346D01*
X28022Y187296D01*
X28013Y187247D01*
X28001Y187000D01*
X28001Y180775D01*
X28009Y180682D01*
X28008Y180588D01*
X28029Y180460D01*
X28041Y180330D01*
X28065Y180240D01*
X28081Y180148D01*
X28125Y180025D01*
X28159Y179899D01*
X28200Y179815D01*
X28231Y179727D01*
X28296Y179614D01*
X28352Y179497D01*
X28407Y179421D01*
X28454Y179340D01*
X28538Y179240D01*
X28614Y179135D01*
X28682Y179070D01*
X28742Y178998D01*
X28842Y178915D01*
X28936Y178825D01*
X29014Y178773D01*
X29086Y178714D01*
X29200Y178650D01*
X29308Y178578D01*
X29394Y178541D01*
X29476Y178495D01*
X29599Y178452D01*
X29719Y178401D01*
X29809Y178380D01*
X29898Y178349D01*
X30027Y178329D01*
X30154Y178300D01*
X30247Y178295D01*
X30339Y178281D01*
X30470Y178284D01*
X30600Y178278D01*
X30692Y178290D01*
X30786Y178292D01*
X30914Y178318D01*
X31043Y178335D01*
X31132Y178364D01*
X31223Y178383D01*
X31456Y178466D01*
X34061Y179545D01*
X52939Y179545D01*
X56300Y178153D01*
X58873Y175580D01*
X60265Y172219D01*
X60265Y168581D01*
X58873Y165220D01*
X56300Y162647D01*
X52939Y161255D01*
X34061Y161255D01*
X31456Y162334D01*
X31367Y162362D01*
X31281Y162399D01*
X31155Y162429D01*
X31030Y162468D01*
X30937Y162479D01*
X30846Y162500D01*
X30716Y162507D01*
X30587Y162523D01*
X30493Y162518D01*
X30400Y162522D01*
X30271Y162506D01*
X30141Y162498D01*
X30050Y162477D01*
X29957Y162465D01*
X29833Y162425D01*
X29706Y162395D01*
X29621Y162357D01*
X29532Y162329D01*
X29417Y162268D01*
X29297Y162216D01*
X29219Y162164D01*
X29137Y162120D01*
X29035Y162039D01*
X28926Y161967D01*
X28859Y161902D01*
X28786Y161844D01*
X28699Y161746D01*
X28606Y161656D01*
X28551Y161580D01*
X28489Y161510D01*
X28422Y161398D01*
X28346Y161292D01*
X28306Y161208D01*
X28257Y161128D01*
X28210Y161006D01*
X28155Y160889D01*
X28130Y160799D01*
X28097Y160711D01*
X28072Y160583D01*
X28038Y160457D01*
X28031Y160364D01*
X28013Y160272D01*
X28001Y160025D01*
X28001Y155375D01*
X28009Y155282D01*
X28008Y155188D01*
X28029Y155060D01*
X28041Y154930D01*
X28065Y154840D01*
X28081Y154748D01*
X28125Y154625D01*
X28159Y154499D01*
X28200Y154415D01*
X28231Y154327D01*
X28296Y154214D01*
X28352Y154097D01*
X28407Y154021D01*
X28454Y153940D01*
X28538Y153840D01*
X28614Y153735D01*
X28682Y153670D01*
X28742Y153598D01*
X28842Y153515D01*
X28936Y153425D01*
X29014Y153373D01*
X29086Y153314D01*
X29200Y153250D01*
X29308Y153178D01*
X29394Y153141D01*
X29476Y153095D01*
X29599Y153052D01*
X29719Y153001D01*
X29809Y152980D01*
X29898Y152949D01*
X30027Y152929D01*
X30154Y152900D01*
X30247Y152895D01*
X30339Y152881D01*
X30470Y152884D01*
X30600Y152878D01*
X30692Y152890D01*
X30786Y152892D01*
X30914Y152918D01*
X31043Y152935D01*
X31132Y152964D01*
X31223Y152983D01*
X31456Y153066D01*
X34061Y154145D01*
X52939Y154145D01*
X56300Y152753D01*
X57820Y151233D01*
X57963Y151113D01*
X58103Y150989D01*
X58134Y150970D01*
X58163Y150946D01*
X58325Y150854D01*
X58484Y150757D01*
X58519Y150744D01*
X58551Y150726D01*
X58727Y150664D01*
X58901Y150597D01*
X58938Y150590D01*
X58972Y150577D01*
X59157Y150548D01*
X59340Y150513D01*
X59390Y150510D01*
X59414Y150507D01*
X59450Y150508D01*
X59587Y150501D01*
X59844Y150501D01*
X61866Y149663D01*
X91546Y119983D01*
X91690Y119863D01*
X91829Y119739D01*
X91861Y119720D01*
X91889Y119696D01*
X92051Y119604D01*
X92211Y119507D01*
X92245Y119494D01*
X92278Y119476D01*
X92454Y119414D01*
X92628Y119347D01*
X92664Y119340D01*
X92699Y119327D01*
X92883Y119298D01*
X93067Y119263D01*
X93117Y119260D01*
X93140Y119257D01*
X93177Y119258D01*
X93314Y119251D01*
X106976Y119251D01*
X107026Y119255D01*
X107076Y119253D01*
X107248Y119275D01*
X107421Y119291D01*
X107469Y119304D01*
X107519Y119310D01*
X107684Y119363D01*
X107852Y119409D01*
X107897Y119431D01*
X107944Y119446D01*
X108098Y119527D01*
X108254Y119602D01*
X108295Y119632D01*
X108339Y119655D01*
X108476Y119762D01*
X108616Y119864D01*
X108651Y119900D01*
X108690Y119931D01*
X108806Y120061D01*
X108926Y120186D01*
X108953Y120228D01*
X108987Y120266D01*
X109077Y120414D01*
X109173Y120558D01*
X109193Y120604D01*
X109219Y120647D01*
X109281Y120809D01*
X109350Y120969D01*
X109361Y121017D01*
X109379Y121064D01*
X109412Y121235D01*
X109451Y121404D01*
X109454Y121454D01*
X109463Y121503D01*
X109475Y121750D01*
X109475Y130750D01*
X109471Y130800D01*
X109473Y130850D01*
X109451Y131022D01*
X109435Y131195D01*
X109422Y131243D01*
X109416Y131293D01*
X109363Y131458D01*
X109317Y131626D01*
X109295Y131671D01*
X109280Y131718D01*
X109199Y131872D01*
X109124Y132028D01*
X109094Y132069D01*
X109071Y132113D01*
X108964Y132250D01*
X108862Y132390D01*
X108826Y132425D01*
X108795Y132464D01*
X108665Y132580D01*
X108540Y132700D01*
X108498Y132727D01*
X108460Y132761D01*
X108312Y132851D01*
X108168Y132947D01*
X108122Y132967D01*
X108079Y132993D01*
X107917Y133055D01*
X107757Y133124D01*
X107709Y133135D01*
X107662Y133153D01*
X107491Y133186D01*
X107322Y133225D01*
X107272Y133228D01*
X107223Y133237D01*
X106976Y133249D01*
X90156Y133249D01*
X88134Y134087D01*
X74128Y148093D01*
X74018Y148185D01*
X73914Y148284D01*
X73847Y148328D01*
X73785Y148379D01*
X73660Y148450D01*
X73541Y148529D01*
X73429Y148582D01*
X73397Y148600D01*
X73371Y148609D01*
X73317Y148635D01*
X71304Y149469D01*
X69469Y151304D01*
X68475Y153702D01*
X68475Y156298D01*
X69469Y158696D01*
X71304Y160531D01*
X73702Y161525D01*
X76298Y161525D01*
X78696Y160531D01*
X80531Y158696D01*
X81365Y156683D01*
X81432Y156556D01*
X81490Y156425D01*
X81535Y156359D01*
X81572Y156287D01*
X81660Y156174D01*
X81741Y156056D01*
X81824Y155964D01*
X81847Y155935D01*
X81864Y155919D01*
X81873Y155907D01*
X81882Y155899D01*
X81907Y155872D01*
X84209Y153570D01*
X84314Y153483D01*
X84412Y153388D01*
X84485Y153340D01*
X84552Y153284D01*
X84670Y153217D01*
X84784Y153141D01*
X84864Y153106D01*
X84940Y153063D01*
X85069Y153018D01*
X85195Y152964D01*
X85279Y152944D01*
X85361Y152915D01*
X85497Y152893D01*
X85630Y152863D01*
X85716Y152858D01*
X85802Y152844D01*
X85939Y152847D01*
X86076Y152840D01*
X86162Y152852D01*
X86249Y152853D01*
X86383Y152880D01*
X86519Y152898D01*
X86602Y152924D01*
X86687Y152942D01*
X86814Y152992D01*
X86944Y153034D01*
X87021Y153074D01*
X87102Y153106D01*
X87218Y153179D01*
X87339Y153243D01*
X87408Y153297D01*
X87481Y153343D01*
X87583Y153434D01*
X87690Y153519D01*
X87748Y153584D01*
X87812Y153642D01*
X87896Y153751D01*
X87987Y153853D01*
X88032Y153927D01*
X88085Y153996D01*
X88148Y154118D01*
X88219Y154235D01*
X88250Y154316D01*
X88290Y154393D01*
X88330Y154524D01*
X88379Y154652D01*
X88396Y154737D01*
X88421Y154820D01*
X88437Y154956D01*
X88463Y155090D01*
X88470Y155227D01*
X88474Y155264D01*
X88473Y155287D01*
X88475Y155338D01*
X88475Y156298D01*
X89469Y158696D01*
X91304Y160531D01*
X93702Y161525D01*
X96298Y161525D01*
X98696Y160531D01*
X100531Y158696D01*
X100698Y158294D01*
X100701Y158288D01*
X100703Y158282D01*
X100805Y158090D01*
X100905Y157898D01*
X100909Y157893D01*
X100912Y157887D01*
X101049Y157713D01*
X101179Y157545D01*
X101184Y157541D01*
X101188Y157536D01*
X101353Y157390D01*
X101512Y157247D01*
X101518Y157244D01*
X101523Y157239D01*
X101710Y157126D01*
X101893Y157013D01*
X101899Y157011D01*
X101904Y157007D01*
X102107Y156929D01*
X102309Y156850D01*
X102315Y156849D01*
X102321Y156847D01*
X102534Y156806D01*
X102747Y156764D01*
X102754Y156764D01*
X102760Y156763D01*
X103007Y156751D01*
X105960Y156751D01*
X106010Y156755D01*
X106060Y156753D01*
X106232Y156775D01*
X106405Y156791D01*
X106453Y156804D01*
X106503Y156810D01*
X106668Y156863D01*
X106836Y156909D01*
X106881Y156931D01*
X106928Y156946D01*
X107082Y157027D01*
X107238Y157102D01*
X107279Y157132D01*
X107323Y157155D01*
X107460Y157262D01*
X107600Y157364D01*
X107635Y157400D01*
X107674Y157431D01*
X107790Y157561D01*
X107910Y157686D01*
X107937Y157728D01*
X107971Y157766D01*
X108061Y157914D01*
X108157Y158058D01*
X108177Y158104D01*
X108203Y158147D01*
X108265Y158310D01*
X108334Y158469D01*
X108345Y158517D01*
X108363Y158564D01*
X108396Y158735D01*
X108435Y158904D01*
X108438Y158954D01*
X108447Y159003D01*
X108459Y159250D01*
X108459Y161251D01*
X119000Y161251D01*
X129541Y161251D01*
X129541Y159416D01*
X129368Y158769D01*
X128869Y157905D01*
X128845Y157854D01*
X128781Y157749D01*
X128768Y157715D01*
X128750Y157682D01*
X128700Y157542D01*
X128681Y157500D01*
X128671Y157464D01*
X128621Y157332D01*
X128614Y157296D01*
X128601Y157261D01*
X128574Y157092D01*
X128568Y157067D01*
X128566Y157048D01*
X128537Y156894D01*
X128534Y156843D01*
X128531Y156820D01*
X128532Y156783D01*
X128525Y156646D01*
X128525Y146592D01*
X128498Y146558D01*
X128387Y146424D01*
X128363Y146381D01*
X128332Y146341D01*
X128252Y146187D01*
X128166Y146036D01*
X128150Y145989D01*
X128127Y145944D01*
X128076Y145779D01*
X128018Y145615D01*
X128010Y145565D01*
X127996Y145517D01*
X127975Y145345D01*
X127948Y145174D01*
X127949Y145124D01*
X127943Y145074D01*
X127953Y144901D01*
X127956Y144727D01*
X127966Y144678D01*
X127969Y144628D01*
X128010Y144460D01*
X128045Y144289D01*
X128063Y144243D01*
X128075Y144194D01*
X128145Y144036D01*
X128210Y143874D01*
X128236Y143831D01*
X128256Y143786D01*
X128354Y143642D01*
X128446Y143495D01*
X128479Y143458D01*
X128507Y143416D01*
X128525Y143397D01*
X128525Y136750D01*
X128529Y136700D01*
X128527Y136650D01*
X128549Y136478D01*
X128565Y136305D01*
X128578Y136257D01*
X128584Y136207D01*
X128637Y136042D01*
X128683Y135874D01*
X128705Y135829D01*
X128720Y135782D01*
X128801Y135628D01*
X128876Y135472D01*
X128906Y135431D01*
X128929Y135387D01*
X129036Y135250D01*
X129138Y135110D01*
X129174Y135075D01*
X129205Y135036D01*
X129335Y134920D01*
X129460Y134800D01*
X129502Y134773D01*
X129540Y134739D01*
X129688Y134649D01*
X129832Y134553D01*
X129878Y134533D01*
X129921Y134507D01*
X130083Y134445D01*
X130243Y134376D01*
X130291Y134365D01*
X130338Y134347D01*
X130509Y134314D01*
X130678Y134275D01*
X130728Y134272D01*
X130777Y134263D01*
X131024Y134251D01*
X152115Y134251D01*
X152301Y134267D01*
X152487Y134279D01*
X152523Y134287D01*
X152560Y134291D01*
X152741Y134340D01*
X152921Y134384D01*
X152955Y134399D01*
X152991Y134409D01*
X153159Y134490D01*
X153330Y134566D01*
X153360Y134586D01*
X153394Y134602D01*
X153545Y134712D01*
X153699Y134817D01*
X153736Y134851D01*
X153755Y134864D01*
X153781Y134891D01*
X153882Y134983D01*
X154052Y135152D01*
X157911Y136751D01*
X162089Y136751D01*
X165948Y135152D01*
X168902Y132198D01*
X170501Y128339D01*
X170501Y103000D01*
X170505Y102950D01*
X170503Y102900D01*
X170525Y102728D01*
X170541Y102555D01*
X170554Y102507D01*
X170560Y102457D01*
X170613Y102292D01*
X170659Y102124D01*
X170681Y102079D01*
X170696Y102032D01*
X170777Y101878D01*
X170852Y101722D01*
X170882Y101681D01*
X170905Y101637D01*
X171012Y101500D01*
X171114Y101360D01*
X171150Y101325D01*
X171181Y101286D01*
X171311Y101170D01*
X171436Y101050D01*
X171478Y101023D01*
X171516Y100989D01*
X171664Y100899D01*
X171808Y100803D01*
X171854Y100783D01*
X171897Y100757D01*
X172059Y100695D01*
X172219Y100626D01*
X172267Y100615D01*
X172314Y100597D01*
X172485Y100564D01*
X172654Y100525D01*
X172704Y100522D01*
X172753Y100513D01*
X173000Y100501D01*
X292000Y100501D01*
X292050Y100505D01*
X292100Y100503D01*
X292272Y100525D01*
X292445Y100541D01*
X292493Y100554D01*
X292543Y100560D01*
X292708Y100613D01*
X292876Y100659D01*
X292921Y100681D01*
X292968Y100696D01*
X293122Y100777D01*
X293278Y100852D01*
X293319Y100882D01*
X293363Y100905D01*
X293500Y101012D01*
X293640Y101114D01*
X293675Y101150D01*
X293714Y101181D01*
X293830Y101311D01*
X293950Y101436D01*
X293977Y101478D01*
X294011Y101516D01*
X294101Y101664D01*
X294197Y101808D01*
X294217Y101854D01*
X294243Y101897D01*
X294305Y102059D01*
X294374Y102219D01*
X294385Y102267D01*
X294403Y102314D01*
X294436Y102485D01*
X294475Y102654D01*
X294478Y102704D01*
X294487Y102753D01*
X294499Y103000D01*
X294499Y156589D01*
X296098Y160448D01*
X299052Y163402D01*
X302911Y165001D01*
X339089Y165001D01*
X342948Y163402D01*
X345902Y160448D01*
X347501Y156589D01*
X347501Y154385D01*
X347513Y154248D01*
X347516Y154112D01*
X347533Y154027D01*
X347541Y153940D01*
X347577Y153808D01*
X347604Y153674D01*
X347636Y153593D01*
X347659Y153509D01*
X347718Y153386D01*
X347769Y153259D01*
X347815Y153185D01*
X347852Y153106D01*
X347933Y152995D01*
X348005Y152879D01*
X348063Y152815D01*
X348114Y152745D01*
X348213Y152650D01*
X348305Y152548D01*
X348374Y152495D01*
X348436Y152435D01*
X348550Y152359D01*
X348659Y152276D01*
X348736Y152236D01*
X348808Y152188D01*
X348934Y152134D01*
X349056Y152071D01*
X349139Y152045D01*
X349219Y152011D01*
X349351Y151980D01*
X349483Y151940D01*
X349569Y151929D01*
X349654Y151910D01*
X349790Y151903D01*
X349926Y151887D01*
X350013Y151892D01*
X350100Y151887D01*
X350235Y151905D01*
X350372Y151913D01*
X350457Y151934D01*
X350543Y151945D01*
X350673Y151987D01*
X350806Y152019D01*
X350886Y152054D01*
X350968Y152081D01*
X351089Y152145D01*
X351214Y152200D01*
X351286Y152249D01*
X351363Y152290D01*
X351471Y152374D01*
X351584Y152451D01*
X351685Y152543D01*
X351714Y152566D01*
X351730Y152584D01*
X351767Y152618D01*
X353052Y153902D01*
X356911Y155501D01*
X382381Y155501D01*
X382388Y155501D01*
X382394Y155501D01*
X382611Y155521D01*
X382826Y155541D01*
X382833Y155542D01*
X382839Y155543D01*
X383047Y155601D01*
X383257Y155659D01*
X383263Y155662D01*
X383269Y155664D01*
X383459Y155756D01*
X383660Y155852D01*
X383665Y155856D01*
X383671Y155859D01*
X383843Y155985D01*
X384022Y156114D01*
X384026Y156119D01*
X384031Y156123D01*
X384180Y156279D01*
X384331Y156436D01*
X384335Y156442D01*
X384339Y156447D01*
X384458Y156628D01*
X384578Y156808D01*
X384581Y156814D01*
X384584Y156820D01*
X384690Y157044D01*
X384752Y157193D01*
X390807Y163248D01*
X398718Y166525D01*
X407282Y166525D01*
X415193Y163248D01*
X421248Y157193D01*
X424525Y149282D01*
X424525Y140718D01*
X421248Y132807D01*
X415193Y126752D01*
X407282Y123475D01*
X398718Y123475D01*
X390807Y126752D01*
X384752Y132807D01*
X384690Y132956D01*
X384687Y132962D01*
X384685Y132968D01*
X384585Y133159D01*
X384483Y133352D01*
X384479Y133357D01*
X384476Y133363D01*
X384341Y133535D01*
X384209Y133705D01*
X384204Y133709D01*
X384200Y133714D01*
X384036Y133860D01*
X383876Y134003D01*
X383871Y134006D01*
X383866Y134011D01*
X383680Y134123D01*
X383496Y134237D01*
X383490Y134239D01*
X383484Y134243D01*
X383280Y134322D01*
X383080Y134400D01*
X383074Y134401D01*
X383067Y134403D01*
X382852Y134444D01*
X382642Y134486D01*
X382635Y134486D01*
X382629Y134487D01*
X382381Y134499D01*
X356911Y134499D01*
X353052Y136098D01*
X350098Y139052D01*
X349496Y140506D01*
X349468Y140559D01*
X349447Y140616D01*
X349364Y140757D01*
X349288Y140902D01*
X349251Y140949D01*
X349221Y141001D01*
X349114Y141126D01*
X349014Y141255D01*
X348969Y141295D01*
X348930Y141340D01*
X348803Y141444D01*
X348681Y141553D01*
X348630Y141584D01*
X348583Y141622D01*
X348440Y141701D01*
X348301Y141787D01*
X348245Y141809D01*
X348192Y141838D01*
X348037Y141890D01*
X347885Y141949D01*
X347826Y141961D01*
X347769Y141980D01*
X347607Y142004D01*
X347447Y142035D01*
X347386Y142036D01*
X347327Y142045D01*
X347163Y142040D01*
X347000Y142042D01*
X346941Y142032D01*
X346880Y142030D01*
X346721Y141996D01*
X346559Y141969D01*
X346503Y141949D01*
X346444Y141936D01*
X346293Y141874D01*
X346139Y141819D01*
X346086Y141789D01*
X346031Y141766D01*
X345893Y141677D01*
X345751Y141596D01*
X345705Y141557D01*
X345655Y141525D01*
X345535Y141413D01*
X345410Y141308D01*
X345372Y141261D01*
X345328Y141220D01*
X345230Y141090D01*
X345126Y140964D01*
X345096Y140911D01*
X345060Y140863D01*
X344987Y140717D01*
X344907Y140574D01*
X344887Y140517D01*
X344860Y140463D01*
X344814Y140307D01*
X344761Y140152D01*
X344752Y140092D01*
X344735Y140035D01*
X344717Y139872D01*
X344692Y139710D01*
X344694Y139650D01*
X344688Y139590D01*
X344700Y139428D01*
X344704Y139264D01*
X344716Y139205D01*
X344720Y139145D01*
X344772Y138903D01*
X344791Y138834D01*
X344791Y137999D01*
X337000Y137999D01*
X329209Y137999D01*
X329209Y138834D01*
X329382Y139481D01*
X329827Y140250D01*
X329841Y140281D01*
X329859Y140308D01*
X329935Y140483D01*
X330015Y140656D01*
X330023Y140688D01*
X330036Y140719D01*
X330079Y140903D01*
X330127Y141088D01*
X330130Y141121D01*
X330138Y141154D01*
X330147Y141343D01*
X330161Y141533D01*
X330158Y141567D01*
X330160Y141600D01*
X330135Y141788D01*
X330116Y141978D01*
X330106Y142010D01*
X330102Y142043D01*
X330044Y142224D01*
X329991Y142407D01*
X329977Y142437D01*
X329966Y142468D01*
X329878Y142636D01*
X329793Y142807D01*
X329773Y142834D01*
X329757Y142863D01*
X329640Y143012D01*
X329526Y143165D01*
X329502Y143188D01*
X329481Y143214D01*
X329339Y143340D01*
X329200Y143470D01*
X329172Y143488D01*
X329147Y143511D01*
X328984Y143610D01*
X328825Y143713D01*
X328794Y143725D01*
X328765Y143743D01*
X328588Y143811D01*
X328412Y143884D01*
X328380Y143891D01*
X328348Y143903D01*
X328161Y143939D01*
X327976Y143980D01*
X327942Y143981D01*
X327910Y143987D01*
X327662Y143999D01*
X318000Y143999D01*
X317950Y143995D01*
X317900Y143997D01*
X317728Y143975D01*
X317555Y143959D01*
X317507Y143946D01*
X317457Y143940D01*
X317292Y143887D01*
X317124Y143841D01*
X317079Y143819D01*
X317032Y143804D01*
X316878Y143723D01*
X316722Y143648D01*
X316681Y143618D01*
X316637Y143595D01*
X316500Y143488D01*
X316360Y143386D01*
X316325Y143350D01*
X316286Y143319D01*
X316170Y143189D01*
X316050Y143064D01*
X316023Y143022D01*
X315989Y142984D01*
X315899Y142836D01*
X315803Y142692D01*
X315783Y142646D01*
X315757Y142603D01*
X315695Y142441D01*
X315626Y142281D01*
X315615Y142233D01*
X315597Y142186D01*
X315564Y142015D01*
X315525Y141846D01*
X315522Y141796D01*
X315513Y141747D01*
X315501Y141500D01*
X315501Y93189D01*
X315514Y93047D01*
X315517Y92903D01*
X315533Y92825D01*
X315541Y92744D01*
X315579Y92606D01*
X315608Y92466D01*
X315649Y92350D01*
X315659Y92314D01*
X315671Y92290D01*
X315691Y92233D01*
X315751Y92089D01*
X315751Y87911D01*
X314152Y84052D01*
X313307Y83206D01*
X313187Y83063D01*
X313063Y82924D01*
X313044Y82892D01*
X313020Y82864D01*
X312928Y82702D01*
X312831Y82542D01*
X312818Y82507D01*
X312800Y82475D01*
X312738Y82299D01*
X312671Y82125D01*
X312664Y82089D01*
X312651Y82054D01*
X312622Y81870D01*
X312587Y81686D01*
X312584Y81636D01*
X312581Y81613D01*
X312582Y81576D01*
X312575Y81439D01*
X312575Y80968D01*
X311682Y80075D01*
X309226Y80075D01*
X309084Y80062D01*
X308941Y80059D01*
X308862Y80043D01*
X308782Y80035D01*
X308643Y79997D01*
X308503Y79968D01*
X308387Y79927D01*
X308351Y79917D01*
X308327Y79905D01*
X308270Y79885D01*
X307339Y79499D01*
X157911Y79499D01*
X154052Y81098D01*
X151098Y84052D01*
X150309Y85956D01*
X150226Y86116D01*
X150148Y86278D01*
X150122Y86314D01*
X150102Y86352D01*
X149991Y86494D01*
X149886Y86640D01*
X149854Y86670D01*
X149828Y86705D01*
X149693Y86825D01*
X149564Y86950D01*
X149527Y86974D01*
X149495Y87003D01*
X149342Y87097D01*
X149192Y87197D01*
X149152Y87214D01*
X149114Y87237D01*
X148947Y87303D01*
X148781Y87374D01*
X148739Y87384D01*
X148698Y87400D01*
X148521Y87434D01*
X148346Y87475D01*
X148303Y87477D01*
X148260Y87486D01*
X148080Y87488D01*
X147900Y87497D01*
X147857Y87492D01*
X147813Y87492D01*
X147636Y87463D01*
X147457Y87440D01*
X147416Y87426D01*
X147373Y87419D01*
X147203Y87359D01*
X147032Y87304D01*
X146993Y87284D01*
X146952Y87269D01*
X146796Y87179D01*
X146637Y87095D01*
X146603Y87068D01*
X146565Y87046D01*
X146427Y86930D01*
X146286Y86819D01*
X146257Y86786D01*
X146224Y86758D01*
X146109Y86619D01*
X145989Y86485D01*
X145967Y86447D01*
X145939Y86414D01*
X145851Y86256D01*
X145757Y86103D01*
X145742Y86062D01*
X145720Y86024D01*
X145661Y85854D01*
X145597Y85686D01*
X145589Y85643D01*
X145574Y85602D01*
X145547Y85424D01*
X145513Y85247D01*
X145510Y85187D01*
X145506Y85161D01*
X145507Y85123D01*
X145501Y85000D01*
X145501Y68000D01*
X145505Y67950D01*
X145503Y67900D01*
X145525Y67728D01*
X145541Y67555D01*
X145554Y67507D01*
X145560Y67457D01*
X145613Y67292D01*
X145659Y67124D01*
X145681Y67079D01*
X145696Y67032D01*
X145777Y66878D01*
X145852Y66722D01*
X145882Y66681D01*
X145905Y66637D01*
X146012Y66500D01*
X146114Y66360D01*
X146150Y66325D01*
X146181Y66286D01*
X146311Y66170D01*
X146436Y66050D01*
X146478Y66023D01*
X146516Y65989D01*
X146664Y65899D01*
X146808Y65803D01*
X146854Y65783D01*
X146897Y65757D01*
X147059Y65695D01*
X147219Y65626D01*
X147267Y65615D01*
X147314Y65597D01*
X147485Y65564D01*
X147654Y65525D01*
X147704Y65522D01*
X147753Y65513D01*
X148000Y65501D01*
X295426Y65501D01*
X295476Y65505D01*
X295526Y65503D01*
X295698Y65525D01*
X295871Y65541D01*
X295919Y65554D01*
X295969Y65560D01*
X296134Y65613D01*
X296302Y65659D01*
X296347Y65681D01*
X296394Y65696D01*
X296548Y65777D01*
X296704Y65852D01*
X296745Y65882D01*
X296789Y65905D01*
X296926Y66012D01*
X297066Y66114D01*
X297101Y66150D01*
X297140Y66181D01*
X297256Y66311D01*
X297376Y66436D01*
X297403Y66478D01*
X297437Y66516D01*
X297527Y66664D01*
X297623Y66808D01*
X297643Y66854D01*
X297669Y66897D01*
X297731Y67059D01*
X297800Y67219D01*
X297811Y67267D01*
X297829Y67314D01*
X297862Y67485D01*
X297901Y67654D01*
X297904Y67704D01*
X297913Y67753D01*
X297925Y68000D01*
X297925Y69032D01*
X298818Y69925D01*
X311682Y69925D01*
X312575Y69032D01*
X312575Y50968D01*
X311682Y50075D01*
X298818Y50075D01*
X297925Y50968D01*
X297925Y52000D01*
X297921Y52050D01*
X297923Y52100D01*
X297901Y52272D01*
X297885Y52445D01*
X297872Y52493D01*
X297866Y52543D01*
X297813Y52708D01*
X297767Y52876D01*
X297745Y52921D01*
X297730Y52968D01*
X297649Y53122D01*
X297574Y53278D01*
X297544Y53319D01*
X297521Y53363D01*
X297414Y53500D01*
X297312Y53640D01*
X297276Y53675D01*
X297245Y53714D01*
X297115Y53830D01*
X296990Y53950D01*
X296948Y53977D01*
X296910Y54011D01*
X296762Y54101D01*
X296618Y54197D01*
X296572Y54217D01*
X296529Y54243D01*
X296367Y54305D01*
X296207Y54374D01*
X296159Y54385D01*
X296112Y54403D01*
X295941Y54436D01*
X295772Y54475D01*
X295722Y54478D01*
X295673Y54487D01*
X295426Y54499D01*
X138906Y54499D01*
X136884Y55337D01*
X135337Y56884D01*
X134499Y58906D01*
X134499Y105750D01*
X134495Y105800D01*
X134497Y105850D01*
X134475Y106022D01*
X134459Y106195D01*
X134446Y106243D01*
X134440Y106293D01*
X134387Y106458D01*
X134341Y106626D01*
X134319Y106671D01*
X134304Y106718D01*
X134223Y106872D01*
X134148Y107028D01*
X134118Y107069D01*
X134095Y107113D01*
X133988Y107250D01*
X133886Y107390D01*
X133850Y107425D01*
X133819Y107464D01*
X133689Y107580D01*
X133564Y107700D01*
X133522Y107727D01*
X133484Y107761D01*
X133336Y107851D01*
X133192Y107947D01*
X133146Y107967D01*
X133103Y107993D01*
X132941Y108055D01*
X132781Y108124D01*
X132733Y108135D01*
X132686Y108153D01*
X132515Y108186D01*
X132346Y108225D01*
X132296Y108228D01*
X132247Y108237D01*
X132000Y108249D01*
X128691Y108249D01*
X128505Y108233D01*
X128383Y108225D01*
X109618Y108225D01*
X109556Y108237D01*
X109506Y108240D01*
X109483Y108243D01*
X109446Y108242D01*
X109309Y108249D01*
X88906Y108249D01*
X86884Y109087D01*
X59194Y136776D01*
X59189Y136781D01*
X59185Y136786D01*
X59018Y136924D01*
X58852Y137063D01*
X58846Y137066D01*
X58841Y137070D01*
X58648Y137178D01*
X58463Y137284D01*
X58457Y137286D01*
X58451Y137289D01*
X58246Y137360D01*
X58042Y137432D01*
X58035Y137433D01*
X58029Y137435D01*
X57815Y137468D01*
X57601Y137502D01*
X57594Y137502D01*
X57588Y137503D01*
X57369Y137498D01*
X57154Y137493D01*
X57148Y137492D01*
X57141Y137492D01*
X56926Y137448D01*
X56716Y137405D01*
X56710Y137403D01*
X56704Y137401D01*
X56471Y137318D01*
X52939Y135855D01*
X34061Y135855D01*
X31456Y136934D01*
X31367Y136962D01*
X31281Y136999D01*
X31155Y137029D01*
X31030Y137068D01*
X30937Y137079D01*
X30846Y137100D01*
X30716Y137107D01*
X30587Y137123D01*
X30493Y137118D01*
X30400Y137122D01*
X30271Y137106D01*
X30141Y137098D01*
X30050Y137077D01*
X29957Y137065D01*
X29833Y137025D01*
X29706Y136995D01*
X29621Y136957D01*
X29532Y136929D01*
X29417Y136868D01*
X29297Y136816D01*
X29219Y136764D01*
X29137Y136720D01*
X29035Y136639D01*
X28926Y136567D01*
X28859Y136502D01*
X28786Y136444D01*
X28699Y136346D01*
X28606Y136256D01*
X28551Y136180D01*
X28489Y136110D01*
X28422Y135998D01*
X28346Y135892D01*
X28306Y135808D01*
X28257Y135728D01*
X28210Y135606D01*
X28155Y135489D01*
X28130Y135399D01*
X28097Y135311D01*
X28072Y135183D01*
X28038Y135057D01*
X28031Y134964D01*
X28013Y134872D01*
X28001Y134625D01*
X28001Y133000D01*
X28005Y132950D01*
X28003Y132900D01*
X28025Y132728D01*
X28041Y132555D01*
X28054Y132507D01*
X28060Y132457D01*
X28113Y132292D01*
X28159Y132124D01*
X28181Y132079D01*
X28196Y132032D01*
X28277Y131878D01*
X28352Y131722D01*
X28382Y131681D01*
X28405Y131637D01*
X28512Y131500D01*
X28614Y131360D01*
X28650Y131325D01*
X28681Y131286D01*
X28811Y131170D01*
X28936Y131050D01*
X28978Y131023D01*
X29016Y130989D01*
X29164Y130899D01*
X29308Y130803D01*
X29354Y130783D01*
X29397Y130757D01*
X29559Y130695D01*
X29719Y130626D01*
X29767Y130615D01*
X29814Y130597D01*
X29985Y130564D01*
X30154Y130525D01*
X30204Y130522D01*
X30253Y130513D01*
X30500Y130501D01*
X45189Y130501D01*
X48969Y128935D01*
X49105Y128892D01*
X49239Y128841D01*
X49319Y128826D01*
X49395Y128802D01*
X49537Y128784D01*
X49678Y128757D01*
X49801Y128751D01*
X49838Y128746D01*
X49865Y128748D01*
X49925Y128745D01*
X52939Y128745D01*
X56300Y127353D01*
X58873Y124780D01*
X60265Y121419D01*
X60265Y117781D01*
X58873Y114420D01*
X56300Y111847D01*
X52939Y110455D01*
X47994Y110455D01*
X47851Y110442D01*
X47708Y110439D01*
X47629Y110423D01*
X47549Y110415D01*
X47411Y110377D01*
X47271Y110348D01*
X47154Y110307D01*
X47118Y110297D01*
X47094Y110285D01*
X47037Y110265D01*
X45189Y109499D01*
X15411Y109499D01*
X12921Y110531D01*
X12832Y110559D01*
X12746Y110596D01*
X12620Y110625D01*
X12495Y110664D01*
X12402Y110676D01*
X12311Y110697D01*
X12181Y110703D01*
X12052Y110719D01*
X11958Y110714D01*
X11865Y110719D01*
X11736Y110702D01*
X11606Y110695D01*
X11515Y110673D01*
X11422Y110661D01*
X11298Y110622D01*
X11171Y110591D01*
X11086Y110554D01*
X10997Y110526D01*
X10882Y110465D01*
X10762Y110412D01*
X10684Y110360D01*
X10602Y110316D01*
X10499Y110236D01*
X10391Y110163D01*
X10324Y110098D01*
X10251Y110040D01*
X10164Y109943D01*
X10071Y109852D01*
X10016Y109776D01*
X9954Y109706D01*
X9887Y109595D01*
X9811Y109489D01*
X9771Y109404D01*
X9722Y109324D01*
X9675Y109203D01*
X9620Y109085D01*
X9595Y108995D01*
X9562Y108908D01*
X9537Y108779D01*
X9503Y108654D01*
X9496Y108561D01*
X9478Y108469D01*
X9466Y108222D01*
X9466Y93978D01*
X7918Y90242D01*
X5233Y87556D01*
X5113Y87413D01*
X4989Y87273D01*
X4970Y87242D01*
X4946Y87213D01*
X4854Y87051D01*
X4757Y86892D01*
X4744Y86857D01*
X4726Y86825D01*
X4664Y86649D01*
X4597Y86475D01*
X4590Y86439D01*
X4578Y86404D01*
X4548Y86219D01*
X4513Y86036D01*
X4511Y85986D01*
X4507Y85963D01*
X4508Y85926D01*
X4501Y85789D01*
X4501Y63063D01*
X4520Y62850D01*
X4537Y62637D01*
X4540Y62628D01*
X4541Y62619D01*
X4597Y62412D01*
X4653Y62206D01*
X4657Y62197D01*
X4659Y62188D01*
X4752Y61995D01*
X4843Y61802D01*
X4849Y61791D01*
X4852Y61785D01*
X4863Y61770D01*
X4978Y61594D01*
X7727Y57810D01*
X7806Y57569D01*
X7873Y57413D01*
X7933Y57254D01*
X7960Y57207D01*
X7981Y57158D01*
X8075Y57016D01*
X8162Y56871D01*
X8197Y56830D01*
X8227Y56785D01*
X8344Y56662D01*
X8456Y56534D01*
X8498Y56501D01*
X8535Y56462D01*
X8673Y56362D01*
X8805Y56256D01*
X8853Y56230D01*
X8896Y56198D01*
X9049Y56124D01*
X9199Y56044D01*
X9250Y56027D01*
X9298Y56004D01*
X9462Y55958D01*
X9623Y55905D01*
X9676Y55898D01*
X9728Y55883D01*
X9898Y55868D01*
X10066Y55845D01*
X10120Y55847D01*
X10173Y55842D01*
X10342Y55856D01*
X10512Y55864D01*
X10565Y55875D01*
X10618Y55880D01*
X10782Y55925D01*
X10948Y55962D01*
X10997Y55983D01*
X11049Y55997D01*
X11203Y56070D01*
X11359Y56136D01*
X11364Y56139D01*
X20050Y57867D01*
X28705Y56145D01*
X36042Y51242D01*
X40945Y43905D01*
X42667Y35250D01*
X40945Y26595D01*
X36042Y19258D01*
X29286Y14743D01*
X29163Y14644D01*
X29034Y14551D01*
X28989Y14504D01*
X28938Y14463D01*
X28835Y14343D01*
X28725Y14229D01*
X28689Y14174D01*
X28646Y14125D01*
X28565Y13989D01*
X28478Y13857D01*
X28452Y13797D01*
X28419Y13740D01*
X28363Y13592D01*
X28301Y13446D01*
X28286Y13383D01*
X28263Y13322D01*
X28235Y13166D01*
X28199Y13011D01*
X28196Y12946D01*
X28185Y12882D01*
X28185Y12723D01*
X28177Y12565D01*
X28186Y12500D01*
X28186Y12435D01*
X28215Y12279D01*
X28235Y12122D01*
X28255Y12060D01*
X28267Y11996D01*
X28322Y11848D01*
X28371Y11697D01*
X28401Y11639D01*
X28424Y11578D01*
X28506Y11442D01*
X28580Y11302D01*
X28620Y11251D01*
X28654Y11195D01*
X28758Y11075D01*
X28856Y10951D01*
X28905Y10907D01*
X28948Y10858D01*
X29072Y10759D01*
X29190Y10654D01*
X29246Y10620D01*
X29297Y10580D01*
X29437Y10504D01*
X29572Y10422D01*
X29633Y10399D01*
X29690Y10368D01*
X29841Y10319D01*
X29989Y10262D01*
X30053Y10249D01*
X30115Y10229D01*
X30272Y10208D01*
X30427Y10178D01*
X30522Y10173D01*
X30557Y10168D01*
X30591Y10170D01*
X30675Y10166D01*
X89573Y10166D01*
X89710Y10178D01*
G37*
%LPC*%
G36*
X246018Y123475D02*
X246018Y123475D01*
X238107Y126752D01*
X232052Y132807D01*
X228775Y140718D01*
X228775Y149282D01*
X232052Y157193D01*
X238107Y163248D01*
X246018Y166525D01*
X254582Y166525D01*
X262493Y163248D01*
X268548Y157193D01*
X271825Y149282D01*
X271825Y140718D01*
X268548Y132807D01*
X262493Y126752D01*
X254582Y123475D01*
X246018Y123475D01*
G37*
%LPD*%
%LPC*%
G36*
X438368Y79725D02*
X438368Y79725D01*
X437475Y80618D01*
X437475Y102882D01*
X438368Y103775D01*
X469632Y103775D01*
X470525Y102882D01*
X470525Y80618D01*
X469632Y79725D01*
X438368Y79725D01*
G37*
%LPD*%
%LPC*%
G36*
X74368Y76225D02*
X74368Y76225D01*
X73475Y77118D01*
X73475Y99382D01*
X74368Y100275D01*
X105632Y100275D01*
X106525Y99382D01*
X106525Y77118D01*
X105632Y76225D01*
X74368Y76225D01*
G37*
%LPD*%
%LPC*%
G36*
X438368Y16225D02*
X438368Y16225D01*
X437475Y17118D01*
X437475Y39382D01*
X438368Y40275D01*
X469632Y40275D01*
X470525Y39382D01*
X470525Y17118D01*
X469632Y16225D01*
X438368Y16225D01*
G37*
%LPD*%
%LPC*%
G36*
X337649Y92899D02*
X337649Y92899D01*
X337649Y100941D01*
X340884Y100941D01*
X341531Y100768D01*
X342110Y100433D01*
X342583Y99960D01*
X342918Y99381D01*
X343091Y98734D01*
X343091Y92899D01*
X337649Y92899D01*
G37*
%LPD*%
%LPC*%
G36*
X337649Y62899D02*
X337649Y62899D01*
X337649Y70941D01*
X340884Y70941D01*
X341531Y70768D01*
X342110Y70433D01*
X342583Y69960D01*
X342918Y69381D01*
X343091Y68734D01*
X343091Y62899D01*
X337649Y62899D01*
G37*
%LPD*%
%LPC*%
G36*
X326409Y92899D02*
X326409Y92899D01*
X326409Y98734D01*
X326582Y99381D01*
X326917Y99960D01*
X327390Y100433D01*
X327969Y100768D01*
X328616Y100941D01*
X331851Y100941D01*
X331851Y92899D01*
X326409Y92899D01*
G37*
%LPD*%
%LPC*%
G36*
X326409Y62899D02*
X326409Y62899D01*
X326409Y68734D01*
X326582Y69381D01*
X326917Y69960D01*
X327390Y70433D01*
X327969Y70768D01*
X328616Y70941D01*
X331851Y70941D01*
X331851Y62899D01*
X326409Y62899D01*
G37*
%LPD*%
%LPC*%
G36*
X337649Y79059D02*
X337649Y79059D01*
X337649Y87101D01*
X343091Y87101D01*
X343091Y81266D01*
X342918Y80619D01*
X342583Y80040D01*
X342110Y79567D01*
X341531Y79232D01*
X340884Y79059D01*
X337649Y79059D01*
G37*
%LPD*%
%LPC*%
G36*
X337649Y49059D02*
X337649Y49059D01*
X337649Y57101D01*
X343091Y57101D01*
X343091Y51266D01*
X342918Y50619D01*
X342583Y50040D01*
X342110Y49567D01*
X341531Y49232D01*
X340884Y49059D01*
X337649Y49059D01*
G37*
%LPD*%
%LPC*%
G36*
X328616Y79059D02*
X328616Y79059D01*
X327969Y79232D01*
X327390Y79567D01*
X326917Y80040D01*
X326582Y80619D01*
X326409Y81266D01*
X326409Y87101D01*
X331851Y87101D01*
X331851Y79059D01*
X328616Y79059D01*
G37*
%LPD*%
%LPC*%
G36*
X328616Y49059D02*
X328616Y49059D01*
X327969Y49232D01*
X327390Y49567D01*
X326917Y50040D01*
X326582Y50619D01*
X326409Y51266D01*
X326409Y57101D01*
X331851Y57101D01*
X331851Y49059D01*
X328616Y49059D01*
G37*
%LPD*%
%LPC*%
G36*
X339499Y129959D02*
X339499Y129959D01*
X339499Y133001D01*
X344791Y133001D01*
X344791Y132166D01*
X344618Y131519D01*
X344283Y130940D01*
X343810Y130467D01*
X343231Y130132D01*
X342584Y129959D01*
X339499Y129959D01*
G37*
%LPD*%
%LPC*%
G36*
X331416Y129959D02*
X331416Y129959D01*
X330769Y130132D01*
X330190Y130467D01*
X329717Y130940D01*
X329382Y131519D01*
X329209Y132166D01*
X329209Y133001D01*
X334501Y133001D01*
X334501Y129959D01*
X331416Y129959D01*
G37*
%LPD*%
D10*
X337000Y154500D03*
X337000Y135500D03*
X359000Y145000D03*
D11*
X425000Y53750D03*
X425000Y66250D03*
D12*
X454000Y28250D03*
X454000Y91750D03*
D13*
X51120Y119600D02*
X35880Y119600D01*
X35880Y145000D02*
X51120Y145000D01*
X51120Y170400D02*
X35880Y170400D01*
D14*
X305250Y90000D03*
X334750Y90000D03*
D11*
X119000Y176250D03*
X119000Y163750D03*
X119000Y151250D03*
X119000Y138750D03*
X119000Y126250D03*
X119000Y113750D03*
D12*
X90000Y201750D03*
X90000Y88250D03*
D14*
X334750Y60000D03*
X305250Y60000D03*
D15*
X155000Y245000D03*
D16*
X119000Y113750D02*
X90000Y113750D01*
X58750Y145000D01*
X43500Y145000D01*
X119000Y113750D02*
X140000Y113750D01*
X140000Y60000D01*
X305250Y60000D01*
D17*
X305000Y154500D02*
X337000Y154500D01*
D18*
X160000Y126250D02*
X119000Y126250D01*
D17*
X160000Y126250D02*
X160000Y90000D01*
X305250Y90000D01*
X305000Y90250D02*
X305000Y154500D01*
D16*
X305000Y90250D02*
X305250Y90000D01*
D19*
X403000Y145000D03*
D17*
X359000Y145000D01*
D18*
X137750Y176250D02*
X119000Y176250D01*
D19*
X250300Y145000D03*
D15*
X155000Y210000D03*
D17*
X137750Y210000D02*
X137750Y176250D01*
X137750Y210000D02*
X155000Y210000D01*
D16*
X43500Y119600D02*
X43100Y120000D01*
D17*
X17500Y120000D01*
X17500Y200000D01*
X65000Y225000D02*
X137750Y225000D01*
X137750Y210000D01*
X40000Y200000D02*
X17500Y200000D01*
X40000Y200000D02*
X65000Y225000D01*
D16*
X357000Y35000D02*
X388250Y66250D01*
X425000Y66250D01*
D15*
X460000Y60000D03*
D16*
X460000Y66250D02*
X425000Y66250D01*
X460000Y66250D02*
X460000Y60000D01*
D15*
X95000Y155000D03*
D16*
X98750Y151250D02*
X119000Y151250D01*
X98750Y151250D02*
X95000Y155000D01*
D15*
X95000Y35000D03*
D16*
X357000Y35000D01*
X398750Y53750D02*
X425000Y53750D01*
X398750Y53750D02*
X365000Y20000D01*
D15*
X75000Y155000D03*
D16*
X95000Y20000D02*
X365000Y20000D01*
D15*
X95000Y20000D03*
D16*
X91250Y138750D02*
X119000Y138750D01*
X91250Y138750D02*
X75000Y155000D01*
M02*
