G04 EAGLE Gerber X2 export*
%TF.Part,Single*%
%TF.FileFunction,Legend,Top,1*%
%TF.FilePolarity,Positive*%
%TF.GenerationSoftware,Autodesk,EAGLE,9.1.0*%
%TF.CreationDate,2020-06-24T00:02:46Z*%
G75*
%MOMM*%
%FSLAX34Y34*%
%LPD*%
%AMOC8*
5,1,8,0,0,1.08239X$1,22.5*%
G01*
%ADD10C,0.200000*%
%ADD11C,0.101600*%
%ADD12C,0.127000*%
%ADD13C,0.240000*%
%ADD14C,0.152400*%
%ADD15C,0.050800*%
%ADD16C,0.100000*%
%ADD17C,0.300000*%
%ADD18C,0.300000*%


D10*
X345750Y159500D02*
X350250Y159500D01*
X350250Y130500D01*
X345750Y130500D01*
X345750Y159500D01*
X342250Y160000D02*
X331750Y160000D01*
D11*
X336404Y132183D02*
X341596Y132183D01*
X336404Y132182D02*
X336291Y132184D01*
X336178Y132190D01*
X336065Y132200D01*
X335952Y132214D01*
X335840Y132231D01*
X335729Y132253D01*
X335619Y132278D01*
X335509Y132308D01*
X335401Y132341D01*
X335294Y132378D01*
X335188Y132418D01*
X335084Y132463D01*
X334981Y132511D01*
X334880Y132562D01*
X334781Y132617D01*
X334684Y132675D01*
X334589Y132737D01*
X334496Y132802D01*
X334406Y132870D01*
X334318Y132941D01*
X334232Y133016D01*
X334149Y133093D01*
X334069Y133173D01*
X333992Y133256D01*
X333917Y133342D01*
X333846Y133430D01*
X333778Y133520D01*
X333713Y133613D01*
X333651Y133708D01*
X333593Y133805D01*
X333538Y133904D01*
X333487Y134005D01*
X333439Y134108D01*
X333394Y134212D01*
X333354Y134318D01*
X333317Y134425D01*
X333284Y134533D01*
X333254Y134643D01*
X333229Y134753D01*
X333207Y134864D01*
X333190Y134976D01*
X333176Y135089D01*
X333166Y135202D01*
X333160Y135315D01*
X333158Y135428D01*
X333160Y135541D01*
X333166Y135654D01*
X333176Y135767D01*
X333190Y135880D01*
X333207Y135992D01*
X333229Y136103D01*
X333254Y136213D01*
X333284Y136323D01*
X333317Y136431D01*
X333354Y136538D01*
X333394Y136644D01*
X333439Y136748D01*
X333487Y136851D01*
X333538Y136952D01*
X333593Y137051D01*
X333651Y137148D01*
X333713Y137243D01*
X333778Y137336D01*
X333846Y137426D01*
X333917Y137514D01*
X333992Y137600D01*
X334069Y137683D01*
X334149Y137763D01*
X334232Y137840D01*
X334318Y137915D01*
X334406Y137986D01*
X334496Y138054D01*
X334589Y138119D01*
X334684Y138181D01*
X334781Y138239D01*
X334880Y138294D01*
X334981Y138345D01*
X335084Y138393D01*
X335188Y138438D01*
X335294Y138478D01*
X335401Y138515D01*
X335509Y138548D01*
X335619Y138578D01*
X335729Y138603D01*
X335840Y138625D01*
X335952Y138642D01*
X336065Y138656D01*
X336178Y138666D01*
X336291Y138672D01*
X336404Y138674D01*
X341596Y138674D01*
X341709Y138672D01*
X341822Y138666D01*
X341935Y138656D01*
X342048Y138642D01*
X342160Y138625D01*
X342271Y138603D01*
X342381Y138578D01*
X342491Y138548D01*
X342599Y138515D01*
X342706Y138478D01*
X342812Y138438D01*
X342916Y138393D01*
X343019Y138345D01*
X343120Y138294D01*
X343219Y138239D01*
X343316Y138181D01*
X343411Y138119D01*
X343504Y138054D01*
X343594Y137986D01*
X343682Y137915D01*
X343768Y137840D01*
X343851Y137763D01*
X343931Y137683D01*
X344008Y137600D01*
X344083Y137514D01*
X344154Y137426D01*
X344222Y137336D01*
X344287Y137243D01*
X344349Y137148D01*
X344407Y137051D01*
X344462Y136952D01*
X344513Y136851D01*
X344561Y136748D01*
X344606Y136644D01*
X344646Y136538D01*
X344683Y136431D01*
X344716Y136323D01*
X344746Y136213D01*
X344771Y136103D01*
X344793Y135992D01*
X344810Y135880D01*
X344824Y135767D01*
X344834Y135654D01*
X344840Y135541D01*
X344842Y135428D01*
X344840Y135315D01*
X344834Y135202D01*
X344824Y135089D01*
X344810Y134976D01*
X344793Y134864D01*
X344771Y134753D01*
X344746Y134643D01*
X344716Y134533D01*
X344683Y134425D01*
X344646Y134318D01*
X344606Y134212D01*
X344561Y134108D01*
X344513Y134005D01*
X344462Y133904D01*
X344407Y133805D01*
X344349Y133708D01*
X344287Y133613D01*
X344222Y133520D01*
X344154Y133430D01*
X344083Y133342D01*
X344008Y133256D01*
X343931Y133173D01*
X343851Y133093D01*
X343768Y133016D01*
X343682Y132941D01*
X343594Y132870D01*
X343504Y132802D01*
X343411Y132737D01*
X343316Y132675D01*
X343219Y132617D01*
X343120Y132562D01*
X343019Y132511D01*
X342916Y132463D01*
X342812Y132418D01*
X342706Y132378D01*
X342599Y132341D01*
X342491Y132308D01*
X342381Y132278D01*
X342271Y132253D01*
X342160Y132231D01*
X342048Y132214D01*
X341935Y132200D01*
X341822Y132190D01*
X341709Y132184D01*
X341596Y132182D01*
X342246Y137375D02*
X344842Y139972D01*
X335754Y143326D02*
X333158Y146572D01*
X344842Y146572D01*
X344842Y143326D02*
X344842Y149818D01*
D12*
X475000Y81250D02*
X475000Y38750D01*
X471000Y38750D01*
X471000Y81250D02*
X475000Y81250D01*
X427000Y48000D02*
X427000Y38750D01*
X427000Y72000D02*
X427000Y81250D01*
X427000Y38750D02*
X431000Y38750D01*
X431000Y81250D02*
X427000Y81250D01*
D13*
X418800Y74000D02*
X418802Y74069D01*
X418808Y74138D01*
X418818Y74206D01*
X418832Y74274D01*
X418849Y74341D01*
X418871Y74407D01*
X418896Y74471D01*
X418925Y74534D01*
X418958Y74595D01*
X418994Y74654D01*
X419033Y74711D01*
X419076Y74765D01*
X419121Y74817D01*
X419170Y74867D01*
X419221Y74913D01*
X419275Y74956D01*
X419332Y74997D01*
X419390Y75033D01*
X419451Y75067D01*
X419513Y75097D01*
X419577Y75123D01*
X419642Y75145D01*
X419709Y75164D01*
X419777Y75179D01*
X419845Y75190D01*
X419914Y75197D01*
X419983Y75200D01*
X420052Y75199D01*
X420121Y75194D01*
X420189Y75185D01*
X420257Y75172D01*
X420324Y75155D01*
X420391Y75135D01*
X420455Y75110D01*
X420518Y75082D01*
X420580Y75051D01*
X420639Y75015D01*
X420697Y74977D01*
X420752Y74935D01*
X420805Y74890D01*
X420855Y74842D01*
X420902Y74792D01*
X420946Y74738D01*
X420987Y74683D01*
X421025Y74625D01*
X421059Y74565D01*
X421090Y74503D01*
X421117Y74439D01*
X421140Y74374D01*
X421160Y74308D01*
X421176Y74240D01*
X421188Y74172D01*
X421196Y74104D01*
X421200Y74035D01*
X421200Y73965D01*
X421196Y73896D01*
X421188Y73828D01*
X421176Y73760D01*
X421160Y73692D01*
X421140Y73626D01*
X421117Y73561D01*
X421090Y73497D01*
X421059Y73435D01*
X421025Y73375D01*
X420987Y73317D01*
X420946Y73262D01*
X420902Y73208D01*
X420855Y73158D01*
X420805Y73110D01*
X420752Y73065D01*
X420697Y73023D01*
X420639Y72985D01*
X420580Y72949D01*
X420518Y72918D01*
X420455Y72890D01*
X420391Y72865D01*
X420324Y72845D01*
X420257Y72828D01*
X420189Y72815D01*
X420121Y72806D01*
X420052Y72801D01*
X419983Y72800D01*
X419914Y72803D01*
X419845Y72810D01*
X419777Y72821D01*
X419709Y72836D01*
X419642Y72855D01*
X419577Y72877D01*
X419513Y72903D01*
X419451Y72933D01*
X419390Y72967D01*
X419332Y73003D01*
X419275Y73044D01*
X419221Y73087D01*
X419170Y73133D01*
X419121Y73183D01*
X419076Y73235D01*
X419033Y73289D01*
X418994Y73346D01*
X418958Y73405D01*
X418925Y73466D01*
X418896Y73529D01*
X418871Y73593D01*
X418849Y73659D01*
X418832Y73726D01*
X418818Y73794D01*
X418808Y73862D01*
X418802Y73931D01*
X418800Y74000D01*
D11*
X411771Y21188D02*
X411771Y18587D01*
X411769Y18487D01*
X411763Y18388D01*
X411754Y18289D01*
X411741Y18190D01*
X411723Y18092D01*
X411703Y17994D01*
X411678Y17898D01*
X411650Y17802D01*
X411618Y17708D01*
X411582Y17615D01*
X411543Y17523D01*
X411501Y17433D01*
X411455Y17344D01*
X411406Y17258D01*
X411353Y17173D01*
X411297Y17091D01*
X411239Y17010D01*
X411177Y16932D01*
X411112Y16856D01*
X411044Y16783D01*
X410974Y16713D01*
X410901Y16645D01*
X410825Y16580D01*
X410747Y16518D01*
X410666Y16460D01*
X410584Y16404D01*
X410499Y16351D01*
X410413Y16302D01*
X410324Y16256D01*
X410234Y16214D01*
X410142Y16175D01*
X410049Y16139D01*
X409955Y16107D01*
X409859Y16079D01*
X409763Y16054D01*
X409665Y16034D01*
X409567Y16016D01*
X409468Y16003D01*
X409369Y15994D01*
X409270Y15988D01*
X409170Y15986D01*
X402668Y15986D01*
X402568Y15988D01*
X402469Y15994D01*
X402370Y16003D01*
X402271Y16016D01*
X402173Y16034D01*
X402075Y16054D01*
X401979Y16079D01*
X401883Y16107D01*
X401789Y16139D01*
X401696Y16175D01*
X401604Y16214D01*
X401514Y16256D01*
X401425Y16302D01*
X401339Y16351D01*
X401254Y16404D01*
X401172Y16460D01*
X401091Y16518D01*
X401013Y16580D01*
X400938Y16645D01*
X400864Y16713D01*
X400794Y16783D01*
X400726Y16856D01*
X400661Y16932D01*
X400599Y17010D01*
X400541Y17091D01*
X400485Y17173D01*
X400432Y17258D01*
X400383Y17344D01*
X400337Y17433D01*
X400295Y17523D01*
X400256Y17615D01*
X400220Y17708D01*
X400188Y17802D01*
X400160Y17898D01*
X400135Y17994D01*
X400115Y18092D01*
X400097Y18190D01*
X400084Y18289D01*
X400075Y18388D01*
X400069Y18487D01*
X400067Y18587D01*
X400067Y21188D01*
X403318Y25560D02*
X408520Y25560D01*
X403318Y25560D02*
X403206Y25562D01*
X403094Y25568D01*
X402982Y25577D01*
X402870Y25591D01*
X402760Y25608D01*
X402649Y25629D01*
X402540Y25654D01*
X402431Y25683D01*
X402324Y25716D01*
X402218Y25752D01*
X402113Y25792D01*
X402009Y25835D01*
X401907Y25882D01*
X401807Y25932D01*
X401709Y25986D01*
X401612Y26043D01*
X401518Y26104D01*
X401425Y26168D01*
X401335Y26235D01*
X401247Y26305D01*
X401162Y26378D01*
X401079Y26453D01*
X400999Y26532D01*
X400922Y26614D01*
X400848Y26698D01*
X400776Y26784D01*
X400708Y26873D01*
X400642Y26964D01*
X400580Y27058D01*
X400521Y27153D01*
X400466Y27251D01*
X400414Y27350D01*
X400365Y27451D01*
X400320Y27554D01*
X400278Y27658D01*
X400240Y27764D01*
X400206Y27871D01*
X400175Y27979D01*
X400149Y28088D01*
X400125Y28197D01*
X400106Y28308D01*
X400091Y28419D01*
X400079Y28531D01*
X400071Y28643D01*
X400067Y28755D01*
X400067Y28867D01*
X400071Y28979D01*
X400079Y29091D01*
X400091Y29203D01*
X400106Y29314D01*
X400125Y29425D01*
X400149Y29534D01*
X400175Y29643D01*
X400206Y29751D01*
X400240Y29858D01*
X400278Y29964D01*
X400320Y30068D01*
X400365Y30171D01*
X400414Y30272D01*
X400466Y30371D01*
X400521Y30469D01*
X400580Y30564D01*
X400642Y30658D01*
X400708Y30749D01*
X400776Y30838D01*
X400848Y30924D01*
X400922Y31008D01*
X400999Y31090D01*
X401079Y31169D01*
X401162Y31244D01*
X401247Y31317D01*
X401335Y31387D01*
X401425Y31454D01*
X401518Y31518D01*
X401612Y31579D01*
X401709Y31636D01*
X401807Y31690D01*
X401907Y31740D01*
X402009Y31787D01*
X402113Y31830D01*
X402218Y31870D01*
X402324Y31906D01*
X402431Y31939D01*
X402540Y31968D01*
X402649Y31993D01*
X402760Y32014D01*
X402870Y32031D01*
X402982Y32045D01*
X403094Y32054D01*
X403206Y32060D01*
X403318Y32062D01*
X408520Y32062D01*
X408632Y32060D01*
X408744Y32054D01*
X408856Y32045D01*
X408968Y32031D01*
X409078Y32014D01*
X409189Y31993D01*
X409298Y31968D01*
X409407Y31939D01*
X409514Y31906D01*
X409620Y31870D01*
X409725Y31830D01*
X409829Y31787D01*
X409931Y31740D01*
X410031Y31690D01*
X410129Y31636D01*
X410226Y31579D01*
X410320Y31518D01*
X410413Y31454D01*
X410503Y31387D01*
X410591Y31317D01*
X410676Y31244D01*
X410759Y31169D01*
X410839Y31090D01*
X410916Y31008D01*
X410990Y30924D01*
X411062Y30838D01*
X411130Y30749D01*
X411196Y30658D01*
X411258Y30564D01*
X411317Y30469D01*
X411372Y30371D01*
X411424Y30272D01*
X411473Y30171D01*
X411518Y30068D01*
X411560Y29964D01*
X411598Y29858D01*
X411632Y29751D01*
X411663Y29643D01*
X411689Y29534D01*
X411713Y29425D01*
X411732Y29314D01*
X411747Y29203D01*
X411759Y29091D01*
X411767Y28979D01*
X411771Y28867D01*
X411771Y28755D01*
X411767Y28643D01*
X411759Y28531D01*
X411747Y28419D01*
X411732Y28308D01*
X411713Y28197D01*
X411689Y28088D01*
X411663Y27979D01*
X411632Y27871D01*
X411598Y27764D01*
X411560Y27658D01*
X411518Y27554D01*
X411473Y27451D01*
X411424Y27350D01*
X411372Y27251D01*
X411317Y27153D01*
X411258Y27058D01*
X411196Y26964D01*
X411130Y26873D01*
X411062Y26784D01*
X410990Y26698D01*
X410916Y26614D01*
X410839Y26532D01*
X410759Y26453D01*
X410676Y26378D01*
X410591Y26305D01*
X410503Y26235D01*
X410413Y26168D01*
X410320Y26104D01*
X410226Y26043D01*
X410129Y25986D01*
X410031Y25932D01*
X409931Y25882D01*
X409829Y25835D01*
X409725Y25792D01*
X409620Y25752D01*
X409514Y25716D01*
X409407Y25683D01*
X409298Y25654D01*
X409189Y25629D01*
X409078Y25608D01*
X408968Y25591D01*
X408856Y25577D01*
X408744Y25568D01*
X408632Y25562D01*
X408520Y25560D01*
X411771Y37390D02*
X400067Y37390D01*
X411771Y43892D01*
X400067Y43892D01*
X411771Y49624D02*
X411771Y54826D01*
X411771Y49624D02*
X400067Y49624D01*
X400067Y54826D01*
X405269Y53526D02*
X405269Y49624D01*
X411771Y58492D02*
X400067Y66295D01*
X400067Y58492D02*
X411771Y66295D01*
X411771Y71552D02*
X400067Y71552D01*
X411771Y72852D02*
X411771Y70251D01*
X400067Y70251D02*
X400067Y72852D01*
X403318Y77460D02*
X408520Y77460D01*
X403318Y77460D02*
X403206Y77462D01*
X403094Y77468D01*
X402982Y77477D01*
X402870Y77491D01*
X402760Y77508D01*
X402649Y77529D01*
X402540Y77554D01*
X402431Y77583D01*
X402324Y77616D01*
X402218Y77652D01*
X402113Y77692D01*
X402009Y77735D01*
X401907Y77782D01*
X401807Y77832D01*
X401709Y77886D01*
X401612Y77943D01*
X401518Y78004D01*
X401425Y78068D01*
X401335Y78135D01*
X401247Y78205D01*
X401162Y78278D01*
X401079Y78353D01*
X400999Y78432D01*
X400922Y78514D01*
X400848Y78598D01*
X400776Y78684D01*
X400708Y78773D01*
X400642Y78864D01*
X400580Y78958D01*
X400521Y79053D01*
X400466Y79151D01*
X400414Y79250D01*
X400365Y79351D01*
X400320Y79454D01*
X400278Y79558D01*
X400240Y79664D01*
X400206Y79771D01*
X400175Y79879D01*
X400149Y79988D01*
X400125Y80097D01*
X400106Y80208D01*
X400091Y80319D01*
X400079Y80431D01*
X400071Y80543D01*
X400067Y80655D01*
X400067Y80767D01*
X400071Y80879D01*
X400079Y80991D01*
X400091Y81103D01*
X400106Y81214D01*
X400125Y81325D01*
X400149Y81434D01*
X400175Y81543D01*
X400206Y81651D01*
X400240Y81758D01*
X400278Y81864D01*
X400320Y81968D01*
X400365Y82071D01*
X400414Y82172D01*
X400466Y82271D01*
X400521Y82369D01*
X400580Y82464D01*
X400642Y82558D01*
X400708Y82649D01*
X400776Y82738D01*
X400848Y82824D01*
X400922Y82908D01*
X400999Y82990D01*
X401079Y83069D01*
X401162Y83144D01*
X401247Y83217D01*
X401335Y83287D01*
X401425Y83354D01*
X401518Y83418D01*
X401612Y83479D01*
X401709Y83536D01*
X401807Y83590D01*
X401907Y83640D01*
X402009Y83687D01*
X402113Y83730D01*
X402218Y83770D01*
X402324Y83806D01*
X402431Y83839D01*
X402540Y83868D01*
X402649Y83893D01*
X402760Y83914D01*
X402870Y83931D01*
X402982Y83945D01*
X403094Y83954D01*
X403206Y83960D01*
X403318Y83962D01*
X408520Y83962D01*
X408632Y83960D01*
X408744Y83954D01*
X408856Y83945D01*
X408968Y83931D01*
X409078Y83914D01*
X409189Y83893D01*
X409298Y83868D01*
X409407Y83839D01*
X409514Y83806D01*
X409620Y83770D01*
X409725Y83730D01*
X409829Y83687D01*
X409931Y83640D01*
X410031Y83590D01*
X410129Y83536D01*
X410226Y83479D01*
X410320Y83418D01*
X410413Y83354D01*
X410503Y83287D01*
X410591Y83217D01*
X410676Y83144D01*
X410759Y83069D01*
X410839Y82990D01*
X410916Y82908D01*
X410990Y82824D01*
X411062Y82738D01*
X411130Y82649D01*
X411196Y82558D01*
X411258Y82464D01*
X411317Y82369D01*
X411372Y82271D01*
X411424Y82172D01*
X411473Y82071D01*
X411518Y81968D01*
X411560Y81864D01*
X411598Y81758D01*
X411632Y81651D01*
X411663Y81543D01*
X411689Y81434D01*
X411713Y81325D01*
X411732Y81214D01*
X411747Y81103D01*
X411759Y80991D01*
X411767Y80879D01*
X411771Y80767D01*
X411771Y80655D01*
X411767Y80543D01*
X411759Y80431D01*
X411747Y80319D01*
X411732Y80208D01*
X411713Y80097D01*
X411689Y79988D01*
X411663Y79879D01*
X411632Y79771D01*
X411598Y79664D01*
X411560Y79558D01*
X411518Y79454D01*
X411473Y79351D01*
X411424Y79250D01*
X411372Y79151D01*
X411317Y79053D01*
X411258Y78958D01*
X411196Y78864D01*
X411130Y78773D01*
X411062Y78684D01*
X410990Y78598D01*
X410916Y78514D01*
X410839Y78432D01*
X410759Y78353D01*
X410676Y78278D01*
X410591Y78205D01*
X410503Y78135D01*
X410413Y78068D01*
X410320Y78004D01*
X410226Y77943D01*
X410129Y77886D01*
X410031Y77832D01*
X409931Y77782D01*
X409829Y77735D01*
X409725Y77692D01*
X409620Y77652D01*
X409514Y77616D01*
X409407Y77583D01*
X409298Y77554D01*
X409189Y77529D01*
X409078Y77508D01*
X408968Y77491D01*
X408856Y77477D01*
X408744Y77468D01*
X408632Y77462D01*
X408520Y77460D01*
X411771Y89290D02*
X400067Y89290D01*
X411771Y95792D01*
X400067Y95792D01*
X413072Y100625D02*
X413072Y105827D01*
X411771Y109628D02*
X400067Y113530D01*
X411771Y117431D01*
X408845Y116456D02*
X408845Y110604D01*
X402668Y121727D02*
X400067Y124978D01*
X411771Y124978D01*
X411771Y121727D02*
X411771Y128230D01*
X462110Y221144D02*
X462110Y232851D01*
X465361Y232851D02*
X458858Y232851D01*
X469545Y232851D02*
X469545Y231550D01*
X469545Y232851D02*
X476048Y232851D01*
X472796Y221144D01*
X252110Y221144D02*
X252110Y232851D01*
X255361Y232851D02*
X248858Y232851D01*
X259544Y224396D02*
X259546Y224508D01*
X259552Y224620D01*
X259561Y224732D01*
X259575Y224844D01*
X259592Y224955D01*
X259614Y225065D01*
X259638Y225174D01*
X259667Y225283D01*
X259700Y225390D01*
X259736Y225497D01*
X259776Y225601D01*
X259819Y225705D01*
X259866Y225807D01*
X259916Y225907D01*
X259970Y226006D01*
X260028Y226102D01*
X260088Y226197D01*
X260152Y226289D01*
X260219Y226379D01*
X260289Y226467D01*
X260362Y226552D01*
X260438Y226635D01*
X260516Y226715D01*
X260598Y226793D01*
X260682Y226867D01*
X260768Y226939D01*
X260857Y227007D01*
X260949Y227072D01*
X261042Y227135D01*
X261138Y227193D01*
X261235Y227249D01*
X261335Y227301D01*
X261436Y227350D01*
X261539Y227395D01*
X261643Y227437D01*
X261748Y227475D01*
X261855Y227509D01*
X261963Y227540D01*
X262072Y227566D01*
X262182Y227590D01*
X262293Y227609D01*
X262404Y227624D01*
X262516Y227636D01*
X262628Y227644D01*
X262740Y227648D01*
X262852Y227648D01*
X262964Y227644D01*
X263076Y227636D01*
X263188Y227624D01*
X263299Y227609D01*
X263410Y227590D01*
X263520Y227566D01*
X263629Y227540D01*
X263737Y227509D01*
X263844Y227475D01*
X263949Y227437D01*
X264053Y227395D01*
X264156Y227350D01*
X264257Y227301D01*
X264357Y227249D01*
X264454Y227193D01*
X264550Y227135D01*
X264643Y227072D01*
X264735Y227007D01*
X264824Y226939D01*
X264910Y226867D01*
X264994Y226793D01*
X265076Y226715D01*
X265154Y226635D01*
X265230Y226552D01*
X265303Y226467D01*
X265373Y226379D01*
X265440Y226289D01*
X265504Y226197D01*
X265564Y226102D01*
X265622Y226006D01*
X265676Y225907D01*
X265726Y225807D01*
X265773Y225705D01*
X265816Y225601D01*
X265856Y225497D01*
X265892Y225390D01*
X265925Y225283D01*
X265954Y225174D01*
X265978Y225065D01*
X266000Y224955D01*
X266017Y224844D01*
X266031Y224732D01*
X266040Y224620D01*
X266046Y224508D01*
X266048Y224396D01*
X266046Y224284D01*
X266040Y224172D01*
X266031Y224060D01*
X266017Y223948D01*
X266000Y223837D01*
X265978Y223727D01*
X265954Y223618D01*
X265925Y223509D01*
X265892Y223402D01*
X265856Y223295D01*
X265816Y223191D01*
X265773Y223087D01*
X265726Y222985D01*
X265676Y222885D01*
X265622Y222786D01*
X265564Y222690D01*
X265504Y222595D01*
X265440Y222503D01*
X265373Y222413D01*
X265303Y222325D01*
X265230Y222240D01*
X265154Y222157D01*
X265076Y222077D01*
X264994Y221999D01*
X264910Y221925D01*
X264824Y221853D01*
X264735Y221785D01*
X264643Y221720D01*
X264550Y221657D01*
X264454Y221599D01*
X264357Y221543D01*
X264257Y221491D01*
X264156Y221442D01*
X264053Y221397D01*
X263949Y221355D01*
X263844Y221317D01*
X263737Y221283D01*
X263629Y221252D01*
X263520Y221226D01*
X263410Y221202D01*
X263299Y221183D01*
X263188Y221168D01*
X263076Y221156D01*
X262964Y221148D01*
X262852Y221144D01*
X262740Y221144D01*
X262628Y221148D01*
X262516Y221156D01*
X262404Y221168D01*
X262293Y221183D01*
X262182Y221202D01*
X262072Y221226D01*
X261963Y221252D01*
X261855Y221283D01*
X261748Y221317D01*
X261643Y221355D01*
X261539Y221397D01*
X261436Y221442D01*
X261335Y221491D01*
X261235Y221543D01*
X261138Y221599D01*
X261042Y221657D01*
X260949Y221720D01*
X260857Y221785D01*
X260768Y221853D01*
X260682Y221925D01*
X260598Y221999D01*
X260516Y222077D01*
X260438Y222157D01*
X260362Y222240D01*
X260289Y222325D01*
X260219Y222413D01*
X260152Y222503D01*
X260088Y222595D01*
X260028Y222690D01*
X259970Y222786D01*
X259916Y222885D01*
X259866Y222985D01*
X259819Y223087D01*
X259776Y223191D01*
X259736Y223295D01*
X259700Y223402D01*
X259667Y223509D01*
X259638Y223618D01*
X259614Y223727D01*
X259592Y223837D01*
X259575Y223948D01*
X259561Y224060D01*
X259552Y224172D01*
X259546Y224284D01*
X259544Y224396D01*
X260195Y230249D02*
X260197Y230350D01*
X260203Y230451D01*
X260213Y230551D01*
X260226Y230651D01*
X260244Y230750D01*
X260265Y230849D01*
X260290Y230947D01*
X260319Y231043D01*
X260352Y231139D01*
X260388Y231233D01*
X260428Y231325D01*
X260472Y231416D01*
X260519Y231506D01*
X260569Y231593D01*
X260623Y231678D01*
X260680Y231761D01*
X260740Y231842D01*
X260804Y231921D01*
X260870Y231997D01*
X260939Y232070D01*
X261011Y232141D01*
X261086Y232209D01*
X261163Y232274D01*
X261243Y232335D01*
X261325Y232394D01*
X261409Y232449D01*
X261496Y232502D01*
X261584Y232550D01*
X261674Y232596D01*
X261766Y232637D01*
X261859Y232675D01*
X261954Y232710D01*
X262050Y232741D01*
X262147Y232768D01*
X262245Y232791D01*
X262344Y232810D01*
X262444Y232826D01*
X262544Y232838D01*
X262645Y232846D01*
X262746Y232850D01*
X262846Y232850D01*
X262947Y232846D01*
X263048Y232838D01*
X263148Y232826D01*
X263248Y232810D01*
X263347Y232791D01*
X263445Y232768D01*
X263542Y232741D01*
X263638Y232710D01*
X263733Y232675D01*
X263826Y232637D01*
X263918Y232596D01*
X264008Y232550D01*
X264097Y232502D01*
X264183Y232449D01*
X264267Y232394D01*
X264349Y232335D01*
X264429Y232274D01*
X264506Y232209D01*
X264581Y232141D01*
X264653Y232070D01*
X264722Y231997D01*
X264788Y231921D01*
X264852Y231842D01*
X264912Y231761D01*
X264969Y231678D01*
X265023Y231593D01*
X265073Y231506D01*
X265120Y231416D01*
X265164Y231325D01*
X265204Y231233D01*
X265240Y231139D01*
X265273Y231043D01*
X265302Y230947D01*
X265327Y230849D01*
X265348Y230750D01*
X265366Y230651D01*
X265379Y230551D01*
X265389Y230451D01*
X265395Y230350D01*
X265397Y230249D01*
X265395Y230148D01*
X265389Y230047D01*
X265379Y229947D01*
X265366Y229847D01*
X265348Y229748D01*
X265327Y229649D01*
X265302Y229551D01*
X265273Y229455D01*
X265240Y229359D01*
X265204Y229265D01*
X265164Y229173D01*
X265120Y229082D01*
X265073Y228992D01*
X265023Y228905D01*
X264969Y228820D01*
X264912Y228737D01*
X264852Y228656D01*
X264788Y228577D01*
X264722Y228501D01*
X264653Y228428D01*
X264581Y228357D01*
X264506Y228289D01*
X264429Y228224D01*
X264349Y228163D01*
X264267Y228104D01*
X264183Y228049D01*
X264096Y227996D01*
X264008Y227948D01*
X263918Y227902D01*
X263826Y227861D01*
X263733Y227823D01*
X263638Y227788D01*
X263542Y227757D01*
X263445Y227730D01*
X263347Y227707D01*
X263248Y227688D01*
X263148Y227672D01*
X263048Y227660D01*
X262947Y227652D01*
X262846Y227648D01*
X262746Y227648D01*
X262645Y227652D01*
X262544Y227660D01*
X262444Y227672D01*
X262344Y227688D01*
X262245Y227707D01*
X262147Y227730D01*
X262050Y227757D01*
X261954Y227788D01*
X261859Y227823D01*
X261766Y227861D01*
X261674Y227902D01*
X261584Y227948D01*
X261496Y227996D01*
X261409Y228049D01*
X261325Y228104D01*
X261243Y228163D01*
X261163Y228224D01*
X261086Y228289D01*
X261011Y228357D01*
X260939Y228428D01*
X260870Y228501D01*
X260804Y228577D01*
X260740Y228656D01*
X260680Y228737D01*
X260623Y228820D01*
X260569Y228905D01*
X260519Y228992D01*
X260472Y229082D01*
X260428Y229173D01*
X260388Y229265D01*
X260352Y229359D01*
X260319Y229455D01*
X260290Y229551D01*
X260265Y229649D01*
X260244Y229748D01*
X260226Y229847D01*
X260213Y229947D01*
X260203Y230047D01*
X260197Y230148D01*
X260195Y230249D01*
D14*
X30800Y125950D02*
X30800Y113250D01*
X30800Y125950D02*
X37150Y132300D01*
X49850Y132300D02*
X56200Y125950D01*
X37150Y132300D02*
X30800Y138650D01*
X30800Y151350D01*
X37150Y157700D01*
X49850Y157700D02*
X56200Y151350D01*
X56200Y138650D01*
X49850Y132300D01*
X49850Y106900D02*
X37150Y106900D01*
X30800Y113250D01*
X49850Y106900D02*
X56200Y113250D01*
X56200Y125950D01*
X37150Y157700D02*
X30800Y164050D01*
X30800Y176750D01*
X37150Y183100D01*
X49850Y183100D02*
X56200Y176750D01*
X56200Y164050D01*
X49850Y157700D01*
X49850Y183100D02*
X37150Y183100D01*
D12*
X37785Y98010D02*
X40325Y94835D01*
X37785Y98010D02*
X49215Y98010D01*
X49215Y94835D02*
X49215Y101185D01*
X26355Y111345D02*
X26353Y111445D01*
X26347Y111544D01*
X26337Y111644D01*
X26324Y111742D01*
X26306Y111841D01*
X26285Y111938D01*
X26260Y112034D01*
X26231Y112130D01*
X26198Y112224D01*
X26162Y112317D01*
X26122Y112408D01*
X26078Y112498D01*
X26031Y112586D01*
X25981Y112672D01*
X25927Y112756D01*
X25870Y112838D01*
X25810Y112917D01*
X25746Y112995D01*
X25680Y113069D01*
X25611Y113141D01*
X25539Y113210D01*
X25465Y113276D01*
X25387Y113340D01*
X25308Y113400D01*
X25226Y113457D01*
X25142Y113511D01*
X25056Y113561D01*
X24968Y113608D01*
X24878Y113652D01*
X24787Y113692D01*
X24694Y113728D01*
X24600Y113761D01*
X24504Y113790D01*
X24408Y113815D01*
X24311Y113836D01*
X24212Y113854D01*
X24114Y113867D01*
X24014Y113877D01*
X23915Y113883D01*
X23815Y113885D01*
X26355Y111345D02*
X26353Y111204D01*
X26348Y111063D01*
X26338Y110922D01*
X26325Y110781D01*
X26309Y110641D01*
X26288Y110501D01*
X26264Y110362D01*
X26236Y110223D01*
X26205Y110086D01*
X26170Y109949D01*
X26132Y109813D01*
X26090Y109678D01*
X26044Y109545D01*
X25995Y109412D01*
X25942Y109281D01*
X25886Y109152D01*
X25827Y109023D01*
X25764Y108897D01*
X25698Y108772D01*
X25629Y108649D01*
X25556Y108528D01*
X25480Y108409D01*
X25401Y108291D01*
X25320Y108176D01*
X25235Y108064D01*
X25147Y107953D01*
X25056Y107845D01*
X24963Y107739D01*
X24866Y107636D01*
X24767Y107535D01*
X17465Y107853D02*
X17365Y107855D01*
X17266Y107861D01*
X17166Y107871D01*
X17068Y107884D01*
X16969Y107902D01*
X16872Y107923D01*
X16776Y107948D01*
X16680Y107977D01*
X16586Y108010D01*
X16493Y108046D01*
X16402Y108086D01*
X16312Y108130D01*
X16224Y108177D01*
X16138Y108227D01*
X16054Y108281D01*
X15972Y108338D01*
X15893Y108398D01*
X15815Y108462D01*
X15741Y108528D01*
X15669Y108597D01*
X15600Y108669D01*
X15534Y108743D01*
X15470Y108821D01*
X15410Y108900D01*
X15353Y108982D01*
X15299Y109066D01*
X15249Y109152D01*
X15202Y109240D01*
X15158Y109330D01*
X15118Y109421D01*
X15082Y109514D01*
X15049Y109608D01*
X15020Y109704D01*
X14995Y109800D01*
X14974Y109897D01*
X14956Y109996D01*
X14943Y110094D01*
X14933Y110194D01*
X14927Y110293D01*
X14925Y110393D01*
X14927Y110526D01*
X14932Y110659D01*
X14942Y110792D01*
X14955Y110925D01*
X14972Y111057D01*
X14992Y111189D01*
X15016Y111320D01*
X15044Y111450D01*
X15075Y111580D01*
X15110Y111708D01*
X15149Y111836D01*
X15191Y111962D01*
X15237Y112087D01*
X15286Y112211D01*
X15338Y112334D01*
X15394Y112455D01*
X15454Y112574D01*
X15516Y112692D01*
X15582Y112807D01*
X15651Y112921D01*
X15724Y113033D01*
X15799Y113143D01*
X15878Y113251D01*
X19688Y109122D02*
X19636Y109038D01*
X19581Y108955D01*
X19522Y108875D01*
X19461Y108797D01*
X19397Y108722D01*
X19329Y108649D01*
X19259Y108578D01*
X19187Y108511D01*
X19112Y108446D01*
X19034Y108384D01*
X18954Y108325D01*
X18872Y108269D01*
X18788Y108217D01*
X18702Y108168D01*
X18614Y108122D01*
X18524Y108079D01*
X18433Y108040D01*
X18340Y108005D01*
X18246Y107973D01*
X18151Y107945D01*
X18055Y107920D01*
X17958Y107900D01*
X17860Y107882D01*
X17762Y107869D01*
X17663Y107860D01*
X17564Y107854D01*
X17465Y107852D01*
X21592Y112615D02*
X21644Y112699D01*
X21699Y112782D01*
X21758Y112862D01*
X21819Y112940D01*
X21883Y113015D01*
X21951Y113088D01*
X22021Y113159D01*
X22093Y113226D01*
X22168Y113291D01*
X22246Y113353D01*
X22326Y113412D01*
X22408Y113468D01*
X22492Y113520D01*
X22578Y113569D01*
X22666Y113615D01*
X22756Y113658D01*
X22847Y113697D01*
X22940Y113732D01*
X23034Y113764D01*
X23129Y113792D01*
X23225Y113817D01*
X23322Y113837D01*
X23420Y113855D01*
X23518Y113868D01*
X23617Y113877D01*
X23716Y113883D01*
X23815Y113885D01*
X21593Y112615D02*
X19688Y109123D01*
X14925Y117949D02*
X26355Y121759D01*
X14925Y125569D01*
X17465Y130014D02*
X14925Y133189D01*
X26355Y133189D01*
X26355Y130014D02*
X26355Y136364D01*
X314300Y98300D02*
X325700Y98300D01*
X325700Y81700D02*
X314300Y81700D01*
D15*
X297154Y102054D02*
X297154Y106546D01*
X298402Y106546D01*
X298471Y106544D01*
X298539Y106538D01*
X298607Y106529D01*
X298675Y106516D01*
X298742Y106499D01*
X298807Y106478D01*
X298872Y106454D01*
X298935Y106427D01*
X298996Y106396D01*
X299056Y106361D01*
X299113Y106324D01*
X299169Y106283D01*
X299222Y106239D01*
X299272Y106193D01*
X299320Y106143D01*
X299365Y106091D01*
X299408Y106037D01*
X299447Y105981D01*
X299483Y105922D01*
X299516Y105862D01*
X299545Y105799D01*
X299571Y105736D01*
X299593Y105671D01*
X299612Y105604D01*
X299627Y105537D01*
X299638Y105469D01*
X299646Y105401D01*
X299650Y105332D01*
X299650Y105264D01*
X299646Y105195D01*
X299638Y105127D01*
X299627Y105059D01*
X299612Y104992D01*
X299593Y104925D01*
X299571Y104860D01*
X299545Y104797D01*
X299516Y104734D01*
X299483Y104674D01*
X299447Y104615D01*
X299408Y104559D01*
X299365Y104505D01*
X299320Y104453D01*
X299272Y104403D01*
X299222Y104357D01*
X299169Y104313D01*
X299113Y104272D01*
X299056Y104235D01*
X298996Y104200D01*
X298935Y104169D01*
X298872Y104142D01*
X298807Y104118D01*
X298742Y104097D01*
X298675Y104080D01*
X298607Y104067D01*
X298539Y104058D01*
X298471Y104052D01*
X298402Y104050D01*
X297154Y104050D01*
X298651Y104050D02*
X299650Y102054D01*
X301421Y101555D02*
X303417Y101555D01*
X305422Y102054D02*
X305422Y106546D01*
X306919Y104050D01*
X308416Y106546D01*
X308416Y102054D01*
X310621Y103302D02*
X310621Y105298D01*
X310623Y105367D01*
X310629Y105435D01*
X310638Y105503D01*
X310651Y105571D01*
X310668Y105638D01*
X310689Y105703D01*
X310713Y105768D01*
X310740Y105831D01*
X310771Y105892D01*
X310806Y105952D01*
X310843Y106009D01*
X310884Y106065D01*
X310928Y106118D01*
X310974Y106168D01*
X311024Y106216D01*
X311076Y106261D01*
X311130Y106304D01*
X311186Y106343D01*
X311245Y106379D01*
X311305Y106412D01*
X311368Y106441D01*
X311431Y106467D01*
X311496Y106489D01*
X311563Y106508D01*
X311630Y106523D01*
X311698Y106534D01*
X311766Y106542D01*
X311835Y106546D01*
X311903Y106546D01*
X311972Y106542D01*
X312040Y106534D01*
X312108Y106523D01*
X312175Y106508D01*
X312242Y106489D01*
X312307Y106467D01*
X312370Y106441D01*
X312433Y106412D01*
X312493Y106379D01*
X312552Y106343D01*
X312608Y106304D01*
X312662Y106261D01*
X312714Y106216D01*
X312764Y106168D01*
X312810Y106118D01*
X312854Y106065D01*
X312895Y106009D01*
X312932Y105952D01*
X312967Y105892D01*
X312998Y105831D01*
X313025Y105768D01*
X313049Y105703D01*
X313070Y105638D01*
X313087Y105571D01*
X313100Y105503D01*
X313109Y105435D01*
X313115Y105367D01*
X313117Y105298D01*
X313117Y103302D01*
X313115Y103233D01*
X313109Y103165D01*
X313100Y103097D01*
X313087Y103029D01*
X313070Y102962D01*
X313049Y102897D01*
X313025Y102832D01*
X312998Y102769D01*
X312967Y102708D01*
X312932Y102648D01*
X312895Y102591D01*
X312854Y102535D01*
X312810Y102482D01*
X312764Y102432D01*
X312714Y102384D01*
X312662Y102339D01*
X312608Y102296D01*
X312552Y102257D01*
X312493Y102221D01*
X312433Y102188D01*
X312370Y102159D01*
X312307Y102133D01*
X312242Y102111D01*
X312175Y102092D01*
X312108Y102077D01*
X312040Y102066D01*
X311972Y102058D01*
X311903Y102054D01*
X311835Y102054D01*
X311766Y102058D01*
X311698Y102066D01*
X311630Y102077D01*
X311563Y102092D01*
X311496Y102111D01*
X311431Y102133D01*
X311368Y102159D01*
X311305Y102188D01*
X311245Y102221D01*
X311186Y102257D01*
X311130Y102296D01*
X311076Y102339D01*
X311024Y102384D01*
X310974Y102432D01*
X310928Y102482D01*
X310884Y102535D01*
X310843Y102591D01*
X310806Y102648D01*
X310771Y102708D01*
X310740Y102769D01*
X310713Y102832D01*
X310689Y102897D01*
X310668Y102962D01*
X310651Y103029D01*
X310638Y103097D01*
X310629Y103165D01*
X310623Y103233D01*
X310621Y103302D01*
X316468Y102054D02*
X316531Y102056D01*
X316593Y102062D01*
X316655Y102072D01*
X316716Y102085D01*
X316776Y102103D01*
X316835Y102124D01*
X316893Y102149D01*
X316949Y102177D01*
X317003Y102209D01*
X317055Y102245D01*
X317104Y102283D01*
X317151Y102325D01*
X317196Y102369D01*
X317237Y102416D01*
X317275Y102465D01*
X317311Y102517D01*
X317343Y102571D01*
X317371Y102627D01*
X317396Y102685D01*
X317417Y102744D01*
X317435Y102804D01*
X317448Y102865D01*
X317458Y102927D01*
X317464Y102989D01*
X317466Y103052D01*
X316468Y102054D02*
X316380Y102056D01*
X316293Y102061D01*
X316206Y102070D01*
X316119Y102083D01*
X316033Y102099D01*
X315948Y102119D01*
X315863Y102143D01*
X315780Y102169D01*
X315697Y102200D01*
X315617Y102234D01*
X315537Y102271D01*
X315459Y102311D01*
X315383Y102354D01*
X315309Y102401D01*
X315237Y102451D01*
X315167Y102503D01*
X315099Y102559D01*
X315033Y102617D01*
X314970Y102678D01*
X315096Y105548D02*
X315098Y105608D01*
X315103Y105668D01*
X315112Y105728D01*
X315125Y105787D01*
X315141Y105845D01*
X315161Y105902D01*
X315184Y105958D01*
X315210Y106012D01*
X315240Y106064D01*
X315273Y106115D01*
X315308Y106163D01*
X315347Y106210D01*
X315388Y106254D01*
X315432Y106295D01*
X315479Y106334D01*
X315527Y106369D01*
X315578Y106402D01*
X315630Y106432D01*
X315684Y106458D01*
X315740Y106481D01*
X315797Y106501D01*
X315855Y106517D01*
X315914Y106530D01*
X315974Y106539D01*
X316034Y106544D01*
X316094Y106546D01*
X316180Y106544D01*
X316266Y106538D01*
X316351Y106528D01*
X316436Y106514D01*
X316520Y106497D01*
X316604Y106475D01*
X316686Y106450D01*
X316767Y106421D01*
X316847Y106388D01*
X316924Y106352D01*
X317001Y106312D01*
X317075Y106268D01*
X317147Y106222D01*
X317217Y106172D01*
X315595Y104674D02*
X315543Y104707D01*
X315493Y104744D01*
X315445Y104783D01*
X315399Y104825D01*
X315356Y104870D01*
X315316Y104917D01*
X315279Y104966D01*
X315245Y105018D01*
X315215Y105072D01*
X315187Y105128D01*
X315163Y105185D01*
X315143Y105243D01*
X315126Y105303D01*
X315113Y105363D01*
X315104Y105424D01*
X315098Y105486D01*
X315096Y105548D01*
X316968Y103926D02*
X317020Y103893D01*
X317070Y103856D01*
X317118Y103817D01*
X317164Y103775D01*
X317207Y103730D01*
X317247Y103683D01*
X317284Y103634D01*
X317318Y103582D01*
X317348Y103528D01*
X317376Y103472D01*
X317400Y103415D01*
X317420Y103357D01*
X317437Y103297D01*
X317450Y103237D01*
X317459Y103176D01*
X317465Y103114D01*
X317467Y103052D01*
X316967Y103926D02*
X315595Y104674D01*
X319481Y106546D02*
X319481Y102054D01*
X319481Y106546D02*
X321478Y106546D01*
X321478Y104550D02*
X319481Y104550D01*
X323381Y102054D02*
X325377Y102054D01*
X323381Y102054D02*
X323381Y106546D01*
X325377Y106546D01*
X324878Y104550D02*
X323381Y104550D01*
X328069Y106546D02*
X328069Y102054D01*
X329316Y106546D02*
X326821Y106546D01*
D16*
X69000Y83750D02*
X69000Y206250D01*
X111000Y105000D02*
X111000Y83750D01*
X111000Y185000D02*
X111000Y206250D01*
D17*
X134000Y175000D03*
D18*
X134044Y175002D01*
X134087Y175008D01*
X134129Y175017D01*
X134171Y175030D01*
X134211Y175047D01*
X134250Y175067D01*
X134287Y175090D01*
X134321Y175117D01*
X134354Y175146D01*
X134383Y175179D01*
X134410Y175213D01*
X134433Y175250D01*
X134453Y175289D01*
X134470Y175329D01*
X134483Y175371D01*
X134492Y175413D01*
X134498Y175456D01*
X134500Y175500D01*
X134498Y175544D01*
X134492Y175587D01*
X134483Y175629D01*
X134470Y175671D01*
X134453Y175711D01*
X134433Y175750D01*
X134410Y175787D01*
X134383Y175821D01*
X134354Y175854D01*
X134321Y175883D01*
X134287Y175910D01*
X134250Y175933D01*
X134211Y175953D01*
X134171Y175970D01*
X134129Y175983D01*
X134087Y175992D01*
X134044Y175998D01*
X134000Y176000D01*
D17*
X134000Y176000D03*
D18*
X133956Y175998D01*
X133913Y175992D01*
X133871Y175983D01*
X133829Y175970D01*
X133789Y175953D01*
X133750Y175933D01*
X133713Y175910D01*
X133679Y175883D01*
X133646Y175854D01*
X133617Y175821D01*
X133590Y175787D01*
X133567Y175750D01*
X133547Y175711D01*
X133530Y175671D01*
X133517Y175629D01*
X133508Y175587D01*
X133502Y175544D01*
X133500Y175500D01*
X133502Y175456D01*
X133508Y175413D01*
X133517Y175371D01*
X133530Y175329D01*
X133547Y175289D01*
X133567Y175250D01*
X133590Y175213D01*
X133617Y175179D01*
X133646Y175146D01*
X133679Y175117D01*
X133713Y175090D01*
X133750Y175067D01*
X133789Y175047D01*
X133829Y175030D01*
X133871Y175017D01*
X133913Y175008D01*
X133956Y175002D01*
X134000Y175000D01*
D11*
X107592Y94162D02*
X107592Y91566D01*
X107590Y91467D01*
X107584Y91367D01*
X107575Y91268D01*
X107562Y91170D01*
X107545Y91072D01*
X107524Y90974D01*
X107499Y90878D01*
X107471Y90783D01*
X107439Y90689D01*
X107404Y90596D01*
X107365Y90504D01*
X107322Y90414D01*
X107277Y90326D01*
X107227Y90239D01*
X107175Y90155D01*
X107119Y90072D01*
X107061Y89992D01*
X106999Y89914D01*
X106934Y89839D01*
X106866Y89766D01*
X106796Y89696D01*
X106723Y89628D01*
X106648Y89563D01*
X106570Y89501D01*
X106490Y89443D01*
X106407Y89387D01*
X106323Y89335D01*
X106236Y89285D01*
X106148Y89240D01*
X106058Y89197D01*
X105966Y89158D01*
X105873Y89123D01*
X105779Y89091D01*
X105684Y89063D01*
X105588Y89038D01*
X105490Y89017D01*
X105392Y89000D01*
X105294Y88987D01*
X105195Y88978D01*
X105095Y88972D01*
X104996Y88970D01*
X104996Y88969D02*
X98504Y88969D01*
X98405Y88971D01*
X98305Y88977D01*
X98206Y88986D01*
X98108Y88999D01*
X98010Y89017D01*
X97912Y89037D01*
X97816Y89062D01*
X97720Y89090D01*
X97626Y89122D01*
X97533Y89157D01*
X97442Y89196D01*
X97352Y89239D01*
X97263Y89284D01*
X97177Y89334D01*
X97092Y89386D01*
X97010Y89442D01*
X96930Y89501D01*
X96852Y89562D01*
X96776Y89627D01*
X96703Y89695D01*
X96633Y89765D01*
X96565Y89838D01*
X96500Y89914D01*
X96439Y89992D01*
X96380Y90072D01*
X96324Y90154D01*
X96272Y90239D01*
X96223Y90325D01*
X96177Y90414D01*
X96134Y90504D01*
X96095Y90595D01*
X96060Y90688D01*
X96028Y90782D01*
X96000Y90878D01*
X95975Y90974D01*
X95955Y91072D01*
X95937Y91170D01*
X95924Y91268D01*
X95915Y91367D01*
X95909Y91466D01*
X95907Y91566D01*
X95908Y91566D02*
X95908Y94162D01*
X99154Y98528D02*
X104346Y98528D01*
X99154Y98527D02*
X99041Y98529D01*
X98928Y98535D01*
X98815Y98545D01*
X98702Y98559D01*
X98590Y98576D01*
X98479Y98598D01*
X98369Y98623D01*
X98259Y98653D01*
X98151Y98686D01*
X98044Y98723D01*
X97938Y98763D01*
X97834Y98808D01*
X97731Y98856D01*
X97630Y98907D01*
X97531Y98962D01*
X97434Y99020D01*
X97339Y99082D01*
X97246Y99147D01*
X97156Y99215D01*
X97068Y99286D01*
X96982Y99361D01*
X96899Y99438D01*
X96819Y99518D01*
X96742Y99601D01*
X96667Y99687D01*
X96596Y99775D01*
X96528Y99865D01*
X96463Y99958D01*
X96401Y100053D01*
X96343Y100150D01*
X96288Y100249D01*
X96237Y100350D01*
X96189Y100453D01*
X96144Y100557D01*
X96104Y100663D01*
X96067Y100770D01*
X96034Y100878D01*
X96004Y100988D01*
X95979Y101098D01*
X95957Y101209D01*
X95940Y101321D01*
X95926Y101434D01*
X95916Y101547D01*
X95910Y101660D01*
X95908Y101773D01*
X95910Y101886D01*
X95916Y101999D01*
X95926Y102112D01*
X95940Y102225D01*
X95957Y102337D01*
X95979Y102448D01*
X96004Y102558D01*
X96034Y102668D01*
X96067Y102776D01*
X96104Y102883D01*
X96144Y102989D01*
X96189Y103093D01*
X96237Y103196D01*
X96288Y103297D01*
X96343Y103396D01*
X96401Y103493D01*
X96463Y103588D01*
X96528Y103681D01*
X96596Y103771D01*
X96667Y103859D01*
X96742Y103945D01*
X96819Y104028D01*
X96899Y104108D01*
X96982Y104185D01*
X97068Y104260D01*
X97156Y104331D01*
X97246Y104399D01*
X97339Y104464D01*
X97434Y104526D01*
X97531Y104584D01*
X97630Y104639D01*
X97731Y104690D01*
X97834Y104738D01*
X97938Y104783D01*
X98044Y104823D01*
X98151Y104860D01*
X98259Y104893D01*
X98369Y104923D01*
X98479Y104948D01*
X98590Y104970D01*
X98702Y104987D01*
X98815Y105001D01*
X98928Y105011D01*
X99041Y105017D01*
X99154Y105019D01*
X104346Y105019D01*
X104459Y105017D01*
X104572Y105011D01*
X104685Y105001D01*
X104798Y104987D01*
X104910Y104970D01*
X105021Y104948D01*
X105131Y104923D01*
X105241Y104893D01*
X105349Y104860D01*
X105456Y104823D01*
X105562Y104783D01*
X105666Y104738D01*
X105769Y104690D01*
X105870Y104639D01*
X105969Y104584D01*
X106066Y104526D01*
X106161Y104464D01*
X106254Y104399D01*
X106344Y104331D01*
X106432Y104260D01*
X106518Y104185D01*
X106601Y104108D01*
X106681Y104028D01*
X106758Y103945D01*
X106833Y103859D01*
X106904Y103771D01*
X106972Y103681D01*
X107037Y103588D01*
X107099Y103493D01*
X107157Y103396D01*
X107212Y103297D01*
X107263Y103196D01*
X107311Y103093D01*
X107356Y102989D01*
X107396Y102883D01*
X107433Y102776D01*
X107466Y102668D01*
X107496Y102558D01*
X107521Y102448D01*
X107543Y102337D01*
X107560Y102225D01*
X107574Y102112D01*
X107584Y101999D01*
X107590Y101886D01*
X107592Y101773D01*
X107590Y101660D01*
X107584Y101547D01*
X107574Y101434D01*
X107560Y101321D01*
X107543Y101209D01*
X107521Y101098D01*
X107496Y100988D01*
X107466Y100878D01*
X107433Y100770D01*
X107396Y100663D01*
X107356Y100557D01*
X107311Y100453D01*
X107263Y100350D01*
X107212Y100249D01*
X107157Y100150D01*
X107099Y100053D01*
X107037Y99958D01*
X106972Y99865D01*
X106904Y99775D01*
X106833Y99687D01*
X106758Y99601D01*
X106681Y99518D01*
X106601Y99438D01*
X106518Y99361D01*
X106432Y99286D01*
X106344Y99215D01*
X106254Y99147D01*
X106161Y99082D01*
X106066Y99020D01*
X105969Y98962D01*
X105870Y98907D01*
X105769Y98856D01*
X105666Y98808D01*
X105562Y98763D01*
X105456Y98723D01*
X105349Y98686D01*
X105241Y98653D01*
X105131Y98623D01*
X105021Y98598D01*
X104910Y98576D01*
X104798Y98559D01*
X104685Y98545D01*
X104572Y98535D01*
X104459Y98529D01*
X104346Y98527D01*
X107592Y110339D02*
X95908Y110339D01*
X107592Y116830D01*
X95908Y116830D01*
X107592Y122553D02*
X107592Y127746D01*
X107592Y122553D02*
X95908Y122553D01*
X95908Y127746D01*
X101101Y126448D02*
X101101Y122553D01*
X107592Y131406D02*
X95908Y139196D01*
X95908Y131406D02*
X107592Y139196D01*
X107592Y144445D02*
X95908Y144445D01*
X107592Y143147D02*
X107592Y145743D01*
X95908Y145743D02*
X95908Y143147D01*
X99154Y150344D02*
X104346Y150344D01*
X99154Y150343D02*
X99041Y150345D01*
X98928Y150351D01*
X98815Y150361D01*
X98702Y150375D01*
X98590Y150392D01*
X98479Y150414D01*
X98369Y150439D01*
X98259Y150469D01*
X98151Y150502D01*
X98044Y150539D01*
X97938Y150579D01*
X97834Y150624D01*
X97731Y150672D01*
X97630Y150723D01*
X97531Y150778D01*
X97434Y150836D01*
X97339Y150898D01*
X97246Y150963D01*
X97156Y151031D01*
X97068Y151102D01*
X96982Y151177D01*
X96899Y151254D01*
X96819Y151334D01*
X96742Y151417D01*
X96667Y151503D01*
X96596Y151591D01*
X96528Y151681D01*
X96463Y151774D01*
X96401Y151869D01*
X96343Y151966D01*
X96288Y152065D01*
X96237Y152166D01*
X96189Y152269D01*
X96144Y152373D01*
X96104Y152479D01*
X96067Y152586D01*
X96034Y152694D01*
X96004Y152804D01*
X95979Y152914D01*
X95957Y153025D01*
X95940Y153137D01*
X95926Y153250D01*
X95916Y153363D01*
X95910Y153476D01*
X95908Y153589D01*
X95910Y153702D01*
X95916Y153815D01*
X95926Y153928D01*
X95940Y154041D01*
X95957Y154153D01*
X95979Y154264D01*
X96004Y154374D01*
X96034Y154484D01*
X96067Y154592D01*
X96104Y154699D01*
X96144Y154805D01*
X96189Y154909D01*
X96237Y155012D01*
X96288Y155113D01*
X96343Y155212D01*
X96401Y155309D01*
X96463Y155404D01*
X96528Y155497D01*
X96596Y155587D01*
X96667Y155675D01*
X96742Y155761D01*
X96819Y155844D01*
X96899Y155924D01*
X96982Y156001D01*
X97068Y156076D01*
X97156Y156147D01*
X97246Y156215D01*
X97339Y156280D01*
X97434Y156342D01*
X97531Y156400D01*
X97630Y156455D01*
X97731Y156506D01*
X97834Y156554D01*
X97938Y156599D01*
X98044Y156639D01*
X98151Y156676D01*
X98259Y156709D01*
X98369Y156739D01*
X98479Y156764D01*
X98590Y156786D01*
X98702Y156803D01*
X98815Y156817D01*
X98928Y156827D01*
X99041Y156833D01*
X99154Y156835D01*
X104346Y156835D01*
X104459Y156833D01*
X104572Y156827D01*
X104685Y156817D01*
X104798Y156803D01*
X104910Y156786D01*
X105021Y156764D01*
X105131Y156739D01*
X105241Y156709D01*
X105349Y156676D01*
X105456Y156639D01*
X105562Y156599D01*
X105666Y156554D01*
X105769Y156506D01*
X105870Y156455D01*
X105969Y156400D01*
X106066Y156342D01*
X106161Y156280D01*
X106254Y156215D01*
X106344Y156147D01*
X106432Y156076D01*
X106518Y156001D01*
X106601Y155924D01*
X106681Y155844D01*
X106758Y155761D01*
X106833Y155675D01*
X106904Y155587D01*
X106972Y155497D01*
X107037Y155404D01*
X107099Y155309D01*
X107157Y155212D01*
X107212Y155113D01*
X107263Y155012D01*
X107311Y154909D01*
X107356Y154805D01*
X107396Y154699D01*
X107433Y154592D01*
X107466Y154484D01*
X107496Y154374D01*
X107521Y154264D01*
X107543Y154153D01*
X107560Y154041D01*
X107574Y153928D01*
X107584Y153815D01*
X107590Y153702D01*
X107592Y153589D01*
X107590Y153476D01*
X107584Y153363D01*
X107574Y153250D01*
X107560Y153137D01*
X107543Y153025D01*
X107521Y152914D01*
X107496Y152804D01*
X107466Y152694D01*
X107433Y152586D01*
X107396Y152479D01*
X107356Y152373D01*
X107311Y152269D01*
X107263Y152166D01*
X107212Y152065D01*
X107157Y151966D01*
X107099Y151869D01*
X107037Y151774D01*
X106972Y151681D01*
X106904Y151591D01*
X106833Y151503D01*
X106758Y151417D01*
X106681Y151334D01*
X106601Y151254D01*
X106518Y151177D01*
X106432Y151102D01*
X106344Y151031D01*
X106254Y150963D01*
X106161Y150898D01*
X106066Y150836D01*
X105969Y150778D01*
X105870Y150723D01*
X105769Y150672D01*
X105666Y150624D01*
X105562Y150579D01*
X105456Y150539D01*
X105349Y150502D01*
X105241Y150469D01*
X105131Y150439D01*
X105021Y150414D01*
X104910Y150392D01*
X104798Y150375D01*
X104685Y150361D01*
X104572Y150351D01*
X104459Y150345D01*
X104346Y150343D01*
X107592Y162155D02*
X95908Y162155D01*
X107592Y168646D01*
X95908Y168646D01*
X108890Y173472D02*
X108890Y178665D01*
X107592Y182460D02*
X95908Y186355D01*
X107592Y190250D01*
X104671Y189276D02*
X104671Y183434D01*
X95908Y198110D02*
X95910Y198217D01*
X95916Y198323D01*
X95926Y198429D01*
X95939Y198535D01*
X95957Y198641D01*
X95978Y198745D01*
X96003Y198849D01*
X96032Y198952D01*
X96064Y199053D01*
X96101Y199153D01*
X96141Y199252D01*
X96184Y199350D01*
X96231Y199446D01*
X96282Y199540D01*
X96336Y199632D01*
X96393Y199722D01*
X96453Y199810D01*
X96517Y199895D01*
X96584Y199978D01*
X96654Y200059D01*
X96726Y200137D01*
X96802Y200213D01*
X96880Y200285D01*
X96961Y200355D01*
X97044Y200422D01*
X97129Y200486D01*
X97217Y200546D01*
X97307Y200603D01*
X97399Y200657D01*
X97493Y200708D01*
X97589Y200755D01*
X97687Y200798D01*
X97786Y200838D01*
X97886Y200875D01*
X97987Y200907D01*
X98090Y200936D01*
X98194Y200961D01*
X98298Y200982D01*
X98404Y201000D01*
X98510Y201013D01*
X98616Y201023D01*
X98722Y201029D01*
X98829Y201031D01*
X95908Y198110D02*
X95910Y197989D01*
X95916Y197868D01*
X95926Y197748D01*
X95939Y197627D01*
X95957Y197508D01*
X95978Y197388D01*
X96003Y197270D01*
X96032Y197153D01*
X96065Y197036D01*
X96101Y196921D01*
X96142Y196807D01*
X96185Y196694D01*
X96233Y196582D01*
X96284Y196473D01*
X96339Y196365D01*
X96397Y196258D01*
X96458Y196154D01*
X96523Y196052D01*
X96591Y195952D01*
X96662Y195854D01*
X96736Y195758D01*
X96813Y195665D01*
X96894Y195575D01*
X96977Y195487D01*
X97063Y195402D01*
X97152Y195319D01*
X97243Y195240D01*
X97337Y195163D01*
X97433Y195090D01*
X97531Y195020D01*
X97632Y194953D01*
X97735Y194889D01*
X97840Y194829D01*
X97947Y194771D01*
X98055Y194718D01*
X98165Y194668D01*
X98277Y194622D01*
X98390Y194579D01*
X98505Y194540D01*
X101101Y200056D02*
X101023Y200135D01*
X100943Y200211D01*
X100860Y200284D01*
X100774Y200354D01*
X100687Y200421D01*
X100596Y200485D01*
X100504Y200545D01*
X100410Y200603D01*
X100313Y200657D01*
X100215Y200707D01*
X100115Y200754D01*
X100014Y200798D01*
X99911Y200838D01*
X99806Y200874D01*
X99701Y200906D01*
X99594Y200935D01*
X99487Y200960D01*
X99378Y200982D01*
X99269Y200999D01*
X99160Y201013D01*
X99050Y201022D01*
X98939Y201028D01*
X98829Y201030D01*
X101101Y200057D02*
X107592Y194540D01*
X107592Y201031D01*
D12*
X314300Y51700D02*
X325700Y51700D01*
X325700Y68300D02*
X314300Y68300D01*
D15*
X311884Y47946D02*
X311884Y43454D01*
X311884Y47946D02*
X313131Y47946D01*
X313200Y47944D01*
X313268Y47938D01*
X313336Y47929D01*
X313404Y47916D01*
X313471Y47899D01*
X313536Y47878D01*
X313601Y47854D01*
X313664Y47827D01*
X313725Y47796D01*
X313785Y47761D01*
X313842Y47724D01*
X313898Y47683D01*
X313951Y47639D01*
X314001Y47593D01*
X314049Y47543D01*
X314094Y47491D01*
X314137Y47437D01*
X314176Y47381D01*
X314212Y47322D01*
X314245Y47262D01*
X314274Y47199D01*
X314300Y47136D01*
X314322Y47071D01*
X314341Y47004D01*
X314356Y46937D01*
X314367Y46869D01*
X314375Y46801D01*
X314379Y46732D01*
X314379Y46664D01*
X314375Y46595D01*
X314367Y46527D01*
X314356Y46459D01*
X314341Y46392D01*
X314322Y46325D01*
X314300Y46260D01*
X314274Y46197D01*
X314245Y46134D01*
X314212Y46074D01*
X314176Y46015D01*
X314137Y45959D01*
X314094Y45905D01*
X314049Y45853D01*
X314001Y45803D01*
X313951Y45757D01*
X313898Y45713D01*
X313842Y45672D01*
X313785Y45635D01*
X313725Y45600D01*
X313664Y45569D01*
X313601Y45542D01*
X313536Y45518D01*
X313471Y45497D01*
X313404Y45480D01*
X313336Y45467D01*
X313268Y45458D01*
X313200Y45452D01*
X313131Y45450D01*
X311884Y45450D01*
X313381Y45450D02*
X314379Y43454D01*
X316150Y42955D02*
X318147Y42955D01*
X321298Y43454D02*
X321361Y43456D01*
X321423Y43462D01*
X321485Y43472D01*
X321546Y43485D01*
X321606Y43503D01*
X321665Y43524D01*
X321723Y43549D01*
X321779Y43577D01*
X321833Y43609D01*
X321885Y43645D01*
X321934Y43683D01*
X321981Y43725D01*
X322026Y43769D01*
X322067Y43816D01*
X322105Y43865D01*
X322141Y43917D01*
X322173Y43971D01*
X322201Y44027D01*
X322226Y44085D01*
X322247Y44144D01*
X322265Y44204D01*
X322278Y44265D01*
X322288Y44327D01*
X322294Y44389D01*
X322296Y44452D01*
X321298Y43454D02*
X321210Y43456D01*
X321123Y43461D01*
X321036Y43470D01*
X320949Y43483D01*
X320863Y43499D01*
X320778Y43519D01*
X320693Y43543D01*
X320610Y43569D01*
X320527Y43600D01*
X320447Y43634D01*
X320367Y43671D01*
X320289Y43711D01*
X320213Y43754D01*
X320139Y43801D01*
X320067Y43851D01*
X319997Y43903D01*
X319929Y43959D01*
X319863Y44017D01*
X319800Y44078D01*
X319926Y46948D02*
X319928Y47008D01*
X319933Y47068D01*
X319942Y47128D01*
X319955Y47187D01*
X319971Y47245D01*
X319991Y47302D01*
X320014Y47358D01*
X320040Y47412D01*
X320070Y47464D01*
X320103Y47515D01*
X320138Y47563D01*
X320177Y47610D01*
X320218Y47654D01*
X320262Y47695D01*
X320309Y47734D01*
X320357Y47769D01*
X320408Y47802D01*
X320460Y47832D01*
X320514Y47858D01*
X320570Y47881D01*
X320627Y47901D01*
X320685Y47917D01*
X320744Y47930D01*
X320804Y47939D01*
X320864Y47944D01*
X320924Y47946D01*
X321010Y47944D01*
X321096Y47938D01*
X321181Y47928D01*
X321266Y47914D01*
X321350Y47897D01*
X321434Y47875D01*
X321516Y47850D01*
X321597Y47821D01*
X321677Y47788D01*
X321754Y47752D01*
X321831Y47712D01*
X321905Y47668D01*
X321977Y47622D01*
X322047Y47572D01*
X320424Y46074D02*
X320372Y46107D01*
X320322Y46144D01*
X320274Y46183D01*
X320228Y46225D01*
X320185Y46270D01*
X320145Y46317D01*
X320108Y46366D01*
X320074Y46418D01*
X320044Y46472D01*
X320016Y46528D01*
X319992Y46585D01*
X319972Y46643D01*
X319955Y46703D01*
X319942Y46763D01*
X319933Y46824D01*
X319927Y46886D01*
X319925Y46948D01*
X321797Y45326D02*
X321849Y45293D01*
X321899Y45256D01*
X321947Y45217D01*
X321993Y45175D01*
X322036Y45130D01*
X322076Y45083D01*
X322113Y45034D01*
X322147Y44982D01*
X322177Y44928D01*
X322205Y44872D01*
X322229Y44815D01*
X322249Y44757D01*
X322266Y44697D01*
X322279Y44637D01*
X322288Y44576D01*
X322294Y44514D01*
X322296Y44452D01*
X321797Y45326D02*
X320424Y46074D01*
X324002Y47946D02*
X325000Y43454D01*
X325998Y46449D01*
X326997Y43454D01*
X327995Y47946D01*
X330198Y47946D02*
X330198Y43454D01*
X329699Y43454D02*
X330697Y43454D01*
X330697Y47946D02*
X329699Y47946D01*
X333498Y47946D02*
X333498Y43454D01*
X332251Y47946D02*
X334746Y47946D01*
X337434Y43454D02*
X338432Y43454D01*
X337434Y43454D02*
X337374Y43456D01*
X337314Y43461D01*
X337254Y43470D01*
X337195Y43483D01*
X337137Y43499D01*
X337080Y43519D01*
X337024Y43542D01*
X336970Y43568D01*
X336918Y43598D01*
X336867Y43631D01*
X336819Y43666D01*
X336772Y43705D01*
X336728Y43746D01*
X336687Y43790D01*
X336648Y43837D01*
X336613Y43885D01*
X336580Y43936D01*
X336550Y43988D01*
X336524Y44042D01*
X336501Y44098D01*
X336481Y44155D01*
X336465Y44213D01*
X336452Y44272D01*
X336443Y44332D01*
X336438Y44392D01*
X336436Y44452D01*
X336436Y46948D01*
X336438Y47011D01*
X336444Y47073D01*
X336454Y47135D01*
X336467Y47196D01*
X336485Y47256D01*
X336506Y47315D01*
X336531Y47373D01*
X336559Y47429D01*
X336591Y47483D01*
X336627Y47535D01*
X336665Y47584D01*
X336706Y47631D01*
X336751Y47675D01*
X336798Y47717D01*
X336847Y47755D01*
X336899Y47791D01*
X336953Y47823D01*
X337009Y47851D01*
X337067Y47876D01*
X337126Y47897D01*
X337186Y47915D01*
X337247Y47928D01*
X337309Y47938D01*
X337371Y47944D01*
X337434Y47946D01*
X338432Y47946D01*
X340350Y47946D02*
X340350Y43454D01*
X340350Y45950D02*
X342846Y45950D01*
X342846Y47946D02*
X342846Y43454D01*
M02*
