G04 EAGLE Gerber X2 export*
%TF.Part,Single*%
%TF.FileFunction,Legend,Bot,1*%
%TF.FilePolarity,Positive*%
%TF.GenerationSoftware,Autodesk,EAGLE,9.1.0*%
%TF.CreationDate,2020-06-24T00:02:46Z*%
G75*
%MOMM*%
%FSLAX34Y34*%
%LPD*%
%AMOC8*
5,1,8,0,0,1.08239X$1,22.5*%
G01*
%ADD10C,0.200000*%
%ADD11C,0.050000*%


D10*
X441750Y215000D02*
X441750Y185000D01*
X418250Y185000D01*
X418250Y215000D01*
X441750Y215000D01*
D11*
X450686Y215500D02*
X450688Y215575D01*
X450694Y215649D01*
X450704Y215723D01*
X450717Y215796D01*
X450735Y215869D01*
X450756Y215940D01*
X450781Y216011D01*
X450810Y216080D01*
X450843Y216147D01*
X450879Y216212D01*
X450918Y216276D01*
X450960Y216337D01*
X451006Y216396D01*
X451055Y216453D01*
X451107Y216506D01*
X451161Y216557D01*
X451218Y216606D01*
X451278Y216650D01*
X451340Y216692D01*
X451404Y216731D01*
X451470Y216766D01*
X451537Y216797D01*
X451607Y216825D01*
X451677Y216849D01*
X451749Y216870D01*
X451822Y216886D01*
X451895Y216899D01*
X451970Y216908D01*
X452044Y216913D01*
X452119Y216914D01*
X452193Y216911D01*
X452268Y216904D01*
X452341Y216893D01*
X452415Y216879D01*
X452487Y216860D01*
X452558Y216838D01*
X452628Y216812D01*
X452697Y216782D01*
X452763Y216749D01*
X452828Y216712D01*
X452891Y216672D01*
X452952Y216628D01*
X453010Y216582D01*
X453066Y216532D01*
X453119Y216480D01*
X453170Y216425D01*
X453217Y216367D01*
X453261Y216307D01*
X453302Y216244D01*
X453340Y216180D01*
X453374Y216114D01*
X453405Y216045D01*
X453432Y215976D01*
X453455Y215905D01*
X453474Y215833D01*
X453490Y215760D01*
X453502Y215686D01*
X453510Y215612D01*
X453514Y215537D01*
X453514Y215463D01*
X453510Y215388D01*
X453502Y215314D01*
X453490Y215240D01*
X453474Y215167D01*
X453455Y215095D01*
X453432Y215024D01*
X453405Y214955D01*
X453374Y214886D01*
X453340Y214820D01*
X453302Y214756D01*
X453261Y214693D01*
X453217Y214633D01*
X453170Y214575D01*
X453119Y214520D01*
X453066Y214468D01*
X453010Y214418D01*
X452952Y214372D01*
X452891Y214328D01*
X452828Y214288D01*
X452763Y214251D01*
X452697Y214218D01*
X452628Y214188D01*
X452558Y214162D01*
X452487Y214140D01*
X452415Y214121D01*
X452341Y214107D01*
X452268Y214096D01*
X452193Y214089D01*
X452119Y214086D01*
X452044Y214087D01*
X451970Y214092D01*
X451895Y214101D01*
X451822Y214114D01*
X451749Y214130D01*
X451677Y214151D01*
X451607Y214175D01*
X451537Y214203D01*
X451470Y214234D01*
X451404Y214269D01*
X451340Y214308D01*
X451278Y214350D01*
X451218Y214394D01*
X451161Y214443D01*
X451107Y214494D01*
X451055Y214547D01*
X451006Y214604D01*
X450960Y214663D01*
X450918Y214724D01*
X450879Y214788D01*
X450843Y214853D01*
X450810Y214920D01*
X450781Y214989D01*
X450756Y215060D01*
X450735Y215131D01*
X450717Y215204D01*
X450704Y215277D01*
X450694Y215351D01*
X450688Y215425D01*
X450686Y215500D01*
X451018Y215500D02*
X451020Y215565D01*
X451026Y215630D01*
X451036Y215695D01*
X451049Y215759D01*
X451067Y215822D01*
X451088Y215884D01*
X451113Y215944D01*
X451142Y216003D01*
X451174Y216060D01*
X451210Y216115D01*
X451248Y216167D01*
X451290Y216217D01*
X451335Y216265D01*
X451383Y216310D01*
X451433Y216352D01*
X451485Y216390D01*
X451540Y216426D01*
X451597Y216458D01*
X451656Y216487D01*
X451716Y216512D01*
X451778Y216533D01*
X451841Y216551D01*
X451905Y216564D01*
X451970Y216574D01*
X452035Y216580D01*
X452100Y216582D01*
X452165Y216580D01*
X452230Y216574D01*
X452295Y216564D01*
X452359Y216551D01*
X452422Y216533D01*
X452484Y216512D01*
X452544Y216487D01*
X452603Y216458D01*
X452660Y216426D01*
X452715Y216390D01*
X452767Y216352D01*
X452817Y216310D01*
X452865Y216265D01*
X452910Y216217D01*
X452952Y216167D01*
X452990Y216115D01*
X453026Y216060D01*
X453058Y216003D01*
X453087Y215944D01*
X453112Y215884D01*
X453133Y215822D01*
X453151Y215759D01*
X453164Y215695D01*
X453174Y215630D01*
X453180Y215565D01*
X453182Y215500D01*
X453180Y215435D01*
X453174Y215370D01*
X453164Y215305D01*
X453151Y215241D01*
X453133Y215178D01*
X453112Y215116D01*
X453087Y215056D01*
X453058Y214997D01*
X453026Y214940D01*
X452990Y214885D01*
X452952Y214833D01*
X452910Y214783D01*
X452865Y214735D01*
X452817Y214690D01*
X452767Y214648D01*
X452715Y214610D01*
X452660Y214574D01*
X452603Y214542D01*
X452544Y214513D01*
X452484Y214488D01*
X452422Y214467D01*
X452359Y214449D01*
X452295Y214436D01*
X452230Y214426D01*
X452165Y214420D01*
X452100Y214418D01*
X452035Y214420D01*
X451970Y214426D01*
X451905Y214436D01*
X451841Y214449D01*
X451778Y214467D01*
X451716Y214488D01*
X451656Y214513D01*
X451597Y214542D01*
X451540Y214574D01*
X451485Y214610D01*
X451433Y214648D01*
X451383Y214690D01*
X451335Y214735D01*
X451290Y214783D01*
X451248Y214833D01*
X451210Y214885D01*
X451174Y214940D01*
X451142Y214997D01*
X451113Y215056D01*
X451088Y215116D01*
X451067Y215178D01*
X451049Y215241D01*
X451036Y215305D01*
X451026Y215370D01*
X451020Y215435D01*
X451018Y215500D01*
X451206Y215500D02*
X451208Y215560D01*
X451214Y215619D01*
X451224Y215678D01*
X451238Y215736D01*
X451255Y215793D01*
X451277Y215849D01*
X451302Y215903D01*
X451331Y215956D01*
X451363Y216006D01*
X451398Y216054D01*
X451437Y216100D01*
X451478Y216143D01*
X451523Y216183D01*
X451570Y216220D01*
X451619Y216254D01*
X451670Y216284D01*
X451724Y216311D01*
X451779Y216334D01*
X451835Y216354D01*
X451893Y216370D01*
X451951Y216382D01*
X452011Y216390D01*
X452070Y216394D01*
X452130Y216394D01*
X452189Y216390D01*
X452249Y216382D01*
X452307Y216370D01*
X452365Y216354D01*
X452421Y216334D01*
X452476Y216311D01*
X452530Y216284D01*
X452581Y216254D01*
X452630Y216220D01*
X452677Y216183D01*
X452722Y216143D01*
X452763Y216100D01*
X452802Y216054D01*
X452837Y216006D01*
X452869Y215956D01*
X452898Y215903D01*
X452923Y215849D01*
X452945Y215793D01*
X452962Y215736D01*
X452976Y215678D01*
X452986Y215619D01*
X452992Y215560D01*
X452994Y215500D01*
X452992Y215440D01*
X452986Y215381D01*
X452976Y215322D01*
X452962Y215264D01*
X452945Y215207D01*
X452923Y215151D01*
X452898Y215097D01*
X452869Y215044D01*
X452837Y214994D01*
X452802Y214946D01*
X452763Y214900D01*
X452722Y214857D01*
X452677Y214817D01*
X452630Y214780D01*
X452581Y214746D01*
X452530Y214716D01*
X452476Y214689D01*
X452421Y214666D01*
X452365Y214646D01*
X452307Y214630D01*
X452249Y214618D01*
X452189Y214610D01*
X452130Y214606D01*
X452070Y214606D01*
X452011Y214610D01*
X451951Y214618D01*
X451893Y214630D01*
X451835Y214646D01*
X451779Y214666D01*
X451724Y214689D01*
X451670Y214716D01*
X451619Y214746D01*
X451570Y214780D01*
X451523Y214817D01*
X451478Y214857D01*
X451437Y214900D01*
X451398Y214946D01*
X451363Y214994D01*
X451331Y215044D01*
X451302Y215097D01*
X451277Y215151D01*
X451255Y215207D01*
X451238Y215264D01*
X451224Y215322D01*
X451214Y215381D01*
X451208Y215440D01*
X451206Y215500D01*
X451429Y215500D02*
X451431Y215551D01*
X451437Y215602D01*
X451447Y215653D01*
X451460Y215702D01*
X451478Y215751D01*
X451499Y215798D01*
X451523Y215843D01*
X451551Y215886D01*
X451582Y215927D01*
X451617Y215965D01*
X451654Y216001D01*
X451693Y216034D01*
X451735Y216063D01*
X451779Y216089D01*
X451826Y216112D01*
X451873Y216132D01*
X451922Y216147D01*
X451972Y216159D01*
X452023Y216167D01*
X452074Y216171D01*
X452126Y216171D01*
X452177Y216167D01*
X452228Y216159D01*
X452278Y216147D01*
X452327Y216132D01*
X452374Y216112D01*
X452421Y216089D01*
X452465Y216063D01*
X452507Y216034D01*
X452546Y216001D01*
X452583Y215965D01*
X452618Y215927D01*
X452649Y215886D01*
X452677Y215843D01*
X452701Y215798D01*
X452722Y215751D01*
X452740Y215702D01*
X452753Y215653D01*
X452763Y215602D01*
X452769Y215551D01*
X452771Y215500D01*
X452769Y215449D01*
X452763Y215398D01*
X452753Y215347D01*
X452740Y215298D01*
X452722Y215249D01*
X452701Y215202D01*
X452677Y215157D01*
X452649Y215114D01*
X452618Y215073D01*
X452583Y215035D01*
X452546Y214999D01*
X452507Y214966D01*
X452465Y214937D01*
X452421Y214911D01*
X452374Y214888D01*
X452327Y214868D01*
X452278Y214853D01*
X452228Y214841D01*
X452177Y214833D01*
X452126Y214829D01*
X452074Y214829D01*
X452023Y214833D01*
X451972Y214841D01*
X451922Y214853D01*
X451873Y214868D01*
X451826Y214888D01*
X451779Y214911D01*
X451735Y214937D01*
X451693Y214966D01*
X451654Y214999D01*
X451617Y215035D01*
X451582Y215073D01*
X451551Y215114D01*
X451523Y215157D01*
X451499Y215202D01*
X451478Y215249D01*
X451460Y215298D01*
X451447Y215347D01*
X451437Y215398D01*
X451431Y215449D01*
X451429Y215500D01*
X451517Y215500D02*
X451519Y215548D01*
X451525Y215596D01*
X451535Y215643D01*
X451549Y215689D01*
X451566Y215734D01*
X451587Y215777D01*
X451612Y215819D01*
X451640Y215858D01*
X451671Y215895D01*
X451705Y215929D01*
X451742Y215960D01*
X451781Y215988D01*
X451823Y216013D01*
X451866Y216034D01*
X451911Y216051D01*
X451957Y216065D01*
X452004Y216075D01*
X452052Y216081D01*
X452100Y216083D01*
X452148Y216081D01*
X452196Y216075D01*
X452243Y216065D01*
X452289Y216051D01*
X452334Y216034D01*
X452377Y216013D01*
X452419Y215988D01*
X452458Y215960D01*
X452495Y215929D01*
X452529Y215895D01*
X452560Y215858D01*
X452588Y215819D01*
X452613Y215777D01*
X452634Y215734D01*
X452651Y215689D01*
X452665Y215643D01*
X452675Y215596D01*
X452681Y215548D01*
X452683Y215500D01*
X452681Y215452D01*
X452675Y215404D01*
X452665Y215357D01*
X452651Y215311D01*
X452634Y215266D01*
X452613Y215223D01*
X452588Y215181D01*
X452560Y215142D01*
X452529Y215105D01*
X452495Y215071D01*
X452458Y215040D01*
X452419Y215012D01*
X452377Y214987D01*
X452334Y214966D01*
X452289Y214949D01*
X452243Y214935D01*
X452196Y214925D01*
X452148Y214919D01*
X452100Y214917D01*
X452052Y214919D01*
X452004Y214925D01*
X451957Y214935D01*
X451911Y214949D01*
X451866Y214966D01*
X451823Y214987D01*
X451781Y215012D01*
X451742Y215040D01*
X451705Y215071D01*
X451671Y215105D01*
X451640Y215142D01*
X451612Y215181D01*
X451587Y215223D01*
X451566Y215266D01*
X451549Y215311D01*
X451535Y215357D01*
X451525Y215404D01*
X451519Y215452D01*
X451517Y215500D01*
X451600Y215400D02*
X451602Y215440D01*
X451608Y215479D01*
X451618Y215518D01*
X451631Y215555D01*
X451649Y215591D01*
X451670Y215625D01*
X451694Y215657D01*
X451721Y215686D01*
X451751Y215713D01*
X451783Y215736D01*
X451818Y215756D01*
X451854Y215772D01*
X451892Y215785D01*
X451931Y215794D01*
X451970Y215799D01*
X452010Y215800D01*
X452050Y215797D01*
X452089Y215790D01*
X452127Y215779D01*
X452165Y215765D01*
X452200Y215746D01*
X452233Y215725D01*
X452265Y215700D01*
X452293Y215672D01*
X452319Y215642D01*
X452341Y215609D01*
X452360Y215574D01*
X452376Y215537D01*
X452388Y215499D01*
X452396Y215460D01*
X452400Y215420D01*
X452400Y215380D01*
X452396Y215340D01*
X452388Y215301D01*
X452376Y215263D01*
X452360Y215226D01*
X452341Y215191D01*
X452319Y215158D01*
X452293Y215128D01*
X452265Y215100D01*
X452233Y215075D01*
X452200Y215054D01*
X452165Y215035D01*
X452127Y215021D01*
X452089Y215010D01*
X452050Y215003D01*
X452010Y215000D01*
X451970Y215001D01*
X451931Y215006D01*
X451892Y215015D01*
X451854Y215028D01*
X451818Y215044D01*
X451783Y215064D01*
X451751Y215087D01*
X451721Y215114D01*
X451694Y215143D01*
X451670Y215175D01*
X451649Y215209D01*
X451631Y215245D01*
X451618Y215282D01*
X451608Y215321D01*
X451602Y215360D01*
X451600Y215400D01*
X451939Y215700D02*
X451941Y215738D01*
X451947Y215775D01*
X451957Y215812D01*
X451970Y215847D01*
X451987Y215880D01*
X452008Y215912D01*
X452032Y215942D01*
X452058Y215968D01*
X452088Y215992D01*
X452119Y216013D01*
X452153Y216030D01*
X452188Y216043D01*
X452225Y216053D01*
X452262Y216059D01*
X452300Y216061D01*
X452338Y216059D01*
X452375Y216053D01*
X452412Y216043D01*
X452447Y216030D01*
X452480Y216013D01*
X452512Y215992D01*
X452542Y215968D01*
X452568Y215942D01*
X452592Y215912D01*
X452613Y215881D01*
X452630Y215847D01*
X452643Y215812D01*
X452653Y215775D01*
X452659Y215738D01*
X452661Y215700D01*
X452659Y215662D01*
X452653Y215625D01*
X452643Y215588D01*
X452630Y215553D01*
X452613Y215520D01*
X452592Y215488D01*
X452568Y215458D01*
X452542Y215432D01*
X452512Y215408D01*
X452481Y215387D01*
X452447Y215370D01*
X452412Y215357D01*
X452375Y215347D01*
X452338Y215341D01*
X452300Y215339D01*
X452262Y215341D01*
X452225Y215347D01*
X452188Y215357D01*
X452153Y215370D01*
X452120Y215387D01*
X452088Y215408D01*
X452058Y215432D01*
X452032Y215458D01*
X452008Y215488D01*
X451987Y215519D01*
X451970Y215553D01*
X451957Y215588D01*
X451947Y215625D01*
X451941Y215662D01*
X451939Y215700D01*
X450320Y215500D02*
X450322Y215584D01*
X450328Y215668D01*
X450338Y215751D01*
X450352Y215834D01*
X450369Y215917D01*
X450391Y215998D01*
X450416Y216078D01*
X450446Y216157D01*
X450478Y216234D01*
X450515Y216310D01*
X450555Y216384D01*
X450598Y216456D01*
X450645Y216526D01*
X450695Y216593D01*
X450749Y216658D01*
X450805Y216721D01*
X450864Y216781D01*
X450926Y216838D01*
X450990Y216892D01*
X451057Y216943D01*
X451126Y216990D01*
X451198Y217034D01*
X451271Y217075D01*
X451347Y217113D01*
X451424Y217147D01*
X451502Y217177D01*
X451582Y217203D01*
X451663Y217226D01*
X451745Y217244D01*
X451828Y217259D01*
X451911Y217270D01*
X451995Y217277D01*
X452079Y217280D01*
X452163Y217279D01*
X452247Y217274D01*
X452331Y217265D01*
X452414Y217252D01*
X452496Y217235D01*
X452578Y217215D01*
X452658Y217190D01*
X452737Y217162D01*
X452815Y217130D01*
X452891Y217094D01*
X452966Y217055D01*
X453038Y217013D01*
X453108Y216967D01*
X453177Y216917D01*
X453242Y216865D01*
X453306Y216810D01*
X453366Y216751D01*
X453424Y216690D01*
X453478Y216626D01*
X453530Y216560D01*
X453579Y216491D01*
X453624Y216420D01*
X453665Y216347D01*
X453704Y216272D01*
X453738Y216196D01*
X453769Y216118D01*
X453797Y216038D01*
X453820Y215957D01*
X453840Y215876D01*
X453856Y215793D01*
X453868Y215710D01*
X453876Y215626D01*
X453880Y215542D01*
X453880Y215458D01*
X453876Y215374D01*
X453868Y215290D01*
X453856Y215207D01*
X453840Y215124D01*
X453820Y215043D01*
X453797Y214962D01*
X453769Y214882D01*
X453738Y214804D01*
X453704Y214728D01*
X453665Y214653D01*
X453624Y214580D01*
X453579Y214509D01*
X453530Y214440D01*
X453478Y214374D01*
X453424Y214310D01*
X453366Y214249D01*
X453306Y214190D01*
X453242Y214135D01*
X453177Y214083D01*
X453108Y214033D01*
X453038Y213987D01*
X452966Y213945D01*
X452891Y213906D01*
X452815Y213870D01*
X452737Y213838D01*
X452658Y213810D01*
X452578Y213785D01*
X452496Y213765D01*
X452414Y213748D01*
X452331Y213735D01*
X452247Y213726D01*
X452163Y213721D01*
X452079Y213720D01*
X451995Y213723D01*
X451911Y213730D01*
X451828Y213741D01*
X451745Y213756D01*
X451663Y213774D01*
X451582Y213797D01*
X451502Y213823D01*
X451424Y213853D01*
X451347Y213887D01*
X451271Y213925D01*
X451198Y213966D01*
X451126Y214010D01*
X451057Y214057D01*
X450990Y214108D01*
X450926Y214162D01*
X450864Y214219D01*
X450805Y214279D01*
X450749Y214342D01*
X450695Y214407D01*
X450645Y214474D01*
X450598Y214544D01*
X450555Y214616D01*
X450515Y214690D01*
X450478Y214766D01*
X450446Y214843D01*
X450416Y214922D01*
X450391Y215002D01*
X450369Y215083D01*
X450352Y215166D01*
X450338Y215249D01*
X450328Y215332D01*
X450322Y215416D01*
X450320Y215500D01*
D10*
X231750Y215000D02*
X231750Y185000D01*
X208250Y185000D01*
X208250Y215000D01*
X231750Y215000D01*
D11*
X240686Y215500D02*
X240688Y215575D01*
X240694Y215649D01*
X240704Y215723D01*
X240717Y215796D01*
X240735Y215869D01*
X240756Y215940D01*
X240781Y216011D01*
X240810Y216080D01*
X240843Y216147D01*
X240879Y216212D01*
X240918Y216276D01*
X240960Y216337D01*
X241006Y216396D01*
X241055Y216453D01*
X241107Y216506D01*
X241161Y216557D01*
X241218Y216606D01*
X241278Y216650D01*
X241340Y216692D01*
X241404Y216731D01*
X241470Y216766D01*
X241537Y216797D01*
X241607Y216825D01*
X241677Y216849D01*
X241749Y216870D01*
X241822Y216886D01*
X241895Y216899D01*
X241970Y216908D01*
X242044Y216913D01*
X242119Y216914D01*
X242193Y216911D01*
X242268Y216904D01*
X242341Y216893D01*
X242415Y216879D01*
X242487Y216860D01*
X242558Y216838D01*
X242628Y216812D01*
X242697Y216782D01*
X242763Y216749D01*
X242828Y216712D01*
X242891Y216672D01*
X242952Y216628D01*
X243010Y216582D01*
X243066Y216532D01*
X243119Y216480D01*
X243170Y216425D01*
X243217Y216367D01*
X243261Y216307D01*
X243302Y216244D01*
X243340Y216180D01*
X243374Y216114D01*
X243405Y216045D01*
X243432Y215976D01*
X243455Y215905D01*
X243474Y215833D01*
X243490Y215760D01*
X243502Y215686D01*
X243510Y215612D01*
X243514Y215537D01*
X243514Y215463D01*
X243510Y215388D01*
X243502Y215314D01*
X243490Y215240D01*
X243474Y215167D01*
X243455Y215095D01*
X243432Y215024D01*
X243405Y214955D01*
X243374Y214886D01*
X243340Y214820D01*
X243302Y214756D01*
X243261Y214693D01*
X243217Y214633D01*
X243170Y214575D01*
X243119Y214520D01*
X243066Y214468D01*
X243010Y214418D01*
X242952Y214372D01*
X242891Y214328D01*
X242828Y214288D01*
X242763Y214251D01*
X242697Y214218D01*
X242628Y214188D01*
X242558Y214162D01*
X242487Y214140D01*
X242415Y214121D01*
X242341Y214107D01*
X242268Y214096D01*
X242193Y214089D01*
X242119Y214086D01*
X242044Y214087D01*
X241970Y214092D01*
X241895Y214101D01*
X241822Y214114D01*
X241749Y214130D01*
X241677Y214151D01*
X241607Y214175D01*
X241537Y214203D01*
X241470Y214234D01*
X241404Y214269D01*
X241340Y214308D01*
X241278Y214350D01*
X241218Y214394D01*
X241161Y214443D01*
X241107Y214494D01*
X241055Y214547D01*
X241006Y214604D01*
X240960Y214663D01*
X240918Y214724D01*
X240879Y214788D01*
X240843Y214853D01*
X240810Y214920D01*
X240781Y214989D01*
X240756Y215060D01*
X240735Y215131D01*
X240717Y215204D01*
X240704Y215277D01*
X240694Y215351D01*
X240688Y215425D01*
X240686Y215500D01*
X241018Y215500D02*
X241020Y215565D01*
X241026Y215630D01*
X241036Y215695D01*
X241049Y215759D01*
X241067Y215822D01*
X241088Y215884D01*
X241113Y215944D01*
X241142Y216003D01*
X241174Y216060D01*
X241210Y216115D01*
X241248Y216167D01*
X241290Y216217D01*
X241335Y216265D01*
X241383Y216310D01*
X241433Y216352D01*
X241485Y216390D01*
X241540Y216426D01*
X241597Y216458D01*
X241656Y216487D01*
X241716Y216512D01*
X241778Y216533D01*
X241841Y216551D01*
X241905Y216564D01*
X241970Y216574D01*
X242035Y216580D01*
X242100Y216582D01*
X242165Y216580D01*
X242230Y216574D01*
X242295Y216564D01*
X242359Y216551D01*
X242422Y216533D01*
X242484Y216512D01*
X242544Y216487D01*
X242603Y216458D01*
X242660Y216426D01*
X242715Y216390D01*
X242767Y216352D01*
X242817Y216310D01*
X242865Y216265D01*
X242910Y216217D01*
X242952Y216167D01*
X242990Y216115D01*
X243026Y216060D01*
X243058Y216003D01*
X243087Y215944D01*
X243112Y215884D01*
X243133Y215822D01*
X243151Y215759D01*
X243164Y215695D01*
X243174Y215630D01*
X243180Y215565D01*
X243182Y215500D01*
X243180Y215435D01*
X243174Y215370D01*
X243164Y215305D01*
X243151Y215241D01*
X243133Y215178D01*
X243112Y215116D01*
X243087Y215056D01*
X243058Y214997D01*
X243026Y214940D01*
X242990Y214885D01*
X242952Y214833D01*
X242910Y214783D01*
X242865Y214735D01*
X242817Y214690D01*
X242767Y214648D01*
X242715Y214610D01*
X242660Y214574D01*
X242603Y214542D01*
X242544Y214513D01*
X242484Y214488D01*
X242422Y214467D01*
X242359Y214449D01*
X242295Y214436D01*
X242230Y214426D01*
X242165Y214420D01*
X242100Y214418D01*
X242035Y214420D01*
X241970Y214426D01*
X241905Y214436D01*
X241841Y214449D01*
X241778Y214467D01*
X241716Y214488D01*
X241656Y214513D01*
X241597Y214542D01*
X241540Y214574D01*
X241485Y214610D01*
X241433Y214648D01*
X241383Y214690D01*
X241335Y214735D01*
X241290Y214783D01*
X241248Y214833D01*
X241210Y214885D01*
X241174Y214940D01*
X241142Y214997D01*
X241113Y215056D01*
X241088Y215116D01*
X241067Y215178D01*
X241049Y215241D01*
X241036Y215305D01*
X241026Y215370D01*
X241020Y215435D01*
X241018Y215500D01*
X241206Y215500D02*
X241208Y215560D01*
X241214Y215619D01*
X241224Y215678D01*
X241238Y215736D01*
X241255Y215793D01*
X241277Y215849D01*
X241302Y215903D01*
X241331Y215956D01*
X241363Y216006D01*
X241398Y216054D01*
X241437Y216100D01*
X241478Y216143D01*
X241523Y216183D01*
X241570Y216220D01*
X241619Y216254D01*
X241670Y216284D01*
X241724Y216311D01*
X241779Y216334D01*
X241835Y216354D01*
X241893Y216370D01*
X241951Y216382D01*
X242011Y216390D01*
X242070Y216394D01*
X242130Y216394D01*
X242189Y216390D01*
X242249Y216382D01*
X242307Y216370D01*
X242365Y216354D01*
X242421Y216334D01*
X242476Y216311D01*
X242530Y216284D01*
X242581Y216254D01*
X242630Y216220D01*
X242677Y216183D01*
X242722Y216143D01*
X242763Y216100D01*
X242802Y216054D01*
X242837Y216006D01*
X242869Y215956D01*
X242898Y215903D01*
X242923Y215849D01*
X242945Y215793D01*
X242962Y215736D01*
X242976Y215678D01*
X242986Y215619D01*
X242992Y215560D01*
X242994Y215500D01*
X242992Y215440D01*
X242986Y215381D01*
X242976Y215322D01*
X242962Y215264D01*
X242945Y215207D01*
X242923Y215151D01*
X242898Y215097D01*
X242869Y215044D01*
X242837Y214994D01*
X242802Y214946D01*
X242763Y214900D01*
X242722Y214857D01*
X242677Y214817D01*
X242630Y214780D01*
X242581Y214746D01*
X242530Y214716D01*
X242476Y214689D01*
X242421Y214666D01*
X242365Y214646D01*
X242307Y214630D01*
X242249Y214618D01*
X242189Y214610D01*
X242130Y214606D01*
X242070Y214606D01*
X242011Y214610D01*
X241951Y214618D01*
X241893Y214630D01*
X241835Y214646D01*
X241779Y214666D01*
X241724Y214689D01*
X241670Y214716D01*
X241619Y214746D01*
X241570Y214780D01*
X241523Y214817D01*
X241478Y214857D01*
X241437Y214900D01*
X241398Y214946D01*
X241363Y214994D01*
X241331Y215044D01*
X241302Y215097D01*
X241277Y215151D01*
X241255Y215207D01*
X241238Y215264D01*
X241224Y215322D01*
X241214Y215381D01*
X241208Y215440D01*
X241206Y215500D01*
X241429Y215500D02*
X241431Y215551D01*
X241437Y215602D01*
X241447Y215653D01*
X241460Y215702D01*
X241478Y215751D01*
X241499Y215798D01*
X241523Y215843D01*
X241551Y215886D01*
X241582Y215927D01*
X241617Y215965D01*
X241654Y216001D01*
X241693Y216034D01*
X241735Y216063D01*
X241779Y216089D01*
X241826Y216112D01*
X241873Y216132D01*
X241922Y216147D01*
X241972Y216159D01*
X242023Y216167D01*
X242074Y216171D01*
X242126Y216171D01*
X242177Y216167D01*
X242228Y216159D01*
X242278Y216147D01*
X242327Y216132D01*
X242374Y216112D01*
X242421Y216089D01*
X242465Y216063D01*
X242507Y216034D01*
X242546Y216001D01*
X242583Y215965D01*
X242618Y215927D01*
X242649Y215886D01*
X242677Y215843D01*
X242701Y215798D01*
X242722Y215751D01*
X242740Y215702D01*
X242753Y215653D01*
X242763Y215602D01*
X242769Y215551D01*
X242771Y215500D01*
X242769Y215449D01*
X242763Y215398D01*
X242753Y215347D01*
X242740Y215298D01*
X242722Y215249D01*
X242701Y215202D01*
X242677Y215157D01*
X242649Y215114D01*
X242618Y215073D01*
X242583Y215035D01*
X242546Y214999D01*
X242507Y214966D01*
X242465Y214937D01*
X242421Y214911D01*
X242374Y214888D01*
X242327Y214868D01*
X242278Y214853D01*
X242228Y214841D01*
X242177Y214833D01*
X242126Y214829D01*
X242074Y214829D01*
X242023Y214833D01*
X241972Y214841D01*
X241922Y214853D01*
X241873Y214868D01*
X241826Y214888D01*
X241779Y214911D01*
X241735Y214937D01*
X241693Y214966D01*
X241654Y214999D01*
X241617Y215035D01*
X241582Y215073D01*
X241551Y215114D01*
X241523Y215157D01*
X241499Y215202D01*
X241478Y215249D01*
X241460Y215298D01*
X241447Y215347D01*
X241437Y215398D01*
X241431Y215449D01*
X241429Y215500D01*
X241517Y215500D02*
X241519Y215548D01*
X241525Y215596D01*
X241535Y215643D01*
X241549Y215689D01*
X241566Y215734D01*
X241587Y215777D01*
X241612Y215819D01*
X241640Y215858D01*
X241671Y215895D01*
X241705Y215929D01*
X241742Y215960D01*
X241781Y215988D01*
X241823Y216013D01*
X241866Y216034D01*
X241911Y216051D01*
X241957Y216065D01*
X242004Y216075D01*
X242052Y216081D01*
X242100Y216083D01*
X242148Y216081D01*
X242196Y216075D01*
X242243Y216065D01*
X242289Y216051D01*
X242334Y216034D01*
X242377Y216013D01*
X242419Y215988D01*
X242458Y215960D01*
X242495Y215929D01*
X242529Y215895D01*
X242560Y215858D01*
X242588Y215819D01*
X242613Y215777D01*
X242634Y215734D01*
X242651Y215689D01*
X242665Y215643D01*
X242675Y215596D01*
X242681Y215548D01*
X242683Y215500D01*
X242681Y215452D01*
X242675Y215404D01*
X242665Y215357D01*
X242651Y215311D01*
X242634Y215266D01*
X242613Y215223D01*
X242588Y215181D01*
X242560Y215142D01*
X242529Y215105D01*
X242495Y215071D01*
X242458Y215040D01*
X242419Y215012D01*
X242377Y214987D01*
X242334Y214966D01*
X242289Y214949D01*
X242243Y214935D01*
X242196Y214925D01*
X242148Y214919D01*
X242100Y214917D01*
X242052Y214919D01*
X242004Y214925D01*
X241957Y214935D01*
X241911Y214949D01*
X241866Y214966D01*
X241823Y214987D01*
X241781Y215012D01*
X241742Y215040D01*
X241705Y215071D01*
X241671Y215105D01*
X241640Y215142D01*
X241612Y215181D01*
X241587Y215223D01*
X241566Y215266D01*
X241549Y215311D01*
X241535Y215357D01*
X241525Y215404D01*
X241519Y215452D01*
X241517Y215500D01*
X241600Y215400D02*
X241602Y215440D01*
X241608Y215479D01*
X241618Y215518D01*
X241631Y215555D01*
X241649Y215591D01*
X241670Y215625D01*
X241694Y215657D01*
X241721Y215686D01*
X241751Y215713D01*
X241783Y215736D01*
X241818Y215756D01*
X241854Y215772D01*
X241892Y215785D01*
X241931Y215794D01*
X241970Y215799D01*
X242010Y215800D01*
X242050Y215797D01*
X242089Y215790D01*
X242127Y215779D01*
X242165Y215765D01*
X242200Y215746D01*
X242233Y215725D01*
X242265Y215700D01*
X242293Y215672D01*
X242319Y215642D01*
X242341Y215609D01*
X242360Y215574D01*
X242376Y215537D01*
X242388Y215499D01*
X242396Y215460D01*
X242400Y215420D01*
X242400Y215380D01*
X242396Y215340D01*
X242388Y215301D01*
X242376Y215263D01*
X242360Y215226D01*
X242341Y215191D01*
X242319Y215158D01*
X242293Y215128D01*
X242265Y215100D01*
X242233Y215075D01*
X242200Y215054D01*
X242165Y215035D01*
X242127Y215021D01*
X242089Y215010D01*
X242050Y215003D01*
X242010Y215000D01*
X241970Y215001D01*
X241931Y215006D01*
X241892Y215015D01*
X241854Y215028D01*
X241818Y215044D01*
X241783Y215064D01*
X241751Y215087D01*
X241721Y215114D01*
X241694Y215143D01*
X241670Y215175D01*
X241649Y215209D01*
X241631Y215245D01*
X241618Y215282D01*
X241608Y215321D01*
X241602Y215360D01*
X241600Y215400D01*
X241939Y215700D02*
X241941Y215738D01*
X241947Y215775D01*
X241957Y215812D01*
X241970Y215847D01*
X241987Y215880D01*
X242008Y215912D01*
X242032Y215942D01*
X242058Y215968D01*
X242088Y215992D01*
X242119Y216013D01*
X242153Y216030D01*
X242188Y216043D01*
X242225Y216053D01*
X242262Y216059D01*
X242300Y216061D01*
X242338Y216059D01*
X242375Y216053D01*
X242412Y216043D01*
X242447Y216030D01*
X242480Y216013D01*
X242512Y215992D01*
X242542Y215968D01*
X242568Y215942D01*
X242592Y215912D01*
X242613Y215881D01*
X242630Y215847D01*
X242643Y215812D01*
X242653Y215775D01*
X242659Y215738D01*
X242661Y215700D01*
X242659Y215662D01*
X242653Y215625D01*
X242643Y215588D01*
X242630Y215553D01*
X242613Y215520D01*
X242592Y215488D01*
X242568Y215458D01*
X242542Y215432D01*
X242512Y215408D01*
X242481Y215387D01*
X242447Y215370D01*
X242412Y215357D01*
X242375Y215347D01*
X242338Y215341D01*
X242300Y215339D01*
X242262Y215341D01*
X242225Y215347D01*
X242188Y215357D01*
X242153Y215370D01*
X242120Y215387D01*
X242088Y215408D01*
X242058Y215432D01*
X242032Y215458D01*
X242008Y215488D01*
X241987Y215519D01*
X241970Y215553D01*
X241957Y215588D01*
X241947Y215625D01*
X241941Y215662D01*
X241939Y215700D01*
X240320Y215500D02*
X240322Y215584D01*
X240328Y215668D01*
X240338Y215751D01*
X240352Y215834D01*
X240369Y215917D01*
X240391Y215998D01*
X240416Y216078D01*
X240446Y216157D01*
X240478Y216234D01*
X240515Y216310D01*
X240555Y216384D01*
X240598Y216456D01*
X240645Y216526D01*
X240695Y216593D01*
X240749Y216658D01*
X240805Y216721D01*
X240864Y216781D01*
X240926Y216838D01*
X240990Y216892D01*
X241057Y216943D01*
X241126Y216990D01*
X241198Y217034D01*
X241271Y217075D01*
X241347Y217113D01*
X241424Y217147D01*
X241502Y217177D01*
X241582Y217203D01*
X241663Y217226D01*
X241745Y217244D01*
X241828Y217259D01*
X241911Y217270D01*
X241995Y217277D01*
X242079Y217280D01*
X242163Y217279D01*
X242247Y217274D01*
X242331Y217265D01*
X242414Y217252D01*
X242496Y217235D01*
X242578Y217215D01*
X242658Y217190D01*
X242737Y217162D01*
X242815Y217130D01*
X242891Y217094D01*
X242966Y217055D01*
X243038Y217013D01*
X243108Y216967D01*
X243177Y216917D01*
X243242Y216865D01*
X243306Y216810D01*
X243366Y216751D01*
X243424Y216690D01*
X243478Y216626D01*
X243530Y216560D01*
X243579Y216491D01*
X243624Y216420D01*
X243665Y216347D01*
X243704Y216272D01*
X243738Y216196D01*
X243769Y216118D01*
X243797Y216038D01*
X243820Y215957D01*
X243840Y215876D01*
X243856Y215793D01*
X243868Y215710D01*
X243876Y215626D01*
X243880Y215542D01*
X243880Y215458D01*
X243876Y215374D01*
X243868Y215290D01*
X243856Y215207D01*
X243840Y215124D01*
X243820Y215043D01*
X243797Y214962D01*
X243769Y214882D01*
X243738Y214804D01*
X243704Y214728D01*
X243665Y214653D01*
X243624Y214580D01*
X243579Y214509D01*
X243530Y214440D01*
X243478Y214374D01*
X243424Y214310D01*
X243366Y214249D01*
X243306Y214190D01*
X243242Y214135D01*
X243177Y214083D01*
X243108Y214033D01*
X243038Y213987D01*
X242966Y213945D01*
X242891Y213906D01*
X242815Y213870D01*
X242737Y213838D01*
X242658Y213810D01*
X242578Y213785D01*
X242496Y213765D01*
X242414Y213748D01*
X242331Y213735D01*
X242247Y213726D01*
X242163Y213721D01*
X242079Y213720D01*
X241995Y213723D01*
X241911Y213730D01*
X241828Y213741D01*
X241745Y213756D01*
X241663Y213774D01*
X241582Y213797D01*
X241502Y213823D01*
X241424Y213853D01*
X241347Y213887D01*
X241271Y213925D01*
X241198Y213966D01*
X241126Y214010D01*
X241057Y214057D01*
X240990Y214108D01*
X240926Y214162D01*
X240864Y214219D01*
X240805Y214279D01*
X240749Y214342D01*
X240695Y214407D01*
X240645Y214474D01*
X240598Y214544D01*
X240555Y214616D01*
X240515Y214690D01*
X240478Y214766D01*
X240446Y214843D01*
X240416Y214922D01*
X240391Y215002D01*
X240369Y215083D01*
X240352Y215166D01*
X240338Y215249D01*
X240328Y215332D01*
X240322Y215416D01*
X240320Y215500D01*
M02*
