G04 EAGLE Gerber X2 export*
%TF.Part,Single*%
%TF.FileFunction,Profile,NP*%
%TF.FilePolarity,Positive*%
%TF.GenerationSoftware,Autodesk,EAGLE,9.1.0*%
%TF.CreationDate,2020-06-24T00:00:20Z*%
G75*
%MOMM*%
%FSLAX34Y34*%
%LPD*%
%AMOC8*
5,1,8,0,0,1.08239X$1,22.5*%
G01*
%ADD10C,0.254000*%


D10*
X700Y12700D02*
X748Y11593D01*
X893Y10495D01*
X1133Y9413D01*
X1466Y8356D01*
X1890Y7333D01*
X2401Y6350D01*
X2997Y5416D01*
X3671Y4537D01*
X4420Y3720D01*
X5237Y2971D01*
X6116Y2297D01*
X7050Y1701D01*
X8033Y1190D01*
X9056Y766D01*
X10113Y433D01*
X11195Y193D01*
X12293Y48D01*
X13400Y0D01*
X813000Y0D01*
X814107Y48D01*
X815205Y193D01*
X816287Y433D01*
X817344Y766D01*
X818367Y1190D01*
X819350Y1701D01*
X820284Y2297D01*
X821163Y2971D01*
X821980Y3720D01*
X822729Y4537D01*
X823403Y5416D01*
X823999Y6350D01*
X824510Y7333D01*
X824934Y8356D01*
X825267Y9413D01*
X825507Y10495D01*
X825652Y11593D01*
X825700Y12700D01*
X825700Y277300D01*
X825652Y278407D01*
X825507Y279505D01*
X825267Y280587D01*
X824934Y281644D01*
X824510Y282667D01*
X823999Y283650D01*
X823403Y284584D01*
X822729Y285463D01*
X821980Y286280D01*
X821163Y287029D01*
X820284Y287703D01*
X819350Y288299D01*
X818367Y288810D01*
X817344Y289234D01*
X816287Y289567D01*
X815205Y289807D01*
X814107Y289952D01*
X813000Y290000D01*
X13400Y290000D01*
X12293Y289952D01*
X11195Y289807D01*
X10113Y289567D01*
X9056Y289234D01*
X8033Y288810D01*
X7050Y288299D01*
X6116Y287703D01*
X5237Y287029D01*
X4420Y286280D01*
X3671Y285463D01*
X2997Y284584D01*
X2401Y283650D01*
X1890Y282667D01*
X1466Y281644D01*
X1133Y280587D01*
X893Y279505D01*
X748Y278407D01*
X700Y277300D01*
X700Y12700D01*
X628700Y170000D02*
X662700Y170000D01*
X662700Y194000D01*
X628700Y194000D01*
X628700Y170000D01*
X163700Y96000D02*
X197700Y96000D01*
X197700Y120000D01*
X163700Y120000D01*
X163700Y96000D01*
X163700Y170000D02*
X197700Y170000D01*
X197700Y194000D01*
X163700Y194000D01*
X163700Y170000D01*
X628700Y96000D02*
X662700Y96000D01*
X662700Y120000D01*
X628700Y120000D01*
X628700Y96000D01*
X45700Y254509D02*
X45700Y255491D01*
X45623Y256470D01*
X45469Y257441D01*
X45240Y258396D01*
X44936Y259330D01*
X44561Y260237D01*
X44115Y261112D01*
X43601Y261950D01*
X43024Y262745D01*
X42386Y263492D01*
X41692Y264186D01*
X40945Y264824D01*
X40150Y265401D01*
X39312Y265915D01*
X38437Y266361D01*
X37530Y266736D01*
X36596Y267040D01*
X35641Y267269D01*
X34670Y267423D01*
X33691Y267500D01*
X32709Y267500D01*
X31730Y267423D01*
X30760Y267269D01*
X29804Y267040D01*
X28870Y266736D01*
X27963Y266361D01*
X27088Y265915D01*
X26250Y265401D01*
X25455Y264824D01*
X24708Y264186D01*
X24014Y263492D01*
X23376Y262745D01*
X22799Y261950D01*
X22285Y261112D01*
X21839Y260237D01*
X21464Y259330D01*
X21160Y258396D01*
X20931Y257441D01*
X20777Y256470D01*
X20700Y255491D01*
X20700Y254509D01*
X20777Y253530D01*
X20931Y252560D01*
X21160Y251604D01*
X21464Y250670D01*
X21839Y249763D01*
X22285Y248888D01*
X22799Y248050D01*
X23376Y247255D01*
X24014Y246508D01*
X24708Y245814D01*
X25455Y245176D01*
X26250Y244599D01*
X27088Y244085D01*
X27963Y243639D01*
X28870Y243264D01*
X29804Y242960D01*
X30760Y242731D01*
X31730Y242577D01*
X32709Y242500D01*
X33691Y242500D01*
X34670Y242577D01*
X35641Y242731D01*
X36596Y242960D01*
X37530Y243264D01*
X38437Y243639D01*
X39312Y244085D01*
X40150Y244599D01*
X40945Y245176D01*
X41692Y245814D01*
X42386Y246508D01*
X43024Y247255D01*
X43601Y248050D01*
X44115Y248888D01*
X44561Y249763D01*
X44936Y250670D01*
X45240Y251604D01*
X45469Y252560D01*
X45623Y253530D01*
X45700Y254509D01*
X805700Y34509D02*
X805700Y35491D01*
X805623Y36470D01*
X805469Y37441D01*
X805240Y38396D01*
X804936Y39330D01*
X804561Y40237D01*
X804115Y41112D01*
X803601Y41950D01*
X803024Y42745D01*
X802386Y43492D01*
X801692Y44186D01*
X800945Y44824D01*
X800150Y45401D01*
X799312Y45915D01*
X798437Y46361D01*
X797530Y46736D01*
X796596Y47040D01*
X795641Y47269D01*
X794670Y47423D01*
X793691Y47500D01*
X792709Y47500D01*
X791730Y47423D01*
X790760Y47269D01*
X789804Y47040D01*
X788870Y46736D01*
X787963Y46361D01*
X787088Y45915D01*
X786250Y45401D01*
X785455Y44824D01*
X784708Y44186D01*
X784014Y43492D01*
X783376Y42745D01*
X782799Y41950D01*
X782285Y41112D01*
X781839Y40237D01*
X781464Y39330D01*
X781160Y38396D01*
X780931Y37441D01*
X780777Y36470D01*
X780700Y35491D01*
X780700Y34509D01*
X780777Y33530D01*
X780931Y32560D01*
X781160Y31604D01*
X781464Y30670D01*
X781839Y29763D01*
X782285Y28888D01*
X782799Y28050D01*
X783376Y27255D01*
X784014Y26508D01*
X784708Y25814D01*
X785455Y25176D01*
X786250Y24599D01*
X787088Y24085D01*
X787963Y23639D01*
X788870Y23264D01*
X789804Y22960D01*
X790760Y22731D01*
X791730Y22577D01*
X792709Y22500D01*
X793691Y22500D01*
X794670Y22577D01*
X795641Y22731D01*
X796596Y22960D01*
X797530Y23264D01*
X798437Y23639D01*
X799312Y24085D01*
X800150Y24599D01*
X800945Y25176D01*
X801692Y25814D01*
X802386Y26508D01*
X803024Y27255D01*
X803601Y28050D01*
X804115Y28888D01*
X804561Y29763D01*
X804936Y30670D01*
X805240Y31604D01*
X805469Y32560D01*
X805623Y33530D01*
X805700Y34509D01*
X805700Y254509D02*
X805700Y255491D01*
X805623Y256470D01*
X805469Y257441D01*
X805240Y258396D01*
X804936Y259330D01*
X804561Y260237D01*
X804115Y261112D01*
X803601Y261950D01*
X803024Y262745D01*
X802386Y263492D01*
X801692Y264186D01*
X800945Y264824D01*
X800150Y265401D01*
X799312Y265915D01*
X798437Y266361D01*
X797530Y266736D01*
X796596Y267040D01*
X795641Y267269D01*
X794670Y267423D01*
X793691Y267500D01*
X792709Y267500D01*
X791730Y267423D01*
X790760Y267269D01*
X789804Y267040D01*
X788870Y266736D01*
X787963Y266361D01*
X787088Y265915D01*
X786250Y265401D01*
X785455Y264824D01*
X784708Y264186D01*
X784014Y263492D01*
X783376Y262745D01*
X782799Y261950D01*
X782285Y261112D01*
X781839Y260237D01*
X781464Y259330D01*
X781160Y258396D01*
X780931Y257441D01*
X780777Y256470D01*
X780700Y255491D01*
X780700Y254509D01*
X780777Y253530D01*
X780931Y252560D01*
X781160Y251604D01*
X781464Y250670D01*
X781839Y249763D01*
X782285Y248888D01*
X782799Y248050D01*
X783376Y247255D01*
X784014Y246508D01*
X784708Y245814D01*
X785455Y245176D01*
X786250Y244599D01*
X787088Y244085D01*
X787963Y243639D01*
X788870Y243264D01*
X789804Y242960D01*
X790760Y242731D01*
X791730Y242577D01*
X792709Y242500D01*
X793691Y242500D01*
X794670Y242577D01*
X795641Y242731D01*
X796596Y242960D01*
X797530Y243264D01*
X798437Y243639D01*
X799312Y244085D01*
X800150Y244599D01*
X800945Y245176D01*
X801692Y245814D01*
X802386Y246508D01*
X803024Y247255D01*
X803601Y248050D01*
X804115Y248888D01*
X804561Y249763D01*
X804936Y250670D01*
X805240Y251604D01*
X805469Y252560D01*
X805623Y253530D01*
X805700Y254509D01*
X45700Y34509D02*
X45700Y35491D01*
X45623Y36470D01*
X45469Y37441D01*
X45240Y38396D01*
X44936Y39330D01*
X44561Y40237D01*
X44115Y41112D01*
X43601Y41950D01*
X43024Y42745D01*
X42386Y43492D01*
X41692Y44186D01*
X40945Y44824D01*
X40150Y45401D01*
X39312Y45915D01*
X38437Y46361D01*
X37530Y46736D01*
X36596Y47040D01*
X35641Y47269D01*
X34670Y47423D01*
X33691Y47500D01*
X32709Y47500D01*
X31730Y47423D01*
X30760Y47269D01*
X29804Y47040D01*
X28870Y46736D01*
X27963Y46361D01*
X27088Y45915D01*
X26250Y45401D01*
X25455Y44824D01*
X24708Y44186D01*
X24014Y43492D01*
X23376Y42745D01*
X22799Y41950D01*
X22285Y41112D01*
X21839Y40237D01*
X21464Y39330D01*
X21160Y38396D01*
X20931Y37441D01*
X20777Y36470D01*
X20700Y35491D01*
X20700Y34509D01*
X20777Y33530D01*
X20931Y32560D01*
X21160Y31604D01*
X21464Y30670D01*
X21839Y29763D01*
X22285Y28888D01*
X22799Y28050D01*
X23376Y27255D01*
X24014Y26508D01*
X24708Y25814D01*
X25455Y25176D01*
X26250Y24599D01*
X27088Y24085D01*
X27963Y23639D01*
X28870Y23264D01*
X29804Y22960D01*
X30760Y22731D01*
X31730Y22577D01*
X32709Y22500D01*
X33691Y22500D01*
X34670Y22577D01*
X35641Y22731D01*
X36596Y22960D01*
X37530Y23264D01*
X38437Y23639D01*
X39312Y24085D01*
X40150Y24599D01*
X40945Y25176D01*
X41692Y25814D01*
X42386Y26508D01*
X43024Y27255D01*
X43601Y28050D01*
X44115Y28888D01*
X44561Y29763D01*
X44936Y30670D01*
X45240Y31604D01*
X45469Y32560D01*
X45623Y33530D01*
X45700Y34509D01*
X654000Y144607D02*
X654000Y145393D01*
X653932Y146176D01*
X653795Y146950D01*
X653592Y147709D01*
X653323Y148447D01*
X652991Y149160D01*
X652598Y149840D01*
X652147Y150484D01*
X651642Y151086D01*
X651086Y151642D01*
X650484Y152147D01*
X649840Y152598D01*
X649160Y152991D01*
X648447Y153323D01*
X647709Y153592D01*
X646950Y153795D01*
X646176Y153932D01*
X645393Y154000D01*
X644607Y154000D01*
X643824Y153932D01*
X643050Y153795D01*
X642291Y153592D01*
X641553Y153323D01*
X640840Y152991D01*
X640160Y152598D01*
X639516Y152147D01*
X638914Y151642D01*
X638358Y151086D01*
X637853Y150484D01*
X637402Y149840D01*
X637009Y149160D01*
X636677Y148447D01*
X636408Y147709D01*
X636205Y146950D01*
X636069Y146176D01*
X636000Y145393D01*
X636000Y144607D01*
X636069Y143824D01*
X636205Y143050D01*
X636408Y142291D01*
X636677Y141553D01*
X637009Y140840D01*
X637402Y140160D01*
X637853Y139516D01*
X638358Y138914D01*
X638914Y138358D01*
X639516Y137853D01*
X640160Y137402D01*
X640840Y137009D01*
X641553Y136677D01*
X642291Y136408D01*
X643050Y136205D01*
X643824Y136069D01*
X644607Y136000D01*
X645393Y136000D01*
X646176Y136069D01*
X646950Y136205D01*
X647709Y136408D01*
X648447Y136677D01*
X649160Y137009D01*
X649840Y137402D01*
X650484Y137853D01*
X651086Y138358D01*
X651642Y138914D01*
X652147Y139516D01*
X652598Y140160D01*
X652991Y140840D01*
X653323Y141553D01*
X653592Y142291D01*
X653795Y143050D01*
X653932Y143824D01*
X654000Y144607D01*
X189000Y144607D02*
X189000Y145393D01*
X188932Y146176D01*
X188795Y146950D01*
X188592Y147709D01*
X188323Y148447D01*
X187991Y149160D01*
X187598Y149840D01*
X187147Y150484D01*
X186642Y151086D01*
X186086Y151642D01*
X185484Y152147D01*
X184840Y152598D01*
X184160Y152991D01*
X183447Y153323D01*
X182709Y153592D01*
X181950Y153795D01*
X181176Y153932D01*
X180393Y154000D01*
X179607Y154000D01*
X178824Y153932D01*
X178050Y153795D01*
X177291Y153592D01*
X176553Y153323D01*
X175840Y152991D01*
X175160Y152598D01*
X174516Y152147D01*
X173914Y151642D01*
X173358Y151086D01*
X172853Y150484D01*
X172402Y149840D01*
X172009Y149160D01*
X171677Y148447D01*
X171408Y147709D01*
X171205Y146950D01*
X171069Y146176D01*
X171000Y145393D01*
X171000Y144607D01*
X171069Y143824D01*
X171205Y143050D01*
X171408Y142291D01*
X171677Y141553D01*
X172009Y140840D01*
X172402Y140160D01*
X172853Y139516D01*
X173358Y138914D01*
X173914Y138358D01*
X174516Y137853D01*
X175160Y137402D01*
X175840Y137009D01*
X176553Y136677D01*
X177291Y136408D01*
X178050Y136205D01*
X178824Y136069D01*
X179607Y136000D01*
X180393Y136000D01*
X181176Y136069D01*
X181950Y136205D01*
X182709Y136408D01*
X183447Y136677D01*
X184160Y137009D01*
X184840Y137402D01*
X185484Y137853D01*
X186086Y138358D01*
X186642Y138914D01*
X187147Y139516D01*
X187598Y140160D01*
X187991Y140840D01*
X188323Y141553D01*
X188592Y142291D01*
X188795Y143050D01*
X188932Y143824D01*
X189000Y144607D01*
M02*
