G04 EAGLE Gerber X2 export*
%TF.Part,Single*%
%TF.FileFunction,Copper,L1,Top,Mixed*%
%TF.FilePolarity,Positive*%
%TF.GenerationSoftware,Autodesk,EAGLE,9.1.0*%
%TF.CreationDate,2020-08-17T16:38:24Z*%
G75*
%MOMM*%
%FSLAX34Y34*%
%LPD*%
%AMOC8*
5,1,8,0,0,1.08239X$1,22.5*%
G01*
%ADD10R,1.050000X0.600000*%
%ADD11R,1.600000X0.800000*%
%ADD12R,3.000000X2.100000*%
%ADD13C,1.524000*%
%ADD14R,1.160000X1.680000*%
%ADD15C,1.000000*%
%ADD16C,0.800000*%
%ADD17C,1.500000*%
%ADD18C,0.500000*%
%ADD19C,4.000000*%

G36*
X189036Y10178D02*
X189036Y10178D01*
X189173Y10181D01*
X189258Y10198D01*
X189345Y10206D01*
X189477Y10242D01*
X189611Y10269D01*
X189692Y10301D01*
X189776Y10324D01*
X189899Y10383D01*
X190026Y10434D01*
X190100Y10480D01*
X190178Y10517D01*
X190289Y10598D01*
X190405Y10670D01*
X190470Y10728D01*
X190540Y10779D01*
X190635Y10878D01*
X190736Y10970D01*
X190790Y11039D01*
X190850Y11101D01*
X190925Y11215D01*
X191009Y11324D01*
X191049Y11401D01*
X191097Y11473D01*
X191151Y11599D01*
X191214Y11721D01*
X191240Y11804D01*
X191274Y11884D01*
X191305Y12017D01*
X191345Y12148D01*
X191355Y12234D01*
X191375Y12319D01*
X191382Y12455D01*
X191398Y12591D01*
X191393Y12678D01*
X191397Y12765D01*
X191380Y12900D01*
X191371Y13037D01*
X191351Y13122D01*
X191340Y13208D01*
X191298Y13338D01*
X191266Y13471D01*
X191230Y13550D01*
X191204Y13633D01*
X191140Y13754D01*
X191084Y13879D01*
X191036Y13951D01*
X190995Y14028D01*
X190910Y14136D01*
X190833Y14249D01*
X190742Y14350D01*
X190719Y14379D01*
X190701Y14395D01*
X190667Y14432D01*
X189065Y16034D01*
X187999Y18607D01*
X187999Y21393D01*
X189065Y23966D01*
X191034Y25935D01*
X193607Y27001D01*
X321065Y27001D01*
X321251Y27017D01*
X321437Y27029D01*
X321473Y27037D01*
X321510Y27041D01*
X321690Y27090D01*
X321871Y27134D01*
X321905Y27149D01*
X321941Y27159D01*
X322109Y27240D01*
X322279Y27316D01*
X322310Y27336D01*
X322343Y27352D01*
X322494Y27462D01*
X322649Y27567D01*
X322686Y27601D01*
X322705Y27614D01*
X322731Y27641D01*
X322832Y27733D01*
X328832Y33733D01*
X328920Y33838D01*
X329015Y33936D01*
X329063Y34009D01*
X329119Y34076D01*
X329186Y34194D01*
X329262Y34308D01*
X329296Y34388D01*
X329339Y34464D01*
X329385Y34593D01*
X329439Y34719D01*
X329459Y34803D01*
X329488Y34885D01*
X329509Y35021D01*
X329540Y35154D01*
X329544Y35240D01*
X329558Y35326D01*
X329555Y35463D01*
X329562Y35600D01*
X329551Y35686D01*
X329549Y35773D01*
X329522Y35907D01*
X329505Y36043D01*
X329478Y36126D01*
X329461Y36211D01*
X329411Y36338D01*
X329369Y36468D01*
X329328Y36545D01*
X329296Y36626D01*
X329224Y36742D01*
X329160Y36863D01*
X329106Y36931D01*
X329060Y37005D01*
X328968Y37107D01*
X328884Y37214D01*
X328819Y37272D01*
X328760Y37336D01*
X328652Y37420D01*
X328549Y37511D01*
X328475Y37556D01*
X328406Y37609D01*
X328285Y37672D01*
X328168Y37743D01*
X328087Y37774D01*
X328009Y37814D01*
X327879Y37854D01*
X327751Y37903D01*
X327665Y37920D01*
X327582Y37945D01*
X327447Y37961D01*
X327312Y37987D01*
X327176Y37994D01*
X327139Y37998D01*
X327115Y37997D01*
X327065Y37999D01*
X193607Y37999D01*
X191034Y39065D01*
X189065Y41034D01*
X187999Y43607D01*
X187999Y46393D01*
X189065Y48966D01*
X191034Y50935D01*
X193607Y52001D01*
X323065Y52001D01*
X323251Y52017D01*
X323437Y52029D01*
X323473Y52037D01*
X323510Y52041D01*
X323690Y52090D01*
X323871Y52134D01*
X323905Y52149D01*
X323941Y52159D01*
X324109Y52240D01*
X324279Y52316D01*
X324310Y52336D01*
X324343Y52352D01*
X324494Y52462D01*
X324649Y52567D01*
X324686Y52601D01*
X324705Y52614D01*
X324731Y52641D01*
X324832Y52733D01*
X341964Y69864D01*
X344284Y72185D01*
X346857Y73251D01*
X401393Y73251D01*
X403966Y72185D01*
X405935Y70216D01*
X407001Y67643D01*
X407001Y63607D01*
X405935Y61034D01*
X403966Y59065D01*
X401393Y57999D01*
X398607Y57999D01*
X396049Y59059D01*
X395912Y59102D01*
X395779Y59153D01*
X395699Y59168D01*
X395623Y59192D01*
X395481Y59210D01*
X395340Y59237D01*
X395217Y59243D01*
X395179Y59248D01*
X395153Y59246D01*
X395093Y59249D01*
X382024Y59249D01*
X381974Y59245D01*
X381924Y59247D01*
X381752Y59225D01*
X381579Y59209D01*
X381531Y59196D01*
X381481Y59190D01*
X381316Y59137D01*
X381148Y59091D01*
X381103Y59069D01*
X381056Y59054D01*
X380902Y58973D01*
X380746Y58898D01*
X380705Y58868D01*
X380661Y58845D01*
X380524Y58738D01*
X380384Y58636D01*
X380349Y58600D01*
X380310Y58569D01*
X380194Y58439D01*
X380074Y58314D01*
X380047Y58272D01*
X380013Y58234D01*
X379923Y58086D01*
X379827Y57942D01*
X379807Y57896D01*
X379781Y57853D01*
X379719Y57691D01*
X379650Y57531D01*
X379639Y57483D01*
X379621Y57436D01*
X379588Y57265D01*
X379549Y57096D01*
X379546Y57046D01*
X379537Y56997D01*
X379525Y56750D01*
X379525Y49118D01*
X378632Y48225D01*
X375411Y48225D01*
X375225Y48209D01*
X375039Y48197D01*
X375003Y48189D01*
X374966Y48185D01*
X374786Y48136D01*
X374605Y48092D01*
X374571Y48077D01*
X374535Y48067D01*
X374367Y47986D01*
X374208Y47915D01*
X371393Y46749D01*
X362685Y46749D01*
X362499Y46733D01*
X362313Y46721D01*
X362277Y46713D01*
X362240Y46709D01*
X362060Y46660D01*
X361879Y46616D01*
X361845Y46601D01*
X361809Y46591D01*
X361641Y46510D01*
X361471Y46434D01*
X361440Y46414D01*
X361407Y46398D01*
X361256Y46288D01*
X361101Y46183D01*
X361064Y46149D01*
X361045Y46136D01*
X361019Y46109D01*
X360918Y46017D01*
X331286Y16386D01*
X329333Y14432D01*
X329245Y14327D01*
X329150Y14229D01*
X329102Y14156D01*
X329046Y14089D01*
X328979Y13970D01*
X328903Y13857D01*
X328869Y13777D01*
X328826Y13701D01*
X328780Y13572D01*
X328726Y13446D01*
X328706Y13362D01*
X328677Y13280D01*
X328656Y13144D01*
X328625Y13011D01*
X328621Y12925D01*
X328607Y12839D01*
X328610Y12702D01*
X328603Y12565D01*
X328614Y12479D01*
X328616Y12392D01*
X328643Y12258D01*
X328660Y12122D01*
X328687Y12039D01*
X328704Y11954D01*
X328754Y11827D01*
X328796Y11697D01*
X328837Y11620D01*
X328869Y11539D01*
X328941Y11423D01*
X329005Y11302D01*
X329059Y11234D01*
X329105Y11160D01*
X329197Y11058D01*
X329281Y10951D01*
X329346Y10893D01*
X329405Y10829D01*
X329513Y10745D01*
X329616Y10654D01*
X329690Y10609D01*
X329759Y10556D01*
X329880Y10493D01*
X329997Y10422D01*
X330078Y10391D01*
X330156Y10351D01*
X330286Y10311D01*
X330414Y10262D01*
X330500Y10245D01*
X330583Y10220D01*
X330718Y10204D01*
X330853Y10178D01*
X330989Y10171D01*
X331026Y10167D01*
X331050Y10168D01*
X331100Y10166D01*
X493000Y10166D01*
X493050Y10170D01*
X493100Y10168D01*
X493272Y10190D01*
X493445Y10206D01*
X493493Y10219D01*
X493543Y10225D01*
X493708Y10278D01*
X493876Y10324D01*
X493921Y10346D01*
X493968Y10361D01*
X494122Y10442D01*
X494278Y10517D01*
X494319Y10547D01*
X494363Y10570D01*
X494500Y10677D01*
X494640Y10779D01*
X494675Y10815D01*
X494714Y10846D01*
X494830Y10976D01*
X494950Y11101D01*
X494977Y11143D01*
X495011Y11181D01*
X495101Y11329D01*
X495197Y11473D01*
X495217Y11519D01*
X495243Y11562D01*
X495305Y11724D01*
X495374Y11884D01*
X495385Y11932D01*
X495403Y11979D01*
X495436Y12150D01*
X495475Y12319D01*
X495478Y12369D01*
X495487Y12418D01*
X495499Y12665D01*
X495499Y277335D01*
X495495Y277385D01*
X495497Y277435D01*
X495475Y277607D01*
X495459Y277780D01*
X495446Y277828D01*
X495440Y277878D01*
X495387Y278043D01*
X495341Y278211D01*
X495319Y278256D01*
X495304Y278303D01*
X495223Y278457D01*
X495148Y278613D01*
X495118Y278654D01*
X495095Y278698D01*
X494988Y278835D01*
X494886Y278975D01*
X494850Y279010D01*
X494819Y279049D01*
X494689Y279165D01*
X494564Y279285D01*
X494522Y279312D01*
X494484Y279346D01*
X494336Y279436D01*
X494192Y279532D01*
X494146Y279552D01*
X494103Y279578D01*
X493941Y279640D01*
X493781Y279709D01*
X493733Y279720D01*
X493686Y279738D01*
X493515Y279771D01*
X493346Y279810D01*
X493296Y279813D01*
X493247Y279822D01*
X493000Y279834D01*
X30875Y279834D01*
X30717Y279820D01*
X30558Y279814D01*
X30495Y279800D01*
X30430Y279794D01*
X30277Y279752D01*
X30122Y279718D01*
X30062Y279693D01*
X29999Y279676D01*
X29856Y279607D01*
X29710Y279546D01*
X29655Y279511D01*
X29596Y279483D01*
X29468Y279390D01*
X29335Y279304D01*
X29287Y279259D01*
X29234Y279221D01*
X29125Y279106D01*
X29009Y278998D01*
X28970Y278946D01*
X28925Y278899D01*
X28837Y278767D01*
X28743Y278639D01*
X28714Y278581D01*
X28678Y278527D01*
X28615Y278381D01*
X28545Y278239D01*
X28526Y278176D01*
X28501Y278116D01*
X28465Y277962D01*
X28421Y277810D01*
X28414Y277745D01*
X28399Y277681D01*
X28392Y277523D01*
X28375Y277365D01*
X28381Y277300D01*
X28377Y277235D01*
X28398Y277078D01*
X28410Y276920D01*
X28427Y276857D01*
X28435Y276792D01*
X28483Y276641D01*
X28523Y276488D01*
X28551Y276429D01*
X28571Y276367D01*
X28645Y276227D01*
X28712Y276083D01*
X28749Y276030D01*
X28780Y275972D01*
X28878Y275847D01*
X28969Y275718D01*
X29015Y275672D01*
X29056Y275621D01*
X29175Y275516D01*
X29287Y275404D01*
X29364Y275348D01*
X29390Y275324D01*
X29418Y275307D01*
X29486Y275257D01*
X36242Y270742D01*
X41145Y263405D01*
X42867Y254750D01*
X41145Y246095D01*
X36242Y238758D01*
X28905Y233855D01*
X20250Y232133D01*
X11545Y233865D01*
X11477Y233906D01*
X11427Y233925D01*
X11379Y233951D01*
X11218Y234004D01*
X11060Y234065D01*
X11006Y234075D01*
X10955Y234092D01*
X10788Y234116D01*
X10620Y234147D01*
X10567Y234147D01*
X10513Y234155D01*
X10344Y234148D01*
X10174Y234149D01*
X10121Y234140D01*
X10067Y234138D01*
X9901Y234102D01*
X9734Y234072D01*
X9683Y234054D01*
X9631Y234042D01*
X9474Y233977D01*
X9314Y233918D01*
X9268Y233891D01*
X9218Y233870D01*
X9075Y233778D01*
X8929Y233692D01*
X8889Y233657D01*
X8843Y233628D01*
X8719Y233511D01*
X8591Y233401D01*
X8557Y233359D01*
X8517Y233322D01*
X8416Y233186D01*
X8309Y233054D01*
X8283Y233007D01*
X8251Y232963D01*
X8176Y232811D01*
X8094Y232662D01*
X8067Y232591D01*
X8053Y232563D01*
X8043Y232528D01*
X8006Y232431D01*
X7927Y232190D01*
X4978Y228130D01*
X4868Y227946D01*
X4757Y227764D01*
X4754Y227755D01*
X4749Y227747D01*
X4674Y227547D01*
X4597Y227347D01*
X4595Y227338D01*
X4592Y227329D01*
X4554Y227121D01*
X4513Y226908D01*
X4512Y226896D01*
X4511Y226889D01*
X4511Y226871D01*
X4501Y226661D01*
X4501Y204411D01*
X4517Y204225D01*
X4529Y204039D01*
X4537Y204003D01*
X4541Y203966D01*
X4590Y203786D01*
X4634Y203605D01*
X4649Y203571D01*
X4659Y203535D01*
X4740Y203367D01*
X4816Y203197D01*
X4836Y203166D01*
X4852Y203133D01*
X4962Y202982D01*
X5067Y202827D01*
X5101Y202790D01*
X5114Y202771D01*
X5141Y202745D01*
X5233Y202644D01*
X8118Y199758D01*
X9666Y196022D01*
X9666Y194815D01*
X9678Y194679D01*
X9681Y194542D01*
X9698Y194457D01*
X9706Y194370D01*
X9742Y194238D01*
X9769Y194104D01*
X9801Y194023D01*
X9824Y193939D01*
X9883Y193816D01*
X9934Y193689D01*
X9980Y193615D01*
X10017Y193537D01*
X10098Y193426D01*
X10170Y193310D01*
X10228Y193245D01*
X10279Y193175D01*
X10378Y193080D01*
X10470Y192979D01*
X10539Y192925D01*
X10601Y192865D01*
X10715Y192790D01*
X10824Y192706D01*
X10901Y192666D01*
X10973Y192618D01*
X11099Y192564D01*
X11221Y192501D01*
X11304Y192476D01*
X11384Y192441D01*
X11517Y192410D01*
X11648Y192370D01*
X11734Y192360D01*
X11819Y192340D01*
X11955Y192333D01*
X12091Y192317D01*
X12178Y192322D01*
X12265Y192318D01*
X12400Y192335D01*
X12537Y192344D01*
X12622Y192364D01*
X12708Y192375D01*
X12838Y192417D01*
X12971Y192449D01*
X13050Y192485D01*
X13133Y192511D01*
X13254Y192575D01*
X13379Y192631D01*
X13451Y192679D01*
X13528Y192720D01*
X13636Y192805D01*
X13749Y192882D01*
X13850Y192974D01*
X13879Y192996D01*
X13895Y193014D01*
X13932Y193048D01*
X49499Y228614D01*
X51819Y230935D01*
X54392Y232001D01*
X181393Y232001D01*
X183966Y230935D01*
X198614Y216286D01*
X200935Y213966D01*
X202001Y211393D01*
X202001Y190107D01*
X200935Y187534D01*
X198614Y185214D01*
X186036Y172636D01*
X183716Y170315D01*
X181143Y169249D01*
X167040Y169249D01*
X166990Y169245D01*
X166940Y169247D01*
X166768Y169225D01*
X166595Y169209D01*
X166547Y169196D01*
X166497Y169190D01*
X166332Y169137D01*
X166164Y169091D01*
X166119Y169069D01*
X166072Y169054D01*
X165918Y168973D01*
X165762Y168898D01*
X165721Y168868D01*
X165677Y168845D01*
X165540Y168738D01*
X165400Y168636D01*
X165365Y168600D01*
X165326Y168569D01*
X165210Y168439D01*
X165090Y168314D01*
X165063Y168272D01*
X165029Y168234D01*
X164939Y168086D01*
X164843Y167942D01*
X164823Y167896D01*
X164797Y167853D01*
X164735Y167691D01*
X164666Y167531D01*
X164655Y167483D01*
X164637Y167436D01*
X164604Y167265D01*
X164565Y167096D01*
X164562Y167046D01*
X164553Y166997D01*
X164541Y166750D01*
X164541Y166249D01*
X154000Y166249D01*
X143459Y166249D01*
X143459Y168084D01*
X143632Y168731D01*
X144131Y169595D01*
X144155Y169646D01*
X144219Y169751D01*
X144231Y169783D01*
X144249Y169814D01*
X144299Y169957D01*
X144319Y170000D01*
X144329Y170036D01*
X144379Y170168D01*
X144386Y170202D01*
X144397Y170235D01*
X144425Y170407D01*
X144432Y170433D01*
X144434Y170452D01*
X144463Y170606D01*
X144465Y170654D01*
X144469Y170676D01*
X144468Y170712D01*
X144475Y170854D01*
X144475Y180882D01*
X145368Y181775D01*
X148589Y181775D01*
X148775Y181791D01*
X148961Y181803D01*
X148997Y181811D01*
X149034Y181815D01*
X149214Y181864D01*
X149395Y181908D01*
X149429Y181923D01*
X149465Y181933D01*
X149633Y182014D01*
X149792Y182085D01*
X152607Y183251D01*
X175815Y183251D01*
X176001Y183267D01*
X176187Y183279D01*
X176223Y183287D01*
X176260Y183291D01*
X176440Y183340D01*
X176621Y183384D01*
X176655Y183399D01*
X176691Y183409D01*
X176859Y183490D01*
X177029Y183566D01*
X177060Y183586D01*
X177093Y183602D01*
X177245Y183712D01*
X177399Y183817D01*
X177436Y183851D01*
X177455Y183864D01*
X177481Y183891D01*
X177582Y183983D01*
X187267Y193668D01*
X187387Y193811D01*
X187511Y193951D01*
X187530Y193982D01*
X187554Y194011D01*
X187646Y194173D01*
X187743Y194332D01*
X187756Y194367D01*
X187774Y194399D01*
X187836Y194575D01*
X187903Y194749D01*
X187910Y194785D01*
X187923Y194820D01*
X187952Y195005D01*
X187987Y195188D01*
X187990Y195238D01*
X187993Y195261D01*
X187992Y195298D01*
X187999Y195435D01*
X187999Y206065D01*
X187983Y206251D01*
X187971Y206437D01*
X187963Y206473D01*
X187959Y206510D01*
X187910Y206690D01*
X187866Y206871D01*
X187851Y206905D01*
X187841Y206941D01*
X187760Y207109D01*
X187684Y207279D01*
X187664Y207310D01*
X187648Y207343D01*
X187538Y207495D01*
X187433Y207649D01*
X187399Y207686D01*
X187386Y207705D01*
X187359Y207731D01*
X187267Y207832D01*
X177832Y217267D01*
X177689Y217387D01*
X177549Y217511D01*
X177518Y217530D01*
X177489Y217554D01*
X177327Y217646D01*
X177168Y217743D01*
X177133Y217756D01*
X177101Y217774D01*
X176925Y217836D01*
X176751Y217903D01*
X176715Y217910D01*
X176680Y217923D01*
X176495Y217952D01*
X176312Y217987D01*
X176262Y217990D01*
X176239Y217993D01*
X176202Y217992D01*
X176065Y217999D01*
X142441Y217999D01*
X142304Y217987D01*
X142168Y217984D01*
X142083Y217967D01*
X141996Y217959D01*
X141864Y217923D01*
X141730Y217896D01*
X141649Y217864D01*
X141565Y217841D01*
X141442Y217782D01*
X141315Y217731D01*
X141241Y217685D01*
X141162Y217648D01*
X141051Y217567D01*
X140935Y217495D01*
X140871Y217437D01*
X140801Y217386D01*
X140706Y217287D01*
X140604Y217195D01*
X140551Y217126D01*
X140491Y217064D01*
X140415Y216950D01*
X140332Y216841D01*
X140292Y216764D01*
X140244Y216692D01*
X140190Y216566D01*
X140127Y216444D01*
X140101Y216361D01*
X140067Y216281D01*
X140036Y216149D01*
X139996Y216017D01*
X139985Y215931D01*
X139966Y215846D01*
X139959Y215710D01*
X139943Y215574D01*
X139948Y215487D01*
X139943Y215400D01*
X139961Y215265D01*
X139969Y215128D01*
X139990Y215043D01*
X140001Y214957D01*
X140043Y214827D01*
X140075Y214694D01*
X140110Y214614D01*
X140137Y214532D01*
X140201Y214411D01*
X140256Y214286D01*
X140305Y214214D01*
X140346Y214137D01*
X140430Y214029D01*
X140507Y213916D01*
X140599Y213815D01*
X140622Y213786D01*
X140640Y213770D01*
X140674Y213733D01*
X141525Y212882D01*
X141525Y190618D01*
X140632Y189725D01*
X109368Y189725D01*
X108475Y190618D01*
X108475Y212882D01*
X109326Y213733D01*
X109414Y213838D01*
X109509Y213936D01*
X109557Y214009D01*
X109613Y214076D01*
X109680Y214195D01*
X109756Y214308D01*
X109791Y214388D01*
X109834Y214464D01*
X109879Y214593D01*
X109933Y214719D01*
X109953Y214803D01*
X109982Y214885D01*
X110003Y215020D01*
X110034Y215154D01*
X110039Y215240D01*
X110052Y215326D01*
X110050Y215463D01*
X110057Y215600D01*
X110045Y215686D01*
X110044Y215773D01*
X110017Y215907D01*
X109999Y216043D01*
X109972Y216126D01*
X109955Y216211D01*
X109905Y216338D01*
X109863Y216468D01*
X109823Y216545D01*
X109790Y216626D01*
X109718Y216742D01*
X109654Y216863D01*
X109600Y216931D01*
X109554Y217005D01*
X109463Y217107D01*
X109378Y217214D01*
X109313Y217272D01*
X109255Y217336D01*
X109146Y217420D01*
X109044Y217511D01*
X108969Y217556D01*
X108901Y217609D01*
X108779Y217672D01*
X108662Y217743D01*
X108581Y217774D01*
X108504Y217814D01*
X108373Y217854D01*
X108245Y217903D01*
X108160Y217920D01*
X108077Y217945D01*
X107941Y217961D01*
X107806Y217987D01*
X107670Y217994D01*
X107633Y217998D01*
X107610Y217997D01*
X107559Y217999D01*
X59720Y217999D01*
X59534Y217983D01*
X59348Y217971D01*
X59312Y217963D01*
X59275Y217959D01*
X59095Y217910D01*
X58914Y217866D01*
X58880Y217851D01*
X58844Y217841D01*
X58676Y217760D01*
X58506Y217684D01*
X58475Y217664D01*
X58442Y217648D01*
X58291Y217538D01*
X58136Y217433D01*
X58099Y217399D01*
X58080Y217386D01*
X58054Y217359D01*
X57953Y217267D01*
X22733Y182047D01*
X22613Y181904D01*
X22489Y181764D01*
X22470Y181733D01*
X22446Y181704D01*
X22354Y181542D01*
X22257Y181383D01*
X22244Y181348D01*
X22226Y181316D01*
X22164Y181140D01*
X22097Y180966D01*
X22090Y180930D01*
X22077Y180895D01*
X22048Y180710D01*
X22013Y180527D01*
X22010Y180477D01*
X22007Y180454D01*
X22008Y180417D01*
X22001Y180280D01*
X22001Y173353D01*
X22017Y173174D01*
X22027Y172994D01*
X22037Y172952D01*
X22041Y172908D01*
X22089Y172735D01*
X22130Y172560D01*
X22148Y172520D01*
X22159Y172478D01*
X22237Y172315D01*
X22309Y172150D01*
X22333Y172114D01*
X22352Y172075D01*
X22458Y171929D01*
X22558Y171780D01*
X22589Y171748D01*
X22614Y171713D01*
X22744Y171589D01*
X22870Y171459D01*
X22905Y171434D01*
X22936Y171404D01*
X23086Y171304D01*
X23233Y171199D01*
X23272Y171181D01*
X23308Y171156D01*
X23474Y171085D01*
X23637Y171008D01*
X23679Y170997D01*
X23719Y170979D01*
X23893Y170939D01*
X24068Y170892D01*
X24111Y170888D01*
X24154Y170878D01*
X24333Y170869D01*
X24513Y170854D01*
X24556Y170858D01*
X24600Y170856D01*
X24778Y170879D01*
X24958Y170896D01*
X25000Y170908D01*
X25043Y170914D01*
X25215Y170969D01*
X25388Y171017D01*
X25427Y171036D01*
X25468Y171049D01*
X25627Y171134D01*
X25789Y171212D01*
X25825Y171238D01*
X25863Y171259D01*
X26005Y171370D01*
X26150Y171476D01*
X26180Y171508D01*
X26214Y171535D01*
X26334Y171670D01*
X26458Y171800D01*
X26482Y171836D01*
X26511Y171869D01*
X26604Y172023D01*
X26703Y172173D01*
X26729Y172228D01*
X26743Y172251D01*
X26756Y172285D01*
X26809Y172397D01*
X28127Y175580D01*
X30700Y178153D01*
X34061Y179545D01*
X52939Y179545D01*
X56300Y178153D01*
X58873Y175580D01*
X60265Y172219D01*
X60265Y168581D01*
X58873Y165220D01*
X56300Y162647D01*
X52939Y161255D01*
X34061Y161255D01*
X30700Y162647D01*
X28127Y165220D01*
X26809Y168403D01*
X26726Y168562D01*
X26648Y168725D01*
X26622Y168760D01*
X26602Y168799D01*
X26491Y168941D01*
X26386Y169087D01*
X26354Y169117D01*
X26328Y169151D01*
X26193Y169272D01*
X26064Y169396D01*
X26027Y169420D01*
X25995Y169449D01*
X25841Y169544D01*
X25692Y169644D01*
X25652Y169661D01*
X25614Y169684D01*
X25447Y169749D01*
X25281Y169821D01*
X25239Y169830D01*
X25198Y169846D01*
X25021Y169881D01*
X24846Y169922D01*
X24803Y169924D01*
X24760Y169932D01*
X24580Y169935D01*
X24400Y169944D01*
X24357Y169938D01*
X24313Y169939D01*
X24135Y169909D01*
X23957Y169886D01*
X23916Y169873D01*
X23873Y169866D01*
X23703Y169805D01*
X23532Y169751D01*
X23493Y169730D01*
X23452Y169716D01*
X23296Y169626D01*
X23137Y169541D01*
X23103Y169515D01*
X23065Y169493D01*
X22927Y169377D01*
X22786Y169265D01*
X22757Y169233D01*
X22724Y169205D01*
X22609Y169066D01*
X22489Y168931D01*
X22467Y168894D01*
X22439Y168860D01*
X22351Y168703D01*
X22257Y168549D01*
X22242Y168509D01*
X22220Y168471D01*
X22161Y168301D01*
X22097Y168133D01*
X22089Y168090D01*
X22074Y168049D01*
X22047Y167871D01*
X22013Y167694D01*
X22010Y167634D01*
X22006Y167607D01*
X22007Y167570D01*
X22001Y167447D01*
X22001Y147953D01*
X22017Y147774D01*
X22027Y147594D01*
X22037Y147552D01*
X22041Y147508D01*
X22089Y147335D01*
X22130Y147160D01*
X22148Y147120D01*
X22159Y147078D01*
X22237Y146915D01*
X22309Y146750D01*
X22333Y146714D01*
X22352Y146675D01*
X22458Y146529D01*
X22558Y146380D01*
X22589Y146348D01*
X22614Y146313D01*
X22744Y146189D01*
X22870Y146059D01*
X22905Y146034D01*
X22936Y146004D01*
X23086Y145904D01*
X23233Y145799D01*
X23272Y145781D01*
X23308Y145756D01*
X23474Y145685D01*
X23637Y145608D01*
X23679Y145597D01*
X23719Y145579D01*
X23893Y145539D01*
X24068Y145492D01*
X24111Y145488D01*
X24154Y145478D01*
X24333Y145469D01*
X24513Y145454D01*
X24556Y145458D01*
X24600Y145456D01*
X24778Y145479D01*
X24958Y145496D01*
X25000Y145508D01*
X25043Y145514D01*
X25215Y145569D01*
X25388Y145617D01*
X25427Y145636D01*
X25468Y145649D01*
X25627Y145734D01*
X25789Y145812D01*
X25825Y145838D01*
X25863Y145859D01*
X26005Y145970D01*
X26150Y146076D01*
X26180Y146108D01*
X26214Y146135D01*
X26334Y146270D01*
X26458Y146400D01*
X26482Y146436D01*
X26511Y146469D01*
X26604Y146623D01*
X26703Y146773D01*
X26729Y146828D01*
X26743Y146851D01*
X26756Y146885D01*
X26809Y146997D01*
X28127Y150180D01*
X30700Y152753D01*
X34061Y154145D01*
X52939Y154145D01*
X56300Y152753D01*
X56320Y152733D01*
X56463Y152613D01*
X56603Y152489D01*
X56634Y152470D01*
X56663Y152446D01*
X56825Y152354D01*
X56984Y152257D01*
X57019Y152244D01*
X57051Y152226D01*
X57227Y152164D01*
X57401Y152097D01*
X57438Y152090D01*
X57472Y152077D01*
X57657Y152048D01*
X57840Y152013D01*
X57890Y152010D01*
X57914Y152007D01*
X57950Y152008D01*
X58087Y152001D01*
X90143Y152001D01*
X92716Y150935D01*
X95036Y148614D01*
X95037Y148614D01*
X99741Y143910D01*
X99879Y143794D01*
X100013Y143674D01*
X100050Y143651D01*
X100083Y143624D01*
X100240Y143535D01*
X100393Y143440D01*
X100434Y143424D01*
X100472Y143403D01*
X100642Y143343D01*
X100809Y143277D01*
X100852Y143269D01*
X100893Y143255D01*
X101071Y143226D01*
X101248Y143191D01*
X101291Y143191D01*
X101334Y143184D01*
X101514Y143187D01*
X101694Y143185D01*
X101737Y143192D01*
X101781Y143193D01*
X101957Y143228D01*
X102135Y143258D01*
X102176Y143272D01*
X102219Y143281D01*
X102386Y143348D01*
X102556Y143408D01*
X102593Y143430D01*
X102634Y143446D01*
X102787Y143541D01*
X102943Y143631D01*
X102976Y143659D01*
X103013Y143682D01*
X103147Y143803D01*
X103284Y143919D01*
X103312Y143953D01*
X103344Y143982D01*
X103454Y144124D01*
X103569Y144263D01*
X103590Y144302D01*
X103617Y144336D01*
X103699Y144495D01*
X103788Y144653D01*
X103802Y144694D01*
X103822Y144733D01*
X103875Y144905D01*
X103934Y145075D01*
X103940Y145118D01*
X103953Y145160D01*
X103974Y145338D01*
X104002Y145516D01*
X104001Y145560D01*
X104006Y145603D01*
X103995Y145783D01*
X103991Y145963D01*
X103982Y146006D01*
X103979Y146049D01*
X103937Y146224D01*
X103900Y146400D01*
X103880Y146457D01*
X103874Y146483D01*
X103858Y146518D01*
X103817Y146634D01*
X102999Y148607D01*
X102999Y156393D01*
X104065Y158966D01*
X106034Y160935D01*
X108607Y162001D01*
X111393Y162001D01*
X113966Y160935D01*
X115935Y158966D01*
X117001Y156393D01*
X117001Y153935D01*
X117017Y153749D01*
X117029Y153563D01*
X117037Y153527D01*
X117041Y153490D01*
X117090Y153310D01*
X117134Y153129D01*
X117149Y153095D01*
X117159Y153059D01*
X117240Y152891D01*
X117316Y152721D01*
X117336Y152690D01*
X117352Y152657D01*
X117462Y152505D01*
X117567Y152351D01*
X117600Y152314D01*
X117614Y152295D01*
X117641Y152269D01*
X117733Y152168D01*
X118857Y151044D01*
X118995Y150928D01*
X119129Y150808D01*
X119166Y150785D01*
X119200Y150757D01*
X119356Y150668D01*
X119510Y150574D01*
X119550Y150558D01*
X119588Y150537D01*
X119758Y150477D01*
X119926Y150411D01*
X119968Y150403D01*
X120009Y150389D01*
X120187Y150360D01*
X120364Y150325D01*
X120407Y150325D01*
X120450Y150318D01*
X120630Y150321D01*
X120811Y150319D01*
X120854Y150326D01*
X120897Y150327D01*
X121073Y150362D01*
X121251Y150392D01*
X121292Y150406D01*
X121335Y150415D01*
X121502Y150481D01*
X121672Y150542D01*
X121710Y150564D01*
X121750Y150580D01*
X121903Y150675D01*
X122059Y150765D01*
X122092Y150793D01*
X122129Y150816D01*
X122263Y150937D01*
X122400Y151053D01*
X122428Y151087D01*
X122460Y151116D01*
X122570Y151258D01*
X122685Y151397D01*
X122706Y151435D01*
X122733Y151470D01*
X122816Y151630D01*
X122904Y151787D01*
X122918Y151828D01*
X122938Y151867D01*
X122991Y152039D01*
X123050Y152209D01*
X123056Y152252D01*
X123069Y152294D01*
X123090Y152472D01*
X123118Y152650D01*
X123117Y152694D01*
X123122Y152737D01*
X123111Y152917D01*
X123107Y153097D01*
X123098Y153140D01*
X123095Y153183D01*
X123053Y153358D01*
X123016Y153534D01*
X122999Y153582D01*
X122999Y156393D01*
X124065Y158966D01*
X126034Y160935D01*
X128607Y162001D01*
X131393Y162001D01*
X133966Y160935D01*
X135918Y158983D01*
X136061Y158863D01*
X136201Y158739D01*
X136232Y158720D01*
X136261Y158696D01*
X136423Y158604D01*
X136582Y158507D01*
X136617Y158494D01*
X136649Y158476D01*
X136825Y158414D01*
X136999Y158347D01*
X137035Y158340D01*
X137070Y158327D01*
X137255Y158298D01*
X137438Y158263D01*
X137488Y158260D01*
X137511Y158257D01*
X137548Y158258D01*
X137685Y158251D01*
X140960Y158251D01*
X141010Y158255D01*
X141060Y158253D01*
X141232Y158275D01*
X141405Y158291D01*
X141453Y158304D01*
X141503Y158310D01*
X141668Y158363D01*
X141836Y158409D01*
X141881Y158431D01*
X141928Y158446D01*
X142082Y158527D01*
X142238Y158602D01*
X142279Y158632D01*
X142323Y158655D01*
X142459Y158762D01*
X142600Y158864D01*
X142635Y158900D01*
X142674Y158931D01*
X142790Y159061D01*
X142910Y159186D01*
X142937Y159228D01*
X142971Y159266D01*
X143061Y159414D01*
X143157Y159558D01*
X143177Y159604D01*
X143203Y159647D01*
X143265Y159809D01*
X143334Y159969D01*
X143345Y160017D01*
X143363Y160064D01*
X143396Y160235D01*
X143435Y160404D01*
X143438Y160454D01*
X143447Y160503D01*
X143459Y160750D01*
X143459Y161251D01*
X154000Y161251D01*
X164541Y161251D01*
X164541Y159416D01*
X164368Y158769D01*
X163869Y157905D01*
X163845Y157854D01*
X163781Y157749D01*
X163769Y157717D01*
X163751Y157686D01*
X163701Y157543D01*
X163681Y157500D01*
X163671Y157464D01*
X163621Y157332D01*
X163614Y157298D01*
X163603Y157265D01*
X163575Y157093D01*
X163568Y157067D01*
X163566Y157048D01*
X163537Y156894D01*
X163535Y156846D01*
X163531Y156824D01*
X163532Y156788D01*
X163525Y156646D01*
X163525Y146592D01*
X163498Y146558D01*
X163387Y146424D01*
X163363Y146381D01*
X163332Y146341D01*
X163252Y146187D01*
X163166Y146036D01*
X163150Y145989D01*
X163127Y145944D01*
X163076Y145779D01*
X163018Y145615D01*
X163010Y145565D01*
X162996Y145517D01*
X162975Y145345D01*
X162948Y145174D01*
X162949Y145124D01*
X162943Y145074D01*
X162953Y144901D01*
X162956Y144727D01*
X162966Y144678D01*
X162969Y144628D01*
X163010Y144460D01*
X163045Y144289D01*
X163063Y144243D01*
X163075Y144194D01*
X163145Y144036D01*
X163210Y143874D01*
X163236Y143831D01*
X163256Y143786D01*
X163354Y143642D01*
X163446Y143495D01*
X163479Y143458D01*
X163507Y143416D01*
X163525Y143397D01*
X163525Y135750D01*
X163529Y135700D01*
X163527Y135650D01*
X163549Y135478D01*
X163565Y135305D01*
X163578Y135257D01*
X163584Y135207D01*
X163637Y135042D01*
X163683Y134874D01*
X163705Y134829D01*
X163720Y134782D01*
X163801Y134628D01*
X163876Y134472D01*
X163906Y134431D01*
X163929Y134387D01*
X164036Y134250D01*
X164138Y134110D01*
X164174Y134075D01*
X164205Y134036D01*
X164335Y133920D01*
X164460Y133800D01*
X164502Y133773D01*
X164540Y133739D01*
X164688Y133649D01*
X164832Y133553D01*
X164878Y133533D01*
X164921Y133507D01*
X165083Y133445D01*
X165243Y133376D01*
X165291Y133365D01*
X165338Y133347D01*
X165509Y133314D01*
X165678Y133275D01*
X165728Y133272D01*
X165777Y133263D01*
X166024Y133251D01*
X176115Y133251D01*
X176301Y133267D01*
X176487Y133279D01*
X176523Y133287D01*
X176560Y133291D01*
X176741Y133340D01*
X176921Y133384D01*
X176955Y133399D01*
X176991Y133409D01*
X177159Y133490D01*
X177330Y133566D01*
X177360Y133586D01*
X177394Y133602D01*
X177545Y133712D01*
X177699Y133817D01*
X177736Y133851D01*
X177755Y133864D01*
X177781Y133891D01*
X177882Y133983D01*
X179052Y135152D01*
X182911Y136751D01*
X187089Y136751D01*
X190948Y135152D01*
X214868Y111233D01*
X215011Y111113D01*
X215150Y110989D01*
X215182Y110970D01*
X215210Y110946D01*
X215372Y110854D01*
X215532Y110757D01*
X215567Y110744D01*
X215599Y110726D01*
X215775Y110664D01*
X215949Y110597D01*
X215985Y110590D01*
X216020Y110577D01*
X216204Y110548D01*
X216388Y110513D01*
X216438Y110510D01*
X216461Y110507D01*
X216498Y110508D01*
X216635Y110501D01*
X272000Y110501D01*
X272050Y110505D01*
X272100Y110503D01*
X272272Y110525D01*
X272445Y110541D01*
X272493Y110554D01*
X272543Y110560D01*
X272708Y110613D01*
X272876Y110659D01*
X272921Y110681D01*
X272968Y110696D01*
X273122Y110777D01*
X273278Y110852D01*
X273319Y110882D01*
X273363Y110905D01*
X273500Y111012D01*
X273640Y111114D01*
X273675Y111150D01*
X273714Y111181D01*
X273830Y111311D01*
X273950Y111436D01*
X273977Y111478D01*
X274011Y111516D01*
X274101Y111664D01*
X274197Y111808D01*
X274217Y111854D01*
X274243Y111897D01*
X274305Y112059D01*
X274374Y112219D01*
X274385Y112267D01*
X274403Y112314D01*
X274436Y112485D01*
X274475Y112654D01*
X274478Y112704D01*
X274487Y112753D01*
X274499Y113000D01*
X274499Y122089D01*
X276098Y125948D01*
X313552Y163402D01*
X317411Y165001D01*
X339089Y165001D01*
X342948Y163402D01*
X345902Y160448D01*
X347501Y156589D01*
X347501Y154385D01*
X347513Y154248D01*
X347516Y154112D01*
X347533Y154027D01*
X347541Y153940D01*
X347577Y153808D01*
X347604Y153674D01*
X347636Y153593D01*
X347659Y153509D01*
X347718Y153386D01*
X347769Y153259D01*
X347815Y153185D01*
X347852Y153106D01*
X347933Y152995D01*
X348005Y152879D01*
X348063Y152815D01*
X348114Y152745D01*
X348213Y152650D01*
X348305Y152548D01*
X348374Y152495D01*
X348436Y152435D01*
X348550Y152359D01*
X348659Y152276D01*
X348736Y152236D01*
X348808Y152188D01*
X348934Y152134D01*
X349056Y152071D01*
X349139Y152045D01*
X349219Y152011D01*
X349351Y151980D01*
X349483Y151940D01*
X349569Y151929D01*
X349654Y151910D01*
X349790Y151903D01*
X349926Y151887D01*
X350013Y151892D01*
X350100Y151887D01*
X350235Y151905D01*
X350372Y151913D01*
X350457Y151934D01*
X350543Y151945D01*
X350673Y151987D01*
X350806Y152019D01*
X350886Y152054D01*
X350968Y152081D01*
X351089Y152145D01*
X351214Y152200D01*
X351286Y152249D01*
X351363Y152290D01*
X351471Y152374D01*
X351584Y152451D01*
X351685Y152543D01*
X351714Y152566D01*
X351730Y152584D01*
X351767Y152618D01*
X353052Y153902D01*
X356911Y155501D01*
X379381Y155501D01*
X379388Y155501D01*
X379394Y155501D01*
X379611Y155521D01*
X379826Y155541D01*
X379833Y155542D01*
X379839Y155543D01*
X380047Y155601D01*
X380257Y155659D01*
X380263Y155662D01*
X380269Y155664D01*
X380459Y155756D01*
X380660Y155852D01*
X380665Y155856D01*
X380671Y155859D01*
X380843Y155985D01*
X381022Y156114D01*
X381026Y156119D01*
X381031Y156123D01*
X381180Y156279D01*
X381331Y156436D01*
X381335Y156442D01*
X381339Y156447D01*
X381458Y156628D01*
X381578Y156808D01*
X381581Y156814D01*
X381584Y156820D01*
X381690Y157044D01*
X381752Y157193D01*
X387807Y163248D01*
X395718Y166525D01*
X404282Y166525D01*
X412193Y163248D01*
X418248Y157193D01*
X421525Y149282D01*
X421525Y140718D01*
X418248Y132807D01*
X412193Y126752D01*
X404282Y123475D01*
X395718Y123475D01*
X387807Y126752D01*
X381752Y132807D01*
X381690Y132956D01*
X381687Y132962D01*
X381685Y132968D01*
X381585Y133159D01*
X381483Y133352D01*
X381479Y133357D01*
X381476Y133363D01*
X381341Y133535D01*
X381209Y133705D01*
X381204Y133709D01*
X381200Y133714D01*
X381036Y133860D01*
X380876Y134003D01*
X380871Y134006D01*
X380866Y134011D01*
X380680Y134123D01*
X380496Y134237D01*
X380490Y134239D01*
X380484Y134243D01*
X380280Y134322D01*
X380080Y134400D01*
X380074Y134401D01*
X380067Y134403D01*
X379852Y134444D01*
X379642Y134486D01*
X379635Y134486D01*
X379629Y134487D01*
X379381Y134499D01*
X356911Y134499D01*
X353052Y136098D01*
X350098Y139052D01*
X349495Y140506D01*
X349468Y140559D01*
X349447Y140616D01*
X349364Y140757D01*
X349288Y140902D01*
X349251Y140949D01*
X349221Y141001D01*
X349115Y141125D01*
X349014Y141255D01*
X348969Y141295D01*
X348930Y141340D01*
X348803Y141443D01*
X348681Y141553D01*
X348630Y141584D01*
X348583Y141622D01*
X348440Y141701D01*
X348301Y141787D01*
X348245Y141809D01*
X348192Y141838D01*
X348037Y141890D01*
X347885Y141949D01*
X347826Y141961D01*
X347769Y141980D01*
X347607Y142004D01*
X347447Y142035D01*
X347386Y142036D01*
X347327Y142045D01*
X347163Y142040D01*
X347000Y142042D01*
X346941Y142032D01*
X346880Y142030D01*
X346721Y141996D01*
X346559Y141969D01*
X346503Y141949D01*
X346444Y141936D01*
X346293Y141874D01*
X346139Y141819D01*
X346086Y141789D01*
X346031Y141766D01*
X345893Y141677D01*
X345751Y141596D01*
X345705Y141557D01*
X345655Y141525D01*
X345535Y141413D01*
X345410Y141308D01*
X345372Y141261D01*
X345328Y141220D01*
X345230Y141090D01*
X345126Y140964D01*
X345096Y140911D01*
X345060Y140863D01*
X344987Y140717D01*
X344907Y140574D01*
X344887Y140517D01*
X344860Y140463D01*
X344814Y140306D01*
X344761Y140152D01*
X344752Y140092D01*
X344735Y140034D01*
X344718Y139872D01*
X344692Y139710D01*
X344694Y139650D01*
X344688Y139590D01*
X344700Y139428D01*
X344704Y139264D01*
X344716Y139205D01*
X344720Y139145D01*
X344772Y138903D01*
X344791Y138834D01*
X344791Y137999D01*
X337000Y137999D01*
X329209Y137999D01*
X329209Y138834D01*
X329382Y139481D01*
X329827Y140250D01*
X329841Y140281D01*
X329859Y140308D01*
X329935Y140483D01*
X330015Y140656D01*
X330023Y140688D01*
X330036Y140719D01*
X330079Y140903D01*
X330127Y141088D01*
X330130Y141121D01*
X330138Y141154D01*
X330147Y141343D01*
X330161Y141533D01*
X330158Y141567D01*
X330160Y141600D01*
X330135Y141788D01*
X330116Y141978D01*
X330106Y142010D01*
X330102Y142043D01*
X330044Y142224D01*
X329991Y142407D01*
X329977Y142437D01*
X329966Y142468D01*
X329877Y142636D01*
X329793Y142807D01*
X329773Y142834D01*
X329757Y142863D01*
X329639Y143013D01*
X329526Y143165D01*
X329502Y143188D01*
X329481Y143214D01*
X329339Y143341D01*
X329200Y143470D01*
X329172Y143489D01*
X329147Y143511D01*
X328985Y143609D01*
X328825Y143713D01*
X328794Y143725D01*
X328765Y143743D01*
X328588Y143811D01*
X328412Y143884D01*
X328380Y143891D01*
X328348Y143903D01*
X328161Y143939D01*
X327976Y143980D01*
X327942Y143981D01*
X327910Y143987D01*
X327662Y143999D01*
X324885Y143999D01*
X324699Y143983D01*
X324513Y143971D01*
X324477Y143963D01*
X324440Y143959D01*
X324259Y143910D01*
X324079Y143866D01*
X324045Y143851D01*
X324009Y143841D01*
X323841Y143760D01*
X323670Y143684D01*
X323640Y143664D01*
X323606Y143648D01*
X323455Y143538D01*
X323301Y143433D01*
X323264Y143399D01*
X323245Y143386D01*
X323219Y143359D01*
X323118Y143267D01*
X296233Y116382D01*
X296113Y116239D01*
X295989Y116100D01*
X295970Y116068D01*
X295946Y116040D01*
X295854Y115878D01*
X295757Y115718D01*
X295744Y115683D01*
X295726Y115651D01*
X295664Y115475D01*
X295597Y115301D01*
X295590Y115265D01*
X295577Y115230D01*
X295548Y115046D01*
X295513Y114862D01*
X295510Y114812D01*
X295507Y114789D01*
X295508Y114752D01*
X295501Y114615D01*
X295501Y103189D01*
X295514Y103047D01*
X295517Y102904D01*
X295533Y102825D01*
X295541Y102745D01*
X295579Y102606D01*
X295608Y102466D01*
X295649Y102350D01*
X295659Y102314D01*
X295671Y102289D01*
X295691Y102233D01*
X295751Y102089D01*
X295751Y97911D01*
X294152Y94052D01*
X293307Y93206D01*
X293187Y93063D01*
X293063Y92924D01*
X293044Y92892D01*
X293020Y92864D01*
X292928Y92702D01*
X292831Y92542D01*
X292818Y92507D01*
X292800Y92475D01*
X292738Y92299D01*
X292671Y92125D01*
X292664Y92089D01*
X292651Y92054D01*
X292622Y91870D01*
X292587Y91686D01*
X292584Y91636D01*
X292581Y91613D01*
X292582Y91576D01*
X292575Y91439D01*
X292575Y90968D01*
X291682Y90075D01*
X289226Y90075D01*
X289084Y90062D01*
X288941Y90059D01*
X288862Y90043D01*
X288782Y90035D01*
X288643Y89997D01*
X288503Y89968D01*
X288387Y89927D01*
X288351Y89917D01*
X288327Y89905D01*
X288270Y89885D01*
X287339Y89499D01*
X210185Y89499D01*
X210049Y89487D01*
X209912Y89484D01*
X209827Y89467D01*
X209740Y89459D01*
X209608Y89423D01*
X209474Y89396D01*
X209393Y89364D01*
X209309Y89341D01*
X209186Y89282D01*
X209059Y89231D01*
X208985Y89185D01*
X208907Y89148D01*
X208796Y89067D01*
X208680Y88995D01*
X208615Y88937D01*
X208545Y88886D01*
X208450Y88787D01*
X208349Y88695D01*
X208295Y88626D01*
X208235Y88564D01*
X208160Y88450D01*
X208076Y88341D01*
X208036Y88264D01*
X207988Y88192D01*
X207934Y88066D01*
X207871Y87944D01*
X207846Y87861D01*
X207811Y87781D01*
X207780Y87648D01*
X207740Y87517D01*
X207730Y87431D01*
X207710Y87346D01*
X207703Y87210D01*
X207687Y87074D01*
X207692Y86987D01*
X207688Y86900D01*
X207705Y86765D01*
X207714Y86628D01*
X207734Y86543D01*
X207745Y86457D01*
X207787Y86327D01*
X207819Y86194D01*
X207855Y86115D01*
X207881Y86032D01*
X207945Y85911D01*
X208001Y85786D01*
X208049Y85714D01*
X208090Y85637D01*
X208175Y85529D01*
X208252Y85416D01*
X208343Y85315D01*
X208366Y85286D01*
X208384Y85270D01*
X208418Y85233D01*
X215918Y77733D01*
X216061Y77613D01*
X216201Y77489D01*
X216232Y77470D01*
X216261Y77446D01*
X216423Y77354D01*
X216582Y77257D01*
X216617Y77244D01*
X216649Y77226D01*
X216825Y77164D01*
X216999Y77097D01*
X217035Y77090D01*
X217070Y77077D01*
X217255Y77048D01*
X217438Y77013D01*
X217488Y77010D01*
X217511Y77007D01*
X217548Y77008D01*
X217685Y77001D01*
X275426Y77001D01*
X275476Y77005D01*
X275526Y77003D01*
X275698Y77025D01*
X275871Y77041D01*
X275919Y77054D01*
X275969Y77060D01*
X276134Y77113D01*
X276302Y77159D01*
X276347Y77181D01*
X276394Y77196D01*
X276548Y77277D01*
X276704Y77352D01*
X276745Y77382D01*
X276789Y77405D01*
X276926Y77512D01*
X277066Y77614D01*
X277101Y77650D01*
X277140Y77681D01*
X277256Y77811D01*
X277376Y77936D01*
X277403Y77978D01*
X277437Y78016D01*
X277527Y78164D01*
X277623Y78308D01*
X277643Y78354D01*
X277669Y78397D01*
X277731Y78559D01*
X277800Y78719D01*
X277811Y78767D01*
X277829Y78814D01*
X277858Y78964D01*
X278818Y79925D01*
X291682Y79925D01*
X292575Y79032D01*
X292575Y60968D01*
X291682Y60075D01*
X278818Y60075D01*
X277868Y61026D01*
X277866Y61043D01*
X277813Y61208D01*
X277767Y61376D01*
X277745Y61421D01*
X277730Y61468D01*
X277649Y61622D01*
X277574Y61778D01*
X277544Y61819D01*
X277521Y61863D01*
X277414Y62000D01*
X277312Y62140D01*
X277276Y62175D01*
X277245Y62214D01*
X277115Y62330D01*
X276990Y62450D01*
X276948Y62477D01*
X276910Y62511D01*
X276762Y62601D01*
X276618Y62697D01*
X276572Y62717D01*
X276529Y62743D01*
X276367Y62805D01*
X276207Y62874D01*
X276159Y62885D01*
X276112Y62903D01*
X275941Y62936D01*
X275772Y62975D01*
X275722Y62978D01*
X275673Y62987D01*
X275426Y62999D01*
X212357Y62999D01*
X209784Y64065D01*
X167832Y106017D01*
X167689Y106137D01*
X167549Y106261D01*
X167518Y106280D01*
X167489Y106304D01*
X167327Y106396D01*
X167168Y106493D01*
X167133Y106506D01*
X167101Y106524D01*
X166925Y106586D01*
X166751Y106653D01*
X166715Y106660D01*
X166680Y106673D01*
X166495Y106702D01*
X166312Y106737D01*
X166262Y106740D01*
X166239Y106743D01*
X166202Y106742D01*
X166065Y106749D01*
X118607Y106749D01*
X116034Y107815D01*
X86582Y137267D01*
X86439Y137387D01*
X86299Y137511D01*
X86268Y137530D01*
X86239Y137554D01*
X86077Y137646D01*
X85918Y137743D01*
X85883Y137756D01*
X85851Y137774D01*
X85675Y137836D01*
X85501Y137903D01*
X85465Y137910D01*
X85430Y137923D01*
X85245Y137952D01*
X85062Y137987D01*
X85012Y137990D01*
X84989Y137993D01*
X84952Y137992D01*
X84815Y137999D01*
X58087Y137999D01*
X57901Y137983D01*
X57715Y137971D01*
X57679Y137963D01*
X57642Y137959D01*
X57462Y137910D01*
X57281Y137866D01*
X57247Y137851D01*
X57211Y137841D01*
X57043Y137760D01*
X56873Y137684D01*
X56842Y137664D01*
X56809Y137648D01*
X56658Y137538D01*
X56503Y137433D01*
X56466Y137399D01*
X56447Y137386D01*
X56421Y137359D01*
X56320Y137267D01*
X56300Y137247D01*
X52939Y135855D01*
X34061Y135855D01*
X30700Y137247D01*
X28127Y139820D01*
X26809Y143003D01*
X26726Y143162D01*
X26648Y143325D01*
X26622Y143360D01*
X26602Y143399D01*
X26491Y143541D01*
X26386Y143687D01*
X26354Y143717D01*
X26328Y143751D01*
X26193Y143872D01*
X26064Y143996D01*
X26027Y144020D01*
X25995Y144049D01*
X25841Y144144D01*
X25692Y144244D01*
X25652Y144261D01*
X25614Y144284D01*
X25447Y144349D01*
X25281Y144421D01*
X25239Y144430D01*
X25198Y144446D01*
X25021Y144481D01*
X24846Y144522D01*
X24803Y144524D01*
X24760Y144532D01*
X24580Y144535D01*
X24400Y144544D01*
X24357Y144538D01*
X24313Y144539D01*
X24135Y144509D01*
X23957Y144486D01*
X23916Y144473D01*
X23873Y144466D01*
X23703Y144405D01*
X23532Y144351D01*
X23493Y144330D01*
X23452Y144316D01*
X23296Y144226D01*
X23137Y144141D01*
X23103Y144115D01*
X23065Y144093D01*
X22927Y143977D01*
X22786Y143865D01*
X22757Y143833D01*
X22724Y143805D01*
X22609Y143666D01*
X22489Y143531D01*
X22467Y143494D01*
X22439Y143460D01*
X22351Y143303D01*
X22257Y143149D01*
X22242Y143109D01*
X22220Y143071D01*
X22161Y142901D01*
X22097Y142733D01*
X22089Y142690D01*
X22074Y142649D01*
X22047Y142471D01*
X22013Y142294D01*
X22010Y142234D01*
X22006Y142207D01*
X22007Y142170D01*
X22001Y142047D01*
X22001Y138935D01*
X22017Y138749D01*
X22029Y138563D01*
X22037Y138527D01*
X22041Y138490D01*
X22090Y138310D01*
X22134Y138129D01*
X22149Y138095D01*
X22159Y138059D01*
X22240Y137891D01*
X22316Y137721D01*
X22336Y137690D01*
X22352Y137657D01*
X22462Y137506D01*
X22567Y137351D01*
X22601Y137314D01*
X22614Y137295D01*
X22641Y137269D01*
X22733Y137168D01*
X29068Y130833D01*
X29211Y130713D01*
X29351Y130589D01*
X29382Y130570D01*
X29411Y130546D01*
X29573Y130454D01*
X29732Y130357D01*
X29767Y130344D01*
X29799Y130326D01*
X29975Y130264D01*
X30149Y130197D01*
X30185Y130190D01*
X30220Y130177D01*
X30405Y130148D01*
X30588Y130113D01*
X30638Y130110D01*
X30661Y130107D01*
X30698Y130108D01*
X30835Y130101D01*
X45589Y130101D01*
X48403Y128935D01*
X48540Y128892D01*
X48674Y128841D01*
X48753Y128826D01*
X48829Y128802D01*
X48971Y128784D01*
X49112Y128757D01*
X49236Y128751D01*
X49273Y128746D01*
X49300Y128748D01*
X49360Y128745D01*
X52939Y128745D01*
X56300Y127353D01*
X58873Y124780D01*
X60265Y121419D01*
X60265Y117781D01*
X58873Y114420D01*
X56300Y111847D01*
X52939Y110455D01*
X49360Y110455D01*
X49217Y110442D01*
X49074Y110439D01*
X48995Y110423D01*
X48915Y110415D01*
X48776Y110377D01*
X48636Y110348D01*
X48520Y110307D01*
X48484Y110297D01*
X48460Y110285D01*
X48403Y110265D01*
X45589Y109099D01*
X28311Y109099D01*
X24452Y110698D01*
X21498Y113652D01*
X19899Y117511D01*
X19899Y119165D01*
X19883Y119351D01*
X19871Y119537D01*
X19863Y119573D01*
X19859Y119610D01*
X19810Y119790D01*
X19766Y119971D01*
X19751Y120005D01*
X19741Y120041D01*
X19660Y120209D01*
X19584Y120379D01*
X19564Y120410D01*
X19548Y120443D01*
X19438Y120594D01*
X19333Y120749D01*
X19299Y120786D01*
X19286Y120805D01*
X19259Y120831D01*
X19167Y120932D01*
X12602Y127497D01*
X12464Y127613D01*
X12330Y127733D01*
X12293Y127756D01*
X12259Y127784D01*
X12103Y127872D01*
X11950Y127967D01*
X11909Y127983D01*
X11871Y128004D01*
X11701Y128064D01*
X11533Y128130D01*
X11491Y128138D01*
X11450Y128152D01*
X11272Y128181D01*
X11095Y128216D01*
X11052Y128216D01*
X11009Y128223D01*
X10829Y128220D01*
X10649Y128222D01*
X10605Y128215D01*
X10562Y128214D01*
X10386Y128179D01*
X10208Y128149D01*
X10167Y128135D01*
X10124Y128126D01*
X9957Y128060D01*
X9787Y127999D01*
X9749Y127977D01*
X9709Y127961D01*
X9556Y127866D01*
X9400Y127776D01*
X9367Y127748D01*
X9330Y127725D01*
X9197Y127605D01*
X9059Y127488D01*
X9031Y127454D01*
X8999Y127425D01*
X8889Y127283D01*
X8774Y127144D01*
X8753Y127106D01*
X8726Y127071D01*
X8644Y126912D01*
X8555Y126754D01*
X8541Y126713D01*
X8521Y126674D01*
X8468Y126503D01*
X8409Y126332D01*
X8403Y126289D01*
X8390Y126247D01*
X8369Y126069D01*
X8341Y125891D01*
X8342Y125847D01*
X8337Y125804D01*
X8348Y125624D01*
X8352Y125444D01*
X8361Y125401D01*
X8364Y125358D01*
X8406Y125183D01*
X8443Y125007D01*
X8463Y124950D01*
X8469Y124924D01*
X8484Y124890D01*
X8526Y124774D01*
X9666Y122022D01*
X9666Y93978D01*
X8118Y90242D01*
X5233Y87356D01*
X5113Y87213D01*
X4989Y87073D01*
X4970Y87042D01*
X4946Y87013D01*
X4854Y86851D01*
X4757Y86692D01*
X4744Y86657D01*
X4726Y86625D01*
X4664Y86449D01*
X4597Y86275D01*
X4590Y86239D01*
X4578Y86204D01*
X4548Y86019D01*
X4513Y85836D01*
X4511Y85786D01*
X4507Y85763D01*
X4508Y85726D01*
X4501Y85589D01*
X4501Y63339D01*
X4520Y63125D01*
X4537Y62913D01*
X4540Y62904D01*
X4541Y62894D01*
X4597Y62687D01*
X4653Y62481D01*
X4657Y62472D01*
X4659Y62463D01*
X4752Y62270D01*
X4843Y62077D01*
X4849Y62067D01*
X4852Y62060D01*
X4863Y62045D01*
X4978Y61870D01*
X7927Y57810D01*
X8139Y57158D01*
X8206Y57002D01*
X8266Y56842D01*
X8294Y56796D01*
X8315Y56747D01*
X8408Y56606D01*
X8496Y56459D01*
X8531Y56419D01*
X8561Y56374D01*
X8678Y56251D01*
X8790Y56123D01*
X8832Y56090D01*
X8869Y56051D01*
X9006Y55951D01*
X9139Y55845D01*
X9187Y55819D01*
X9230Y55788D01*
X9382Y55714D01*
X9532Y55633D01*
X9584Y55616D01*
X9632Y55593D01*
X9795Y55547D01*
X9957Y55494D01*
X10010Y55487D01*
X10062Y55473D01*
X10231Y55457D01*
X10400Y55434D01*
X10453Y55436D01*
X10507Y55431D01*
X10676Y55446D01*
X10846Y55453D01*
X10898Y55465D01*
X10952Y55469D01*
X11116Y55514D01*
X11282Y55551D01*
X11331Y55572D01*
X11383Y55586D01*
X11444Y55615D01*
X20250Y57367D01*
X28905Y55645D01*
X36242Y50742D01*
X41145Y43405D01*
X42867Y34750D01*
X41145Y26095D01*
X36242Y18758D01*
X30234Y14743D01*
X30111Y14644D01*
X29983Y14551D01*
X29937Y14504D01*
X29887Y14463D01*
X29783Y14343D01*
X29673Y14229D01*
X29637Y14174D01*
X29594Y14125D01*
X29514Y13988D01*
X29426Y13857D01*
X29400Y13797D01*
X29367Y13740D01*
X29312Y13592D01*
X29249Y13446D01*
X29234Y13383D01*
X29211Y13322D01*
X29184Y13166D01*
X29148Y13011D01*
X29145Y12946D01*
X29133Y12882D01*
X29133Y12723D01*
X29126Y12565D01*
X29134Y12500D01*
X29134Y12435D01*
X29163Y12279D01*
X29183Y12122D01*
X29203Y12060D01*
X29215Y11996D01*
X29271Y11847D01*
X29319Y11697D01*
X29349Y11639D01*
X29372Y11578D01*
X29454Y11442D01*
X29528Y11302D01*
X29568Y11251D01*
X29602Y11195D01*
X29706Y11075D01*
X29804Y10951D01*
X29853Y10907D01*
X29896Y10858D01*
X30020Y10759D01*
X30138Y10654D01*
X30194Y10620D01*
X30245Y10580D01*
X30385Y10504D01*
X30520Y10422D01*
X30581Y10399D01*
X30638Y10368D01*
X30789Y10319D01*
X30937Y10262D01*
X31001Y10249D01*
X31063Y10229D01*
X31220Y10208D01*
X31376Y10178D01*
X31471Y10173D01*
X31506Y10168D01*
X31539Y10170D01*
X31623Y10166D01*
X188900Y10166D01*
X189036Y10178D01*
G37*
%LPC*%
G36*
X245718Y123475D02*
X245718Y123475D01*
X237807Y126752D01*
X231752Y132807D01*
X228475Y140718D01*
X228475Y149282D01*
X231752Y157193D01*
X237807Y163248D01*
X245718Y166525D01*
X254282Y166525D01*
X262193Y163248D01*
X268248Y157193D01*
X271525Y149282D01*
X271525Y140718D01*
X268248Y132807D01*
X262193Y126752D01*
X254282Y123475D01*
X245718Y123475D01*
G37*
%LPD*%
%LPC*%
G36*
X383368Y79725D02*
X383368Y79725D01*
X382475Y80618D01*
X382475Y102882D01*
X383368Y103775D01*
X414632Y103775D01*
X415525Y102882D01*
X415525Y80618D01*
X414632Y79725D01*
X383368Y79725D01*
G37*
%LPD*%
%LPC*%
G36*
X109368Y76225D02*
X109368Y76225D01*
X108475Y77118D01*
X108475Y99382D01*
X109368Y100275D01*
X140632Y100275D01*
X141525Y99382D01*
X141525Y77118D01*
X140632Y76225D01*
X109368Y76225D01*
G37*
%LPD*%
%LPC*%
G36*
X383368Y16225D02*
X383368Y16225D01*
X382475Y17118D01*
X382475Y39382D01*
X383368Y40275D01*
X414632Y40275D01*
X415525Y39382D01*
X415525Y17118D01*
X414632Y16225D01*
X383368Y16225D01*
G37*
%LPD*%
%LPC*%
G36*
X317649Y102899D02*
X317649Y102899D01*
X317649Y110941D01*
X320884Y110941D01*
X321531Y110768D01*
X322110Y110433D01*
X322583Y109960D01*
X322918Y109381D01*
X323091Y108734D01*
X323091Y102899D01*
X317649Y102899D01*
G37*
%LPD*%
%LPC*%
G36*
X317649Y72899D02*
X317649Y72899D01*
X317649Y80941D01*
X320884Y80941D01*
X321531Y80768D01*
X322110Y80433D01*
X322583Y79960D01*
X322918Y79381D01*
X323091Y78734D01*
X323091Y72899D01*
X317649Y72899D01*
G37*
%LPD*%
%LPC*%
G36*
X306409Y102899D02*
X306409Y102899D01*
X306409Y108734D01*
X306582Y109381D01*
X306917Y109960D01*
X307390Y110433D01*
X307969Y110768D01*
X308616Y110941D01*
X311851Y110941D01*
X311851Y102899D01*
X306409Y102899D01*
G37*
%LPD*%
%LPC*%
G36*
X306409Y72899D02*
X306409Y72899D01*
X306409Y78734D01*
X306582Y79381D01*
X306917Y79960D01*
X307390Y80433D01*
X307969Y80768D01*
X308616Y80941D01*
X311851Y80941D01*
X311851Y72899D01*
X306409Y72899D01*
G37*
%LPD*%
%LPC*%
G36*
X317649Y89059D02*
X317649Y89059D01*
X317649Y97101D01*
X323091Y97101D01*
X323091Y91266D01*
X322918Y90619D01*
X322583Y90040D01*
X322110Y89567D01*
X321531Y89232D01*
X320884Y89059D01*
X317649Y89059D01*
G37*
%LPD*%
%LPC*%
G36*
X317649Y59059D02*
X317649Y59059D01*
X317649Y67101D01*
X323091Y67101D01*
X323091Y61266D01*
X322918Y60619D01*
X322583Y60040D01*
X322110Y59567D01*
X321531Y59232D01*
X320884Y59059D01*
X317649Y59059D01*
G37*
%LPD*%
%LPC*%
G36*
X308616Y89059D02*
X308616Y89059D01*
X307969Y89232D01*
X307390Y89567D01*
X306917Y90040D01*
X306582Y90619D01*
X306409Y91266D01*
X306409Y97101D01*
X311851Y97101D01*
X311851Y89059D01*
X308616Y89059D01*
G37*
%LPD*%
%LPC*%
G36*
X308616Y59059D02*
X308616Y59059D01*
X307969Y59232D01*
X307390Y59567D01*
X306917Y60040D01*
X306582Y60619D01*
X306409Y61266D01*
X306409Y67101D01*
X311851Y67101D01*
X311851Y59059D01*
X308616Y59059D01*
G37*
%LPD*%
%LPC*%
G36*
X339499Y129959D02*
X339499Y129959D01*
X339499Y133001D01*
X344791Y133001D01*
X344791Y132166D01*
X344618Y131519D01*
X344283Y130940D01*
X343810Y130467D01*
X343231Y130132D01*
X342584Y129959D01*
X339499Y129959D01*
G37*
%LPD*%
%LPC*%
G36*
X331416Y129959D02*
X331416Y129959D01*
X330769Y130132D01*
X330190Y130467D01*
X329717Y130940D01*
X329382Y131519D01*
X329209Y132166D01*
X329209Y133001D01*
X334501Y133001D01*
X334501Y129959D01*
X331416Y129959D01*
G37*
%LPD*%
D10*
X337000Y154500D03*
X337000Y135500D03*
X359000Y145000D03*
D11*
X370000Y53750D03*
X370000Y66250D03*
D12*
X399000Y28250D03*
X399000Y91750D03*
D13*
X51120Y119600D02*
X35880Y119600D01*
X35880Y145000D02*
X51120Y145000D01*
X51120Y170400D02*
X35880Y170400D01*
D14*
X285250Y100000D03*
X314750Y100000D03*
D11*
X154000Y176250D03*
X154000Y163750D03*
X154000Y151250D03*
X154000Y138750D03*
X154000Y126250D03*
X154000Y113750D03*
D12*
X125000Y201750D03*
X125000Y88250D03*
D14*
X314750Y70000D03*
X285250Y70000D03*
D15*
X195000Y245000D03*
D16*
X154000Y113750D02*
X120000Y113750D01*
X88750Y145000D01*
X43500Y145000D01*
X154000Y113750D02*
X170000Y113750D01*
X213750Y70000D01*
X285250Y70000D01*
X185000Y126250D02*
X154000Y126250D01*
D17*
X285000Y120000D02*
X285000Y100250D01*
D18*
X285250Y100000D01*
D17*
X319500Y154500D02*
X337000Y154500D01*
X319500Y154500D02*
X285000Y120000D01*
X211250Y100000D02*
X185000Y126250D01*
X211250Y100000D02*
X285250Y100000D01*
D19*
X400000Y145000D03*
D17*
X359000Y145000D01*
D16*
X179750Y176250D02*
X154000Y176250D01*
D19*
X250000Y145000D03*
D15*
X195000Y210000D03*
D16*
X15000Y184215D02*
X15000Y135000D01*
D17*
X30400Y119600D02*
X43500Y119600D01*
D16*
X30400Y119600D02*
X15000Y135000D01*
X15000Y184215D02*
X55785Y225000D01*
X180000Y225000D01*
X195000Y210000D01*
X195000Y191500D02*
X179750Y176250D01*
X195000Y191500D02*
X195000Y210000D01*
X348250Y66250D02*
X327000Y45000D01*
X348250Y66250D02*
X370000Y66250D01*
D15*
X400000Y65000D03*
D16*
X400000Y66250D02*
X370000Y66250D01*
X400000Y66250D02*
X400000Y65000D01*
D15*
X130000Y155000D03*
D16*
X133750Y151250D02*
X154000Y151250D01*
X133750Y151250D02*
X130000Y155000D01*
D15*
X195000Y45000D03*
D16*
X327000Y45000D01*
X358750Y53750D02*
X370000Y53750D01*
X358750Y53750D02*
X325000Y20000D01*
D15*
X110000Y155000D03*
D16*
X195000Y20000D02*
X325000Y20000D01*
D15*
X195000Y20000D03*
D16*
X154000Y138750D02*
X121250Y138750D01*
X110000Y150000D01*
X110000Y155000D01*
M02*
