G04 EAGLE Gerber X2 export*
%TF.Part,Single*%
%TF.FileFunction,Copper,L2,Bot,Mixed*%
%TF.FilePolarity,Positive*%
%TF.GenerationSoftware,Autodesk,EAGLE,9.1.0*%
%TF.CreationDate,2020-08-17T16:38:24Z*%
G75*
%MOMM*%
%FSLAX34Y34*%
%LPD*%
%AMOC8*
5,1,8,0,0,1.08239X$1,22.5*%
G01*
%ADD10R,1.400000X0.450000*%
%ADD11C,1.524000*%
%ADD12C,0.500000*%
%ADD13C,1.000000*%
%ADD14C,4.000000*%
%ADD15C,1.500000*%
%ADD16C,0.800000*%
%ADD17C,0.600000*%

G36*
X494050Y10170D02*
X494050Y10170D01*
X494100Y10168D01*
X494272Y10190D01*
X494445Y10206D01*
X494493Y10219D01*
X494543Y10225D01*
X494708Y10278D01*
X494876Y10324D01*
X494921Y10346D01*
X494968Y10361D01*
X495122Y10442D01*
X495278Y10517D01*
X495319Y10547D01*
X495363Y10570D01*
X495500Y10677D01*
X495640Y10779D01*
X495675Y10815D01*
X495714Y10846D01*
X495830Y10976D01*
X495950Y11101D01*
X495977Y11143D01*
X496011Y11181D01*
X496101Y11329D01*
X496197Y11473D01*
X496217Y11519D01*
X496243Y11562D01*
X496305Y11724D01*
X496374Y11884D01*
X496385Y11932D01*
X496403Y11979D01*
X496436Y12150D01*
X496475Y12319D01*
X496478Y12369D01*
X496487Y12418D01*
X496499Y12665D01*
X496499Y277335D01*
X496495Y277385D01*
X496497Y277435D01*
X496475Y277607D01*
X496459Y277780D01*
X496446Y277828D01*
X496440Y277878D01*
X496387Y278043D01*
X496341Y278211D01*
X496319Y278256D01*
X496304Y278303D01*
X496223Y278457D01*
X496148Y278613D01*
X496118Y278654D01*
X496095Y278698D01*
X495988Y278835D01*
X495886Y278975D01*
X495850Y279010D01*
X495819Y279049D01*
X495689Y279165D01*
X495564Y279285D01*
X495522Y279312D01*
X495484Y279346D01*
X495336Y279436D01*
X495192Y279532D01*
X495146Y279552D01*
X495103Y279578D01*
X494941Y279640D01*
X494781Y279709D01*
X494733Y279720D01*
X494686Y279738D01*
X494515Y279771D01*
X494346Y279810D01*
X494296Y279813D01*
X494247Y279822D01*
X494000Y279834D01*
X431100Y279834D01*
X430964Y279822D01*
X430827Y279819D01*
X430742Y279802D01*
X430655Y279794D01*
X430523Y279758D01*
X430389Y279731D01*
X430308Y279699D01*
X430224Y279676D01*
X430101Y279617D01*
X429974Y279566D01*
X429900Y279520D01*
X429822Y279483D01*
X429711Y279402D01*
X429595Y279330D01*
X429530Y279272D01*
X429460Y279221D01*
X429365Y279122D01*
X429264Y279030D01*
X429210Y278961D01*
X429150Y278899D01*
X429075Y278785D01*
X428991Y278676D01*
X428951Y278599D01*
X428903Y278527D01*
X428849Y278401D01*
X428786Y278279D01*
X428761Y278196D01*
X428726Y278116D01*
X428695Y277983D01*
X428655Y277852D01*
X428645Y277766D01*
X428625Y277681D01*
X428618Y277545D01*
X428602Y277409D01*
X428607Y277322D01*
X428603Y277235D01*
X428620Y277100D01*
X428629Y276963D01*
X428649Y276878D01*
X428660Y276792D01*
X428702Y276662D01*
X428734Y276529D01*
X428770Y276449D01*
X428796Y276367D01*
X428860Y276246D01*
X428916Y276121D01*
X428964Y276049D01*
X429005Y275972D01*
X429090Y275864D01*
X429167Y275751D01*
X429259Y275650D01*
X429281Y275621D01*
X429299Y275605D01*
X429333Y275568D01*
X448614Y256286D01*
X450935Y253966D01*
X452001Y251393D01*
X452001Y218357D01*
X450935Y215784D01*
X448966Y213815D01*
X446159Y212653D01*
X446008Y212616D01*
X445974Y212601D01*
X445938Y212591D01*
X445770Y212510D01*
X445599Y212434D01*
X445569Y212414D01*
X445535Y212398D01*
X445384Y212288D01*
X445230Y212183D01*
X445192Y212149D01*
X445173Y212136D01*
X445148Y212109D01*
X445046Y212017D01*
X441296Y208267D01*
X441264Y208229D01*
X441227Y208195D01*
X441121Y208058D01*
X441010Y207924D01*
X440985Y207881D01*
X440955Y207841D01*
X440875Y207687D01*
X440789Y207536D01*
X440773Y207489D01*
X440750Y207444D01*
X440699Y207279D01*
X440641Y207115D01*
X440633Y207065D01*
X440619Y207017D01*
X440598Y206845D01*
X440570Y206674D01*
X440571Y206623D01*
X440566Y206574D01*
X440576Y206400D01*
X440579Y206227D01*
X440589Y206178D01*
X440592Y206128D01*
X440633Y205959D01*
X440668Y205789D01*
X440686Y205743D01*
X440698Y205694D01*
X440768Y205535D01*
X440832Y205374D01*
X440859Y205331D01*
X440879Y205286D01*
X440977Y205142D01*
X441069Y204995D01*
X441102Y204958D01*
X441130Y204916D01*
X441296Y204733D01*
X445046Y200983D01*
X445190Y200863D01*
X445329Y200739D01*
X445361Y200720D01*
X445389Y200696D01*
X445552Y200604D01*
X445711Y200507D01*
X445745Y200494D01*
X445778Y200476D01*
X445953Y200414D01*
X446128Y200347D01*
X446164Y200340D01*
X446199Y200327D01*
X446212Y200325D01*
X448966Y199185D01*
X450935Y197216D01*
X452001Y194643D01*
X452001Y78607D01*
X450935Y76034D01*
X433966Y59065D01*
X431393Y57999D01*
X398607Y57999D01*
X396034Y59065D01*
X394065Y61034D01*
X392999Y63607D01*
X392999Y66393D01*
X394065Y68966D01*
X396034Y70935D01*
X398607Y72001D01*
X426065Y72001D01*
X426251Y72017D01*
X426437Y72029D01*
X426473Y72037D01*
X426510Y72041D01*
X426690Y72090D01*
X426871Y72134D01*
X426905Y72149D01*
X426941Y72159D01*
X427109Y72240D01*
X427279Y72316D01*
X427310Y72336D01*
X427343Y72352D01*
X427494Y72462D01*
X427649Y72567D01*
X427686Y72601D01*
X427705Y72614D01*
X427731Y72641D01*
X427832Y72733D01*
X437267Y82168D01*
X437387Y82311D01*
X437511Y82451D01*
X437530Y82482D01*
X437554Y82511D01*
X437646Y82673D01*
X437743Y82832D01*
X437756Y82867D01*
X437774Y82899D01*
X437836Y83075D01*
X437903Y83249D01*
X437910Y83285D01*
X437923Y83320D01*
X437952Y83505D01*
X437987Y83688D01*
X437990Y83738D01*
X437993Y83761D01*
X437992Y83798D01*
X437999Y83935D01*
X437999Y191436D01*
X437983Y191622D01*
X437971Y191808D01*
X437963Y191844D01*
X437959Y191881D01*
X437910Y192061D01*
X437866Y192242D01*
X437851Y192276D01*
X437841Y192312D01*
X437760Y192480D01*
X437684Y192651D01*
X437664Y192681D01*
X437648Y192715D01*
X437538Y192866D01*
X437433Y193020D01*
X437400Y193057D01*
X437386Y193077D01*
X437359Y193102D01*
X437267Y193204D01*
X435807Y194664D01*
X435702Y194751D01*
X435604Y194846D01*
X435531Y194894D01*
X435464Y194950D01*
X435345Y195018D01*
X435232Y195093D01*
X435152Y195128D01*
X435076Y195171D01*
X434947Y195216D01*
X434821Y195270D01*
X434737Y195290D01*
X434655Y195319D01*
X434520Y195341D01*
X434386Y195371D01*
X434300Y195376D01*
X434214Y195390D01*
X434077Y195387D01*
X433940Y195394D01*
X433854Y195382D01*
X433767Y195381D01*
X433633Y195354D01*
X433497Y195336D01*
X433414Y195310D01*
X433329Y195292D01*
X433202Y195242D01*
X433072Y195200D01*
X432995Y195160D01*
X432914Y195128D01*
X432798Y195055D01*
X432677Y194991D01*
X432609Y194937D01*
X432535Y194891D01*
X432433Y194800D01*
X432326Y194715D01*
X432268Y194650D01*
X432204Y194592D01*
X432120Y194483D01*
X432029Y194381D01*
X431984Y194307D01*
X431931Y194238D01*
X431868Y194116D01*
X431797Y193999D01*
X431766Y193918D01*
X431726Y193841D01*
X431686Y193710D01*
X431637Y193582D01*
X431620Y193497D01*
X431595Y193414D01*
X431579Y193278D01*
X431553Y193144D01*
X431546Y193007D01*
X431542Y192970D01*
X431543Y192947D01*
X431541Y192896D01*
X431541Y192749D01*
X422000Y192749D01*
X412459Y192749D01*
X412459Y192834D01*
X412632Y193481D01*
X412932Y194000D01*
X412946Y194031D01*
X412965Y194058D01*
X413040Y194233D01*
X413120Y194406D01*
X413129Y194438D01*
X413142Y194469D01*
X413185Y194653D01*
X413233Y194838D01*
X413236Y194871D01*
X413243Y194904D01*
X413253Y195093D01*
X413267Y195283D01*
X413264Y195317D01*
X413265Y195350D01*
X413241Y195537D01*
X413221Y195728D01*
X413212Y195760D01*
X413208Y195793D01*
X413150Y195974D01*
X413097Y196157D01*
X413082Y196187D01*
X413072Y196218D01*
X412983Y196386D01*
X412898Y196557D01*
X412879Y196584D01*
X412863Y196613D01*
X412746Y196762D01*
X412632Y196915D01*
X412607Y196938D01*
X412587Y196964D01*
X412445Y197090D01*
X412306Y197220D01*
X412278Y197238D01*
X412253Y197261D01*
X412090Y197360D01*
X411930Y197463D01*
X411899Y197475D01*
X411871Y197493D01*
X411693Y197561D01*
X411518Y197634D01*
X411485Y197641D01*
X411454Y197653D01*
X411267Y197689D01*
X411081Y197730D01*
X411048Y197731D01*
X411015Y197737D01*
X410768Y197749D01*
X408906Y197749D01*
X406884Y198587D01*
X395337Y210134D01*
X394499Y212156D01*
X394499Y241686D01*
X394483Y241872D01*
X394471Y242058D01*
X394463Y242094D01*
X394459Y242131D01*
X394410Y242312D01*
X394366Y242492D01*
X394351Y242526D01*
X394341Y242562D01*
X394260Y242730D01*
X394184Y242901D01*
X394164Y242931D01*
X394148Y242965D01*
X394038Y243116D01*
X393933Y243270D01*
X393899Y243308D01*
X393886Y243327D01*
X393859Y243352D01*
X393767Y243454D01*
X388454Y248767D01*
X388310Y248887D01*
X388171Y249011D01*
X388139Y249030D01*
X388111Y249054D01*
X387949Y249146D01*
X387789Y249243D01*
X387755Y249256D01*
X387722Y249274D01*
X387546Y249336D01*
X387372Y249403D01*
X387336Y249410D01*
X387301Y249423D01*
X387117Y249452D01*
X386933Y249487D01*
X386883Y249490D01*
X386860Y249493D01*
X386823Y249492D01*
X386686Y249499D01*
X320314Y249499D01*
X320128Y249483D01*
X319942Y249471D01*
X319906Y249463D01*
X319869Y249459D01*
X319688Y249410D01*
X319508Y249366D01*
X319474Y249351D01*
X319438Y249341D01*
X319270Y249260D01*
X319099Y249184D01*
X319069Y249164D01*
X319035Y249148D01*
X318884Y249038D01*
X318730Y248933D01*
X318692Y248899D01*
X318673Y248886D01*
X318648Y248859D01*
X318546Y248767D01*
X313233Y243454D01*
X313113Y243310D01*
X312989Y243171D01*
X312970Y243139D01*
X312946Y243111D01*
X312854Y242949D01*
X312757Y242789D01*
X312744Y242755D01*
X312726Y242722D01*
X312664Y242546D01*
X312597Y242372D01*
X312590Y242336D01*
X312577Y242301D01*
X312548Y242117D01*
X312513Y241933D01*
X312510Y241883D01*
X312507Y241860D01*
X312508Y241823D01*
X312501Y241686D01*
X312501Y209156D01*
X311663Y207134D01*
X309764Y205235D01*
X305015Y200486D01*
X303116Y198587D01*
X301094Y197749D01*
X283232Y197749D01*
X283199Y197746D01*
X283165Y197748D01*
X282976Y197726D01*
X282787Y197709D01*
X282755Y197701D01*
X282722Y197697D01*
X282540Y197641D01*
X282356Y197591D01*
X282326Y197576D01*
X282294Y197567D01*
X282126Y197480D01*
X281954Y197398D01*
X281926Y197378D01*
X281897Y197363D01*
X281746Y197247D01*
X281592Y197136D01*
X281569Y197112D01*
X281542Y197091D01*
X281414Y196951D01*
X281282Y196814D01*
X281264Y196786D01*
X281241Y196761D01*
X281140Y196600D01*
X281035Y196442D01*
X281022Y196411D01*
X281004Y196383D01*
X280933Y196206D01*
X280858Y196031D01*
X280850Y195999D01*
X280838Y195968D01*
X280800Y195781D01*
X280757Y195596D01*
X280755Y195563D01*
X280748Y195530D01*
X280744Y195340D01*
X280735Y195150D01*
X280739Y195117D01*
X280738Y195084D01*
X280768Y194895D01*
X280792Y194707D01*
X280802Y194675D01*
X280808Y194642D01*
X280870Y194463D01*
X280928Y194282D01*
X280944Y194252D01*
X280955Y194221D01*
X281068Y194000D01*
X281368Y193481D01*
X281541Y192834D01*
X281541Y192749D01*
X272000Y192749D01*
X262459Y192749D01*
X262459Y192834D01*
X262632Y193481D01*
X263131Y194345D01*
X263155Y194396D01*
X263219Y194501D01*
X263232Y194535D01*
X263250Y194568D01*
X263300Y194708D01*
X263319Y194750D01*
X263329Y194786D01*
X263379Y194918D01*
X263386Y194954D01*
X263399Y194989D01*
X263426Y195158D01*
X263432Y195183D01*
X263434Y195202D01*
X263463Y195356D01*
X263466Y195407D01*
X263469Y195430D01*
X263468Y195467D01*
X263475Y195604D01*
X263475Y212632D01*
X264368Y213525D01*
X266960Y213525D01*
X267146Y213541D01*
X267332Y213553D01*
X267368Y213561D01*
X267405Y213565D01*
X267585Y213614D01*
X267766Y213658D01*
X267800Y213673D01*
X267836Y213683D01*
X268004Y213764D01*
X268175Y213840D01*
X268205Y213860D01*
X268239Y213876D01*
X268390Y213986D01*
X268544Y214091D01*
X268582Y214125D01*
X268601Y214138D01*
X268626Y214165D01*
X268728Y214257D01*
X268884Y214413D01*
X270906Y215251D01*
X281686Y215251D01*
X281872Y215267D01*
X282058Y215279D01*
X282094Y215287D01*
X282131Y215291D01*
X282312Y215340D01*
X282492Y215384D01*
X282526Y215399D01*
X282562Y215409D01*
X282730Y215490D01*
X282901Y215566D01*
X282931Y215586D01*
X282965Y215602D01*
X283116Y215712D01*
X283270Y215817D01*
X283308Y215851D01*
X283327Y215864D01*
X283352Y215891D01*
X283454Y215983D01*
X287767Y220296D01*
X287887Y220440D01*
X288011Y220579D01*
X288030Y220611D01*
X288054Y220639D01*
X288146Y220801D01*
X288243Y220961D01*
X288256Y220995D01*
X288274Y221028D01*
X288336Y221204D01*
X288403Y221378D01*
X288410Y221414D01*
X288423Y221449D01*
X288452Y221633D01*
X288487Y221817D01*
X288490Y221867D01*
X288493Y221890D01*
X288492Y221927D01*
X288499Y222064D01*
X288499Y260500D01*
X288495Y260550D01*
X288497Y260600D01*
X288475Y260772D01*
X288459Y260945D01*
X288446Y260993D01*
X288440Y261043D01*
X288387Y261208D01*
X288341Y261376D01*
X288319Y261421D01*
X288304Y261468D01*
X288223Y261622D01*
X288148Y261778D01*
X288118Y261819D01*
X288095Y261863D01*
X287988Y262000D01*
X287886Y262140D01*
X287850Y262175D01*
X287819Y262214D01*
X287689Y262330D01*
X287564Y262450D01*
X287522Y262477D01*
X287484Y262511D01*
X287336Y262601D01*
X287192Y262697D01*
X287146Y262717D01*
X287103Y262743D01*
X286941Y262805D01*
X286781Y262874D01*
X286733Y262885D01*
X286686Y262903D01*
X286515Y262936D01*
X286346Y262975D01*
X286296Y262978D01*
X286247Y262987D01*
X286000Y262999D01*
X143935Y262999D01*
X143749Y262983D01*
X143563Y262971D01*
X143527Y262963D01*
X143490Y262959D01*
X143310Y262910D01*
X143129Y262866D01*
X143095Y262851D01*
X143059Y262841D01*
X142891Y262760D01*
X142721Y262684D01*
X142690Y262664D01*
X142657Y262648D01*
X142506Y262538D01*
X142351Y262433D01*
X142314Y262399D01*
X142295Y262386D01*
X142269Y262359D01*
X142168Y262267D01*
X117733Y237832D01*
X117613Y237689D01*
X117489Y237549D01*
X117470Y237518D01*
X117446Y237489D01*
X117354Y237327D01*
X117257Y237168D01*
X117244Y237133D01*
X117226Y237101D01*
X117164Y236925D01*
X117097Y236751D01*
X117090Y236715D01*
X117077Y236680D01*
X117048Y236495D01*
X117013Y236312D01*
X117010Y236262D01*
X117007Y236239D01*
X117008Y236202D01*
X117001Y236065D01*
X117001Y38935D01*
X117017Y38749D01*
X117029Y38563D01*
X117037Y38527D01*
X117041Y38490D01*
X117090Y38310D01*
X117134Y38129D01*
X117149Y38095D01*
X117159Y38059D01*
X117240Y37891D01*
X117316Y37721D01*
X117336Y37690D01*
X117352Y37657D01*
X117462Y37506D01*
X117567Y37351D01*
X117601Y37314D01*
X117614Y37295D01*
X117641Y37269D01*
X117733Y37168D01*
X127168Y27733D01*
X127311Y27613D01*
X127451Y27489D01*
X127482Y27470D01*
X127511Y27446D01*
X127673Y27354D01*
X127832Y27257D01*
X127867Y27244D01*
X127899Y27226D01*
X128075Y27164D01*
X128249Y27097D01*
X128285Y27090D01*
X128320Y27077D01*
X128505Y27048D01*
X128688Y27013D01*
X128738Y27010D01*
X128761Y27007D01*
X128798Y27008D01*
X128935Y27001D01*
X196393Y27001D01*
X198966Y25935D01*
X200935Y23966D01*
X202001Y21393D01*
X202001Y18607D01*
X200935Y16034D01*
X199333Y14432D01*
X199245Y14327D01*
X199150Y14229D01*
X199102Y14156D01*
X199046Y14089D01*
X198979Y13970D01*
X198903Y13857D01*
X198869Y13777D01*
X198826Y13701D01*
X198780Y13572D01*
X198726Y13446D01*
X198706Y13362D01*
X198677Y13280D01*
X198656Y13144D01*
X198625Y13011D01*
X198621Y12925D01*
X198607Y12839D01*
X198610Y12702D01*
X198603Y12565D01*
X198614Y12479D01*
X198616Y12392D01*
X198643Y12258D01*
X198660Y12122D01*
X198687Y12039D01*
X198704Y11954D01*
X198754Y11827D01*
X198796Y11697D01*
X198837Y11620D01*
X198869Y11539D01*
X198941Y11423D01*
X199005Y11302D01*
X199059Y11234D01*
X199105Y11160D01*
X199197Y11058D01*
X199281Y10951D01*
X199346Y10893D01*
X199405Y10829D01*
X199513Y10745D01*
X199616Y10654D01*
X199690Y10609D01*
X199759Y10556D01*
X199880Y10493D01*
X199997Y10422D01*
X200078Y10391D01*
X200156Y10351D01*
X200286Y10311D01*
X200414Y10262D01*
X200500Y10245D01*
X200583Y10220D01*
X200718Y10204D01*
X200853Y10178D01*
X200989Y10171D01*
X201026Y10167D01*
X201050Y10168D01*
X201100Y10166D01*
X494000Y10166D01*
X494050Y10170D01*
G37*
%LPC*%
G36*
X245718Y123475D02*
X245718Y123475D01*
X237807Y126752D01*
X231752Y132807D01*
X231690Y132956D01*
X231687Y132962D01*
X231685Y132968D01*
X231585Y133159D01*
X231483Y133352D01*
X231479Y133357D01*
X231476Y133363D01*
X231341Y133535D01*
X231209Y133705D01*
X231204Y133709D01*
X231200Y133714D01*
X231036Y133860D01*
X230876Y134003D01*
X230871Y134006D01*
X230866Y134011D01*
X230680Y134123D01*
X230496Y134237D01*
X230490Y134239D01*
X230484Y134243D01*
X230280Y134322D01*
X230080Y134400D01*
X230074Y134401D01*
X230067Y134403D01*
X229852Y134444D01*
X229642Y134486D01*
X229635Y134486D01*
X229629Y134487D01*
X229381Y134499D01*
X212911Y134499D01*
X209052Y136098D01*
X186098Y159052D01*
X184499Y162911D01*
X184499Y212089D01*
X186098Y215948D01*
X189052Y218902D01*
X192911Y220501D01*
X197089Y220501D01*
X200948Y218902D01*
X203868Y215983D01*
X204011Y215863D01*
X204150Y215739D01*
X204182Y215720D01*
X204210Y215696D01*
X204372Y215604D01*
X204532Y215507D01*
X204567Y215494D01*
X204599Y215476D01*
X204775Y215414D01*
X204949Y215347D01*
X204985Y215340D01*
X205020Y215327D01*
X205204Y215298D01*
X205388Y215263D01*
X205438Y215260D01*
X205461Y215257D01*
X205498Y215258D01*
X205635Y215251D01*
X229094Y215251D01*
X231116Y214413D01*
X231272Y214257D01*
X231416Y214137D01*
X231555Y214013D01*
X231587Y213994D01*
X231615Y213970D01*
X231777Y213878D01*
X231937Y213781D01*
X231971Y213768D01*
X232004Y213750D01*
X232180Y213688D01*
X232354Y213621D01*
X232390Y213614D01*
X232425Y213601D01*
X232609Y213572D01*
X232793Y213537D01*
X232843Y213534D01*
X232866Y213531D01*
X232903Y213532D01*
X233040Y213525D01*
X235632Y213525D01*
X236525Y212632D01*
X236525Y187368D01*
X235632Y186475D01*
X233040Y186475D01*
X232854Y186459D01*
X232668Y186447D01*
X232632Y186439D01*
X232595Y186435D01*
X232414Y186386D01*
X232234Y186342D01*
X232200Y186327D01*
X232164Y186317D01*
X231996Y186236D01*
X231825Y186160D01*
X231795Y186140D01*
X231761Y186124D01*
X231610Y186014D01*
X231456Y185909D01*
X231418Y185875D01*
X231399Y185862D01*
X231374Y185835D01*
X231272Y185743D01*
X231116Y185587D01*
X229094Y184749D01*
X213656Y184749D01*
X211634Y185587D01*
X209767Y187454D01*
X209662Y187541D01*
X209564Y187636D01*
X209491Y187684D01*
X209424Y187740D01*
X209305Y187808D01*
X209192Y187883D01*
X209112Y187918D01*
X209036Y187961D01*
X208907Y188006D01*
X208781Y188060D01*
X208697Y188080D01*
X208615Y188109D01*
X208479Y188131D01*
X208346Y188161D01*
X208260Y188166D01*
X208174Y188180D01*
X208037Y188177D01*
X207900Y188184D01*
X207814Y188172D01*
X207727Y188171D01*
X207593Y188144D01*
X207457Y188126D01*
X207374Y188100D01*
X207289Y188082D01*
X207162Y188032D01*
X207032Y187990D01*
X206955Y187950D01*
X206874Y187918D01*
X206758Y187845D01*
X206637Y187781D01*
X206569Y187727D01*
X206495Y187681D01*
X206393Y187590D01*
X206286Y187505D01*
X206228Y187440D01*
X206164Y187382D01*
X206080Y187273D01*
X205989Y187171D01*
X205944Y187096D01*
X205891Y187028D01*
X205828Y186906D01*
X205757Y186789D01*
X205726Y186708D01*
X205686Y186631D01*
X205646Y186500D01*
X205597Y186372D01*
X205580Y186287D01*
X205555Y186204D01*
X205539Y186068D01*
X205513Y185934D01*
X205506Y185797D01*
X205502Y185760D01*
X205503Y185737D01*
X205501Y185686D01*
X205501Y170385D01*
X205517Y170199D01*
X205529Y170013D01*
X205537Y169977D01*
X205541Y169940D01*
X205590Y169759D01*
X205634Y169579D01*
X205649Y169545D01*
X205659Y169509D01*
X205740Y169341D01*
X205816Y169170D01*
X205836Y169140D01*
X205852Y169106D01*
X205962Y168955D01*
X206067Y168801D01*
X206101Y168764D01*
X206114Y168745D01*
X206141Y168719D01*
X206233Y168618D01*
X218618Y156233D01*
X218761Y156113D01*
X218900Y155989D01*
X218932Y155970D01*
X218960Y155946D01*
X219122Y155854D01*
X219282Y155757D01*
X219317Y155744D01*
X219349Y155726D01*
X219525Y155664D01*
X219699Y155597D01*
X219735Y155590D01*
X219770Y155577D01*
X219954Y155548D01*
X220138Y155513D01*
X220188Y155510D01*
X220211Y155507D01*
X220248Y155508D01*
X220385Y155501D01*
X229381Y155501D01*
X229388Y155501D01*
X229394Y155501D01*
X229611Y155521D01*
X229826Y155541D01*
X229833Y155542D01*
X229839Y155543D01*
X230047Y155601D01*
X230257Y155659D01*
X230263Y155662D01*
X230269Y155664D01*
X230460Y155757D01*
X230660Y155852D01*
X230665Y155856D01*
X230671Y155859D01*
X230843Y155985D01*
X231022Y156114D01*
X231026Y156119D01*
X231031Y156123D01*
X231180Y156279D01*
X231331Y156436D01*
X231335Y156442D01*
X231339Y156447D01*
X231458Y156628D01*
X231578Y156808D01*
X231581Y156814D01*
X231584Y156820D01*
X231690Y157044D01*
X231752Y157193D01*
X237807Y163248D01*
X245718Y166525D01*
X254282Y166525D01*
X262193Y163248D01*
X268248Y157193D01*
X269759Y153544D01*
X269762Y153538D01*
X269764Y153532D01*
X269866Y153340D01*
X269966Y153148D01*
X269970Y153143D01*
X269974Y153137D01*
X270107Y152967D01*
X270241Y152795D01*
X270246Y152791D01*
X270250Y152786D01*
X270412Y152642D01*
X270573Y152497D01*
X270579Y152494D01*
X270584Y152489D01*
X270768Y152377D01*
X270954Y152263D01*
X270960Y152261D01*
X270965Y152257D01*
X271168Y152179D01*
X271370Y152100D01*
X271376Y152099D01*
X271382Y152097D01*
X271597Y152056D01*
X271808Y152014D01*
X271815Y152014D01*
X271821Y152013D01*
X272068Y152001D01*
X281078Y152001D01*
X281261Y152017D01*
X281444Y152028D01*
X281483Y152037D01*
X281523Y152041D01*
X281700Y152089D01*
X281878Y152132D01*
X281915Y152149D01*
X281953Y152159D01*
X282119Y152239D01*
X282287Y152313D01*
X282320Y152335D01*
X282356Y152352D01*
X282505Y152460D01*
X282657Y152563D01*
X282698Y152600D01*
X282718Y152614D01*
X282744Y152641D01*
X282841Y152729D01*
X320145Y189861D01*
X320146Y189863D01*
X320149Y189865D01*
X321464Y191180D01*
X321481Y191195D01*
X324157Y193872D01*
X324188Y193908D01*
X325484Y195199D01*
X325485Y195200D01*
X325488Y195203D01*
X326750Y196465D01*
X326767Y196478D01*
X326785Y196498D01*
X326828Y196537D01*
X333769Y203445D01*
X333831Y203493D01*
X333949Y203574D01*
X334041Y203656D01*
X334071Y203679D01*
X334089Y203699D01*
X334133Y203739D01*
X335348Y204949D01*
X335350Y204951D01*
X335353Y204953D01*
X346084Y215685D01*
X348657Y216751D01*
X351443Y216751D01*
X354249Y215588D01*
X354382Y215507D01*
X354417Y215494D01*
X354449Y215476D01*
X354625Y215414D01*
X354799Y215347D01*
X354835Y215340D01*
X354870Y215327D01*
X355055Y215298D01*
X355238Y215263D01*
X355288Y215260D01*
X355311Y215257D01*
X355348Y215258D01*
X355485Y215251D01*
X379094Y215251D01*
X381116Y214413D01*
X381272Y214257D01*
X381416Y214137D01*
X381555Y214013D01*
X381587Y213994D01*
X381615Y213970D01*
X381777Y213878D01*
X381937Y213781D01*
X381971Y213768D01*
X382004Y213750D01*
X382180Y213688D01*
X382354Y213621D01*
X382390Y213614D01*
X382425Y213601D01*
X382609Y213572D01*
X382793Y213537D01*
X382843Y213534D01*
X382866Y213531D01*
X382903Y213532D01*
X383040Y213525D01*
X385632Y213525D01*
X386525Y212632D01*
X386525Y208604D01*
X386540Y208439D01*
X386539Y208428D01*
X386542Y208413D01*
X386553Y208232D01*
X386561Y208196D01*
X386565Y208159D01*
X386604Y208014D01*
X386609Y207987D01*
X386620Y207954D01*
X386658Y207798D01*
X386673Y207764D01*
X386683Y207728D01*
X386741Y207608D01*
X386756Y207565D01*
X386799Y207480D01*
X386840Y207389D01*
X386860Y207359D01*
X386876Y207325D01*
X386894Y207301D01*
X387368Y206481D01*
X387541Y205834D01*
X387541Y205749D01*
X382814Y205749D01*
X382786Y205747D01*
X382761Y205749D01*
X382604Y205731D01*
X382442Y205722D01*
X382406Y205713D01*
X382369Y205709D01*
X382342Y205702D01*
X382317Y205699D01*
X382165Y205654D01*
X382008Y205616D01*
X381974Y205601D01*
X381938Y205591D01*
X381914Y205579D01*
X381889Y205572D01*
X381747Y205500D01*
X381600Y205435D01*
X381569Y205414D01*
X381535Y205398D01*
X381514Y205382D01*
X381490Y205370D01*
X381363Y205274D01*
X381230Y205184D01*
X381193Y205150D01*
X381174Y205136D01*
X381155Y205117D01*
X381134Y205101D01*
X381111Y205076D01*
X381047Y205017D01*
X381046Y205017D01*
X380959Y204912D01*
X380864Y204814D01*
X380849Y204792D01*
X380831Y204772D01*
X380799Y204721D01*
X380760Y204674D01*
X380692Y204555D01*
X380617Y204442D01*
X380606Y204418D01*
X380592Y204395D01*
X380569Y204339D01*
X380539Y204286D01*
X380494Y204156D01*
X380440Y204032D01*
X380434Y204006D01*
X380424Y203981D01*
X380411Y203922D01*
X380391Y203865D01*
X380369Y203728D01*
X380339Y203596D01*
X380337Y203571D01*
X380332Y203544D01*
X380330Y203483D01*
X380320Y203424D01*
X380323Y203285D01*
X380317Y203150D01*
X380320Y203125D01*
X380319Y203097D01*
X380328Y203037D01*
X380329Y202977D01*
X380357Y202841D01*
X380374Y202707D01*
X380382Y202683D01*
X380386Y202656D01*
X380406Y202598D01*
X380418Y202539D01*
X380469Y202410D01*
X380510Y202281D01*
X380522Y202259D01*
X380531Y202233D01*
X380560Y202180D01*
X380582Y202124D01*
X380655Y202007D01*
X380719Y201887D01*
X380735Y201866D01*
X380748Y201843D01*
X380787Y201796D01*
X380819Y201745D01*
X380911Y201643D01*
X380995Y201536D01*
X381015Y201518D01*
X381032Y201498D01*
X381096Y201439D01*
X381118Y201414D01*
X381146Y201392D01*
X381214Y201330D01*
X381274Y201288D01*
X381329Y201239D01*
X381404Y201194D01*
X381472Y201141D01*
X381529Y201112D01*
X381581Y201076D01*
X381648Y201045D01*
X381711Y201007D01*
X381793Y200976D01*
X381869Y200936D01*
X381929Y200918D01*
X381988Y200891D01*
X382059Y200873D01*
X382128Y200847D01*
X382214Y200830D01*
X382296Y200805D01*
X382358Y200797D01*
X382421Y200782D01*
X382494Y200777D01*
X382567Y200763D01*
X382705Y200756D01*
X382740Y200752D01*
X382762Y200753D01*
X382814Y200751D01*
X387541Y200751D01*
X387541Y200666D01*
X387368Y200019D01*
X386869Y199155D01*
X386845Y199104D01*
X386781Y198999D01*
X386768Y198965D01*
X386750Y198932D01*
X386700Y198792D01*
X386681Y198750D01*
X386671Y198714D01*
X386621Y198582D01*
X386614Y198546D01*
X386601Y198511D01*
X386574Y198342D01*
X386568Y198317D01*
X386566Y198298D01*
X386537Y198144D01*
X386534Y198093D01*
X386531Y198070D01*
X386532Y198033D01*
X386525Y197896D01*
X386525Y187368D01*
X385632Y186475D01*
X383040Y186475D01*
X382854Y186459D01*
X382668Y186447D01*
X382632Y186439D01*
X382595Y186435D01*
X382414Y186386D01*
X382234Y186342D01*
X382200Y186327D01*
X382164Y186317D01*
X381996Y186236D01*
X381825Y186160D01*
X381795Y186140D01*
X381761Y186124D01*
X381610Y186014D01*
X381456Y185909D01*
X381418Y185875D01*
X381399Y185862D01*
X381374Y185835D01*
X381272Y185743D01*
X381116Y185587D01*
X379094Y184749D01*
X335871Y184749D01*
X335685Y184733D01*
X335499Y184721D01*
X335463Y184713D01*
X335426Y184709D01*
X335246Y184660D01*
X335065Y184616D01*
X335031Y184601D01*
X334995Y184591D01*
X334827Y184510D01*
X334657Y184434D01*
X334626Y184414D01*
X334593Y184398D01*
X334441Y184288D01*
X334287Y184183D01*
X334250Y184149D01*
X334231Y184136D01*
X334205Y184109D01*
X334104Y184017D01*
X331369Y181283D01*
X331347Y181256D01*
X330385Y180298D01*
X330384Y180297D01*
X330381Y180294D01*
X328784Y178697D01*
X328759Y178678D01*
X328742Y178659D01*
X328698Y178620D01*
X289946Y140046D01*
X289945Y140044D01*
X289942Y140042D01*
X288960Y139059D01*
X287676Y138531D01*
X287674Y138530D01*
X287670Y138529D01*
X286385Y137996D01*
X284998Y137999D01*
X284996Y137999D01*
X284992Y137999D01*
X272068Y137999D01*
X272062Y137999D01*
X272055Y137999D01*
X271842Y137979D01*
X271623Y137959D01*
X271617Y137958D01*
X271611Y137957D01*
X271405Y137899D01*
X271193Y137841D01*
X271187Y137838D01*
X271181Y137836D01*
X270987Y137742D01*
X270790Y137648D01*
X270785Y137644D01*
X270779Y137641D01*
X270605Y137514D01*
X270428Y137386D01*
X270424Y137381D01*
X270418Y137377D01*
X270270Y137221D01*
X270119Y137064D01*
X270115Y137058D01*
X270111Y137053D01*
X269992Y136873D01*
X269871Y136692D01*
X269869Y136686D01*
X269865Y136680D01*
X269759Y136456D01*
X268248Y132807D01*
X262193Y126752D01*
X254282Y123475D01*
X245718Y123475D01*
G37*
%LPD*%
%LPC*%
G36*
X133607Y37999D02*
X133607Y37999D01*
X131034Y39065D01*
X124065Y46034D01*
X122999Y48607D01*
X122999Y156393D01*
X124065Y158966D01*
X126034Y160935D01*
X128607Y162001D01*
X131393Y162001D01*
X133966Y160935D01*
X135935Y158966D01*
X137001Y156393D01*
X137001Y54500D01*
X137005Y54450D01*
X137003Y54400D01*
X137025Y54228D01*
X137041Y54055D01*
X137054Y54007D01*
X137060Y53957D01*
X137113Y53792D01*
X137159Y53624D01*
X137181Y53579D01*
X137196Y53532D01*
X137277Y53378D01*
X137352Y53222D01*
X137382Y53181D01*
X137405Y53137D01*
X137512Y53000D01*
X137614Y52860D01*
X137650Y52825D01*
X137681Y52786D01*
X137811Y52670D01*
X137936Y52550D01*
X137978Y52523D01*
X138016Y52489D01*
X138164Y52399D01*
X138308Y52303D01*
X138354Y52283D01*
X138397Y52257D01*
X138559Y52195D01*
X138719Y52126D01*
X138767Y52115D01*
X138814Y52097D01*
X138985Y52064D01*
X139154Y52025D01*
X139204Y52022D01*
X139253Y52013D01*
X139500Y52001D01*
X196393Y52001D01*
X198966Y50935D01*
X200935Y48966D01*
X202001Y46393D01*
X202001Y43607D01*
X200935Y41034D01*
X198966Y39065D01*
X196393Y37999D01*
X133607Y37999D01*
G37*
%LPD*%
%LPC*%
G36*
X395718Y123475D02*
X395718Y123475D01*
X387807Y126752D01*
X381752Y132807D01*
X378475Y140718D01*
X378475Y149282D01*
X381752Y157193D01*
X387807Y163248D01*
X395718Y166525D01*
X404282Y166525D01*
X412193Y163248D01*
X418248Y157193D01*
X421525Y149282D01*
X421525Y140718D01*
X418248Y132807D01*
X412193Y126752D01*
X404282Y123475D01*
X395718Y123475D01*
G37*
%LPD*%
%LPC*%
G36*
X424499Y185459D02*
X424499Y185459D01*
X424499Y187751D01*
X431541Y187751D01*
X431541Y187666D01*
X431368Y187019D01*
X431033Y186440D01*
X430560Y185967D01*
X429981Y185632D01*
X429334Y185459D01*
X424499Y185459D01*
G37*
%LPD*%
%LPC*%
G36*
X274499Y185459D02*
X274499Y185459D01*
X274499Y187751D01*
X281541Y187751D01*
X281541Y187666D01*
X281368Y187019D01*
X281033Y186440D01*
X280560Y185967D01*
X279981Y185632D01*
X279334Y185459D01*
X274499Y185459D01*
G37*
%LPD*%
%LPC*%
G36*
X414666Y185459D02*
X414666Y185459D01*
X414019Y185632D01*
X413440Y185967D01*
X412967Y186440D01*
X412632Y187019D01*
X412459Y187666D01*
X412459Y187751D01*
X419501Y187751D01*
X419501Y185459D01*
X414666Y185459D01*
G37*
%LPD*%
%LPC*%
G36*
X264666Y185459D02*
X264666Y185459D01*
X264019Y185632D01*
X263440Y185967D01*
X262967Y186440D01*
X262632Y187019D01*
X262459Y187666D01*
X262459Y187751D01*
X269501Y187751D01*
X269501Y185459D01*
X264666Y185459D01*
G37*
%LPD*%
D10*
X422000Y209750D03*
X422000Y203250D03*
X422000Y196750D03*
X422000Y190250D03*
X378000Y190250D03*
X378000Y196750D03*
X378000Y203250D03*
X378000Y209750D03*
X272000Y209750D03*
X272000Y203250D03*
X272000Y196750D03*
X272000Y190250D03*
X228000Y190250D03*
X228000Y196750D03*
X228000Y203250D03*
X228000Y209750D03*
D11*
X51120Y119600D02*
X35880Y119600D01*
X35880Y145000D02*
X51120Y145000D01*
X51120Y170400D02*
X35880Y170400D01*
D12*
X378000Y203250D02*
X391750Y203250D01*
X395000Y200000D01*
X395000Y190000D01*
X395250Y190250D02*
X422000Y190250D01*
X395250Y190250D02*
X395000Y190000D01*
D13*
X195000Y245000D03*
D14*
X400000Y145000D03*
D12*
X228000Y190250D02*
X214750Y190250D01*
D14*
X250000Y145000D03*
D12*
X228000Y209750D02*
X195000Y209750D01*
X195000Y210000D01*
D13*
X195000Y210000D03*
D15*
X195000Y165000D01*
X215000Y145000D02*
X250000Y145000D01*
X215000Y145000D02*
X195000Y165000D01*
D12*
X201750Y203250D02*
X195000Y210000D01*
X201750Y203250D02*
X208250Y196750D01*
X214750Y190250D01*
X201750Y203250D02*
X228000Y203250D01*
X228000Y196750D02*
X208250Y196750D01*
D16*
X337649Y197362D02*
X340300Y200000D01*
X337615Y197396D02*
X330436Y190250D01*
X325092Y184908D02*
X285000Y145000D01*
X250000Y145000D01*
D12*
X338261Y196750D02*
X378000Y196750D01*
D17*
X338261Y196750D02*
X337649Y197362D01*
X337615Y197396D01*
D12*
X350050Y209750D02*
X378000Y209750D01*
D16*
X350050Y209750D02*
X340300Y200000D01*
D12*
X330436Y190250D02*
X378000Y190250D01*
D16*
X325094Y184908D02*
X325092Y184908D01*
X325094Y184908D02*
X330436Y190250D01*
D12*
X300000Y203250D02*
X272000Y203250D01*
X410000Y203250D02*
X422000Y203250D01*
X435000Y203250D01*
D13*
X400000Y65000D03*
D12*
X445000Y193250D02*
X435000Y203250D01*
D16*
X445000Y193250D02*
X445000Y80000D01*
X430000Y65000D01*
X400000Y65000D01*
D13*
X130000Y155000D03*
X195000Y45000D03*
D16*
X130000Y50000D02*
X130000Y155000D01*
X135000Y45000D02*
X195000Y45000D01*
X135000Y45000D02*
X130000Y50000D01*
D12*
X400000Y213250D02*
X410000Y203250D01*
X400000Y213250D02*
X400000Y245000D01*
X390000Y255000D01*
X317000Y255000D02*
X307000Y245000D01*
X317000Y255000D02*
X390000Y255000D01*
X307000Y210250D02*
X300000Y203250D01*
X307000Y210250D02*
X307000Y245000D01*
X285000Y209750D02*
X272000Y209750D01*
D13*
X110000Y155000D03*
D12*
X422000Y209750D02*
X435000Y209750D01*
X294000Y218750D02*
X294000Y270000D01*
D16*
X425000Y270000D01*
X110000Y240000D02*
X110000Y155000D01*
D13*
X195000Y20000D03*
D16*
X125000Y20000D01*
X110000Y35000D01*
X110000Y155000D01*
X110000Y240000D02*
X140000Y270000D01*
X294000Y270000D01*
X425000Y270000D02*
X445000Y250000D01*
D12*
X445000Y219750D02*
X435000Y209750D01*
X294000Y218750D02*
X285000Y209750D01*
D16*
X445000Y219750D02*
X445000Y250000D01*
M02*
