G04 EAGLE Gerber X2 export*
%TF.Part,Single*%
%TF.FileFunction,Copper,L1,Top,Mixed*%
%TF.FilePolarity,Positive*%
%TF.GenerationSoftware,Autodesk,EAGLE,9.1.0*%
%TF.CreationDate,2020-06-23T23:40:24Z*%
G75*
%MOMM*%
%FSLAX34Y34*%
%LPD*%
%AMOC8*
5,1,8,0,0,1.08239X$1,22.5*%
G01*
%ADD10R,1.300000X1.600000*%
%ADD11R,1.080000X1.050000*%
%ADD12R,1.270000X0.558800*%
%ADD13R,0.558800X1.270000*%
%ADD14R,1.050000X0.600000*%
%ADD15R,1.950000X2.950000*%
%ADD16R,1.600000X0.800000*%
%ADD17R,3.000000X2.100000*%
%ADD18C,1.524000*%
%ADD19R,0.800000X1.600000*%
%ADD20R,2.100000X3.000000*%
%ADD21R,1.160000X1.680000*%
%ADD22R,1.200000X1.100000*%
%ADD23R,1.000000X0.450000*%
%ADD24C,1.000000*%
%ADD25C,0.500000*%
%ADD26C,0.800000*%
%ADD27C,4.000000*%
%ADD28C,1.000000*%
%ADD29C,1.500000*%

G36*
X770050Y10170D02*
X770050Y10170D01*
X770100Y10168D01*
X770272Y10190D01*
X770445Y10206D01*
X770493Y10219D01*
X770543Y10225D01*
X770708Y10278D01*
X770876Y10324D01*
X770921Y10346D01*
X770968Y10361D01*
X771122Y10442D01*
X771278Y10517D01*
X771319Y10547D01*
X771363Y10570D01*
X771500Y10677D01*
X771640Y10779D01*
X771675Y10815D01*
X771714Y10846D01*
X771830Y10976D01*
X771950Y11101D01*
X771977Y11143D01*
X772011Y11181D01*
X772101Y11329D01*
X772197Y11473D01*
X772217Y11519D01*
X772243Y11562D01*
X772305Y11724D01*
X772374Y11884D01*
X772385Y11932D01*
X772403Y11979D01*
X772436Y12150D01*
X772475Y12319D01*
X772478Y12369D01*
X772487Y12418D01*
X772499Y12665D01*
X772499Y24548D01*
X772485Y24712D01*
X772478Y24877D01*
X772465Y24934D01*
X772459Y24992D01*
X772416Y25151D01*
X772379Y25312D01*
X772356Y25367D01*
X772341Y25423D01*
X772269Y25572D01*
X772205Y25724D01*
X772162Y25796D01*
X772148Y25826D01*
X772127Y25854D01*
X772078Y25936D01*
X771805Y26345D01*
X770083Y35000D01*
X771805Y43655D01*
X772078Y44064D01*
X772157Y44209D01*
X772243Y44350D01*
X772264Y44404D01*
X772292Y44456D01*
X772344Y44612D01*
X772403Y44767D01*
X772414Y44824D01*
X772433Y44880D01*
X772456Y45043D01*
X772487Y45205D01*
X772491Y45289D01*
X772496Y45322D01*
X772495Y45357D01*
X772499Y45452D01*
X772499Y244548D01*
X772485Y244712D01*
X772478Y244877D01*
X772465Y244934D01*
X772459Y244992D01*
X772416Y245152D01*
X772379Y245312D01*
X772356Y245366D01*
X772341Y245423D01*
X772269Y245572D01*
X772205Y245724D01*
X772162Y245796D01*
X772148Y245826D01*
X772127Y245855D01*
X772078Y245936D01*
X771578Y246684D01*
X771479Y246808D01*
X771386Y246936D01*
X771339Y246981D01*
X771298Y247032D01*
X771178Y247136D01*
X771064Y247246D01*
X771009Y247282D01*
X770960Y247324D01*
X770823Y247405D01*
X770692Y247493D01*
X770632Y247519D01*
X770575Y247552D01*
X770427Y247607D01*
X770281Y247670D01*
X770218Y247685D01*
X770157Y247707D01*
X770001Y247735D01*
X769846Y247771D01*
X769781Y247774D01*
X769717Y247786D01*
X769558Y247785D01*
X769400Y247793D01*
X769335Y247785D01*
X769270Y247785D01*
X769114Y247756D01*
X768957Y247735D01*
X768895Y247716D01*
X768831Y247704D01*
X768682Y247648D01*
X768532Y247600D01*
X768474Y247569D01*
X768413Y247546D01*
X768277Y247465D01*
X768137Y247391D01*
X768086Y247350D01*
X768030Y247317D01*
X767910Y247213D01*
X767786Y247115D01*
X767742Y247066D01*
X767693Y247023D01*
X767595Y246899D01*
X767489Y246780D01*
X767455Y246725D01*
X767415Y246674D01*
X767339Y246534D01*
X767257Y246399D01*
X767234Y246338D01*
X767203Y246280D01*
X767154Y246130D01*
X767097Y245982D01*
X767084Y245918D01*
X767064Y245856D01*
X767043Y245699D01*
X767013Y245543D01*
X767008Y245448D01*
X767003Y245413D01*
X767005Y245380D01*
X767001Y245296D01*
X767001Y212357D01*
X765935Y209784D01*
X763966Y207815D01*
X761393Y206749D01*
X718000Y206749D01*
X717950Y206745D01*
X717900Y206747D01*
X717728Y206725D01*
X717555Y206709D01*
X717507Y206696D01*
X717457Y206690D01*
X717292Y206637D01*
X717124Y206591D01*
X717079Y206569D01*
X717032Y206554D01*
X716878Y206473D01*
X716722Y206398D01*
X716681Y206368D01*
X716637Y206345D01*
X716500Y206238D01*
X716360Y206136D01*
X716325Y206100D01*
X716286Y206069D01*
X716170Y205939D01*
X716050Y205814D01*
X716023Y205772D01*
X715989Y205734D01*
X715899Y205586D01*
X715803Y205442D01*
X715783Y205396D01*
X715757Y205353D01*
X715695Y205191D01*
X715626Y205031D01*
X715615Y204983D01*
X715597Y204936D01*
X715564Y204765D01*
X715525Y204596D01*
X715522Y204546D01*
X715513Y204497D01*
X715501Y204250D01*
X715501Y203749D01*
X704960Y203749D01*
X704910Y203745D01*
X704861Y203747D01*
X704689Y203725D01*
X704515Y203709D01*
X704467Y203696D01*
X704418Y203690D01*
X704252Y203637D01*
X704085Y203591D01*
X704040Y203569D01*
X703992Y203554D01*
X703839Y203473D01*
X703682Y203398D01*
X703641Y203368D01*
X703597Y203345D01*
X703461Y203238D01*
X703320Y203136D01*
X703285Y203100D01*
X703246Y203069D01*
X703131Y202939D01*
X703011Y202814D01*
X702983Y202772D01*
X702950Y202735D01*
X702860Y202586D01*
X702763Y202442D01*
X702744Y202396D01*
X702718Y202353D01*
X702655Y202191D01*
X702586Y202032D01*
X702575Y201983D01*
X702557Y201936D01*
X702524Y201765D01*
X702485Y201596D01*
X702483Y201547D01*
X702473Y201497D01*
X702461Y201250D01*
X702466Y201200D01*
X702463Y201150D01*
X702485Y200978D01*
X702501Y200805D01*
X702514Y200757D01*
X702521Y200707D01*
X702573Y200542D01*
X702619Y200374D01*
X702641Y200329D01*
X702656Y200281D01*
X702737Y200128D01*
X702813Y199971D01*
X702842Y199931D01*
X702866Y199887D01*
X702973Y199750D01*
X703075Y199610D01*
X703111Y199575D01*
X703142Y199536D01*
X703272Y199420D01*
X703397Y199300D01*
X703438Y199272D01*
X703476Y199239D01*
X703624Y199149D01*
X703769Y199053D01*
X703815Y199033D01*
X703857Y199007D01*
X704020Y198945D01*
X704179Y198876D01*
X704227Y198865D01*
X704274Y198847D01*
X704445Y198814D01*
X704614Y198775D01*
X704664Y198772D01*
X704713Y198763D01*
X704960Y198751D01*
X715501Y198751D01*
X715501Y196750D01*
X715505Y196700D01*
X715503Y196650D01*
X715525Y196478D01*
X715541Y196305D01*
X715554Y196257D01*
X715560Y196207D01*
X715613Y196042D01*
X715659Y195874D01*
X715681Y195829D01*
X715696Y195782D01*
X715777Y195628D01*
X715852Y195472D01*
X715882Y195431D01*
X715905Y195387D01*
X716012Y195250D01*
X716114Y195110D01*
X716150Y195075D01*
X716181Y195036D01*
X716311Y194920D01*
X716436Y194800D01*
X716478Y194773D01*
X716516Y194739D01*
X716664Y194649D01*
X716808Y194553D01*
X716854Y194533D01*
X716897Y194507D01*
X717059Y194445D01*
X717219Y194376D01*
X717267Y194365D01*
X717314Y194347D01*
X717485Y194314D01*
X717654Y194275D01*
X717704Y194272D01*
X717753Y194263D01*
X718000Y194251D01*
X730936Y194251D01*
X730943Y194251D01*
X730949Y194251D01*
X731166Y194271D01*
X731381Y194291D01*
X731388Y194292D01*
X731394Y194293D01*
X731604Y194352D01*
X731812Y194409D01*
X731818Y194412D01*
X731824Y194414D01*
X732018Y194508D01*
X732215Y194602D01*
X732220Y194606D01*
X732226Y194609D01*
X732399Y194735D01*
X732577Y194864D01*
X732581Y194869D01*
X732586Y194873D01*
X732737Y195031D01*
X732886Y195186D01*
X732890Y195192D01*
X732894Y195197D01*
X733014Y195379D01*
X733133Y195558D01*
X733136Y195564D01*
X733140Y195570D01*
X733245Y195794D01*
X733641Y196749D01*
X735751Y198859D01*
X738508Y200001D01*
X741492Y200001D01*
X744249Y198859D01*
X746359Y196749D01*
X747501Y193992D01*
X747501Y191008D01*
X746359Y188251D01*
X744249Y186141D01*
X744050Y186059D01*
X743929Y185995D01*
X743804Y185941D01*
X743732Y185892D01*
X743655Y185852D01*
X743547Y185768D01*
X743433Y185691D01*
X743371Y185631D01*
X743302Y185578D01*
X743211Y185476D01*
X743113Y185380D01*
X743062Y185310D01*
X743004Y185245D01*
X742932Y185128D01*
X742853Y185017D01*
X742815Y184938D01*
X742770Y184864D01*
X742720Y184737D01*
X742661Y184613D01*
X742639Y184529D01*
X742607Y184448D01*
X742581Y184314D01*
X742545Y184182D01*
X742538Y184095D01*
X742521Y184010D01*
X742519Y183873D01*
X742508Y183737D01*
X742516Y183650D01*
X742515Y183563D01*
X742537Y183429D01*
X742550Y183292D01*
X742573Y183208D01*
X742588Y183123D01*
X742634Y182994D01*
X742671Y182862D01*
X742709Y182784D01*
X742738Y182702D01*
X742806Y182584D01*
X742866Y182460D01*
X742917Y182390D01*
X742961Y182315D01*
X743049Y182210D01*
X743130Y182100D01*
X743193Y182040D01*
X743249Y181974D01*
X743354Y181886D01*
X743453Y181792D01*
X743526Y181744D01*
X743593Y181689D01*
X743713Y181622D01*
X743827Y181547D01*
X743950Y181488D01*
X743983Y181470D01*
X744005Y181463D01*
X744050Y181441D01*
X744249Y181359D01*
X744375Y181233D01*
X744518Y181113D01*
X744658Y180989D01*
X744689Y180970D01*
X744718Y180946D01*
X744880Y180854D01*
X745039Y180757D01*
X745074Y180744D01*
X745106Y180726D01*
X745282Y180664D01*
X745456Y180597D01*
X745493Y180590D01*
X745527Y180577D01*
X745712Y180548D01*
X745895Y180513D01*
X745945Y180510D01*
X745969Y180507D01*
X746006Y180508D01*
X746142Y180501D01*
X761094Y180501D01*
X763116Y179663D01*
X764663Y178116D01*
X765501Y176094D01*
X765501Y121406D01*
X764663Y119384D01*
X763116Y117837D01*
X761094Y116999D01*
X752781Y116999D01*
X752645Y116987D01*
X752508Y116984D01*
X752423Y116967D01*
X752336Y116959D01*
X752204Y116923D01*
X752070Y116896D01*
X751989Y116864D01*
X751905Y116841D01*
X751782Y116782D01*
X751655Y116731D01*
X751581Y116685D01*
X751503Y116648D01*
X751392Y116567D01*
X751276Y116495D01*
X751211Y116437D01*
X751141Y116386D01*
X751046Y116287D01*
X750945Y116195D01*
X750892Y116126D01*
X750831Y116064D01*
X750756Y115950D01*
X750672Y115841D01*
X750632Y115764D01*
X750584Y115692D01*
X750530Y115566D01*
X750467Y115444D01*
X750441Y115361D01*
X750407Y115281D01*
X750376Y115149D01*
X750336Y115017D01*
X750326Y114931D01*
X750306Y114846D01*
X750299Y114710D01*
X750283Y114574D01*
X750288Y114487D01*
X750284Y114400D01*
X750301Y114265D01*
X750310Y114128D01*
X750330Y114043D01*
X750341Y113957D01*
X750383Y113827D01*
X750415Y113694D01*
X750451Y113614D01*
X750477Y113532D01*
X750541Y113411D01*
X750597Y113286D01*
X750645Y113214D01*
X750686Y113137D01*
X750771Y113029D01*
X750848Y112916D01*
X750939Y112815D01*
X750962Y112786D01*
X750980Y112770D01*
X751014Y112733D01*
X751461Y112286D01*
X751461Y89214D01*
X749996Y87749D01*
X717924Y87749D01*
X716459Y89214D01*
X716459Y112286D01*
X717924Y113751D01*
X732108Y113751D01*
X732244Y113763D01*
X732381Y113766D01*
X732466Y113783D01*
X732553Y113791D01*
X732685Y113827D01*
X732819Y113854D01*
X732900Y113886D01*
X732984Y113909D01*
X733107Y113968D01*
X733234Y114019D01*
X733308Y114065D01*
X733386Y114102D01*
X733497Y114183D01*
X733613Y114255D01*
X733678Y114313D01*
X733748Y114364D01*
X733843Y114463D01*
X733944Y114555D01*
X733997Y114624D01*
X734058Y114686D01*
X734133Y114800D01*
X734217Y114909D01*
X734257Y114986D01*
X734305Y115058D01*
X734359Y115184D01*
X734422Y115306D01*
X734447Y115389D01*
X734482Y115469D01*
X734513Y115602D01*
X734553Y115733D01*
X734563Y115819D01*
X734583Y115904D01*
X734590Y116040D01*
X734606Y116176D01*
X734601Y116263D01*
X734605Y116350D01*
X734588Y116485D01*
X734579Y116622D01*
X734559Y116707D01*
X734548Y116793D01*
X734506Y116923D01*
X734474Y117056D01*
X734438Y117136D01*
X734412Y117218D01*
X734348Y117339D01*
X734292Y117464D01*
X734243Y117536D01*
X734203Y117613D01*
X734118Y117721D01*
X734041Y117834D01*
X733950Y117935D01*
X733927Y117964D01*
X733909Y117980D01*
X733875Y118017D01*
X733641Y118251D01*
X732499Y121008D01*
X732499Y122476D01*
X732487Y122613D01*
X732484Y122749D01*
X732467Y122835D01*
X732459Y122921D01*
X732423Y123053D01*
X732396Y123187D01*
X732364Y123268D01*
X732341Y123352D01*
X732282Y123475D01*
X732231Y123602D01*
X732185Y123676D01*
X732148Y123755D01*
X732067Y123866D01*
X731995Y123982D01*
X731937Y124046D01*
X731886Y124117D01*
X731787Y124211D01*
X731695Y124313D01*
X731626Y124366D01*
X731564Y124426D01*
X731450Y124502D01*
X731341Y124585D01*
X731264Y124625D01*
X731192Y124673D01*
X731066Y124727D01*
X730944Y124790D01*
X730861Y124816D01*
X730781Y124850D01*
X730648Y124881D01*
X730517Y124921D01*
X730431Y124932D01*
X730346Y124951D01*
X730210Y124958D01*
X730074Y124975D01*
X729987Y124969D01*
X729900Y124974D01*
X729765Y124956D01*
X729628Y124948D01*
X729543Y124927D01*
X729457Y124916D01*
X729327Y124874D01*
X729194Y124842D01*
X729114Y124807D01*
X729032Y124780D01*
X728911Y124716D01*
X728786Y124661D01*
X728714Y124612D01*
X728637Y124571D01*
X728529Y124487D01*
X728416Y124410D01*
X728315Y124318D01*
X728286Y124295D01*
X728270Y124277D01*
X728233Y124244D01*
X727475Y123486D01*
X725576Y121587D01*
X723554Y120749D01*
X716031Y120749D01*
X715845Y120733D01*
X715659Y120721D01*
X715623Y120713D01*
X715586Y120709D01*
X715406Y120660D01*
X715225Y120616D01*
X715191Y120601D01*
X715155Y120591D01*
X714987Y120510D01*
X714817Y120434D01*
X714786Y120414D01*
X714753Y120398D01*
X714601Y120288D01*
X714447Y120183D01*
X714410Y120149D01*
X714391Y120136D01*
X714365Y120109D01*
X714264Y120017D01*
X713996Y119749D01*
X695924Y119749D01*
X694459Y121214D01*
X694459Y131576D01*
X694504Y131721D01*
X694561Y131885D01*
X694569Y131935D01*
X694584Y131983D01*
X694605Y132155D01*
X694632Y132326D01*
X694631Y132376D01*
X694637Y132426D01*
X694627Y132599D01*
X694623Y132773D01*
X694613Y132822D01*
X694610Y132872D01*
X694569Y133041D01*
X694535Y133211D01*
X694516Y133257D01*
X694505Y133306D01*
X694459Y133408D01*
X694459Y143250D01*
X694455Y143300D01*
X694457Y143350D01*
X694435Y143522D01*
X694419Y143695D01*
X694406Y143743D01*
X694400Y143793D01*
X694347Y143958D01*
X694301Y144126D01*
X694279Y144171D01*
X694264Y144218D01*
X694183Y144372D01*
X694108Y144528D01*
X694078Y144569D01*
X694055Y144613D01*
X693948Y144750D01*
X693846Y144890D01*
X693810Y144925D01*
X693779Y144964D01*
X693649Y145080D01*
X693524Y145200D01*
X693482Y145227D01*
X693444Y145261D01*
X693296Y145351D01*
X693152Y145447D01*
X693106Y145467D01*
X693063Y145493D01*
X692901Y145555D01*
X692741Y145624D01*
X692693Y145635D01*
X692646Y145653D01*
X692475Y145686D01*
X692306Y145725D01*
X692256Y145728D01*
X692207Y145737D01*
X691960Y145749D01*
X687500Y145749D01*
X687450Y145745D01*
X687400Y145747D01*
X687228Y145725D01*
X687055Y145709D01*
X687007Y145696D01*
X686957Y145690D01*
X686792Y145637D01*
X686624Y145591D01*
X686579Y145569D01*
X686532Y145554D01*
X686378Y145473D01*
X686222Y145398D01*
X686181Y145368D01*
X686137Y145345D01*
X686000Y145238D01*
X685860Y145136D01*
X685825Y145100D01*
X685786Y145069D01*
X685670Y144939D01*
X685550Y144814D01*
X685523Y144772D01*
X685489Y144734D01*
X685399Y144586D01*
X685303Y144442D01*
X685283Y144396D01*
X685257Y144353D01*
X685195Y144191D01*
X685126Y144031D01*
X685115Y143983D01*
X685097Y143936D01*
X685064Y143765D01*
X685025Y143596D01*
X685023Y143562D01*
X683859Y140751D01*
X681749Y138641D01*
X678992Y137499D01*
X676008Y137499D01*
X673251Y138641D01*
X671141Y140751D01*
X669999Y143508D01*
X669999Y146492D01*
X671141Y149249D01*
X673251Y151359D01*
X676008Y152501D01*
X676186Y152501D01*
X676372Y152517D01*
X676558Y152529D01*
X676594Y152537D01*
X676631Y152541D01*
X676811Y152590D01*
X676992Y152634D01*
X677026Y152649D01*
X677062Y152659D01*
X677231Y152740D01*
X677401Y152816D01*
X677431Y152836D01*
X677465Y152852D01*
X677616Y152962D01*
X677770Y153067D01*
X677808Y153101D01*
X677827Y153114D01*
X677852Y153141D01*
X677953Y153233D01*
X678704Y153983D01*
X678791Y154088D01*
X678886Y154186D01*
X678934Y154259D01*
X678990Y154326D01*
X679058Y154444D01*
X679133Y154558D01*
X679168Y154638D01*
X679211Y154714D01*
X679256Y154843D01*
X679310Y154969D01*
X679330Y155053D01*
X679359Y155135D01*
X679381Y155270D01*
X679411Y155404D01*
X679416Y155490D01*
X679430Y155576D01*
X679427Y155713D01*
X679434Y155850D01*
X679422Y155936D01*
X679421Y156023D01*
X679394Y156157D01*
X679376Y156293D01*
X679350Y156376D01*
X679332Y156461D01*
X679282Y156588D01*
X679240Y156718D01*
X679200Y156795D01*
X679168Y156876D01*
X679095Y156992D01*
X679031Y157113D01*
X678977Y157181D01*
X678931Y157255D01*
X678840Y157357D01*
X678755Y157464D01*
X678690Y157522D01*
X678632Y157586D01*
X678523Y157670D01*
X678421Y157761D01*
X678347Y157806D01*
X678278Y157859D01*
X678156Y157922D01*
X678039Y157993D01*
X677958Y158024D01*
X677881Y158064D01*
X677750Y158104D01*
X677622Y158153D01*
X677537Y158170D01*
X677454Y158195D01*
X677318Y158211D01*
X677184Y158237D01*
X677047Y158244D01*
X677010Y158248D01*
X676987Y158247D01*
X676936Y158249D01*
X676406Y158249D01*
X674384Y159087D01*
X672837Y160634D01*
X672620Y161157D01*
X672577Y161239D01*
X672542Y161326D01*
X672474Y161437D01*
X672413Y161552D01*
X672356Y161626D01*
X672306Y161706D01*
X672219Y161802D01*
X672139Y161905D01*
X672069Y161967D01*
X672006Y162037D01*
X671903Y162116D01*
X671806Y162203D01*
X671727Y162252D01*
X671652Y162309D01*
X671537Y162369D01*
X671426Y162437D01*
X671339Y162471D01*
X671256Y162514D01*
X671131Y162553D01*
X671010Y162600D01*
X670918Y162618D01*
X670829Y162645D01*
X670699Y162661D01*
X670571Y162686D01*
X670478Y162687D01*
X670385Y162698D01*
X670255Y162691D01*
X670125Y162693D01*
X670033Y162677D01*
X669939Y162672D01*
X669812Y162641D01*
X669684Y162620D01*
X669596Y162588D01*
X669505Y162566D01*
X669386Y162513D01*
X669263Y162469D01*
X669182Y162423D01*
X669097Y162385D01*
X668989Y162311D01*
X668876Y162246D01*
X668805Y162186D01*
X668727Y162134D01*
X668544Y161967D01*
X667958Y161382D01*
X664222Y159834D01*
X662705Y159834D01*
X662579Y159823D01*
X662453Y159822D01*
X662358Y159803D01*
X662260Y159794D01*
X662138Y159761D01*
X662015Y159737D01*
X661924Y159702D01*
X661829Y159676D01*
X661716Y159621D01*
X661598Y159576D01*
X661515Y159525D01*
X661427Y159483D01*
X661324Y159409D01*
X661217Y159343D01*
X661144Y159278D01*
X661065Y159221D01*
X660977Y159130D01*
X660883Y159046D01*
X660823Y158969D01*
X660755Y158899D01*
X660686Y158794D01*
X660608Y158694D01*
X660562Y158608D01*
X660508Y158527D01*
X660458Y158411D01*
X660399Y158299D01*
X660370Y158206D01*
X660331Y158116D01*
X660303Y157994D01*
X660265Y157873D01*
X660252Y157776D01*
X660230Y157681D01*
X660224Y157556D01*
X660208Y157430D01*
X660213Y157333D01*
X660208Y157235D01*
X660224Y157110D01*
X660231Y156984D01*
X660253Y156889D01*
X660266Y156792D01*
X660304Y156672D01*
X660333Y156549D01*
X660391Y156398D01*
X660401Y156367D01*
X660409Y156351D01*
X660422Y156318D01*
X663692Y148973D01*
X663692Y141027D01*
X660422Y133682D01*
X660381Y133562D01*
X660331Y133446D01*
X660309Y133351D01*
X660277Y133259D01*
X660259Y133134D01*
X660230Y133011D01*
X660225Y132914D01*
X660210Y132817D01*
X660214Y132691D01*
X660208Y132565D01*
X660220Y132469D01*
X660223Y132371D01*
X660249Y132247D01*
X660266Y132122D01*
X660295Y132029D01*
X660315Y131934D01*
X660363Y131817D01*
X660401Y131697D01*
X660447Y131610D01*
X660484Y131520D01*
X660551Y131413D01*
X660610Y131302D01*
X660671Y131225D01*
X660723Y131143D01*
X660808Y131050D01*
X660886Y130951D01*
X660960Y130886D01*
X661026Y130814D01*
X661126Y130738D01*
X661221Y130654D01*
X661304Y130604D01*
X661382Y130545D01*
X661495Y130488D01*
X661602Y130422D01*
X661693Y130387D01*
X661781Y130343D01*
X661901Y130307D01*
X662019Y130262D01*
X662115Y130243D01*
X662209Y130216D01*
X662334Y130202D01*
X662458Y130178D01*
X662619Y130170D01*
X662653Y130166D01*
X662670Y130167D01*
X662705Y130166D01*
X664222Y130166D01*
X667958Y128618D01*
X670818Y125758D01*
X672366Y122022D01*
X672366Y93978D01*
X670728Y90023D01*
X670695Y89917D01*
X670652Y89815D01*
X670628Y89705D01*
X670594Y89597D01*
X670580Y89487D01*
X670557Y89379D01*
X670553Y89266D01*
X670539Y89153D01*
X670545Y89043D01*
X670541Y88933D01*
X670557Y88821D01*
X670563Y88707D01*
X670589Y88600D01*
X670605Y88490D01*
X670640Y88383D01*
X670667Y88273D01*
X670711Y88172D01*
X670746Y88067D01*
X670800Y87967D01*
X670846Y87864D01*
X670908Y87772D01*
X670961Y87675D01*
X671032Y87587D01*
X671095Y87493D01*
X671172Y87414D01*
X671241Y87328D01*
X671327Y87253D01*
X671406Y87172D01*
X671458Y87135D01*
X672033Y86560D01*
X672368Y85981D01*
X672541Y85334D01*
X672541Y85249D01*
X665000Y85249D01*
X656560Y85249D01*
X656524Y85285D01*
X656482Y85312D01*
X656444Y85346D01*
X656296Y85436D01*
X656152Y85532D01*
X656106Y85552D01*
X656063Y85578D01*
X655901Y85640D01*
X655741Y85709D01*
X655693Y85720D01*
X655646Y85738D01*
X655475Y85771D01*
X655306Y85810D01*
X655256Y85813D01*
X655207Y85822D01*
X654960Y85834D01*
X645726Y85834D01*
X645573Y85821D01*
X645420Y85815D01*
X645351Y85801D01*
X645281Y85794D01*
X645133Y85754D01*
X644983Y85721D01*
X644918Y85695D01*
X644850Y85676D01*
X644712Y85609D01*
X644570Y85551D01*
X644511Y85513D01*
X644448Y85483D01*
X644323Y85393D01*
X644194Y85310D01*
X644143Y85262D01*
X644086Y85221D01*
X643980Y85110D01*
X643867Y85006D01*
X643825Y84949D01*
X643776Y84899D01*
X643692Y84771D01*
X643600Y84648D01*
X643568Y84585D01*
X643529Y84527D01*
X643468Y84386D01*
X643400Y84249D01*
X643380Y84181D01*
X643352Y84116D01*
X643317Y83967D01*
X643274Y83820D01*
X643267Y83750D01*
X643251Y83681D01*
X643243Y83528D01*
X643227Y83376D01*
X643232Y83305D01*
X643229Y83235D01*
X643249Y83083D01*
X643260Y82930D01*
X643282Y82828D01*
X643286Y82792D01*
X643296Y82762D01*
X643312Y82688D01*
X643541Y81834D01*
X643541Y78749D01*
X635250Y78749D01*
X635200Y78745D01*
X635150Y78747D01*
X635027Y78731D01*
X634997Y78737D01*
X634750Y78749D01*
X626459Y78749D01*
X626459Y81834D01*
X626632Y82481D01*
X626682Y82567D01*
X626772Y82760D01*
X626863Y82953D01*
X626866Y82963D01*
X626870Y82972D01*
X626924Y83177D01*
X626980Y83385D01*
X626980Y83395D01*
X626983Y83405D01*
X626999Y83617D01*
X627017Y83830D01*
X627016Y83840D01*
X627017Y83850D01*
X626995Y84062D01*
X626975Y84274D01*
X626972Y84284D01*
X626971Y84294D01*
X626912Y84499D01*
X626854Y84704D01*
X626850Y84714D01*
X626847Y84723D01*
X626752Y84915D01*
X626659Y85106D01*
X626653Y85114D01*
X626648Y85123D01*
X626520Y85296D01*
X626395Y85467D01*
X626388Y85474D01*
X626382Y85482D01*
X626225Y85629D01*
X626071Y85775D01*
X626063Y85780D01*
X626055Y85787D01*
X625876Y85903D01*
X625698Y86020D01*
X625686Y86025D01*
X625680Y86029D01*
X625663Y86037D01*
X625474Y86126D01*
X622442Y87382D01*
X619582Y90242D01*
X618034Y93978D01*
X618034Y122022D01*
X619582Y125758D01*
X622442Y128618D01*
X626178Y130166D01*
X627768Y130166D01*
X627931Y130180D01*
X628095Y130187D01*
X628153Y130200D01*
X628213Y130206D01*
X628371Y130249D01*
X628531Y130285D01*
X628586Y130308D01*
X628643Y130324D01*
X628791Y130395D01*
X628942Y130459D01*
X628992Y130492D01*
X629046Y130517D01*
X629179Y130614D01*
X629316Y130703D01*
X629360Y130744D01*
X629408Y130779D01*
X629522Y130898D01*
X629641Y131010D01*
X629676Y131058D01*
X629717Y131101D01*
X629808Y131238D01*
X629905Y131370D01*
X629932Y131424D01*
X629965Y131473D01*
X630030Y131624D01*
X630102Y131771D01*
X630118Y131829D01*
X630142Y131884D01*
X630179Y132043D01*
X630224Y132201D01*
X630229Y132261D01*
X630243Y132319D01*
X630251Y132482D01*
X630267Y132646D01*
X630262Y132705D01*
X630265Y132765D01*
X630244Y132927D01*
X630230Y133091D01*
X630215Y133149D01*
X630207Y133208D01*
X630157Y133364D01*
X630115Y133523D01*
X630090Y133577D01*
X630072Y133633D01*
X629995Y133778D01*
X629925Y133927D01*
X629878Y133998D01*
X629863Y134028D01*
X629841Y134056D01*
X629790Y134134D01*
X627542Y137227D01*
X625890Y145000D01*
X627542Y152773D01*
X629790Y155866D01*
X629874Y156007D01*
X629965Y156143D01*
X629988Y156198D01*
X630019Y156249D01*
X630077Y156403D01*
X630142Y156554D01*
X630155Y156612D01*
X630176Y156667D01*
X630206Y156829D01*
X630243Y156989D01*
X630246Y157048D01*
X630257Y157107D01*
X630257Y157271D01*
X630265Y157435D01*
X630257Y157494D01*
X630257Y157554D01*
X630228Y157715D01*
X630207Y157878D01*
X630189Y157934D01*
X630179Y157993D01*
X630121Y158147D01*
X630072Y158303D01*
X630044Y158356D01*
X630023Y158412D01*
X629939Y158553D01*
X629863Y158698D01*
X629826Y158745D01*
X629795Y158796D01*
X629688Y158920D01*
X629586Y159049D01*
X629542Y159089D01*
X629503Y159134D01*
X629375Y159237D01*
X629252Y159346D01*
X629201Y159377D01*
X629155Y159414D01*
X629011Y159493D01*
X628871Y159578D01*
X628815Y159599D01*
X628763Y159628D01*
X628607Y159679D01*
X628454Y159738D01*
X628395Y159749D01*
X628339Y159768D01*
X628176Y159791D01*
X628015Y159822D01*
X627929Y159826D01*
X627896Y159831D01*
X627861Y159830D01*
X627768Y159834D01*
X626178Y159834D01*
X622442Y161382D01*
X619582Y164242D01*
X618034Y167978D01*
X618034Y196022D01*
X619582Y199758D01*
X622442Y202618D01*
X626178Y204166D01*
X664222Y204166D01*
X668046Y202582D01*
X668075Y202558D01*
X668194Y202490D01*
X668308Y202414D01*
X668388Y202380D01*
X668464Y202337D01*
X668593Y202291D01*
X668719Y202237D01*
X668803Y202217D01*
X668885Y202189D01*
X669020Y202167D01*
X669154Y202136D01*
X669240Y202132D01*
X669326Y202118D01*
X669463Y202120D01*
X669600Y202114D01*
X669686Y202125D01*
X669773Y202127D01*
X669907Y202154D01*
X670043Y202171D01*
X670126Y202198D01*
X670211Y202215D01*
X670338Y202265D01*
X670468Y202307D01*
X670545Y202348D01*
X670626Y202380D01*
X670742Y202452D01*
X670863Y202516D01*
X670931Y202570D01*
X671005Y202616D01*
X671107Y202708D01*
X671214Y202792D01*
X671272Y202857D01*
X671336Y202915D01*
X671420Y203024D01*
X671511Y203126D01*
X671556Y203201D01*
X671609Y203269D01*
X671672Y203391D01*
X671743Y203508D01*
X671774Y203589D01*
X671814Y203666D01*
X671854Y203797D01*
X671903Y203925D01*
X671920Y204010D01*
X671945Y204093D01*
X671961Y204229D01*
X671987Y204364D01*
X671994Y204500D01*
X671998Y204537D01*
X671997Y204560D01*
X671999Y204611D01*
X671999Y209500D01*
X671995Y209550D01*
X671997Y209600D01*
X671975Y209772D01*
X671959Y209945D01*
X671946Y209993D01*
X671940Y210043D01*
X671887Y210208D01*
X671841Y210376D01*
X671819Y210421D01*
X671804Y210468D01*
X671723Y210622D01*
X671648Y210778D01*
X671618Y210819D01*
X671595Y210863D01*
X671488Y211000D01*
X671386Y211140D01*
X671350Y211175D01*
X671319Y211214D01*
X671189Y211330D01*
X671064Y211450D01*
X671022Y211477D01*
X670984Y211511D01*
X670836Y211601D01*
X670692Y211697D01*
X670646Y211717D01*
X670603Y211743D01*
X670441Y211805D01*
X670281Y211874D01*
X670233Y211885D01*
X670186Y211903D01*
X670015Y211936D01*
X669846Y211975D01*
X669796Y211978D01*
X669747Y211987D01*
X669500Y211999D01*
X616460Y211999D01*
X616367Y211991D01*
X616273Y211992D01*
X616145Y211971D01*
X616015Y211959D01*
X615925Y211935D01*
X615833Y211919D01*
X615710Y211875D01*
X615584Y211841D01*
X615500Y211800D01*
X615412Y211769D01*
X615299Y211704D01*
X615182Y211648D01*
X615106Y211593D01*
X615025Y211546D01*
X614926Y211462D01*
X614820Y211386D01*
X614755Y211318D01*
X614684Y211258D01*
X614601Y211158D01*
X614510Y211064D01*
X614458Y210986D01*
X614399Y210914D01*
X614335Y210800D01*
X614263Y210692D01*
X614226Y210606D01*
X614180Y210524D01*
X614138Y210401D01*
X614086Y210281D01*
X614065Y210191D01*
X614034Y210102D01*
X614014Y209973D01*
X613985Y209846D01*
X613980Y209753D01*
X613966Y209661D01*
X613969Y209530D01*
X613963Y209400D01*
X613975Y209308D01*
X613977Y209214D01*
X614004Y209086D01*
X614020Y208957D01*
X614049Y208868D01*
X614068Y208777D01*
X614151Y208544D01*
X615001Y206492D01*
X615001Y203508D01*
X613859Y200751D01*
X611749Y198641D01*
X608992Y197499D01*
X606008Y197499D01*
X603251Y198641D01*
X603125Y198767D01*
X602982Y198887D01*
X602842Y199011D01*
X602811Y199030D01*
X602782Y199054D01*
X602620Y199146D01*
X602461Y199243D01*
X602426Y199256D01*
X602394Y199274D01*
X602218Y199336D01*
X602044Y199403D01*
X602007Y199410D01*
X601973Y199423D01*
X601788Y199452D01*
X601605Y199487D01*
X601555Y199490D01*
X601531Y199493D01*
X601494Y199492D01*
X601358Y199499D01*
X573906Y199499D01*
X571884Y200337D01*
X569985Y202236D01*
X563454Y208767D01*
X563310Y208887D01*
X563171Y209011D01*
X563139Y209030D01*
X563111Y209054D01*
X562948Y209146D01*
X562789Y209243D01*
X562755Y209256D01*
X562722Y209274D01*
X562546Y209336D01*
X562372Y209403D01*
X562336Y209410D01*
X562301Y209423D01*
X562117Y209452D01*
X561933Y209487D01*
X561883Y209490D01*
X561860Y209493D01*
X561823Y209492D01*
X561686Y209499D01*
X456000Y209499D01*
X455950Y209495D01*
X455900Y209497D01*
X455728Y209475D01*
X455555Y209459D01*
X455507Y209446D01*
X455457Y209440D01*
X455292Y209387D01*
X455124Y209341D01*
X455079Y209319D01*
X455032Y209304D01*
X454878Y209223D01*
X454722Y209148D01*
X454681Y209118D01*
X454637Y209095D01*
X454500Y208988D01*
X454360Y208886D01*
X454325Y208850D01*
X454286Y208819D01*
X454170Y208689D01*
X454050Y208564D01*
X454023Y208522D01*
X453989Y208484D01*
X453899Y208336D01*
X453803Y208192D01*
X453783Y208146D01*
X453757Y208103D01*
X453695Y207941D01*
X453626Y207781D01*
X453615Y207733D01*
X453597Y207686D01*
X453564Y207515D01*
X453525Y207346D01*
X453522Y207296D01*
X453513Y207247D01*
X453501Y207000D01*
X453501Y131832D01*
X453485Y131794D01*
X453442Y131657D01*
X453391Y131523D01*
X453376Y131444D01*
X453352Y131368D01*
X453334Y131225D01*
X453307Y131085D01*
X453301Y130961D01*
X453296Y130924D01*
X453298Y130897D01*
X453295Y130837D01*
X453295Y125794D01*
X453299Y125744D01*
X453297Y125694D01*
X453319Y125522D01*
X453335Y125349D01*
X453348Y125301D01*
X453354Y125251D01*
X453407Y125086D01*
X453453Y124918D01*
X453475Y124873D01*
X453490Y124826D01*
X453571Y124672D01*
X453646Y124516D01*
X453676Y124475D01*
X453699Y124431D01*
X453806Y124294D01*
X453908Y124154D01*
X453944Y124119D01*
X453975Y124080D01*
X454105Y123964D01*
X454230Y123844D01*
X454272Y123817D01*
X454310Y123783D01*
X454458Y123693D01*
X454602Y123597D01*
X454648Y123577D01*
X454691Y123551D01*
X454853Y123489D01*
X455013Y123420D01*
X455061Y123409D01*
X455108Y123391D01*
X455279Y123358D01*
X455448Y123319D01*
X455498Y123316D01*
X455547Y123307D01*
X455794Y123295D01*
X460837Y123295D01*
X460980Y123308D01*
X461123Y123311D01*
X461202Y123327D01*
X461282Y123335D01*
X461420Y123373D01*
X461561Y123402D01*
X461677Y123443D01*
X461713Y123453D01*
X461737Y123465D01*
X461794Y123485D01*
X461832Y123501D01*
X471145Y123501D01*
X471281Y123513D01*
X471418Y123516D01*
X471503Y123533D01*
X471590Y123541D01*
X471722Y123577D01*
X471856Y123604D01*
X471936Y123636D01*
X472020Y123659D01*
X472144Y123718D01*
X472271Y123769D01*
X472345Y123815D01*
X472423Y123852D01*
X472534Y123933D01*
X472650Y124005D01*
X472714Y124063D01*
X472785Y124114D01*
X472880Y124213D01*
X472981Y124305D01*
X473034Y124374D01*
X473094Y124436D01*
X473170Y124550D01*
X473254Y124659D01*
X473294Y124736D01*
X473342Y124808D01*
X473396Y124934D01*
X473459Y125056D01*
X473484Y125139D01*
X473519Y125219D01*
X473550Y125352D01*
X473590Y125483D01*
X473600Y125569D01*
X473620Y125654D01*
X473627Y125790D01*
X473643Y125926D01*
X473638Y126013D01*
X473642Y126100D01*
X473624Y126235D01*
X473616Y126372D01*
X473596Y126457D01*
X473584Y126543D01*
X473543Y126673D01*
X473510Y126806D01*
X473475Y126885D01*
X473449Y126968D01*
X473385Y127089D01*
X473329Y127214D01*
X473280Y127286D01*
X473240Y127363D01*
X473155Y127471D01*
X473078Y127584D01*
X472986Y127685D01*
X472963Y127714D01*
X472946Y127730D01*
X472912Y127767D01*
X468425Y132254D01*
X464999Y140524D01*
X464999Y149476D01*
X468425Y157746D01*
X474754Y164075D01*
X483024Y167501D01*
X491976Y167501D01*
X500246Y164075D01*
X506575Y157746D01*
X506866Y157044D01*
X506869Y157038D01*
X506871Y157032D01*
X506973Y156839D01*
X507073Y156648D01*
X507077Y156643D01*
X507080Y156637D01*
X507216Y156465D01*
X507347Y156295D01*
X507352Y156291D01*
X507356Y156286D01*
X507521Y156140D01*
X507680Y155997D01*
X507686Y155994D01*
X507691Y155989D01*
X507876Y155877D01*
X508061Y155763D01*
X508067Y155761D01*
X508072Y155757D01*
X508274Y155679D01*
X508477Y155600D01*
X508483Y155599D01*
X508489Y155597D01*
X508702Y155556D01*
X508915Y155514D01*
X508921Y155514D01*
X508928Y155513D01*
X509175Y155501D01*
X526089Y155501D01*
X529948Y153902D01*
X532902Y150948D01*
X533504Y149494D01*
X533532Y149441D01*
X533553Y149384D01*
X533636Y149243D01*
X533712Y149098D01*
X533749Y149051D01*
X533779Y148999D01*
X533886Y148874D01*
X533986Y148745D01*
X534026Y148709D01*
X534023Y148586D01*
X534033Y148526D01*
X534034Y148466D01*
X534067Y148306D01*
X534093Y148144D01*
X534113Y148087D01*
X534125Y148028D01*
X534208Y147795D01*
X534501Y147089D01*
X534501Y142911D01*
X534272Y142358D01*
X534218Y142186D01*
X534158Y142016D01*
X534151Y141973D01*
X534138Y141932D01*
X534116Y141753D01*
X534087Y141575D01*
X534088Y141532D01*
X534083Y141488D01*
X534093Y141308D01*
X534094Y141267D01*
X534070Y141242D01*
X534036Y141215D01*
X533916Y141080D01*
X533792Y140950D01*
X533768Y140914D01*
X533739Y140881D01*
X533646Y140727D01*
X533547Y140577D01*
X533521Y140522D01*
X533507Y140499D01*
X533494Y140464D01*
X533441Y140353D01*
X532902Y139052D01*
X529948Y136098D01*
X526089Y134499D01*
X509175Y134499D01*
X509169Y134499D01*
X509162Y134499D01*
X508946Y134479D01*
X508730Y134459D01*
X508724Y134458D01*
X508717Y134457D01*
X508507Y134398D01*
X508299Y134341D01*
X508294Y134338D01*
X508287Y134336D01*
X508094Y134242D01*
X507897Y134148D01*
X507891Y134144D01*
X507886Y134141D01*
X507713Y134015D01*
X507535Y133886D01*
X507530Y133881D01*
X507525Y133877D01*
X507375Y133719D01*
X507225Y133564D01*
X507222Y133558D01*
X507217Y133553D01*
X507096Y133370D01*
X506978Y133192D01*
X506976Y133186D01*
X506972Y133180D01*
X506866Y132956D01*
X506575Y132254D01*
X502088Y127767D01*
X502000Y127662D01*
X501906Y127564D01*
X501857Y127491D01*
X501802Y127424D01*
X501734Y127306D01*
X501658Y127192D01*
X501624Y127112D01*
X501581Y127036D01*
X501535Y126907D01*
X501481Y126781D01*
X501462Y126697D01*
X501433Y126615D01*
X501411Y126479D01*
X501380Y126346D01*
X501376Y126260D01*
X501362Y126174D01*
X501365Y126037D01*
X501358Y125900D01*
X501369Y125814D01*
X501371Y125727D01*
X501398Y125593D01*
X501416Y125457D01*
X501442Y125374D01*
X501459Y125289D01*
X501510Y125162D01*
X501551Y125032D01*
X501592Y124955D01*
X501624Y124874D01*
X501696Y124758D01*
X501760Y124637D01*
X501814Y124569D01*
X501860Y124495D01*
X501952Y124393D01*
X502037Y124286D01*
X502102Y124228D01*
X502160Y124164D01*
X502268Y124080D01*
X502371Y123989D01*
X502445Y123944D01*
X502514Y123891D01*
X502635Y123828D01*
X502752Y123757D01*
X502834Y123726D01*
X502911Y123686D01*
X503041Y123646D01*
X503169Y123597D01*
X503255Y123580D01*
X503338Y123555D01*
X503473Y123539D01*
X503608Y123513D01*
X503745Y123506D01*
X503781Y123502D01*
X503805Y123503D01*
X503855Y123501D01*
X557594Y123501D01*
X559616Y122663D01*
X561163Y121116D01*
X562001Y119094D01*
X562001Y114750D01*
X562005Y114700D01*
X562003Y114650D01*
X562025Y114478D01*
X562041Y114305D01*
X562054Y114257D01*
X562060Y114207D01*
X562113Y114042D01*
X562159Y113874D01*
X562181Y113829D01*
X562196Y113782D01*
X562277Y113628D01*
X562352Y113472D01*
X562382Y113431D01*
X562405Y113387D01*
X562512Y113250D01*
X562614Y113110D01*
X562650Y113075D01*
X562681Y113036D01*
X562811Y112920D01*
X562936Y112800D01*
X562978Y112773D01*
X563016Y112739D01*
X563164Y112649D01*
X563308Y112553D01*
X563354Y112533D01*
X563397Y112507D01*
X563559Y112445D01*
X563719Y112376D01*
X563767Y112365D01*
X563814Y112347D01*
X563985Y112314D01*
X564154Y112275D01*
X564204Y112272D01*
X564253Y112263D01*
X564500Y112251D01*
X567286Y112251D01*
X569033Y110504D01*
X569071Y110472D01*
X569105Y110435D01*
X569243Y110329D01*
X569376Y110217D01*
X569419Y110193D01*
X569459Y110162D01*
X569613Y110082D01*
X569764Y109997D01*
X569811Y109980D01*
X569856Y109957D01*
X570021Y109906D01*
X570185Y109849D01*
X570235Y109841D01*
X570283Y109826D01*
X570455Y109805D01*
X570626Y109778D01*
X570676Y109779D01*
X570726Y109773D01*
X570900Y109783D01*
X571073Y109787D01*
X571122Y109797D01*
X571172Y109800D01*
X571341Y109841D01*
X571511Y109875D01*
X571557Y109894D01*
X571606Y109905D01*
X571765Y109976D01*
X571926Y110040D01*
X571968Y110066D01*
X572014Y110087D01*
X572158Y110184D01*
X572305Y110276D01*
X572342Y110310D01*
X572384Y110338D01*
X572567Y110504D01*
X573564Y111501D01*
X586436Y111501D01*
X587901Y110036D01*
X587901Y97464D01*
X587232Y96796D01*
X587200Y96757D01*
X587163Y96724D01*
X587057Y96586D01*
X586946Y96453D01*
X586921Y96409D01*
X586890Y96370D01*
X586811Y96215D01*
X586725Y96064D01*
X586708Y96017D01*
X586685Y95973D01*
X586634Y95807D01*
X586577Y95643D01*
X586569Y95594D01*
X586554Y95546D01*
X586534Y95374D01*
X586506Y95202D01*
X586507Y95152D01*
X586501Y95102D01*
X586512Y94929D01*
X586515Y94755D01*
X586525Y94706D01*
X586528Y94656D01*
X586569Y94487D01*
X586603Y94317D01*
X586622Y94271D01*
X586634Y94222D01*
X586704Y94063D01*
X586768Y93902D01*
X586795Y93860D01*
X586815Y93814D01*
X586913Y93670D01*
X587004Y93523D01*
X587038Y93486D01*
X587066Y93445D01*
X587232Y93261D01*
X587433Y93060D01*
X587768Y92481D01*
X587941Y91834D01*
X587941Y88874D01*
X580125Y88874D01*
X580075Y88870D01*
X580025Y88872D01*
X579854Y88850D01*
X579680Y88834D01*
X579632Y88821D01*
X579582Y88815D01*
X579417Y88762D01*
X579250Y88716D01*
X579204Y88694D01*
X579157Y88679D01*
X579004Y88598D01*
X578847Y88523D01*
X578806Y88493D01*
X578762Y88470D01*
X578626Y88363D01*
X578485Y88261D01*
X578450Y88225D01*
X578411Y88194D01*
X578296Y88064D01*
X578267Y88034D01*
X578235Y88011D01*
X578200Y87974D01*
X578161Y87943D01*
X578045Y87813D01*
X577925Y87688D01*
X577898Y87647D01*
X577864Y87609D01*
X577774Y87461D01*
X577678Y87316D01*
X577658Y87270D01*
X577632Y87228D01*
X577570Y87066D01*
X577501Y86906D01*
X577490Y86857D01*
X577472Y86811D01*
X577439Y86640D01*
X577400Y86471D01*
X577397Y86421D01*
X577388Y86372D01*
X577376Y86125D01*
X577376Y78459D01*
X574266Y78459D01*
X573619Y78632D01*
X573040Y78967D01*
X572539Y79468D01*
X572500Y79500D01*
X572467Y79537D01*
X572329Y79643D01*
X572196Y79754D01*
X572153Y79779D01*
X572113Y79810D01*
X571958Y79889D01*
X571808Y79975D01*
X571761Y79992D01*
X571716Y80015D01*
X571550Y80066D01*
X571386Y80123D01*
X571337Y80131D01*
X571289Y80146D01*
X571117Y80166D01*
X570945Y80194D01*
X570895Y80193D01*
X570846Y80199D01*
X570672Y80188D01*
X570499Y80185D01*
X570450Y80175D01*
X570400Y80172D01*
X570231Y80131D01*
X570061Y80097D01*
X570014Y80078D01*
X569966Y80066D01*
X569807Y79996D01*
X569646Y79932D01*
X569603Y79905D01*
X569557Y79885D01*
X569414Y79788D01*
X569266Y79696D01*
X569229Y79662D01*
X569188Y79634D01*
X569004Y79468D01*
X567286Y77749D01*
X545714Y77749D01*
X544249Y79214D01*
X544249Y110000D01*
X544245Y110050D01*
X544247Y110100D01*
X544225Y110272D01*
X544209Y110445D01*
X544196Y110493D01*
X544190Y110543D01*
X544137Y110708D01*
X544091Y110876D01*
X544069Y110921D01*
X544054Y110968D01*
X543973Y111122D01*
X543898Y111278D01*
X543868Y111319D01*
X543845Y111363D01*
X543738Y111500D01*
X543636Y111640D01*
X543600Y111675D01*
X543569Y111714D01*
X543439Y111830D01*
X543314Y111950D01*
X543272Y111977D01*
X543234Y112011D01*
X543086Y112101D01*
X542942Y112197D01*
X542896Y112217D01*
X542853Y112243D01*
X542691Y112305D01*
X542531Y112374D01*
X542483Y112385D01*
X542436Y112403D01*
X542265Y112436D01*
X542096Y112475D01*
X542046Y112478D01*
X541997Y112487D01*
X541750Y112499D01*
X528250Y112499D01*
X528200Y112495D01*
X528150Y112497D01*
X527978Y112475D01*
X527805Y112459D01*
X527757Y112446D01*
X527707Y112440D01*
X527542Y112387D01*
X527374Y112341D01*
X527329Y112319D01*
X527282Y112304D01*
X527128Y112223D01*
X526972Y112148D01*
X526931Y112118D01*
X526887Y112095D01*
X526750Y111988D01*
X526610Y111886D01*
X526575Y111850D01*
X526536Y111819D01*
X526420Y111689D01*
X526300Y111564D01*
X526273Y111522D01*
X526239Y111484D01*
X526149Y111336D01*
X526053Y111192D01*
X526033Y111146D01*
X526007Y111103D01*
X525945Y110941D01*
X525876Y110781D01*
X525865Y110733D01*
X525847Y110686D01*
X525814Y110515D01*
X525775Y110346D01*
X525772Y110296D01*
X525763Y110247D01*
X525751Y110000D01*
X525751Y79214D01*
X524286Y77749D01*
X502714Y77749D01*
X500996Y79468D01*
X500957Y79500D01*
X500924Y79537D01*
X500786Y79643D01*
X500653Y79754D01*
X500609Y79779D01*
X500570Y79810D01*
X500415Y79889D01*
X500264Y79975D01*
X500217Y79992D01*
X500173Y80015D01*
X500007Y80065D01*
X499843Y80123D01*
X499793Y80131D01*
X499746Y80146D01*
X499574Y80166D01*
X499402Y80194D01*
X499352Y80193D01*
X499302Y80199D01*
X499129Y80188D01*
X498955Y80185D01*
X498906Y80175D01*
X498856Y80172D01*
X498687Y80131D01*
X498517Y80097D01*
X498471Y80078D01*
X498422Y80066D01*
X498264Y79996D01*
X498102Y79932D01*
X498060Y79905D01*
X498014Y79885D01*
X497870Y79787D01*
X497723Y79696D01*
X497686Y79662D01*
X497645Y79634D01*
X497461Y79468D01*
X496960Y78967D01*
X496381Y78632D01*
X495734Y78459D01*
X492624Y78459D01*
X492624Y86125D01*
X492620Y86175D01*
X492622Y86225D01*
X492600Y86396D01*
X492584Y86570D01*
X492571Y86618D01*
X492565Y86668D01*
X492512Y86833D01*
X492466Y87000D01*
X492444Y87046D01*
X492429Y87093D01*
X492348Y87246D01*
X492273Y87403D01*
X492243Y87444D01*
X492220Y87488D01*
X492113Y87624D01*
X492011Y87765D01*
X491975Y87800D01*
X491944Y87839D01*
X491814Y87954D01*
X491784Y87983D01*
X491761Y88015D01*
X491724Y88050D01*
X491693Y88089D01*
X491563Y88205D01*
X491438Y88325D01*
X491397Y88352D01*
X491359Y88386D01*
X491211Y88476D01*
X491066Y88572D01*
X491020Y88592D01*
X490978Y88618D01*
X490816Y88680D01*
X490656Y88749D01*
X490608Y88760D01*
X490561Y88778D01*
X490390Y88811D01*
X490221Y88850D01*
X490171Y88853D01*
X490122Y88862D01*
X489875Y88874D01*
X482059Y88874D01*
X482059Y91834D01*
X482232Y92481D01*
X482567Y93060D01*
X482768Y93261D01*
X482800Y93300D01*
X482837Y93333D01*
X482943Y93471D01*
X483054Y93604D01*
X483079Y93647D01*
X483110Y93687D01*
X483189Y93842D01*
X483275Y93992D01*
X483292Y94039D01*
X483315Y94084D01*
X483366Y94250D01*
X483423Y94414D01*
X483431Y94463D01*
X483446Y94511D01*
X483466Y94683D01*
X483494Y94855D01*
X483493Y94905D01*
X483499Y94954D01*
X483488Y95128D01*
X483485Y95301D01*
X483475Y95350D01*
X483472Y95400D01*
X483431Y95569D01*
X483397Y95739D01*
X483378Y95786D01*
X483366Y95834D01*
X483296Y95993D01*
X483232Y96154D01*
X483205Y96197D01*
X483185Y96243D01*
X483087Y96387D01*
X482996Y96534D01*
X482962Y96571D01*
X482934Y96612D01*
X482768Y96796D01*
X482099Y97464D01*
X482099Y102000D01*
X482095Y102050D01*
X482097Y102100D01*
X482075Y102272D01*
X482059Y102445D01*
X482046Y102493D01*
X482040Y102543D01*
X481987Y102708D01*
X481941Y102876D01*
X481919Y102921D01*
X481904Y102968D01*
X481823Y103122D01*
X481748Y103278D01*
X481718Y103319D01*
X481695Y103363D01*
X481588Y103500D01*
X481486Y103640D01*
X481450Y103675D01*
X481419Y103714D01*
X481289Y103830D01*
X481164Y103950D01*
X481122Y103977D01*
X481084Y104011D01*
X480936Y104101D01*
X480792Y104197D01*
X480746Y104217D01*
X480703Y104243D01*
X480541Y104305D01*
X480381Y104374D01*
X480333Y104385D01*
X480286Y104403D01*
X480115Y104436D01*
X479946Y104475D01*
X479896Y104478D01*
X479847Y104487D01*
X479600Y104499D01*
X474276Y104499D01*
X474226Y104495D01*
X474176Y104497D01*
X474004Y104475D01*
X473831Y104459D01*
X473783Y104446D01*
X473733Y104440D01*
X473568Y104387D01*
X473400Y104341D01*
X473355Y104319D01*
X473308Y104304D01*
X473154Y104223D01*
X472998Y104148D01*
X472957Y104118D01*
X472913Y104095D01*
X472776Y103988D01*
X472636Y103886D01*
X472601Y103850D01*
X472562Y103819D01*
X472446Y103689D01*
X472326Y103564D01*
X472299Y103522D01*
X472265Y103484D01*
X472175Y103336D01*
X472079Y103192D01*
X472059Y103146D01*
X472033Y103103D01*
X471971Y102941D01*
X471902Y102781D01*
X471891Y102733D01*
X471873Y102686D01*
X471840Y102515D01*
X471801Y102346D01*
X471798Y102296D01*
X471789Y102247D01*
X471777Y102000D01*
X471777Y97607D01*
X471780Y97568D01*
X471779Y97540D01*
X471792Y97440D01*
X471795Y97405D01*
X471810Y97202D01*
X471815Y97176D01*
X471817Y97162D01*
X471817Y96499D01*
X464518Y96499D01*
X464516Y96499D01*
X462926Y96499D01*
X462876Y96495D01*
X462827Y96497D01*
X462655Y96475D01*
X462481Y96459D01*
X462433Y96446D01*
X462384Y96440D01*
X462218Y96387D01*
X462051Y96341D01*
X462006Y96319D01*
X461958Y96304D01*
X461805Y96223D01*
X461648Y96148D01*
X461607Y96118D01*
X461563Y96095D01*
X461427Y95988D01*
X461286Y95886D01*
X461251Y95850D01*
X461212Y95819D01*
X461097Y95689D01*
X460977Y95564D01*
X460949Y95522D01*
X460916Y95484D01*
X460826Y95336D01*
X460729Y95192D01*
X460710Y95146D01*
X460684Y95103D01*
X460621Y94941D01*
X460552Y94781D01*
X460541Y94733D01*
X460523Y94686D01*
X460490Y94515D01*
X460451Y94346D01*
X460449Y94296D01*
X460439Y94247D01*
X460427Y94000D01*
X460432Y93950D01*
X460429Y93900D01*
X460451Y93728D01*
X460467Y93555D01*
X460480Y93507D01*
X460487Y93457D01*
X460539Y93292D01*
X460585Y93124D01*
X460607Y93079D01*
X460622Y93032D01*
X460703Y92878D01*
X460779Y92722D01*
X460808Y92681D01*
X460832Y92637D01*
X460939Y92500D01*
X461041Y92360D01*
X461077Y92325D01*
X461108Y92286D01*
X461238Y92170D01*
X461363Y92050D01*
X461404Y92023D01*
X461442Y91989D01*
X461590Y91899D01*
X461735Y91803D01*
X461781Y91783D01*
X461823Y91757D01*
X461986Y91695D01*
X462145Y91626D01*
X462193Y91615D01*
X462240Y91597D01*
X462411Y91564D01*
X462580Y91525D01*
X462630Y91522D01*
X462679Y91513D01*
X462926Y91501D01*
X464515Y91501D01*
X464518Y91501D01*
X471817Y91501D01*
X471817Y90786D01*
X471789Y90640D01*
X471788Y90613D01*
X471785Y90600D01*
X471785Y90570D01*
X471777Y90393D01*
X471777Y81607D01*
X471795Y81405D01*
X471810Y81202D01*
X471815Y81176D01*
X471817Y81162D01*
X471817Y80499D01*
X464518Y80499D01*
X464516Y80499D01*
X462926Y80499D01*
X448906Y80499D01*
X446884Y81337D01*
X445337Y82884D01*
X444499Y84906D01*
X444499Y86000D01*
X444495Y86050D01*
X444497Y86100D01*
X444475Y86272D01*
X444459Y86445D01*
X444446Y86493D01*
X444440Y86543D01*
X444387Y86708D01*
X444341Y86876D01*
X444319Y86921D01*
X444304Y86968D01*
X444223Y87121D01*
X444148Y87278D01*
X444118Y87319D01*
X444095Y87363D01*
X443988Y87500D01*
X443886Y87640D01*
X443850Y87675D01*
X443819Y87714D01*
X443689Y87830D01*
X443564Y87950D01*
X443522Y87977D01*
X443484Y88011D01*
X443336Y88101D01*
X443192Y88197D01*
X443146Y88217D01*
X443103Y88243D01*
X442941Y88305D01*
X442781Y88374D01*
X442733Y88385D01*
X442686Y88403D01*
X442515Y88436D01*
X442346Y88475D01*
X442296Y88478D01*
X442247Y88487D01*
X442000Y88499D01*
X388424Y88499D01*
X388374Y88495D01*
X388324Y88497D01*
X388152Y88475D01*
X387979Y88459D01*
X387931Y88446D01*
X387881Y88440D01*
X387716Y88387D01*
X387548Y88341D01*
X387503Y88319D01*
X387456Y88304D01*
X387302Y88223D01*
X387146Y88148D01*
X387105Y88118D01*
X387061Y88095D01*
X386924Y87988D01*
X386784Y87886D01*
X386749Y87850D01*
X386710Y87819D01*
X386594Y87689D01*
X386474Y87564D01*
X386447Y87522D01*
X386413Y87484D01*
X386323Y87336D01*
X386227Y87192D01*
X386207Y87146D01*
X386181Y87103D01*
X386119Y86941D01*
X386050Y86781D01*
X386039Y86733D01*
X386021Y86686D01*
X385988Y86515D01*
X385949Y86346D01*
X385946Y86296D01*
X385937Y86247D01*
X385925Y86000D01*
X385925Y58424D01*
X385929Y58374D01*
X385927Y58324D01*
X385949Y58152D01*
X385965Y57979D01*
X385978Y57931D01*
X385984Y57881D01*
X386037Y57716D01*
X386083Y57548D01*
X386105Y57503D01*
X386120Y57456D01*
X386201Y57302D01*
X386276Y57146D01*
X386306Y57105D01*
X386329Y57061D01*
X386436Y56924D01*
X386538Y56784D01*
X386574Y56749D01*
X386605Y56710D01*
X386735Y56594D01*
X386860Y56474D01*
X386902Y56447D01*
X386940Y56413D01*
X387088Y56323D01*
X387232Y56227D01*
X387278Y56207D01*
X387321Y56181D01*
X387483Y56119D01*
X387643Y56050D01*
X387691Y56039D01*
X387738Y56021D01*
X387909Y55988D01*
X388078Y55949D01*
X388128Y55946D01*
X388177Y55937D01*
X388424Y55925D01*
X451576Y55925D01*
X451626Y55929D01*
X451676Y55927D01*
X451848Y55949D01*
X452021Y55965D01*
X452069Y55978D01*
X452119Y55984D01*
X452284Y56037D01*
X452452Y56083D01*
X452497Y56105D01*
X452544Y56120D01*
X452698Y56201D01*
X452854Y56276D01*
X452895Y56306D01*
X452939Y56329D01*
X453076Y56436D01*
X453216Y56538D01*
X453251Y56574D01*
X453290Y56605D01*
X453406Y56735D01*
X453526Y56860D01*
X453553Y56902D01*
X453587Y56940D01*
X453677Y57088D01*
X453773Y57232D01*
X453793Y57278D01*
X453819Y57321D01*
X453881Y57483D01*
X453950Y57643D01*
X453961Y57691D01*
X453979Y57738D01*
X454012Y57909D01*
X454051Y58078D01*
X454054Y58128D01*
X454063Y58177D01*
X454075Y58424D01*
X454075Y74393D01*
X454057Y74597D01*
X454042Y74798D01*
X454037Y74824D01*
X454035Y74838D01*
X454035Y75501D01*
X461334Y75501D01*
X461336Y75501D01*
X462926Y75501D01*
X480512Y75501D01*
X480546Y75504D01*
X480579Y75502D01*
X480768Y75524D01*
X480957Y75541D01*
X480990Y75550D01*
X481023Y75553D01*
X481204Y75608D01*
X481388Y75659D01*
X481418Y75674D01*
X481450Y75683D01*
X481619Y75770D01*
X481791Y75852D01*
X481818Y75872D01*
X481847Y75887D01*
X481998Y76003D01*
X482153Y76114D01*
X482176Y76138D01*
X482202Y76159D01*
X482331Y76300D01*
X482462Y76436D01*
X482481Y76464D01*
X482503Y76489D01*
X482604Y76650D01*
X482709Y76808D01*
X482723Y76839D01*
X482740Y76867D01*
X482811Y77044D01*
X482886Y77219D01*
X482894Y77251D01*
X482906Y77282D01*
X482944Y77468D01*
X482988Y77654D01*
X482989Y77687D01*
X482996Y77720D01*
X483000Y77910D01*
X483010Y78100D01*
X483005Y78133D01*
X483006Y78166D01*
X482976Y78355D01*
X482952Y78543D01*
X482942Y78575D01*
X482937Y78608D01*
X482874Y78788D01*
X482816Y78968D01*
X482801Y78998D01*
X482790Y79029D01*
X482677Y79250D01*
X482232Y80019D01*
X482059Y80666D01*
X482059Y83626D01*
X487376Y83626D01*
X487376Y78459D01*
X485354Y78459D01*
X485217Y78447D01*
X485081Y78444D01*
X484996Y78427D01*
X484909Y78419D01*
X484777Y78383D01*
X484643Y78356D01*
X484562Y78324D01*
X484478Y78301D01*
X484355Y78242D01*
X484228Y78191D01*
X484154Y78145D01*
X484075Y78108D01*
X483964Y78027D01*
X483848Y77955D01*
X483784Y77897D01*
X483713Y77846D01*
X483619Y77747D01*
X483517Y77655D01*
X483464Y77586D01*
X483404Y77524D01*
X483328Y77410D01*
X483245Y77301D01*
X483205Y77224D01*
X483157Y77152D01*
X483102Y77026D01*
X483040Y76904D01*
X483014Y76821D01*
X482980Y76741D01*
X482949Y76608D01*
X482909Y76477D01*
X482898Y76391D01*
X482879Y76306D01*
X482872Y76170D01*
X482855Y76034D01*
X482861Y75947D01*
X482856Y75860D01*
X482874Y75725D01*
X482882Y75588D01*
X482903Y75503D01*
X482914Y75417D01*
X482956Y75287D01*
X482988Y75154D01*
X483023Y75075D01*
X483050Y74992D01*
X483114Y74871D01*
X483169Y74746D01*
X483218Y74674D01*
X483259Y74597D01*
X483344Y74489D01*
X483420Y74376D01*
X483512Y74275D01*
X483535Y74246D01*
X483553Y74230D01*
X483586Y74193D01*
X486546Y71233D01*
X486690Y71113D01*
X486829Y70989D01*
X486861Y70970D01*
X486889Y70946D01*
X487052Y70854D01*
X487211Y70757D01*
X487245Y70744D01*
X487278Y70726D01*
X487453Y70664D01*
X487628Y70597D01*
X487664Y70590D01*
X487699Y70577D01*
X487883Y70548D01*
X488067Y70513D01*
X488117Y70510D01*
X488140Y70507D01*
X488177Y70508D01*
X488314Y70501D01*
X536094Y70501D01*
X538116Y69663D01*
X539663Y68116D01*
X540501Y66094D01*
X540501Y33000D01*
X540505Y32950D01*
X540503Y32900D01*
X540525Y32728D01*
X540541Y32555D01*
X540554Y32507D01*
X540560Y32457D01*
X540613Y32292D01*
X540659Y32124D01*
X540681Y32079D01*
X540696Y32032D01*
X540777Y31878D01*
X540852Y31722D01*
X540882Y31681D01*
X540905Y31637D01*
X541012Y31500D01*
X541114Y31360D01*
X541150Y31325D01*
X541181Y31286D01*
X541311Y31170D01*
X541436Y31050D01*
X541478Y31023D01*
X541516Y30989D01*
X541664Y30899D01*
X541808Y30803D01*
X541854Y30783D01*
X541897Y30757D01*
X542059Y30695D01*
X542219Y30626D01*
X542267Y30615D01*
X542314Y30597D01*
X542485Y30564D01*
X542654Y30525D01*
X542704Y30522D01*
X542753Y30513D01*
X543000Y30501D01*
X548858Y30501D01*
X549044Y30517D01*
X549230Y30529D01*
X549266Y30537D01*
X549303Y30541D01*
X549483Y30590D01*
X549664Y30634D01*
X549698Y30649D01*
X549733Y30659D01*
X549902Y30740D01*
X550072Y30816D01*
X550103Y30836D01*
X550136Y30852D01*
X550287Y30962D01*
X550442Y31067D01*
X550479Y31101D01*
X550498Y31114D01*
X550524Y31141D01*
X550625Y31233D01*
X550751Y31359D01*
X553508Y32501D01*
X556492Y32501D01*
X559249Y31359D01*
X561359Y29249D01*
X562501Y26492D01*
X562501Y23508D01*
X561719Y21621D01*
X561691Y21532D01*
X561654Y21446D01*
X561625Y21320D01*
X561586Y21195D01*
X561574Y21102D01*
X561553Y21011D01*
X561547Y20881D01*
X561531Y20752D01*
X561536Y20658D01*
X561531Y20565D01*
X561548Y20436D01*
X561555Y20306D01*
X561577Y20215D01*
X561589Y20122D01*
X561628Y19998D01*
X561658Y19871D01*
X561696Y19786D01*
X561724Y19697D01*
X561785Y19581D01*
X561838Y19462D01*
X561890Y19385D01*
X561933Y19302D01*
X562014Y19199D01*
X562087Y19091D01*
X562152Y19024D01*
X562210Y18951D01*
X562307Y18864D01*
X562398Y18771D01*
X562474Y18716D01*
X562544Y18654D01*
X562655Y18587D01*
X562761Y18511D01*
X562846Y18471D01*
X562925Y18422D01*
X563047Y18375D01*
X563165Y18320D01*
X563255Y18295D01*
X563342Y18262D01*
X563471Y18237D01*
X563596Y18203D01*
X563689Y18196D01*
X563781Y18178D01*
X564028Y18166D01*
X687000Y18166D01*
X687050Y18170D01*
X687100Y18168D01*
X687272Y18190D01*
X687445Y18206D01*
X687493Y18219D01*
X687543Y18225D01*
X687708Y18278D01*
X687876Y18324D01*
X687921Y18346D01*
X687968Y18361D01*
X688122Y18442D01*
X688278Y18517D01*
X688319Y18547D01*
X688363Y18570D01*
X688500Y18677D01*
X688640Y18779D01*
X688675Y18815D01*
X688714Y18846D01*
X688830Y18976D01*
X688950Y19101D01*
X688977Y19143D01*
X689011Y19181D01*
X689101Y19329D01*
X689197Y19473D01*
X689217Y19519D01*
X689243Y19562D01*
X689305Y19724D01*
X689374Y19884D01*
X689385Y19932D01*
X689403Y19979D01*
X689436Y20150D01*
X689475Y20319D01*
X689478Y20369D01*
X689487Y20418D01*
X689499Y20665D01*
X689499Y28500D01*
X689495Y28550D01*
X689497Y28600D01*
X689475Y28772D01*
X689459Y28945D01*
X689446Y28993D01*
X689440Y29043D01*
X689387Y29208D01*
X689341Y29376D01*
X689319Y29421D01*
X689304Y29468D01*
X689223Y29622D01*
X689148Y29778D01*
X689118Y29819D01*
X689095Y29863D01*
X688988Y30000D01*
X688886Y30140D01*
X688850Y30175D01*
X688819Y30214D01*
X688689Y30330D01*
X688564Y30450D01*
X688522Y30477D01*
X688484Y30511D01*
X688404Y30560D01*
X686499Y32464D01*
X686499Y45536D01*
X687964Y47001D01*
X702036Y47001D01*
X702804Y46233D01*
X702947Y46113D01*
X703087Y45989D01*
X703118Y45970D01*
X703147Y45946D01*
X703309Y45854D01*
X703468Y45757D01*
X703503Y45744D01*
X703535Y45726D01*
X703711Y45664D01*
X703885Y45597D01*
X703922Y45590D01*
X703956Y45578D01*
X704140Y45548D01*
X704324Y45513D01*
X704374Y45510D01*
X704397Y45507D01*
X704434Y45508D01*
X704571Y45501D01*
X707505Y45501D01*
X707600Y45509D01*
X707696Y45508D01*
X707822Y45529D01*
X707949Y45541D01*
X708042Y45566D01*
X708137Y45582D01*
X708257Y45625D01*
X708380Y45659D01*
X708467Y45701D01*
X708557Y45733D01*
X708668Y45797D01*
X708783Y45852D01*
X708861Y45909D01*
X708944Y45957D01*
X709041Y46039D01*
X709145Y46114D01*
X709211Y46184D01*
X709285Y46246D01*
X709366Y46344D01*
X709454Y46436D01*
X709507Y46516D01*
X709568Y46591D01*
X709631Y46702D01*
X709701Y46808D01*
X709740Y46897D01*
X709786Y46981D01*
X709828Y47101D01*
X709878Y47219D01*
X709900Y47312D01*
X709931Y47403D01*
X709951Y47529D01*
X709980Y47654D01*
X709984Y47750D01*
X709985Y47752D01*
X709987Y47764D01*
X709987Y47768D01*
X709999Y47845D01*
X709996Y47948D01*
X709999Y48011D01*
X709999Y48049D01*
X710002Y48100D01*
X709999Y48119D01*
X709999Y51492D01*
X711141Y54249D01*
X713251Y56359D01*
X716008Y57501D01*
X718992Y57501D01*
X721749Y56359D01*
X723859Y54249D01*
X725001Y51492D01*
X725001Y48508D01*
X723859Y45751D01*
X723733Y45625D01*
X723613Y45482D01*
X723489Y45342D01*
X723470Y45311D01*
X723446Y45282D01*
X723354Y45120D01*
X723257Y44961D01*
X723244Y44926D01*
X723226Y44894D01*
X723164Y44718D01*
X723097Y44544D01*
X723090Y44507D01*
X723077Y44473D01*
X723048Y44288D01*
X723013Y44105D01*
X723010Y44055D01*
X723007Y44031D01*
X723008Y43994D01*
X723001Y43858D01*
X723001Y38906D01*
X722163Y36884D01*
X720616Y35337D01*
X718594Y34499D01*
X706000Y34499D01*
X705950Y34495D01*
X705900Y34497D01*
X705728Y34475D01*
X705555Y34459D01*
X705507Y34446D01*
X705457Y34440D01*
X705292Y34387D01*
X705124Y34341D01*
X705079Y34319D01*
X705032Y34304D01*
X704878Y34223D01*
X704722Y34148D01*
X704681Y34118D01*
X704637Y34095D01*
X704500Y33988D01*
X704360Y33886D01*
X704325Y33850D01*
X704286Y33819D01*
X704170Y33689D01*
X704050Y33564D01*
X704023Y33522D01*
X703989Y33484D01*
X703899Y33336D01*
X703803Y33192D01*
X703783Y33146D01*
X703757Y33103D01*
X703695Y32941D01*
X703626Y32781D01*
X703615Y32733D01*
X703597Y32686D01*
X703567Y32530D01*
X701611Y30575D01*
X701500Y30488D01*
X701360Y30386D01*
X701325Y30350D01*
X701286Y30319D01*
X701170Y30189D01*
X701050Y30064D01*
X701023Y30022D01*
X700989Y29984D01*
X700899Y29836D01*
X700803Y29692D01*
X700783Y29646D01*
X700757Y29603D01*
X700695Y29441D01*
X700626Y29281D01*
X700615Y29233D01*
X700597Y29186D01*
X700564Y29015D01*
X700525Y28846D01*
X700522Y28796D01*
X700513Y28747D01*
X700501Y28500D01*
X700501Y12665D01*
X700505Y12615D01*
X700503Y12565D01*
X700525Y12393D01*
X700541Y12220D01*
X700554Y12172D01*
X700560Y12122D01*
X700613Y11957D01*
X700659Y11789D01*
X700681Y11744D01*
X700696Y11697D01*
X700777Y11543D01*
X700852Y11387D01*
X700882Y11346D01*
X700905Y11302D01*
X701012Y11165D01*
X701114Y11025D01*
X701150Y10990D01*
X701181Y10951D01*
X701311Y10835D01*
X701436Y10715D01*
X701478Y10688D01*
X701516Y10654D01*
X701664Y10564D01*
X701808Y10468D01*
X701854Y10448D01*
X701897Y10422D01*
X702059Y10360D01*
X702219Y10291D01*
X702267Y10280D01*
X702314Y10262D01*
X702485Y10229D01*
X702654Y10190D01*
X702704Y10187D01*
X702753Y10178D01*
X703000Y10166D01*
X770000Y10166D01*
X770050Y10170D01*
G37*
G36*
X277300Y30505D02*
X277300Y30505D01*
X277350Y30503D01*
X277522Y30525D01*
X277695Y30541D01*
X277743Y30554D01*
X277793Y30560D01*
X277958Y30613D01*
X278126Y30659D01*
X278171Y30681D01*
X278218Y30696D01*
X278372Y30777D01*
X278528Y30852D01*
X278569Y30882D01*
X278613Y30905D01*
X278750Y31012D01*
X278890Y31114D01*
X278925Y31150D01*
X278964Y31181D01*
X279080Y31311D01*
X279200Y31436D01*
X279227Y31478D01*
X279261Y31516D01*
X279351Y31664D01*
X279447Y31808D01*
X279467Y31854D01*
X279493Y31897D01*
X279555Y32059D01*
X279624Y32219D01*
X279635Y32267D01*
X279653Y32314D01*
X279686Y32485D01*
X279725Y32654D01*
X279728Y32704D01*
X279737Y32753D01*
X279749Y33000D01*
X279749Y36729D01*
X279733Y36915D01*
X279721Y37101D01*
X279713Y37137D01*
X279709Y37174D01*
X279660Y37354D01*
X279616Y37535D01*
X279601Y37569D01*
X279591Y37605D01*
X279510Y37773D01*
X279434Y37943D01*
X279414Y37974D01*
X279398Y38007D01*
X279288Y38158D01*
X279183Y38313D01*
X279149Y38350D01*
X279136Y38369D01*
X279109Y38395D01*
X279017Y38496D01*
X276949Y40564D01*
X276949Y46683D01*
X276933Y46862D01*
X276923Y47042D01*
X276913Y47085D01*
X276909Y47128D01*
X276862Y47302D01*
X276820Y47477D01*
X276802Y47517D01*
X276791Y47559D01*
X276713Y47722D01*
X276641Y47886D01*
X276616Y47922D01*
X276598Y47962D01*
X276492Y48108D01*
X276392Y48257D01*
X276361Y48288D01*
X276336Y48323D01*
X276206Y48448D01*
X276080Y48577D01*
X276045Y48603D01*
X276014Y48633D01*
X275864Y48732D01*
X275717Y48837D01*
X275678Y48856D01*
X275642Y48880D01*
X275476Y48951D01*
X275313Y49029D01*
X275271Y49040D01*
X275231Y49057D01*
X275057Y49098D01*
X274882Y49145D01*
X274839Y49148D01*
X274796Y49158D01*
X274617Y49167D01*
X274437Y49182D01*
X274394Y49178D01*
X274350Y49180D01*
X274172Y49157D01*
X273992Y49140D01*
X273950Y49128D01*
X273907Y49123D01*
X273735Y49068D01*
X273562Y49019D01*
X273523Y49000D01*
X273482Y48987D01*
X273323Y48903D01*
X273161Y48824D01*
X273125Y48798D01*
X273087Y48778D01*
X272946Y48667D01*
X272800Y48560D01*
X272770Y48529D01*
X272736Y48502D01*
X272616Y48367D01*
X272492Y48237D01*
X272468Y48200D01*
X272439Y48168D01*
X272346Y48014D01*
X272247Y47863D01*
X272221Y47809D01*
X272207Y47786D01*
X272194Y47751D01*
X272141Y47640D01*
X271359Y45751D01*
X269249Y43641D01*
X266492Y42499D01*
X263508Y42499D01*
X260751Y43641D01*
X258641Y45751D01*
X257499Y48508D01*
X257499Y51492D01*
X258641Y54249D01*
X258767Y54375D01*
X258887Y54518D01*
X259011Y54658D01*
X259030Y54689D01*
X259054Y54718D01*
X259146Y54880D01*
X259243Y55039D01*
X259256Y55074D01*
X259274Y55106D01*
X259336Y55282D01*
X259403Y55456D01*
X259410Y55493D01*
X259423Y55527D01*
X259452Y55712D01*
X259487Y55895D01*
X259490Y55945D01*
X259493Y55969D01*
X259492Y56006D01*
X259499Y56142D01*
X259499Y81094D01*
X260337Y83116D01*
X261884Y84663D01*
X263906Y85501D01*
X274450Y85501D01*
X274500Y85505D01*
X274550Y85503D01*
X274722Y85525D01*
X274895Y85541D01*
X274943Y85554D01*
X274993Y85560D01*
X275158Y85613D01*
X275326Y85659D01*
X275371Y85681D01*
X275418Y85696D01*
X275572Y85777D01*
X275728Y85852D01*
X275769Y85882D01*
X275813Y85905D01*
X275950Y86012D01*
X276090Y86114D01*
X276125Y86150D01*
X276164Y86181D01*
X276280Y86311D01*
X276400Y86436D01*
X276427Y86478D01*
X276461Y86516D01*
X276551Y86664D01*
X276647Y86808D01*
X276667Y86854D01*
X276693Y86897D01*
X276755Y87059D01*
X276824Y87219D01*
X276835Y87267D01*
X276853Y87314D01*
X276886Y87485D01*
X276925Y87654D01*
X276928Y87704D01*
X276937Y87753D01*
X276949Y88000D01*
X276949Y89436D01*
X278414Y90901D01*
X290500Y90901D01*
X290550Y90905D01*
X290600Y90903D01*
X290772Y90925D01*
X290945Y90941D01*
X290993Y90954D01*
X291043Y90960D01*
X291208Y91013D01*
X291376Y91059D01*
X291421Y91081D01*
X291468Y91096D01*
X291622Y91177D01*
X291778Y91252D01*
X291819Y91282D01*
X291863Y91305D01*
X292000Y91412D01*
X292140Y91514D01*
X292175Y91550D01*
X292214Y91581D01*
X292330Y91711D01*
X292450Y91836D01*
X292477Y91878D01*
X292511Y91916D01*
X292601Y92064D01*
X292697Y92208D01*
X292717Y92254D01*
X292743Y92297D01*
X292805Y92459D01*
X292874Y92619D01*
X292885Y92667D01*
X292903Y92714D01*
X292936Y92885D01*
X292975Y93054D01*
X292978Y93104D01*
X292987Y93153D01*
X292999Y93400D01*
X292999Y96600D01*
X292995Y96650D01*
X292997Y96700D01*
X292975Y96872D01*
X292959Y97045D01*
X292946Y97093D01*
X292940Y97143D01*
X292887Y97308D01*
X292841Y97476D01*
X292819Y97521D01*
X292804Y97568D01*
X292723Y97722D01*
X292648Y97878D01*
X292618Y97919D01*
X292595Y97963D01*
X292488Y98100D01*
X292386Y98240D01*
X292350Y98275D01*
X292319Y98314D01*
X292189Y98430D01*
X292064Y98550D01*
X292022Y98577D01*
X291984Y98611D01*
X291836Y98701D01*
X291692Y98797D01*
X291646Y98817D01*
X291603Y98843D01*
X291441Y98905D01*
X291281Y98974D01*
X291233Y98985D01*
X291186Y99003D01*
X291015Y99036D01*
X290846Y99075D01*
X290796Y99078D01*
X290747Y99087D01*
X290500Y99099D01*
X278414Y99099D01*
X276949Y100564D01*
X276949Y101167D01*
X276949Y101174D01*
X276949Y101180D01*
X276929Y101394D01*
X276909Y101612D01*
X276908Y101618D01*
X276907Y101625D01*
X276849Y101831D01*
X276791Y102043D01*
X276788Y102049D01*
X276786Y102055D01*
X276692Y102248D01*
X276598Y102445D01*
X276594Y102451D01*
X276591Y102457D01*
X276463Y102632D01*
X276336Y102807D01*
X276331Y102812D01*
X276327Y102817D01*
X276168Y102968D01*
X276014Y103117D01*
X276008Y103120D01*
X276003Y103125D01*
X275821Y103245D01*
X275642Y103364D01*
X275636Y103367D01*
X275630Y103370D01*
X275406Y103476D01*
X273984Y104065D01*
X266182Y111867D01*
X266039Y111987D01*
X265899Y112111D01*
X265868Y112130D01*
X265839Y112154D01*
X265677Y112246D01*
X265518Y112343D01*
X265483Y112356D01*
X265451Y112374D01*
X265275Y112436D01*
X265101Y112503D01*
X265065Y112510D01*
X265030Y112523D01*
X264845Y112552D01*
X264662Y112587D01*
X264612Y112590D01*
X264589Y112593D01*
X264552Y112592D01*
X264415Y112599D01*
X256967Y112599D01*
X256781Y112583D01*
X256595Y112571D01*
X256559Y112563D01*
X256522Y112559D01*
X256342Y112510D01*
X256161Y112466D01*
X256128Y112451D01*
X256092Y112441D01*
X255923Y112360D01*
X255753Y112284D01*
X255722Y112264D01*
X255689Y112248D01*
X255538Y112138D01*
X255384Y112033D01*
X255346Y111999D01*
X255327Y111986D01*
X255302Y111959D01*
X255200Y111867D01*
X254353Y111020D01*
X250633Y109479D01*
X231367Y109479D01*
X227647Y111020D01*
X224800Y113867D01*
X223259Y117587D01*
X223259Y121613D01*
X224800Y125333D01*
X227647Y128180D01*
X231367Y129721D01*
X250633Y129721D01*
X254353Y128180D01*
X255200Y127333D01*
X255343Y127213D01*
X255483Y127089D01*
X255515Y127070D01*
X255543Y127046D01*
X255705Y126954D01*
X255865Y126857D01*
X255899Y126844D01*
X255931Y126826D01*
X256107Y126764D01*
X256281Y126697D01*
X256318Y126690D01*
X256353Y126677D01*
X256537Y126648D01*
X256720Y126613D01*
X256771Y126610D01*
X256794Y126607D01*
X256831Y126608D01*
X256967Y126601D01*
X259250Y126601D01*
X259300Y126605D01*
X259350Y126603D01*
X259522Y126625D01*
X259695Y126641D01*
X259743Y126654D01*
X259793Y126660D01*
X259958Y126713D01*
X260126Y126759D01*
X260171Y126781D01*
X260218Y126796D01*
X260372Y126877D01*
X260528Y126952D01*
X260569Y126982D01*
X260613Y127005D01*
X260750Y127112D01*
X260890Y127214D01*
X260925Y127250D01*
X260964Y127281D01*
X261080Y127411D01*
X261200Y127536D01*
X261227Y127578D01*
X261261Y127616D01*
X261351Y127764D01*
X261447Y127908D01*
X261467Y127954D01*
X261493Y127997D01*
X261555Y128159D01*
X261624Y128319D01*
X261635Y128367D01*
X261653Y128414D01*
X261686Y128585D01*
X261725Y128754D01*
X261728Y128804D01*
X261737Y128853D01*
X261749Y129100D01*
X261749Y137783D01*
X261737Y137919D01*
X261734Y138056D01*
X261717Y138141D01*
X261709Y138228D01*
X261673Y138360D01*
X261646Y138494D01*
X261614Y138574D01*
X261591Y138658D01*
X261532Y138782D01*
X261481Y138909D01*
X261435Y138983D01*
X261398Y139061D01*
X261317Y139172D01*
X261245Y139288D01*
X261187Y139352D01*
X261136Y139423D01*
X261037Y139518D01*
X260945Y139619D01*
X260876Y139672D01*
X260814Y139732D01*
X260700Y139808D01*
X260591Y139892D01*
X260514Y139932D01*
X260442Y139980D01*
X260316Y140034D01*
X260194Y140097D01*
X260111Y140122D01*
X260031Y140157D01*
X259898Y140188D01*
X259767Y140228D01*
X259681Y140238D01*
X259596Y140258D01*
X259460Y140265D01*
X259324Y140281D01*
X259237Y140276D01*
X259150Y140280D01*
X259015Y140262D01*
X258878Y140254D01*
X258793Y140234D01*
X258707Y140222D01*
X258577Y140181D01*
X258444Y140148D01*
X258365Y140113D01*
X258282Y140087D01*
X258161Y140023D01*
X258036Y139967D01*
X257964Y139918D01*
X257887Y139878D01*
X257779Y139793D01*
X257666Y139716D01*
X257565Y139624D01*
X257536Y139601D01*
X257520Y139584D01*
X257483Y139550D01*
X254353Y136420D01*
X250633Y134879D01*
X231367Y134879D01*
X227647Y136420D01*
X224800Y139267D01*
X223259Y142987D01*
X223259Y147013D01*
X224800Y150733D01*
X227647Y153580D01*
X231367Y155121D01*
X250633Y155121D01*
X254353Y153580D01*
X257483Y150450D01*
X257588Y150362D01*
X257686Y150268D01*
X257759Y150219D01*
X257826Y150164D01*
X257944Y150096D01*
X258058Y150020D01*
X258138Y149986D01*
X258214Y149943D01*
X258343Y149897D01*
X258469Y149843D01*
X258553Y149824D01*
X258635Y149795D01*
X258771Y149773D01*
X258904Y149742D01*
X258990Y149738D01*
X259076Y149724D01*
X259213Y149727D01*
X259350Y149720D01*
X259436Y149731D01*
X259523Y149733D01*
X259657Y149760D01*
X259793Y149778D01*
X259876Y149804D01*
X259961Y149821D01*
X260088Y149872D01*
X260218Y149913D01*
X260295Y149954D01*
X260376Y149986D01*
X260492Y150058D01*
X260613Y150122D01*
X260681Y150176D01*
X260755Y150222D01*
X260857Y150314D01*
X260964Y150399D01*
X261022Y150464D01*
X261086Y150522D01*
X261170Y150630D01*
X261261Y150733D01*
X261306Y150807D01*
X261359Y150876D01*
X261422Y150997D01*
X261493Y151114D01*
X261524Y151196D01*
X261564Y151273D01*
X261604Y151403D01*
X261653Y151531D01*
X261670Y151617D01*
X261695Y151700D01*
X261711Y151836D01*
X261737Y151970D01*
X261744Y152107D01*
X261748Y152143D01*
X261747Y152167D01*
X261749Y152217D01*
X261749Y163183D01*
X261737Y163319D01*
X261734Y163456D01*
X261717Y163541D01*
X261709Y163628D01*
X261673Y163760D01*
X261646Y163894D01*
X261614Y163974D01*
X261591Y164058D01*
X261532Y164182D01*
X261481Y164309D01*
X261435Y164383D01*
X261398Y164461D01*
X261317Y164572D01*
X261245Y164688D01*
X261187Y164752D01*
X261136Y164823D01*
X261037Y164918D01*
X260945Y165019D01*
X260876Y165072D01*
X260814Y165132D01*
X260700Y165208D01*
X260591Y165292D01*
X260514Y165332D01*
X260442Y165380D01*
X260316Y165434D01*
X260194Y165497D01*
X260111Y165522D01*
X260031Y165557D01*
X259898Y165588D01*
X259767Y165628D01*
X259681Y165638D01*
X259596Y165658D01*
X259460Y165665D01*
X259324Y165681D01*
X259237Y165676D01*
X259150Y165680D01*
X259015Y165662D01*
X258878Y165654D01*
X258793Y165634D01*
X258707Y165622D01*
X258577Y165581D01*
X258444Y165548D01*
X258365Y165513D01*
X258282Y165487D01*
X258161Y165423D01*
X258036Y165367D01*
X257964Y165318D01*
X257887Y165278D01*
X257779Y165193D01*
X257666Y165116D01*
X257565Y165024D01*
X257536Y165001D01*
X257520Y164984D01*
X257483Y164950D01*
X254353Y161820D01*
X250633Y160279D01*
X231367Y160279D01*
X227647Y161820D01*
X224800Y164667D01*
X223259Y168387D01*
X223259Y172413D01*
X224800Y176133D01*
X227647Y178980D01*
X231367Y180521D01*
X250633Y180521D01*
X254353Y178980D01*
X257483Y175850D01*
X257588Y175762D01*
X257686Y175668D01*
X257759Y175619D01*
X257826Y175564D01*
X257944Y175496D01*
X258058Y175420D01*
X258138Y175386D01*
X258214Y175343D01*
X258343Y175297D01*
X258469Y175243D01*
X258553Y175224D01*
X258635Y175195D01*
X258771Y175173D01*
X258904Y175142D01*
X258990Y175138D01*
X259076Y175124D01*
X259213Y175127D01*
X259350Y175120D01*
X259436Y175131D01*
X259523Y175133D01*
X259657Y175160D01*
X259793Y175178D01*
X259876Y175204D01*
X259961Y175221D01*
X260088Y175272D01*
X260218Y175313D01*
X260295Y175354D01*
X260376Y175386D01*
X260492Y175458D01*
X260613Y175522D01*
X260681Y175576D01*
X260755Y175622D01*
X260857Y175714D01*
X260964Y175799D01*
X261022Y175864D01*
X261086Y175922D01*
X261170Y176030D01*
X261261Y176133D01*
X261306Y176207D01*
X261359Y176276D01*
X261422Y176397D01*
X261493Y176514D01*
X261524Y176596D01*
X261564Y176673D01*
X261604Y176803D01*
X261653Y176931D01*
X261670Y177017D01*
X261695Y177100D01*
X261711Y177236D01*
X261737Y177370D01*
X261744Y177507D01*
X261748Y177543D01*
X261747Y177567D01*
X261749Y177617D01*
X261749Y193960D01*
X261745Y194010D01*
X261747Y194060D01*
X261725Y194232D01*
X261709Y194405D01*
X261696Y194453D01*
X261690Y194503D01*
X261637Y194668D01*
X261591Y194836D01*
X261569Y194881D01*
X261554Y194928D01*
X261473Y195082D01*
X261398Y195238D01*
X261368Y195279D01*
X261345Y195323D01*
X261238Y195459D01*
X261136Y195600D01*
X261100Y195635D01*
X261069Y195674D01*
X260939Y195790D01*
X260814Y195910D01*
X260772Y195937D01*
X260734Y195971D01*
X260586Y196061D01*
X260442Y196157D01*
X260396Y196177D01*
X260353Y196203D01*
X260191Y196265D01*
X260031Y196334D01*
X259983Y196345D01*
X259936Y196363D01*
X259765Y196396D01*
X259596Y196435D01*
X259546Y196438D01*
X259497Y196447D01*
X259250Y196459D01*
X258749Y196459D01*
X258749Y207000D01*
X258749Y217541D01*
X259250Y217541D01*
X259300Y217545D01*
X259350Y217543D01*
X259522Y217565D01*
X259695Y217581D01*
X259743Y217594D01*
X259793Y217600D01*
X259958Y217653D01*
X260126Y217699D01*
X260171Y217721D01*
X260218Y217736D01*
X260372Y217817D01*
X260528Y217892D01*
X260569Y217922D01*
X260613Y217945D01*
X260750Y218052D01*
X260890Y218154D01*
X260925Y218190D01*
X260964Y218221D01*
X261080Y218351D01*
X261200Y218476D01*
X261227Y218518D01*
X261261Y218556D01*
X261351Y218704D01*
X261447Y218848D01*
X261467Y218894D01*
X261493Y218937D01*
X261555Y219099D01*
X261624Y219259D01*
X261635Y219307D01*
X261653Y219354D01*
X261686Y219525D01*
X261725Y219694D01*
X261728Y219744D01*
X261737Y219793D01*
X261749Y220040D01*
X261749Y226393D01*
X262815Y228966D01*
X264784Y230935D01*
X267357Y232001D01*
X296750Y232001D01*
X296800Y232005D01*
X296850Y232003D01*
X297022Y232025D01*
X297195Y232041D01*
X297243Y232054D01*
X297293Y232060D01*
X297458Y232113D01*
X297626Y232159D01*
X297671Y232181D01*
X297718Y232196D01*
X297872Y232277D01*
X298028Y232352D01*
X298069Y232382D01*
X298113Y232405D01*
X298250Y232512D01*
X298390Y232614D01*
X298425Y232650D01*
X298464Y232681D01*
X298580Y232811D01*
X298700Y232936D01*
X298727Y232978D01*
X298761Y233016D01*
X298851Y233164D01*
X298947Y233308D01*
X298967Y233354D01*
X298993Y233397D01*
X299055Y233559D01*
X299124Y233719D01*
X299135Y233767D01*
X299153Y233814D01*
X299186Y233985D01*
X299225Y234154D01*
X299228Y234204D01*
X299237Y234253D01*
X299249Y234500D01*
X299249Y266335D01*
X299245Y266385D01*
X299247Y266435D01*
X299225Y266607D01*
X299209Y266780D01*
X299196Y266828D01*
X299190Y266878D01*
X299137Y267043D01*
X299091Y267211D01*
X299069Y267256D01*
X299054Y267303D01*
X298973Y267457D01*
X298898Y267613D01*
X298868Y267654D01*
X298845Y267698D01*
X298738Y267835D01*
X298636Y267975D01*
X298600Y268010D01*
X298569Y268049D01*
X298439Y268165D01*
X298314Y268285D01*
X298272Y268312D01*
X298234Y268346D01*
X298086Y268436D01*
X297942Y268532D01*
X297896Y268552D01*
X297853Y268578D01*
X297691Y268640D01*
X297531Y268709D01*
X297483Y268720D01*
X297436Y268738D01*
X297265Y268771D01*
X297096Y268810D01*
X297046Y268813D01*
X296997Y268822D01*
X296750Y268834D01*
X252807Y268834D01*
X252671Y268822D01*
X252534Y268819D01*
X252449Y268802D01*
X252362Y268794D01*
X252230Y268758D01*
X252096Y268731D01*
X252015Y268699D01*
X251931Y268676D01*
X251808Y268617D01*
X251681Y268566D01*
X251607Y268520D01*
X251529Y268483D01*
X251418Y268402D01*
X251302Y268330D01*
X251237Y268272D01*
X251167Y268221D01*
X251072Y268122D01*
X250971Y268030D01*
X250918Y267961D01*
X250857Y267899D01*
X250782Y267785D01*
X250698Y267676D01*
X250658Y267599D01*
X250610Y267527D01*
X250556Y267401D01*
X250493Y267279D01*
X250468Y267196D01*
X250433Y267116D01*
X250402Y266983D01*
X250362Y266852D01*
X250352Y266766D01*
X250332Y266681D01*
X250325Y266545D01*
X250309Y266409D01*
X250314Y266322D01*
X250310Y266235D01*
X250327Y266100D01*
X250336Y265963D01*
X250356Y265878D01*
X250367Y265792D01*
X250409Y265662D01*
X250441Y265529D01*
X250477Y265449D01*
X250503Y265367D01*
X250567Y265246D01*
X250623Y265121D01*
X250672Y265049D01*
X250712Y264972D01*
X250797Y264864D01*
X250874Y264751D01*
X250965Y264650D01*
X250988Y264621D01*
X251006Y264605D01*
X251040Y264568D01*
X251359Y264249D01*
X252501Y261492D01*
X252501Y258508D01*
X251359Y255751D01*
X249983Y254375D01*
X249863Y254232D01*
X249739Y254092D01*
X249720Y254061D01*
X249696Y254032D01*
X249604Y253870D01*
X249507Y253711D01*
X249494Y253676D01*
X249476Y253644D01*
X249414Y253468D01*
X249392Y253410D01*
X249376Y253374D01*
X249374Y253363D01*
X249347Y253294D01*
X249340Y253257D01*
X249327Y253223D01*
X249298Y253039D01*
X249275Y252939D01*
X249273Y252910D01*
X249263Y252855D01*
X249260Y252805D01*
X249257Y252781D01*
X249258Y252745D01*
X249251Y252608D01*
X249251Y220040D01*
X249253Y220012D01*
X249253Y220003D01*
X249255Y219986D01*
X249253Y219940D01*
X249275Y219768D01*
X249291Y219595D01*
X249304Y219547D01*
X249310Y219497D01*
X249363Y219332D01*
X249409Y219164D01*
X249431Y219119D01*
X249446Y219072D01*
X249527Y218918D01*
X249602Y218762D01*
X249632Y218721D01*
X249655Y218677D01*
X249762Y218540D01*
X249864Y218400D01*
X249900Y218365D01*
X249931Y218326D01*
X250061Y218210D01*
X250186Y218090D01*
X250228Y218063D01*
X250266Y218029D01*
X250414Y217939D01*
X250558Y217843D01*
X250604Y217823D01*
X250647Y217797D01*
X250809Y217735D01*
X250969Y217666D01*
X251017Y217655D01*
X251064Y217637D01*
X251235Y217604D01*
X251404Y217565D01*
X251454Y217562D01*
X251503Y217553D01*
X251750Y217541D01*
X253751Y217541D01*
X253751Y207000D01*
X253751Y196459D01*
X251916Y196459D01*
X251195Y196652D01*
X251135Y196683D01*
X251084Y196699D01*
X251035Y196722D01*
X250870Y196765D01*
X250708Y196815D01*
X250655Y196821D01*
X250603Y196834D01*
X250433Y196847D01*
X250264Y196868D01*
X250211Y196864D01*
X250157Y196868D01*
X249988Y196851D01*
X249818Y196841D01*
X249766Y196828D01*
X249713Y196823D01*
X249550Y196775D01*
X249384Y196735D01*
X249335Y196713D01*
X249284Y196698D01*
X249132Y196623D01*
X248976Y196554D01*
X248932Y196524D01*
X248884Y196500D01*
X248883Y196499D01*
X238424Y196499D01*
X238279Y196544D01*
X238115Y196601D01*
X238065Y196609D01*
X238017Y196624D01*
X237845Y196645D01*
X237674Y196672D01*
X237624Y196671D01*
X237574Y196677D01*
X237401Y196667D01*
X237227Y196663D01*
X237178Y196653D01*
X237128Y196650D01*
X236959Y196609D01*
X236789Y196575D01*
X236743Y196556D01*
X236694Y196545D01*
X236592Y196499D01*
X226214Y196499D01*
X224749Y197964D01*
X224749Y216036D01*
X225017Y216304D01*
X225137Y216447D01*
X225261Y216587D01*
X225280Y216618D01*
X225304Y216647D01*
X225396Y216809D01*
X225493Y216968D01*
X225506Y217003D01*
X225524Y217035D01*
X225586Y217211D01*
X225653Y217385D01*
X225660Y217422D01*
X225672Y217456D01*
X225702Y217640D01*
X225737Y217824D01*
X225740Y217874D01*
X225743Y217897D01*
X225742Y217934D01*
X225749Y218071D01*
X225749Y250000D01*
X225745Y250050D01*
X225747Y250100D01*
X225725Y250272D01*
X225709Y250445D01*
X225696Y250493D01*
X225690Y250543D01*
X225637Y250708D01*
X225591Y250876D01*
X225569Y250921D01*
X225554Y250968D01*
X225473Y251122D01*
X225398Y251278D01*
X225368Y251319D01*
X225345Y251363D01*
X225238Y251500D01*
X225136Y251640D01*
X225100Y251675D01*
X225069Y251714D01*
X224939Y251830D01*
X224814Y251950D01*
X224772Y251977D01*
X224734Y252011D01*
X224586Y252101D01*
X224442Y252197D01*
X224396Y252217D01*
X224353Y252243D01*
X224191Y252305D01*
X224031Y252374D01*
X223983Y252385D01*
X223936Y252403D01*
X223765Y252436D01*
X223596Y252475D01*
X223562Y252477D01*
X222206Y253038D01*
X222117Y253066D01*
X222031Y253103D01*
X221905Y253133D01*
X221780Y253172D01*
X221687Y253183D01*
X221596Y253205D01*
X221466Y253211D01*
X221337Y253227D01*
X221243Y253222D01*
X221150Y253227D01*
X221021Y253210D01*
X220891Y253203D01*
X220800Y253181D01*
X220707Y253169D01*
X220583Y253130D01*
X220456Y253099D01*
X220371Y253062D01*
X220282Y253033D01*
X220166Y252972D01*
X220047Y252920D01*
X219970Y252868D01*
X219887Y252824D01*
X219784Y252744D01*
X219676Y252671D01*
X219609Y252606D01*
X219536Y252548D01*
X219449Y252451D01*
X219356Y252360D01*
X219301Y252284D01*
X219239Y252214D01*
X219172Y252103D01*
X219096Y251997D01*
X219056Y251912D01*
X219007Y251832D01*
X218960Y251711D01*
X218905Y251593D01*
X218880Y251503D01*
X218847Y251415D01*
X218822Y251287D01*
X218788Y251162D01*
X218781Y251069D01*
X218763Y250977D01*
X218751Y250729D01*
X218751Y219964D01*
X217286Y218499D01*
X194214Y218499D01*
X192749Y219964D01*
X192749Y252036D01*
X194214Y253501D01*
X215833Y253501D01*
X215926Y253509D01*
X216020Y253508D01*
X216148Y253529D01*
X216278Y253541D01*
X216368Y253565D01*
X216460Y253581D01*
X216583Y253625D01*
X216709Y253659D01*
X216793Y253700D01*
X216881Y253731D01*
X216994Y253796D01*
X217111Y253852D01*
X217187Y253907D01*
X217268Y253954D01*
X217368Y254038D01*
X217473Y254114D01*
X217538Y254182D01*
X217609Y254242D01*
X217693Y254343D01*
X217783Y254436D01*
X217834Y254514D01*
X217894Y254586D01*
X217958Y254700D01*
X218030Y254808D01*
X218067Y254894D01*
X218113Y254976D01*
X218155Y255099D01*
X218207Y255219D01*
X218228Y255310D01*
X218259Y255398D01*
X218279Y255527D01*
X218308Y255654D01*
X218313Y255747D01*
X218327Y255839D01*
X218324Y255970D01*
X218330Y256100D01*
X218318Y256192D01*
X218316Y256286D01*
X218289Y256414D01*
X218273Y256543D01*
X218244Y256632D01*
X218225Y256723D01*
X218142Y256956D01*
X217499Y258508D01*
X217499Y261492D01*
X218641Y264249D01*
X218960Y264568D01*
X219048Y264673D01*
X219143Y264771D01*
X219191Y264844D01*
X219246Y264911D01*
X219314Y265029D01*
X219390Y265143D01*
X219424Y265223D01*
X219467Y265299D01*
X219513Y265428D01*
X219567Y265554D01*
X219587Y265638D01*
X219615Y265720D01*
X219637Y265856D01*
X219668Y265989D01*
X219672Y266075D01*
X219686Y266161D01*
X219683Y266298D01*
X219690Y266435D01*
X219679Y266521D01*
X219677Y266608D01*
X219650Y266742D01*
X219633Y266878D01*
X219606Y266961D01*
X219589Y267046D01*
X219538Y267173D01*
X219497Y267303D01*
X219456Y267380D01*
X219424Y267461D01*
X219352Y267577D01*
X219288Y267698D01*
X219234Y267766D01*
X219188Y267840D01*
X219096Y267942D01*
X219012Y268049D01*
X218947Y268107D01*
X218888Y268171D01*
X218780Y268255D01*
X218677Y268346D01*
X218603Y268391D01*
X218534Y268444D01*
X218412Y268507D01*
X218296Y268578D01*
X218215Y268609D01*
X218137Y268649D01*
X218006Y268689D01*
X217879Y268738D01*
X217793Y268755D01*
X217710Y268780D01*
X217575Y268796D01*
X217440Y268822D01*
X217304Y268829D01*
X217267Y268833D01*
X217243Y268832D01*
X217193Y268834D01*
X74500Y268834D01*
X74450Y268830D01*
X74400Y268832D01*
X74228Y268810D01*
X74055Y268794D01*
X74007Y268781D01*
X73957Y268775D01*
X73792Y268722D01*
X73624Y268676D01*
X73579Y268654D01*
X73532Y268639D01*
X73378Y268558D01*
X73222Y268483D01*
X73181Y268453D01*
X73137Y268430D01*
X73000Y268323D01*
X72860Y268221D01*
X72825Y268185D01*
X72786Y268154D01*
X72670Y268024D01*
X72550Y267899D01*
X72523Y267857D01*
X72489Y267819D01*
X72399Y267671D01*
X72303Y267527D01*
X72283Y267481D01*
X72257Y267438D01*
X72195Y267276D01*
X72126Y267116D01*
X72115Y267068D01*
X72097Y267021D01*
X72064Y266850D01*
X72025Y266681D01*
X72022Y266631D01*
X72013Y266582D01*
X72001Y266335D01*
X72001Y252250D01*
X72005Y252200D01*
X72003Y252150D01*
X72025Y251978D01*
X72041Y251805D01*
X72054Y251757D01*
X72060Y251707D01*
X72113Y251542D01*
X72159Y251374D01*
X72181Y251329D01*
X72196Y251282D01*
X72277Y251128D01*
X72352Y250972D01*
X72382Y250931D01*
X72405Y250887D01*
X72512Y250750D01*
X72614Y250610D01*
X72650Y250575D01*
X72681Y250536D01*
X72811Y250420D01*
X72936Y250300D01*
X72978Y250273D01*
X73016Y250239D01*
X73164Y250149D01*
X73308Y250053D01*
X73354Y250033D01*
X73397Y250007D01*
X73559Y249945D01*
X73719Y249876D01*
X73767Y249865D01*
X73814Y249847D01*
X73985Y249814D01*
X74154Y249775D01*
X74204Y249772D01*
X74253Y249763D01*
X74500Y249751D01*
X107036Y249751D01*
X108501Y248286D01*
X108501Y225214D01*
X107036Y223749D01*
X74500Y223749D01*
X74450Y223745D01*
X74400Y223747D01*
X74228Y223725D01*
X74055Y223709D01*
X74007Y223696D01*
X73957Y223690D01*
X73792Y223637D01*
X73624Y223591D01*
X73579Y223569D01*
X73532Y223554D01*
X73378Y223473D01*
X73222Y223398D01*
X73181Y223368D01*
X73137Y223345D01*
X73000Y223238D01*
X72860Y223136D01*
X72825Y223100D01*
X72786Y223069D01*
X72670Y222939D01*
X72550Y222814D01*
X72523Y222772D01*
X72489Y222734D01*
X72399Y222586D01*
X72303Y222442D01*
X72283Y222396D01*
X72257Y222353D01*
X72195Y222191D01*
X72126Y222031D01*
X72115Y221983D01*
X72097Y221936D01*
X72064Y221765D01*
X72025Y221596D01*
X72022Y221546D01*
X72013Y221497D01*
X72001Y221250D01*
X72001Y195750D01*
X72005Y195700D01*
X72003Y195650D01*
X72025Y195478D01*
X72041Y195305D01*
X72054Y195257D01*
X72060Y195207D01*
X72113Y195042D01*
X72159Y194874D01*
X72181Y194829D01*
X72196Y194782D01*
X72277Y194628D01*
X72352Y194472D01*
X72382Y194431D01*
X72405Y194387D01*
X72512Y194250D01*
X72614Y194110D01*
X72650Y194075D01*
X72681Y194036D01*
X72811Y193920D01*
X72936Y193800D01*
X72978Y193773D01*
X73016Y193739D01*
X73164Y193649D01*
X73308Y193553D01*
X73354Y193533D01*
X73397Y193507D01*
X73559Y193445D01*
X73719Y193376D01*
X73767Y193365D01*
X73814Y193347D01*
X73985Y193314D01*
X74154Y193275D01*
X74204Y193272D01*
X74253Y193263D01*
X74500Y193251D01*
X80937Y193251D01*
X81030Y193259D01*
X81123Y193258D01*
X81252Y193279D01*
X81381Y193291D01*
X81472Y193315D01*
X81564Y193331D01*
X81686Y193375D01*
X81812Y193409D01*
X81896Y193450D01*
X81984Y193481D01*
X82097Y193546D01*
X82215Y193602D01*
X82291Y193657D01*
X82372Y193704D01*
X82471Y193788D01*
X82577Y193864D01*
X82641Y193932D01*
X82713Y193992D01*
X82796Y194093D01*
X82886Y194186D01*
X82938Y194264D01*
X82998Y194336D01*
X83061Y194450D01*
X83133Y194558D01*
X83170Y194644D01*
X83216Y194726D01*
X83259Y194849D01*
X83310Y194969D01*
X83332Y195059D01*
X83362Y195148D01*
X83382Y195277D01*
X83412Y195404D01*
X83416Y195497D01*
X83431Y195589D01*
X83427Y195720D01*
X83434Y195850D01*
X83422Y195942D01*
X83419Y196036D01*
X83393Y196164D01*
X83376Y196293D01*
X83348Y196382D01*
X83329Y196473D01*
X83246Y196706D01*
X82499Y198508D01*
X82499Y201492D01*
X83641Y204249D01*
X85751Y206359D01*
X88508Y207501D01*
X91492Y207501D01*
X94249Y206359D01*
X95625Y204983D01*
X95768Y204863D01*
X95908Y204739D01*
X95939Y204720D01*
X95968Y204696D01*
X96130Y204604D01*
X96289Y204507D01*
X96324Y204494D01*
X96356Y204476D01*
X96532Y204414D01*
X96706Y204347D01*
X96743Y204340D01*
X96777Y204327D01*
X96962Y204298D01*
X97145Y204263D01*
X97195Y204260D01*
X97219Y204257D01*
X97256Y204258D01*
X97392Y204251D01*
X107000Y204251D01*
X107050Y204255D01*
X107100Y204253D01*
X107272Y204275D01*
X107445Y204291D01*
X107493Y204304D01*
X107543Y204310D01*
X107708Y204363D01*
X107876Y204409D01*
X107921Y204431D01*
X107968Y204446D01*
X108122Y204527D01*
X108278Y204602D01*
X108319Y204632D01*
X108363Y204655D01*
X108500Y204762D01*
X108640Y204864D01*
X108675Y204900D01*
X108714Y204931D01*
X108830Y205061D01*
X108950Y205186D01*
X108977Y205228D01*
X109011Y205266D01*
X109101Y205414D01*
X109197Y205558D01*
X109217Y205604D01*
X109243Y205647D01*
X109305Y205809D01*
X109374Y205969D01*
X109385Y206017D01*
X109403Y206064D01*
X109436Y206235D01*
X109475Y206404D01*
X109478Y206454D01*
X109487Y206503D01*
X109499Y206750D01*
X109499Y216286D01*
X110964Y217751D01*
X129036Y217751D01*
X129304Y217483D01*
X129447Y217363D01*
X129587Y217239D01*
X129618Y217220D01*
X129647Y217196D01*
X129809Y217104D01*
X129968Y217007D01*
X130003Y216994D01*
X130035Y216976D01*
X130211Y216914D01*
X130385Y216847D01*
X130421Y216840D01*
X130456Y216827D01*
X130641Y216798D01*
X130824Y216763D01*
X130874Y216760D01*
X130897Y216757D01*
X130934Y216758D01*
X131071Y216751D01*
X141094Y216751D01*
X143116Y215913D01*
X144663Y214366D01*
X145501Y212344D01*
X145501Y206142D01*
X145517Y205956D01*
X145529Y205770D01*
X145537Y205734D01*
X145541Y205697D01*
X145590Y205517D01*
X145634Y205336D01*
X145649Y205302D01*
X145659Y205267D01*
X145740Y205098D01*
X145816Y204928D01*
X145836Y204897D01*
X145852Y204864D01*
X145962Y204713D01*
X146067Y204558D01*
X146101Y204521D01*
X146114Y204502D01*
X146141Y204476D01*
X146233Y204375D01*
X146359Y204249D01*
X147501Y201492D01*
X147501Y198508D01*
X146359Y195751D01*
X144249Y193641D01*
X141492Y192499D01*
X138508Y192499D01*
X135751Y193641D01*
X134767Y194625D01*
X134662Y194713D01*
X134564Y194808D01*
X134491Y194856D01*
X134424Y194912D01*
X134305Y194979D01*
X134192Y195055D01*
X134112Y195089D01*
X134036Y195132D01*
X133907Y195178D01*
X133781Y195232D01*
X133697Y195252D01*
X133615Y195280D01*
X133480Y195302D01*
X133346Y195333D01*
X133260Y195337D01*
X133174Y195351D01*
X133037Y195348D01*
X132900Y195355D01*
X132814Y195344D01*
X132727Y195342D01*
X132593Y195315D01*
X132457Y195298D01*
X132374Y195271D01*
X132289Y195254D01*
X132162Y195203D01*
X132032Y195162D01*
X131955Y195121D01*
X131874Y195089D01*
X131758Y195017D01*
X131637Y194953D01*
X131569Y194899D01*
X131495Y194853D01*
X131393Y194761D01*
X131286Y194677D01*
X131228Y194612D01*
X131164Y194553D01*
X131080Y194445D01*
X130989Y194342D01*
X130944Y194268D01*
X130891Y194199D01*
X130828Y194077D01*
X130757Y193961D01*
X130726Y193880D01*
X130686Y193802D01*
X130677Y193774D01*
X130633Y193687D01*
X130547Y193536D01*
X130530Y193489D01*
X130507Y193444D01*
X130456Y193279D01*
X130399Y193115D01*
X130391Y193065D01*
X130376Y193017D01*
X130355Y192845D01*
X130328Y192674D01*
X130329Y192624D01*
X130323Y192574D01*
X130333Y192401D01*
X130337Y192227D01*
X130347Y192178D01*
X130350Y192128D01*
X130391Y191959D01*
X130425Y191789D01*
X130444Y191743D01*
X130455Y191694D01*
X130501Y191592D01*
X130501Y181100D01*
X130493Y181086D01*
X130403Y180942D01*
X130383Y180892D01*
X130356Y180846D01*
X130300Y180685D01*
X130237Y180527D01*
X130226Y180475D01*
X130208Y180424D01*
X130181Y180256D01*
X130147Y180090D01*
X130146Y180036D01*
X130137Y179983D01*
X130141Y179813D01*
X130137Y179643D01*
X130145Y179590D01*
X130146Y179537D01*
X130180Y179370D01*
X130206Y179202D01*
X130224Y179151D01*
X130235Y179099D01*
X130297Y178941D01*
X130353Y178780D01*
X130356Y178775D01*
X130541Y178084D01*
X130541Y176249D01*
X120000Y176249D01*
X109459Y176249D01*
X109459Y176750D01*
X109455Y176800D01*
X109457Y176850D01*
X109435Y177022D01*
X109419Y177195D01*
X109406Y177243D01*
X109400Y177293D01*
X109347Y177458D01*
X109301Y177626D01*
X109279Y177671D01*
X109264Y177718D01*
X109183Y177872D01*
X109108Y178028D01*
X109078Y178069D01*
X109055Y178113D01*
X108947Y178250D01*
X108846Y178390D01*
X108810Y178425D01*
X108779Y178464D01*
X108649Y178580D01*
X108524Y178700D01*
X108482Y178727D01*
X108444Y178761D01*
X108296Y178851D01*
X108152Y178947D01*
X108106Y178967D01*
X108063Y178993D01*
X107901Y179055D01*
X107741Y179124D01*
X107693Y179135D01*
X107646Y179153D01*
X107475Y179186D01*
X107306Y179225D01*
X107256Y179228D01*
X107207Y179237D01*
X106960Y179249D01*
X63607Y179249D01*
X60956Y180347D01*
X60867Y180375D01*
X60781Y180412D01*
X60655Y180442D01*
X60530Y180481D01*
X60437Y180492D01*
X60346Y180513D01*
X60216Y180520D01*
X60087Y180536D01*
X59993Y180531D01*
X59900Y180536D01*
X59771Y180519D01*
X59641Y180512D01*
X59550Y180490D01*
X59457Y180478D01*
X59333Y180438D01*
X59206Y180408D01*
X59120Y180371D01*
X59032Y180342D01*
X58917Y180281D01*
X58797Y180229D01*
X58719Y180177D01*
X58637Y180133D01*
X58534Y180053D01*
X58426Y179980D01*
X58359Y179915D01*
X58286Y179857D01*
X58199Y179760D01*
X58106Y179669D01*
X58051Y179593D01*
X57989Y179523D01*
X57922Y179411D01*
X57846Y179306D01*
X57806Y179221D01*
X57757Y179141D01*
X57710Y179020D01*
X57655Y178902D01*
X57630Y178812D01*
X57597Y178724D01*
X57572Y178596D01*
X57538Y178470D01*
X57531Y178378D01*
X57513Y178286D01*
X57501Y178038D01*
X57501Y167564D01*
X57503Y167533D01*
X57503Y167519D01*
X57509Y167468D01*
X57513Y167427D01*
X57516Y167291D01*
X57533Y167205D01*
X57541Y167119D01*
X57577Y166987D01*
X57604Y166853D01*
X57636Y166772D01*
X57659Y166688D01*
X57718Y166564D01*
X57769Y166438D01*
X57815Y166364D01*
X57852Y166285D01*
X57933Y166174D01*
X58005Y166058D01*
X58063Y165994D01*
X58114Y165923D01*
X58213Y165829D01*
X58305Y165727D01*
X58374Y165674D01*
X58436Y165614D01*
X58550Y165538D01*
X58659Y165455D01*
X58736Y165415D01*
X58808Y165367D01*
X58934Y165313D01*
X59056Y165250D01*
X59139Y165224D01*
X59219Y165190D01*
X59352Y165159D01*
X59483Y165119D01*
X59569Y165108D01*
X59654Y165089D01*
X59790Y165082D01*
X59926Y165066D01*
X60013Y165071D01*
X60100Y165066D01*
X60235Y165084D01*
X60372Y165092D01*
X60457Y165113D01*
X60543Y165124D01*
X60673Y165166D01*
X60806Y165198D01*
X60886Y165233D01*
X60968Y165260D01*
X61089Y165324D01*
X61214Y165379D01*
X61286Y165428D01*
X61363Y165469D01*
X61471Y165553D01*
X61584Y165630D01*
X61685Y165722D01*
X61714Y165745D01*
X61730Y165763D01*
X61767Y165796D01*
X61884Y165913D01*
X63906Y166751D01*
X106960Y166751D01*
X107010Y166755D01*
X107060Y166753D01*
X107232Y166775D01*
X107405Y166791D01*
X107453Y166804D01*
X107503Y166810D01*
X107668Y166863D01*
X107836Y166909D01*
X107881Y166931D01*
X107928Y166946D01*
X108082Y167027D01*
X108238Y167102D01*
X108279Y167132D01*
X108323Y167155D01*
X108460Y167262D01*
X108600Y167364D01*
X108635Y167400D01*
X108674Y167431D01*
X108790Y167561D01*
X108910Y167686D01*
X108937Y167728D01*
X108971Y167766D01*
X109061Y167914D01*
X109157Y168058D01*
X109177Y168104D01*
X109203Y168147D01*
X109265Y168310D01*
X109334Y168469D01*
X109345Y168517D01*
X109363Y168564D01*
X109396Y168735D01*
X109435Y168904D01*
X109438Y168954D01*
X109447Y169003D01*
X109459Y169250D01*
X109459Y171251D01*
X120000Y171251D01*
X130541Y171251D01*
X130541Y169250D01*
X130545Y169200D01*
X130543Y169150D01*
X130565Y168978D01*
X130581Y168805D01*
X130594Y168757D01*
X130600Y168707D01*
X130653Y168542D01*
X130699Y168374D01*
X130721Y168329D01*
X130736Y168282D01*
X130817Y168128D01*
X130892Y167972D01*
X130922Y167931D01*
X130945Y167887D01*
X131052Y167750D01*
X131154Y167610D01*
X131190Y167575D01*
X131221Y167536D01*
X131351Y167420D01*
X131476Y167300D01*
X131518Y167273D01*
X131556Y167239D01*
X131704Y167149D01*
X131848Y167053D01*
X131894Y167033D01*
X131937Y167007D01*
X132099Y166945D01*
X132259Y166876D01*
X132307Y166865D01*
X132354Y166847D01*
X132525Y166814D01*
X132694Y166775D01*
X132744Y166772D01*
X132793Y166763D01*
X133040Y166751D01*
X136200Y166751D01*
X136343Y166764D01*
X136486Y166767D01*
X136565Y166783D01*
X136645Y166791D01*
X136783Y166829D01*
X136924Y166858D01*
X137040Y166899D01*
X137076Y166909D01*
X137100Y166921D01*
X137157Y166941D01*
X138508Y167501D01*
X141492Y167501D01*
X144249Y166359D01*
X146359Y164249D01*
X147501Y161492D01*
X147501Y158508D01*
X146359Y155751D01*
X145961Y155353D01*
X145929Y155315D01*
X145891Y155281D01*
X145786Y155143D01*
X145674Y155010D01*
X145650Y154967D01*
X145619Y154927D01*
X145539Y154773D01*
X145454Y154622D01*
X145437Y154575D01*
X145414Y154530D01*
X145363Y154364D01*
X145305Y154200D01*
X145297Y154151D01*
X145283Y154103D01*
X145262Y153931D01*
X145235Y153759D01*
X145236Y153709D01*
X145230Y153660D01*
X145240Y153487D01*
X145244Y153313D01*
X145253Y153264D01*
X145256Y153214D01*
X145297Y153046D01*
X145332Y152875D01*
X145350Y152828D01*
X145362Y152780D01*
X145432Y152621D01*
X145497Y152460D01*
X145523Y152417D01*
X145543Y152371D01*
X145641Y152228D01*
X145733Y152081D01*
X145766Y152043D01*
X145795Y152002D01*
X145910Y151875D01*
X146751Y149844D01*
X146751Y33000D01*
X146755Y32950D01*
X146753Y32900D01*
X146775Y32728D01*
X146791Y32555D01*
X146804Y32507D01*
X146810Y32457D01*
X146863Y32292D01*
X146909Y32124D01*
X146931Y32079D01*
X146946Y32032D01*
X147027Y31878D01*
X147102Y31722D01*
X147132Y31681D01*
X147155Y31637D01*
X147262Y31500D01*
X147364Y31360D01*
X147400Y31325D01*
X147431Y31286D01*
X147561Y31170D01*
X147686Y31050D01*
X147728Y31023D01*
X147766Y30989D01*
X147914Y30899D01*
X148058Y30803D01*
X148104Y30783D01*
X148147Y30757D01*
X148309Y30695D01*
X148469Y30626D01*
X148517Y30615D01*
X148564Y30597D01*
X148735Y30564D01*
X148904Y30525D01*
X148954Y30522D01*
X149003Y30513D01*
X149250Y30501D01*
X277250Y30501D01*
X277300Y30505D01*
G37*
%LPC*%
G36*
X161178Y85834D02*
X161178Y85834D01*
X157442Y87382D01*
X154582Y90242D01*
X153034Y93978D01*
X153034Y122022D01*
X154582Y125758D01*
X157442Y128618D01*
X161178Y130166D01*
X162768Y130166D01*
X162931Y130180D01*
X163095Y130187D01*
X163153Y130200D01*
X163213Y130206D01*
X163371Y130249D01*
X163531Y130285D01*
X163586Y130308D01*
X163643Y130324D01*
X163791Y130395D01*
X163942Y130459D01*
X163992Y130492D01*
X164046Y130517D01*
X164179Y130614D01*
X164316Y130703D01*
X164360Y130744D01*
X164408Y130779D01*
X164522Y130898D01*
X164641Y131010D01*
X164676Y131058D01*
X164717Y131101D01*
X164808Y131238D01*
X164905Y131370D01*
X164932Y131424D01*
X164965Y131473D01*
X165030Y131624D01*
X165102Y131771D01*
X165118Y131829D01*
X165142Y131884D01*
X165179Y132043D01*
X165224Y132201D01*
X165229Y132261D01*
X165243Y132319D01*
X165251Y132482D01*
X165267Y132646D01*
X165262Y132705D01*
X165265Y132765D01*
X165244Y132927D01*
X165230Y133091D01*
X165215Y133149D01*
X165207Y133208D01*
X165157Y133364D01*
X165115Y133523D01*
X165090Y133577D01*
X165072Y133633D01*
X164995Y133778D01*
X164925Y133927D01*
X164878Y133998D01*
X164863Y134028D01*
X164841Y134056D01*
X164790Y134134D01*
X162542Y137227D01*
X160890Y145000D01*
X162542Y152773D01*
X164790Y155866D01*
X164874Y156007D01*
X164965Y156143D01*
X164988Y156198D01*
X165019Y156249D01*
X165077Y156403D01*
X165142Y156554D01*
X165155Y156612D01*
X165176Y156667D01*
X165206Y156829D01*
X165243Y156989D01*
X165246Y157048D01*
X165257Y157107D01*
X165257Y157271D01*
X165265Y157435D01*
X165257Y157494D01*
X165257Y157554D01*
X165228Y157715D01*
X165207Y157878D01*
X165189Y157934D01*
X165179Y157993D01*
X165121Y158147D01*
X165072Y158303D01*
X165044Y158356D01*
X165023Y158412D01*
X164939Y158553D01*
X164863Y158698D01*
X164826Y158745D01*
X164795Y158796D01*
X164688Y158920D01*
X164586Y159049D01*
X164542Y159089D01*
X164503Y159134D01*
X164375Y159237D01*
X164252Y159346D01*
X164201Y159377D01*
X164155Y159414D01*
X164011Y159493D01*
X163871Y159578D01*
X163815Y159599D01*
X163763Y159628D01*
X163607Y159679D01*
X163454Y159738D01*
X163395Y159749D01*
X163339Y159768D01*
X163176Y159791D01*
X163015Y159822D01*
X162929Y159826D01*
X162896Y159831D01*
X162861Y159830D01*
X162768Y159834D01*
X161178Y159834D01*
X157442Y161382D01*
X154582Y164242D01*
X153034Y167978D01*
X153034Y196022D01*
X154582Y199758D01*
X157442Y202618D01*
X161178Y204166D01*
X199222Y204166D01*
X202958Y202618D01*
X205818Y199758D01*
X207366Y196022D01*
X207366Y167978D01*
X205818Y164242D01*
X202958Y161382D01*
X199222Y159834D01*
X197705Y159834D01*
X197579Y159823D01*
X197453Y159822D01*
X197358Y159803D01*
X197260Y159794D01*
X197138Y159761D01*
X197015Y159737D01*
X196924Y159702D01*
X196829Y159676D01*
X196716Y159621D01*
X196598Y159576D01*
X196515Y159525D01*
X196427Y159483D01*
X196324Y159409D01*
X196217Y159343D01*
X196144Y159278D01*
X196065Y159221D01*
X195977Y159130D01*
X195883Y159046D01*
X195823Y158969D01*
X195755Y158899D01*
X195686Y158794D01*
X195608Y158694D01*
X195562Y158608D01*
X195508Y158527D01*
X195458Y158411D01*
X195399Y158299D01*
X195370Y158206D01*
X195331Y158116D01*
X195303Y157994D01*
X195265Y157873D01*
X195252Y157776D01*
X195230Y157681D01*
X195224Y157556D01*
X195208Y157430D01*
X195213Y157333D01*
X195208Y157235D01*
X195224Y157110D01*
X195231Y156984D01*
X195253Y156889D01*
X195266Y156792D01*
X195304Y156672D01*
X195333Y156549D01*
X195391Y156398D01*
X195401Y156367D01*
X195409Y156351D01*
X195422Y156318D01*
X198692Y148973D01*
X198692Y141027D01*
X195422Y133682D01*
X195381Y133562D01*
X195331Y133446D01*
X195309Y133351D01*
X195277Y133259D01*
X195259Y133134D01*
X195230Y133011D01*
X195225Y132914D01*
X195210Y132817D01*
X195214Y132691D01*
X195208Y132565D01*
X195220Y132469D01*
X195223Y132371D01*
X195249Y132247D01*
X195266Y132122D01*
X195295Y132029D01*
X195315Y131934D01*
X195363Y131817D01*
X195401Y131697D01*
X195447Y131610D01*
X195484Y131520D01*
X195551Y131413D01*
X195610Y131302D01*
X195671Y131225D01*
X195723Y131143D01*
X195808Y131050D01*
X195886Y130951D01*
X195960Y130886D01*
X196026Y130814D01*
X196126Y130738D01*
X196221Y130654D01*
X196304Y130604D01*
X196382Y130545D01*
X196495Y130488D01*
X196602Y130422D01*
X196693Y130387D01*
X196781Y130343D01*
X196901Y130307D01*
X197019Y130262D01*
X197115Y130243D01*
X197209Y130216D01*
X197334Y130202D01*
X197458Y130178D01*
X197619Y130170D01*
X197653Y130166D01*
X197670Y130167D01*
X197705Y130166D01*
X199222Y130166D01*
X202958Y128618D01*
X205818Y125758D01*
X207366Y122022D01*
X207366Y93978D01*
X205818Y90242D01*
X202958Y87382D01*
X199222Y85834D01*
X161178Y85834D01*
G37*
%LPD*%
%LPC*%
G36*
X553508Y42499D02*
X553508Y42499D01*
X550751Y43641D01*
X548641Y45751D01*
X547499Y48508D01*
X547499Y51492D01*
X547809Y52240D01*
X547852Y52376D01*
X547903Y52510D01*
X547918Y52589D01*
X547942Y52666D01*
X547960Y52808D01*
X547987Y52949D01*
X547993Y53072D01*
X547998Y53109D01*
X547996Y53136D01*
X547999Y53196D01*
X547999Y66393D01*
X549065Y68966D01*
X551034Y70935D01*
X553607Y72001D01*
X592252Y72001D01*
X592302Y72005D01*
X592352Y72003D01*
X592524Y72025D01*
X592697Y72041D01*
X592745Y72054D01*
X592795Y72060D01*
X592960Y72113D01*
X593128Y72159D01*
X593173Y72181D01*
X593220Y72196D01*
X593374Y72277D01*
X593530Y72352D01*
X593571Y72382D01*
X593615Y72405D01*
X593752Y72512D01*
X593892Y72614D01*
X593927Y72650D01*
X593966Y72681D01*
X594082Y72811D01*
X594202Y72936D01*
X594229Y72978D01*
X594263Y73016D01*
X594353Y73164D01*
X594449Y73308D01*
X594469Y73354D01*
X594495Y73397D01*
X594557Y73559D01*
X594626Y73719D01*
X594637Y73767D01*
X594655Y73814D01*
X594688Y73985D01*
X594727Y74154D01*
X594730Y74204D01*
X594739Y74253D01*
X594751Y74500D01*
X594751Y115093D01*
X594735Y115279D01*
X594723Y115465D01*
X594715Y115501D01*
X594711Y115538D01*
X594662Y115718D01*
X594618Y115899D01*
X594603Y115933D01*
X594593Y115969D01*
X594512Y116137D01*
X594436Y116307D01*
X594416Y116338D01*
X594400Y116371D01*
X594290Y116522D01*
X594185Y116677D01*
X594151Y116714D01*
X594138Y116733D01*
X594111Y116759D01*
X594019Y116860D01*
X582832Y128047D01*
X582689Y128167D01*
X582549Y128291D01*
X582518Y128310D01*
X582489Y128334D01*
X582327Y128426D01*
X582168Y128523D01*
X582133Y128536D01*
X582101Y128554D01*
X581925Y128616D01*
X581751Y128683D01*
X581715Y128690D01*
X581680Y128703D01*
X581495Y128732D01*
X581312Y128767D01*
X581262Y128770D01*
X581239Y128773D01*
X581202Y128772D01*
X581065Y128779D01*
X569503Y128779D01*
X569360Y128766D01*
X569217Y128763D01*
X569138Y128747D01*
X569058Y128739D01*
X568920Y128701D01*
X568779Y128672D01*
X568663Y128631D01*
X568627Y128621D01*
X568603Y128609D01*
X568546Y128589D01*
X566591Y127779D01*
X563409Y127779D01*
X561454Y128589D01*
X561317Y128632D01*
X561183Y128683D01*
X561104Y128698D01*
X561027Y128722D01*
X560885Y128740D01*
X560744Y128767D01*
X560621Y128773D01*
X560584Y128778D01*
X560557Y128776D01*
X560497Y128779D01*
X544887Y128779D01*
X542401Y129809D01*
X542265Y129852D01*
X542131Y129903D01*
X542052Y129918D01*
X541975Y129942D01*
X541833Y129960D01*
X541692Y129987D01*
X541569Y129993D01*
X541532Y129998D01*
X541505Y129996D01*
X541445Y129999D01*
X539714Y129999D01*
X538249Y131464D01*
X538249Y139396D01*
X538237Y139531D01*
X538256Y139552D01*
X538348Y139634D01*
X539714Y141001D01*
X540565Y141001D01*
X540751Y141017D01*
X540937Y141029D01*
X540973Y141037D01*
X541010Y141041D01*
X541190Y141090D01*
X541371Y141134D01*
X541405Y141149D01*
X541441Y141159D01*
X541609Y141240D01*
X541779Y141316D01*
X541810Y141336D01*
X541843Y141352D01*
X541994Y141462D01*
X542149Y141567D01*
X542186Y141601D01*
X542205Y141614D01*
X542231Y141641D01*
X542311Y141714D01*
X544887Y142781D01*
X554500Y142781D01*
X554550Y142785D01*
X554600Y142783D01*
X554772Y142805D01*
X554945Y142821D01*
X554993Y142834D01*
X555043Y142840D01*
X555208Y142893D01*
X555376Y142939D01*
X555421Y142961D01*
X555468Y142976D01*
X555622Y143057D01*
X555778Y143132D01*
X555819Y143162D01*
X555863Y143185D01*
X556000Y143292D01*
X556140Y143394D01*
X556175Y143430D01*
X556214Y143461D01*
X556330Y143591D01*
X556450Y143716D01*
X556477Y143758D01*
X556511Y143796D01*
X556601Y143944D01*
X556697Y144088D01*
X556717Y144134D01*
X556743Y144177D01*
X556805Y144339D01*
X556874Y144499D01*
X556885Y144547D01*
X556903Y144594D01*
X556936Y144765D01*
X556975Y144934D01*
X556978Y144984D01*
X556987Y145033D01*
X556999Y145280D01*
X556999Y147622D01*
X556987Y147759D01*
X556984Y147896D01*
X556967Y147981D01*
X556959Y148067D01*
X556923Y148200D01*
X556896Y148334D01*
X556864Y148414D01*
X556841Y148498D01*
X556782Y148622D01*
X556731Y148749D01*
X556685Y148822D01*
X556648Y148901D01*
X556567Y149012D01*
X556495Y149128D01*
X556437Y149192D01*
X556386Y149263D01*
X556287Y149357D01*
X556195Y149459D01*
X556126Y149512D01*
X556064Y149572D01*
X555950Y149648D01*
X555841Y149731D01*
X555764Y149771D01*
X555692Y149819D01*
X555566Y149874D01*
X555444Y149936D01*
X555361Y149962D01*
X555281Y149996D01*
X555148Y150027D01*
X555017Y150068D01*
X554931Y150078D01*
X554846Y150098D01*
X554710Y150104D01*
X554574Y150121D01*
X554487Y150115D01*
X554400Y150120D01*
X554265Y150102D01*
X554128Y150094D01*
X554043Y150073D01*
X553957Y150062D01*
X553827Y150020D01*
X553694Y149988D01*
X553614Y149953D01*
X553532Y149926D01*
X553411Y149862D01*
X553285Y149807D01*
X553214Y149758D01*
X553137Y149717D01*
X553029Y149633D01*
X552916Y149556D01*
X552832Y149480D01*
X552231Y149132D01*
X551584Y148959D01*
X548499Y148959D01*
X548499Y154500D01*
X548499Y160041D01*
X551584Y160041D01*
X552231Y159868D01*
X552852Y159509D01*
X552936Y159428D01*
X553009Y159380D01*
X553075Y159324D01*
X553194Y159256D01*
X553308Y159181D01*
X553388Y159146D01*
X553464Y159103D01*
X553593Y159058D01*
X553719Y159004D01*
X553803Y158984D01*
X553885Y158955D01*
X554021Y158933D01*
X554154Y158902D01*
X554240Y158898D01*
X554326Y158884D01*
X554463Y158887D01*
X554600Y158880D01*
X554686Y158892D01*
X554773Y158893D01*
X554907Y158920D01*
X555043Y158938D01*
X555125Y158964D01*
X555211Y158981D01*
X555338Y159032D01*
X555468Y159074D01*
X555545Y159114D01*
X555626Y159146D01*
X555742Y159219D01*
X555863Y159283D01*
X555931Y159337D01*
X556005Y159382D01*
X556107Y159474D01*
X556214Y159559D01*
X556272Y159624D01*
X556336Y159682D01*
X556420Y159791D01*
X556511Y159893D01*
X556556Y159967D01*
X556609Y160036D01*
X556672Y160158D01*
X556743Y160275D01*
X556774Y160356D01*
X556814Y160433D01*
X556854Y160564D01*
X556903Y160692D01*
X556920Y160777D01*
X556945Y160860D01*
X556961Y160996D01*
X556987Y161130D01*
X556994Y161267D01*
X556998Y161303D01*
X556997Y161327D01*
X556999Y161378D01*
X556999Y166600D01*
X556995Y166650D01*
X556997Y166700D01*
X556975Y166872D01*
X556959Y167045D01*
X556946Y167093D01*
X556940Y167143D01*
X556887Y167308D01*
X556841Y167476D01*
X556819Y167521D01*
X556804Y167568D01*
X556723Y167722D01*
X556648Y167878D01*
X556618Y167919D01*
X556595Y167963D01*
X556488Y168100D01*
X556386Y168240D01*
X556350Y168275D01*
X556319Y168314D01*
X556189Y168430D01*
X556064Y168550D01*
X556022Y168577D01*
X555984Y168611D01*
X555836Y168701D01*
X555692Y168797D01*
X555646Y168817D01*
X555603Y168843D01*
X555441Y168905D01*
X555281Y168974D01*
X555233Y168985D01*
X555186Y169003D01*
X555015Y169036D01*
X554846Y169075D01*
X554796Y169078D01*
X554747Y169087D01*
X554500Y169099D01*
X542914Y169099D01*
X541449Y170564D01*
X541449Y189436D01*
X542914Y190901D01*
X556586Y190901D01*
X558754Y188733D01*
X558897Y188613D01*
X559037Y188489D01*
X559068Y188470D01*
X559097Y188446D01*
X559259Y188354D01*
X559418Y188257D01*
X559453Y188244D01*
X559485Y188226D01*
X559661Y188164D01*
X559835Y188097D01*
X559871Y188090D01*
X559906Y188077D01*
X560091Y188048D01*
X560274Y188013D01*
X560324Y188010D01*
X560347Y188007D01*
X560384Y188008D01*
X560521Y188001D01*
X566591Y188001D01*
X569532Y186783D01*
X571783Y184532D01*
X573001Y181591D01*
X573001Y145280D01*
X573005Y145230D01*
X573003Y145180D01*
X573025Y145008D01*
X573041Y144835D01*
X573054Y144787D01*
X573060Y144737D01*
X573113Y144572D01*
X573159Y144404D01*
X573181Y144359D01*
X573196Y144312D01*
X573277Y144158D01*
X573352Y144002D01*
X573382Y143961D01*
X573405Y143917D01*
X573512Y143780D01*
X573614Y143640D01*
X573650Y143605D01*
X573681Y143566D01*
X573811Y143450D01*
X573936Y143330D01*
X573978Y143303D01*
X574016Y143269D01*
X574164Y143179D01*
X574308Y143083D01*
X574354Y143063D01*
X574397Y143037D01*
X574559Y142975D01*
X574719Y142906D01*
X574767Y142895D01*
X574814Y142877D01*
X574985Y142844D01*
X575154Y142805D01*
X575204Y142802D01*
X575253Y142793D01*
X575500Y142781D01*
X586393Y142781D01*
X588966Y141715D01*
X607687Y122994D01*
X608753Y120421D01*
X608753Y63607D01*
X607687Y61034D01*
X605718Y59065D01*
X603145Y57999D01*
X564500Y57999D01*
X564450Y57995D01*
X564400Y57997D01*
X564228Y57975D01*
X564055Y57959D01*
X564007Y57946D01*
X563957Y57940D01*
X563792Y57887D01*
X563624Y57841D01*
X563579Y57819D01*
X563532Y57804D01*
X563378Y57723D01*
X563222Y57648D01*
X563181Y57618D01*
X563137Y57595D01*
X563000Y57488D01*
X562860Y57386D01*
X562825Y57350D01*
X562786Y57319D01*
X562670Y57189D01*
X562550Y57064D01*
X562523Y57022D01*
X562489Y56984D01*
X562399Y56836D01*
X562303Y56692D01*
X562283Y56646D01*
X562257Y56603D01*
X562195Y56441D01*
X562126Y56281D01*
X562115Y56233D01*
X562097Y56186D01*
X562064Y56015D01*
X562025Y55846D01*
X562022Y55796D01*
X562013Y55747D01*
X562001Y55500D01*
X562001Y53196D01*
X562014Y53054D01*
X562017Y52910D01*
X562033Y52832D01*
X562041Y52751D01*
X562079Y52613D01*
X562108Y52473D01*
X562149Y52357D01*
X562159Y52321D01*
X562171Y52296D01*
X562191Y52240D01*
X562501Y51492D01*
X562501Y48508D01*
X561359Y45751D01*
X559249Y43641D01*
X556492Y42499D01*
X553508Y42499D01*
G37*
%LPD*%
G36*
X702006Y220264D02*
X702006Y220264D01*
X702149Y220267D01*
X702228Y220283D01*
X702308Y220291D01*
X702446Y220329D01*
X702587Y220358D01*
X702703Y220399D01*
X702739Y220409D01*
X702763Y220421D01*
X702820Y220441D01*
X703567Y220751D01*
X750500Y220751D01*
X750550Y220755D01*
X750600Y220753D01*
X750772Y220775D01*
X750945Y220791D01*
X750993Y220804D01*
X751043Y220810D01*
X751208Y220863D01*
X751376Y220909D01*
X751421Y220931D01*
X751468Y220946D01*
X751622Y221027D01*
X751778Y221102D01*
X751819Y221132D01*
X751863Y221155D01*
X752000Y221262D01*
X752140Y221364D01*
X752175Y221400D01*
X752214Y221431D01*
X752330Y221561D01*
X752450Y221686D01*
X752477Y221728D01*
X752511Y221766D01*
X752601Y221914D01*
X752697Y222058D01*
X752717Y222104D01*
X752743Y222147D01*
X752805Y222309D01*
X752874Y222469D01*
X752885Y222517D01*
X752903Y222564D01*
X752936Y222735D01*
X752975Y222904D01*
X752978Y222954D01*
X752987Y223003D01*
X752999Y223250D01*
X752999Y223750D01*
X752995Y223800D01*
X752997Y223850D01*
X752975Y224022D01*
X752959Y224195D01*
X752946Y224243D01*
X752940Y224293D01*
X752887Y224458D01*
X752841Y224626D01*
X752819Y224671D01*
X752804Y224718D01*
X752723Y224872D01*
X752648Y225028D01*
X752618Y225069D01*
X752595Y225113D01*
X752488Y225250D01*
X752386Y225390D01*
X752350Y225425D01*
X752319Y225464D01*
X752189Y225580D01*
X752064Y225700D01*
X752022Y225727D01*
X751984Y225761D01*
X751836Y225851D01*
X751692Y225947D01*
X751646Y225967D01*
X751603Y225993D01*
X751441Y226055D01*
X751281Y226124D01*
X751233Y226135D01*
X751186Y226153D01*
X751015Y226186D01*
X750846Y226225D01*
X750796Y226228D01*
X750747Y226237D01*
X750500Y226249D01*
X717924Y226249D01*
X716459Y227714D01*
X716459Y250786D01*
X717924Y252251D01*
X750500Y252251D01*
X750550Y252255D01*
X750600Y252253D01*
X750772Y252275D01*
X750945Y252291D01*
X750993Y252304D01*
X751043Y252310D01*
X751208Y252363D01*
X751376Y252409D01*
X751421Y252431D01*
X751468Y252446D01*
X751622Y252527D01*
X751778Y252602D01*
X751819Y252632D01*
X751863Y252655D01*
X752000Y252762D01*
X752140Y252864D01*
X752175Y252900D01*
X752214Y252931D01*
X752330Y253061D01*
X752450Y253186D01*
X752477Y253228D01*
X752511Y253266D01*
X752601Y253414D01*
X752697Y253558D01*
X752717Y253604D01*
X752743Y253647D01*
X752805Y253809D01*
X752874Y253969D01*
X752885Y254017D01*
X752903Y254064D01*
X752936Y254235D01*
X752975Y254404D01*
X752978Y254454D01*
X752987Y254503D01*
X752999Y254750D01*
X752999Y266335D01*
X752995Y266385D01*
X752997Y266435D01*
X752975Y266607D01*
X752959Y266780D01*
X752946Y266828D01*
X752940Y266878D01*
X752887Y267043D01*
X752841Y267211D01*
X752819Y267256D01*
X752804Y267303D01*
X752723Y267457D01*
X752648Y267613D01*
X752618Y267654D01*
X752595Y267698D01*
X752488Y267835D01*
X752386Y267975D01*
X752350Y268010D01*
X752319Y268049D01*
X752189Y268165D01*
X752064Y268285D01*
X752022Y268312D01*
X751984Y268346D01*
X751836Y268436D01*
X751692Y268532D01*
X751646Y268552D01*
X751603Y268578D01*
X751441Y268640D01*
X751281Y268709D01*
X751233Y268720D01*
X751186Y268738D01*
X751015Y268771D01*
X750846Y268810D01*
X750796Y268813D01*
X750747Y268822D01*
X750500Y268834D01*
X686735Y268834D01*
X686642Y268826D01*
X686549Y268827D01*
X686420Y268806D01*
X686290Y268794D01*
X686200Y268770D01*
X686108Y268754D01*
X685986Y268710D01*
X685860Y268676D01*
X685775Y268635D01*
X685688Y268604D01*
X685575Y268539D01*
X685457Y268483D01*
X685381Y268428D01*
X685300Y268381D01*
X685201Y268297D01*
X685095Y268221D01*
X685030Y268153D01*
X684959Y268093D01*
X684876Y267992D01*
X684786Y267899D01*
X684734Y267821D01*
X684674Y267749D01*
X684611Y267635D01*
X684538Y267527D01*
X684501Y267441D01*
X684456Y267359D01*
X684413Y267236D01*
X684361Y267116D01*
X684340Y267025D01*
X684310Y266937D01*
X684290Y266808D01*
X684260Y266681D01*
X684256Y266588D01*
X684241Y266496D01*
X684245Y266365D01*
X684238Y266235D01*
X684250Y266143D01*
X684253Y266049D01*
X684279Y265921D01*
X684296Y265792D01*
X684324Y265703D01*
X684343Y265612D01*
X684426Y265379D01*
X685001Y263992D01*
X685001Y261008D01*
X683859Y258251D01*
X681749Y256141D01*
X678992Y254999D01*
X676008Y254999D01*
X673251Y256141D01*
X673125Y256267D01*
X672982Y256387D01*
X672842Y256511D01*
X672811Y256530D01*
X672782Y256554D01*
X672620Y256646D01*
X672461Y256743D01*
X672426Y256756D01*
X672394Y256774D01*
X672218Y256836D01*
X672044Y256903D01*
X672007Y256910D01*
X671973Y256923D01*
X671788Y256952D01*
X671605Y256987D01*
X671555Y256990D01*
X671531Y256993D01*
X671494Y256992D01*
X671358Y256999D01*
X667973Y256999D01*
X667820Y256986D01*
X667667Y256980D01*
X667598Y256966D01*
X667528Y256959D01*
X667380Y256919D01*
X667230Y256886D01*
X667165Y256860D01*
X667097Y256841D01*
X666959Y256774D01*
X666817Y256716D01*
X666758Y256678D01*
X666695Y256648D01*
X666570Y256558D01*
X666441Y256475D01*
X666390Y256427D01*
X666333Y256386D01*
X666226Y256275D01*
X666114Y256171D01*
X666072Y256114D01*
X666023Y256064D01*
X665938Y255936D01*
X665846Y255813D01*
X665815Y255750D01*
X665776Y255692D01*
X665715Y255551D01*
X665647Y255413D01*
X665627Y255346D01*
X665599Y255281D01*
X665564Y255132D01*
X665521Y254985D01*
X665514Y254915D01*
X665498Y254846D01*
X665490Y254693D01*
X665474Y254541D01*
X665479Y254470D01*
X665476Y254400D01*
X665496Y254248D01*
X665507Y254095D01*
X665529Y253993D01*
X665533Y253957D01*
X665543Y253927D01*
X665559Y253853D01*
X665591Y253734D01*
X665591Y247899D01*
X657650Y247899D01*
X657600Y247895D01*
X657550Y247897D01*
X657379Y247875D01*
X657248Y247863D01*
X657196Y247875D01*
X657146Y247878D01*
X657097Y247887D01*
X656850Y247899D01*
X648909Y247899D01*
X648909Y253734D01*
X648941Y253853D01*
X648967Y254004D01*
X649002Y254154D01*
X649006Y254224D01*
X649018Y254293D01*
X649017Y254447D01*
X649024Y254600D01*
X649015Y254669D01*
X649015Y254740D01*
X648986Y254891D01*
X648967Y255043D01*
X648945Y255110D01*
X648932Y255179D01*
X648878Y255322D01*
X648831Y255468D01*
X648798Y255530D01*
X648773Y255596D01*
X648694Y255728D01*
X648622Y255863D01*
X648578Y255918D01*
X648542Y255979D01*
X648440Y256094D01*
X648346Y256214D01*
X648293Y256261D01*
X648247Y256314D01*
X648126Y256409D01*
X648011Y256511D01*
X647951Y256547D01*
X647896Y256591D01*
X647761Y256663D01*
X647630Y256743D01*
X647564Y256768D01*
X647502Y256801D01*
X647356Y256848D01*
X647213Y256903D01*
X647144Y256917D01*
X647077Y256938D01*
X646925Y256958D01*
X646774Y256987D01*
X646670Y256992D01*
X646634Y256997D01*
X646603Y256995D01*
X646527Y256999D01*
X638550Y256999D01*
X638500Y256995D01*
X638450Y256997D01*
X638278Y256975D01*
X638105Y256959D01*
X638057Y256946D01*
X638007Y256940D01*
X637842Y256887D01*
X637674Y256841D01*
X637629Y256819D01*
X637582Y256804D01*
X637428Y256723D01*
X637272Y256648D01*
X637231Y256618D01*
X637187Y256595D01*
X637050Y256488D01*
X636910Y256386D01*
X636875Y256350D01*
X636836Y256319D01*
X636720Y256189D01*
X636600Y256064D01*
X636573Y256022D01*
X636539Y255984D01*
X636449Y255836D01*
X636353Y255692D01*
X636333Y255646D01*
X636307Y255603D01*
X636245Y255441D01*
X636176Y255281D01*
X636165Y255233D01*
X636147Y255186D01*
X636114Y255015D01*
X636075Y254846D01*
X636072Y254796D01*
X636063Y254747D01*
X636051Y254500D01*
X636051Y234843D01*
X636055Y234793D01*
X636053Y234743D01*
X636075Y234571D01*
X636091Y234398D01*
X636104Y234350D01*
X636110Y234300D01*
X636163Y234135D01*
X636209Y233967D01*
X636231Y233922D01*
X636246Y233875D01*
X636327Y233722D01*
X636402Y233565D01*
X636432Y233524D01*
X636455Y233480D01*
X636562Y233344D01*
X636664Y233203D01*
X636700Y233168D01*
X636731Y233129D01*
X636861Y233014D01*
X636986Y232893D01*
X637028Y232866D01*
X637066Y232832D01*
X637214Y232742D01*
X637358Y232646D01*
X637404Y232626D01*
X637447Y232600D01*
X637609Y232538D01*
X637769Y232469D01*
X637817Y232458D01*
X637864Y232440D01*
X638035Y232407D01*
X638204Y232368D01*
X638254Y232366D01*
X638303Y232356D01*
X638550Y232344D01*
X646703Y232344D01*
X646856Y232358D01*
X647009Y232363D01*
X647078Y232377D01*
X647148Y232384D01*
X647296Y232424D01*
X647446Y232457D01*
X647511Y232484D01*
X647579Y232502D01*
X647717Y232569D01*
X647859Y232627D01*
X647918Y232665D01*
X647981Y232696D01*
X648106Y232786D01*
X648235Y232868D01*
X648286Y232916D01*
X648343Y232957D01*
X648450Y233068D01*
X648562Y233173D01*
X648604Y233229D01*
X648653Y233280D01*
X648738Y233407D01*
X648830Y233530D01*
X648861Y233593D01*
X648900Y233652D01*
X648961Y233792D01*
X649029Y233930D01*
X649049Y233997D01*
X649077Y234062D01*
X649112Y234211D01*
X649155Y234358D01*
X649162Y234428D01*
X649178Y234497D01*
X649186Y234650D01*
X649202Y234803D01*
X649197Y234873D01*
X649200Y234943D01*
X649180Y235095D01*
X649169Y235248D01*
X649147Y235350D01*
X649143Y235386D01*
X649133Y235416D01*
X649117Y235490D01*
X648909Y236266D01*
X648909Y242101D01*
X656850Y242101D01*
X656900Y242105D01*
X656950Y242103D01*
X657121Y242125D01*
X657252Y242137D01*
X657304Y242125D01*
X657354Y242122D01*
X657403Y242113D01*
X657650Y242101D01*
X665591Y242101D01*
X665591Y236266D01*
X665383Y235490D01*
X665357Y235339D01*
X665322Y235189D01*
X665318Y235119D01*
X665306Y235050D01*
X665307Y234896D01*
X665300Y234743D01*
X665309Y234674D01*
X665309Y234603D01*
X665338Y234452D01*
X665357Y234300D01*
X665379Y234233D01*
X665392Y234164D01*
X665446Y234021D01*
X665493Y233875D01*
X665526Y233813D01*
X665551Y233747D01*
X665630Y233615D01*
X665702Y233480D01*
X665746Y233425D01*
X665782Y233365D01*
X665883Y233249D01*
X665978Y233129D01*
X666031Y233082D01*
X666077Y233029D01*
X666198Y232934D01*
X666313Y232832D01*
X666373Y232796D01*
X666428Y232752D01*
X666563Y232680D01*
X666694Y232600D01*
X666760Y232575D01*
X666822Y232542D01*
X666968Y232495D01*
X667111Y232440D01*
X667180Y232427D01*
X667247Y232405D01*
X667399Y232385D01*
X667550Y232356D01*
X667654Y232351D01*
X667690Y232346D01*
X667721Y232348D01*
X667797Y232344D01*
X688594Y232344D01*
X690616Y231506D01*
X692163Y229959D01*
X693001Y227937D01*
X693001Y222750D01*
X693005Y222700D01*
X693003Y222650D01*
X693025Y222478D01*
X693041Y222305D01*
X693054Y222257D01*
X693060Y222207D01*
X693113Y222042D01*
X693159Y221874D01*
X693181Y221829D01*
X693196Y221782D01*
X693277Y221628D01*
X693352Y221472D01*
X693382Y221431D01*
X693405Y221387D01*
X693512Y221250D01*
X693614Y221110D01*
X693650Y221075D01*
X693681Y221036D01*
X693811Y220920D01*
X693936Y220800D01*
X693978Y220773D01*
X694016Y220739D01*
X694164Y220649D01*
X694308Y220553D01*
X694354Y220533D01*
X694397Y220507D01*
X694559Y220445D01*
X694719Y220376D01*
X694767Y220365D01*
X694814Y220347D01*
X694985Y220314D01*
X695154Y220275D01*
X695204Y220272D01*
X695253Y220263D01*
X695500Y220251D01*
X701863Y220251D01*
X702006Y220264D01*
G37*
G36*
X295100Y179083D02*
X295100Y179083D01*
X295273Y179087D01*
X295322Y179097D01*
X295372Y179100D01*
X295541Y179141D01*
X295711Y179175D01*
X295757Y179194D01*
X295806Y179205D01*
X295965Y179276D01*
X296126Y179340D01*
X296168Y179366D01*
X296214Y179387D01*
X296358Y179484D01*
X296505Y179576D01*
X296542Y179610D01*
X296584Y179638D01*
X296767Y179804D01*
X297521Y180558D01*
X297543Y180560D01*
X297708Y180613D01*
X297876Y180659D01*
X297921Y180681D01*
X297968Y180696D01*
X298122Y180777D01*
X298278Y180852D01*
X298319Y180882D01*
X298363Y180905D01*
X298500Y181012D01*
X298640Y181114D01*
X298675Y181150D01*
X298714Y181181D01*
X298830Y181311D01*
X298950Y181436D01*
X298977Y181478D01*
X299011Y181516D01*
X299101Y181664D01*
X299197Y181808D01*
X299217Y181854D01*
X299243Y181897D01*
X299305Y182059D01*
X299374Y182219D01*
X299385Y182267D01*
X299403Y182314D01*
X299436Y182485D01*
X299475Y182654D01*
X299478Y182704D01*
X299487Y182753D01*
X299499Y183000D01*
X299499Y186094D01*
X300337Y188116D01*
X301884Y189663D01*
X303906Y190501D01*
X323250Y190501D01*
X323300Y190505D01*
X323350Y190503D01*
X323522Y190525D01*
X323695Y190541D01*
X323743Y190554D01*
X323793Y190560D01*
X323958Y190613D01*
X324126Y190659D01*
X324171Y190681D01*
X324218Y190696D01*
X324372Y190777D01*
X324528Y190852D01*
X324569Y190882D01*
X324613Y190905D01*
X324750Y191012D01*
X324890Y191114D01*
X324925Y191150D01*
X324964Y191181D01*
X325080Y191311D01*
X325200Y191436D01*
X325227Y191478D01*
X325261Y191516D01*
X325351Y191664D01*
X325447Y191808D01*
X325467Y191854D01*
X325493Y191897D01*
X325555Y192059D01*
X325624Y192219D01*
X325635Y192267D01*
X325653Y192314D01*
X325686Y192485D01*
X325725Y192654D01*
X325728Y192704D01*
X325737Y192753D01*
X325749Y193000D01*
X325749Y193960D01*
X325745Y194010D01*
X325747Y194060D01*
X325725Y194232D01*
X325709Y194405D01*
X325696Y194453D01*
X325690Y194503D01*
X325637Y194668D01*
X325591Y194836D01*
X325569Y194881D01*
X325554Y194928D01*
X325473Y195082D01*
X325398Y195238D01*
X325368Y195279D01*
X325345Y195323D01*
X325238Y195459D01*
X325136Y195600D01*
X325100Y195635D01*
X325069Y195674D01*
X324939Y195790D01*
X324814Y195910D01*
X324772Y195937D01*
X324734Y195971D01*
X324586Y196061D01*
X324442Y196157D01*
X324396Y196177D01*
X324353Y196203D01*
X324190Y196265D01*
X324031Y196334D01*
X323983Y196345D01*
X323936Y196363D01*
X323765Y196396D01*
X323596Y196435D01*
X323546Y196438D01*
X323497Y196447D01*
X323250Y196459D01*
X321249Y196459D01*
X321249Y207000D01*
X321249Y217541D01*
X323250Y217541D01*
X323300Y217545D01*
X323350Y217543D01*
X323522Y217565D01*
X323695Y217581D01*
X323743Y217594D01*
X323793Y217600D01*
X323958Y217653D01*
X324126Y217699D01*
X324171Y217721D01*
X324218Y217736D01*
X324372Y217817D01*
X324528Y217892D01*
X324569Y217922D01*
X324613Y217945D01*
X324750Y218052D01*
X324890Y218154D01*
X324925Y218190D01*
X324964Y218221D01*
X325080Y218351D01*
X325200Y218476D01*
X325227Y218518D01*
X325261Y218556D01*
X325351Y218704D01*
X325447Y218848D01*
X325467Y218894D01*
X325493Y218937D01*
X325555Y219099D01*
X325624Y219259D01*
X325635Y219307D01*
X325653Y219354D01*
X325686Y219525D01*
X325725Y219694D01*
X325728Y219744D01*
X325737Y219793D01*
X325749Y220040D01*
X325749Y246094D01*
X326587Y248116D01*
X328134Y249663D01*
X330156Y250501D01*
X337000Y250501D01*
X337050Y250505D01*
X337100Y250503D01*
X337272Y250525D01*
X337445Y250541D01*
X337493Y250554D01*
X337543Y250560D01*
X337708Y250613D01*
X337876Y250659D01*
X337921Y250681D01*
X337968Y250696D01*
X338122Y250777D01*
X338278Y250852D01*
X338319Y250882D01*
X338363Y250905D01*
X338500Y251012D01*
X338640Y251114D01*
X338675Y251150D01*
X338714Y251181D01*
X338830Y251311D01*
X338950Y251436D01*
X338977Y251478D01*
X339011Y251516D01*
X339101Y251664D01*
X339197Y251808D01*
X339217Y251854D01*
X339243Y251897D01*
X339305Y252059D01*
X339374Y252219D01*
X339385Y252267D01*
X339403Y252314D01*
X339436Y252485D01*
X339475Y252654D01*
X339478Y252704D01*
X339487Y252753D01*
X339499Y253000D01*
X339499Y253858D01*
X339483Y254044D01*
X339471Y254230D01*
X339463Y254266D01*
X339459Y254303D01*
X339410Y254483D01*
X339366Y254664D01*
X339351Y254698D01*
X339341Y254733D01*
X339260Y254902D01*
X339184Y255072D01*
X339164Y255103D01*
X339148Y255136D01*
X339038Y255287D01*
X338933Y255442D01*
X338899Y255479D01*
X338886Y255498D01*
X338859Y255524D01*
X338767Y255625D01*
X338641Y255751D01*
X337499Y258508D01*
X337499Y261492D01*
X338641Y264249D01*
X338960Y264568D01*
X339048Y264673D01*
X339143Y264771D01*
X339191Y264844D01*
X339246Y264911D01*
X339314Y265029D01*
X339390Y265143D01*
X339424Y265223D01*
X339467Y265299D01*
X339513Y265428D01*
X339567Y265554D01*
X339587Y265638D01*
X339615Y265720D01*
X339637Y265856D01*
X339668Y265989D01*
X339672Y266075D01*
X339686Y266161D01*
X339683Y266298D01*
X339690Y266435D01*
X339679Y266521D01*
X339677Y266608D01*
X339650Y266742D01*
X339633Y266878D01*
X339606Y266961D01*
X339589Y267046D01*
X339538Y267173D01*
X339497Y267303D01*
X339456Y267380D01*
X339424Y267461D01*
X339352Y267577D01*
X339288Y267698D01*
X339234Y267766D01*
X339188Y267840D01*
X339096Y267942D01*
X339012Y268049D01*
X338947Y268107D01*
X338888Y268171D01*
X338780Y268255D01*
X338677Y268346D01*
X338603Y268391D01*
X338534Y268444D01*
X338412Y268507D01*
X338296Y268578D01*
X338215Y268609D01*
X338137Y268649D01*
X338006Y268689D01*
X337879Y268738D01*
X337793Y268755D01*
X337710Y268780D01*
X337575Y268796D01*
X337440Y268822D01*
X337304Y268829D01*
X337267Y268833D01*
X337243Y268832D01*
X337193Y268834D01*
X315750Y268834D01*
X315700Y268830D01*
X315650Y268832D01*
X315478Y268810D01*
X315305Y268794D01*
X315257Y268781D01*
X315207Y268775D01*
X315042Y268722D01*
X314874Y268676D01*
X314829Y268654D01*
X314782Y268639D01*
X314628Y268558D01*
X314472Y268483D01*
X314431Y268453D01*
X314387Y268430D01*
X314250Y268323D01*
X314110Y268221D01*
X314075Y268185D01*
X314036Y268154D01*
X313920Y268024D01*
X313800Y267899D01*
X313773Y267857D01*
X313739Y267819D01*
X313649Y267671D01*
X313553Y267527D01*
X313533Y267481D01*
X313507Y267438D01*
X313445Y267276D01*
X313376Y267116D01*
X313365Y267068D01*
X313347Y267021D01*
X313314Y266850D01*
X313275Y266681D01*
X313272Y266631D01*
X313263Y266582D01*
X313251Y266335D01*
X313251Y220040D01*
X313253Y220012D01*
X313253Y220003D01*
X313255Y219986D01*
X313253Y219940D01*
X313275Y219768D01*
X313291Y219595D01*
X313304Y219547D01*
X313310Y219497D01*
X313363Y219332D01*
X313409Y219164D01*
X313431Y219119D01*
X313446Y219072D01*
X313527Y218918D01*
X313602Y218762D01*
X313632Y218721D01*
X313655Y218677D01*
X313762Y218540D01*
X313864Y218400D01*
X313900Y218365D01*
X313931Y218326D01*
X314061Y218210D01*
X314186Y218090D01*
X314228Y218063D01*
X314266Y218029D01*
X314414Y217939D01*
X314558Y217843D01*
X314604Y217823D01*
X314647Y217797D01*
X314809Y217735D01*
X314969Y217666D01*
X315017Y217655D01*
X315064Y217637D01*
X315235Y217604D01*
X315404Y217565D01*
X315454Y217562D01*
X315503Y217553D01*
X315750Y217541D01*
X316251Y217541D01*
X316251Y207000D01*
X316251Y196459D01*
X314416Y196459D01*
X313695Y196652D01*
X313635Y196683D01*
X313584Y196699D01*
X313535Y196722D01*
X313370Y196765D01*
X313208Y196815D01*
X313155Y196821D01*
X313103Y196834D01*
X312933Y196847D01*
X312764Y196868D01*
X312711Y196864D01*
X312657Y196868D01*
X312488Y196851D01*
X312318Y196841D01*
X312266Y196828D01*
X312213Y196823D01*
X312050Y196775D01*
X311884Y196735D01*
X311835Y196713D01*
X311784Y196698D01*
X311632Y196623D01*
X311476Y196554D01*
X311432Y196524D01*
X311384Y196500D01*
X311383Y196499D01*
X300924Y196499D01*
X300779Y196544D01*
X300615Y196601D01*
X300565Y196609D01*
X300517Y196624D01*
X300345Y196645D01*
X300174Y196672D01*
X300124Y196671D01*
X300074Y196677D01*
X299901Y196667D01*
X299727Y196663D01*
X299678Y196653D01*
X299628Y196650D01*
X299459Y196609D01*
X299289Y196575D01*
X299243Y196556D01*
X299194Y196545D01*
X299092Y196499D01*
X289250Y196499D01*
X289200Y196495D01*
X289150Y196497D01*
X288978Y196475D01*
X288805Y196459D01*
X288757Y196446D01*
X288707Y196440D01*
X288542Y196387D01*
X288374Y196341D01*
X288329Y196319D01*
X288282Y196304D01*
X288128Y196223D01*
X287972Y196148D01*
X287931Y196118D01*
X287887Y196095D01*
X287750Y195988D01*
X287610Y195886D01*
X287575Y195850D01*
X287536Y195819D01*
X287420Y195689D01*
X287300Y195564D01*
X287273Y195522D01*
X287239Y195484D01*
X287149Y195336D01*
X287053Y195192D01*
X287033Y195146D01*
X287007Y195103D01*
X286945Y194941D01*
X286876Y194781D01*
X286865Y194733D01*
X286847Y194686D01*
X286814Y194515D01*
X286775Y194346D01*
X286772Y194296D01*
X286763Y194247D01*
X286751Y194000D01*
X286751Y183000D01*
X286755Y182950D01*
X286753Y182900D01*
X286775Y182728D01*
X286791Y182555D01*
X286804Y182507D01*
X286810Y182457D01*
X286863Y182292D01*
X286909Y182124D01*
X286931Y182079D01*
X286946Y182032D01*
X287027Y181878D01*
X287102Y181722D01*
X287132Y181681D01*
X287155Y181637D01*
X287262Y181500D01*
X287364Y181360D01*
X287400Y181325D01*
X287431Y181286D01*
X287561Y181170D01*
X287686Y181050D01*
X287728Y181023D01*
X287766Y180989D01*
X287914Y180899D01*
X288058Y180803D01*
X288104Y180783D01*
X288147Y180757D01*
X288309Y180695D01*
X288469Y180626D01*
X288517Y180615D01*
X288564Y180597D01*
X288735Y180564D01*
X288904Y180525D01*
X288954Y180522D01*
X289003Y180513D01*
X289250Y180501D01*
X292536Y180501D01*
X293233Y179804D01*
X293271Y179772D01*
X293305Y179735D01*
X293442Y179629D01*
X293576Y179517D01*
X293619Y179493D01*
X293659Y179462D01*
X293813Y179382D01*
X293964Y179297D01*
X294011Y179280D01*
X294056Y179257D01*
X294221Y179206D01*
X294385Y179149D01*
X294435Y179141D01*
X294483Y179126D01*
X294655Y179105D01*
X294826Y179078D01*
X294876Y179079D01*
X294926Y179073D01*
X295100Y179083D01*
G37*
%LPC*%
G36*
X687964Y67999D02*
X687964Y67999D01*
X686499Y69464D01*
X686499Y82536D01*
X687964Y84001D01*
X702036Y84001D01*
X703501Y82536D01*
X703501Y69464D01*
X702036Y67999D01*
X687964Y67999D01*
G37*
%LPD*%
%LPC*%
G36*
X627964Y30999D02*
X627964Y30999D01*
X626499Y32464D01*
X626499Y45536D01*
X627964Y47001D01*
X642036Y47001D01*
X643501Y45536D01*
X643501Y32464D01*
X642036Y30999D01*
X627964Y30999D01*
G37*
%LPD*%
%LPC*%
G36*
X523149Y182899D02*
X523149Y182899D01*
X523149Y190941D01*
X526384Y190941D01*
X527031Y190768D01*
X527610Y190433D01*
X528083Y189960D01*
X528418Y189381D01*
X528591Y188734D01*
X528591Y182899D01*
X523149Y182899D01*
G37*
%LPD*%
%LPC*%
G36*
X523149Y169059D02*
X523149Y169059D01*
X523149Y177101D01*
X528591Y177101D01*
X528591Y171266D01*
X528418Y170619D01*
X528083Y170040D01*
X527610Y169567D01*
X527031Y169232D01*
X526384Y169059D01*
X523149Y169059D01*
G37*
%LPD*%
%LPC*%
G36*
X511909Y182899D02*
X511909Y182899D01*
X511909Y188734D01*
X512082Y189381D01*
X512417Y189960D01*
X512890Y190433D01*
X513469Y190768D01*
X514116Y190941D01*
X517351Y190941D01*
X517351Y182899D01*
X511909Y182899D01*
G37*
%LPD*%
%LPC*%
G36*
X514116Y169059D02*
X514116Y169059D01*
X513469Y169232D01*
X512890Y169567D01*
X512417Y170040D01*
X512082Y170619D01*
X511909Y171266D01*
X511909Y177101D01*
X517351Y177101D01*
X517351Y169059D01*
X514116Y169059D01*
G37*
%LPD*%
%LPC*%
G36*
X637749Y67959D02*
X637749Y67959D01*
X637749Y73251D01*
X643541Y73251D01*
X643541Y70166D01*
X643368Y69519D01*
X643033Y68940D01*
X642560Y68467D01*
X641981Y68132D01*
X641334Y67959D01*
X637749Y67959D01*
G37*
%LPD*%
%LPC*%
G36*
X628666Y67959D02*
X628666Y67959D01*
X628019Y68132D01*
X627440Y68467D01*
X626967Y68940D01*
X626632Y69519D01*
X626459Y70166D01*
X626459Y73251D01*
X632251Y73251D01*
X632251Y67959D01*
X628666Y67959D01*
G37*
%LPD*%
%LPC*%
G36*
X582624Y78459D02*
X582624Y78459D01*
X582624Y83626D01*
X587941Y83626D01*
X587941Y80666D01*
X587768Y80019D01*
X587433Y79440D01*
X586960Y78967D01*
X586381Y78632D01*
X585734Y78459D01*
X582624Y78459D01*
G37*
%LPD*%
%LPC*%
G36*
X540416Y148959D02*
X540416Y148959D01*
X539769Y149132D01*
X539190Y149467D01*
X538717Y149940D01*
X538682Y150001D01*
X538647Y150051D01*
X538619Y150104D01*
X538519Y150233D01*
X538425Y150367D01*
X538382Y150409D01*
X538345Y150457D01*
X538306Y150491D01*
X538300Y150572D01*
X538296Y150736D01*
X538284Y150795D01*
X538280Y150855D01*
X538228Y151097D01*
X538209Y151166D01*
X538209Y152001D01*
X543501Y152001D01*
X543501Y148959D01*
X540416Y148959D01*
G37*
%LPD*%
%LPC*%
G36*
X538209Y156999D02*
X538209Y156999D01*
X538209Y157834D01*
X538382Y158481D01*
X538717Y159060D01*
X539190Y159533D01*
X539769Y159868D01*
X540416Y160041D01*
X543501Y160041D01*
X543501Y156999D01*
X538209Y156999D01*
G37*
%LPD*%
%LPC*%
G36*
X667499Y34749D02*
X667499Y34749D01*
X667499Y37041D01*
X670334Y37041D01*
X670981Y36868D01*
X671560Y36533D01*
X672033Y36060D01*
X672368Y35481D01*
X672541Y34834D01*
X672541Y34749D01*
X667499Y34749D01*
G37*
%LPD*%
%LPC*%
G36*
X657459Y34749D02*
X657459Y34749D01*
X657459Y34834D01*
X657632Y35481D01*
X657967Y36060D01*
X658440Y36533D01*
X659019Y36868D01*
X659666Y37041D01*
X662501Y37041D01*
X662501Y34749D01*
X657459Y34749D01*
G37*
%LPD*%
%LPC*%
G36*
X667499Y27459D02*
X667499Y27459D01*
X667499Y29751D01*
X672541Y29751D01*
X672541Y29666D01*
X672368Y29019D01*
X672033Y28440D01*
X671560Y27967D01*
X670981Y27632D01*
X670334Y27459D01*
X667499Y27459D01*
G37*
%LPD*%
%LPC*%
G36*
X667499Y77959D02*
X667499Y77959D01*
X667499Y80251D01*
X672541Y80251D01*
X672541Y80166D01*
X672368Y79519D01*
X672033Y78940D01*
X671560Y78467D01*
X670981Y78132D01*
X670334Y77959D01*
X667499Y77959D01*
G37*
%LPD*%
%LPC*%
G36*
X659666Y27459D02*
X659666Y27459D01*
X659019Y27632D01*
X658440Y27967D01*
X657967Y28440D01*
X657632Y29019D01*
X657459Y29666D01*
X657459Y29751D01*
X662501Y29751D01*
X662501Y27459D01*
X659666Y27459D01*
G37*
%LPD*%
%LPC*%
G36*
X659666Y77959D02*
X659666Y77959D01*
X659019Y78132D01*
X658440Y78467D01*
X657967Y78940D01*
X657632Y79519D01*
X657459Y80166D01*
X657459Y80251D01*
X662501Y80251D01*
X662501Y77959D01*
X659666Y77959D01*
G37*
%LPD*%
D10*
X285000Y170000D03*
X305000Y170000D03*
D11*
X580000Y103750D03*
X580000Y86250D03*
X490000Y103750D03*
X490000Y86250D03*
D12*
X462926Y62000D03*
X462926Y70000D03*
X462926Y78000D03*
X462926Y86000D03*
X462926Y94000D03*
X462926Y102000D03*
X462926Y110000D03*
X462926Y118000D03*
D13*
X448000Y132926D03*
X440000Y132926D03*
X432000Y132926D03*
X424000Y132926D03*
X416000Y132926D03*
X408000Y132926D03*
X400000Y132926D03*
X392000Y132926D03*
D12*
X377074Y118000D03*
X377074Y110000D03*
X377074Y102000D03*
X377074Y94000D03*
X377074Y86000D03*
X377074Y78000D03*
X377074Y70000D03*
X377074Y62000D03*
D13*
X392000Y47074D03*
X400000Y47074D03*
X408000Y47074D03*
X416000Y47074D03*
X424000Y47074D03*
X432000Y47074D03*
X440000Y47074D03*
X448000Y47074D03*
D14*
X546000Y135500D03*
X546000Y154500D03*
X524000Y145000D03*
D15*
X513500Y95000D03*
X556500Y95000D03*
D16*
X704960Y126250D03*
X704960Y138750D03*
X704960Y151250D03*
X704960Y163750D03*
X704960Y176250D03*
X704960Y188750D03*
X704960Y201250D03*
X704960Y213750D03*
D17*
X733960Y239250D03*
X733960Y100750D03*
D18*
X248620Y119600D02*
X233380Y119600D01*
X233380Y145000D02*
X248620Y145000D01*
X248620Y170400D02*
X233380Y170400D01*
D19*
X368750Y207000D03*
X356250Y207000D03*
X343750Y207000D03*
X331250Y207000D03*
X318750Y207000D03*
X306250Y207000D03*
X293750Y207000D03*
X281250Y207000D03*
X268750Y207000D03*
X256250Y207000D03*
X243750Y207000D03*
X231250Y207000D03*
D20*
X394250Y236000D03*
X205750Y236000D03*
D16*
X120000Y211250D03*
X120000Y198750D03*
X120000Y186250D03*
X120000Y173750D03*
X120000Y161250D03*
X120000Y148750D03*
D17*
X91000Y236750D03*
X91000Y123250D03*
D21*
X285250Y50000D03*
X314750Y50000D03*
X549750Y180000D03*
X520250Y180000D03*
X657250Y245000D03*
X627750Y245000D03*
X314750Y110000D03*
X285250Y110000D03*
X285250Y80000D03*
X314750Y80000D03*
D22*
X695000Y76000D03*
X695000Y39000D03*
X635000Y76000D03*
X635000Y39000D03*
D23*
X665000Y82750D03*
X665000Y32250D03*
D24*
X265000Y260000D03*
X325000Y260000D03*
D25*
X657250Y245000D02*
X677500Y245000D01*
D24*
X677500Y245000D03*
X607500Y145000D03*
X241250Y190000D03*
D25*
X462926Y110000D02*
X483750Y110000D01*
X490000Y103750D01*
X504750Y103750D01*
X513500Y95000D01*
X556500Y118000D02*
X462926Y118000D01*
X556500Y118000D02*
X556500Y95000D01*
X565250Y103750D02*
X580000Y103750D01*
X565250Y103750D02*
X556500Y95000D01*
D24*
X345000Y260000D03*
X740000Y122500D03*
D25*
X760000Y122500D01*
X760000Y175000D01*
X740000Y175000D01*
D24*
X740000Y175000D03*
D25*
X345000Y245000D02*
X345000Y260000D01*
X331250Y185000D02*
X305000Y185000D01*
X331250Y185000D02*
X331250Y207000D01*
X331250Y245000D02*
X345000Y245000D01*
X331250Y245000D02*
X331250Y207000D01*
X424000Y47074D02*
X424000Y12665D01*
X695000Y12665D01*
X695000Y39000D01*
D24*
X717500Y50000D03*
D25*
X717500Y40000D01*
X695000Y40000D01*
X695000Y39000D01*
X305000Y129750D02*
X305000Y170000D01*
X314750Y120000D02*
X314750Y110000D01*
X314750Y120000D02*
X305000Y129750D01*
X305000Y170000D02*
X305000Y185000D01*
D26*
X760000Y213750D02*
X760000Y275835D01*
D25*
X462926Y86000D02*
X450000Y86000D01*
X450000Y102000D02*
X462926Y102000D01*
X450000Y102000D02*
X450000Y94000D01*
X450000Y86000D01*
X410000Y94000D02*
X377074Y94000D01*
X410000Y94000D02*
X450000Y94000D01*
X410000Y110000D02*
X377074Y110000D01*
X410000Y110000D02*
X410000Y94000D01*
D27*
X337500Y145000D03*
D26*
X65000Y186250D02*
X65000Y272335D01*
D25*
X337500Y110000D02*
X377074Y110000D01*
D26*
X704960Y213750D02*
X760000Y213750D01*
X337500Y145000D02*
X337500Y110000D01*
D25*
X268750Y207000D02*
X268750Y215000D01*
D26*
X268750Y207000D02*
X268750Y120000D01*
X120000Y186250D02*
X65000Y186250D01*
X241000Y119600D02*
X268350Y119600D01*
D25*
X268750Y120000D01*
D26*
X314750Y50000D02*
X337500Y50000D01*
X337500Y80000D02*
X314750Y80000D01*
X337500Y80000D02*
X337500Y110000D01*
X337500Y80000D02*
X337500Y50000D01*
X314750Y80000D02*
X300000Y80000D01*
X300000Y110000D01*
X285250Y110000D01*
X277950Y110000D02*
X268350Y119600D01*
X277950Y110000D02*
X285250Y110000D01*
X68500Y275835D02*
X65000Y272335D01*
X68500Y275835D02*
X306250Y275835D01*
X306250Y225000D02*
X268750Y225000D01*
X268750Y215000D01*
X306250Y207000D02*
X306250Y225000D01*
X306250Y275835D02*
X760000Y275835D01*
X306250Y275835D02*
X306250Y225000D01*
D25*
X281250Y207000D02*
X281250Y173750D01*
X285000Y170000D01*
X462926Y62000D02*
X473000Y62000D01*
X515000Y52500D02*
X517500Y50000D01*
D24*
X517500Y50000D03*
X555000Y50000D03*
D26*
X555000Y65000D01*
D25*
X546000Y135500D02*
X546280Y135780D01*
D26*
X565000Y135780D02*
X585000Y135780D01*
X565000Y135780D02*
X546280Y135780D01*
D28*
X565000Y135780D02*
X565000Y180000D01*
X549750Y180000D01*
D25*
X515000Y52500D02*
X482500Y52500D01*
X473000Y62000D01*
D26*
X555000Y65000D02*
X601752Y65000D01*
X601752Y119028D02*
X585000Y135780D01*
X601752Y119028D02*
X601752Y65000D01*
D25*
X424000Y132926D02*
X424000Y245000D01*
X607500Y245000D01*
D24*
X607500Y245000D03*
D25*
X627750Y245000D01*
X517500Y25000D02*
X517500Y22000D01*
D24*
X517500Y25000D03*
X245000Y260000D03*
D25*
X432000Y22000D02*
X517500Y22000D01*
X432000Y22000D02*
X432000Y47074D01*
X243750Y258750D02*
X245000Y260000D01*
X243750Y258750D02*
X243750Y207000D01*
X490000Y40000D02*
X490000Y30000D01*
X440000Y30000D01*
X440000Y47074D01*
D24*
X490000Y40000D03*
X225000Y260000D03*
D25*
X231250Y253750D01*
X231250Y207000D01*
X392000Y154250D02*
X392000Y132926D01*
X392000Y154250D02*
X356250Y190000D01*
X356250Y207000D01*
X365000Y118000D02*
X377074Y118000D01*
X365000Y118000D02*
X365000Y125000D01*
X370000Y130000D01*
X370000Y160000D01*
X343750Y186250D01*
X343750Y207000D01*
X416000Y255000D02*
X416000Y132926D01*
X416000Y255000D02*
X575000Y255000D01*
D24*
X740000Y192500D03*
D25*
X736250Y188750D01*
X704960Y188750D01*
D24*
X677500Y262500D03*
D25*
X582500Y262500D01*
X575000Y255000D01*
X432000Y235000D02*
X432000Y132926D01*
X432000Y235000D02*
X575000Y235000D01*
X687500Y226843D02*
X687500Y176250D01*
X583157Y226843D02*
X575000Y235000D01*
X583157Y226843D02*
X687500Y226843D01*
X687500Y176250D02*
X704960Y176250D01*
X448000Y47074D02*
X448000Y40000D01*
D24*
X470000Y40000D03*
D25*
X448000Y40000D01*
D24*
X740000Y157500D03*
D25*
X719960Y138750D02*
X704960Y138750D01*
X738710Y157500D02*
X740000Y157500D01*
X738710Y157500D02*
X719960Y138750D01*
X448000Y132926D02*
X448000Y215000D01*
X565000Y215000D01*
X575000Y205000D01*
X683750Y151250D02*
X704960Y151250D01*
X683750Y151250D02*
X677500Y145000D01*
D24*
X677500Y145000D03*
X607500Y205000D03*
D25*
X575000Y205000D01*
X440000Y225000D02*
X440000Y132926D01*
X677500Y163750D02*
X677500Y217500D01*
X577500Y217500D02*
X570000Y225000D01*
X440000Y225000D01*
X577500Y217500D02*
X677500Y217500D01*
X677500Y163750D02*
X704960Y163750D01*
D24*
X740000Y140000D03*
D25*
X480000Y70000D02*
X462926Y70000D01*
X480000Y70000D02*
X485000Y65000D01*
D24*
X555000Y25000D03*
D25*
X736210Y140000D02*
X740000Y140000D01*
X736210Y140000D02*
X722460Y126250D01*
X704960Y126250D01*
X535000Y65000D02*
X485000Y65000D01*
X535000Y25000D02*
X555000Y25000D01*
X535000Y25000D02*
X535000Y65000D01*
X400000Y158750D02*
X368750Y190000D01*
X400000Y158750D02*
X400000Y132926D01*
X368750Y190000D02*
X368750Y207000D01*
X416000Y47074D02*
X416000Y12665D01*
X65000Y12665D01*
X65000Y161250D01*
X120000Y161250D01*
X140000Y200000D02*
X140000Y211250D01*
X120000Y211250D01*
D24*
X140000Y200000D03*
D25*
X140000Y161250D02*
X140000Y160000D01*
X140000Y161250D02*
X120000Y161250D01*
D24*
X140000Y160000D03*
D25*
X265000Y80000D02*
X285250Y80000D01*
D24*
X265000Y50000D03*
D25*
X265000Y80000D01*
X408000Y47074D02*
X408000Y25000D01*
X285000Y25000D02*
X141250Y25000D01*
X285000Y25000D02*
X408000Y25000D01*
X120000Y148750D02*
X93750Y148750D01*
X90000Y145000D01*
D24*
X90000Y145000D03*
X90000Y200000D03*
D25*
X91250Y198750D01*
X120000Y198750D01*
X120000Y148750D02*
X141250Y148750D01*
X141250Y25000D01*
X285250Y25250D02*
X285250Y50000D01*
X285250Y25250D02*
X285000Y25000D01*
D27*
X487500Y145000D03*
D29*
X524000Y145000D01*
M02*
