M48
;GenerationSoftware,Autodesk,EAGLE,9.1.0*%
;CreationDate,2020-06-23T23:40:24Z*%
FMAT,2
ICI,OFF
METRIC,TZ,000.000
T3C0.350
T2C1.016
T1C1.800
%
G90
M71
T1
X33750Y14500
X48750Y14500
T2
X24100Y17040
X24100Y11960
X24100Y14500
T3
X24125Y19000
X34500Y26000
X74000Y12250
X74000Y17500
X71750Y5000
X51750Y5000
X55500Y5000
X60750Y24500
X51750Y2500
X24500Y26000
X49000Y4000
X22500Y26000
X26500Y26000
X67750Y26250
X47000Y4000
X74000Y15750
X67750Y14500
X60750Y20500
X74000Y14000
X55500Y2500
X14000Y20000
X14000Y16000
X26500Y5000
X9000Y14500
X9000Y20000
X32500Y26000
X67750Y24500
X60750Y14500
X74000Y19250
M30