G04 EAGLE Gerber X2 export*
%TF.Part,Single*%
%TF.FileFunction,Profile,NP*%
%TF.FilePolarity,Positive*%
%TF.GenerationSoftware,Autodesk,EAGLE,9.1.0*%
%TF.CreationDate,2020-06-23T23:40:25Z*%
G75*
%MOMM*%
%FSLAX34Y34*%
%LPD*%
%AMOC8*
5,1,8,0,0,1.08239X$1,22.5*%
G01*
%ADD10C,0.254000*%


D10*
X200Y12700D02*
X248Y11593D01*
X393Y10495D01*
X633Y9413D01*
X966Y8356D01*
X1390Y7333D01*
X1901Y6350D01*
X2497Y5416D01*
X3171Y4537D01*
X3920Y3720D01*
X4737Y2971D01*
X5616Y2297D01*
X6550Y1701D01*
X7533Y1190D01*
X8556Y766D01*
X9613Y433D01*
X10695Y193D01*
X11793Y48D01*
X12900Y0D01*
X812500Y0D01*
X813607Y48D01*
X814705Y193D01*
X815787Y433D01*
X816844Y766D01*
X817867Y1190D01*
X818850Y1701D01*
X819784Y2297D01*
X820663Y2971D01*
X821480Y3720D01*
X822229Y4537D01*
X822903Y5416D01*
X823499Y6350D01*
X824010Y7333D01*
X824434Y8356D01*
X824767Y9413D01*
X825007Y10495D01*
X825152Y11593D01*
X825200Y12700D01*
X825200Y277300D01*
X825152Y278407D01*
X825007Y279505D01*
X824767Y280587D01*
X824434Y281644D01*
X824010Y282667D01*
X823499Y283650D01*
X822903Y284584D01*
X822229Y285463D01*
X821480Y286280D01*
X820663Y287029D01*
X819784Y287703D01*
X818850Y288299D01*
X817867Y288810D01*
X816844Y289234D01*
X815787Y289567D01*
X814705Y289807D01*
X813607Y289952D01*
X812500Y290000D01*
X12900Y290000D01*
X11793Y289952D01*
X10695Y289807D01*
X9613Y289567D01*
X8556Y289234D01*
X7533Y288810D01*
X6550Y288299D01*
X5616Y287703D01*
X4737Y287029D01*
X3920Y286280D01*
X3171Y285463D01*
X2497Y284584D01*
X1901Y283650D01*
X1390Y282667D01*
X966Y281644D01*
X633Y280587D01*
X393Y279505D01*
X248Y278407D01*
X200Y277300D01*
X200Y12700D01*
X628200Y170000D02*
X662200Y170000D01*
X662200Y194000D01*
X628200Y194000D01*
X628200Y170000D01*
X163200Y96000D02*
X197200Y96000D01*
X197200Y120000D01*
X163200Y120000D01*
X163200Y96000D01*
X163200Y170000D02*
X197200Y170000D01*
X197200Y194000D01*
X163200Y194000D01*
X163200Y170000D01*
X628200Y96000D02*
X662200Y96000D01*
X662200Y120000D01*
X628200Y120000D01*
X628200Y96000D01*
X45200Y254509D02*
X45200Y255491D01*
X45123Y256470D01*
X44969Y257441D01*
X44740Y258396D01*
X44436Y259330D01*
X44061Y260237D01*
X43615Y261112D01*
X43101Y261950D01*
X42524Y262745D01*
X41886Y263492D01*
X41192Y264186D01*
X40445Y264824D01*
X39650Y265401D01*
X38812Y265915D01*
X37937Y266361D01*
X37030Y266736D01*
X36096Y267040D01*
X35141Y267269D01*
X34170Y267423D01*
X33191Y267500D01*
X32209Y267500D01*
X31230Y267423D01*
X30260Y267269D01*
X29304Y267040D01*
X28370Y266736D01*
X27463Y266361D01*
X26588Y265915D01*
X25750Y265401D01*
X24955Y264824D01*
X24208Y264186D01*
X23514Y263492D01*
X22876Y262745D01*
X22299Y261950D01*
X21785Y261112D01*
X21339Y260237D01*
X20964Y259330D01*
X20660Y258396D01*
X20431Y257441D01*
X20277Y256470D01*
X20200Y255491D01*
X20200Y254509D01*
X20277Y253530D01*
X20431Y252560D01*
X20660Y251604D01*
X20964Y250670D01*
X21339Y249763D01*
X21785Y248888D01*
X22299Y248050D01*
X22876Y247255D01*
X23514Y246508D01*
X24208Y245814D01*
X24955Y245176D01*
X25750Y244599D01*
X26588Y244085D01*
X27463Y243639D01*
X28370Y243264D01*
X29304Y242960D01*
X30260Y242731D01*
X31230Y242577D01*
X32209Y242500D01*
X33191Y242500D01*
X34170Y242577D01*
X35141Y242731D01*
X36096Y242960D01*
X37030Y243264D01*
X37937Y243639D01*
X38812Y244085D01*
X39650Y244599D01*
X40445Y245176D01*
X41192Y245814D01*
X41886Y246508D01*
X42524Y247255D01*
X43101Y248050D01*
X43615Y248888D01*
X44061Y249763D01*
X44436Y250670D01*
X44740Y251604D01*
X44969Y252560D01*
X45123Y253530D01*
X45200Y254509D01*
X805200Y34509D02*
X805200Y35491D01*
X805123Y36470D01*
X804969Y37441D01*
X804740Y38396D01*
X804436Y39330D01*
X804061Y40237D01*
X803615Y41112D01*
X803101Y41950D01*
X802524Y42745D01*
X801886Y43492D01*
X801192Y44186D01*
X800445Y44824D01*
X799650Y45401D01*
X798812Y45915D01*
X797937Y46361D01*
X797030Y46736D01*
X796096Y47040D01*
X795141Y47269D01*
X794170Y47423D01*
X793191Y47500D01*
X792209Y47500D01*
X791230Y47423D01*
X790260Y47269D01*
X789304Y47040D01*
X788370Y46736D01*
X787463Y46361D01*
X786588Y45915D01*
X785750Y45401D01*
X784955Y44824D01*
X784208Y44186D01*
X783514Y43492D01*
X782876Y42745D01*
X782299Y41950D01*
X781785Y41112D01*
X781339Y40237D01*
X780964Y39330D01*
X780660Y38396D01*
X780431Y37441D01*
X780277Y36470D01*
X780200Y35491D01*
X780200Y34509D01*
X780277Y33530D01*
X780431Y32560D01*
X780660Y31604D01*
X780964Y30670D01*
X781339Y29763D01*
X781785Y28888D01*
X782299Y28050D01*
X782876Y27255D01*
X783514Y26508D01*
X784208Y25814D01*
X784955Y25176D01*
X785750Y24599D01*
X786588Y24085D01*
X787463Y23639D01*
X788370Y23264D01*
X789304Y22960D01*
X790260Y22731D01*
X791230Y22577D01*
X792209Y22500D01*
X793191Y22500D01*
X794170Y22577D01*
X795141Y22731D01*
X796096Y22960D01*
X797030Y23264D01*
X797937Y23639D01*
X798812Y24085D01*
X799650Y24599D01*
X800445Y25176D01*
X801192Y25814D01*
X801886Y26508D01*
X802524Y27255D01*
X803101Y28050D01*
X803615Y28888D01*
X804061Y29763D01*
X804436Y30670D01*
X804740Y31604D01*
X804969Y32560D01*
X805123Y33530D01*
X805200Y34509D01*
X805200Y254509D02*
X805200Y255491D01*
X805123Y256470D01*
X804969Y257441D01*
X804740Y258396D01*
X804436Y259330D01*
X804061Y260237D01*
X803615Y261112D01*
X803101Y261950D01*
X802524Y262745D01*
X801886Y263492D01*
X801192Y264186D01*
X800445Y264824D01*
X799650Y265401D01*
X798812Y265915D01*
X797937Y266361D01*
X797030Y266736D01*
X796096Y267040D01*
X795141Y267269D01*
X794170Y267423D01*
X793191Y267500D01*
X792209Y267500D01*
X791230Y267423D01*
X790260Y267269D01*
X789304Y267040D01*
X788370Y266736D01*
X787463Y266361D01*
X786588Y265915D01*
X785750Y265401D01*
X784955Y264824D01*
X784208Y264186D01*
X783514Y263492D01*
X782876Y262745D01*
X782299Y261950D01*
X781785Y261112D01*
X781339Y260237D01*
X780964Y259330D01*
X780660Y258396D01*
X780431Y257441D01*
X780277Y256470D01*
X780200Y255491D01*
X780200Y254509D01*
X780277Y253530D01*
X780431Y252560D01*
X780660Y251604D01*
X780964Y250670D01*
X781339Y249763D01*
X781785Y248888D01*
X782299Y248050D01*
X782876Y247255D01*
X783514Y246508D01*
X784208Y245814D01*
X784955Y245176D01*
X785750Y244599D01*
X786588Y244085D01*
X787463Y243639D01*
X788370Y243264D01*
X789304Y242960D01*
X790260Y242731D01*
X791230Y242577D01*
X792209Y242500D01*
X793191Y242500D01*
X794170Y242577D01*
X795141Y242731D01*
X796096Y242960D01*
X797030Y243264D01*
X797937Y243639D01*
X798812Y244085D01*
X799650Y244599D01*
X800445Y245176D01*
X801192Y245814D01*
X801886Y246508D01*
X802524Y247255D01*
X803101Y248050D01*
X803615Y248888D01*
X804061Y249763D01*
X804436Y250670D01*
X804740Y251604D01*
X804969Y252560D01*
X805123Y253530D01*
X805200Y254509D01*
X45200Y34509D02*
X45200Y35491D01*
X45123Y36470D01*
X44969Y37441D01*
X44740Y38396D01*
X44436Y39330D01*
X44061Y40237D01*
X43615Y41112D01*
X43101Y41950D01*
X42524Y42745D01*
X41886Y43492D01*
X41192Y44186D01*
X40445Y44824D01*
X39650Y45401D01*
X38812Y45915D01*
X37937Y46361D01*
X37030Y46736D01*
X36096Y47040D01*
X35141Y47269D01*
X34170Y47423D01*
X33191Y47500D01*
X32209Y47500D01*
X31230Y47423D01*
X30260Y47269D01*
X29304Y47040D01*
X28370Y46736D01*
X27463Y46361D01*
X26588Y45915D01*
X25750Y45401D01*
X24955Y44824D01*
X24208Y44186D01*
X23514Y43492D01*
X22876Y42745D01*
X22299Y41950D01*
X21785Y41112D01*
X21339Y40237D01*
X20964Y39330D01*
X20660Y38396D01*
X20431Y37441D01*
X20277Y36470D01*
X20200Y35491D01*
X20200Y34509D01*
X20277Y33530D01*
X20431Y32560D01*
X20660Y31604D01*
X20964Y30670D01*
X21339Y29763D01*
X21785Y28888D01*
X22299Y28050D01*
X22876Y27255D01*
X23514Y26508D01*
X24208Y25814D01*
X24955Y25176D01*
X25750Y24599D01*
X26588Y24085D01*
X27463Y23639D01*
X28370Y23264D01*
X29304Y22960D01*
X30260Y22731D01*
X31230Y22577D01*
X32209Y22500D01*
X33191Y22500D01*
X34170Y22577D01*
X35141Y22731D01*
X36096Y22960D01*
X37030Y23264D01*
X37937Y23639D01*
X38812Y24085D01*
X39650Y24599D01*
X40445Y25176D01*
X41192Y25814D01*
X41886Y26508D01*
X42524Y27255D01*
X43101Y28050D01*
X43615Y28888D01*
X44061Y29763D01*
X44436Y30670D01*
X44740Y31604D01*
X44969Y32560D01*
X45123Y33530D01*
X45200Y34509D01*
X189000Y144607D02*
X189000Y145393D01*
X188932Y146176D01*
X188795Y146950D01*
X188592Y147709D01*
X188323Y148447D01*
X187991Y149160D01*
X187598Y149840D01*
X187147Y150484D01*
X186642Y151086D01*
X186086Y151642D01*
X185484Y152147D01*
X184840Y152598D01*
X184160Y152991D01*
X183447Y153323D01*
X182709Y153592D01*
X181950Y153795D01*
X181176Y153932D01*
X180393Y154000D01*
X179607Y154000D01*
X178824Y153932D01*
X178050Y153795D01*
X177291Y153592D01*
X176553Y153323D01*
X175840Y152991D01*
X175160Y152598D01*
X174516Y152147D01*
X173914Y151642D01*
X173358Y151086D01*
X172853Y150484D01*
X172402Y149840D01*
X172009Y149160D01*
X171677Y148447D01*
X171408Y147709D01*
X171205Y146950D01*
X171069Y146176D01*
X171000Y145393D01*
X171000Y144607D01*
X171069Y143824D01*
X171205Y143050D01*
X171408Y142291D01*
X171677Y141553D01*
X172009Y140840D01*
X172402Y140160D01*
X172853Y139516D01*
X173358Y138914D01*
X173914Y138358D01*
X174516Y137853D01*
X175160Y137402D01*
X175840Y137009D01*
X176553Y136677D01*
X177291Y136408D01*
X178050Y136205D01*
X178824Y136069D01*
X179607Y136000D01*
X180393Y136000D01*
X181176Y136069D01*
X181950Y136205D01*
X182709Y136408D01*
X183447Y136677D01*
X184160Y137009D01*
X184840Y137402D01*
X185484Y137853D01*
X186086Y138358D01*
X186642Y138914D01*
X187147Y139516D01*
X187598Y140160D01*
X187991Y140840D01*
X188323Y141553D01*
X188592Y142291D01*
X188795Y143050D01*
X188932Y143824D01*
X189000Y144607D01*
X654000Y144607D02*
X654000Y145393D01*
X653932Y146176D01*
X653795Y146950D01*
X653592Y147709D01*
X653323Y148447D01*
X652991Y149160D01*
X652598Y149840D01*
X652147Y150484D01*
X651642Y151086D01*
X651086Y151642D01*
X650484Y152147D01*
X649840Y152598D01*
X649160Y152991D01*
X648447Y153323D01*
X647709Y153592D01*
X646950Y153795D01*
X646176Y153932D01*
X645393Y154000D01*
X644607Y154000D01*
X643824Y153932D01*
X643050Y153795D01*
X642291Y153592D01*
X641553Y153323D01*
X640840Y152991D01*
X640160Y152598D01*
X639516Y152147D01*
X638914Y151642D01*
X638358Y151086D01*
X637853Y150484D01*
X637402Y149840D01*
X637009Y149160D01*
X636677Y148447D01*
X636408Y147709D01*
X636205Y146950D01*
X636069Y146176D01*
X636000Y145393D01*
X636000Y144607D01*
X636069Y143824D01*
X636205Y143050D01*
X636408Y142291D01*
X636677Y141553D01*
X637009Y140840D01*
X637402Y140160D01*
X637853Y139516D01*
X638358Y138914D01*
X638914Y138358D01*
X639516Y137853D01*
X640160Y137402D01*
X640840Y137009D01*
X641553Y136677D01*
X642291Y136408D01*
X643050Y136205D01*
X643824Y136069D01*
X644607Y136000D01*
X645393Y136000D01*
X646176Y136069D01*
X646950Y136205D01*
X647709Y136408D01*
X648447Y136677D01*
X649160Y137009D01*
X649840Y137402D01*
X650484Y137853D01*
X651086Y138358D01*
X651642Y138914D01*
X652147Y139516D01*
X652598Y140160D01*
X652991Y140840D01*
X653323Y141553D01*
X653592Y142291D01*
X653795Y143050D01*
X653932Y143824D01*
X654000Y144607D01*
M02*
