G04 EAGLE Gerber X2 export*
%TF.Part,Single*%
%TF.FileFunction,Legend,Top,1*%
%TF.FilePolarity,Positive*%
%TF.GenerationSoftware,Autodesk,EAGLE,9.1.0*%
%TF.CreationDate,2020-06-23T23:40:25Z*%
G75*
%MOMM*%
%FSLAX34Y34*%
%LPD*%
%AMOC8*
5,1,8,0,0,1.08239X$1,22.5*%
G01*
%ADD10C,0.076200*%
%ADD11C,0.203200*%
%ADD12C,0.127000*%
%ADD13C,0.200000*%
%ADD14C,0.101600*%
%ADD15C,0.152400*%
%ADD16C,0.100000*%
%ADD17C,0.300000*%
%ADD18C,0.300000*%
%ADD19C,0.050800*%
%ADD20C,0.200000*%


D10*
X289558Y179131D02*
X287469Y179131D01*
X287380Y179133D01*
X287292Y179139D01*
X287204Y179148D01*
X287116Y179161D01*
X287029Y179178D01*
X286943Y179198D01*
X286858Y179223D01*
X286773Y179250D01*
X286690Y179282D01*
X286609Y179316D01*
X286529Y179355D01*
X286451Y179396D01*
X286374Y179441D01*
X286300Y179489D01*
X286227Y179540D01*
X286157Y179594D01*
X286090Y179652D01*
X286024Y179712D01*
X285962Y179774D01*
X285902Y179840D01*
X285844Y179907D01*
X285790Y179977D01*
X285739Y180050D01*
X285691Y180124D01*
X285646Y180201D01*
X285605Y180279D01*
X285566Y180359D01*
X285532Y180440D01*
X285500Y180523D01*
X285473Y180608D01*
X285448Y180693D01*
X285428Y180779D01*
X285411Y180866D01*
X285398Y180954D01*
X285389Y181042D01*
X285383Y181130D01*
X285381Y181219D01*
X285381Y186441D01*
X285383Y186532D01*
X285389Y186623D01*
X285399Y186714D01*
X285413Y186804D01*
X285430Y186893D01*
X285452Y186981D01*
X285478Y187069D01*
X285507Y187155D01*
X285540Y187240D01*
X285577Y187323D01*
X285617Y187405D01*
X285661Y187485D01*
X285708Y187563D01*
X285759Y187639D01*
X285812Y187712D01*
X285869Y187783D01*
X285930Y187852D01*
X285993Y187917D01*
X286058Y187980D01*
X286127Y188040D01*
X286198Y188098D01*
X286271Y188151D01*
X286347Y188202D01*
X286425Y188249D01*
X286505Y188293D01*
X286587Y188333D01*
X286670Y188370D01*
X286755Y188403D01*
X286841Y188432D01*
X286929Y188458D01*
X287017Y188480D01*
X287106Y188497D01*
X287196Y188511D01*
X287287Y188521D01*
X287378Y188527D01*
X287469Y188529D01*
X289558Y188529D01*
X293027Y186441D02*
X295637Y188529D01*
X295637Y179131D01*
X293027Y179131D02*
X298248Y179131D01*
X596279Y93929D02*
X596279Y91841D01*
X596277Y91752D01*
X596271Y91664D01*
X596262Y91576D01*
X596249Y91488D01*
X596232Y91401D01*
X596212Y91315D01*
X596187Y91230D01*
X596160Y91145D01*
X596128Y91062D01*
X596094Y90981D01*
X596055Y90901D01*
X596014Y90823D01*
X595969Y90746D01*
X595921Y90672D01*
X595870Y90599D01*
X595816Y90529D01*
X595758Y90462D01*
X595698Y90396D01*
X595636Y90334D01*
X595570Y90274D01*
X595503Y90216D01*
X595433Y90162D01*
X595360Y90111D01*
X595286Y90063D01*
X595209Y90018D01*
X595131Y89977D01*
X595051Y89938D01*
X594970Y89904D01*
X594887Y89872D01*
X594802Y89845D01*
X594717Y89820D01*
X594631Y89800D01*
X594544Y89783D01*
X594456Y89770D01*
X594368Y89761D01*
X594280Y89755D01*
X594191Y89753D01*
X594191Y89752D02*
X588969Y89752D01*
X588878Y89754D01*
X588787Y89760D01*
X588696Y89770D01*
X588606Y89784D01*
X588517Y89802D01*
X588428Y89823D01*
X588341Y89849D01*
X588255Y89878D01*
X588170Y89911D01*
X588086Y89948D01*
X588004Y89988D01*
X587925Y90032D01*
X587847Y90079D01*
X587771Y90130D01*
X587697Y90184D01*
X587626Y90241D01*
X587558Y90301D01*
X587492Y90364D01*
X587429Y90430D01*
X587369Y90498D01*
X587312Y90569D01*
X587258Y90643D01*
X587207Y90719D01*
X587160Y90796D01*
X587116Y90876D01*
X587076Y90958D01*
X587039Y91042D01*
X587006Y91126D01*
X586977Y91213D01*
X586951Y91300D01*
X586930Y91389D01*
X586912Y91478D01*
X586898Y91568D01*
X586888Y91659D01*
X586882Y91750D01*
X586880Y91841D01*
X586881Y91841D02*
X586881Y93929D01*
X586881Y99486D02*
X594191Y97398D01*
X594191Y102619D01*
X592102Y101053D02*
X596279Y101053D01*
X506279Y93929D02*
X506279Y91841D01*
X506277Y91752D01*
X506271Y91664D01*
X506262Y91576D01*
X506249Y91488D01*
X506232Y91401D01*
X506212Y91315D01*
X506187Y91230D01*
X506160Y91145D01*
X506128Y91062D01*
X506094Y90981D01*
X506055Y90901D01*
X506014Y90823D01*
X505969Y90746D01*
X505921Y90672D01*
X505870Y90599D01*
X505816Y90529D01*
X505758Y90462D01*
X505698Y90396D01*
X505636Y90334D01*
X505570Y90274D01*
X505503Y90216D01*
X505433Y90162D01*
X505360Y90111D01*
X505286Y90063D01*
X505209Y90018D01*
X505131Y89977D01*
X505051Y89938D01*
X504970Y89904D01*
X504887Y89872D01*
X504802Y89845D01*
X504717Y89820D01*
X504631Y89800D01*
X504544Y89783D01*
X504456Y89770D01*
X504368Y89761D01*
X504280Y89755D01*
X504191Y89753D01*
X504191Y89752D02*
X498969Y89752D01*
X498878Y89754D01*
X498787Y89760D01*
X498696Y89770D01*
X498606Y89784D01*
X498517Y89802D01*
X498428Y89823D01*
X498341Y89849D01*
X498255Y89878D01*
X498170Y89911D01*
X498086Y89948D01*
X498004Y89988D01*
X497925Y90032D01*
X497847Y90079D01*
X497771Y90130D01*
X497697Y90184D01*
X497626Y90241D01*
X497558Y90301D01*
X497492Y90364D01*
X497429Y90430D01*
X497369Y90498D01*
X497312Y90569D01*
X497258Y90643D01*
X497207Y90719D01*
X497160Y90796D01*
X497116Y90876D01*
X497076Y90958D01*
X497039Y91042D01*
X497006Y91126D01*
X496977Y91213D01*
X496951Y91300D01*
X496930Y91389D01*
X496912Y91478D01*
X496898Y91568D01*
X496888Y91659D01*
X496882Y91750D01*
X496880Y91841D01*
X496881Y91841D02*
X496881Y93929D01*
X506279Y97398D02*
X506279Y100531D01*
X506277Y100620D01*
X506271Y100708D01*
X506262Y100796D01*
X506249Y100884D01*
X506232Y100971D01*
X506212Y101057D01*
X506187Y101142D01*
X506160Y101227D01*
X506128Y101310D01*
X506094Y101391D01*
X506055Y101471D01*
X506014Y101549D01*
X505969Y101626D01*
X505921Y101700D01*
X505870Y101773D01*
X505816Y101843D01*
X505758Y101910D01*
X505698Y101976D01*
X505636Y102038D01*
X505570Y102098D01*
X505503Y102156D01*
X505433Y102210D01*
X505360Y102261D01*
X505286Y102309D01*
X505209Y102354D01*
X505131Y102395D01*
X505051Y102434D01*
X504970Y102468D01*
X504887Y102500D01*
X504802Y102527D01*
X504717Y102552D01*
X504631Y102572D01*
X504544Y102589D01*
X504456Y102602D01*
X504368Y102611D01*
X504280Y102617D01*
X504191Y102619D01*
X503146Y102619D01*
X503057Y102617D01*
X502969Y102611D01*
X502881Y102602D01*
X502793Y102589D01*
X502706Y102572D01*
X502620Y102552D01*
X502535Y102527D01*
X502450Y102500D01*
X502367Y102468D01*
X502286Y102434D01*
X502206Y102395D01*
X502128Y102354D01*
X502051Y102309D01*
X501977Y102261D01*
X501904Y102210D01*
X501834Y102156D01*
X501767Y102098D01*
X501701Y102038D01*
X501639Y101976D01*
X501579Y101910D01*
X501521Y101843D01*
X501467Y101773D01*
X501416Y101700D01*
X501368Y101626D01*
X501323Y101549D01*
X501282Y101471D01*
X501243Y101391D01*
X501209Y101310D01*
X501177Y101227D01*
X501150Y101142D01*
X501125Y101057D01*
X501105Y100971D01*
X501088Y100884D01*
X501075Y100796D01*
X501066Y100708D01*
X501060Y100620D01*
X501058Y100531D01*
X501058Y97398D01*
X496881Y97398D01*
X496881Y102619D01*
D11*
X384950Y125050D02*
X384950Y54950D01*
X384950Y125050D02*
X455050Y125050D01*
X455050Y58500D01*
X451500Y54950D02*
X384950Y54950D01*
X451500Y54950D02*
X455050Y58500D01*
X455052Y53170D02*
X455054Y53248D01*
X455060Y53325D01*
X455070Y53403D01*
X455084Y53479D01*
X455101Y53555D01*
X455123Y53630D01*
X455148Y53703D01*
X455177Y53776D01*
X455210Y53846D01*
X455247Y53915D01*
X455286Y53982D01*
X455329Y54047D01*
X455376Y54109D01*
X455425Y54169D01*
X455478Y54227D01*
X455533Y54281D01*
X455591Y54333D01*
X455652Y54382D01*
X455715Y54428D01*
X455781Y54470D01*
X455848Y54509D01*
X455917Y54544D01*
X455988Y54576D01*
X456061Y54604D01*
X456135Y54629D01*
X456210Y54649D01*
X456286Y54666D01*
X456363Y54679D01*
X456440Y54688D01*
X456518Y54693D01*
X456595Y54694D01*
X456673Y54691D01*
X456751Y54684D01*
X456828Y54673D01*
X456904Y54658D01*
X456980Y54640D01*
X457054Y54617D01*
X457128Y54591D01*
X457199Y54561D01*
X457270Y54527D01*
X457338Y54490D01*
X457404Y54449D01*
X457469Y54405D01*
X457531Y54358D01*
X457590Y54308D01*
X457647Y54254D01*
X457701Y54198D01*
X457752Y54140D01*
X457800Y54078D01*
X457845Y54015D01*
X457886Y53949D01*
X457924Y53881D01*
X457959Y53811D01*
X457990Y53740D01*
X458017Y53667D01*
X458040Y53593D01*
X458060Y53517D01*
X458076Y53441D01*
X458088Y53364D01*
X458096Y53287D01*
X458100Y53209D01*
X458100Y53131D01*
X458096Y53053D01*
X458088Y52976D01*
X458076Y52899D01*
X458060Y52823D01*
X458040Y52747D01*
X458017Y52673D01*
X457990Y52600D01*
X457959Y52529D01*
X457924Y52459D01*
X457886Y52391D01*
X457845Y52325D01*
X457800Y52262D01*
X457752Y52200D01*
X457701Y52142D01*
X457647Y52086D01*
X457590Y52032D01*
X457531Y51982D01*
X457469Y51935D01*
X457404Y51891D01*
X457338Y51850D01*
X457270Y51813D01*
X457199Y51779D01*
X457128Y51749D01*
X457054Y51723D01*
X456980Y51700D01*
X456904Y51682D01*
X456828Y51667D01*
X456751Y51656D01*
X456673Y51649D01*
X456595Y51646D01*
X456518Y51647D01*
X456440Y51652D01*
X456363Y51661D01*
X456286Y51674D01*
X456210Y51691D01*
X456135Y51711D01*
X456061Y51736D01*
X455988Y51764D01*
X455917Y51796D01*
X455848Y51831D01*
X455781Y51870D01*
X455715Y51912D01*
X455652Y51958D01*
X455591Y52007D01*
X455533Y52059D01*
X455478Y52113D01*
X455425Y52171D01*
X455376Y52231D01*
X455329Y52293D01*
X455286Y52358D01*
X455247Y52425D01*
X455210Y52494D01*
X455177Y52564D01*
X455148Y52637D01*
X455123Y52710D01*
X455101Y52785D01*
X455084Y52861D01*
X455070Y52937D01*
X455060Y53015D01*
X455054Y53092D01*
X455052Y53170D01*
D12*
X477785Y105825D02*
X481270Y105825D01*
X481270Y105824D02*
X481341Y105826D01*
X481413Y105832D01*
X481483Y105841D01*
X481553Y105854D01*
X481623Y105871D01*
X481691Y105892D01*
X481758Y105916D01*
X481824Y105944D01*
X481888Y105975D01*
X481951Y106010D01*
X482011Y106048D01*
X482070Y106089D01*
X482126Y106133D01*
X482180Y106180D01*
X482231Y106229D01*
X482279Y106282D01*
X482325Y106337D01*
X482367Y106394D01*
X482407Y106454D01*
X482443Y106515D01*
X482476Y106579D01*
X482505Y106644D01*
X482531Y106710D01*
X482554Y106778D01*
X482573Y106847D01*
X482588Y106917D01*
X482599Y106987D01*
X482607Y107058D01*
X482611Y107129D01*
X482611Y107201D01*
X482607Y107272D01*
X482599Y107343D01*
X482588Y107413D01*
X482573Y107483D01*
X482554Y107552D01*
X482531Y107620D01*
X482505Y107686D01*
X482476Y107751D01*
X482443Y107815D01*
X482407Y107876D01*
X482367Y107936D01*
X482325Y107993D01*
X482279Y108048D01*
X482231Y108101D01*
X482180Y108150D01*
X482126Y108197D01*
X482070Y108241D01*
X482011Y108282D01*
X481951Y108320D01*
X481888Y108355D01*
X481824Y108386D01*
X481758Y108414D01*
X481691Y108438D01*
X481623Y108459D01*
X481553Y108476D01*
X481483Y108489D01*
X481413Y108498D01*
X481341Y108504D01*
X481270Y108506D01*
X477785Y108506D01*
X477785Y112969D02*
X477787Y113037D01*
X477793Y113104D01*
X477802Y113171D01*
X477815Y113238D01*
X477832Y113303D01*
X477853Y113368D01*
X477877Y113431D01*
X477905Y113493D01*
X477936Y113553D01*
X477970Y113611D01*
X478008Y113667D01*
X478048Y113722D01*
X478092Y113773D01*
X478139Y113822D01*
X478188Y113869D01*
X478239Y113913D01*
X478294Y113953D01*
X478350Y113991D01*
X478408Y114025D01*
X478468Y114056D01*
X478530Y114084D01*
X478593Y114108D01*
X478658Y114129D01*
X478723Y114146D01*
X478790Y114159D01*
X478857Y114168D01*
X478924Y114174D01*
X478992Y114176D01*
X477785Y112969D02*
X477787Y112891D01*
X477793Y112813D01*
X477803Y112736D01*
X477816Y112659D01*
X477834Y112583D01*
X477855Y112508D01*
X477880Y112434D01*
X477909Y112362D01*
X477941Y112291D01*
X477977Y112222D01*
X478016Y112154D01*
X478059Y112089D01*
X478105Y112026D01*
X478154Y111965D01*
X478206Y111907D01*
X478261Y111852D01*
X478318Y111799D01*
X478378Y111750D01*
X478441Y111703D01*
X478506Y111660D01*
X478572Y111620D01*
X478641Y111583D01*
X478712Y111550D01*
X478784Y111520D01*
X478858Y111494D01*
X479930Y113773D02*
X479881Y113822D01*
X479829Y113869D01*
X479774Y113912D01*
X479717Y113953D01*
X479658Y113991D01*
X479597Y114025D01*
X479534Y114056D01*
X479470Y114084D01*
X479404Y114108D01*
X479338Y114128D01*
X479270Y114145D01*
X479201Y114158D01*
X479132Y114167D01*
X479062Y114173D01*
X478992Y114175D01*
X479930Y113773D02*
X482611Y111494D01*
X482611Y114175D01*
D13*
X532750Y130500D02*
X537250Y130500D01*
X532750Y130500D02*
X532750Y159500D01*
X537250Y159500D01*
X537250Y130500D01*
X540750Y130000D02*
X551250Y130000D01*
D14*
X526183Y142404D02*
X526183Y147596D01*
X526182Y147596D02*
X526184Y147709D01*
X526190Y147822D01*
X526200Y147935D01*
X526214Y148048D01*
X526231Y148160D01*
X526253Y148271D01*
X526278Y148381D01*
X526308Y148491D01*
X526341Y148599D01*
X526378Y148706D01*
X526418Y148812D01*
X526463Y148916D01*
X526511Y149019D01*
X526562Y149120D01*
X526617Y149219D01*
X526675Y149316D01*
X526737Y149411D01*
X526802Y149504D01*
X526870Y149594D01*
X526941Y149682D01*
X527016Y149768D01*
X527093Y149851D01*
X527173Y149931D01*
X527256Y150008D01*
X527342Y150083D01*
X527430Y150154D01*
X527520Y150222D01*
X527613Y150287D01*
X527708Y150349D01*
X527805Y150407D01*
X527904Y150462D01*
X528005Y150513D01*
X528108Y150561D01*
X528212Y150606D01*
X528318Y150646D01*
X528425Y150683D01*
X528533Y150716D01*
X528643Y150746D01*
X528753Y150771D01*
X528864Y150793D01*
X528976Y150810D01*
X529089Y150824D01*
X529202Y150834D01*
X529315Y150840D01*
X529428Y150842D01*
X529541Y150840D01*
X529654Y150834D01*
X529767Y150824D01*
X529880Y150810D01*
X529992Y150793D01*
X530103Y150771D01*
X530213Y150746D01*
X530323Y150716D01*
X530431Y150683D01*
X530538Y150646D01*
X530644Y150606D01*
X530748Y150561D01*
X530851Y150513D01*
X530952Y150462D01*
X531051Y150407D01*
X531148Y150349D01*
X531243Y150287D01*
X531336Y150222D01*
X531426Y150154D01*
X531514Y150083D01*
X531600Y150008D01*
X531683Y149931D01*
X531763Y149851D01*
X531840Y149768D01*
X531915Y149682D01*
X531986Y149594D01*
X532054Y149504D01*
X532119Y149411D01*
X532181Y149316D01*
X532239Y149219D01*
X532294Y149120D01*
X532345Y149019D01*
X532393Y148916D01*
X532438Y148812D01*
X532478Y148706D01*
X532515Y148599D01*
X532548Y148491D01*
X532578Y148381D01*
X532603Y148271D01*
X532625Y148160D01*
X532642Y148048D01*
X532656Y147935D01*
X532666Y147822D01*
X532672Y147709D01*
X532674Y147596D01*
X532674Y142404D01*
X532672Y142291D01*
X532666Y142178D01*
X532656Y142065D01*
X532642Y141952D01*
X532625Y141840D01*
X532603Y141729D01*
X532578Y141619D01*
X532548Y141509D01*
X532515Y141401D01*
X532478Y141294D01*
X532438Y141188D01*
X532393Y141084D01*
X532345Y140981D01*
X532294Y140880D01*
X532239Y140781D01*
X532181Y140684D01*
X532119Y140589D01*
X532054Y140496D01*
X531986Y140406D01*
X531915Y140318D01*
X531840Y140232D01*
X531763Y140149D01*
X531683Y140069D01*
X531600Y139992D01*
X531514Y139917D01*
X531426Y139846D01*
X531336Y139778D01*
X531243Y139713D01*
X531148Y139651D01*
X531051Y139593D01*
X530952Y139538D01*
X530851Y139487D01*
X530748Y139439D01*
X530644Y139394D01*
X530538Y139354D01*
X530431Y139317D01*
X530323Y139284D01*
X530213Y139254D01*
X530103Y139229D01*
X529992Y139207D01*
X529880Y139190D01*
X529767Y139176D01*
X529654Y139166D01*
X529541Y139160D01*
X529428Y139158D01*
X529315Y139160D01*
X529202Y139166D01*
X529089Y139176D01*
X528976Y139190D01*
X528864Y139207D01*
X528753Y139229D01*
X528643Y139254D01*
X528533Y139284D01*
X528425Y139317D01*
X528318Y139354D01*
X528212Y139394D01*
X528108Y139439D01*
X528005Y139487D01*
X527904Y139538D01*
X527805Y139593D01*
X527708Y139651D01*
X527613Y139713D01*
X527520Y139778D01*
X527430Y139846D01*
X527342Y139917D01*
X527256Y139992D01*
X527173Y140069D01*
X527093Y140149D01*
X527016Y140232D01*
X526941Y140318D01*
X526870Y140406D01*
X526802Y140496D01*
X526737Y140589D01*
X526675Y140684D01*
X526617Y140781D01*
X526562Y140880D01*
X526511Y140981D01*
X526463Y141084D01*
X526418Y141188D01*
X526378Y141294D01*
X526341Y141401D01*
X526308Y141509D01*
X526278Y141619D01*
X526253Y141729D01*
X526231Y141840D01*
X526214Y141952D01*
X526200Y142065D01*
X526190Y142178D01*
X526184Y142291D01*
X526182Y142404D01*
X531375Y141754D02*
X533972Y139158D01*
X537326Y148246D02*
X540572Y150842D01*
X540572Y139158D01*
X543817Y139158D02*
X537326Y139158D01*
D12*
X560000Y112000D02*
X510000Y112000D01*
X510000Y78000D02*
X560000Y78000D01*
D14*
X507354Y122723D02*
X503452Y128251D01*
X507354Y122723D02*
X511256Y128251D01*
X507354Y122723D02*
X507354Y116545D01*
X519129Y128251D02*
X519236Y128249D01*
X519343Y128243D01*
X519449Y128233D01*
X519555Y128220D01*
X519661Y128202D01*
X519765Y128181D01*
X519869Y128156D01*
X519972Y128127D01*
X520074Y128094D01*
X520175Y128058D01*
X520274Y128018D01*
X520371Y127974D01*
X520467Y127927D01*
X520562Y127876D01*
X520654Y127822D01*
X520744Y127765D01*
X520832Y127704D01*
X520918Y127641D01*
X521001Y127574D01*
X521082Y127504D01*
X521161Y127431D01*
X521236Y127356D01*
X521309Y127277D01*
X521379Y127196D01*
X521446Y127113D01*
X521509Y127027D01*
X521570Y126939D01*
X521627Y126849D01*
X521681Y126757D01*
X521732Y126662D01*
X521779Y126566D01*
X521823Y126469D01*
X521863Y126370D01*
X521899Y126269D01*
X521932Y126167D01*
X521961Y126064D01*
X521986Y125960D01*
X522007Y125856D01*
X522025Y125750D01*
X522038Y125644D01*
X522048Y125538D01*
X522054Y125431D01*
X522056Y125324D01*
X519129Y128251D02*
X519008Y128249D01*
X518887Y128243D01*
X518766Y128233D01*
X518645Y128220D01*
X518525Y128202D01*
X518406Y128181D01*
X518287Y128156D01*
X518170Y128127D01*
X518053Y128094D01*
X517937Y128057D01*
X517823Y128017D01*
X517710Y127973D01*
X517599Y127925D01*
X517489Y127874D01*
X517380Y127820D01*
X517274Y127762D01*
X517170Y127700D01*
X517067Y127635D01*
X516967Y127567D01*
X516869Y127496D01*
X516773Y127421D01*
X516680Y127344D01*
X516589Y127263D01*
X516501Y127180D01*
X516416Y127094D01*
X516333Y127005D01*
X516254Y126914D01*
X516177Y126820D01*
X516103Y126723D01*
X516033Y126625D01*
X515966Y126524D01*
X515902Y126421D01*
X515841Y126316D01*
X515784Y126209D01*
X515731Y126100D01*
X515681Y125990D01*
X515634Y125878D01*
X515591Y125764D01*
X515552Y125649D01*
X521081Y123048D02*
X521159Y123126D01*
X521235Y123206D01*
X521308Y123289D01*
X521379Y123375D01*
X521446Y123463D01*
X521510Y123553D01*
X521570Y123646D01*
X521628Y123740D01*
X521682Y123837D01*
X521732Y123935D01*
X521780Y124035D01*
X521823Y124137D01*
X521863Y124240D01*
X521900Y124345D01*
X521932Y124450D01*
X521961Y124557D01*
X521986Y124665D01*
X522007Y124774D01*
X522025Y124883D01*
X522038Y124993D01*
X522048Y125103D01*
X522054Y125213D01*
X522056Y125324D01*
X521080Y123048D02*
X515553Y116545D01*
X522056Y116545D01*
D13*
X715000Y98100D02*
X715000Y241900D01*
X757000Y241900D02*
X757000Y98100D01*
X690352Y126510D02*
X690354Y126561D01*
X690360Y126612D01*
X690370Y126662D01*
X690383Y126711D01*
X690401Y126759D01*
X690422Y126805D01*
X690447Y126850D01*
X690475Y126893D01*
X690506Y126933D01*
X690540Y126971D01*
X690577Y127006D01*
X690617Y127038D01*
X690659Y127067D01*
X690703Y127092D01*
X690749Y127114D01*
X690797Y127133D01*
X690846Y127147D01*
X690896Y127158D01*
X690946Y127165D01*
X690997Y127168D01*
X691048Y127167D01*
X691099Y127162D01*
X691149Y127153D01*
X691199Y127140D01*
X691247Y127124D01*
X691294Y127104D01*
X691339Y127080D01*
X691382Y127053D01*
X691423Y127022D01*
X691462Y126989D01*
X691497Y126952D01*
X691530Y126913D01*
X691560Y126872D01*
X691586Y126828D01*
X691609Y126782D01*
X691628Y126735D01*
X691644Y126686D01*
X691656Y126637D01*
X691664Y126586D01*
X691668Y126536D01*
X691668Y126484D01*
X691664Y126434D01*
X691656Y126383D01*
X691644Y126334D01*
X691628Y126285D01*
X691609Y126238D01*
X691586Y126192D01*
X691560Y126148D01*
X691530Y126107D01*
X691497Y126068D01*
X691462Y126031D01*
X691423Y125998D01*
X691382Y125967D01*
X691339Y125940D01*
X691294Y125916D01*
X691247Y125896D01*
X691199Y125880D01*
X691149Y125867D01*
X691099Y125858D01*
X691048Y125853D01*
X690997Y125852D01*
X690946Y125855D01*
X690896Y125862D01*
X690846Y125873D01*
X690797Y125887D01*
X690749Y125906D01*
X690703Y125928D01*
X690659Y125953D01*
X690617Y125982D01*
X690577Y126014D01*
X690540Y126049D01*
X690506Y126087D01*
X690475Y126127D01*
X690447Y126170D01*
X690422Y126215D01*
X690401Y126261D01*
X690383Y126309D01*
X690370Y126358D01*
X690360Y126408D01*
X690354Y126459D01*
X690352Y126510D01*
D14*
X743202Y115272D02*
X743202Y112676D01*
X743200Y112577D01*
X743194Y112477D01*
X743185Y112378D01*
X743172Y112280D01*
X743155Y112182D01*
X743134Y112084D01*
X743109Y111988D01*
X743081Y111893D01*
X743049Y111799D01*
X743014Y111706D01*
X742975Y111614D01*
X742932Y111524D01*
X742887Y111436D01*
X742837Y111349D01*
X742785Y111265D01*
X742729Y111182D01*
X742671Y111102D01*
X742609Y111024D01*
X742544Y110949D01*
X742476Y110876D01*
X742406Y110806D01*
X742333Y110738D01*
X742258Y110673D01*
X742180Y110611D01*
X742100Y110553D01*
X742017Y110497D01*
X741933Y110445D01*
X741846Y110395D01*
X741758Y110350D01*
X741668Y110307D01*
X741576Y110268D01*
X741483Y110233D01*
X741389Y110201D01*
X741294Y110173D01*
X741198Y110148D01*
X741100Y110127D01*
X741002Y110110D01*
X740904Y110097D01*
X740805Y110088D01*
X740705Y110082D01*
X740606Y110080D01*
X740606Y110079D02*
X734114Y110079D01*
X734015Y110081D01*
X733915Y110087D01*
X733816Y110096D01*
X733718Y110109D01*
X733620Y110127D01*
X733522Y110147D01*
X733426Y110172D01*
X733330Y110200D01*
X733236Y110232D01*
X733143Y110267D01*
X733052Y110306D01*
X732962Y110349D01*
X732873Y110394D01*
X732787Y110444D01*
X732702Y110496D01*
X732620Y110552D01*
X732540Y110611D01*
X732462Y110672D01*
X732386Y110737D01*
X732313Y110805D01*
X732243Y110875D01*
X732175Y110948D01*
X732110Y111024D01*
X732049Y111102D01*
X731990Y111182D01*
X731934Y111264D01*
X731882Y111349D01*
X731833Y111435D01*
X731787Y111524D01*
X731744Y111614D01*
X731705Y111705D01*
X731670Y111798D01*
X731638Y111892D01*
X731610Y111988D01*
X731585Y112084D01*
X731565Y112182D01*
X731547Y112280D01*
X731534Y112378D01*
X731525Y112477D01*
X731519Y112576D01*
X731517Y112676D01*
X731518Y112676D02*
X731518Y115272D01*
X734764Y119638D02*
X739956Y119638D01*
X734764Y119637D02*
X734651Y119639D01*
X734538Y119645D01*
X734425Y119655D01*
X734312Y119669D01*
X734200Y119686D01*
X734089Y119708D01*
X733979Y119733D01*
X733869Y119763D01*
X733761Y119796D01*
X733654Y119833D01*
X733548Y119873D01*
X733444Y119918D01*
X733341Y119966D01*
X733240Y120017D01*
X733141Y120072D01*
X733044Y120130D01*
X732949Y120192D01*
X732856Y120257D01*
X732766Y120325D01*
X732678Y120396D01*
X732592Y120471D01*
X732509Y120548D01*
X732429Y120628D01*
X732352Y120711D01*
X732277Y120797D01*
X732206Y120885D01*
X732138Y120975D01*
X732073Y121068D01*
X732011Y121163D01*
X731953Y121260D01*
X731898Y121359D01*
X731847Y121460D01*
X731799Y121563D01*
X731754Y121667D01*
X731714Y121773D01*
X731677Y121880D01*
X731644Y121988D01*
X731614Y122098D01*
X731589Y122208D01*
X731567Y122319D01*
X731550Y122431D01*
X731536Y122544D01*
X731526Y122657D01*
X731520Y122770D01*
X731518Y122883D01*
X731520Y122996D01*
X731526Y123109D01*
X731536Y123222D01*
X731550Y123335D01*
X731567Y123447D01*
X731589Y123558D01*
X731614Y123668D01*
X731644Y123778D01*
X731677Y123886D01*
X731714Y123993D01*
X731754Y124099D01*
X731799Y124203D01*
X731847Y124306D01*
X731898Y124407D01*
X731953Y124506D01*
X732011Y124603D01*
X732073Y124698D01*
X732138Y124791D01*
X732206Y124881D01*
X732277Y124969D01*
X732352Y125055D01*
X732429Y125138D01*
X732509Y125218D01*
X732592Y125295D01*
X732678Y125370D01*
X732766Y125441D01*
X732856Y125509D01*
X732949Y125574D01*
X733044Y125636D01*
X733141Y125694D01*
X733240Y125749D01*
X733341Y125800D01*
X733444Y125848D01*
X733548Y125893D01*
X733654Y125933D01*
X733761Y125970D01*
X733869Y126003D01*
X733979Y126033D01*
X734089Y126058D01*
X734200Y126080D01*
X734312Y126097D01*
X734425Y126111D01*
X734538Y126121D01*
X734651Y126127D01*
X734764Y126129D01*
X739956Y126129D01*
X740069Y126127D01*
X740182Y126121D01*
X740295Y126111D01*
X740408Y126097D01*
X740520Y126080D01*
X740631Y126058D01*
X740741Y126033D01*
X740851Y126003D01*
X740959Y125970D01*
X741066Y125933D01*
X741172Y125893D01*
X741276Y125848D01*
X741379Y125800D01*
X741480Y125749D01*
X741579Y125694D01*
X741676Y125636D01*
X741771Y125574D01*
X741864Y125509D01*
X741954Y125441D01*
X742042Y125370D01*
X742128Y125295D01*
X742211Y125218D01*
X742291Y125138D01*
X742368Y125055D01*
X742443Y124969D01*
X742514Y124881D01*
X742582Y124791D01*
X742647Y124698D01*
X742709Y124603D01*
X742767Y124506D01*
X742822Y124407D01*
X742873Y124306D01*
X742921Y124203D01*
X742966Y124099D01*
X743006Y123993D01*
X743043Y123886D01*
X743076Y123778D01*
X743106Y123668D01*
X743131Y123558D01*
X743153Y123447D01*
X743170Y123335D01*
X743184Y123222D01*
X743194Y123109D01*
X743200Y122996D01*
X743202Y122883D01*
X743200Y122770D01*
X743194Y122657D01*
X743184Y122544D01*
X743170Y122431D01*
X743153Y122319D01*
X743131Y122208D01*
X743106Y122098D01*
X743076Y121988D01*
X743043Y121880D01*
X743006Y121773D01*
X742966Y121667D01*
X742921Y121563D01*
X742873Y121460D01*
X742822Y121359D01*
X742767Y121260D01*
X742709Y121163D01*
X742647Y121068D01*
X742582Y120975D01*
X742514Y120885D01*
X742443Y120797D01*
X742368Y120711D01*
X742291Y120628D01*
X742211Y120548D01*
X742128Y120471D01*
X742042Y120396D01*
X741954Y120325D01*
X741864Y120257D01*
X741771Y120192D01*
X741676Y120130D01*
X741579Y120072D01*
X741480Y120017D01*
X741379Y119966D01*
X741276Y119918D01*
X741172Y119873D01*
X741066Y119833D01*
X740959Y119796D01*
X740851Y119763D01*
X740741Y119733D01*
X740631Y119708D01*
X740520Y119686D01*
X740408Y119669D01*
X740295Y119655D01*
X740182Y119645D01*
X740069Y119639D01*
X739956Y119637D01*
X743202Y131449D02*
X731518Y131449D01*
X743202Y137940D01*
X731518Y137940D01*
X743202Y143663D02*
X743202Y148856D01*
X743202Y143663D02*
X731518Y143663D01*
X731518Y148856D01*
X736711Y147558D02*
X736711Y143663D01*
X743202Y152516D02*
X731518Y160306D01*
X731518Y152516D02*
X743202Y160306D01*
X743202Y165555D02*
X731518Y165555D01*
X743202Y164257D02*
X743202Y166853D01*
X731518Y166853D02*
X731518Y164257D01*
X734764Y171454D02*
X739956Y171454D01*
X734764Y171453D02*
X734651Y171455D01*
X734538Y171461D01*
X734425Y171471D01*
X734312Y171485D01*
X734200Y171502D01*
X734089Y171524D01*
X733979Y171549D01*
X733869Y171579D01*
X733761Y171612D01*
X733654Y171649D01*
X733548Y171689D01*
X733444Y171734D01*
X733341Y171782D01*
X733240Y171833D01*
X733141Y171888D01*
X733044Y171946D01*
X732949Y172008D01*
X732856Y172073D01*
X732766Y172141D01*
X732678Y172212D01*
X732592Y172287D01*
X732509Y172364D01*
X732429Y172444D01*
X732352Y172527D01*
X732277Y172613D01*
X732206Y172701D01*
X732138Y172791D01*
X732073Y172884D01*
X732011Y172979D01*
X731953Y173076D01*
X731898Y173175D01*
X731847Y173276D01*
X731799Y173379D01*
X731754Y173483D01*
X731714Y173589D01*
X731677Y173696D01*
X731644Y173804D01*
X731614Y173914D01*
X731589Y174024D01*
X731567Y174135D01*
X731550Y174247D01*
X731536Y174360D01*
X731526Y174473D01*
X731520Y174586D01*
X731518Y174699D01*
X731520Y174812D01*
X731526Y174925D01*
X731536Y175038D01*
X731550Y175151D01*
X731567Y175263D01*
X731589Y175374D01*
X731614Y175484D01*
X731644Y175594D01*
X731677Y175702D01*
X731714Y175809D01*
X731754Y175915D01*
X731799Y176019D01*
X731847Y176122D01*
X731898Y176223D01*
X731953Y176322D01*
X732011Y176419D01*
X732073Y176514D01*
X732138Y176607D01*
X732206Y176697D01*
X732277Y176785D01*
X732352Y176871D01*
X732429Y176954D01*
X732509Y177034D01*
X732592Y177111D01*
X732678Y177186D01*
X732766Y177257D01*
X732856Y177325D01*
X732949Y177390D01*
X733044Y177452D01*
X733141Y177510D01*
X733240Y177565D01*
X733341Y177616D01*
X733444Y177664D01*
X733548Y177709D01*
X733654Y177749D01*
X733761Y177786D01*
X733869Y177819D01*
X733979Y177849D01*
X734089Y177874D01*
X734200Y177896D01*
X734312Y177913D01*
X734425Y177927D01*
X734538Y177937D01*
X734651Y177943D01*
X734764Y177945D01*
X739956Y177945D01*
X740069Y177943D01*
X740182Y177937D01*
X740295Y177927D01*
X740408Y177913D01*
X740520Y177896D01*
X740631Y177874D01*
X740741Y177849D01*
X740851Y177819D01*
X740959Y177786D01*
X741066Y177749D01*
X741172Y177709D01*
X741276Y177664D01*
X741379Y177616D01*
X741480Y177565D01*
X741579Y177510D01*
X741676Y177452D01*
X741771Y177390D01*
X741864Y177325D01*
X741954Y177257D01*
X742042Y177186D01*
X742128Y177111D01*
X742211Y177034D01*
X742291Y176954D01*
X742368Y176871D01*
X742443Y176785D01*
X742514Y176697D01*
X742582Y176607D01*
X742647Y176514D01*
X742709Y176419D01*
X742767Y176322D01*
X742822Y176223D01*
X742873Y176122D01*
X742921Y176019D01*
X742966Y175915D01*
X743006Y175809D01*
X743043Y175702D01*
X743076Y175594D01*
X743106Y175484D01*
X743131Y175374D01*
X743153Y175263D01*
X743170Y175151D01*
X743184Y175038D01*
X743194Y174925D01*
X743200Y174812D01*
X743202Y174699D01*
X743200Y174586D01*
X743194Y174473D01*
X743184Y174360D01*
X743170Y174247D01*
X743153Y174135D01*
X743131Y174024D01*
X743106Y173914D01*
X743076Y173804D01*
X743043Y173696D01*
X743006Y173589D01*
X742966Y173483D01*
X742921Y173379D01*
X742873Y173276D01*
X742822Y173175D01*
X742767Y173076D01*
X742709Y172979D01*
X742647Y172884D01*
X742582Y172791D01*
X742514Y172701D01*
X742443Y172613D01*
X742368Y172527D01*
X742291Y172444D01*
X742211Y172364D01*
X742128Y172287D01*
X742042Y172212D01*
X741954Y172141D01*
X741864Y172073D01*
X741771Y172008D01*
X741676Y171946D01*
X741579Y171888D01*
X741480Y171833D01*
X741379Y171782D01*
X741276Y171734D01*
X741172Y171689D01*
X741066Y171649D01*
X740959Y171612D01*
X740851Y171579D01*
X740741Y171549D01*
X740631Y171524D01*
X740520Y171502D01*
X740408Y171485D01*
X740295Y171471D01*
X740182Y171461D01*
X740069Y171455D01*
X739956Y171453D01*
X743202Y183265D02*
X731518Y183265D01*
X743202Y189756D01*
X731518Y189756D01*
X744500Y194582D02*
X744500Y199775D01*
X736711Y204770D02*
X736711Y208015D01*
X736710Y208015D02*
X736712Y208128D01*
X736718Y208241D01*
X736728Y208354D01*
X736742Y208467D01*
X736759Y208579D01*
X736781Y208690D01*
X736806Y208800D01*
X736836Y208910D01*
X736869Y209018D01*
X736906Y209125D01*
X736946Y209231D01*
X736991Y209335D01*
X737039Y209438D01*
X737090Y209539D01*
X737145Y209638D01*
X737203Y209735D01*
X737265Y209830D01*
X737330Y209923D01*
X737398Y210013D01*
X737469Y210101D01*
X737544Y210187D01*
X737621Y210270D01*
X737701Y210350D01*
X737784Y210427D01*
X737870Y210502D01*
X737958Y210573D01*
X738048Y210641D01*
X738141Y210706D01*
X738236Y210768D01*
X738333Y210826D01*
X738432Y210881D01*
X738533Y210932D01*
X738636Y210980D01*
X738740Y211025D01*
X738846Y211065D01*
X738953Y211102D01*
X739061Y211135D01*
X739171Y211165D01*
X739281Y211190D01*
X739392Y211212D01*
X739504Y211229D01*
X739617Y211243D01*
X739730Y211253D01*
X739843Y211259D01*
X739956Y211261D01*
X740069Y211259D01*
X740182Y211253D01*
X740295Y211243D01*
X740408Y211229D01*
X740520Y211212D01*
X740631Y211190D01*
X740741Y211165D01*
X740851Y211135D01*
X740959Y211102D01*
X741066Y211065D01*
X741172Y211025D01*
X741276Y210980D01*
X741379Y210932D01*
X741480Y210881D01*
X741579Y210826D01*
X741676Y210768D01*
X741771Y210706D01*
X741864Y210641D01*
X741954Y210573D01*
X742042Y210502D01*
X742128Y210427D01*
X742211Y210350D01*
X742291Y210270D01*
X742368Y210187D01*
X742443Y210101D01*
X742514Y210013D01*
X742582Y209923D01*
X742647Y209830D01*
X742709Y209735D01*
X742767Y209638D01*
X742822Y209539D01*
X742873Y209438D01*
X742921Y209335D01*
X742966Y209231D01*
X743006Y209125D01*
X743043Y209018D01*
X743076Y208910D01*
X743106Y208800D01*
X743131Y208690D01*
X743153Y208579D01*
X743170Y208467D01*
X743184Y208354D01*
X743194Y208241D01*
X743200Y208128D01*
X743202Y208015D01*
X743202Y204770D01*
X731518Y204770D01*
X731518Y208015D01*
X731520Y208116D01*
X731526Y208216D01*
X731536Y208316D01*
X731549Y208416D01*
X731567Y208515D01*
X731588Y208614D01*
X731613Y208711D01*
X731642Y208808D01*
X731675Y208903D01*
X731711Y208997D01*
X731751Y209089D01*
X731794Y209180D01*
X731841Y209269D01*
X731891Y209356D01*
X731945Y209442D01*
X732002Y209525D01*
X732062Y209605D01*
X732125Y209684D01*
X732192Y209760D01*
X732261Y209833D01*
X732333Y209903D01*
X732407Y209971D01*
X732484Y210036D01*
X732564Y210097D01*
X732646Y210156D01*
X732730Y210211D01*
X732816Y210263D01*
X732904Y210312D01*
X732994Y210357D01*
X733086Y210399D01*
X733179Y210437D01*
X733274Y210471D01*
X733369Y210502D01*
X733466Y210529D01*
X733564Y210552D01*
X733663Y210572D01*
X733763Y210587D01*
X733863Y210599D01*
X733963Y210607D01*
X734064Y210611D01*
X734164Y210611D01*
X734265Y210607D01*
X734365Y210599D01*
X734465Y210587D01*
X734565Y210572D01*
X734664Y210552D01*
X734762Y210529D01*
X734859Y210502D01*
X734954Y210471D01*
X735049Y210437D01*
X735142Y210399D01*
X735234Y210357D01*
X735324Y210312D01*
X735412Y210263D01*
X735498Y210211D01*
X735582Y210156D01*
X735664Y210097D01*
X735744Y210036D01*
X735821Y209971D01*
X735895Y209903D01*
X735967Y209833D01*
X736036Y209760D01*
X736103Y209684D01*
X736166Y209605D01*
X736226Y209525D01*
X736283Y209442D01*
X736337Y209356D01*
X736387Y209269D01*
X736434Y209180D01*
X736477Y209089D01*
X736517Y208997D01*
X736553Y208903D01*
X736586Y208808D01*
X736615Y208711D01*
X736640Y208614D01*
X736661Y208515D01*
X736679Y208416D01*
X736692Y208316D01*
X736702Y208216D01*
X736708Y208116D01*
X736710Y208015D01*
X734114Y215649D02*
X731518Y218895D01*
X743202Y218895D01*
X743202Y215649D02*
X743202Y222141D01*
D15*
X228300Y125950D02*
X228300Y113250D01*
X228300Y125950D02*
X234650Y132300D01*
X247350Y132300D02*
X253700Y125950D01*
X234650Y132300D02*
X228300Y138650D01*
X228300Y151350D01*
X234650Y157700D01*
X247350Y157700D02*
X253700Y151350D01*
X253700Y138650D01*
X247350Y132300D01*
X247350Y106900D02*
X234650Y106900D01*
X228300Y113250D01*
X247350Y106900D02*
X253700Y113250D01*
X253700Y125950D01*
X234650Y157700D02*
X228300Y164050D01*
X228300Y176750D01*
X234650Y183100D01*
X247350Y183100D02*
X253700Y176750D01*
X253700Y164050D01*
X247350Y157700D01*
X247350Y183100D02*
X234650Y183100D01*
D12*
X235285Y98010D02*
X237825Y94835D01*
X235285Y98010D02*
X246715Y98010D01*
X246715Y94835D02*
X246715Y101185D01*
X223855Y107535D02*
X212425Y107535D01*
X212425Y110710D01*
X212427Y110821D01*
X212433Y110931D01*
X212442Y111042D01*
X212456Y111152D01*
X212473Y111261D01*
X212494Y111370D01*
X212519Y111478D01*
X212548Y111585D01*
X212580Y111691D01*
X212616Y111796D01*
X212656Y111899D01*
X212699Y112001D01*
X212746Y112102D01*
X212797Y112201D01*
X212850Y112297D01*
X212907Y112392D01*
X212968Y112485D01*
X213031Y112576D01*
X213098Y112665D01*
X213168Y112751D01*
X213241Y112834D01*
X213316Y112916D01*
X213394Y112994D01*
X213476Y113069D01*
X213559Y113142D01*
X213645Y113212D01*
X213734Y113279D01*
X213825Y113342D01*
X213918Y113403D01*
X214013Y113460D01*
X214109Y113513D01*
X214208Y113564D01*
X214309Y113611D01*
X214411Y113654D01*
X214514Y113694D01*
X214619Y113730D01*
X214725Y113762D01*
X214832Y113791D01*
X214940Y113816D01*
X215049Y113837D01*
X215158Y113854D01*
X215268Y113868D01*
X215379Y113877D01*
X215489Y113883D01*
X215600Y113885D01*
X215711Y113883D01*
X215821Y113877D01*
X215932Y113868D01*
X216042Y113854D01*
X216151Y113837D01*
X216260Y113816D01*
X216368Y113791D01*
X216475Y113762D01*
X216581Y113730D01*
X216686Y113694D01*
X216789Y113654D01*
X216891Y113611D01*
X216992Y113564D01*
X217091Y113513D01*
X217188Y113460D01*
X217282Y113403D01*
X217375Y113342D01*
X217466Y113279D01*
X217555Y113212D01*
X217641Y113142D01*
X217724Y113069D01*
X217806Y112994D01*
X217884Y112916D01*
X217959Y112834D01*
X218032Y112751D01*
X218102Y112665D01*
X218169Y112576D01*
X218232Y112485D01*
X218293Y112392D01*
X218350Y112298D01*
X218403Y112201D01*
X218454Y112102D01*
X218501Y112001D01*
X218544Y111899D01*
X218584Y111796D01*
X218620Y111691D01*
X218652Y111585D01*
X218681Y111478D01*
X218706Y111370D01*
X218727Y111261D01*
X218744Y111152D01*
X218758Y111042D01*
X218767Y110931D01*
X218773Y110821D01*
X218775Y110710D01*
X218775Y107535D01*
X223855Y119283D02*
X212425Y119283D01*
X223855Y118013D02*
X223855Y120553D01*
X212425Y120553D02*
X212425Y118013D01*
X212425Y125633D02*
X223855Y125633D01*
X223855Y131983D02*
X212425Y125633D01*
X212425Y131983D02*
X223855Y131983D01*
X223855Y137850D02*
X223855Y142930D01*
X223855Y137850D02*
X212425Y137850D01*
X212425Y142930D01*
X217505Y141660D02*
X217505Y137850D01*
X223855Y150778D02*
X223853Y150878D01*
X223847Y150977D01*
X223837Y151077D01*
X223824Y151175D01*
X223806Y151274D01*
X223785Y151371D01*
X223760Y151467D01*
X223731Y151563D01*
X223698Y151657D01*
X223662Y151750D01*
X223622Y151841D01*
X223578Y151931D01*
X223531Y152019D01*
X223481Y152105D01*
X223427Y152189D01*
X223370Y152271D01*
X223310Y152350D01*
X223246Y152428D01*
X223180Y152502D01*
X223111Y152574D01*
X223039Y152643D01*
X222965Y152709D01*
X222887Y152773D01*
X222808Y152833D01*
X222726Y152890D01*
X222642Y152944D01*
X222556Y152994D01*
X222468Y153041D01*
X222378Y153085D01*
X222287Y153125D01*
X222194Y153161D01*
X222100Y153194D01*
X222004Y153223D01*
X221908Y153248D01*
X221811Y153269D01*
X221712Y153287D01*
X221614Y153300D01*
X221514Y153310D01*
X221415Y153316D01*
X221315Y153318D01*
X223855Y150778D02*
X223853Y150637D01*
X223848Y150496D01*
X223838Y150355D01*
X223825Y150214D01*
X223809Y150074D01*
X223788Y149934D01*
X223764Y149795D01*
X223736Y149656D01*
X223705Y149519D01*
X223670Y149382D01*
X223632Y149246D01*
X223590Y149111D01*
X223544Y148978D01*
X223495Y148845D01*
X223442Y148714D01*
X223386Y148585D01*
X223327Y148456D01*
X223264Y148330D01*
X223198Y148205D01*
X223129Y148082D01*
X223056Y147961D01*
X222980Y147842D01*
X222901Y147724D01*
X222820Y147609D01*
X222735Y147497D01*
X222647Y147386D01*
X222556Y147278D01*
X222463Y147172D01*
X222366Y147069D01*
X222267Y146968D01*
X214965Y147286D02*
X214865Y147288D01*
X214766Y147294D01*
X214666Y147304D01*
X214568Y147317D01*
X214469Y147335D01*
X214372Y147356D01*
X214276Y147381D01*
X214180Y147410D01*
X214086Y147443D01*
X213993Y147479D01*
X213902Y147519D01*
X213812Y147563D01*
X213724Y147610D01*
X213638Y147660D01*
X213554Y147714D01*
X213472Y147771D01*
X213393Y147831D01*
X213315Y147895D01*
X213241Y147961D01*
X213169Y148030D01*
X213100Y148102D01*
X213034Y148176D01*
X212970Y148254D01*
X212910Y148333D01*
X212853Y148415D01*
X212799Y148499D01*
X212749Y148585D01*
X212702Y148673D01*
X212658Y148763D01*
X212618Y148854D01*
X212582Y148947D01*
X212549Y149041D01*
X212520Y149137D01*
X212495Y149233D01*
X212474Y149330D01*
X212456Y149429D01*
X212443Y149527D01*
X212433Y149627D01*
X212427Y149726D01*
X212425Y149826D01*
X212427Y149959D01*
X212432Y150092D01*
X212442Y150225D01*
X212455Y150358D01*
X212472Y150490D01*
X212492Y150622D01*
X212516Y150753D01*
X212544Y150883D01*
X212575Y151013D01*
X212610Y151141D01*
X212649Y151269D01*
X212691Y151395D01*
X212737Y151520D01*
X212786Y151644D01*
X212838Y151767D01*
X212894Y151888D01*
X212954Y152007D01*
X213016Y152125D01*
X213082Y152240D01*
X213151Y152354D01*
X213224Y152466D01*
X213299Y152576D01*
X213378Y152684D01*
X217188Y148556D02*
X217136Y148472D01*
X217081Y148389D01*
X217022Y148309D01*
X216961Y148231D01*
X216897Y148156D01*
X216829Y148083D01*
X216759Y148012D01*
X216687Y147945D01*
X216612Y147880D01*
X216534Y147818D01*
X216454Y147759D01*
X216372Y147703D01*
X216288Y147651D01*
X216202Y147602D01*
X216114Y147556D01*
X216024Y147513D01*
X215933Y147474D01*
X215840Y147439D01*
X215746Y147407D01*
X215651Y147379D01*
X215555Y147354D01*
X215458Y147334D01*
X215360Y147316D01*
X215262Y147303D01*
X215163Y147294D01*
X215064Y147288D01*
X214965Y147286D01*
X219092Y152049D02*
X219144Y152133D01*
X219199Y152216D01*
X219258Y152296D01*
X219319Y152374D01*
X219383Y152449D01*
X219451Y152522D01*
X219521Y152593D01*
X219593Y152660D01*
X219668Y152725D01*
X219746Y152787D01*
X219826Y152846D01*
X219908Y152902D01*
X219992Y152954D01*
X220078Y153003D01*
X220166Y153049D01*
X220256Y153092D01*
X220347Y153131D01*
X220440Y153166D01*
X220534Y153198D01*
X220629Y153226D01*
X220725Y153251D01*
X220822Y153271D01*
X220920Y153289D01*
X221018Y153302D01*
X221117Y153311D01*
X221216Y153317D01*
X221315Y153319D01*
X219093Y152048D02*
X217188Y148556D01*
X225125Y157509D02*
X225125Y162589D01*
X223855Y170590D02*
X223853Y170690D01*
X223847Y170789D01*
X223837Y170889D01*
X223824Y170987D01*
X223806Y171086D01*
X223785Y171183D01*
X223760Y171279D01*
X223731Y171375D01*
X223698Y171469D01*
X223662Y171562D01*
X223622Y171653D01*
X223578Y171743D01*
X223531Y171831D01*
X223481Y171917D01*
X223427Y172001D01*
X223370Y172083D01*
X223310Y172162D01*
X223246Y172240D01*
X223180Y172314D01*
X223111Y172386D01*
X223039Y172455D01*
X222965Y172521D01*
X222887Y172585D01*
X222808Y172645D01*
X222726Y172702D01*
X222642Y172756D01*
X222556Y172806D01*
X222468Y172853D01*
X222378Y172897D01*
X222287Y172937D01*
X222194Y172973D01*
X222100Y173006D01*
X222004Y173035D01*
X221908Y173060D01*
X221811Y173081D01*
X221712Y173099D01*
X221614Y173112D01*
X221514Y173122D01*
X221415Y173128D01*
X221315Y173130D01*
X223855Y170590D02*
X223853Y170449D01*
X223848Y170308D01*
X223838Y170167D01*
X223825Y170026D01*
X223809Y169886D01*
X223788Y169746D01*
X223764Y169607D01*
X223736Y169468D01*
X223705Y169331D01*
X223670Y169194D01*
X223632Y169058D01*
X223590Y168923D01*
X223544Y168790D01*
X223495Y168657D01*
X223442Y168526D01*
X223386Y168397D01*
X223327Y168268D01*
X223264Y168142D01*
X223198Y168017D01*
X223129Y167894D01*
X223056Y167773D01*
X222980Y167654D01*
X222901Y167536D01*
X222820Y167421D01*
X222735Y167309D01*
X222647Y167198D01*
X222556Y167090D01*
X222463Y166984D01*
X222366Y166881D01*
X222267Y166780D01*
X214965Y167098D02*
X214865Y167100D01*
X214766Y167106D01*
X214666Y167116D01*
X214568Y167129D01*
X214469Y167147D01*
X214372Y167168D01*
X214276Y167193D01*
X214180Y167222D01*
X214086Y167255D01*
X213993Y167291D01*
X213902Y167331D01*
X213812Y167375D01*
X213724Y167422D01*
X213638Y167472D01*
X213554Y167526D01*
X213472Y167583D01*
X213393Y167643D01*
X213315Y167707D01*
X213241Y167773D01*
X213169Y167842D01*
X213100Y167914D01*
X213034Y167988D01*
X212970Y168066D01*
X212910Y168145D01*
X212853Y168227D01*
X212799Y168311D01*
X212749Y168397D01*
X212702Y168485D01*
X212658Y168575D01*
X212618Y168666D01*
X212582Y168759D01*
X212549Y168853D01*
X212520Y168949D01*
X212495Y169045D01*
X212474Y169142D01*
X212456Y169241D01*
X212443Y169339D01*
X212433Y169439D01*
X212427Y169538D01*
X212425Y169638D01*
X212427Y169771D01*
X212432Y169904D01*
X212442Y170037D01*
X212455Y170170D01*
X212472Y170302D01*
X212492Y170434D01*
X212516Y170565D01*
X212544Y170695D01*
X212575Y170825D01*
X212610Y170953D01*
X212649Y171081D01*
X212691Y171207D01*
X212737Y171332D01*
X212786Y171456D01*
X212838Y171579D01*
X212894Y171700D01*
X212954Y171819D01*
X213016Y171937D01*
X213082Y172052D01*
X213151Y172166D01*
X213224Y172278D01*
X213299Y172388D01*
X213378Y172496D01*
X217188Y168368D02*
X217136Y168284D01*
X217081Y168201D01*
X217022Y168121D01*
X216961Y168043D01*
X216897Y167968D01*
X216829Y167895D01*
X216759Y167824D01*
X216687Y167757D01*
X216612Y167692D01*
X216534Y167630D01*
X216454Y167571D01*
X216372Y167515D01*
X216288Y167463D01*
X216202Y167414D01*
X216114Y167368D01*
X216024Y167325D01*
X215933Y167286D01*
X215840Y167251D01*
X215746Y167219D01*
X215651Y167191D01*
X215555Y167166D01*
X215458Y167146D01*
X215360Y167128D01*
X215262Y167115D01*
X215163Y167106D01*
X215064Y167100D01*
X214965Y167098D01*
X219092Y171861D02*
X219144Y171945D01*
X219199Y172028D01*
X219258Y172108D01*
X219319Y172186D01*
X219383Y172261D01*
X219451Y172334D01*
X219521Y172405D01*
X219593Y172472D01*
X219668Y172537D01*
X219746Y172599D01*
X219826Y172658D01*
X219908Y172714D01*
X219992Y172766D01*
X220078Y172815D01*
X220166Y172861D01*
X220256Y172904D01*
X220347Y172943D01*
X220440Y172978D01*
X220534Y173010D01*
X220629Y173038D01*
X220725Y173063D01*
X220822Y173083D01*
X220920Y173101D01*
X221018Y173114D01*
X221117Y173123D01*
X221216Y173129D01*
X221315Y173131D01*
X219093Y171860D02*
X217188Y168368D01*
X212425Y177448D02*
X223855Y179988D01*
X216235Y182528D01*
X223855Y185068D01*
X212425Y187608D01*
X212425Y193196D02*
X223855Y193196D01*
X223855Y191926D02*
X223855Y194466D01*
X212425Y194466D02*
X212425Y191926D01*
X212425Y201578D02*
X223855Y201578D01*
X212425Y198403D02*
X212425Y204753D01*
X223855Y211574D02*
X223855Y214114D01*
X223855Y211574D02*
X223853Y211474D01*
X223847Y211375D01*
X223837Y211275D01*
X223824Y211177D01*
X223806Y211078D01*
X223785Y210981D01*
X223760Y210885D01*
X223731Y210789D01*
X223698Y210695D01*
X223662Y210602D01*
X223622Y210511D01*
X223578Y210421D01*
X223531Y210333D01*
X223481Y210247D01*
X223427Y210163D01*
X223370Y210081D01*
X223310Y210002D01*
X223246Y209924D01*
X223180Y209850D01*
X223111Y209778D01*
X223039Y209709D01*
X222965Y209643D01*
X222887Y209579D01*
X222808Y209519D01*
X222726Y209462D01*
X222642Y209408D01*
X222556Y209358D01*
X222468Y209311D01*
X222378Y209267D01*
X222287Y209227D01*
X222194Y209191D01*
X222100Y209158D01*
X222004Y209129D01*
X221908Y209104D01*
X221811Y209083D01*
X221712Y209065D01*
X221614Y209052D01*
X221514Y209042D01*
X221415Y209036D01*
X221315Y209034D01*
X214965Y209034D01*
X214865Y209036D01*
X214766Y209042D01*
X214666Y209052D01*
X214568Y209065D01*
X214469Y209083D01*
X214372Y209104D01*
X214276Y209129D01*
X214180Y209158D01*
X214086Y209191D01*
X213993Y209227D01*
X213902Y209267D01*
X213812Y209311D01*
X213724Y209358D01*
X213638Y209408D01*
X213554Y209462D01*
X213472Y209519D01*
X213393Y209579D01*
X213315Y209643D01*
X213241Y209709D01*
X213169Y209778D01*
X213100Y209850D01*
X213034Y209924D01*
X212970Y210002D01*
X212910Y210081D01*
X212853Y210163D01*
X212799Y210247D01*
X212749Y210333D01*
X212702Y210421D01*
X212658Y210511D01*
X212618Y210602D01*
X212582Y210695D01*
X212549Y210789D01*
X212520Y210885D01*
X212495Y210981D01*
X212474Y211078D01*
X212456Y211177D01*
X212443Y211275D01*
X212433Y211375D01*
X212427Y211474D01*
X212425Y211574D01*
X212425Y214114D01*
X212425Y218977D02*
X223855Y218977D01*
X217505Y218977D02*
X217505Y225327D01*
X212425Y225327D02*
X223855Y225327D01*
D13*
X201250Y257000D02*
X398750Y257000D01*
X398750Y215000D02*
X377140Y215000D01*
X222860Y215000D02*
X201250Y215000D01*
X368230Y192620D02*
X368232Y192676D01*
X368238Y192731D01*
X368248Y192786D01*
X368262Y192840D01*
X368279Y192893D01*
X368300Y192944D01*
X368325Y192994D01*
X368354Y193042D01*
X368386Y193087D01*
X368421Y193131D01*
X368458Y193172D01*
X368499Y193209D01*
X368543Y193244D01*
X368588Y193276D01*
X368636Y193305D01*
X368686Y193330D01*
X368737Y193351D01*
X368790Y193368D01*
X368844Y193382D01*
X368899Y193392D01*
X368954Y193398D01*
X369010Y193400D01*
X369066Y193398D01*
X369121Y193392D01*
X369176Y193382D01*
X369230Y193368D01*
X369283Y193351D01*
X369334Y193330D01*
X369384Y193305D01*
X369432Y193276D01*
X369477Y193244D01*
X369521Y193209D01*
X369562Y193172D01*
X369599Y193131D01*
X369634Y193087D01*
X369666Y193042D01*
X369695Y192994D01*
X369720Y192944D01*
X369741Y192893D01*
X369758Y192840D01*
X369772Y192786D01*
X369782Y192731D01*
X369788Y192676D01*
X369790Y192620D01*
X369788Y192564D01*
X369782Y192509D01*
X369772Y192454D01*
X369758Y192400D01*
X369741Y192347D01*
X369720Y192296D01*
X369695Y192246D01*
X369666Y192198D01*
X369634Y192153D01*
X369599Y192109D01*
X369562Y192068D01*
X369521Y192031D01*
X369477Y191996D01*
X369432Y191964D01*
X369384Y191935D01*
X369334Y191910D01*
X369283Y191889D01*
X369230Y191872D01*
X369176Y191858D01*
X369121Y191848D01*
X369066Y191842D01*
X369010Y191840D01*
X368954Y191842D01*
X368899Y191848D01*
X368844Y191858D01*
X368790Y191872D01*
X368737Y191889D01*
X368686Y191910D01*
X368636Y191935D01*
X368588Y191964D01*
X368543Y191996D01*
X368499Y192031D01*
X368458Y192068D01*
X368421Y192109D01*
X368386Y192153D01*
X368354Y192198D01*
X368325Y192246D01*
X368300Y192296D01*
X368279Y192347D01*
X368262Y192400D01*
X368248Y192454D01*
X368238Y192509D01*
X368232Y192564D01*
X368230Y192620D01*
D14*
X227262Y241879D02*
X224017Y241879D01*
X227262Y241880D02*
X227375Y241878D01*
X227488Y241872D01*
X227601Y241862D01*
X227714Y241848D01*
X227826Y241831D01*
X227937Y241809D01*
X228047Y241784D01*
X228157Y241754D01*
X228265Y241721D01*
X228372Y241684D01*
X228478Y241644D01*
X228582Y241599D01*
X228685Y241551D01*
X228786Y241500D01*
X228885Y241445D01*
X228982Y241387D01*
X229077Y241325D01*
X229170Y241260D01*
X229260Y241192D01*
X229348Y241121D01*
X229434Y241046D01*
X229517Y240969D01*
X229597Y240889D01*
X229674Y240806D01*
X229749Y240720D01*
X229820Y240632D01*
X229888Y240542D01*
X229953Y240449D01*
X230015Y240354D01*
X230073Y240257D01*
X230128Y240158D01*
X230179Y240057D01*
X230227Y239954D01*
X230272Y239850D01*
X230312Y239744D01*
X230349Y239637D01*
X230382Y239529D01*
X230412Y239419D01*
X230437Y239309D01*
X230459Y239198D01*
X230476Y239086D01*
X230490Y238973D01*
X230500Y238860D01*
X230506Y238747D01*
X230508Y238634D01*
X230506Y238521D01*
X230500Y238408D01*
X230490Y238295D01*
X230476Y238182D01*
X230459Y238070D01*
X230437Y237959D01*
X230412Y237849D01*
X230382Y237739D01*
X230349Y237631D01*
X230312Y237524D01*
X230272Y237418D01*
X230227Y237314D01*
X230179Y237211D01*
X230128Y237110D01*
X230073Y237011D01*
X230015Y236914D01*
X229953Y236819D01*
X229888Y236726D01*
X229820Y236636D01*
X229749Y236548D01*
X229674Y236462D01*
X229597Y236379D01*
X229517Y236299D01*
X229434Y236222D01*
X229348Y236147D01*
X229260Y236076D01*
X229170Y236008D01*
X229077Y235943D01*
X228982Y235881D01*
X228885Y235823D01*
X228786Y235768D01*
X228685Y235717D01*
X228582Y235669D01*
X228478Y235624D01*
X228372Y235584D01*
X228265Y235547D01*
X228157Y235514D01*
X228047Y235484D01*
X227937Y235459D01*
X227826Y235437D01*
X227714Y235420D01*
X227601Y235406D01*
X227488Y235396D01*
X227375Y235390D01*
X227262Y235388D01*
X224017Y235388D01*
X224017Y247072D01*
X227262Y247072D01*
X227363Y247070D01*
X227463Y247064D01*
X227563Y247054D01*
X227663Y247041D01*
X227762Y247023D01*
X227861Y247002D01*
X227958Y246977D01*
X228055Y246948D01*
X228150Y246915D01*
X228244Y246879D01*
X228336Y246839D01*
X228427Y246796D01*
X228516Y246749D01*
X228603Y246699D01*
X228689Y246645D01*
X228772Y246588D01*
X228852Y246528D01*
X228931Y246465D01*
X229007Y246398D01*
X229080Y246329D01*
X229150Y246257D01*
X229218Y246183D01*
X229283Y246106D01*
X229344Y246026D01*
X229403Y245944D01*
X229458Y245860D01*
X229510Y245774D01*
X229559Y245686D01*
X229604Y245596D01*
X229646Y245504D01*
X229684Y245411D01*
X229718Y245316D01*
X229749Y245221D01*
X229776Y245124D01*
X229799Y245026D01*
X229819Y244927D01*
X229834Y244827D01*
X229846Y244727D01*
X229854Y244627D01*
X229858Y244526D01*
X229858Y244426D01*
X229854Y244325D01*
X229846Y244225D01*
X229834Y244125D01*
X229819Y244025D01*
X229799Y243926D01*
X229776Y243828D01*
X229749Y243731D01*
X229718Y243636D01*
X229684Y243541D01*
X229646Y243448D01*
X229604Y243356D01*
X229559Y243266D01*
X229510Y243178D01*
X229458Y243092D01*
X229403Y243008D01*
X229344Y242926D01*
X229283Y242846D01*
X229218Y242769D01*
X229150Y242695D01*
X229080Y242623D01*
X229007Y242554D01*
X228931Y242487D01*
X228852Y242424D01*
X228772Y242364D01*
X228689Y242307D01*
X228603Y242253D01*
X228516Y242203D01*
X228427Y242156D01*
X228336Y242113D01*
X228244Y242073D01*
X228150Y242037D01*
X228055Y242004D01*
X227958Y241975D01*
X227861Y241950D01*
X227762Y241929D01*
X227663Y241911D01*
X227563Y241898D01*
X227463Y241888D01*
X227363Y241882D01*
X227262Y241880D01*
X234897Y243826D02*
X234897Y238634D01*
X234896Y243826D02*
X234898Y243939D01*
X234904Y244052D01*
X234914Y244165D01*
X234928Y244278D01*
X234945Y244390D01*
X234967Y244501D01*
X234992Y244611D01*
X235022Y244721D01*
X235055Y244829D01*
X235092Y244936D01*
X235132Y245042D01*
X235177Y245146D01*
X235225Y245249D01*
X235276Y245350D01*
X235331Y245449D01*
X235389Y245546D01*
X235451Y245641D01*
X235516Y245734D01*
X235584Y245824D01*
X235655Y245912D01*
X235730Y245998D01*
X235807Y246081D01*
X235887Y246161D01*
X235970Y246238D01*
X236056Y246313D01*
X236144Y246384D01*
X236234Y246452D01*
X236327Y246517D01*
X236422Y246579D01*
X236519Y246637D01*
X236618Y246692D01*
X236719Y246743D01*
X236822Y246791D01*
X236926Y246836D01*
X237032Y246876D01*
X237139Y246913D01*
X237247Y246946D01*
X237357Y246976D01*
X237467Y247001D01*
X237578Y247023D01*
X237690Y247040D01*
X237803Y247054D01*
X237916Y247064D01*
X238029Y247070D01*
X238142Y247072D01*
X238255Y247070D01*
X238368Y247064D01*
X238481Y247054D01*
X238594Y247040D01*
X238706Y247023D01*
X238817Y247001D01*
X238927Y246976D01*
X239037Y246946D01*
X239145Y246913D01*
X239252Y246876D01*
X239358Y246836D01*
X239462Y246791D01*
X239565Y246743D01*
X239666Y246692D01*
X239765Y246637D01*
X239862Y246579D01*
X239957Y246517D01*
X240050Y246452D01*
X240140Y246384D01*
X240228Y246313D01*
X240314Y246238D01*
X240397Y246161D01*
X240477Y246081D01*
X240554Y245998D01*
X240629Y245912D01*
X240700Y245824D01*
X240768Y245734D01*
X240833Y245641D01*
X240895Y245546D01*
X240953Y245449D01*
X241008Y245350D01*
X241059Y245249D01*
X241107Y245146D01*
X241152Y245042D01*
X241192Y244936D01*
X241229Y244829D01*
X241262Y244721D01*
X241292Y244611D01*
X241317Y244501D01*
X241339Y244390D01*
X241356Y244278D01*
X241370Y244165D01*
X241380Y244052D01*
X241386Y243939D01*
X241388Y243826D01*
X241388Y238634D01*
X241386Y238521D01*
X241380Y238408D01*
X241370Y238295D01*
X241356Y238182D01*
X241339Y238070D01*
X241317Y237959D01*
X241292Y237849D01*
X241262Y237739D01*
X241229Y237631D01*
X241192Y237524D01*
X241152Y237418D01*
X241107Y237314D01*
X241059Y237211D01*
X241008Y237110D01*
X240953Y237011D01*
X240895Y236914D01*
X240833Y236819D01*
X240768Y236726D01*
X240700Y236636D01*
X240629Y236548D01*
X240554Y236462D01*
X240477Y236379D01*
X240397Y236299D01*
X240314Y236222D01*
X240228Y236147D01*
X240140Y236076D01*
X240050Y236008D01*
X239957Y235943D01*
X239862Y235881D01*
X239765Y235823D01*
X239666Y235768D01*
X239565Y235717D01*
X239462Y235669D01*
X239358Y235624D01*
X239252Y235584D01*
X239145Y235547D01*
X239037Y235514D01*
X238927Y235484D01*
X238817Y235459D01*
X238706Y235437D01*
X238594Y235420D01*
X238481Y235406D01*
X238368Y235396D01*
X238255Y235390D01*
X238142Y235388D01*
X238029Y235390D01*
X237916Y235396D01*
X237803Y235406D01*
X237690Y235420D01*
X237578Y235437D01*
X237467Y235459D01*
X237357Y235484D01*
X237247Y235514D01*
X237139Y235547D01*
X237032Y235584D01*
X236926Y235624D01*
X236822Y235669D01*
X236719Y235717D01*
X236618Y235768D01*
X236519Y235823D01*
X236422Y235881D01*
X236327Y235943D01*
X236234Y236008D01*
X236144Y236076D01*
X236056Y236147D01*
X235970Y236222D01*
X235887Y236299D01*
X235807Y236379D01*
X235730Y236462D01*
X235655Y236548D01*
X235584Y236636D01*
X235516Y236726D01*
X235451Y236819D01*
X235389Y236914D01*
X235331Y237011D01*
X235276Y237110D01*
X235225Y237211D01*
X235177Y237314D01*
X235132Y237418D01*
X235092Y237524D01*
X235055Y237631D01*
X235022Y237739D01*
X234992Y237849D01*
X234967Y237959D01*
X234945Y238070D01*
X234928Y238182D01*
X234914Y238295D01*
X234904Y238408D01*
X234898Y238521D01*
X234896Y238634D01*
X246327Y238634D02*
X246327Y243826D01*
X246326Y243826D02*
X246328Y243939D01*
X246334Y244052D01*
X246344Y244165D01*
X246358Y244278D01*
X246375Y244390D01*
X246397Y244501D01*
X246422Y244611D01*
X246452Y244721D01*
X246485Y244829D01*
X246522Y244936D01*
X246562Y245042D01*
X246607Y245146D01*
X246655Y245249D01*
X246706Y245350D01*
X246761Y245449D01*
X246819Y245546D01*
X246881Y245641D01*
X246946Y245734D01*
X247014Y245824D01*
X247085Y245912D01*
X247160Y245998D01*
X247237Y246081D01*
X247317Y246161D01*
X247400Y246238D01*
X247486Y246313D01*
X247574Y246384D01*
X247664Y246452D01*
X247757Y246517D01*
X247852Y246579D01*
X247949Y246637D01*
X248048Y246692D01*
X248149Y246743D01*
X248252Y246791D01*
X248356Y246836D01*
X248462Y246876D01*
X248569Y246913D01*
X248677Y246946D01*
X248787Y246976D01*
X248897Y247001D01*
X249008Y247023D01*
X249120Y247040D01*
X249233Y247054D01*
X249346Y247064D01*
X249459Y247070D01*
X249572Y247072D01*
X249685Y247070D01*
X249798Y247064D01*
X249911Y247054D01*
X250024Y247040D01*
X250136Y247023D01*
X250247Y247001D01*
X250357Y246976D01*
X250467Y246946D01*
X250575Y246913D01*
X250682Y246876D01*
X250788Y246836D01*
X250892Y246791D01*
X250995Y246743D01*
X251096Y246692D01*
X251195Y246637D01*
X251292Y246579D01*
X251387Y246517D01*
X251480Y246452D01*
X251570Y246384D01*
X251658Y246313D01*
X251744Y246238D01*
X251827Y246161D01*
X251907Y246081D01*
X251984Y245998D01*
X252059Y245912D01*
X252130Y245824D01*
X252198Y245734D01*
X252263Y245641D01*
X252325Y245546D01*
X252383Y245449D01*
X252438Y245350D01*
X252489Y245249D01*
X252537Y245146D01*
X252582Y245042D01*
X252622Y244936D01*
X252659Y244829D01*
X252692Y244721D01*
X252722Y244611D01*
X252747Y244501D01*
X252769Y244390D01*
X252786Y244278D01*
X252800Y244165D01*
X252810Y244052D01*
X252816Y243939D01*
X252818Y243826D01*
X252818Y238634D01*
X252816Y238521D01*
X252810Y238408D01*
X252800Y238295D01*
X252786Y238182D01*
X252769Y238070D01*
X252747Y237959D01*
X252722Y237849D01*
X252692Y237739D01*
X252659Y237631D01*
X252622Y237524D01*
X252582Y237418D01*
X252537Y237314D01*
X252489Y237211D01*
X252438Y237110D01*
X252383Y237011D01*
X252325Y236914D01*
X252263Y236819D01*
X252198Y236726D01*
X252130Y236636D01*
X252059Y236548D01*
X251984Y236462D01*
X251907Y236379D01*
X251827Y236299D01*
X251744Y236222D01*
X251658Y236147D01*
X251570Y236076D01*
X251480Y236008D01*
X251387Y235943D01*
X251292Y235881D01*
X251195Y235823D01*
X251096Y235768D01*
X250995Y235717D01*
X250892Y235669D01*
X250788Y235624D01*
X250682Y235584D01*
X250575Y235547D01*
X250467Y235514D01*
X250357Y235484D01*
X250247Y235459D01*
X250136Y235437D01*
X250024Y235420D01*
X249911Y235406D01*
X249798Y235396D01*
X249685Y235390D01*
X249572Y235388D01*
X249459Y235390D01*
X249346Y235396D01*
X249233Y235406D01*
X249120Y235420D01*
X249008Y235437D01*
X248897Y235459D01*
X248787Y235484D01*
X248677Y235514D01*
X248569Y235547D01*
X248462Y235584D01*
X248356Y235624D01*
X248252Y235669D01*
X248149Y235717D01*
X248048Y235768D01*
X247949Y235823D01*
X247852Y235881D01*
X247757Y235943D01*
X247664Y236008D01*
X247574Y236076D01*
X247486Y236147D01*
X247400Y236222D01*
X247317Y236299D01*
X247237Y236379D01*
X247160Y236462D01*
X247085Y236548D01*
X247014Y236636D01*
X246946Y236726D01*
X246881Y236819D01*
X246819Y236914D01*
X246761Y237011D01*
X246706Y237110D01*
X246655Y237211D01*
X246607Y237314D01*
X246562Y237418D01*
X246522Y237524D01*
X246485Y237631D01*
X246452Y237739D01*
X246422Y237849D01*
X246397Y237959D01*
X246375Y238070D01*
X246358Y238182D01*
X246344Y238295D01*
X246334Y238408D01*
X246328Y238521D01*
X246326Y238634D01*
X260240Y235388D02*
X260240Y247072D01*
X256994Y247072D02*
X263486Y247072D01*
X268066Y247072D02*
X268066Y235388D01*
X273259Y235388D01*
X277568Y238634D02*
X277568Y243826D01*
X277570Y243939D01*
X277576Y244052D01*
X277586Y244165D01*
X277600Y244278D01*
X277617Y244390D01*
X277639Y244501D01*
X277664Y244611D01*
X277694Y244721D01*
X277727Y244829D01*
X277764Y244936D01*
X277804Y245042D01*
X277849Y245146D01*
X277897Y245249D01*
X277948Y245350D01*
X278003Y245449D01*
X278061Y245546D01*
X278123Y245641D01*
X278188Y245734D01*
X278256Y245824D01*
X278327Y245912D01*
X278402Y245998D01*
X278479Y246081D01*
X278559Y246161D01*
X278642Y246238D01*
X278728Y246313D01*
X278816Y246384D01*
X278906Y246452D01*
X278999Y246517D01*
X279094Y246579D01*
X279191Y246637D01*
X279290Y246692D01*
X279391Y246743D01*
X279494Y246791D01*
X279598Y246836D01*
X279704Y246876D01*
X279811Y246913D01*
X279919Y246946D01*
X280029Y246976D01*
X280139Y247001D01*
X280250Y247023D01*
X280362Y247040D01*
X280475Y247054D01*
X280588Y247064D01*
X280701Y247070D01*
X280814Y247072D01*
X280927Y247070D01*
X281040Y247064D01*
X281153Y247054D01*
X281266Y247040D01*
X281378Y247023D01*
X281489Y247001D01*
X281599Y246976D01*
X281709Y246946D01*
X281817Y246913D01*
X281924Y246876D01*
X282030Y246836D01*
X282134Y246791D01*
X282237Y246743D01*
X282338Y246692D01*
X282437Y246637D01*
X282534Y246579D01*
X282629Y246517D01*
X282722Y246452D01*
X282812Y246384D01*
X282900Y246313D01*
X282986Y246238D01*
X283069Y246161D01*
X283149Y246081D01*
X283226Y245998D01*
X283301Y245912D01*
X283372Y245824D01*
X283440Y245734D01*
X283505Y245641D01*
X283567Y245546D01*
X283625Y245449D01*
X283680Y245350D01*
X283731Y245249D01*
X283779Y245146D01*
X283824Y245042D01*
X283864Y244936D01*
X283901Y244829D01*
X283934Y244721D01*
X283964Y244611D01*
X283989Y244501D01*
X284011Y244390D01*
X284028Y244278D01*
X284042Y244165D01*
X284052Y244052D01*
X284058Y243939D01*
X284060Y243826D01*
X284060Y238634D01*
X284058Y238521D01*
X284052Y238408D01*
X284042Y238295D01*
X284028Y238182D01*
X284011Y238070D01*
X283989Y237959D01*
X283964Y237849D01*
X283934Y237739D01*
X283901Y237631D01*
X283864Y237524D01*
X283824Y237418D01*
X283779Y237314D01*
X283731Y237211D01*
X283680Y237110D01*
X283625Y237011D01*
X283567Y236914D01*
X283505Y236819D01*
X283440Y236726D01*
X283372Y236636D01*
X283301Y236548D01*
X283226Y236462D01*
X283149Y236379D01*
X283069Y236299D01*
X282986Y236222D01*
X282900Y236147D01*
X282812Y236076D01*
X282722Y236008D01*
X282629Y235943D01*
X282534Y235881D01*
X282437Y235823D01*
X282338Y235768D01*
X282237Y235717D01*
X282134Y235669D01*
X282030Y235624D01*
X281924Y235584D01*
X281817Y235547D01*
X281709Y235514D01*
X281599Y235484D01*
X281489Y235459D01*
X281378Y235437D01*
X281266Y235420D01*
X281153Y235406D01*
X281040Y235396D01*
X280927Y235390D01*
X280814Y235388D01*
X280701Y235390D01*
X280588Y235396D01*
X280475Y235406D01*
X280362Y235420D01*
X280250Y235437D01*
X280139Y235459D01*
X280029Y235484D01*
X279919Y235514D01*
X279811Y235547D01*
X279704Y235584D01*
X279598Y235624D01*
X279494Y235669D01*
X279391Y235717D01*
X279290Y235768D01*
X279191Y235823D01*
X279094Y235881D01*
X278999Y235943D01*
X278906Y236008D01*
X278816Y236076D01*
X278728Y236147D01*
X278642Y236222D01*
X278559Y236299D01*
X278479Y236379D01*
X278402Y236462D01*
X278327Y236548D01*
X278256Y236636D01*
X278188Y236726D01*
X278123Y236819D01*
X278061Y236914D01*
X278003Y237011D01*
X277948Y237110D01*
X277897Y237211D01*
X277849Y237314D01*
X277804Y237418D01*
X277764Y237524D01*
X277727Y237631D01*
X277694Y237739D01*
X277664Y237849D01*
X277639Y237959D01*
X277617Y238070D01*
X277600Y238182D01*
X277586Y238295D01*
X277576Y238408D01*
X277570Y238521D01*
X277568Y238634D01*
X288349Y235388D02*
X292244Y247072D01*
X296139Y235388D01*
X295165Y238309D02*
X289323Y238309D01*
X300809Y235388D02*
X300809Y247072D01*
X304055Y247072D01*
X304168Y247070D01*
X304281Y247064D01*
X304394Y247054D01*
X304507Y247040D01*
X304619Y247023D01*
X304730Y247001D01*
X304840Y246976D01*
X304950Y246946D01*
X305058Y246913D01*
X305165Y246876D01*
X305271Y246836D01*
X305375Y246791D01*
X305478Y246743D01*
X305579Y246692D01*
X305678Y246637D01*
X305775Y246579D01*
X305870Y246517D01*
X305963Y246452D01*
X306053Y246384D01*
X306141Y246313D01*
X306227Y246238D01*
X306310Y246161D01*
X306390Y246081D01*
X306467Y245998D01*
X306542Y245912D01*
X306613Y245824D01*
X306681Y245734D01*
X306746Y245641D01*
X306808Y245546D01*
X306866Y245449D01*
X306921Y245350D01*
X306972Y245249D01*
X307020Y245146D01*
X307065Y245042D01*
X307105Y244936D01*
X307142Y244829D01*
X307175Y244721D01*
X307205Y244611D01*
X307230Y244501D01*
X307252Y244390D01*
X307269Y244278D01*
X307283Y244165D01*
X307293Y244052D01*
X307299Y243939D01*
X307301Y243826D01*
X307301Y238634D01*
X307299Y238521D01*
X307293Y238408D01*
X307283Y238295D01*
X307269Y238182D01*
X307252Y238070D01*
X307230Y237959D01*
X307205Y237849D01*
X307175Y237739D01*
X307142Y237631D01*
X307105Y237524D01*
X307065Y237418D01*
X307020Y237314D01*
X306972Y237211D01*
X306921Y237110D01*
X306866Y237011D01*
X306808Y236914D01*
X306746Y236819D01*
X306681Y236726D01*
X306613Y236636D01*
X306542Y236548D01*
X306467Y236462D01*
X306390Y236379D01*
X306310Y236299D01*
X306227Y236222D01*
X306141Y236147D01*
X306053Y236076D01*
X305963Y236008D01*
X305870Y235943D01*
X305775Y235881D01*
X305678Y235823D01*
X305579Y235768D01*
X305478Y235717D01*
X305375Y235669D01*
X305271Y235624D01*
X305165Y235584D01*
X305058Y235547D01*
X304950Y235514D01*
X304840Y235484D01*
X304730Y235459D01*
X304619Y235437D01*
X304507Y235420D01*
X304394Y235406D01*
X304281Y235396D01*
X304168Y235390D01*
X304055Y235388D01*
X300809Y235388D01*
X313024Y235388D02*
X318217Y235388D01*
X313024Y235388D02*
X313024Y247072D01*
X318217Y247072D01*
X316919Y241879D02*
X313024Y241879D01*
X322981Y247072D02*
X322981Y235388D01*
X322981Y247072D02*
X326227Y247072D01*
X326340Y247070D01*
X326453Y247064D01*
X326566Y247054D01*
X326679Y247040D01*
X326791Y247023D01*
X326902Y247001D01*
X327012Y246976D01*
X327122Y246946D01*
X327230Y246913D01*
X327337Y246876D01*
X327443Y246836D01*
X327547Y246791D01*
X327650Y246743D01*
X327751Y246692D01*
X327850Y246637D01*
X327947Y246579D01*
X328042Y246517D01*
X328135Y246452D01*
X328225Y246384D01*
X328313Y246313D01*
X328399Y246238D01*
X328482Y246161D01*
X328562Y246081D01*
X328639Y245998D01*
X328714Y245912D01*
X328785Y245824D01*
X328853Y245734D01*
X328918Y245641D01*
X328980Y245546D01*
X329038Y245449D01*
X329093Y245350D01*
X329144Y245249D01*
X329192Y245146D01*
X329237Y245042D01*
X329277Y244936D01*
X329314Y244829D01*
X329347Y244721D01*
X329377Y244611D01*
X329402Y244501D01*
X329424Y244390D01*
X329441Y244278D01*
X329455Y244165D01*
X329465Y244052D01*
X329471Y243939D01*
X329473Y243826D01*
X329471Y243713D01*
X329465Y243600D01*
X329455Y243487D01*
X329441Y243374D01*
X329424Y243262D01*
X329402Y243151D01*
X329377Y243041D01*
X329347Y242931D01*
X329314Y242823D01*
X329277Y242716D01*
X329237Y242610D01*
X329192Y242506D01*
X329144Y242403D01*
X329093Y242302D01*
X329038Y242203D01*
X328980Y242106D01*
X328918Y242011D01*
X328853Y241918D01*
X328785Y241828D01*
X328714Y241740D01*
X328639Y241654D01*
X328562Y241571D01*
X328482Y241491D01*
X328399Y241414D01*
X328313Y241339D01*
X328225Y241268D01*
X328135Y241200D01*
X328042Y241135D01*
X327947Y241073D01*
X327850Y241015D01*
X327751Y240960D01*
X327650Y240909D01*
X327547Y240861D01*
X327443Y240816D01*
X327337Y240776D01*
X327230Y240739D01*
X327122Y240706D01*
X327012Y240676D01*
X326902Y240651D01*
X326791Y240629D01*
X326679Y240612D01*
X326566Y240598D01*
X326453Y240588D01*
X326340Y240582D01*
X326227Y240580D01*
X326227Y240581D02*
X322981Y240581D01*
X326876Y240581D02*
X329472Y235388D01*
X333843Y234090D02*
X339036Y248370D01*
X343885Y247072D02*
X343885Y235388D01*
X343885Y247072D02*
X349078Y247072D01*
X349078Y241879D02*
X343885Y241879D01*
X355871Y247072D02*
X355871Y235388D01*
X352625Y247072D02*
X359116Y247072D01*
X363674Y247072D02*
X363674Y235388D01*
X363674Y247072D02*
X366920Y247072D01*
X367033Y247070D01*
X367146Y247064D01*
X367259Y247054D01*
X367372Y247040D01*
X367484Y247023D01*
X367595Y247001D01*
X367705Y246976D01*
X367815Y246946D01*
X367923Y246913D01*
X368030Y246876D01*
X368136Y246836D01*
X368240Y246791D01*
X368343Y246743D01*
X368444Y246692D01*
X368543Y246637D01*
X368640Y246579D01*
X368735Y246517D01*
X368828Y246452D01*
X368918Y246384D01*
X369006Y246313D01*
X369092Y246238D01*
X369175Y246161D01*
X369255Y246081D01*
X369332Y245998D01*
X369407Y245912D01*
X369478Y245824D01*
X369546Y245734D01*
X369611Y245641D01*
X369673Y245546D01*
X369731Y245449D01*
X369786Y245350D01*
X369837Y245249D01*
X369885Y245146D01*
X369930Y245042D01*
X369970Y244936D01*
X370007Y244829D01*
X370040Y244721D01*
X370070Y244611D01*
X370095Y244501D01*
X370117Y244390D01*
X370134Y244278D01*
X370148Y244165D01*
X370158Y244052D01*
X370164Y243939D01*
X370166Y243826D01*
X370165Y243826D02*
X370165Y238634D01*
X370166Y238634D02*
X370164Y238521D01*
X370158Y238408D01*
X370148Y238295D01*
X370134Y238182D01*
X370117Y238070D01*
X370095Y237959D01*
X370070Y237849D01*
X370040Y237739D01*
X370007Y237631D01*
X369970Y237524D01*
X369930Y237418D01*
X369885Y237314D01*
X369837Y237211D01*
X369786Y237110D01*
X369731Y237011D01*
X369673Y236914D01*
X369611Y236819D01*
X369546Y236726D01*
X369478Y236636D01*
X369407Y236548D01*
X369332Y236462D01*
X369255Y236379D01*
X369175Y236299D01*
X369092Y236222D01*
X369006Y236147D01*
X368918Y236076D01*
X368828Y236008D01*
X368735Y235943D01*
X368640Y235881D01*
X368543Y235823D01*
X368444Y235768D01*
X368343Y235717D01*
X368240Y235669D01*
X368136Y235624D01*
X368030Y235584D01*
X367923Y235547D01*
X367815Y235514D01*
X367705Y235484D01*
X367595Y235459D01*
X367484Y235437D01*
X367372Y235420D01*
X367259Y235406D01*
X367146Y235396D01*
X367033Y235390D01*
X366920Y235388D01*
X363674Y235388D01*
X376445Y235388D02*
X376445Y247072D01*
X375147Y235388D02*
X377743Y235388D01*
X377743Y247072D02*
X375147Y247072D01*
D16*
X70000Y241250D02*
X70000Y118750D01*
X112000Y118750D02*
X112000Y140000D01*
X112000Y220000D02*
X112000Y241250D01*
D17*
X135000Y210000D03*
D18*
X135044Y210002D01*
X135087Y210008D01*
X135129Y210017D01*
X135171Y210030D01*
X135211Y210047D01*
X135250Y210067D01*
X135287Y210090D01*
X135321Y210117D01*
X135354Y210146D01*
X135383Y210179D01*
X135410Y210213D01*
X135433Y210250D01*
X135453Y210289D01*
X135470Y210329D01*
X135483Y210371D01*
X135492Y210413D01*
X135498Y210456D01*
X135500Y210500D01*
X135498Y210544D01*
X135492Y210587D01*
X135483Y210629D01*
X135470Y210671D01*
X135453Y210711D01*
X135433Y210750D01*
X135410Y210787D01*
X135383Y210821D01*
X135354Y210854D01*
X135321Y210883D01*
X135287Y210910D01*
X135250Y210933D01*
X135211Y210953D01*
X135171Y210970D01*
X135129Y210983D01*
X135087Y210992D01*
X135044Y210998D01*
X135000Y211000D01*
D17*
X135000Y211000D03*
D18*
X134956Y210998D01*
X134913Y210992D01*
X134871Y210983D01*
X134829Y210970D01*
X134789Y210953D01*
X134750Y210933D01*
X134713Y210910D01*
X134679Y210883D01*
X134646Y210854D01*
X134617Y210821D01*
X134590Y210787D01*
X134567Y210750D01*
X134547Y210711D01*
X134530Y210671D01*
X134517Y210629D01*
X134508Y210587D01*
X134502Y210544D01*
X134500Y210500D01*
X134502Y210456D01*
X134508Y210413D01*
X134517Y210371D01*
X134530Y210329D01*
X134547Y210289D01*
X134567Y210250D01*
X134590Y210213D01*
X134617Y210179D01*
X134646Y210146D01*
X134679Y210117D01*
X134713Y210090D01*
X134750Y210067D01*
X134789Y210047D01*
X134829Y210030D01*
X134871Y210017D01*
X134913Y210008D01*
X134956Y210002D01*
X135000Y210000D01*
D14*
X102101Y153509D02*
X102101Y150263D01*
X102100Y153509D02*
X102102Y153622D01*
X102108Y153735D01*
X102118Y153848D01*
X102132Y153961D01*
X102149Y154073D01*
X102171Y154184D01*
X102196Y154294D01*
X102226Y154404D01*
X102259Y154512D01*
X102296Y154619D01*
X102336Y154725D01*
X102381Y154829D01*
X102429Y154932D01*
X102480Y155033D01*
X102535Y155132D01*
X102593Y155229D01*
X102655Y155324D01*
X102720Y155417D01*
X102788Y155507D01*
X102859Y155595D01*
X102934Y155681D01*
X103011Y155764D01*
X103091Y155844D01*
X103174Y155921D01*
X103260Y155996D01*
X103348Y156067D01*
X103438Y156135D01*
X103531Y156200D01*
X103626Y156262D01*
X103723Y156320D01*
X103822Y156375D01*
X103923Y156426D01*
X104026Y156474D01*
X104130Y156519D01*
X104236Y156559D01*
X104343Y156596D01*
X104451Y156629D01*
X104561Y156659D01*
X104671Y156684D01*
X104782Y156706D01*
X104894Y156723D01*
X105007Y156737D01*
X105120Y156747D01*
X105233Y156753D01*
X105346Y156755D01*
X105459Y156753D01*
X105572Y156747D01*
X105685Y156737D01*
X105798Y156723D01*
X105910Y156706D01*
X106021Y156684D01*
X106131Y156659D01*
X106241Y156629D01*
X106349Y156596D01*
X106456Y156559D01*
X106562Y156519D01*
X106666Y156474D01*
X106769Y156426D01*
X106870Y156375D01*
X106969Y156320D01*
X107066Y156262D01*
X107161Y156200D01*
X107254Y156135D01*
X107344Y156067D01*
X107432Y155996D01*
X107518Y155921D01*
X107601Y155844D01*
X107681Y155764D01*
X107758Y155681D01*
X107833Y155595D01*
X107904Y155507D01*
X107972Y155417D01*
X108037Y155324D01*
X108099Y155229D01*
X108157Y155132D01*
X108212Y155033D01*
X108263Y154932D01*
X108311Y154829D01*
X108356Y154725D01*
X108396Y154619D01*
X108433Y154512D01*
X108466Y154404D01*
X108496Y154294D01*
X108521Y154184D01*
X108543Y154073D01*
X108560Y153961D01*
X108574Y153848D01*
X108584Y153735D01*
X108590Y153622D01*
X108592Y153509D01*
X108592Y150263D01*
X96908Y150263D01*
X96908Y153509D01*
X96910Y153610D01*
X96916Y153710D01*
X96926Y153810D01*
X96939Y153910D01*
X96957Y154009D01*
X96978Y154108D01*
X97003Y154205D01*
X97032Y154302D01*
X97065Y154397D01*
X97101Y154491D01*
X97141Y154583D01*
X97184Y154674D01*
X97231Y154763D01*
X97281Y154850D01*
X97335Y154936D01*
X97392Y155019D01*
X97452Y155099D01*
X97515Y155178D01*
X97582Y155254D01*
X97651Y155327D01*
X97723Y155397D01*
X97797Y155465D01*
X97874Y155530D01*
X97954Y155591D01*
X98036Y155650D01*
X98120Y155705D01*
X98206Y155757D01*
X98294Y155806D01*
X98384Y155851D01*
X98476Y155893D01*
X98569Y155931D01*
X98664Y155965D01*
X98759Y155996D01*
X98856Y156023D01*
X98954Y156046D01*
X99053Y156066D01*
X99153Y156081D01*
X99253Y156093D01*
X99353Y156101D01*
X99454Y156105D01*
X99554Y156105D01*
X99655Y156101D01*
X99755Y156093D01*
X99855Y156081D01*
X99955Y156066D01*
X100054Y156046D01*
X100152Y156023D01*
X100249Y155996D01*
X100344Y155965D01*
X100439Y155931D01*
X100532Y155893D01*
X100624Y155851D01*
X100714Y155806D01*
X100802Y155757D01*
X100888Y155705D01*
X100972Y155650D01*
X101054Y155591D01*
X101134Y155530D01*
X101211Y155465D01*
X101285Y155397D01*
X101357Y155327D01*
X101426Y155254D01*
X101493Y155178D01*
X101556Y155099D01*
X101616Y155019D01*
X101673Y154936D01*
X101727Y154850D01*
X101777Y154763D01*
X101824Y154674D01*
X101867Y154583D01*
X101907Y154491D01*
X101943Y154397D01*
X101976Y154302D01*
X102005Y154205D01*
X102030Y154108D01*
X102051Y154009D01*
X102069Y153910D01*
X102082Y153810D01*
X102092Y153710D01*
X102098Y153610D01*
X102100Y153509D01*
X96908Y164713D02*
X96910Y164820D01*
X96916Y164926D01*
X96926Y165032D01*
X96939Y165138D01*
X96957Y165244D01*
X96978Y165348D01*
X97003Y165452D01*
X97032Y165555D01*
X97064Y165656D01*
X97101Y165756D01*
X97141Y165855D01*
X97184Y165953D01*
X97231Y166049D01*
X97282Y166143D01*
X97336Y166235D01*
X97393Y166325D01*
X97453Y166413D01*
X97517Y166498D01*
X97584Y166581D01*
X97654Y166662D01*
X97726Y166740D01*
X97802Y166816D01*
X97880Y166888D01*
X97961Y166958D01*
X98044Y167025D01*
X98129Y167089D01*
X98217Y167149D01*
X98307Y167206D01*
X98399Y167260D01*
X98493Y167311D01*
X98589Y167358D01*
X98687Y167401D01*
X98786Y167441D01*
X98886Y167478D01*
X98987Y167510D01*
X99090Y167539D01*
X99194Y167564D01*
X99298Y167585D01*
X99404Y167603D01*
X99510Y167616D01*
X99616Y167626D01*
X99722Y167632D01*
X99829Y167634D01*
X96908Y164713D02*
X96910Y164592D01*
X96916Y164471D01*
X96926Y164351D01*
X96939Y164230D01*
X96957Y164111D01*
X96978Y163991D01*
X97003Y163873D01*
X97032Y163756D01*
X97065Y163639D01*
X97101Y163524D01*
X97142Y163410D01*
X97185Y163297D01*
X97233Y163185D01*
X97284Y163076D01*
X97339Y162968D01*
X97397Y162861D01*
X97458Y162757D01*
X97523Y162655D01*
X97591Y162555D01*
X97662Y162457D01*
X97736Y162361D01*
X97813Y162268D01*
X97894Y162178D01*
X97977Y162090D01*
X98063Y162005D01*
X98152Y161922D01*
X98243Y161843D01*
X98337Y161766D01*
X98433Y161693D01*
X98531Y161623D01*
X98632Y161556D01*
X98735Y161492D01*
X98840Y161432D01*
X98947Y161374D01*
X99055Y161321D01*
X99165Y161271D01*
X99277Y161225D01*
X99390Y161182D01*
X99505Y161143D01*
X102101Y166660D02*
X102023Y166739D01*
X101943Y166815D01*
X101860Y166888D01*
X101774Y166958D01*
X101687Y167025D01*
X101596Y167089D01*
X101504Y167149D01*
X101410Y167207D01*
X101313Y167261D01*
X101215Y167311D01*
X101115Y167358D01*
X101014Y167402D01*
X100911Y167442D01*
X100806Y167478D01*
X100701Y167510D01*
X100594Y167539D01*
X100487Y167564D01*
X100378Y167586D01*
X100269Y167603D01*
X100160Y167617D01*
X100050Y167626D01*
X99939Y167632D01*
X99829Y167634D01*
X102101Y166660D02*
X108592Y161143D01*
X108592Y167634D01*
X109890Y172079D02*
X95610Y177272D01*
X100154Y181717D02*
X105346Y181717D01*
X100154Y181717D02*
X100041Y181719D01*
X99928Y181725D01*
X99815Y181735D01*
X99702Y181749D01*
X99590Y181766D01*
X99479Y181788D01*
X99369Y181813D01*
X99259Y181843D01*
X99151Y181876D01*
X99044Y181913D01*
X98938Y181953D01*
X98834Y181998D01*
X98731Y182046D01*
X98630Y182097D01*
X98531Y182152D01*
X98434Y182210D01*
X98339Y182272D01*
X98246Y182337D01*
X98156Y182405D01*
X98068Y182476D01*
X97982Y182551D01*
X97899Y182628D01*
X97819Y182708D01*
X97742Y182791D01*
X97667Y182877D01*
X97596Y182965D01*
X97528Y183055D01*
X97463Y183148D01*
X97401Y183243D01*
X97343Y183340D01*
X97288Y183439D01*
X97237Y183540D01*
X97189Y183643D01*
X97144Y183747D01*
X97104Y183853D01*
X97067Y183960D01*
X97034Y184068D01*
X97004Y184178D01*
X96979Y184288D01*
X96957Y184399D01*
X96940Y184511D01*
X96926Y184624D01*
X96916Y184737D01*
X96910Y184850D01*
X96908Y184963D01*
X96910Y185076D01*
X96916Y185189D01*
X96926Y185302D01*
X96940Y185415D01*
X96957Y185527D01*
X96979Y185638D01*
X97004Y185748D01*
X97034Y185858D01*
X97067Y185966D01*
X97104Y186073D01*
X97144Y186179D01*
X97189Y186283D01*
X97237Y186386D01*
X97288Y186487D01*
X97343Y186586D01*
X97401Y186683D01*
X97463Y186778D01*
X97528Y186871D01*
X97596Y186961D01*
X97667Y187049D01*
X97742Y187135D01*
X97819Y187218D01*
X97899Y187298D01*
X97982Y187375D01*
X98068Y187450D01*
X98156Y187521D01*
X98246Y187589D01*
X98339Y187654D01*
X98434Y187716D01*
X98531Y187774D01*
X98630Y187829D01*
X98731Y187880D01*
X98834Y187928D01*
X98938Y187973D01*
X99044Y188013D01*
X99151Y188050D01*
X99259Y188083D01*
X99369Y188113D01*
X99479Y188138D01*
X99590Y188160D01*
X99702Y188177D01*
X99815Y188191D01*
X99928Y188201D01*
X100041Y188207D01*
X100154Y188209D01*
X100154Y188208D02*
X105346Y188208D01*
X105346Y188209D02*
X105459Y188207D01*
X105572Y188201D01*
X105685Y188191D01*
X105798Y188177D01*
X105910Y188160D01*
X106021Y188138D01*
X106131Y188113D01*
X106241Y188083D01*
X106349Y188050D01*
X106456Y188013D01*
X106562Y187973D01*
X106666Y187928D01*
X106769Y187880D01*
X106870Y187829D01*
X106969Y187774D01*
X107066Y187716D01*
X107161Y187654D01*
X107254Y187589D01*
X107344Y187521D01*
X107432Y187450D01*
X107518Y187375D01*
X107601Y187298D01*
X107681Y187218D01*
X107758Y187135D01*
X107833Y187049D01*
X107904Y186961D01*
X107972Y186871D01*
X108037Y186778D01*
X108099Y186683D01*
X108157Y186586D01*
X108212Y186487D01*
X108263Y186386D01*
X108311Y186283D01*
X108356Y186179D01*
X108396Y186073D01*
X108433Y185966D01*
X108466Y185858D01*
X108496Y185748D01*
X108521Y185638D01*
X108543Y185527D01*
X108560Y185415D01*
X108574Y185302D01*
X108584Y185189D01*
X108590Y185076D01*
X108592Y184963D01*
X108590Y184850D01*
X108584Y184737D01*
X108574Y184624D01*
X108560Y184511D01*
X108543Y184399D01*
X108521Y184288D01*
X108496Y184178D01*
X108466Y184068D01*
X108433Y183960D01*
X108396Y183853D01*
X108356Y183747D01*
X108311Y183643D01*
X108263Y183540D01*
X108212Y183439D01*
X108157Y183340D01*
X108099Y183243D01*
X108037Y183148D01*
X107972Y183055D01*
X107904Y182965D01*
X107833Y182877D01*
X107758Y182791D01*
X107681Y182708D01*
X107601Y182628D01*
X107518Y182551D01*
X107432Y182476D01*
X107344Y182405D01*
X107254Y182337D01*
X107161Y182272D01*
X107066Y182210D01*
X106969Y182152D01*
X106870Y182097D01*
X106769Y182046D01*
X106666Y181998D01*
X106562Y181953D01*
X106456Y181913D01*
X106349Y181876D01*
X106241Y181843D01*
X106131Y181813D01*
X106021Y181788D01*
X105910Y181766D01*
X105798Y181749D01*
X105685Y181735D01*
X105572Y181725D01*
X105459Y181719D01*
X105346Y181717D01*
X102101Y193697D02*
X102101Y196943D01*
X102100Y196943D02*
X102102Y197056D01*
X102108Y197169D01*
X102118Y197282D01*
X102132Y197395D01*
X102149Y197507D01*
X102171Y197618D01*
X102196Y197728D01*
X102226Y197838D01*
X102259Y197946D01*
X102296Y198053D01*
X102336Y198159D01*
X102381Y198263D01*
X102429Y198366D01*
X102480Y198467D01*
X102535Y198566D01*
X102593Y198663D01*
X102655Y198758D01*
X102720Y198851D01*
X102788Y198941D01*
X102859Y199029D01*
X102934Y199115D01*
X103011Y199198D01*
X103091Y199278D01*
X103174Y199355D01*
X103260Y199430D01*
X103348Y199501D01*
X103438Y199569D01*
X103531Y199634D01*
X103626Y199696D01*
X103723Y199754D01*
X103822Y199809D01*
X103923Y199860D01*
X104026Y199908D01*
X104130Y199953D01*
X104236Y199993D01*
X104343Y200030D01*
X104451Y200063D01*
X104561Y200093D01*
X104671Y200118D01*
X104782Y200140D01*
X104894Y200157D01*
X105007Y200171D01*
X105120Y200181D01*
X105233Y200187D01*
X105346Y200189D01*
X105459Y200187D01*
X105572Y200181D01*
X105685Y200171D01*
X105798Y200157D01*
X105910Y200140D01*
X106021Y200118D01*
X106131Y200093D01*
X106241Y200063D01*
X106349Y200030D01*
X106456Y199993D01*
X106562Y199953D01*
X106666Y199908D01*
X106769Y199860D01*
X106870Y199809D01*
X106969Y199754D01*
X107066Y199696D01*
X107161Y199634D01*
X107254Y199569D01*
X107344Y199501D01*
X107432Y199430D01*
X107518Y199355D01*
X107601Y199278D01*
X107681Y199198D01*
X107758Y199115D01*
X107833Y199029D01*
X107904Y198941D01*
X107972Y198851D01*
X108037Y198758D01*
X108099Y198663D01*
X108157Y198566D01*
X108212Y198467D01*
X108263Y198366D01*
X108311Y198263D01*
X108356Y198159D01*
X108396Y198053D01*
X108433Y197946D01*
X108466Y197838D01*
X108496Y197728D01*
X108521Y197618D01*
X108543Y197507D01*
X108560Y197395D01*
X108574Y197282D01*
X108584Y197169D01*
X108590Y197056D01*
X108592Y196943D01*
X108592Y193697D01*
X96908Y193697D01*
X96908Y196943D01*
X96910Y197044D01*
X96916Y197144D01*
X96926Y197244D01*
X96939Y197344D01*
X96957Y197443D01*
X96978Y197542D01*
X97003Y197639D01*
X97032Y197736D01*
X97065Y197831D01*
X97101Y197925D01*
X97141Y198017D01*
X97184Y198108D01*
X97231Y198197D01*
X97281Y198284D01*
X97335Y198370D01*
X97392Y198453D01*
X97452Y198533D01*
X97515Y198612D01*
X97582Y198688D01*
X97651Y198761D01*
X97723Y198831D01*
X97797Y198899D01*
X97874Y198964D01*
X97954Y199025D01*
X98036Y199084D01*
X98120Y199139D01*
X98206Y199191D01*
X98294Y199240D01*
X98384Y199285D01*
X98476Y199327D01*
X98569Y199365D01*
X98664Y199399D01*
X98759Y199430D01*
X98856Y199457D01*
X98954Y199480D01*
X99053Y199500D01*
X99153Y199515D01*
X99253Y199527D01*
X99353Y199535D01*
X99454Y199539D01*
X99554Y199539D01*
X99655Y199535D01*
X99755Y199527D01*
X99855Y199515D01*
X99955Y199500D01*
X100054Y199480D01*
X100152Y199457D01*
X100249Y199430D01*
X100344Y199399D01*
X100439Y199365D01*
X100532Y199327D01*
X100624Y199285D01*
X100714Y199240D01*
X100802Y199191D01*
X100888Y199139D01*
X100972Y199084D01*
X101054Y199025D01*
X101134Y198964D01*
X101211Y198899D01*
X101285Y198831D01*
X101357Y198761D01*
X101426Y198688D01*
X101493Y198612D01*
X101556Y198533D01*
X101616Y198453D01*
X101673Y198370D01*
X101727Y198284D01*
X101777Y198197D01*
X101824Y198108D01*
X101867Y198017D01*
X101907Y197925D01*
X101943Y197831D01*
X101976Y197736D01*
X102005Y197639D01*
X102030Y197542D01*
X102051Y197443D01*
X102069Y197344D01*
X102082Y197244D01*
X102092Y197144D01*
X102098Y197044D01*
X102100Y196943D01*
X108592Y207140D02*
X108592Y209737D01*
X108592Y207140D02*
X108590Y207041D01*
X108584Y206941D01*
X108575Y206842D01*
X108562Y206744D01*
X108545Y206646D01*
X108524Y206548D01*
X108499Y206452D01*
X108471Y206357D01*
X108439Y206263D01*
X108404Y206170D01*
X108365Y206078D01*
X108322Y205988D01*
X108277Y205900D01*
X108227Y205813D01*
X108175Y205729D01*
X108119Y205646D01*
X108061Y205566D01*
X107999Y205488D01*
X107934Y205413D01*
X107866Y205340D01*
X107796Y205270D01*
X107723Y205202D01*
X107648Y205137D01*
X107570Y205075D01*
X107490Y205017D01*
X107407Y204961D01*
X107323Y204909D01*
X107236Y204859D01*
X107148Y204814D01*
X107058Y204771D01*
X106966Y204732D01*
X106873Y204697D01*
X106779Y204665D01*
X106684Y204637D01*
X106588Y204612D01*
X106490Y204591D01*
X106392Y204574D01*
X106294Y204561D01*
X106195Y204552D01*
X106095Y204546D01*
X105996Y204544D01*
X99504Y204544D01*
X99504Y204543D02*
X99405Y204545D01*
X99305Y204551D01*
X99206Y204560D01*
X99108Y204573D01*
X99010Y204591D01*
X98912Y204611D01*
X98816Y204636D01*
X98720Y204664D01*
X98626Y204696D01*
X98533Y204731D01*
X98442Y204770D01*
X98352Y204813D01*
X98263Y204858D01*
X98177Y204908D01*
X98092Y204960D01*
X98010Y205016D01*
X97930Y205075D01*
X97852Y205136D01*
X97776Y205201D01*
X97703Y205269D01*
X97633Y205339D01*
X97565Y205412D01*
X97500Y205488D01*
X97439Y205566D01*
X97380Y205646D01*
X97324Y205728D01*
X97272Y205813D01*
X97223Y205899D01*
X97177Y205988D01*
X97134Y206078D01*
X97095Y206169D01*
X97060Y206262D01*
X97028Y206356D01*
X97000Y206452D01*
X96975Y206548D01*
X96955Y206646D01*
X96937Y206744D01*
X96924Y206842D01*
X96915Y206941D01*
X96909Y207040D01*
X96907Y207140D01*
X96908Y207140D02*
X96908Y209737D01*
D12*
X294300Y58300D02*
X305700Y58300D01*
X305700Y41700D02*
X294300Y41700D01*
D19*
X277154Y62054D02*
X277154Y66546D01*
X278402Y66546D01*
X278471Y66544D01*
X278539Y66538D01*
X278607Y66529D01*
X278675Y66516D01*
X278742Y66499D01*
X278807Y66478D01*
X278872Y66454D01*
X278935Y66427D01*
X278996Y66396D01*
X279056Y66361D01*
X279113Y66324D01*
X279169Y66283D01*
X279222Y66239D01*
X279272Y66193D01*
X279320Y66143D01*
X279365Y66091D01*
X279408Y66037D01*
X279447Y65981D01*
X279483Y65922D01*
X279516Y65862D01*
X279545Y65799D01*
X279571Y65736D01*
X279593Y65671D01*
X279612Y65604D01*
X279627Y65537D01*
X279638Y65469D01*
X279646Y65401D01*
X279650Y65332D01*
X279650Y65264D01*
X279646Y65195D01*
X279638Y65127D01*
X279627Y65059D01*
X279612Y64992D01*
X279593Y64925D01*
X279571Y64860D01*
X279545Y64797D01*
X279516Y64734D01*
X279483Y64674D01*
X279447Y64615D01*
X279408Y64559D01*
X279365Y64505D01*
X279320Y64453D01*
X279272Y64403D01*
X279222Y64357D01*
X279169Y64313D01*
X279113Y64272D01*
X279056Y64235D01*
X278996Y64200D01*
X278935Y64169D01*
X278872Y64142D01*
X278807Y64118D01*
X278742Y64097D01*
X278675Y64080D01*
X278607Y64067D01*
X278539Y64058D01*
X278471Y64052D01*
X278402Y64050D01*
X277154Y64050D01*
X278651Y64050D02*
X279650Y62054D01*
X281421Y61555D02*
X283417Y61555D01*
X285447Y62054D02*
X285447Y66546D01*
X286694Y66546D01*
X286763Y66544D01*
X286831Y66538D01*
X286899Y66529D01*
X286967Y66516D01*
X287034Y66499D01*
X287099Y66478D01*
X287164Y66454D01*
X287227Y66427D01*
X287288Y66396D01*
X287348Y66361D01*
X287405Y66324D01*
X287461Y66283D01*
X287514Y66239D01*
X287564Y66193D01*
X287612Y66143D01*
X287657Y66091D01*
X287700Y66037D01*
X287739Y65981D01*
X287775Y65922D01*
X287808Y65862D01*
X287837Y65799D01*
X287863Y65736D01*
X287885Y65671D01*
X287904Y65604D01*
X287919Y65537D01*
X287930Y65469D01*
X287938Y65401D01*
X287942Y65332D01*
X287942Y65264D01*
X287938Y65195D01*
X287930Y65127D01*
X287919Y65059D01*
X287904Y64992D01*
X287885Y64925D01*
X287863Y64860D01*
X287837Y64797D01*
X287808Y64734D01*
X287775Y64674D01*
X287739Y64615D01*
X287700Y64559D01*
X287657Y64505D01*
X287612Y64453D01*
X287564Y64403D01*
X287514Y64357D01*
X287461Y64313D01*
X287405Y64272D01*
X287348Y64235D01*
X287288Y64200D01*
X287227Y64169D01*
X287164Y64142D01*
X287099Y64118D01*
X287034Y64097D01*
X286967Y64080D01*
X286899Y64067D01*
X286831Y64058D01*
X286763Y64052D01*
X286694Y64050D01*
X285447Y64050D01*
X289871Y63302D02*
X289871Y66546D01*
X289871Y63302D02*
X289873Y63233D01*
X289879Y63165D01*
X289888Y63097D01*
X289901Y63029D01*
X289918Y62962D01*
X289939Y62897D01*
X289963Y62832D01*
X289990Y62769D01*
X290021Y62708D01*
X290056Y62648D01*
X290093Y62591D01*
X290134Y62535D01*
X290178Y62482D01*
X290224Y62432D01*
X290274Y62384D01*
X290326Y62339D01*
X290380Y62296D01*
X290436Y62257D01*
X290495Y62221D01*
X290555Y62188D01*
X290618Y62159D01*
X290681Y62133D01*
X290746Y62111D01*
X290813Y62092D01*
X290880Y62077D01*
X290948Y62066D01*
X291016Y62058D01*
X291085Y62054D01*
X291153Y62054D01*
X291222Y62058D01*
X291290Y62066D01*
X291358Y62077D01*
X291425Y62092D01*
X291492Y62111D01*
X291557Y62133D01*
X291620Y62159D01*
X291683Y62188D01*
X291743Y62221D01*
X291802Y62257D01*
X291858Y62296D01*
X291912Y62339D01*
X291964Y62384D01*
X292014Y62432D01*
X292060Y62482D01*
X292104Y62535D01*
X292145Y62591D01*
X292182Y62648D01*
X292217Y62708D01*
X292248Y62769D01*
X292275Y62832D01*
X292299Y62897D01*
X292320Y62962D01*
X292337Y63029D01*
X292350Y63097D01*
X292359Y63165D01*
X292365Y63233D01*
X292367Y63302D01*
X292367Y66546D01*
X294681Y66546D02*
X294681Y62054D01*
X296678Y62054D01*
X298581Y62054D02*
X298581Y66546D01*
X298581Y62054D02*
X300578Y62054D01*
X304816Y65423D02*
X304814Y65488D01*
X304808Y65553D01*
X304799Y65618D01*
X304786Y65682D01*
X304769Y65745D01*
X304748Y65807D01*
X304724Y65868D01*
X304697Y65927D01*
X304666Y65985D01*
X304631Y66040D01*
X304594Y66094D01*
X304553Y66145D01*
X304510Y66194D01*
X304464Y66240D01*
X304415Y66283D01*
X304364Y66324D01*
X304310Y66361D01*
X304255Y66396D01*
X304197Y66427D01*
X304138Y66454D01*
X304077Y66478D01*
X304015Y66499D01*
X303952Y66516D01*
X303888Y66529D01*
X303823Y66538D01*
X303758Y66544D01*
X303693Y66546D01*
X303620Y66544D01*
X303548Y66539D01*
X303476Y66530D01*
X303405Y66517D01*
X303334Y66501D01*
X303264Y66481D01*
X303195Y66457D01*
X303128Y66431D01*
X303062Y66401D01*
X302997Y66367D01*
X302935Y66331D01*
X302874Y66291D01*
X302815Y66248D01*
X302759Y66203D01*
X302705Y66154D01*
X302653Y66103D01*
X302604Y66050D01*
X302558Y65994D01*
X302514Y65936D01*
X302474Y65875D01*
X302437Y65813D01*
X302403Y65749D01*
X302372Y65683D01*
X302344Y65616D01*
X302320Y65548D01*
X304442Y64550D02*
X304488Y64596D01*
X304531Y64644D01*
X304572Y64695D01*
X304610Y64748D01*
X304645Y64803D01*
X304676Y64860D01*
X304705Y64918D01*
X304731Y64978D01*
X304753Y65039D01*
X304772Y65101D01*
X304788Y65165D01*
X304800Y65229D01*
X304809Y65293D01*
X304814Y65358D01*
X304816Y65423D01*
X304442Y64550D02*
X302321Y62054D01*
X304816Y62054D01*
D12*
X529300Y171700D02*
X540700Y171700D01*
X540700Y188300D02*
X529300Y188300D01*
D19*
X537533Y167946D02*
X537533Y163454D01*
X537533Y167946D02*
X538781Y167946D01*
X538850Y167944D01*
X538918Y167938D01*
X538986Y167929D01*
X539054Y167916D01*
X539121Y167899D01*
X539186Y167878D01*
X539251Y167854D01*
X539314Y167827D01*
X539375Y167796D01*
X539435Y167761D01*
X539492Y167724D01*
X539548Y167683D01*
X539601Y167639D01*
X539651Y167593D01*
X539699Y167543D01*
X539744Y167491D01*
X539787Y167437D01*
X539826Y167381D01*
X539862Y167322D01*
X539895Y167262D01*
X539924Y167199D01*
X539950Y167136D01*
X539972Y167071D01*
X539991Y167004D01*
X540006Y166937D01*
X540017Y166869D01*
X540025Y166801D01*
X540029Y166732D01*
X540029Y166664D01*
X540025Y166595D01*
X540017Y166527D01*
X540006Y166459D01*
X539991Y166392D01*
X539972Y166325D01*
X539950Y166260D01*
X539924Y166197D01*
X539895Y166134D01*
X539862Y166074D01*
X539826Y166015D01*
X539787Y165959D01*
X539744Y165905D01*
X539699Y165853D01*
X539651Y165803D01*
X539601Y165757D01*
X539548Y165713D01*
X539492Y165672D01*
X539435Y165635D01*
X539375Y165600D01*
X539314Y165569D01*
X539251Y165542D01*
X539186Y165518D01*
X539121Y165497D01*
X539054Y165480D01*
X538986Y165467D01*
X538918Y165458D01*
X538850Y165452D01*
X538781Y165450D01*
X537533Y165450D01*
X539031Y165450D02*
X540029Y163454D01*
X541800Y162955D02*
X543797Y162955D01*
X545801Y163454D02*
X545801Y167946D01*
X547298Y165450D01*
X548796Y167946D01*
X548796Y163454D01*
X551001Y164702D02*
X551001Y166698D01*
X551000Y166698D02*
X551002Y166767D01*
X551008Y166835D01*
X551017Y166903D01*
X551030Y166971D01*
X551047Y167038D01*
X551068Y167103D01*
X551092Y167168D01*
X551119Y167231D01*
X551150Y167292D01*
X551185Y167352D01*
X551222Y167409D01*
X551263Y167465D01*
X551307Y167518D01*
X551353Y167568D01*
X551403Y167616D01*
X551455Y167661D01*
X551509Y167704D01*
X551565Y167743D01*
X551624Y167779D01*
X551684Y167812D01*
X551747Y167841D01*
X551810Y167867D01*
X551875Y167889D01*
X551942Y167908D01*
X552009Y167923D01*
X552077Y167934D01*
X552145Y167942D01*
X552214Y167946D01*
X552282Y167946D01*
X552351Y167942D01*
X552419Y167934D01*
X552487Y167923D01*
X552554Y167908D01*
X552621Y167889D01*
X552686Y167867D01*
X552749Y167841D01*
X552812Y167812D01*
X552872Y167779D01*
X552931Y167743D01*
X552987Y167704D01*
X553041Y167661D01*
X553093Y167616D01*
X553143Y167568D01*
X553189Y167518D01*
X553233Y167465D01*
X553274Y167409D01*
X553311Y167352D01*
X553346Y167292D01*
X553377Y167231D01*
X553404Y167168D01*
X553428Y167103D01*
X553449Y167038D01*
X553466Y166971D01*
X553479Y166903D01*
X553488Y166835D01*
X553494Y166767D01*
X553496Y166698D01*
X553496Y164702D01*
X553494Y164633D01*
X553488Y164565D01*
X553479Y164497D01*
X553466Y164429D01*
X553449Y164362D01*
X553428Y164297D01*
X553404Y164232D01*
X553377Y164169D01*
X553346Y164108D01*
X553311Y164048D01*
X553274Y163991D01*
X553233Y163935D01*
X553189Y163882D01*
X553143Y163832D01*
X553093Y163784D01*
X553041Y163739D01*
X552987Y163696D01*
X552931Y163657D01*
X552872Y163621D01*
X552812Y163588D01*
X552749Y163559D01*
X552686Y163533D01*
X552621Y163511D01*
X552554Y163492D01*
X552487Y163477D01*
X552419Y163466D01*
X552351Y163458D01*
X552282Y163454D01*
X552214Y163454D01*
X552145Y163458D01*
X552077Y163466D01*
X552009Y163477D01*
X551942Y163492D01*
X551875Y163511D01*
X551810Y163533D01*
X551747Y163559D01*
X551684Y163588D01*
X551624Y163621D01*
X551565Y163657D01*
X551509Y163696D01*
X551455Y163739D01*
X551403Y163784D01*
X551353Y163832D01*
X551307Y163882D01*
X551263Y163935D01*
X551222Y163991D01*
X551185Y164048D01*
X551150Y164108D01*
X551119Y164169D01*
X551092Y164232D01*
X551068Y164297D01*
X551047Y164362D01*
X551030Y164429D01*
X551017Y164497D01*
X551008Y164565D01*
X551002Y164633D01*
X551000Y164702D01*
X556848Y163454D02*
X556911Y163456D01*
X556973Y163462D01*
X557035Y163472D01*
X557096Y163485D01*
X557156Y163503D01*
X557215Y163524D01*
X557273Y163549D01*
X557329Y163577D01*
X557383Y163609D01*
X557435Y163645D01*
X557484Y163683D01*
X557531Y163725D01*
X557576Y163769D01*
X557617Y163816D01*
X557655Y163865D01*
X557691Y163917D01*
X557723Y163971D01*
X557751Y164027D01*
X557776Y164085D01*
X557797Y164144D01*
X557815Y164204D01*
X557828Y164265D01*
X557838Y164327D01*
X557844Y164389D01*
X557846Y164452D01*
X556848Y163454D02*
X556760Y163456D01*
X556673Y163461D01*
X556586Y163470D01*
X556499Y163483D01*
X556413Y163499D01*
X556328Y163519D01*
X556243Y163543D01*
X556160Y163569D01*
X556077Y163600D01*
X555997Y163634D01*
X555917Y163671D01*
X555839Y163711D01*
X555763Y163754D01*
X555689Y163801D01*
X555617Y163851D01*
X555547Y163903D01*
X555479Y163959D01*
X555413Y164017D01*
X555350Y164078D01*
X555475Y166948D02*
X555477Y167008D01*
X555482Y167068D01*
X555491Y167128D01*
X555504Y167187D01*
X555520Y167245D01*
X555540Y167302D01*
X555563Y167358D01*
X555589Y167412D01*
X555619Y167464D01*
X555652Y167515D01*
X555687Y167563D01*
X555726Y167610D01*
X555767Y167654D01*
X555811Y167695D01*
X555858Y167734D01*
X555906Y167769D01*
X555957Y167802D01*
X556009Y167832D01*
X556063Y167858D01*
X556119Y167881D01*
X556176Y167901D01*
X556234Y167917D01*
X556293Y167930D01*
X556353Y167939D01*
X556413Y167944D01*
X556473Y167946D01*
X556559Y167944D01*
X556645Y167938D01*
X556730Y167928D01*
X556815Y167914D01*
X556899Y167897D01*
X556983Y167875D01*
X557065Y167850D01*
X557146Y167821D01*
X557226Y167788D01*
X557303Y167752D01*
X557380Y167712D01*
X557454Y167668D01*
X557526Y167622D01*
X557596Y167572D01*
X555974Y166074D02*
X555922Y166107D01*
X555872Y166144D01*
X555824Y166183D01*
X555778Y166225D01*
X555735Y166270D01*
X555695Y166317D01*
X555658Y166366D01*
X555624Y166418D01*
X555594Y166472D01*
X555566Y166528D01*
X555542Y166585D01*
X555522Y166643D01*
X555505Y166703D01*
X555492Y166763D01*
X555483Y166824D01*
X555477Y166886D01*
X555475Y166948D01*
X557347Y165326D02*
X557399Y165293D01*
X557449Y165256D01*
X557497Y165217D01*
X557543Y165175D01*
X557586Y165130D01*
X557626Y165083D01*
X557663Y165034D01*
X557697Y164982D01*
X557727Y164928D01*
X557755Y164872D01*
X557779Y164815D01*
X557799Y164757D01*
X557816Y164697D01*
X557829Y164637D01*
X557838Y164576D01*
X557844Y164514D01*
X557846Y164452D01*
X557347Y165326D02*
X555974Y166074D01*
D12*
X636800Y236700D02*
X648200Y236700D01*
X648200Y253300D02*
X636800Y253300D01*
D19*
X634384Y232946D02*
X634384Y228454D01*
X634384Y232946D02*
X635631Y232946D01*
X635700Y232944D01*
X635768Y232938D01*
X635836Y232929D01*
X635904Y232916D01*
X635971Y232899D01*
X636036Y232878D01*
X636101Y232854D01*
X636164Y232827D01*
X636225Y232796D01*
X636285Y232761D01*
X636342Y232724D01*
X636398Y232683D01*
X636451Y232639D01*
X636501Y232593D01*
X636549Y232543D01*
X636594Y232491D01*
X636637Y232437D01*
X636676Y232381D01*
X636712Y232322D01*
X636745Y232262D01*
X636774Y232199D01*
X636800Y232136D01*
X636822Y232071D01*
X636841Y232004D01*
X636856Y231937D01*
X636867Y231869D01*
X636875Y231801D01*
X636879Y231732D01*
X636879Y231664D01*
X636875Y231595D01*
X636867Y231527D01*
X636856Y231459D01*
X636841Y231392D01*
X636822Y231325D01*
X636800Y231260D01*
X636774Y231197D01*
X636745Y231134D01*
X636712Y231074D01*
X636676Y231015D01*
X636637Y230959D01*
X636594Y230905D01*
X636549Y230853D01*
X636501Y230803D01*
X636451Y230757D01*
X636398Y230713D01*
X636342Y230672D01*
X636285Y230635D01*
X636225Y230600D01*
X636164Y230569D01*
X636101Y230542D01*
X636036Y230518D01*
X635971Y230497D01*
X635904Y230480D01*
X635836Y230467D01*
X635768Y230458D01*
X635700Y230452D01*
X635631Y230450D01*
X634384Y230450D01*
X635881Y230450D02*
X636879Y228454D01*
X638650Y227955D02*
X640647Y227955D01*
X643798Y228454D02*
X643861Y228456D01*
X643923Y228462D01*
X643985Y228472D01*
X644046Y228485D01*
X644106Y228503D01*
X644165Y228524D01*
X644223Y228549D01*
X644279Y228577D01*
X644333Y228609D01*
X644385Y228645D01*
X644434Y228683D01*
X644481Y228725D01*
X644526Y228769D01*
X644567Y228816D01*
X644605Y228865D01*
X644641Y228917D01*
X644673Y228971D01*
X644701Y229027D01*
X644726Y229085D01*
X644747Y229144D01*
X644765Y229204D01*
X644778Y229265D01*
X644788Y229327D01*
X644794Y229389D01*
X644796Y229452D01*
X643798Y228454D02*
X643710Y228456D01*
X643623Y228461D01*
X643536Y228470D01*
X643449Y228483D01*
X643363Y228499D01*
X643278Y228519D01*
X643193Y228543D01*
X643110Y228569D01*
X643027Y228600D01*
X642947Y228634D01*
X642867Y228671D01*
X642789Y228711D01*
X642713Y228754D01*
X642639Y228801D01*
X642567Y228851D01*
X642497Y228903D01*
X642429Y228959D01*
X642363Y229017D01*
X642300Y229078D01*
X642426Y231948D02*
X642428Y232008D01*
X642433Y232068D01*
X642442Y232128D01*
X642455Y232187D01*
X642471Y232245D01*
X642491Y232302D01*
X642514Y232358D01*
X642540Y232412D01*
X642570Y232464D01*
X642603Y232515D01*
X642638Y232563D01*
X642677Y232610D01*
X642718Y232654D01*
X642762Y232695D01*
X642809Y232734D01*
X642857Y232769D01*
X642908Y232802D01*
X642960Y232832D01*
X643014Y232858D01*
X643070Y232881D01*
X643127Y232901D01*
X643185Y232917D01*
X643244Y232930D01*
X643304Y232939D01*
X643364Y232944D01*
X643424Y232946D01*
X643510Y232944D01*
X643596Y232938D01*
X643681Y232928D01*
X643766Y232914D01*
X643850Y232897D01*
X643934Y232875D01*
X644016Y232850D01*
X644097Y232821D01*
X644177Y232788D01*
X644254Y232752D01*
X644331Y232712D01*
X644405Y232668D01*
X644477Y232622D01*
X644547Y232572D01*
X642924Y231074D02*
X642872Y231107D01*
X642822Y231144D01*
X642774Y231183D01*
X642728Y231225D01*
X642685Y231270D01*
X642645Y231317D01*
X642608Y231366D01*
X642574Y231418D01*
X642544Y231472D01*
X642516Y231528D01*
X642492Y231585D01*
X642472Y231643D01*
X642455Y231703D01*
X642442Y231763D01*
X642433Y231824D01*
X642427Y231886D01*
X642425Y231948D01*
X644297Y230326D02*
X644349Y230293D01*
X644399Y230256D01*
X644447Y230217D01*
X644493Y230175D01*
X644536Y230130D01*
X644576Y230083D01*
X644613Y230034D01*
X644647Y229982D01*
X644677Y229928D01*
X644705Y229872D01*
X644729Y229815D01*
X644749Y229757D01*
X644766Y229697D01*
X644779Y229637D01*
X644788Y229576D01*
X644794Y229514D01*
X644796Y229452D01*
X644297Y230326D02*
X642924Y231074D01*
X646502Y232946D02*
X647500Y228454D01*
X648498Y231449D01*
X649497Y228454D01*
X650495Y232946D01*
X652698Y232946D02*
X652698Y228454D01*
X652199Y228454D02*
X653197Y228454D01*
X653197Y232946D02*
X652199Y232946D01*
X655998Y232946D02*
X655998Y228454D01*
X654751Y232946D02*
X657246Y232946D01*
X659934Y228454D02*
X660932Y228454D01*
X659934Y228454D02*
X659874Y228456D01*
X659814Y228461D01*
X659754Y228470D01*
X659695Y228483D01*
X659637Y228499D01*
X659580Y228519D01*
X659524Y228542D01*
X659470Y228568D01*
X659418Y228598D01*
X659367Y228631D01*
X659319Y228666D01*
X659272Y228705D01*
X659228Y228746D01*
X659187Y228790D01*
X659148Y228837D01*
X659113Y228885D01*
X659080Y228936D01*
X659050Y228988D01*
X659024Y229042D01*
X659001Y229098D01*
X658981Y229155D01*
X658965Y229213D01*
X658952Y229272D01*
X658943Y229332D01*
X658938Y229392D01*
X658936Y229452D01*
X658936Y231948D01*
X658938Y232011D01*
X658944Y232073D01*
X658954Y232135D01*
X658967Y232196D01*
X658985Y232256D01*
X659006Y232315D01*
X659031Y232373D01*
X659059Y232429D01*
X659091Y232483D01*
X659127Y232535D01*
X659165Y232584D01*
X659206Y232631D01*
X659251Y232675D01*
X659298Y232717D01*
X659347Y232755D01*
X659399Y232791D01*
X659453Y232823D01*
X659509Y232851D01*
X659567Y232876D01*
X659626Y232897D01*
X659686Y232915D01*
X659747Y232928D01*
X659809Y232938D01*
X659871Y232944D01*
X659934Y232946D01*
X660932Y232946D01*
X662850Y232946D02*
X662850Y228454D01*
X662850Y230950D02*
X665346Y230950D01*
X665346Y232946D02*
X665346Y228454D01*
D12*
X305700Y101700D02*
X294300Y101700D01*
X294300Y118300D02*
X305700Y118300D01*
D19*
X303733Y97946D02*
X303733Y93454D01*
X303733Y97946D02*
X304981Y97946D01*
X305050Y97944D01*
X305118Y97938D01*
X305186Y97929D01*
X305254Y97916D01*
X305321Y97899D01*
X305386Y97878D01*
X305451Y97854D01*
X305514Y97827D01*
X305575Y97796D01*
X305635Y97761D01*
X305692Y97724D01*
X305748Y97683D01*
X305801Y97639D01*
X305851Y97593D01*
X305899Y97543D01*
X305944Y97491D01*
X305987Y97437D01*
X306026Y97381D01*
X306062Y97322D01*
X306095Y97262D01*
X306124Y97199D01*
X306150Y97136D01*
X306172Y97071D01*
X306191Y97004D01*
X306206Y96937D01*
X306217Y96869D01*
X306225Y96801D01*
X306229Y96732D01*
X306229Y96664D01*
X306225Y96595D01*
X306217Y96527D01*
X306206Y96459D01*
X306191Y96392D01*
X306172Y96325D01*
X306150Y96260D01*
X306124Y96197D01*
X306095Y96134D01*
X306062Y96074D01*
X306026Y96015D01*
X305987Y95959D01*
X305944Y95905D01*
X305899Y95853D01*
X305851Y95803D01*
X305801Y95757D01*
X305748Y95713D01*
X305692Y95672D01*
X305635Y95635D01*
X305575Y95600D01*
X305514Y95569D01*
X305451Y95542D01*
X305386Y95518D01*
X305321Y95497D01*
X305254Y95480D01*
X305186Y95467D01*
X305118Y95458D01*
X305050Y95452D01*
X304981Y95450D01*
X303733Y95450D01*
X305231Y95450D02*
X306229Y93454D01*
X308000Y92955D02*
X309997Y92955D01*
X311983Y93454D02*
X311983Y97946D01*
X313231Y97946D01*
X313300Y97944D01*
X313368Y97938D01*
X313436Y97929D01*
X313504Y97916D01*
X313571Y97899D01*
X313636Y97878D01*
X313701Y97854D01*
X313764Y97827D01*
X313825Y97796D01*
X313885Y97761D01*
X313942Y97724D01*
X313998Y97683D01*
X314051Y97639D01*
X314101Y97593D01*
X314149Y97543D01*
X314194Y97491D01*
X314237Y97437D01*
X314276Y97381D01*
X314312Y97322D01*
X314345Y97262D01*
X314374Y97199D01*
X314400Y97136D01*
X314422Y97071D01*
X314441Y97004D01*
X314456Y96937D01*
X314467Y96869D01*
X314475Y96801D01*
X314479Y96732D01*
X314479Y96664D01*
X314475Y96595D01*
X314467Y96527D01*
X314456Y96459D01*
X314441Y96392D01*
X314422Y96325D01*
X314400Y96260D01*
X314374Y96197D01*
X314345Y96134D01*
X314312Y96074D01*
X314276Y96015D01*
X314237Y95959D01*
X314194Y95905D01*
X314149Y95853D01*
X314101Y95803D01*
X314051Y95757D01*
X313998Y95713D01*
X313942Y95672D01*
X313885Y95635D01*
X313825Y95600D01*
X313764Y95569D01*
X313701Y95542D01*
X313636Y95518D01*
X313571Y95497D01*
X313504Y95480D01*
X313436Y95467D01*
X313368Y95458D01*
X313300Y95452D01*
X313231Y95450D01*
X311983Y95450D01*
X313481Y95450D02*
X314479Y93454D01*
X317798Y93454D02*
X317861Y93456D01*
X317923Y93462D01*
X317985Y93472D01*
X318046Y93485D01*
X318106Y93503D01*
X318165Y93524D01*
X318223Y93549D01*
X318279Y93577D01*
X318333Y93609D01*
X318385Y93645D01*
X318434Y93683D01*
X318481Y93725D01*
X318526Y93769D01*
X318567Y93816D01*
X318605Y93865D01*
X318641Y93917D01*
X318673Y93971D01*
X318701Y94027D01*
X318726Y94085D01*
X318747Y94144D01*
X318765Y94204D01*
X318778Y94265D01*
X318788Y94327D01*
X318794Y94389D01*
X318796Y94452D01*
X317798Y93454D02*
X317710Y93456D01*
X317623Y93461D01*
X317536Y93470D01*
X317449Y93483D01*
X317363Y93499D01*
X317278Y93519D01*
X317193Y93543D01*
X317110Y93569D01*
X317027Y93600D01*
X316947Y93634D01*
X316867Y93671D01*
X316789Y93711D01*
X316713Y93754D01*
X316639Y93801D01*
X316567Y93851D01*
X316497Y93903D01*
X316429Y93959D01*
X316363Y94017D01*
X316300Y94078D01*
X316426Y96948D02*
X316428Y97008D01*
X316433Y97068D01*
X316442Y97128D01*
X316455Y97187D01*
X316471Y97245D01*
X316491Y97302D01*
X316514Y97358D01*
X316540Y97412D01*
X316570Y97464D01*
X316603Y97515D01*
X316638Y97563D01*
X316677Y97610D01*
X316718Y97654D01*
X316762Y97695D01*
X316809Y97734D01*
X316857Y97769D01*
X316908Y97802D01*
X316960Y97832D01*
X317014Y97858D01*
X317070Y97881D01*
X317127Y97901D01*
X317185Y97917D01*
X317244Y97930D01*
X317304Y97939D01*
X317364Y97944D01*
X317424Y97946D01*
X317510Y97944D01*
X317596Y97938D01*
X317681Y97928D01*
X317766Y97914D01*
X317850Y97897D01*
X317934Y97875D01*
X318016Y97850D01*
X318097Y97821D01*
X318177Y97788D01*
X318254Y97752D01*
X318331Y97712D01*
X318405Y97668D01*
X318477Y97622D01*
X318547Y97572D01*
X316924Y96074D02*
X316872Y96107D01*
X316822Y96144D01*
X316774Y96183D01*
X316728Y96225D01*
X316685Y96270D01*
X316645Y96317D01*
X316608Y96366D01*
X316574Y96418D01*
X316544Y96472D01*
X316516Y96528D01*
X316492Y96585D01*
X316472Y96643D01*
X316455Y96703D01*
X316442Y96763D01*
X316433Y96824D01*
X316427Y96886D01*
X316425Y96948D01*
X318297Y95326D02*
X318349Y95293D01*
X318399Y95256D01*
X318447Y95217D01*
X318493Y95175D01*
X318536Y95130D01*
X318576Y95083D01*
X318613Y95034D01*
X318647Y94982D01*
X318677Y94928D01*
X318705Y94872D01*
X318729Y94815D01*
X318749Y94757D01*
X318766Y94697D01*
X318779Y94637D01*
X318788Y94576D01*
X318794Y94514D01*
X318796Y94452D01*
X318297Y95326D02*
X316924Y96074D01*
X321598Y97946D02*
X321598Y93454D01*
X320350Y97946D02*
X322846Y97946D01*
D12*
X305700Y88300D02*
X294300Y88300D01*
X294300Y71700D02*
X305700Y71700D01*
D19*
X277154Y92054D02*
X277154Y96546D01*
X278402Y96546D01*
X278471Y96544D01*
X278539Y96538D01*
X278607Y96529D01*
X278675Y96516D01*
X278742Y96499D01*
X278807Y96478D01*
X278872Y96454D01*
X278935Y96427D01*
X278996Y96396D01*
X279056Y96361D01*
X279113Y96324D01*
X279169Y96283D01*
X279222Y96239D01*
X279272Y96193D01*
X279320Y96143D01*
X279365Y96091D01*
X279408Y96037D01*
X279447Y95981D01*
X279483Y95922D01*
X279516Y95862D01*
X279545Y95799D01*
X279571Y95736D01*
X279593Y95671D01*
X279612Y95604D01*
X279627Y95537D01*
X279638Y95469D01*
X279646Y95401D01*
X279650Y95332D01*
X279650Y95264D01*
X279646Y95195D01*
X279638Y95127D01*
X279627Y95059D01*
X279612Y94992D01*
X279593Y94925D01*
X279571Y94860D01*
X279545Y94797D01*
X279516Y94734D01*
X279483Y94674D01*
X279447Y94615D01*
X279408Y94559D01*
X279365Y94505D01*
X279320Y94453D01*
X279272Y94403D01*
X279222Y94357D01*
X279169Y94313D01*
X279113Y94272D01*
X279056Y94235D01*
X278996Y94200D01*
X278935Y94169D01*
X278872Y94142D01*
X278807Y94118D01*
X278742Y94097D01*
X278675Y94080D01*
X278607Y94067D01*
X278539Y94058D01*
X278471Y94052D01*
X278402Y94050D01*
X277154Y94050D01*
X278651Y94050D02*
X279650Y92054D01*
X281421Y91555D02*
X283417Y91555D01*
X285447Y92054D02*
X285447Y96546D01*
X286694Y96546D01*
X286763Y96544D01*
X286831Y96538D01*
X286899Y96529D01*
X286967Y96516D01*
X287034Y96499D01*
X287099Y96478D01*
X287164Y96454D01*
X287227Y96427D01*
X287288Y96396D01*
X287348Y96361D01*
X287405Y96324D01*
X287461Y96283D01*
X287514Y96239D01*
X287564Y96193D01*
X287612Y96143D01*
X287657Y96091D01*
X287700Y96037D01*
X287739Y95981D01*
X287775Y95922D01*
X287808Y95862D01*
X287837Y95799D01*
X287863Y95736D01*
X287885Y95671D01*
X287904Y95604D01*
X287919Y95537D01*
X287930Y95469D01*
X287938Y95401D01*
X287942Y95332D01*
X287942Y95264D01*
X287938Y95195D01*
X287930Y95127D01*
X287919Y95059D01*
X287904Y94992D01*
X287885Y94925D01*
X287863Y94860D01*
X287837Y94797D01*
X287808Y94734D01*
X287775Y94674D01*
X287739Y94615D01*
X287700Y94559D01*
X287657Y94505D01*
X287612Y94453D01*
X287564Y94403D01*
X287514Y94357D01*
X287461Y94313D01*
X287405Y94272D01*
X287348Y94235D01*
X287288Y94200D01*
X287227Y94169D01*
X287164Y94142D01*
X287099Y94118D01*
X287034Y94097D01*
X286967Y94080D01*
X286899Y94067D01*
X286831Y94058D01*
X286763Y94052D01*
X286694Y94050D01*
X285447Y94050D01*
X289871Y93302D02*
X289871Y96546D01*
X289871Y93302D02*
X289873Y93233D01*
X289879Y93165D01*
X289888Y93097D01*
X289901Y93029D01*
X289918Y92962D01*
X289939Y92897D01*
X289963Y92832D01*
X289990Y92769D01*
X290021Y92708D01*
X290056Y92648D01*
X290093Y92591D01*
X290134Y92535D01*
X290178Y92482D01*
X290224Y92432D01*
X290274Y92384D01*
X290326Y92339D01*
X290380Y92296D01*
X290436Y92257D01*
X290495Y92221D01*
X290555Y92188D01*
X290618Y92159D01*
X290681Y92133D01*
X290746Y92111D01*
X290813Y92092D01*
X290880Y92077D01*
X290948Y92066D01*
X291016Y92058D01*
X291085Y92054D01*
X291153Y92054D01*
X291222Y92058D01*
X291290Y92066D01*
X291358Y92077D01*
X291425Y92092D01*
X291492Y92111D01*
X291557Y92133D01*
X291620Y92159D01*
X291683Y92188D01*
X291743Y92221D01*
X291802Y92257D01*
X291858Y92296D01*
X291912Y92339D01*
X291964Y92384D01*
X292014Y92432D01*
X292060Y92482D01*
X292104Y92535D01*
X292145Y92591D01*
X292182Y92648D01*
X292217Y92708D01*
X292248Y92769D01*
X292275Y92832D01*
X292299Y92897D01*
X292320Y92962D01*
X292337Y93029D01*
X292350Y93097D01*
X292359Y93165D01*
X292365Y93233D01*
X292367Y93302D01*
X292367Y96546D01*
X294681Y96546D02*
X294681Y92054D01*
X296678Y92054D01*
X298581Y92054D02*
X298581Y96546D01*
X298581Y92054D02*
X300578Y92054D01*
X302321Y95548D02*
X303569Y96546D01*
X303569Y92054D01*
X304816Y92054D02*
X302321Y92054D01*
D16*
X640000Y67500D02*
X640000Y47500D01*
X690000Y47500D02*
X690000Y67500D01*
D20*
X705000Y75500D03*
D13*
X705002Y75438D01*
X705008Y75377D01*
X705017Y75316D01*
X705030Y75256D01*
X705047Y75197D01*
X705068Y75139D01*
X705092Y75082D01*
X705119Y75027D01*
X705150Y74974D01*
X705184Y74922D01*
X705221Y74873D01*
X705261Y74826D01*
X705304Y74782D01*
X705349Y74741D01*
X705397Y74702D01*
X705448Y74666D01*
X705500Y74634D01*
X705554Y74605D01*
X705610Y74579D01*
X705668Y74557D01*
X705726Y74538D01*
X705786Y74523D01*
X705847Y74512D01*
X705908Y74504D01*
X705969Y74500D01*
X706031Y74500D01*
X706092Y74504D01*
X706153Y74512D01*
X706214Y74523D01*
X706274Y74538D01*
X706332Y74557D01*
X706390Y74579D01*
X706446Y74605D01*
X706500Y74634D01*
X706552Y74666D01*
X706603Y74702D01*
X706651Y74741D01*
X706696Y74782D01*
X706739Y74826D01*
X706779Y74873D01*
X706816Y74922D01*
X706850Y74974D01*
X706881Y75027D01*
X706908Y75082D01*
X706932Y75139D01*
X706953Y75197D01*
X706970Y75256D01*
X706983Y75316D01*
X706992Y75377D01*
X706998Y75438D01*
X707000Y75500D01*
D20*
X707000Y75500D03*
D13*
X706998Y75562D01*
X706992Y75623D01*
X706983Y75684D01*
X706970Y75744D01*
X706953Y75803D01*
X706932Y75861D01*
X706908Y75918D01*
X706881Y75973D01*
X706850Y76026D01*
X706816Y76078D01*
X706779Y76127D01*
X706739Y76174D01*
X706696Y76218D01*
X706651Y76259D01*
X706603Y76298D01*
X706552Y76334D01*
X706500Y76366D01*
X706446Y76395D01*
X706390Y76421D01*
X706332Y76443D01*
X706274Y76462D01*
X706214Y76477D01*
X706153Y76488D01*
X706092Y76496D01*
X706031Y76500D01*
X705969Y76500D01*
X705908Y76496D01*
X705847Y76488D01*
X705786Y76477D01*
X705726Y76462D01*
X705668Y76443D01*
X705610Y76421D01*
X705554Y76395D01*
X705500Y76366D01*
X705448Y76334D01*
X705397Y76298D01*
X705349Y76259D01*
X705304Y76218D01*
X705261Y76174D01*
X705221Y76127D01*
X705184Y76078D01*
X705150Y76026D01*
X705119Y75973D01*
X705092Y75918D01*
X705068Y75861D01*
X705047Y75803D01*
X705030Y75744D01*
X705017Y75684D01*
X705008Y75623D01*
X705002Y75562D01*
X705000Y75500D01*
D14*
X664065Y63342D02*
X664065Y54254D01*
X664063Y54155D01*
X664057Y54055D01*
X664048Y53956D01*
X664035Y53858D01*
X664018Y53760D01*
X663997Y53662D01*
X663972Y53566D01*
X663944Y53471D01*
X663912Y53377D01*
X663877Y53284D01*
X663838Y53192D01*
X663795Y53102D01*
X663750Y53014D01*
X663700Y52927D01*
X663648Y52843D01*
X663592Y52760D01*
X663534Y52680D01*
X663472Y52602D01*
X663407Y52527D01*
X663339Y52454D01*
X663269Y52384D01*
X663196Y52316D01*
X663121Y52251D01*
X663043Y52189D01*
X662963Y52131D01*
X662880Y52075D01*
X662796Y52023D01*
X662709Y51973D01*
X662621Y51928D01*
X662531Y51885D01*
X662439Y51846D01*
X662346Y51811D01*
X662252Y51779D01*
X662157Y51751D01*
X662061Y51726D01*
X661963Y51705D01*
X661865Y51688D01*
X661767Y51675D01*
X661668Y51666D01*
X661568Y51660D01*
X661469Y51658D01*
X660170Y51658D01*
X669338Y60746D02*
X672584Y63342D01*
X672584Y51658D01*
X669338Y51658D02*
X675830Y51658D01*
M02*
