G04 EAGLE Gerber X2 export*
%TF.Part,Single*%
%TF.FileFunction,Soldermask,Bot,1*%
%TF.FilePolarity,Negative*%
%TF.GenerationSoftware,Autodesk,EAGLE,9.1.0*%
%TF.CreationDate,2020-06-23T23:40:25Z*%
G75*
%MOMM*%
%FSLAX34Y34*%
%LPD*%
%AMOC8*
5,1,8,0,0,1.08239X$1,22.5*%
G01*
%ADD10R,1.603200X0.653200*%
%ADD11C,1.727200*%
%ADD12C,1.203200*%
%ADD13C,4.203200*%


D10*
X347000Y209750D03*
X347000Y203250D03*
X347000Y196750D03*
X347000Y190250D03*
X303000Y190250D03*
X303000Y196750D03*
X303000Y203250D03*
X303000Y209750D03*
X522000Y209750D03*
X522000Y203250D03*
X522000Y196750D03*
X522000Y190250D03*
X478000Y190250D03*
X478000Y196750D03*
X478000Y203250D03*
X478000Y209750D03*
D11*
X248620Y119600D02*
X233380Y119600D01*
X233380Y145000D02*
X248620Y145000D01*
X248620Y170400D02*
X233380Y170400D01*
D12*
X265000Y260000D03*
X325000Y260000D03*
X677500Y245000D03*
X607500Y145000D03*
X241250Y190000D03*
X345000Y260000D03*
X740000Y122500D03*
X740000Y175000D03*
X717500Y50000D03*
D13*
X337500Y145000D03*
D12*
X517500Y50000D03*
X555000Y50000D03*
X607500Y245000D03*
X517500Y25000D03*
X245000Y260000D03*
X490000Y40000D03*
X225000Y260000D03*
X740000Y192500D03*
X677500Y262500D03*
X470000Y40000D03*
X740000Y157500D03*
X677500Y145000D03*
X607500Y205000D03*
X740000Y140000D03*
X555000Y25000D03*
X140000Y200000D03*
X140000Y160000D03*
X265000Y50000D03*
X90000Y145000D03*
X90000Y200000D03*
D13*
X487500Y145000D03*
M02*
