G04 EAGLE Gerber X2 export*
%TF.Part,Single*%
%TF.FileFunction,Copper,L1,Top,Mixed*%
%TF.FilePolarity,Positive*%
%TF.GenerationSoftware,Autodesk,EAGLE,9.1.0*%
%TF.CreationDate,2020-08-17T16:37:06Z*%
G75*
%MOMM*%
%FSLAX34Y34*%
%LPD*%
%AMOC8*
5,1,8,0,0,1.08239X$1,22.5*%
G01*
%ADD10R,1.050000X0.600000*%
%ADD11R,1.600000X0.800000*%
%ADD12R,3.000000X2.100000*%
%ADD13C,1.524000*%
%ADD14R,1.160000X1.680000*%
%ADD15C,1.000000*%
%ADD16C,0.756400*%
%ADD17C,0.152400*%
%ADD18C,4.000000*%
%ADD19C,2.000000*%
%ADD20C,0.800000*%
%ADD21C,1.500000*%
%ADD22C,0.500000*%

G36*
X651251Y37017D02*
X651251Y37017D01*
X651437Y37029D01*
X651473Y37037D01*
X651510Y37041D01*
X651690Y37090D01*
X651871Y37134D01*
X651905Y37149D01*
X651941Y37159D01*
X652109Y37240D01*
X652279Y37316D01*
X652310Y37336D01*
X652343Y37352D01*
X652494Y37462D01*
X652649Y37567D01*
X652686Y37601D01*
X652705Y37614D01*
X652731Y37641D01*
X652832Y37733D01*
X682267Y67168D01*
X682387Y67311D01*
X682511Y67451D01*
X682530Y67482D01*
X682554Y67511D01*
X682646Y67673D01*
X682743Y67832D01*
X682756Y67867D01*
X682774Y67899D01*
X682836Y68075D01*
X682903Y68249D01*
X682910Y68285D01*
X682923Y68320D01*
X682952Y68505D01*
X682987Y68688D01*
X682990Y68738D01*
X682993Y68761D01*
X682992Y68798D01*
X682999Y68935D01*
X682999Y121393D01*
X684065Y123966D01*
X692284Y132185D01*
X694857Y133251D01*
X697000Y133251D01*
X697050Y133255D01*
X697100Y133253D01*
X697272Y133275D01*
X697445Y133291D01*
X697493Y133304D01*
X697543Y133310D01*
X697708Y133363D01*
X697876Y133409D01*
X697921Y133431D01*
X697968Y133446D01*
X698122Y133527D01*
X698278Y133602D01*
X698319Y133632D01*
X698363Y133655D01*
X698500Y133762D01*
X698640Y133864D01*
X698675Y133900D01*
X698714Y133931D01*
X698830Y134061D01*
X698950Y134186D01*
X698977Y134228D01*
X699011Y134266D01*
X699101Y134414D01*
X699197Y134558D01*
X699217Y134604D01*
X699243Y134647D01*
X699305Y134809D01*
X699374Y134969D01*
X699385Y135017D01*
X699403Y135064D01*
X699436Y135235D01*
X699475Y135404D01*
X699478Y135454D01*
X699487Y135503D01*
X699499Y135750D01*
X699499Y144076D01*
X699544Y144221D01*
X699601Y144385D01*
X699609Y144435D01*
X699624Y144483D01*
X699645Y144655D01*
X699672Y144826D01*
X699671Y144876D01*
X699677Y144926D01*
X699667Y145099D01*
X699663Y145273D01*
X699653Y145322D01*
X699650Y145372D01*
X699609Y145541D01*
X699575Y145711D01*
X699556Y145757D01*
X699545Y145806D01*
X699499Y145908D01*
X699499Y156400D01*
X699507Y156414D01*
X699597Y156558D01*
X699617Y156608D01*
X699644Y156654D01*
X699700Y156815D01*
X699763Y156973D01*
X699774Y157025D01*
X699792Y157076D01*
X699819Y157244D01*
X699853Y157410D01*
X699854Y157464D01*
X699863Y157517D01*
X699859Y157687D01*
X699863Y157857D01*
X699855Y157910D01*
X699854Y157963D01*
X699820Y158130D01*
X699794Y158298D01*
X699776Y158349D01*
X699765Y158401D01*
X699703Y158559D01*
X699647Y158720D01*
X699644Y158725D01*
X699459Y159416D01*
X699459Y161251D01*
X710000Y161251D01*
X720541Y161251D01*
X720541Y160750D01*
X720545Y160700D01*
X720543Y160650D01*
X720565Y160478D01*
X720581Y160305D01*
X720594Y160257D01*
X720600Y160207D01*
X720653Y160042D01*
X720699Y159874D01*
X720721Y159829D01*
X720736Y159782D01*
X720817Y159628D01*
X720892Y159472D01*
X720922Y159431D01*
X720945Y159387D01*
X721053Y159250D01*
X721154Y159110D01*
X721190Y159075D01*
X721221Y159036D01*
X721351Y158920D01*
X721476Y158800D01*
X721518Y158773D01*
X721556Y158739D01*
X721704Y158649D01*
X721848Y158553D01*
X721894Y158533D01*
X721937Y158507D01*
X722099Y158445D01*
X722259Y158376D01*
X722307Y158365D01*
X722354Y158347D01*
X722525Y158314D01*
X722694Y158275D01*
X722744Y158272D01*
X722793Y158263D01*
X723040Y158251D01*
X726608Y158251D01*
X726794Y158267D01*
X726980Y158279D01*
X727016Y158287D01*
X727053Y158291D01*
X727233Y158340D01*
X727414Y158384D01*
X727448Y158399D01*
X727484Y158409D01*
X727652Y158490D01*
X727822Y158566D01*
X727853Y158586D01*
X727886Y158602D01*
X728038Y158712D01*
X728192Y158817D01*
X728229Y158850D01*
X728248Y158864D01*
X728274Y158891D01*
X728375Y158983D01*
X730751Y161359D01*
X733508Y162501D01*
X736492Y162501D01*
X737240Y162191D01*
X737376Y162148D01*
X737510Y162097D01*
X737589Y162082D01*
X737666Y162058D01*
X737808Y162040D01*
X737949Y162013D01*
X738072Y162007D01*
X738109Y162002D01*
X738136Y162004D01*
X738196Y162001D01*
X751065Y162001D01*
X751251Y162017D01*
X751437Y162029D01*
X751473Y162037D01*
X751510Y162041D01*
X751690Y162090D01*
X751871Y162134D01*
X751905Y162149D01*
X751941Y162159D01*
X752109Y162240D01*
X752279Y162316D01*
X752310Y162336D01*
X752343Y162352D01*
X752494Y162462D01*
X752649Y162567D01*
X752686Y162601D01*
X752705Y162614D01*
X752731Y162641D01*
X752832Y162733D01*
X757267Y167168D01*
X757387Y167311D01*
X757511Y167451D01*
X757530Y167482D01*
X757554Y167511D01*
X757646Y167673D01*
X757743Y167832D01*
X757756Y167867D01*
X757774Y167899D01*
X757836Y168075D01*
X757903Y168249D01*
X757910Y168285D01*
X757923Y168320D01*
X757952Y168505D01*
X757987Y168688D01*
X757990Y168738D01*
X757993Y168761D01*
X757992Y168798D01*
X757999Y168935D01*
X757999Y186250D01*
X757995Y186300D01*
X757997Y186350D01*
X757975Y186522D01*
X757959Y186695D01*
X757946Y186743D01*
X757940Y186793D01*
X757887Y186958D01*
X757841Y187126D01*
X757819Y187171D01*
X757804Y187218D01*
X757723Y187372D01*
X757648Y187528D01*
X757618Y187569D01*
X757595Y187613D01*
X757488Y187750D01*
X757386Y187890D01*
X757350Y187925D01*
X757319Y187964D01*
X757189Y188080D01*
X757064Y188200D01*
X757022Y188227D01*
X756984Y188261D01*
X756836Y188351D01*
X756692Y188447D01*
X756646Y188467D01*
X756603Y188493D01*
X756441Y188555D01*
X756281Y188624D01*
X756233Y188635D01*
X756186Y188653D01*
X756015Y188686D01*
X755846Y188725D01*
X755796Y188728D01*
X755747Y188737D01*
X755500Y188749D01*
X722964Y188749D01*
X721499Y190214D01*
X721499Y213286D01*
X722964Y214751D01*
X755500Y214751D01*
X755550Y214755D01*
X755600Y214753D01*
X755772Y214775D01*
X755945Y214791D01*
X755993Y214804D01*
X756043Y214810D01*
X756208Y214863D01*
X756376Y214909D01*
X756421Y214931D01*
X756468Y214946D01*
X756622Y215027D01*
X756778Y215102D01*
X756819Y215132D01*
X756863Y215155D01*
X757000Y215262D01*
X757140Y215364D01*
X757175Y215400D01*
X757214Y215431D01*
X757330Y215561D01*
X757450Y215686D01*
X757477Y215728D01*
X757511Y215766D01*
X757601Y215914D01*
X757697Y216058D01*
X757717Y216104D01*
X757743Y216147D01*
X757805Y216309D01*
X757874Y216469D01*
X757885Y216517D01*
X757903Y216564D01*
X757936Y216735D01*
X757975Y216904D01*
X757978Y216954D01*
X757987Y217003D01*
X757999Y217250D01*
X757999Y226065D01*
X757983Y226251D01*
X757971Y226437D01*
X757963Y226473D01*
X757959Y226510D01*
X757910Y226690D01*
X757866Y226871D01*
X757851Y226905D01*
X757841Y226941D01*
X757760Y227109D01*
X757684Y227279D01*
X757664Y227310D01*
X757648Y227343D01*
X757538Y227494D01*
X757433Y227649D01*
X757399Y227686D01*
X757386Y227705D01*
X757359Y227731D01*
X757267Y227832D01*
X717832Y267267D01*
X717689Y267387D01*
X717549Y267511D01*
X717518Y267530D01*
X717489Y267554D01*
X717327Y267646D01*
X717168Y267743D01*
X717133Y267756D01*
X717101Y267774D01*
X716925Y267836D01*
X716751Y267903D01*
X716715Y267910D01*
X716680Y267923D01*
X716495Y267952D01*
X716312Y267987D01*
X716262Y267990D01*
X716239Y267993D01*
X716202Y267992D01*
X716065Y267999D01*
X652935Y267999D01*
X652799Y267987D01*
X652662Y267984D01*
X652577Y267967D01*
X652490Y267959D01*
X652358Y267923D01*
X652224Y267896D01*
X652143Y267864D01*
X652059Y267841D01*
X651936Y267782D01*
X651809Y267731D01*
X651735Y267685D01*
X651657Y267648D01*
X651546Y267567D01*
X651430Y267495D01*
X651365Y267437D01*
X651295Y267386D01*
X651200Y267287D01*
X651099Y267195D01*
X651046Y267126D01*
X650985Y267064D01*
X650910Y266950D01*
X650826Y266841D01*
X650786Y266764D01*
X650738Y266692D01*
X650684Y266566D01*
X650621Y266444D01*
X650595Y266361D01*
X650561Y266281D01*
X650530Y266148D01*
X650490Y266017D01*
X650480Y265931D01*
X650460Y265846D01*
X650453Y265710D01*
X650437Y265574D01*
X650442Y265487D01*
X650438Y265400D01*
X650455Y265265D01*
X650464Y265128D01*
X650484Y265043D01*
X650495Y264957D01*
X650537Y264827D01*
X650569Y264694D01*
X650605Y264615D01*
X650631Y264532D01*
X650695Y264411D01*
X650751Y264286D01*
X650799Y264214D01*
X650840Y264137D01*
X650925Y264029D01*
X651002Y263916D01*
X651093Y263815D01*
X651116Y263786D01*
X651134Y263770D01*
X651168Y263733D01*
X653786Y261114D01*
X696100Y218801D01*
X697166Y216228D01*
X697166Y186560D01*
X697182Y186374D01*
X697194Y186188D01*
X697202Y186152D01*
X697206Y186115D01*
X697255Y185935D01*
X697299Y185754D01*
X697314Y185720D01*
X697324Y185684D01*
X697405Y185516D01*
X697481Y185346D01*
X697501Y185315D01*
X697517Y185282D01*
X697627Y185131D01*
X697732Y184976D01*
X697766Y184939D01*
X697779Y184920D01*
X697806Y184894D01*
X697898Y184793D01*
X698708Y183983D01*
X698851Y183863D01*
X698991Y183739D01*
X699022Y183720D01*
X699051Y183696D01*
X699213Y183604D01*
X699372Y183507D01*
X699407Y183494D01*
X699439Y183476D01*
X699615Y183414D01*
X699789Y183347D01*
X699825Y183340D01*
X699860Y183327D01*
X700045Y183298D01*
X700228Y183263D01*
X700278Y183260D01*
X700301Y183257D01*
X700338Y183258D01*
X700475Y183251D01*
X711393Y183251D01*
X712140Y182941D01*
X712277Y182898D01*
X712411Y182847D01*
X712490Y182832D01*
X712567Y182808D01*
X712709Y182790D01*
X712850Y182763D01*
X712973Y182757D01*
X713010Y182752D01*
X713037Y182754D01*
X713097Y182751D01*
X719036Y182751D01*
X720501Y181286D01*
X720501Y171100D01*
X720493Y171086D01*
X720403Y170942D01*
X720383Y170892D01*
X720356Y170846D01*
X720300Y170685D01*
X720237Y170527D01*
X720226Y170475D01*
X720208Y170424D01*
X720181Y170256D01*
X720147Y170090D01*
X720146Y170036D01*
X720137Y169983D01*
X720141Y169813D01*
X720137Y169643D01*
X720145Y169590D01*
X720146Y169537D01*
X720180Y169370D01*
X720206Y169202D01*
X720224Y169151D01*
X720235Y169099D01*
X720297Y168941D01*
X720353Y168780D01*
X720356Y168775D01*
X720541Y168084D01*
X720541Y166249D01*
X710000Y166249D01*
X699459Y166249D01*
X699459Y166750D01*
X699455Y166800D01*
X699457Y166850D01*
X699435Y167022D01*
X699419Y167195D01*
X699406Y167243D01*
X699400Y167293D01*
X699347Y167458D01*
X699301Y167626D01*
X699279Y167671D01*
X699264Y167718D01*
X699183Y167872D01*
X699108Y168028D01*
X699078Y168069D01*
X699055Y168113D01*
X698947Y168250D01*
X698846Y168390D01*
X698810Y168425D01*
X698779Y168464D01*
X698649Y168580D01*
X698524Y168700D01*
X698482Y168727D01*
X698444Y168761D01*
X698296Y168851D01*
X698152Y168947D01*
X698106Y168967D01*
X698063Y168993D01*
X697901Y169055D01*
X697741Y169124D01*
X697693Y169135D01*
X697646Y169153D01*
X697475Y169186D01*
X697306Y169225D01*
X697256Y169228D01*
X697207Y169237D01*
X696960Y169249D01*
X695147Y169249D01*
X692574Y170315D01*
X684230Y178659D01*
X683164Y181232D01*
X683164Y210900D01*
X683148Y211086D01*
X683136Y211272D01*
X683128Y211308D01*
X683124Y211345D01*
X683075Y211525D01*
X683031Y211706D01*
X683016Y211740D01*
X683006Y211776D01*
X682925Y211944D01*
X682849Y212114D01*
X682829Y212145D01*
X682813Y212178D01*
X682703Y212329D01*
X682598Y212484D01*
X682564Y212521D01*
X682551Y212540D01*
X682524Y212566D01*
X682432Y212667D01*
X645332Y249767D01*
X645189Y249887D01*
X645049Y250011D01*
X645018Y250030D01*
X644989Y250054D01*
X644827Y250146D01*
X644668Y250243D01*
X644633Y250256D01*
X644601Y250274D01*
X644425Y250336D01*
X644251Y250403D01*
X644215Y250410D01*
X644180Y250423D01*
X643995Y250452D01*
X643812Y250487D01*
X643762Y250490D01*
X643739Y250493D01*
X643702Y250492D01*
X643565Y250499D01*
X279500Y250499D01*
X279450Y250495D01*
X279400Y250497D01*
X279228Y250475D01*
X279055Y250459D01*
X279007Y250446D01*
X278957Y250440D01*
X278792Y250387D01*
X278624Y250341D01*
X278579Y250319D01*
X278532Y250304D01*
X278378Y250223D01*
X278222Y250148D01*
X278181Y250118D01*
X278137Y250095D01*
X278000Y249988D01*
X277860Y249886D01*
X277825Y249850D01*
X277786Y249819D01*
X277670Y249689D01*
X277550Y249564D01*
X277523Y249522D01*
X277489Y249484D01*
X277399Y249336D01*
X277303Y249192D01*
X277283Y249146D01*
X277257Y249103D01*
X277195Y248941D01*
X277126Y248781D01*
X277115Y248733D01*
X277097Y248686D01*
X277064Y248515D01*
X277025Y248346D01*
X277022Y248296D01*
X277013Y248247D01*
X277001Y248000D01*
X277001Y213196D01*
X277014Y213054D01*
X277017Y212910D01*
X277033Y212832D01*
X277041Y212751D01*
X277079Y212613D01*
X277108Y212473D01*
X277149Y212357D01*
X277159Y212321D01*
X277171Y212296D01*
X277191Y212240D01*
X277501Y211492D01*
X277501Y208508D01*
X276359Y205751D01*
X274249Y203641D01*
X271492Y202499D01*
X268435Y202499D01*
X268299Y202487D01*
X268162Y202484D01*
X268077Y202467D01*
X267990Y202459D01*
X267858Y202423D01*
X267724Y202396D01*
X267643Y202364D01*
X267559Y202341D01*
X267436Y202282D01*
X267309Y202231D01*
X267235Y202185D01*
X267157Y202148D01*
X267046Y202067D01*
X266930Y201995D01*
X266865Y201937D01*
X266795Y201886D01*
X266700Y201787D01*
X266599Y201695D01*
X266545Y201626D01*
X266485Y201564D01*
X266410Y201450D01*
X266326Y201341D01*
X266286Y201264D01*
X266238Y201192D01*
X266184Y201066D01*
X266121Y200944D01*
X266096Y200861D01*
X266061Y200781D01*
X266030Y200648D01*
X265990Y200517D01*
X265980Y200431D01*
X265960Y200346D01*
X265953Y200210D01*
X265937Y200074D01*
X265942Y199987D01*
X265938Y199900D01*
X265955Y199765D01*
X265964Y199628D01*
X265984Y199543D01*
X265995Y199457D01*
X266037Y199327D01*
X266069Y199194D01*
X266105Y199115D01*
X266131Y199032D01*
X266195Y198911D01*
X266251Y198786D01*
X266299Y198714D01*
X266340Y198637D01*
X266425Y198529D01*
X266502Y198416D01*
X266594Y198315D01*
X266616Y198286D01*
X266634Y198270D01*
X266668Y198233D01*
X308614Y156286D01*
X310935Y153966D01*
X311588Y152389D01*
X311651Y152268D01*
X311706Y152142D01*
X311755Y152070D01*
X311795Y151993D01*
X311879Y151885D01*
X311955Y151772D01*
X312016Y151709D01*
X312069Y151641D01*
X312171Y151549D01*
X312267Y151451D01*
X312337Y151401D01*
X312402Y151343D01*
X312519Y151271D01*
X312630Y151191D01*
X312708Y151154D01*
X312782Y151108D01*
X312910Y151059D01*
X313034Y151000D01*
X313118Y150977D01*
X313198Y150946D01*
X313333Y150919D01*
X313465Y150884D01*
X313551Y150876D01*
X313637Y150860D01*
X313774Y150858D01*
X313910Y150846D01*
X313997Y150854D01*
X314083Y150853D01*
X314218Y150875D01*
X314355Y150888D01*
X314438Y150912D01*
X314524Y150926D01*
X314653Y150972D01*
X314785Y151009D01*
X314863Y151047D01*
X314945Y151076D01*
X315063Y151145D01*
X315186Y151204D01*
X315257Y151256D01*
X315332Y151299D01*
X315437Y151387D01*
X315547Y151468D01*
X315607Y151531D01*
X315673Y151587D01*
X315761Y151693D01*
X315855Y151792D01*
X315902Y151865D01*
X315958Y151932D01*
X316025Y152051D01*
X316100Y152165D01*
X316159Y152289D01*
X316177Y152321D01*
X316184Y152343D01*
X316206Y152389D01*
X318425Y157746D01*
X324754Y164075D01*
X333024Y167501D01*
X341976Y167501D01*
X350246Y164075D01*
X356575Y157746D01*
X360001Y149476D01*
X360001Y140524D01*
X356575Y132254D01*
X350246Y125925D01*
X348759Y125309D01*
X348600Y125226D01*
X348437Y125148D01*
X348402Y125122D01*
X348363Y125102D01*
X348221Y124991D01*
X348075Y124886D01*
X348045Y124854D01*
X348011Y124828D01*
X347890Y124693D01*
X347766Y124564D01*
X347741Y124527D01*
X347712Y124495D01*
X347618Y124342D01*
X347518Y124192D01*
X347501Y124152D01*
X347478Y124114D01*
X347413Y123947D01*
X347341Y123781D01*
X347332Y123739D01*
X347316Y123698D01*
X347281Y123521D01*
X347240Y123346D01*
X347238Y123303D01*
X347230Y123260D01*
X347227Y123080D01*
X347218Y122900D01*
X347224Y122857D01*
X347223Y122813D01*
X347252Y122636D01*
X347276Y122457D01*
X347289Y122416D01*
X347296Y122373D01*
X347357Y122203D01*
X347411Y122032D01*
X347432Y121993D01*
X347446Y121952D01*
X347536Y121796D01*
X347620Y121637D01*
X347647Y121603D01*
X347669Y121565D01*
X347785Y121427D01*
X347897Y121286D01*
X347929Y121257D01*
X347957Y121224D01*
X348096Y121109D01*
X348231Y120989D01*
X348268Y120967D01*
X348302Y120939D01*
X348459Y120851D01*
X348612Y120757D01*
X348653Y120742D01*
X348691Y120720D01*
X348861Y120661D01*
X349029Y120597D01*
X349072Y120589D01*
X349113Y120574D01*
X349291Y120547D01*
X349468Y120513D01*
X349528Y120510D01*
X349555Y120506D01*
X349592Y120507D01*
X349715Y120501D01*
X475285Y120501D01*
X475464Y120517D01*
X475644Y120527D01*
X475686Y120537D01*
X475730Y120541D01*
X475903Y120588D01*
X476078Y120630D01*
X476118Y120648D01*
X476160Y120659D01*
X476323Y120737D01*
X476488Y120809D01*
X476524Y120834D01*
X476563Y120852D01*
X476709Y120958D01*
X476858Y121058D01*
X476890Y121089D01*
X476925Y121114D01*
X477050Y121244D01*
X477179Y121370D01*
X477204Y121405D01*
X477234Y121436D01*
X477334Y121586D01*
X477439Y121733D01*
X477458Y121772D01*
X477482Y121808D01*
X477553Y121974D01*
X477630Y122137D01*
X477641Y122179D01*
X477659Y122219D01*
X477699Y122393D01*
X477746Y122568D01*
X477750Y122611D01*
X477760Y122654D01*
X477769Y122833D01*
X477784Y123013D01*
X477780Y123056D01*
X477782Y123100D01*
X477759Y123278D01*
X477742Y123458D01*
X477730Y123500D01*
X477724Y123543D01*
X477670Y123714D01*
X477621Y123888D01*
X477602Y123927D01*
X477589Y123968D01*
X477504Y124127D01*
X477426Y124289D01*
X477400Y124325D01*
X477380Y124363D01*
X477268Y124504D01*
X477162Y124650D01*
X477130Y124680D01*
X477103Y124714D01*
X476969Y124834D01*
X476838Y124958D01*
X476802Y124982D01*
X476769Y125011D01*
X476616Y125104D01*
X476465Y125203D01*
X476410Y125229D01*
X476388Y125243D01*
X476353Y125256D01*
X476241Y125309D01*
X474754Y125925D01*
X468425Y132254D01*
X464999Y140524D01*
X464999Y149476D01*
X468425Y157746D01*
X474754Y164075D01*
X483024Y167501D01*
X491976Y167501D01*
X500246Y164075D01*
X505588Y158733D01*
X505731Y158613D01*
X505871Y158489D01*
X505903Y158470D01*
X505931Y158446D01*
X506093Y158354D01*
X506252Y158257D01*
X506287Y158244D01*
X506319Y158226D01*
X506495Y158164D01*
X506669Y158097D01*
X506706Y158090D01*
X506741Y158077D01*
X506925Y158048D01*
X507108Y158013D01*
X507159Y158010D01*
X507182Y158007D01*
X507219Y158008D01*
X507355Y158001D01*
X536586Y158001D01*
X541364Y156022D01*
X543943Y153443D01*
X544048Y153355D01*
X544146Y153261D01*
X544219Y153212D01*
X544286Y153157D01*
X544404Y153089D01*
X544518Y153013D01*
X544598Y152979D01*
X544674Y152936D01*
X544803Y152890D01*
X544929Y152836D01*
X545013Y152817D01*
X545095Y152788D01*
X545231Y152766D01*
X545364Y152735D01*
X545450Y152731D01*
X545536Y152717D01*
X545673Y152720D01*
X545810Y152713D01*
X545896Y152724D01*
X545983Y152726D01*
X546117Y152753D01*
X546253Y152771D01*
X546336Y152797D01*
X546421Y152814D01*
X546548Y152865D01*
X546678Y152906D01*
X546755Y152947D01*
X546836Y152979D01*
X546952Y153051D01*
X547073Y153115D01*
X547141Y153169D01*
X547215Y153215D01*
X547317Y153307D01*
X547424Y153392D01*
X547482Y153457D01*
X547546Y153515D01*
X547630Y153623D01*
X547721Y153726D01*
X547766Y153800D01*
X547819Y153869D01*
X547882Y153991D01*
X547953Y154107D01*
X547984Y154189D01*
X548024Y154266D01*
X548064Y154397D01*
X548113Y154524D01*
X548130Y154610D01*
X548155Y154693D01*
X548171Y154828D01*
X548197Y154963D01*
X548204Y155100D01*
X548208Y155136D01*
X548207Y155160D01*
X548209Y155210D01*
X548209Y157834D01*
X548382Y158481D01*
X548717Y159060D01*
X549190Y159533D01*
X549769Y159868D01*
X550416Y160041D01*
X553501Y160041D01*
X553501Y154500D01*
X553505Y154450D01*
X553503Y154401D01*
X553525Y154229D01*
X553540Y154055D01*
X553554Y154007D01*
X553560Y153958D01*
X553613Y153792D01*
X553659Y153625D01*
X553681Y153580D01*
X553696Y153532D01*
X553777Y153379D01*
X553852Y153222D01*
X553882Y153181D01*
X553905Y153137D01*
X554012Y153001D01*
X554114Y152860D01*
X554115Y152860D01*
X554150Y152825D01*
X554181Y152786D01*
X554182Y152786D01*
X554312Y152670D01*
X554437Y152550D01*
X554478Y152522D01*
X554516Y152489D01*
X554664Y152399D01*
X554809Y152303D01*
X554855Y152283D01*
X554897Y152257D01*
X555060Y152195D01*
X555219Y152126D01*
X555267Y152115D01*
X555314Y152097D01*
X555485Y152064D01*
X555654Y152025D01*
X555704Y152022D01*
X555753Y152013D01*
X556000Y152001D01*
X563791Y152001D01*
X563791Y151166D01*
X563618Y150519D01*
X563283Y149940D01*
X562810Y149467D01*
X562228Y149131D01*
X562164Y149108D01*
X562090Y149090D01*
X561955Y149031D01*
X561817Y148980D01*
X561751Y148941D01*
X561680Y148911D01*
X561559Y148829D01*
X561432Y148754D01*
X561373Y148704D01*
X561310Y148661D01*
X561205Y148559D01*
X561093Y148463D01*
X561044Y148404D01*
X560989Y148350D01*
X560904Y148231D01*
X560811Y148117D01*
X560774Y148049D01*
X560729Y147987D01*
X560666Y147854D01*
X560595Y147726D01*
X560571Y147653D01*
X560538Y147583D01*
X560500Y147441D01*
X560453Y147302D01*
X560442Y147226D01*
X560422Y147152D01*
X560409Y147006D01*
X560388Y146860D01*
X560391Y146783D01*
X560384Y146707D01*
X560398Y146561D01*
X560403Y146414D01*
X560419Y146339D01*
X560426Y146262D01*
X560466Y146121D01*
X560497Y145977D01*
X560526Y145906D01*
X560547Y145832D01*
X560611Y145700D01*
X560667Y145564D01*
X560709Y145499D01*
X560743Y145430D01*
X560829Y145312D01*
X560908Y145188D01*
X560961Y145132D01*
X561006Y145070D01*
X561113Y144968D01*
X561213Y144861D01*
X561274Y144815D01*
X561330Y144762D01*
X561453Y144681D01*
X561570Y144593D01*
X561639Y144559D01*
X561703Y144517D01*
X561927Y144411D01*
X561948Y144402D01*
X564902Y141448D01*
X566501Y137589D01*
X566501Y118911D01*
X564902Y115052D01*
X550948Y101098D01*
X547089Y99499D01*
X313021Y99499D01*
X312835Y99483D01*
X312649Y99471D01*
X312613Y99463D01*
X312576Y99459D01*
X312396Y99410D01*
X312215Y99366D01*
X312181Y99351D01*
X312145Y99341D01*
X311977Y99260D01*
X311807Y99184D01*
X311776Y99164D01*
X311743Y99148D01*
X311676Y99099D01*
X297914Y99099D01*
X296449Y100564D01*
X296449Y102415D01*
X296433Y102601D01*
X296421Y102787D01*
X296413Y102823D01*
X296409Y102860D01*
X296360Y103041D01*
X296316Y103221D01*
X296301Y103255D01*
X296291Y103291D01*
X296210Y103459D01*
X296134Y103630D01*
X296114Y103660D01*
X296098Y103694D01*
X295988Y103845D01*
X295883Y103999D01*
X295858Y104027D01*
X294249Y107911D01*
X294249Y112089D01*
X295867Y115995D01*
X295961Y116100D01*
X295980Y116132D01*
X296004Y116160D01*
X296096Y116322D01*
X296193Y116482D01*
X296206Y116517D01*
X296224Y116549D01*
X296286Y116725D01*
X296353Y116899D01*
X296360Y116935D01*
X296373Y116970D01*
X296402Y117154D01*
X296437Y117338D01*
X296440Y117388D01*
X296443Y117411D01*
X296442Y117448D01*
X296449Y117585D01*
X296449Y119436D01*
X297267Y120254D01*
X297367Y120373D01*
X297404Y120412D01*
X297416Y120430D01*
X297511Y120537D01*
X297530Y120568D01*
X297554Y120597D01*
X297646Y120759D01*
X297743Y120918D01*
X297756Y120953D01*
X297774Y120985D01*
X297836Y121161D01*
X297903Y121335D01*
X297910Y121371D01*
X297923Y121406D01*
X297952Y121591D01*
X297987Y121774D01*
X297990Y121824D01*
X297993Y121847D01*
X297992Y121884D01*
X297999Y122021D01*
X297999Y146065D01*
X297983Y146251D01*
X297971Y146437D01*
X297963Y146473D01*
X297959Y146510D01*
X297910Y146690D01*
X297866Y146871D01*
X297851Y146905D01*
X297841Y146941D01*
X297760Y147109D01*
X297684Y147279D01*
X297664Y147310D01*
X297648Y147343D01*
X297538Y147494D01*
X297433Y147649D01*
X297399Y147686D01*
X297386Y147705D01*
X297359Y147731D01*
X297267Y147832D01*
X242832Y202267D01*
X242689Y202387D01*
X242549Y202511D01*
X242518Y202530D01*
X242489Y202554D01*
X242327Y202646D01*
X242168Y202743D01*
X242133Y202756D01*
X242101Y202774D01*
X241925Y202836D01*
X241751Y202903D01*
X241715Y202910D01*
X241680Y202923D01*
X241495Y202952D01*
X241312Y202987D01*
X241262Y202990D01*
X241239Y202993D01*
X241202Y202992D01*
X241065Y202999D01*
X208016Y202999D01*
X207923Y202991D01*
X207830Y202992D01*
X207701Y202971D01*
X207571Y202959D01*
X207481Y202935D01*
X207389Y202919D01*
X207266Y202875D01*
X207140Y202841D01*
X207056Y202800D01*
X206968Y202769D01*
X206855Y202704D01*
X206738Y202648D01*
X206662Y202593D01*
X206581Y202546D01*
X206481Y202462D01*
X206376Y202386D01*
X206311Y202318D01*
X206240Y202258D01*
X206157Y202157D01*
X206066Y202064D01*
X206015Y201986D01*
X205955Y201914D01*
X205891Y201800D01*
X205819Y201692D01*
X205782Y201606D01*
X205736Y201524D01*
X205694Y201401D01*
X205642Y201281D01*
X205621Y201190D01*
X205590Y201102D01*
X205570Y200973D01*
X205541Y200846D01*
X205536Y200753D01*
X205522Y200661D01*
X205525Y200530D01*
X205519Y200400D01*
X205531Y200308D01*
X205533Y200214D01*
X205560Y200086D01*
X205576Y199957D01*
X205605Y199868D01*
X205624Y199777D01*
X205707Y199544D01*
X207166Y196022D01*
X207166Y167978D01*
X205618Y164242D01*
X202758Y161382D01*
X199022Y159834D01*
X197705Y159834D01*
X197579Y159823D01*
X197453Y159822D01*
X197358Y159803D01*
X197260Y159794D01*
X197138Y159761D01*
X197015Y159737D01*
X196924Y159702D01*
X196829Y159676D01*
X196716Y159621D01*
X196598Y159576D01*
X196515Y159525D01*
X196427Y159483D01*
X196324Y159409D01*
X196217Y159343D01*
X196144Y159278D01*
X196065Y159221D01*
X195977Y159130D01*
X195883Y159046D01*
X195823Y158969D01*
X195755Y158899D01*
X195686Y158794D01*
X195608Y158694D01*
X195562Y158608D01*
X195508Y158527D01*
X195458Y158411D01*
X195399Y158299D01*
X195370Y158206D01*
X195331Y158116D01*
X195303Y157994D01*
X195265Y157873D01*
X195252Y157776D01*
X195230Y157681D01*
X195224Y157556D01*
X195208Y157430D01*
X195213Y157333D01*
X195208Y157235D01*
X195224Y157110D01*
X195231Y156984D01*
X195253Y156889D01*
X195266Y156792D01*
X195304Y156672D01*
X195333Y156549D01*
X195391Y156398D01*
X195401Y156367D01*
X195409Y156351D01*
X195422Y156318D01*
X198692Y148973D01*
X198692Y141027D01*
X195422Y133682D01*
X195381Y133562D01*
X195331Y133446D01*
X195309Y133351D01*
X195277Y133259D01*
X195259Y133134D01*
X195230Y133011D01*
X195225Y132914D01*
X195210Y132817D01*
X195214Y132691D01*
X195208Y132565D01*
X195220Y132469D01*
X195223Y132371D01*
X195249Y132247D01*
X195266Y132122D01*
X195295Y132029D01*
X195315Y131934D01*
X195363Y131817D01*
X195401Y131697D01*
X195447Y131610D01*
X195484Y131520D01*
X195551Y131413D01*
X195610Y131302D01*
X195671Y131225D01*
X195723Y131143D01*
X195808Y131050D01*
X195886Y130951D01*
X195960Y130886D01*
X196026Y130814D01*
X196126Y130738D01*
X196221Y130654D01*
X196304Y130604D01*
X196382Y130545D01*
X196495Y130488D01*
X196602Y130422D01*
X196693Y130387D01*
X196781Y130343D01*
X196901Y130307D01*
X197019Y130262D01*
X197115Y130243D01*
X197209Y130216D01*
X197334Y130202D01*
X197458Y130178D01*
X197619Y130170D01*
X197653Y130166D01*
X197670Y130167D01*
X197705Y130166D01*
X199022Y130166D01*
X202758Y128618D01*
X203733Y127644D01*
X203838Y127556D01*
X203936Y127461D01*
X204009Y127413D01*
X204076Y127357D01*
X204195Y127290D01*
X204308Y127214D01*
X204388Y127180D01*
X204464Y127137D01*
X204593Y127091D01*
X204719Y127037D01*
X204803Y127017D01*
X204885Y126988D01*
X205020Y126967D01*
X205154Y126936D01*
X205240Y126932D01*
X205326Y126918D01*
X205463Y126920D01*
X205600Y126914D01*
X205686Y126925D01*
X205773Y126927D01*
X205907Y126954D01*
X206043Y126971D01*
X206126Y126998D01*
X206211Y127015D01*
X206338Y127065D01*
X206468Y127107D01*
X206545Y127148D01*
X206626Y127180D01*
X206742Y127252D01*
X206863Y127316D01*
X206931Y127370D01*
X207005Y127416D01*
X207107Y127508D01*
X207214Y127592D01*
X207272Y127657D01*
X207336Y127716D01*
X207420Y127824D01*
X207511Y127926D01*
X207556Y128001D01*
X207609Y128070D01*
X207672Y128191D01*
X207743Y128308D01*
X207774Y128389D01*
X207814Y128467D01*
X207854Y128597D01*
X207903Y128725D01*
X207920Y128811D01*
X207945Y128894D01*
X207961Y129029D01*
X207987Y129164D01*
X207994Y129300D01*
X207998Y129337D01*
X207997Y129360D01*
X207999Y129411D01*
X207999Y136393D01*
X209065Y138966D01*
X221034Y150935D01*
X223607Y152001D01*
X225033Y152001D01*
X225219Y152017D01*
X225405Y152029D01*
X225441Y152037D01*
X225478Y152041D01*
X225658Y152090D01*
X225839Y152134D01*
X225873Y152149D01*
X225908Y152159D01*
X226077Y152240D01*
X226247Y152316D01*
X226278Y152336D01*
X226311Y152352D01*
X226462Y152462D01*
X226616Y152567D01*
X226654Y152601D01*
X226673Y152614D01*
X226698Y152641D01*
X226800Y152733D01*
X227647Y153580D01*
X231367Y155121D01*
X250633Y155121D01*
X254353Y153580D01*
X257200Y150733D01*
X258741Y147013D01*
X258741Y142987D01*
X257200Y139267D01*
X254353Y136420D01*
X250633Y134879D01*
X231367Y134879D01*
X228252Y136170D01*
X228246Y136171D01*
X228240Y136174D01*
X228034Y136238D01*
X227826Y136303D01*
X227819Y136304D01*
X227813Y136306D01*
X227600Y136331D01*
X227382Y136358D01*
X227376Y136358D01*
X227369Y136359D01*
X227154Y136346D01*
X226936Y136334D01*
X226930Y136332D01*
X226924Y136332D01*
X226715Y136281D01*
X226502Y136230D01*
X226496Y136228D01*
X226490Y136226D01*
X226293Y136139D01*
X226093Y136051D01*
X226087Y136048D01*
X226081Y136045D01*
X225901Y135923D01*
X225722Y135802D01*
X225717Y135798D01*
X225712Y135794D01*
X225528Y135628D01*
X222733Y132832D01*
X222613Y132689D01*
X222489Y132549D01*
X222470Y132518D01*
X222446Y132489D01*
X222354Y132327D01*
X222257Y132168D01*
X222244Y132133D01*
X222226Y132101D01*
X222164Y131925D01*
X222097Y131751D01*
X222090Y131715D01*
X222077Y131680D01*
X222048Y131495D01*
X222013Y131312D01*
X222010Y131262D01*
X222007Y131239D01*
X222008Y131202D01*
X222001Y131065D01*
X222001Y128567D01*
X222013Y128431D01*
X222016Y128294D01*
X222033Y128209D01*
X222041Y128122D01*
X222077Y127990D01*
X222104Y127856D01*
X222136Y127776D01*
X222159Y127692D01*
X222218Y127568D01*
X222269Y127441D01*
X222315Y127367D01*
X222352Y127289D01*
X222433Y127178D01*
X222505Y127062D01*
X222563Y126998D01*
X222614Y126927D01*
X222713Y126832D01*
X222805Y126731D01*
X222874Y126678D01*
X222936Y126618D01*
X223050Y126542D01*
X223159Y126458D01*
X223236Y126419D01*
X223308Y126370D01*
X223434Y126316D01*
X223556Y126253D01*
X223639Y126228D01*
X223719Y126193D01*
X223851Y126162D01*
X223983Y126122D01*
X224069Y126112D01*
X224154Y126092D01*
X224290Y126085D01*
X224426Y126069D01*
X224513Y126074D01*
X224600Y126070D01*
X224735Y126088D01*
X224872Y126096D01*
X224957Y126116D01*
X225043Y126128D01*
X225173Y126169D01*
X225306Y126202D01*
X225386Y126237D01*
X225468Y126263D01*
X225589Y126327D01*
X225714Y126383D01*
X225786Y126432D01*
X225863Y126472D01*
X225971Y126557D01*
X226084Y126634D01*
X226185Y126726D01*
X226214Y126749D01*
X226230Y126766D01*
X226267Y126800D01*
X227647Y128180D01*
X231367Y129721D01*
X250633Y129721D01*
X254353Y128180D01*
X257200Y125333D01*
X258741Y121613D01*
X258741Y117587D01*
X257200Y113867D01*
X254353Y111020D01*
X250633Y109479D01*
X231367Y109479D01*
X227647Y111020D01*
X226267Y112400D01*
X226162Y112488D01*
X226064Y112582D01*
X225991Y112631D01*
X225924Y112686D01*
X225805Y112754D01*
X225692Y112830D01*
X225612Y112864D01*
X225536Y112907D01*
X225407Y112953D01*
X225281Y113007D01*
X225197Y113026D01*
X225115Y113055D01*
X224979Y113077D01*
X224846Y113108D01*
X224760Y113112D01*
X224674Y113126D01*
X224537Y113123D01*
X224400Y113130D01*
X224314Y113119D01*
X224227Y113117D01*
X224093Y113090D01*
X223957Y113072D01*
X223874Y113046D01*
X223789Y113029D01*
X223662Y112978D01*
X223532Y112937D01*
X223455Y112896D01*
X223374Y112864D01*
X223258Y112792D01*
X223137Y112728D01*
X223069Y112674D01*
X222995Y112628D01*
X222893Y112536D01*
X222786Y112451D01*
X222728Y112386D01*
X222664Y112328D01*
X222580Y112220D01*
X222489Y112117D01*
X222444Y112043D01*
X222391Y111974D01*
X222328Y111852D01*
X222257Y111736D01*
X222226Y111654D01*
X222186Y111577D01*
X222146Y111446D01*
X222097Y111319D01*
X222080Y111233D01*
X222055Y111150D01*
X222039Y111014D01*
X222013Y110880D01*
X222006Y110743D01*
X222002Y110707D01*
X222003Y110683D01*
X222001Y110633D01*
X222001Y89500D01*
X222005Y89450D01*
X222003Y89400D01*
X222025Y89228D01*
X222041Y89055D01*
X222054Y89007D01*
X222060Y88957D01*
X222113Y88792D01*
X222159Y88624D01*
X222181Y88579D01*
X222196Y88532D01*
X222277Y88378D01*
X222352Y88222D01*
X222382Y88181D01*
X222405Y88137D01*
X222512Y88000D01*
X222614Y87860D01*
X222650Y87825D01*
X222681Y87786D01*
X222811Y87670D01*
X222936Y87550D01*
X222978Y87523D01*
X223016Y87489D01*
X223164Y87399D01*
X223308Y87303D01*
X223354Y87283D01*
X223397Y87257D01*
X223559Y87195D01*
X223719Y87126D01*
X223767Y87115D01*
X223814Y87097D01*
X223985Y87064D01*
X224154Y87025D01*
X224204Y87022D01*
X224253Y87013D01*
X224500Y87001D01*
X264450Y87001D01*
X264500Y87005D01*
X264550Y87003D01*
X264722Y87025D01*
X264895Y87041D01*
X264943Y87054D01*
X264993Y87060D01*
X265158Y87113D01*
X265326Y87159D01*
X265371Y87181D01*
X265418Y87196D01*
X265572Y87277D01*
X265728Y87352D01*
X265769Y87382D01*
X265813Y87405D01*
X265950Y87512D01*
X266090Y87614D01*
X266125Y87650D01*
X266164Y87681D01*
X266280Y87811D01*
X266400Y87936D01*
X266427Y87978D01*
X266461Y88016D01*
X266551Y88164D01*
X266647Y88308D01*
X266667Y88354D01*
X266693Y88397D01*
X266755Y88559D01*
X266824Y88719D01*
X266835Y88767D01*
X266853Y88814D01*
X266886Y88985D01*
X266925Y89154D01*
X266928Y89204D01*
X266937Y89253D01*
X266946Y89432D01*
X268414Y90901D01*
X282086Y90901D01*
X283551Y89436D01*
X283551Y70564D01*
X282086Y69099D01*
X268414Y69099D01*
X266946Y70568D01*
X266947Y70600D01*
X266925Y70771D01*
X266909Y70945D01*
X266896Y70993D01*
X266890Y71043D01*
X266837Y71208D01*
X266791Y71376D01*
X266769Y71421D01*
X266754Y71468D01*
X266673Y71622D01*
X266598Y71778D01*
X266568Y71819D01*
X266545Y71863D01*
X266438Y72000D01*
X266336Y72140D01*
X266300Y72175D01*
X266269Y72214D01*
X266139Y72330D01*
X266014Y72450D01*
X265972Y72477D01*
X265934Y72511D01*
X265786Y72601D01*
X265642Y72697D01*
X265596Y72717D01*
X265553Y72743D01*
X265391Y72805D01*
X265231Y72874D01*
X265183Y72885D01*
X265136Y72903D01*
X264965Y72936D01*
X264796Y72975D01*
X264746Y72978D01*
X264697Y72987D01*
X264450Y72999D01*
X217597Y72999D01*
X217477Y72989D01*
X217357Y72988D01*
X217182Y72962D01*
X217152Y72959D01*
X217139Y72956D01*
X217112Y72952D01*
X216659Y72862D01*
X216216Y72951D01*
X216094Y72964D01*
X215973Y72987D01*
X215803Y72995D01*
X215772Y72999D01*
X215757Y72998D01*
X215726Y72999D01*
X159429Y72999D01*
X159360Y72993D01*
X159292Y72996D01*
X159139Y72973D01*
X158984Y72959D01*
X158918Y72941D01*
X158850Y72931D01*
X158834Y72927D01*
X157699Y72995D01*
X157661Y72994D01*
X157549Y72999D01*
X156388Y72999D01*
X156350Y73009D01*
X156202Y73055D01*
X156134Y73064D01*
X156068Y73080D01*
X156050Y73082D01*
X155028Y73580D01*
X154993Y73593D01*
X154891Y73641D01*
X153819Y74085D01*
X153788Y74109D01*
X153668Y74208D01*
X153609Y74242D01*
X153554Y74283D01*
X153539Y74291D01*
X152785Y75142D01*
X152758Y75167D01*
X152682Y75251D01*
X151861Y76072D01*
X151841Y76106D01*
X151769Y76243D01*
X151727Y76297D01*
X151692Y76356D01*
X151537Y76549D01*
X136589Y93408D01*
X136561Y93434D01*
X136538Y93464D01*
X136399Y93587D01*
X136264Y93715D01*
X136232Y93735D01*
X136203Y93761D01*
X136045Y93857D01*
X135890Y93958D01*
X135854Y93973D01*
X135822Y93993D01*
X135649Y94059D01*
X135478Y94131D01*
X135441Y94140D01*
X135405Y94153D01*
X135222Y94188D01*
X135042Y94228D01*
X135004Y94230D01*
X134966Y94237D01*
X134719Y94249D01*
X123647Y94249D01*
X122900Y94559D01*
X122763Y94602D01*
X122629Y94653D01*
X122550Y94668D01*
X122473Y94692D01*
X122331Y94710D01*
X122190Y94737D01*
X122067Y94743D01*
X122030Y94748D01*
X122003Y94746D01*
X121943Y94749D01*
X116004Y94749D01*
X114539Y96214D01*
X114539Y104250D01*
X114535Y104300D01*
X114537Y104350D01*
X114515Y104522D01*
X114499Y104695D01*
X114486Y104743D01*
X114480Y104793D01*
X114427Y104958D01*
X114381Y105126D01*
X114359Y105171D01*
X114344Y105218D01*
X114263Y105372D01*
X114188Y105528D01*
X114158Y105569D01*
X114135Y105613D01*
X114028Y105750D01*
X113926Y105890D01*
X113890Y105925D01*
X113859Y105964D01*
X113729Y106080D01*
X113604Y106200D01*
X113562Y106227D01*
X113524Y106261D01*
X113376Y106351D01*
X113232Y106447D01*
X113186Y106467D01*
X113143Y106493D01*
X112981Y106555D01*
X112821Y106624D01*
X112773Y106635D01*
X112726Y106653D01*
X112555Y106686D01*
X112386Y106725D01*
X112336Y106728D01*
X112287Y106737D01*
X112040Y106749D01*
X98935Y106749D01*
X98749Y106733D01*
X98563Y106721D01*
X98527Y106713D01*
X98490Y106709D01*
X98310Y106660D01*
X98129Y106616D01*
X98095Y106601D01*
X98059Y106591D01*
X97891Y106510D01*
X97721Y106434D01*
X97690Y106414D01*
X97657Y106398D01*
X97506Y106288D01*
X97351Y106183D01*
X97314Y106149D01*
X97295Y106136D01*
X97269Y106109D01*
X97168Y106017D01*
X84168Y93017D01*
X84080Y92912D01*
X83985Y92814D01*
X83937Y92741D01*
X83881Y92674D01*
X83814Y92556D01*
X83738Y92442D01*
X83704Y92362D01*
X83661Y92286D01*
X83615Y92157D01*
X83561Y92031D01*
X83541Y91947D01*
X83512Y91865D01*
X83491Y91729D01*
X83460Y91596D01*
X83456Y91510D01*
X83442Y91424D01*
X83445Y91287D01*
X83438Y91150D01*
X83449Y91064D01*
X83451Y90977D01*
X83478Y90843D01*
X83495Y90707D01*
X83522Y90624D01*
X83539Y90539D01*
X83589Y90412D01*
X83631Y90282D01*
X83672Y90205D01*
X83704Y90124D01*
X83776Y90008D01*
X83840Y89887D01*
X83894Y89819D01*
X83940Y89745D01*
X84032Y89643D01*
X84116Y89536D01*
X84181Y89478D01*
X84240Y89414D01*
X84348Y89330D01*
X84451Y89239D01*
X84525Y89194D01*
X84594Y89141D01*
X84715Y89078D01*
X84832Y89007D01*
X84913Y88976D01*
X84991Y88936D01*
X85121Y88896D01*
X85249Y88847D01*
X85335Y88830D01*
X85418Y88805D01*
X85553Y88789D01*
X85688Y88763D01*
X85824Y88756D01*
X85861Y88752D01*
X85885Y88753D01*
X85935Y88751D01*
X112076Y88751D01*
X113541Y87286D01*
X113541Y64214D01*
X112076Y62749D01*
X84435Y62749D01*
X84299Y62737D01*
X84162Y62734D01*
X84077Y62717D01*
X83990Y62709D01*
X83858Y62673D01*
X83724Y62646D01*
X83643Y62614D01*
X83559Y62591D01*
X83436Y62532D01*
X83309Y62481D01*
X83235Y62435D01*
X83157Y62398D01*
X83046Y62317D01*
X82930Y62245D01*
X82865Y62187D01*
X82795Y62136D01*
X82700Y62037D01*
X82599Y61945D01*
X82545Y61876D01*
X82485Y61814D01*
X82410Y61700D01*
X82326Y61591D01*
X82286Y61514D01*
X82238Y61442D01*
X82184Y61316D01*
X82121Y61194D01*
X82096Y61111D01*
X82061Y61031D01*
X82030Y60898D01*
X81990Y60767D01*
X81980Y60681D01*
X81960Y60596D01*
X81953Y60460D01*
X81937Y60324D01*
X81942Y60237D01*
X81938Y60150D01*
X81955Y60015D01*
X81964Y59878D01*
X81984Y59793D01*
X81995Y59707D01*
X82037Y59577D01*
X82069Y59444D01*
X82105Y59364D01*
X82131Y59282D01*
X82195Y59161D01*
X82251Y59036D01*
X82299Y58964D01*
X82340Y58887D01*
X82425Y58779D01*
X82502Y58666D01*
X82594Y58565D01*
X82616Y58536D01*
X82634Y58520D01*
X82668Y58483D01*
X103418Y37733D01*
X103561Y37613D01*
X103701Y37489D01*
X103732Y37470D01*
X103761Y37446D01*
X103923Y37354D01*
X104082Y37257D01*
X104117Y37244D01*
X104149Y37226D01*
X104325Y37164D01*
X104499Y37097D01*
X104535Y37090D01*
X104570Y37077D01*
X104755Y37048D01*
X104938Y37013D01*
X104988Y37010D01*
X105011Y37007D01*
X105048Y37008D01*
X105185Y37001D01*
X651065Y37001D01*
X651251Y37017D01*
G37*
%LPC*%
G36*
X625978Y85834D02*
X625978Y85834D01*
X622242Y87382D01*
X619382Y90242D01*
X617834Y93978D01*
X617834Y122022D01*
X619382Y125758D01*
X622242Y128618D01*
X625978Y130166D01*
X627768Y130166D01*
X627931Y130180D01*
X628095Y130187D01*
X628153Y130200D01*
X628213Y130206D01*
X628371Y130249D01*
X628531Y130285D01*
X628586Y130308D01*
X628643Y130324D01*
X628791Y130395D01*
X628942Y130459D01*
X628992Y130492D01*
X629046Y130517D01*
X629179Y130614D01*
X629316Y130703D01*
X629360Y130744D01*
X629408Y130779D01*
X629522Y130898D01*
X629641Y131010D01*
X629676Y131058D01*
X629717Y131101D01*
X629808Y131238D01*
X629905Y131370D01*
X629932Y131424D01*
X629965Y131473D01*
X630030Y131624D01*
X630102Y131771D01*
X630118Y131829D01*
X630142Y131884D01*
X630179Y132043D01*
X630224Y132201D01*
X630229Y132261D01*
X630243Y132319D01*
X630251Y132482D01*
X630267Y132646D01*
X630262Y132705D01*
X630265Y132765D01*
X630244Y132927D01*
X630230Y133091D01*
X630215Y133149D01*
X630207Y133208D01*
X630157Y133364D01*
X630115Y133523D01*
X630090Y133577D01*
X630072Y133633D01*
X629995Y133778D01*
X629925Y133927D01*
X629878Y133998D01*
X629863Y134028D01*
X629841Y134056D01*
X629790Y134134D01*
X627542Y137227D01*
X625890Y145000D01*
X627542Y152773D01*
X629790Y155866D01*
X629874Y156007D01*
X629965Y156143D01*
X629988Y156198D01*
X630019Y156249D01*
X630077Y156403D01*
X630142Y156554D01*
X630155Y156612D01*
X630176Y156667D01*
X630206Y156829D01*
X630243Y156989D01*
X630246Y157048D01*
X630257Y157107D01*
X630257Y157271D01*
X630265Y157435D01*
X630257Y157494D01*
X630257Y157554D01*
X630228Y157715D01*
X630207Y157878D01*
X630189Y157935D01*
X630179Y157993D01*
X630121Y158147D01*
X630072Y158303D01*
X630044Y158356D01*
X630023Y158412D01*
X629939Y158553D01*
X629863Y158698D01*
X629826Y158745D01*
X629795Y158796D01*
X629688Y158920D01*
X629586Y159049D01*
X629542Y159089D01*
X629503Y159134D01*
X629375Y159237D01*
X629252Y159346D01*
X629201Y159377D01*
X629155Y159414D01*
X629011Y159493D01*
X628871Y159578D01*
X628815Y159599D01*
X628763Y159628D01*
X628607Y159679D01*
X628454Y159738D01*
X628395Y159749D01*
X628339Y159768D01*
X628176Y159791D01*
X628015Y159822D01*
X627929Y159826D01*
X627896Y159831D01*
X627861Y159830D01*
X627768Y159834D01*
X625978Y159834D01*
X622242Y161382D01*
X619382Y164242D01*
X617834Y167978D01*
X617834Y196022D01*
X619382Y199758D01*
X622242Y202618D01*
X625978Y204166D01*
X664022Y204166D01*
X667758Y202618D01*
X670618Y199758D01*
X672166Y196022D01*
X672166Y167978D01*
X670618Y164242D01*
X667758Y161382D01*
X664022Y159834D01*
X662705Y159834D01*
X662579Y159823D01*
X662453Y159822D01*
X662358Y159803D01*
X662260Y159794D01*
X662138Y159761D01*
X662015Y159737D01*
X661924Y159702D01*
X661829Y159676D01*
X661716Y159621D01*
X661598Y159576D01*
X661515Y159525D01*
X661427Y159483D01*
X661324Y159409D01*
X661217Y159343D01*
X661144Y159278D01*
X661065Y159221D01*
X660977Y159130D01*
X660883Y159046D01*
X660823Y158969D01*
X660755Y158899D01*
X660686Y158794D01*
X660608Y158694D01*
X660562Y158608D01*
X660508Y158527D01*
X660458Y158411D01*
X660399Y158299D01*
X660370Y158206D01*
X660331Y158116D01*
X660303Y157994D01*
X660265Y157873D01*
X660252Y157776D01*
X660230Y157681D01*
X660224Y157556D01*
X660208Y157430D01*
X660213Y157333D01*
X660208Y157235D01*
X660224Y157110D01*
X660231Y156984D01*
X660253Y156889D01*
X660266Y156792D01*
X660304Y156672D01*
X660333Y156549D01*
X660391Y156398D01*
X660401Y156367D01*
X660409Y156351D01*
X660422Y156318D01*
X663692Y148973D01*
X663692Y141027D01*
X660422Y133682D01*
X660381Y133562D01*
X660331Y133446D01*
X660309Y133351D01*
X660277Y133259D01*
X660259Y133134D01*
X660230Y133011D01*
X660225Y132914D01*
X660210Y132817D01*
X660214Y132691D01*
X660208Y132565D01*
X660220Y132469D01*
X660223Y132371D01*
X660249Y132247D01*
X660266Y132122D01*
X660295Y132029D01*
X660315Y131934D01*
X660363Y131817D01*
X660401Y131697D01*
X660447Y131610D01*
X660484Y131520D01*
X660551Y131413D01*
X660610Y131302D01*
X660671Y131225D01*
X660723Y131143D01*
X660808Y131050D01*
X660886Y130951D01*
X660960Y130886D01*
X661026Y130814D01*
X661126Y130738D01*
X661221Y130654D01*
X661304Y130604D01*
X661382Y130545D01*
X661495Y130488D01*
X661602Y130422D01*
X661693Y130387D01*
X661781Y130343D01*
X661901Y130307D01*
X662019Y130262D01*
X662115Y130243D01*
X662209Y130216D01*
X662334Y130202D01*
X662458Y130178D01*
X662619Y130170D01*
X662653Y130166D01*
X662670Y130167D01*
X662705Y130166D01*
X664022Y130166D01*
X667758Y128618D01*
X670618Y125758D01*
X672166Y122022D01*
X672166Y93978D01*
X670618Y90242D01*
X667758Y87382D01*
X664022Y85834D01*
X625978Y85834D01*
G37*
%LPD*%
G36*
X112050Y170755D02*
X112050Y170755D01*
X112100Y170753D01*
X112272Y170775D01*
X112445Y170791D01*
X112493Y170804D01*
X112543Y170810D01*
X112708Y170863D01*
X112876Y170909D01*
X112921Y170931D01*
X112968Y170946D01*
X113122Y171027D01*
X113278Y171102D01*
X113319Y171132D01*
X113363Y171155D01*
X113499Y171262D01*
X113640Y171364D01*
X113675Y171400D01*
X113714Y171431D01*
X113830Y171561D01*
X113950Y171686D01*
X113977Y171728D01*
X114011Y171766D01*
X114101Y171914D01*
X114197Y172058D01*
X114217Y172104D01*
X114243Y172147D01*
X114305Y172309D01*
X114374Y172469D01*
X114385Y172517D01*
X114403Y172564D01*
X114436Y172735D01*
X114475Y172904D01*
X114478Y172954D01*
X114487Y173003D01*
X114499Y173250D01*
X114499Y173751D01*
X125040Y173751D01*
X125090Y173755D01*
X125139Y173753D01*
X125311Y173775D01*
X125485Y173790D01*
X125533Y173804D01*
X125582Y173810D01*
X125748Y173863D01*
X125915Y173909D01*
X125960Y173931D01*
X126008Y173946D01*
X126161Y174027D01*
X126318Y174102D01*
X126359Y174132D01*
X126403Y174155D01*
X126539Y174262D01*
X126680Y174364D01*
X126715Y174400D01*
X126754Y174431D01*
X126869Y174561D01*
X126989Y174686D01*
X127017Y174728D01*
X127050Y174765D01*
X127140Y174914D01*
X127237Y175058D01*
X127256Y175104D01*
X127282Y175147D01*
X127345Y175309D01*
X127414Y175468D01*
X127425Y175517D01*
X127443Y175564D01*
X127476Y175735D01*
X127515Y175903D01*
X127517Y175953D01*
X127527Y176003D01*
X127539Y176250D01*
X127534Y176300D01*
X127537Y176350D01*
X127515Y176522D01*
X127499Y176695D01*
X127486Y176743D01*
X127479Y176793D01*
X127427Y176958D01*
X127381Y177126D01*
X127359Y177171D01*
X127344Y177219D01*
X127263Y177372D01*
X127187Y177528D01*
X127158Y177569D01*
X127134Y177613D01*
X127027Y177750D01*
X126925Y177890D01*
X126889Y177925D01*
X126858Y177964D01*
X126728Y178080D01*
X126603Y178200D01*
X126562Y178228D01*
X126524Y178261D01*
X126376Y178351D01*
X126231Y178447D01*
X126185Y178467D01*
X126143Y178493D01*
X125980Y178555D01*
X125821Y178624D01*
X125773Y178635D01*
X125726Y178653D01*
X125555Y178686D01*
X125386Y178725D01*
X125336Y178728D01*
X125287Y178737D01*
X125040Y178749D01*
X114499Y178749D01*
X114499Y179250D01*
X114495Y179300D01*
X114497Y179350D01*
X114475Y179522D01*
X114459Y179695D01*
X114446Y179743D01*
X114440Y179793D01*
X114387Y179958D01*
X114341Y180126D01*
X114319Y180171D01*
X114304Y180218D01*
X114223Y180372D01*
X114148Y180528D01*
X114118Y180569D01*
X114095Y180613D01*
X113987Y180750D01*
X113886Y180890D01*
X113850Y180925D01*
X113819Y180964D01*
X113689Y181080D01*
X113564Y181200D01*
X113522Y181227D01*
X113484Y181261D01*
X113336Y181351D01*
X113192Y181447D01*
X113146Y181467D01*
X113103Y181493D01*
X112941Y181555D01*
X112781Y181624D01*
X112733Y181635D01*
X112686Y181653D01*
X112515Y181686D01*
X112346Y181725D01*
X112296Y181728D01*
X112247Y181737D01*
X112000Y181749D01*
X86693Y181749D01*
X86600Y181741D01*
X86506Y181742D01*
X86378Y181721D01*
X86248Y181709D01*
X86199Y181696D01*
X84910Y181747D01*
X84880Y181746D01*
X84810Y181749D01*
X83518Y181749D01*
X83459Y181768D01*
X83408Y181774D01*
X82237Y182315D01*
X82209Y182325D01*
X82146Y182355D01*
X80951Y182849D01*
X80904Y182889D01*
X80859Y182914D01*
X79985Y183862D01*
X79963Y183882D01*
X79916Y183934D01*
X79002Y184848D01*
X78973Y184902D01*
X78916Y184976D01*
X78866Y185056D01*
X78708Y185246D01*
X71336Y193231D01*
X71198Y193356D01*
X71064Y193485D01*
X71033Y193506D01*
X71005Y193531D01*
X70847Y193629D01*
X70692Y193733D01*
X70658Y193747D01*
X70626Y193767D01*
X70452Y193836D01*
X70281Y193910D01*
X70245Y193918D01*
X70211Y193932D01*
X70028Y193969D01*
X69846Y194011D01*
X69809Y194013D01*
X69773Y194020D01*
X69586Y194024D01*
X69400Y194033D01*
X69364Y194028D01*
X69326Y194029D01*
X69142Y193999D01*
X68957Y193975D01*
X68922Y193964D01*
X68885Y193958D01*
X68709Y193896D01*
X68532Y193840D01*
X68499Y193822D01*
X68464Y193810D01*
X68302Y193718D01*
X68137Y193631D01*
X68108Y193608D01*
X68076Y193589D01*
X67933Y193470D01*
X67786Y193354D01*
X67761Y193327D01*
X67733Y193303D01*
X67613Y193160D01*
X67489Y193020D01*
X67470Y192989D01*
X67446Y192960D01*
X67354Y192798D01*
X67257Y192639D01*
X67244Y192604D01*
X67226Y192572D01*
X67164Y192396D01*
X67097Y192222D01*
X67090Y192185D01*
X67078Y192150D01*
X67048Y191966D01*
X67013Y191783D01*
X67010Y191733D01*
X67007Y191709D01*
X67008Y191672D01*
X67001Y191536D01*
X67001Y182685D01*
X67017Y182499D01*
X67029Y182313D01*
X67037Y182277D01*
X67041Y182240D01*
X67090Y182060D01*
X67134Y181879D01*
X67149Y181845D01*
X67159Y181809D01*
X67240Y181641D01*
X67316Y181471D01*
X67336Y181440D01*
X67352Y181407D01*
X67462Y181256D01*
X67567Y181101D01*
X67601Y181064D01*
X67614Y181045D01*
X67641Y181019D01*
X67733Y180918D01*
X77168Y171483D01*
X77311Y171363D01*
X77451Y171239D01*
X77482Y171220D01*
X77511Y171196D01*
X77673Y171104D01*
X77832Y171007D01*
X77867Y170994D01*
X77899Y170976D01*
X78075Y170914D01*
X78249Y170847D01*
X78285Y170840D01*
X78320Y170827D01*
X78505Y170798D01*
X78688Y170763D01*
X78738Y170760D01*
X78761Y170757D01*
X78798Y170758D01*
X78935Y170751D01*
X112000Y170751D01*
X112050Y170755D01*
G37*
%LPC*%
G36*
X231367Y160279D02*
X231367Y160279D01*
X227647Y161820D01*
X224800Y164667D01*
X223259Y168387D01*
X223259Y172413D01*
X224800Y176133D01*
X227647Y178980D01*
X231367Y180521D01*
X250633Y180521D01*
X254353Y178980D01*
X257200Y176133D01*
X258741Y172413D01*
X258741Y168387D01*
X257200Y164667D01*
X254353Y161820D01*
X250633Y160279D01*
X231367Y160279D01*
G37*
%LPD*%
%LPC*%
G36*
X278149Y112899D02*
X278149Y112899D01*
X278149Y120941D01*
X281384Y120941D01*
X282031Y120768D01*
X282610Y120433D01*
X283083Y119960D01*
X283418Y119381D01*
X283591Y118734D01*
X283591Y112899D01*
X278149Y112899D01*
G37*
%LPD*%
%LPC*%
G36*
X307649Y82899D02*
X307649Y82899D01*
X307649Y90941D01*
X310884Y90941D01*
X311531Y90768D01*
X312110Y90433D01*
X312583Y89960D01*
X312918Y89381D01*
X313091Y88734D01*
X313091Y82899D01*
X307649Y82899D01*
G37*
%LPD*%
%LPC*%
G36*
X266909Y112899D02*
X266909Y112899D01*
X266909Y118734D01*
X267082Y119381D01*
X267417Y119960D01*
X267890Y120433D01*
X268469Y120768D01*
X269116Y120941D01*
X272351Y120941D01*
X272351Y112899D01*
X266909Y112899D01*
G37*
%LPD*%
%LPC*%
G36*
X296409Y82899D02*
X296409Y82899D01*
X296409Y88734D01*
X296582Y89381D01*
X296917Y89960D01*
X297390Y90433D01*
X297969Y90768D01*
X298616Y90941D01*
X301851Y90941D01*
X301851Y82899D01*
X296409Y82899D01*
G37*
%LPD*%
%LPC*%
G36*
X278149Y99059D02*
X278149Y99059D01*
X278149Y107101D01*
X283591Y107101D01*
X283591Y101266D01*
X283418Y100619D01*
X283083Y100040D01*
X282610Y99567D01*
X282031Y99232D01*
X281384Y99059D01*
X278149Y99059D01*
G37*
%LPD*%
%LPC*%
G36*
X307649Y69059D02*
X307649Y69059D01*
X307649Y77101D01*
X313091Y77101D01*
X313091Y71266D01*
X312918Y70619D01*
X312583Y70040D01*
X312110Y69567D01*
X311531Y69232D01*
X310884Y69059D01*
X307649Y69059D01*
G37*
%LPD*%
%LPC*%
G36*
X269116Y99059D02*
X269116Y99059D01*
X268469Y99232D01*
X267890Y99567D01*
X267417Y100040D01*
X267082Y100619D01*
X266909Y101266D01*
X266909Y107101D01*
X272351Y107101D01*
X272351Y99059D01*
X269116Y99059D01*
G37*
%LPD*%
%LPC*%
G36*
X298616Y69059D02*
X298616Y69059D01*
X297969Y69232D01*
X297390Y69567D01*
X296917Y70040D01*
X296582Y70619D01*
X296409Y71266D01*
X296409Y77101D01*
X301851Y77101D01*
X301851Y69059D01*
X298616Y69059D01*
G37*
%LPD*%
%LPC*%
G36*
X558499Y156999D02*
X558499Y156999D01*
X558499Y160041D01*
X561584Y160041D01*
X562231Y159868D01*
X562810Y159533D01*
X563283Y159060D01*
X563618Y158481D01*
X563791Y157834D01*
X563791Y156999D01*
X558499Y156999D01*
G37*
%LPD*%
D10*
X556000Y135500D03*
X556000Y154500D03*
X534000Y145000D03*
D11*
X125040Y188750D03*
X125040Y176250D03*
X125040Y163750D03*
X125040Y151250D03*
X125040Y138750D03*
X125040Y126250D03*
X125040Y113750D03*
X125040Y101250D03*
D12*
X96040Y75750D03*
X96040Y214250D03*
D13*
X233380Y119600D02*
X248620Y119600D01*
X248620Y145000D02*
X233380Y145000D01*
X233380Y170400D02*
X248620Y170400D01*
D14*
X304750Y110000D03*
X275250Y110000D03*
X304750Y80000D03*
X275250Y80000D03*
D11*
X710000Y113750D03*
X710000Y126250D03*
X710000Y138750D03*
X710000Y151250D03*
X710000Y163750D03*
X710000Y176250D03*
D12*
X739000Y88250D03*
X739000Y201750D03*
D15*
X97500Y175000D03*
D16*
X555000Y190000D03*
D17*
X571000Y174000D01*
X571000Y159500D01*
X566000Y154500D01*
X556000Y154500D01*
D18*
X487500Y145000D03*
D19*
X534000Y145000D01*
D20*
X71250Y90000D02*
X71250Y60000D01*
X95000Y113750D02*
X125040Y113750D01*
X95000Y113750D02*
X71250Y90000D01*
X655000Y30000D02*
X690000Y65000D01*
X690000Y120000D01*
X696250Y126250D01*
X710000Y126250D01*
X101250Y30000D02*
X71250Y60000D01*
X101250Y30000D02*
X655000Y30000D01*
D21*
X545000Y110000D02*
X304750Y110000D01*
D20*
X140000Y126250D02*
X125040Y126250D01*
D22*
X304750Y110000D02*
X305000Y110250D01*
D20*
X305000Y150000D02*
X245000Y210000D01*
X305000Y150000D02*
X305000Y110250D01*
X245000Y210000D02*
X155000Y210000D01*
X145000Y200000D02*
X145000Y135000D01*
X140000Y126250D01*
X145000Y200000D02*
X155000Y210000D01*
D21*
X556000Y135500D02*
X556000Y121000D01*
X545000Y110000D01*
D20*
X125040Y138750D02*
X80000Y138750D01*
X55000Y113750D01*
X55000Y52665D01*
X93500Y14165D02*
X704165Y14165D01*
X93500Y14165D02*
X55000Y52665D01*
D15*
X735000Y115000D03*
D20*
X735000Y113750D02*
X710000Y113750D01*
X735000Y113750D02*
X735000Y115000D01*
D15*
X745000Y55000D03*
D20*
X704165Y14165D01*
X241000Y145000D02*
X225000Y145000D01*
X215000Y135000D01*
X215000Y82500D01*
X216667Y80000D02*
X275250Y80000D01*
X138992Y101250D02*
X125040Y101250D01*
X215000Y82500D02*
X216667Y80000D01*
X157834Y80000D01*
X138992Y101250D01*
X80000Y275000D02*
X720000Y275000D01*
D15*
X735000Y155000D03*
D20*
X125040Y163750D02*
X75000Y163750D01*
X60000Y178750D01*
X60000Y255000D01*
X720000Y275000D02*
X765000Y230000D01*
X765000Y165000D01*
X755000Y155000D01*
X80000Y275000D02*
X60000Y255000D01*
X735000Y155000D02*
X755000Y155000D01*
X735000Y155000D02*
X731250Y151250D01*
X710000Y151250D01*
D15*
X735000Y135000D03*
D20*
X125040Y151250D02*
X88750Y151250D01*
D22*
X87500Y150000D01*
D15*
X87500Y150000D03*
D20*
X731250Y138750D02*
X735000Y135000D01*
X731250Y138750D02*
X710000Y138750D01*
D18*
X337500Y145000D03*
D20*
X270000Y210000D02*
X270000Y257500D01*
D15*
X270000Y210000D03*
D20*
X270000Y257500D02*
X95556Y257500D01*
X85000Y188750D02*
X125040Y188750D01*
X75000Y199583D02*
X75000Y234375D01*
X95556Y257500D01*
X75000Y199583D02*
X85000Y188750D01*
X690165Y182625D02*
X690165Y214835D01*
X647500Y257500D01*
X270000Y257500D01*
X696540Y176250D02*
X710000Y176250D01*
X696540Y176250D02*
X690165Y182625D01*
M02*
