G04 EAGLE Gerber X2 export*
%TF.Part,Single*%
%TF.FileFunction,Copper,L2,Bot,Mixed*%
%TF.FilePolarity,Positive*%
%TF.GenerationSoftware,Autodesk,EAGLE,9.1.0*%
%TF.CreationDate,2020-08-17T16:37:06Z*%
G75*
%MOMM*%
%FSLAX34Y34*%
%LPD*%
%AMOC8*
5,1,8,0,0,1.08239X$1,22.5*%
G01*
%ADD10R,1.400000X0.450000*%
%ADD11C,1.524000*%
%ADD12C,1.000000*%
%ADD13C,0.500000*%
%ADD14C,0.152400*%
%ADD15C,0.756400*%
%ADD16C,4.000000*%
%ADD17C,0.800000*%
%ADD18C,1.500000*%

G36*
X775050Y10170D02*
X775050Y10170D01*
X775100Y10168D01*
X775272Y10190D01*
X775445Y10206D01*
X775493Y10219D01*
X775543Y10225D01*
X775708Y10278D01*
X775876Y10324D01*
X775921Y10346D01*
X775968Y10361D01*
X776122Y10442D01*
X776278Y10517D01*
X776319Y10547D01*
X776363Y10570D01*
X776500Y10677D01*
X776640Y10779D01*
X776675Y10815D01*
X776714Y10846D01*
X776830Y10976D01*
X776950Y11101D01*
X776977Y11143D01*
X777011Y11181D01*
X777101Y11329D01*
X777197Y11473D01*
X777217Y11519D01*
X777243Y11562D01*
X777305Y11724D01*
X777374Y11884D01*
X777385Y11932D01*
X777403Y11979D01*
X777436Y12150D01*
X777475Y12319D01*
X777478Y12369D01*
X777487Y12418D01*
X777499Y12665D01*
X777499Y17009D01*
X777481Y17216D01*
X777465Y17424D01*
X777461Y17439D01*
X777459Y17454D01*
X777404Y17654D01*
X777351Y17856D01*
X777345Y17870D01*
X777341Y17885D01*
X777251Y18073D01*
X777163Y18261D01*
X777154Y18274D01*
X777148Y18287D01*
X777025Y18457D01*
X776905Y18626D01*
X776895Y18637D01*
X776886Y18649D01*
X776736Y18794D01*
X776587Y18940D01*
X776571Y18952D01*
X776564Y18959D01*
X776543Y18973D01*
X776519Y18990D01*
X771605Y26345D01*
X769883Y35000D01*
X771605Y43655D01*
X776531Y51028D01*
X776550Y51043D01*
X776714Y51172D01*
X776724Y51184D01*
X776736Y51193D01*
X776873Y51351D01*
X777011Y51507D01*
X777019Y51519D01*
X777029Y51531D01*
X777135Y51711D01*
X777243Y51888D01*
X777248Y51902D01*
X777256Y51915D01*
X777328Y52111D01*
X777403Y52305D01*
X777406Y52320D01*
X777411Y52334D01*
X777448Y52538D01*
X777487Y52744D01*
X777488Y52764D01*
X777490Y52774D01*
X777490Y52799D01*
X777499Y52991D01*
X777499Y237009D01*
X777481Y237216D01*
X777465Y237424D01*
X777461Y237439D01*
X777459Y237454D01*
X777404Y237654D01*
X777351Y237856D01*
X777345Y237870D01*
X777341Y237885D01*
X777251Y238073D01*
X777163Y238261D01*
X777154Y238274D01*
X777148Y238287D01*
X777025Y238457D01*
X776905Y238626D01*
X776895Y238637D01*
X776886Y238649D01*
X776736Y238794D01*
X776587Y238940D01*
X776571Y238952D01*
X776564Y238959D01*
X776543Y238973D01*
X776519Y238990D01*
X771605Y246345D01*
X769883Y255000D01*
X771605Y263655D01*
X776531Y271028D01*
X776550Y271043D01*
X776714Y271172D01*
X776724Y271184D01*
X776736Y271193D01*
X776873Y271351D01*
X777011Y271507D01*
X777019Y271519D01*
X777029Y271531D01*
X777135Y271711D01*
X777243Y271888D01*
X777248Y271902D01*
X777256Y271915D01*
X777328Y272111D01*
X777403Y272305D01*
X777406Y272320D01*
X777411Y272334D01*
X777448Y272538D01*
X777487Y272744D01*
X777488Y272764D01*
X777490Y272774D01*
X777490Y272799D01*
X777499Y272991D01*
X777499Y277335D01*
X777495Y277385D01*
X777497Y277435D01*
X777475Y277607D01*
X777459Y277780D01*
X777446Y277828D01*
X777440Y277878D01*
X777387Y278043D01*
X777341Y278211D01*
X777319Y278256D01*
X777304Y278303D01*
X777223Y278457D01*
X777148Y278613D01*
X777118Y278654D01*
X777095Y278698D01*
X776988Y278835D01*
X776886Y278975D01*
X776850Y279010D01*
X776819Y279049D01*
X776689Y279165D01*
X776564Y279285D01*
X776522Y279312D01*
X776484Y279346D01*
X776336Y279436D01*
X776192Y279532D01*
X776146Y279552D01*
X776103Y279578D01*
X775941Y279640D01*
X775781Y279709D01*
X775733Y279720D01*
X775686Y279738D01*
X775515Y279771D01*
X775346Y279810D01*
X775296Y279813D01*
X775247Y279822D01*
X775000Y279834D01*
X731100Y279834D01*
X730964Y279822D01*
X730827Y279819D01*
X730742Y279802D01*
X730655Y279794D01*
X730523Y279758D01*
X730389Y279731D01*
X730308Y279699D01*
X730224Y279676D01*
X730101Y279617D01*
X729974Y279566D01*
X729900Y279520D01*
X729822Y279483D01*
X729711Y279402D01*
X729595Y279330D01*
X729530Y279272D01*
X729460Y279221D01*
X729365Y279122D01*
X729264Y279030D01*
X729210Y278961D01*
X729150Y278899D01*
X729075Y278785D01*
X728991Y278676D01*
X728951Y278599D01*
X728903Y278527D01*
X728849Y278401D01*
X728786Y278279D01*
X728761Y278196D01*
X728726Y278116D01*
X728695Y277983D01*
X728655Y277852D01*
X728645Y277766D01*
X728625Y277681D01*
X728618Y277545D01*
X728602Y277409D01*
X728607Y277322D01*
X728603Y277235D01*
X728620Y277100D01*
X728629Y276963D01*
X728649Y276878D01*
X728660Y276792D01*
X728702Y276662D01*
X728734Y276529D01*
X728770Y276450D01*
X728796Y276367D01*
X728860Y276246D01*
X728916Y276121D01*
X728964Y276049D01*
X729005Y275972D01*
X729090Y275864D01*
X729167Y275751D01*
X729259Y275650D01*
X729281Y275621D01*
X729299Y275605D01*
X729333Y275568D01*
X770935Y233966D01*
X772001Y231393D01*
X772001Y143607D01*
X770935Y141034D01*
X758966Y129065D01*
X756393Y127999D01*
X738196Y127999D01*
X738054Y127986D01*
X737910Y127983D01*
X737831Y127967D01*
X737751Y127959D01*
X737613Y127921D01*
X737473Y127892D01*
X737357Y127851D01*
X737321Y127841D01*
X737296Y127829D01*
X737240Y127809D01*
X736492Y127499D01*
X733508Y127499D01*
X730751Y128641D01*
X728641Y130751D01*
X727499Y133508D01*
X727499Y136492D01*
X728641Y139249D01*
X730751Y141359D01*
X733508Y142501D01*
X736492Y142501D01*
X737240Y142191D01*
X737376Y142148D01*
X737510Y142097D01*
X737589Y142082D01*
X737666Y142058D01*
X737808Y142040D01*
X737949Y142013D01*
X738072Y142007D01*
X738109Y142002D01*
X738136Y142004D01*
X738196Y142001D01*
X751065Y142001D01*
X751251Y142017D01*
X751437Y142029D01*
X751473Y142037D01*
X751510Y142041D01*
X751690Y142090D01*
X751871Y142134D01*
X751905Y142149D01*
X751941Y142159D01*
X752109Y142240D01*
X752279Y142316D01*
X752310Y142336D01*
X752343Y142352D01*
X752494Y142462D01*
X752649Y142567D01*
X752686Y142601D01*
X752705Y142614D01*
X752731Y142641D01*
X752832Y142733D01*
X757267Y147168D01*
X757387Y147311D01*
X757511Y147451D01*
X757530Y147482D01*
X757554Y147511D01*
X757646Y147673D01*
X757743Y147832D01*
X757756Y147867D01*
X757774Y147899D01*
X757836Y148075D01*
X757903Y148249D01*
X757910Y148285D01*
X757923Y148320D01*
X757952Y148505D01*
X757987Y148688D01*
X757990Y148738D01*
X757993Y148761D01*
X757992Y148798D01*
X757999Y148935D01*
X757999Y226065D01*
X757983Y226251D01*
X757971Y226437D01*
X757963Y226473D01*
X757959Y226510D01*
X757910Y226690D01*
X757866Y226871D01*
X757851Y226905D01*
X757841Y226941D01*
X757760Y227109D01*
X757684Y227279D01*
X757664Y227310D01*
X757648Y227343D01*
X757538Y227494D01*
X757433Y227649D01*
X757399Y227686D01*
X757386Y227705D01*
X757359Y227731D01*
X757267Y227832D01*
X717832Y267267D01*
X717689Y267387D01*
X717549Y267511D01*
X717518Y267530D01*
X717489Y267554D01*
X717327Y267646D01*
X717168Y267743D01*
X717133Y267756D01*
X717101Y267774D01*
X716925Y267836D01*
X716751Y267903D01*
X716715Y267910D01*
X716680Y267923D01*
X716495Y267952D01*
X716312Y267987D01*
X716262Y267990D01*
X716239Y267993D01*
X716202Y267992D01*
X716065Y267999D01*
X715435Y267999D01*
X715299Y267987D01*
X715162Y267984D01*
X715077Y267967D01*
X714990Y267959D01*
X714858Y267923D01*
X714724Y267896D01*
X714643Y267864D01*
X714559Y267841D01*
X714436Y267782D01*
X714309Y267731D01*
X714235Y267685D01*
X714157Y267648D01*
X714046Y267567D01*
X713930Y267495D01*
X713865Y267437D01*
X713795Y267386D01*
X713700Y267287D01*
X713599Y267195D01*
X713546Y267126D01*
X713485Y267064D01*
X713410Y266950D01*
X713326Y266841D01*
X713286Y266764D01*
X713238Y266692D01*
X713184Y266566D01*
X713121Y266444D01*
X713095Y266361D01*
X713061Y266281D01*
X713030Y266148D01*
X712990Y266017D01*
X712980Y265931D01*
X712960Y265846D01*
X712953Y265710D01*
X712937Y265574D01*
X712942Y265487D01*
X712938Y265400D01*
X712955Y265265D01*
X712964Y265128D01*
X712984Y265043D01*
X712995Y264957D01*
X713037Y264827D01*
X713069Y264694D01*
X713105Y264615D01*
X713131Y264532D01*
X713195Y264411D01*
X713251Y264286D01*
X713299Y264214D01*
X713340Y264137D01*
X713425Y264029D01*
X713502Y263916D01*
X713593Y263815D01*
X713616Y263786D01*
X713634Y263770D01*
X713668Y263733D01*
X716286Y261115D01*
X716286Y261114D01*
X738614Y238786D01*
X740935Y236466D01*
X742001Y233893D01*
X742001Y158196D01*
X742014Y158054D01*
X742017Y157910D01*
X742033Y157832D01*
X742041Y157751D01*
X742079Y157613D01*
X742108Y157473D01*
X742149Y157357D01*
X742159Y157321D01*
X742171Y157296D01*
X742191Y157240D01*
X742501Y156492D01*
X742501Y153508D01*
X741359Y150751D01*
X739249Y148641D01*
X736492Y147499D01*
X733508Y147499D01*
X730751Y148641D01*
X728641Y150751D01*
X727499Y153508D01*
X727499Y156492D01*
X727809Y157240D01*
X727852Y157376D01*
X727903Y157510D01*
X727918Y157590D01*
X727942Y157666D01*
X727960Y157808D01*
X727987Y157949D01*
X727993Y158072D01*
X727998Y158109D01*
X727996Y158136D01*
X727999Y158196D01*
X727999Y228565D01*
X727983Y228751D01*
X727971Y228937D01*
X727963Y228973D01*
X727959Y229010D01*
X727910Y229190D01*
X727866Y229371D01*
X727851Y229405D01*
X727841Y229441D01*
X727760Y229609D01*
X727684Y229779D01*
X727664Y229810D01*
X727648Y229843D01*
X727538Y229994D01*
X727433Y230149D01*
X727399Y230186D01*
X727386Y230205D01*
X727359Y230231D01*
X727267Y230332D01*
X707832Y249767D01*
X707689Y249887D01*
X707549Y250011D01*
X707518Y250030D01*
X707489Y250054D01*
X707327Y250146D01*
X707168Y250243D01*
X707133Y250256D01*
X707101Y250274D01*
X706925Y250336D01*
X706751Y250403D01*
X706715Y250410D01*
X706680Y250423D01*
X706495Y250452D01*
X706312Y250487D01*
X706262Y250490D01*
X706239Y250493D01*
X706202Y250492D01*
X706065Y250499D01*
X576814Y250499D01*
X576628Y250483D01*
X576442Y250471D01*
X576406Y250463D01*
X576369Y250459D01*
X576188Y250410D01*
X576008Y250366D01*
X575974Y250351D01*
X575938Y250341D01*
X575770Y250260D01*
X575599Y250184D01*
X575569Y250164D01*
X575535Y250148D01*
X575384Y250038D01*
X575230Y249933D01*
X575192Y249899D01*
X575173Y249886D01*
X575148Y249859D01*
X575046Y249767D01*
X563733Y238454D01*
X563613Y238310D01*
X563489Y238171D01*
X563470Y238139D01*
X563446Y238111D01*
X563354Y237949D01*
X563257Y237789D01*
X563244Y237755D01*
X563226Y237722D01*
X563164Y237546D01*
X563097Y237372D01*
X563090Y237336D01*
X563077Y237301D01*
X563048Y237117D01*
X563013Y236934D01*
X563010Y236883D01*
X563007Y236860D01*
X563008Y236823D01*
X563001Y236686D01*
X563001Y209656D01*
X562163Y207634D01*
X560264Y205735D01*
X555015Y200486D01*
X553116Y198587D01*
X551094Y197749D01*
X534000Y197749D01*
X533950Y197745D01*
X533900Y197747D01*
X533728Y197725D01*
X533555Y197709D01*
X533507Y197696D01*
X533457Y197690D01*
X533292Y197637D01*
X533124Y197591D01*
X533079Y197569D01*
X533032Y197554D01*
X532878Y197473D01*
X532722Y197398D01*
X532681Y197368D01*
X532637Y197345D01*
X532500Y197238D01*
X532360Y197136D01*
X532325Y197100D01*
X532286Y197069D01*
X532170Y196939D01*
X532050Y196814D01*
X532023Y196772D01*
X531989Y196734D01*
X531899Y196586D01*
X531803Y196442D01*
X531783Y196396D01*
X531757Y196353D01*
X531695Y196191D01*
X531626Y196031D01*
X531615Y195983D01*
X531597Y195936D01*
X531564Y195765D01*
X531525Y195596D01*
X531522Y195546D01*
X531513Y195497D01*
X531501Y195250D01*
X531501Y193313D01*
X531519Y193111D01*
X531534Y192908D01*
X531539Y192882D01*
X531541Y192868D01*
X531541Y192731D01*
X531472Y192718D01*
X531376Y192709D01*
X531254Y192676D01*
X531129Y192652D01*
X531039Y192617D01*
X530946Y192591D01*
X530831Y192536D01*
X530712Y192490D01*
X530630Y192440D01*
X530543Y192398D01*
X530440Y192323D01*
X530331Y192257D01*
X530209Y192156D01*
X530181Y192136D01*
X530168Y192123D01*
X530140Y192099D01*
X530007Y191955D01*
X529871Y191813D01*
X529856Y191791D01*
X529837Y191770D01*
X529732Y191605D01*
X529624Y191441D01*
X529613Y191416D01*
X529598Y191393D01*
X529524Y191211D01*
X529447Y191031D01*
X529441Y191005D01*
X529430Y190979D01*
X529390Y190787D01*
X529346Y190596D01*
X529344Y190569D01*
X529339Y190542D01*
X529333Y190346D01*
X529324Y190150D01*
X529327Y190123D01*
X529326Y190095D01*
X529356Y189901D01*
X529381Y189707D01*
X529390Y189681D01*
X529394Y189654D01*
X529458Y189468D01*
X529517Y189281D01*
X529530Y189257D01*
X529539Y189231D01*
X529634Y189060D01*
X529726Y188887D01*
X529743Y188865D01*
X529756Y188841D01*
X529880Y188690D01*
X530002Y188536D01*
X530023Y188517D01*
X530040Y188496D01*
X530189Y188370D01*
X530336Y188239D01*
X530360Y188225D01*
X530381Y188207D01*
X530551Y188109D01*
X530718Y188007D01*
X530744Y187997D01*
X530767Y187983D01*
X530952Y187917D01*
X531135Y187847D01*
X531162Y187841D01*
X531188Y187832D01*
X531380Y187800D01*
X531541Y187769D01*
X531541Y187666D01*
X531368Y187019D01*
X531033Y186440D01*
X530560Y185967D01*
X529981Y185632D01*
X529334Y185459D01*
X524499Y185459D01*
X524499Y189500D01*
X524495Y189550D01*
X524497Y189600D01*
X524475Y189772D01*
X524459Y189945D01*
X524446Y189993D01*
X524440Y190043D01*
X524387Y190208D01*
X524341Y190376D01*
X524319Y190421D01*
X524304Y190468D01*
X524223Y190622D01*
X524148Y190778D01*
X524118Y190819D01*
X524095Y190863D01*
X523988Y191000D01*
X523886Y191140D01*
X523850Y191175D01*
X523819Y191214D01*
X523689Y191330D01*
X523564Y191450D01*
X523522Y191477D01*
X523485Y191511D01*
X523336Y191601D01*
X523192Y191697D01*
X523146Y191717D01*
X523103Y191743D01*
X522941Y191805D01*
X522782Y191874D01*
X522733Y191885D01*
X522686Y191903D01*
X522515Y191936D01*
X522346Y191975D01*
X522297Y191978D01*
X522247Y191987D01*
X522000Y191999D01*
X521950Y191995D01*
X521900Y191997D01*
X521728Y191975D01*
X521555Y191959D01*
X521507Y191946D01*
X521457Y191940D01*
X521292Y191887D01*
X521124Y191841D01*
X521079Y191819D01*
X521031Y191804D01*
X520878Y191723D01*
X520721Y191648D01*
X520681Y191618D01*
X520637Y191595D01*
X520500Y191488D01*
X520360Y191386D01*
X520325Y191350D01*
X520286Y191319D01*
X520170Y191189D01*
X520050Y191064D01*
X520022Y191022D01*
X519989Y190984D01*
X519899Y190836D01*
X519803Y190692D01*
X519783Y190646D01*
X519757Y190603D01*
X519695Y190441D01*
X519626Y190281D01*
X519615Y190233D01*
X519597Y190186D01*
X519564Y190015D01*
X519525Y189846D01*
X519522Y189796D01*
X519513Y189747D01*
X519501Y189500D01*
X519501Y185459D01*
X514666Y185459D01*
X514019Y185632D01*
X513440Y185967D01*
X512967Y186440D01*
X512632Y187019D01*
X512459Y187666D01*
X512459Y187774D01*
X512570Y187781D01*
X512597Y187788D01*
X512624Y187790D01*
X512814Y187843D01*
X513003Y187890D01*
X513028Y187902D01*
X513055Y187909D01*
X513232Y187994D01*
X513410Y188075D01*
X513433Y188090D01*
X513457Y188102D01*
X513617Y188217D01*
X513778Y188329D01*
X513797Y188348D01*
X513819Y188364D01*
X513955Y188505D01*
X514094Y188644D01*
X514110Y188666D01*
X514129Y188686D01*
X514237Y188849D01*
X514349Y189010D01*
X514361Y189035D01*
X514376Y189058D01*
X514454Y189238D01*
X514535Y189417D01*
X514542Y189443D01*
X514553Y189468D01*
X514597Y189659D01*
X514646Y189849D01*
X514648Y189877D01*
X514654Y189903D01*
X514664Y190099D01*
X514678Y190295D01*
X514675Y190322D01*
X514676Y190350D01*
X514651Y190544D01*
X514630Y190739D01*
X514622Y190765D01*
X514619Y190793D01*
X514559Y190979D01*
X514504Y191167D01*
X514491Y191192D01*
X514483Y191218D01*
X514391Y191391D01*
X514303Y191567D01*
X514287Y191589D01*
X514274Y191613D01*
X514153Y191767D01*
X514035Y191924D01*
X514009Y191950D01*
X513998Y191964D01*
X513997Y191964D01*
X513972Y191987D01*
X513860Y192099D01*
X513759Y192176D01*
X513663Y192261D01*
X513581Y192311D01*
X513504Y192369D01*
X513390Y192427D01*
X513282Y192493D01*
X513192Y192528D01*
X513106Y192571D01*
X512984Y192608D01*
X512865Y192653D01*
X512770Y192672D01*
X512678Y192699D01*
X512551Y192713D01*
X512459Y192731D01*
X512459Y192920D01*
X512487Y193066D01*
X512488Y193093D01*
X512491Y193106D01*
X512491Y193136D01*
X512499Y193313D01*
X512499Y195250D01*
X512495Y195300D01*
X512497Y195350D01*
X512475Y195522D01*
X512459Y195695D01*
X512446Y195743D01*
X512440Y195793D01*
X512387Y195958D01*
X512341Y196126D01*
X512319Y196171D01*
X512304Y196218D01*
X512223Y196372D01*
X512148Y196528D01*
X512118Y196569D01*
X512095Y196613D01*
X511988Y196750D01*
X511886Y196890D01*
X511850Y196925D01*
X511819Y196964D01*
X511689Y197080D01*
X511564Y197200D01*
X511522Y197227D01*
X511484Y197261D01*
X511336Y197351D01*
X511192Y197447D01*
X511146Y197467D01*
X511103Y197493D01*
X510941Y197555D01*
X510781Y197624D01*
X510733Y197635D01*
X510686Y197653D01*
X510515Y197686D01*
X510346Y197725D01*
X510296Y197728D01*
X510247Y197737D01*
X510000Y197749D01*
X503906Y197749D01*
X501884Y198587D01*
X495337Y205134D01*
X494499Y207156D01*
X494499Y216686D01*
X494483Y216872D01*
X494471Y217058D01*
X494463Y217094D01*
X494459Y217131D01*
X494410Y217312D01*
X494366Y217492D01*
X494351Y217526D01*
X494341Y217562D01*
X494260Y217730D01*
X494184Y217901D01*
X494164Y217931D01*
X494148Y217965D01*
X494038Y218116D01*
X493933Y218270D01*
X493899Y218308D01*
X493886Y218327D01*
X493859Y218352D01*
X493767Y218454D01*
X493454Y218767D01*
X493310Y218887D01*
X493171Y219011D01*
X493139Y219030D01*
X493111Y219054D01*
X492949Y219146D01*
X492789Y219243D01*
X492755Y219256D01*
X492722Y219274D01*
X492546Y219336D01*
X492372Y219403D01*
X492336Y219410D01*
X492301Y219423D01*
X492117Y219452D01*
X491933Y219487D01*
X491883Y219490D01*
X491860Y219493D01*
X491823Y219492D01*
X491686Y219499D01*
X481402Y219499D01*
X481261Y219487D01*
X481120Y219483D01*
X481039Y219467D01*
X480957Y219459D01*
X480821Y219422D01*
X480683Y219394D01*
X480606Y219363D01*
X480526Y219341D01*
X480399Y219280D01*
X480268Y219227D01*
X480198Y219183D01*
X480123Y219148D01*
X480009Y219065D01*
X479890Y218990D01*
X479829Y218934D01*
X479762Y218886D01*
X479664Y218784D01*
X479559Y218689D01*
X479509Y218623D01*
X479452Y218564D01*
X479374Y218446D01*
X479288Y218334D01*
X479251Y218260D01*
X479205Y218192D01*
X479149Y218062D01*
X479085Y217936D01*
X479061Y217857D01*
X479028Y217781D01*
X478996Y217644D01*
X478955Y217509D01*
X478945Y217427D01*
X478927Y217346D01*
X478920Y217206D01*
X478903Y217065D01*
X478909Y216983D01*
X478905Y216900D01*
X478923Y216760D01*
X478932Y216619D01*
X478952Y216539D01*
X478962Y216457D01*
X479005Y216323D01*
X479039Y216186D01*
X479073Y216110D01*
X479098Y216032D01*
X479164Y215907D01*
X479222Y215778D01*
X479268Y215710D01*
X479307Y215637D01*
X479394Y215526D01*
X479474Y215409D01*
X479532Y215351D01*
X479583Y215286D01*
X479689Y215192D01*
X479788Y215092D01*
X479856Y215044D01*
X479917Y214989D01*
X480038Y214916D01*
X480153Y214835D01*
X480228Y214800D01*
X480299Y214757D01*
X480431Y214707D01*
X480559Y214647D01*
X480681Y214610D01*
X480716Y214597D01*
X480741Y214592D01*
X480796Y214575D01*
X480976Y214547D01*
X481155Y214513D01*
X481212Y214510D01*
X481237Y214506D01*
X481274Y214507D01*
X481402Y214501D01*
X486036Y214501D01*
X487501Y213036D01*
X487501Y199813D01*
X487519Y199611D01*
X487534Y199408D01*
X487539Y199382D01*
X487541Y199368D01*
X487541Y199227D01*
X487449Y199222D01*
X487413Y199213D01*
X487376Y199209D01*
X487350Y199202D01*
X487324Y199199D01*
X487173Y199154D01*
X487015Y199116D01*
X486981Y199101D01*
X486946Y199091D01*
X486921Y199079D01*
X486896Y199072D01*
X486755Y199000D01*
X486607Y198935D01*
X486576Y198914D01*
X486543Y198898D01*
X486521Y198882D01*
X486498Y198870D01*
X486371Y198774D01*
X486237Y198684D01*
X486200Y198650D01*
X486181Y198636D01*
X486162Y198617D01*
X486141Y198601D01*
X486119Y198576D01*
X486054Y198517D01*
X485966Y198412D01*
X485871Y198314D01*
X485857Y198292D01*
X485839Y198272D01*
X485806Y198221D01*
X485767Y198174D01*
X485700Y198055D01*
X485624Y197942D01*
X485614Y197918D01*
X485599Y197895D01*
X485577Y197839D01*
X485547Y197786D01*
X485501Y197656D01*
X485447Y197532D01*
X485441Y197506D01*
X485431Y197481D01*
X485419Y197422D01*
X485399Y197365D01*
X485377Y197228D01*
X485346Y197096D01*
X485345Y197071D01*
X485339Y197044D01*
X485337Y196983D01*
X485328Y196924D01*
X485331Y196785D01*
X485324Y196650D01*
X485327Y196625D01*
X485326Y196597D01*
X485336Y196537D01*
X485337Y196477D01*
X485364Y196341D01*
X485382Y196207D01*
X485389Y196183D01*
X485393Y196156D01*
X485413Y196098D01*
X485425Y196039D01*
X485476Y195910D01*
X485517Y195781D01*
X485529Y195759D01*
X485538Y195733D01*
X485567Y195680D01*
X485590Y195624D01*
X485663Y195507D01*
X485726Y195387D01*
X485743Y195366D01*
X485756Y195343D01*
X485794Y195296D01*
X485826Y195245D01*
X485918Y195143D01*
X486003Y195036D01*
X486022Y195018D01*
X486039Y194998D01*
X486103Y194939D01*
X486126Y194914D01*
X486153Y194892D01*
X486221Y194830D01*
X486282Y194788D01*
X486337Y194739D01*
X486411Y194694D01*
X486480Y194641D01*
X486536Y194612D01*
X486589Y194576D01*
X486656Y194545D01*
X486718Y194507D01*
X486800Y194476D01*
X486877Y194436D01*
X486937Y194418D01*
X486995Y194391D01*
X487067Y194373D01*
X487135Y194347D01*
X487222Y194330D01*
X487304Y194305D01*
X487366Y194297D01*
X487428Y194282D01*
X487502Y194277D01*
X487541Y194269D01*
X487541Y194080D01*
X487513Y193934D01*
X487512Y193907D01*
X487509Y193894D01*
X487509Y193864D01*
X487501Y193687D01*
X487501Y186964D01*
X486036Y185499D01*
X481755Y185499D01*
X481613Y185486D01*
X481470Y185483D01*
X481391Y185467D01*
X481311Y185459D01*
X481172Y185421D01*
X481032Y185392D01*
X480916Y185351D01*
X480880Y185341D01*
X480856Y185329D01*
X480799Y185309D01*
X478844Y184499D01*
X463906Y184499D01*
X461884Y185337D01*
X455337Y191884D01*
X454499Y193906D01*
X454499Y200500D01*
X454495Y200550D01*
X454497Y200600D01*
X454475Y200772D01*
X454459Y200945D01*
X454446Y200993D01*
X454440Y201043D01*
X454387Y201208D01*
X454341Y201376D01*
X454319Y201421D01*
X454304Y201468D01*
X454223Y201621D01*
X454148Y201778D01*
X454118Y201819D01*
X454095Y201863D01*
X453988Y202000D01*
X453886Y202140D01*
X453850Y202175D01*
X453819Y202214D01*
X453689Y202330D01*
X453564Y202450D01*
X453522Y202477D01*
X453484Y202511D01*
X453336Y202601D01*
X453192Y202697D01*
X453146Y202717D01*
X453103Y202743D01*
X452941Y202805D01*
X452781Y202874D01*
X452733Y202885D01*
X452686Y202903D01*
X452515Y202936D01*
X452346Y202975D01*
X452296Y202978D01*
X452247Y202987D01*
X452000Y202999D01*
X406435Y202999D01*
X406249Y202983D01*
X406063Y202971D01*
X406027Y202963D01*
X405990Y202959D01*
X405810Y202910D01*
X405629Y202866D01*
X405595Y202851D01*
X405559Y202841D01*
X405391Y202760D01*
X405221Y202684D01*
X405190Y202664D01*
X405157Y202648D01*
X405006Y202538D01*
X404851Y202433D01*
X404814Y202399D01*
X404795Y202386D01*
X404769Y202359D01*
X404668Y202267D01*
X358802Y156401D01*
X358798Y156396D01*
X358793Y156392D01*
X358653Y156224D01*
X358516Y156059D01*
X358512Y156053D01*
X358508Y156048D01*
X358398Y155852D01*
X358295Y155670D01*
X358293Y155664D01*
X358289Y155658D01*
X358217Y155449D01*
X358147Y155249D01*
X358146Y155242D01*
X358144Y155236D01*
X358110Y155022D01*
X358076Y154808D01*
X358076Y154801D01*
X358075Y154795D01*
X358081Y154576D01*
X358085Y154361D01*
X358086Y154355D01*
X358086Y154348D01*
X358131Y154133D01*
X358173Y153923D01*
X358176Y153917D01*
X358177Y153911D01*
X358260Y153678D01*
X360001Y149476D01*
X360001Y140524D01*
X356575Y132254D01*
X350246Y125925D01*
X341976Y122499D01*
X333024Y122499D01*
X324754Y125925D01*
X318425Y132254D01*
X318134Y132956D01*
X318131Y132962D01*
X318129Y132968D01*
X318027Y133161D01*
X317927Y133352D01*
X317923Y133357D01*
X317920Y133363D01*
X317784Y133535D01*
X317653Y133705D01*
X317648Y133709D01*
X317644Y133714D01*
X317481Y133858D01*
X317320Y134003D01*
X317314Y134006D01*
X317309Y134011D01*
X317124Y134123D01*
X316939Y134237D01*
X316933Y134239D01*
X316928Y134243D01*
X316726Y134321D01*
X316523Y134400D01*
X316517Y134401D01*
X316511Y134403D01*
X316298Y134444D01*
X316085Y134486D01*
X316079Y134486D01*
X316072Y134487D01*
X315825Y134499D01*
X282428Y134499D01*
X282422Y134499D01*
X282415Y134499D01*
X282202Y134479D01*
X281984Y134459D01*
X281977Y134458D01*
X281971Y134457D01*
X281765Y134399D01*
X281553Y134341D01*
X281547Y134338D01*
X281541Y134336D01*
X281347Y134242D01*
X281150Y134148D01*
X281145Y134144D01*
X281139Y134141D01*
X280963Y134013D01*
X280788Y133886D01*
X280784Y133881D01*
X280778Y133877D01*
X280627Y133718D01*
X280479Y133564D01*
X280475Y133558D01*
X280471Y133553D01*
X280351Y133371D01*
X280231Y133192D01*
X280229Y133186D01*
X280225Y133180D01*
X280119Y132956D01*
X278502Y129052D01*
X260148Y110698D01*
X256289Y109099D01*
X238911Y109099D01*
X238453Y109289D01*
X238317Y109332D01*
X238183Y109383D01*
X238104Y109398D01*
X238027Y109422D01*
X237885Y109440D01*
X237744Y109467D01*
X237621Y109473D01*
X237584Y109478D01*
X237557Y109476D01*
X237497Y109479D01*
X231367Y109479D01*
X227647Y111020D01*
X224800Y113867D01*
X223259Y117587D01*
X223259Y121613D01*
X224800Y125333D01*
X227647Y128180D01*
X231367Y129721D01*
X237497Y129721D01*
X237639Y129734D01*
X237783Y129737D01*
X237861Y129753D01*
X237942Y129761D01*
X238080Y129799D01*
X238220Y129828D01*
X238336Y129869D01*
X238372Y129879D01*
X238397Y129891D01*
X238453Y129911D01*
X238840Y130071D01*
X238999Y130154D01*
X239161Y130232D01*
X239197Y130258D01*
X239235Y130278D01*
X239378Y130389D01*
X239523Y130494D01*
X239553Y130526D01*
X239588Y130552D01*
X239708Y130687D01*
X239833Y130816D01*
X239857Y130853D01*
X239886Y130885D01*
X239980Y131039D01*
X240080Y131188D01*
X240097Y131228D01*
X240120Y131265D01*
X240186Y131433D01*
X240257Y131599D01*
X240267Y131641D01*
X240283Y131682D01*
X240317Y131858D01*
X240358Y132034D01*
X240360Y132077D01*
X240369Y132120D01*
X240371Y132300D01*
X240380Y132480D01*
X240375Y132523D01*
X240375Y132566D01*
X240346Y132744D01*
X240323Y132923D01*
X240310Y132964D01*
X240302Y133007D01*
X240242Y133177D01*
X240187Y133348D01*
X240167Y133387D01*
X240152Y133428D01*
X240062Y133584D01*
X239978Y133743D01*
X239951Y133777D01*
X239929Y133815D01*
X239813Y133952D01*
X239702Y134094D01*
X239669Y134123D01*
X239641Y134156D01*
X239503Y134271D01*
X239368Y134391D01*
X239330Y134413D01*
X239297Y134441D01*
X239140Y134529D01*
X238986Y134623D01*
X238946Y134638D01*
X238907Y134660D01*
X238737Y134719D01*
X238569Y134783D01*
X238526Y134791D01*
X238485Y134806D01*
X238308Y134833D01*
X238130Y134867D01*
X238070Y134870D01*
X238044Y134874D01*
X238006Y134873D01*
X237883Y134879D01*
X231367Y134879D01*
X227647Y136420D01*
X224800Y139267D01*
X223259Y142987D01*
X223259Y147013D01*
X224800Y150733D01*
X227647Y153580D01*
X231367Y155121D01*
X250633Y155121D01*
X254353Y153580D01*
X254833Y153100D01*
X254938Y153012D01*
X255036Y152918D01*
X255109Y152870D01*
X255176Y152814D01*
X255294Y152746D01*
X255408Y152670D01*
X255488Y152636D01*
X255564Y152593D01*
X255693Y152548D01*
X255819Y152493D01*
X255903Y152474D01*
X255985Y152445D01*
X256120Y152423D01*
X256254Y152392D01*
X256340Y152388D01*
X256426Y152374D01*
X256563Y152377D01*
X256700Y152370D01*
X256786Y152381D01*
X256873Y152383D01*
X257007Y152410D01*
X257143Y152428D01*
X257226Y152454D01*
X257311Y152471D01*
X257438Y152522D01*
X257568Y152563D01*
X257645Y152604D01*
X257726Y152636D01*
X257842Y152708D01*
X257963Y152772D01*
X258032Y152826D01*
X258105Y152872D01*
X258207Y152964D01*
X258314Y153049D01*
X258372Y153114D01*
X258436Y153172D01*
X258520Y153280D01*
X258611Y153383D01*
X258656Y153457D01*
X258709Y153526D01*
X258772Y153648D01*
X258843Y153764D01*
X258874Y153845D01*
X258914Y153923D01*
X258954Y154054D01*
X259003Y154181D01*
X259020Y154267D01*
X259045Y154350D01*
X259061Y154486D01*
X259087Y154620D01*
X259094Y154757D01*
X259098Y154793D01*
X259097Y154817D01*
X259099Y154867D01*
X259099Y160533D01*
X259087Y160669D01*
X259084Y160806D01*
X259067Y160891D01*
X259059Y160978D01*
X259023Y161110D01*
X258996Y161244D01*
X258964Y161324D01*
X258941Y161408D01*
X258882Y161532D01*
X258831Y161659D01*
X258785Y161733D01*
X258748Y161811D01*
X258667Y161922D01*
X258595Y162038D01*
X258537Y162103D01*
X258486Y162173D01*
X258387Y162268D01*
X258295Y162369D01*
X258226Y162422D01*
X258164Y162482D01*
X258050Y162558D01*
X257941Y162642D01*
X257864Y162681D01*
X257792Y162730D01*
X257666Y162784D01*
X257544Y162847D01*
X257461Y162872D01*
X257381Y162907D01*
X257248Y162938D01*
X257117Y162978D01*
X257031Y162988D01*
X256946Y163008D01*
X256810Y163015D01*
X256674Y163031D01*
X256587Y163026D01*
X256500Y163030D01*
X256365Y163012D01*
X256228Y163004D01*
X256143Y162984D01*
X256057Y162972D01*
X255927Y162931D01*
X255794Y162898D01*
X255714Y162863D01*
X255632Y162837D01*
X255511Y162773D01*
X255386Y162717D01*
X255314Y162668D01*
X255237Y162628D01*
X255129Y162543D01*
X255016Y162466D01*
X254915Y162374D01*
X254886Y162351D01*
X254870Y162334D01*
X254833Y162300D01*
X254353Y161820D01*
X250633Y160279D01*
X231367Y160279D01*
X227647Y161820D01*
X224800Y164667D01*
X223259Y168387D01*
X223259Y172413D01*
X224800Y176133D01*
X227647Y178980D01*
X231367Y180521D01*
X250633Y180521D01*
X254353Y178980D01*
X254833Y178500D01*
X254938Y178412D01*
X255036Y178318D01*
X255109Y178270D01*
X255176Y178214D01*
X255294Y178146D01*
X255408Y178070D01*
X255488Y178036D01*
X255564Y177993D01*
X255693Y177948D01*
X255819Y177893D01*
X255903Y177874D01*
X255985Y177845D01*
X256120Y177823D01*
X256254Y177792D01*
X256340Y177788D01*
X256426Y177774D01*
X256563Y177777D01*
X256700Y177770D01*
X256786Y177781D01*
X256873Y177783D01*
X257007Y177810D01*
X257143Y177828D01*
X257226Y177854D01*
X257311Y177871D01*
X257438Y177922D01*
X257568Y177963D01*
X257645Y178004D01*
X257726Y178036D01*
X257842Y178108D01*
X257963Y178172D01*
X258032Y178226D01*
X258105Y178272D01*
X258207Y178364D01*
X258314Y178449D01*
X258372Y178514D01*
X258436Y178572D01*
X258520Y178680D01*
X258611Y178783D01*
X258656Y178857D01*
X258709Y178926D01*
X258772Y179048D01*
X258843Y179164D01*
X258874Y179245D01*
X258914Y179323D01*
X258954Y179454D01*
X259003Y179581D01*
X259020Y179667D01*
X259045Y179750D01*
X259061Y179886D01*
X259087Y180020D01*
X259094Y180157D01*
X259098Y180193D01*
X259097Y180217D01*
X259099Y180267D01*
X259099Y211839D01*
X260698Y215698D01*
X263652Y218652D01*
X267511Y220251D01*
X271689Y220251D01*
X275548Y218652D01*
X278218Y215983D01*
X278361Y215863D01*
X278500Y215739D01*
X278532Y215720D01*
X278560Y215696D01*
X278722Y215604D01*
X278882Y215507D01*
X278917Y215494D01*
X278949Y215476D01*
X279125Y215414D01*
X279299Y215347D01*
X279335Y215340D01*
X279370Y215327D01*
X279554Y215298D01*
X279738Y215263D01*
X279788Y215260D01*
X279811Y215257D01*
X279848Y215258D01*
X279985Y215251D01*
X304094Y215251D01*
X305446Y214691D01*
X305582Y214648D01*
X305716Y214597D01*
X305795Y214582D01*
X305872Y214558D01*
X306014Y214540D01*
X306155Y214513D01*
X306278Y214507D01*
X306315Y214502D01*
X306342Y214504D01*
X306402Y214501D01*
X311036Y214501D01*
X312501Y213036D01*
X312501Y206313D01*
X312519Y206111D01*
X312534Y205908D01*
X312539Y205882D01*
X312541Y205868D01*
X312541Y205731D01*
X312472Y205718D01*
X312376Y205709D01*
X312254Y205676D01*
X312129Y205652D01*
X312039Y205617D01*
X311946Y205591D01*
X311831Y205536D01*
X311712Y205490D01*
X311630Y205440D01*
X311543Y205398D01*
X311440Y205323D01*
X311331Y205257D01*
X311209Y205156D01*
X311181Y205136D01*
X311168Y205123D01*
X311140Y205099D01*
X311007Y204955D01*
X310871Y204813D01*
X310856Y204791D01*
X310837Y204770D01*
X310732Y204605D01*
X310624Y204441D01*
X310613Y204416D01*
X310598Y204393D01*
X310524Y204211D01*
X310447Y204031D01*
X310441Y204005D01*
X310430Y203979D01*
X310390Y203787D01*
X310346Y203596D01*
X310344Y203569D01*
X310339Y203542D01*
X310333Y203346D01*
X310324Y203150D01*
X310327Y203123D01*
X310326Y203095D01*
X310356Y202901D01*
X310381Y202707D01*
X310390Y202681D01*
X310394Y202654D01*
X310458Y202468D01*
X310517Y202281D01*
X310530Y202257D01*
X310539Y202231D01*
X310634Y202060D01*
X310726Y201887D01*
X310743Y201865D01*
X310756Y201841D01*
X310880Y201690D01*
X311002Y201536D01*
X311023Y201517D01*
X311040Y201496D01*
X311189Y201370D01*
X311336Y201239D01*
X311360Y201225D01*
X311381Y201207D01*
X311551Y201109D01*
X311718Y201007D01*
X311744Y200997D01*
X311767Y200983D01*
X311952Y200917D01*
X312135Y200847D01*
X312162Y200841D01*
X312188Y200832D01*
X312380Y200800D01*
X312541Y200769D01*
X312541Y200665D01*
X312536Y200647D01*
X312521Y200565D01*
X312498Y200485D01*
X312483Y200345D01*
X312459Y200207D01*
X312460Y200123D01*
X312451Y200041D01*
X312461Y199901D01*
X312462Y199760D01*
X312478Y199678D01*
X312484Y199595D01*
X312536Y199353D01*
X312541Y199335D01*
X312541Y199226D01*
X312430Y199219D01*
X312403Y199212D01*
X312376Y199209D01*
X312186Y199157D01*
X311997Y199110D01*
X311972Y199098D01*
X311945Y199091D01*
X311768Y199006D01*
X311590Y198925D01*
X311567Y198910D01*
X311543Y198898D01*
X311383Y198783D01*
X311222Y198671D01*
X311203Y198652D01*
X311181Y198636D01*
X311045Y198495D01*
X310906Y198356D01*
X310890Y198334D01*
X310871Y198314D01*
X310762Y198150D01*
X310651Y197990D01*
X310639Y197965D01*
X310624Y197942D01*
X310546Y197762D01*
X310465Y197583D01*
X310458Y197557D01*
X310447Y197532D01*
X310403Y197341D01*
X310354Y197151D01*
X310352Y197123D01*
X310346Y197096D01*
X310336Y196900D01*
X310322Y196705D01*
X310325Y196678D01*
X310324Y196650D01*
X310349Y196456D01*
X310370Y196261D01*
X310378Y196235D01*
X310381Y196207D01*
X310441Y196021D01*
X310496Y195832D01*
X310509Y195808D01*
X310517Y195782D01*
X310609Y195609D01*
X310697Y195433D01*
X310713Y195411D01*
X310726Y195387D01*
X310847Y195233D01*
X310965Y195076D01*
X310991Y195050D01*
X311002Y195036D01*
X311028Y195013D01*
X311140Y194901D01*
X311241Y194824D01*
X311337Y194739D01*
X311419Y194689D01*
X311496Y194631D01*
X311610Y194573D01*
X311718Y194507D01*
X311808Y194472D01*
X311895Y194429D01*
X312016Y194392D01*
X312135Y194347D01*
X312230Y194328D01*
X312323Y194301D01*
X312449Y194287D01*
X312541Y194269D01*
X312541Y194080D01*
X312513Y193934D01*
X312512Y193907D01*
X312509Y193894D01*
X312509Y193864D01*
X312501Y193687D01*
X312501Y186964D01*
X311036Y185499D01*
X306402Y185499D01*
X306259Y185486D01*
X306116Y185483D01*
X306037Y185467D01*
X305957Y185459D01*
X305819Y185421D01*
X305679Y185392D01*
X305562Y185351D01*
X305526Y185341D01*
X305502Y185329D01*
X305445Y185309D01*
X304094Y184749D01*
X288906Y184749D01*
X286884Y185587D01*
X284367Y188104D01*
X284262Y188191D01*
X284164Y188286D01*
X284091Y188334D01*
X284024Y188390D01*
X283906Y188457D01*
X283792Y188533D01*
X283712Y188568D01*
X283636Y188611D01*
X283507Y188656D01*
X283381Y188710D01*
X283297Y188730D01*
X283215Y188759D01*
X283079Y188781D01*
X282946Y188811D01*
X282860Y188816D01*
X282774Y188830D01*
X282637Y188827D01*
X282500Y188834D01*
X282414Y188822D01*
X282327Y188821D01*
X282193Y188794D01*
X282057Y188776D01*
X281974Y188750D01*
X281889Y188732D01*
X281762Y188682D01*
X281632Y188640D01*
X281555Y188600D01*
X281474Y188568D01*
X281358Y188495D01*
X281237Y188431D01*
X281169Y188377D01*
X281095Y188331D01*
X280993Y188240D01*
X280886Y188155D01*
X280828Y188090D01*
X280764Y188032D01*
X280680Y187923D01*
X280589Y187821D01*
X280544Y187746D01*
X280491Y187678D01*
X280428Y187556D01*
X280357Y187439D01*
X280326Y187358D01*
X280286Y187281D01*
X280246Y187150D01*
X280197Y187022D01*
X280180Y186937D01*
X280155Y186854D01*
X280139Y186718D01*
X280113Y186584D01*
X280106Y186447D01*
X280102Y186410D01*
X280103Y186387D01*
X280101Y186336D01*
X280101Y158000D01*
X280105Y157950D01*
X280103Y157900D01*
X280125Y157728D01*
X280141Y157555D01*
X280154Y157507D01*
X280160Y157457D01*
X280213Y157292D01*
X280259Y157124D01*
X280281Y157079D01*
X280296Y157032D01*
X280377Y156878D01*
X280452Y156722D01*
X280482Y156681D01*
X280505Y156637D01*
X280612Y156500D01*
X280714Y156360D01*
X280750Y156325D01*
X280781Y156286D01*
X280911Y156170D01*
X281036Y156050D01*
X281078Y156023D01*
X281116Y155989D01*
X281264Y155899D01*
X281408Y155803D01*
X281454Y155783D01*
X281497Y155757D01*
X281659Y155695D01*
X281819Y155626D01*
X281867Y155615D01*
X281914Y155597D01*
X282085Y155564D01*
X282254Y155525D01*
X282304Y155522D01*
X282353Y155513D01*
X282600Y155501D01*
X315825Y155501D01*
X315831Y155501D01*
X315838Y155501D01*
X316054Y155521D01*
X316270Y155541D01*
X316276Y155542D01*
X316283Y155543D01*
X316493Y155602D01*
X316701Y155659D01*
X316706Y155662D01*
X316713Y155664D01*
X316906Y155758D01*
X317103Y155852D01*
X317109Y155856D01*
X317114Y155859D01*
X317287Y155985D01*
X317465Y156114D01*
X317470Y156119D01*
X317475Y156123D01*
X317625Y156281D01*
X317775Y156436D01*
X317778Y156442D01*
X317783Y156447D01*
X317903Y156629D01*
X318022Y156808D01*
X318024Y156814D01*
X318028Y156820D01*
X318134Y157044D01*
X318425Y157746D01*
X324754Y164075D01*
X333024Y167501D01*
X341976Y167501D01*
X346178Y165760D01*
X346184Y165758D01*
X346190Y165755D01*
X346397Y165692D01*
X346604Y165627D01*
X346611Y165626D01*
X346617Y165624D01*
X346831Y165598D01*
X347047Y165571D01*
X347054Y165572D01*
X347060Y165571D01*
X347275Y165584D01*
X347493Y165596D01*
X347500Y165597D01*
X347506Y165598D01*
X347714Y165648D01*
X347928Y165699D01*
X347934Y165702D01*
X347940Y165703D01*
X348136Y165791D01*
X348337Y165878D01*
X348343Y165882D01*
X348348Y165885D01*
X348529Y166007D01*
X348708Y166128D01*
X348713Y166132D01*
X348718Y166136D01*
X348901Y166302D01*
X376082Y193483D01*
X376170Y193588D01*
X376265Y193686D01*
X376313Y193759D01*
X376369Y193826D01*
X376436Y193944D01*
X376512Y194058D01*
X376546Y194138D01*
X376589Y194214D01*
X376635Y194343D01*
X376689Y194469D01*
X376709Y194553D01*
X376738Y194635D01*
X376759Y194771D01*
X376790Y194904D01*
X376794Y194990D01*
X376808Y195076D01*
X376805Y195213D01*
X376812Y195350D01*
X376801Y195436D01*
X376799Y195523D01*
X376772Y195657D01*
X376755Y195793D01*
X376728Y195876D01*
X376711Y195961D01*
X376661Y196088D01*
X376619Y196218D01*
X376578Y196295D01*
X376546Y196376D01*
X376474Y196492D01*
X376410Y196613D01*
X376356Y196682D01*
X376310Y196755D01*
X376218Y196857D01*
X376134Y196964D01*
X376069Y197022D01*
X376010Y197086D01*
X375902Y197170D01*
X375799Y197261D01*
X375725Y197306D01*
X375656Y197359D01*
X375535Y197422D01*
X375418Y197493D01*
X375337Y197524D01*
X375259Y197564D01*
X375129Y197604D01*
X375001Y197653D01*
X374915Y197670D01*
X374832Y197695D01*
X374697Y197711D01*
X374562Y197737D01*
X374426Y197744D01*
X374389Y197748D01*
X374365Y197747D01*
X374315Y197749D01*
X359000Y197749D01*
X358950Y197745D01*
X358900Y197747D01*
X358728Y197725D01*
X358555Y197709D01*
X358507Y197696D01*
X358457Y197690D01*
X358292Y197637D01*
X358124Y197591D01*
X358079Y197569D01*
X358032Y197554D01*
X357878Y197473D01*
X357722Y197398D01*
X357681Y197368D01*
X357637Y197345D01*
X357500Y197238D01*
X357360Y197136D01*
X357325Y197100D01*
X357286Y197069D01*
X357170Y196939D01*
X357050Y196814D01*
X357023Y196772D01*
X356989Y196734D01*
X356899Y196586D01*
X356803Y196442D01*
X356783Y196396D01*
X356757Y196353D01*
X356695Y196191D01*
X356626Y196031D01*
X356615Y195983D01*
X356597Y195936D01*
X356564Y195765D01*
X356525Y195596D01*
X356522Y195546D01*
X356513Y195497D01*
X356501Y195250D01*
X356501Y193313D01*
X356519Y193109D01*
X356534Y192908D01*
X356539Y192882D01*
X356541Y192868D01*
X356541Y192731D01*
X356472Y192718D01*
X356376Y192709D01*
X356254Y192676D01*
X356129Y192652D01*
X356039Y192617D01*
X355946Y192591D01*
X355831Y192536D01*
X355712Y192490D01*
X355630Y192440D01*
X355543Y192398D01*
X355440Y192323D01*
X355331Y192257D01*
X355209Y192156D01*
X355181Y192136D01*
X355168Y192123D01*
X355140Y192099D01*
X355007Y191955D01*
X354871Y191813D01*
X354856Y191791D01*
X354837Y191770D01*
X354732Y191605D01*
X354624Y191441D01*
X354613Y191416D01*
X354598Y191393D01*
X354524Y191211D01*
X354447Y191031D01*
X354441Y191005D01*
X354430Y190979D01*
X354390Y190787D01*
X354346Y190596D01*
X354344Y190569D01*
X354339Y190542D01*
X354333Y190346D01*
X354324Y190150D01*
X354327Y190123D01*
X354326Y190095D01*
X354356Y189901D01*
X354381Y189707D01*
X354390Y189681D01*
X354394Y189654D01*
X354458Y189468D01*
X354517Y189281D01*
X354530Y189257D01*
X354539Y189231D01*
X354634Y189060D01*
X354726Y188887D01*
X354743Y188865D01*
X354756Y188841D01*
X354880Y188690D01*
X355002Y188536D01*
X355023Y188517D01*
X355040Y188496D01*
X355189Y188370D01*
X355336Y188239D01*
X355360Y188225D01*
X355381Y188207D01*
X355551Y188109D01*
X355718Y188007D01*
X355744Y187997D01*
X355767Y187983D01*
X355952Y187917D01*
X356135Y187847D01*
X356162Y187841D01*
X356188Y187832D01*
X356380Y187800D01*
X356541Y187769D01*
X356541Y187666D01*
X356368Y187019D01*
X356033Y186440D01*
X355560Y185967D01*
X354981Y185632D01*
X354334Y185459D01*
X349499Y185459D01*
X349499Y189500D01*
X349495Y189550D01*
X349497Y189600D01*
X349475Y189772D01*
X349459Y189945D01*
X349446Y189993D01*
X349440Y190043D01*
X349387Y190208D01*
X349341Y190376D01*
X349319Y190421D01*
X349304Y190468D01*
X349223Y190622D01*
X349148Y190778D01*
X349118Y190819D01*
X349095Y190863D01*
X348988Y191000D01*
X348886Y191140D01*
X348850Y191175D01*
X348819Y191214D01*
X348689Y191330D01*
X348564Y191450D01*
X348522Y191477D01*
X348485Y191511D01*
X348336Y191601D01*
X348192Y191697D01*
X348146Y191717D01*
X348103Y191743D01*
X347941Y191805D01*
X347782Y191874D01*
X347733Y191885D01*
X347686Y191903D01*
X347515Y191936D01*
X347346Y191975D01*
X347297Y191978D01*
X347247Y191987D01*
X347000Y191999D01*
X346950Y191995D01*
X346900Y191997D01*
X346728Y191975D01*
X346555Y191959D01*
X346507Y191946D01*
X346457Y191940D01*
X346292Y191887D01*
X346124Y191841D01*
X346079Y191819D01*
X346031Y191804D01*
X345878Y191723D01*
X345721Y191648D01*
X345681Y191618D01*
X345637Y191595D01*
X345500Y191488D01*
X345360Y191386D01*
X345325Y191350D01*
X345286Y191319D01*
X345170Y191189D01*
X345050Y191064D01*
X345022Y191022D01*
X344989Y190984D01*
X344899Y190836D01*
X344803Y190692D01*
X344783Y190646D01*
X344757Y190603D01*
X344695Y190441D01*
X344626Y190281D01*
X344615Y190233D01*
X344597Y190186D01*
X344564Y190015D01*
X344525Y189846D01*
X344522Y189796D01*
X344513Y189747D01*
X344501Y189500D01*
X344501Y185459D01*
X339666Y185459D01*
X339019Y185632D01*
X338440Y185967D01*
X337967Y186440D01*
X337632Y187019D01*
X337459Y187666D01*
X337459Y187774D01*
X337570Y187781D01*
X337597Y187788D01*
X337624Y187790D01*
X337814Y187843D01*
X338003Y187890D01*
X338028Y187902D01*
X338055Y187909D01*
X338232Y187994D01*
X338410Y188075D01*
X338433Y188090D01*
X338457Y188102D01*
X338617Y188217D01*
X338778Y188329D01*
X338797Y188348D01*
X338819Y188364D01*
X338955Y188505D01*
X339094Y188644D01*
X339110Y188666D01*
X339129Y188686D01*
X339237Y188849D01*
X339349Y189010D01*
X339361Y189035D01*
X339376Y189058D01*
X339454Y189238D01*
X339535Y189417D01*
X339542Y189443D01*
X339553Y189468D01*
X339597Y189659D01*
X339646Y189849D01*
X339648Y189877D01*
X339654Y189903D01*
X339664Y190099D01*
X339678Y190295D01*
X339675Y190322D01*
X339676Y190350D01*
X339651Y190544D01*
X339630Y190739D01*
X339622Y190765D01*
X339619Y190793D01*
X339559Y190979D01*
X339504Y191167D01*
X339491Y191192D01*
X339483Y191218D01*
X339391Y191391D01*
X339303Y191567D01*
X339287Y191589D01*
X339274Y191613D01*
X339153Y191767D01*
X339035Y191924D01*
X339009Y191950D01*
X338998Y191964D01*
X338997Y191964D01*
X338972Y191987D01*
X338860Y192099D01*
X338759Y192176D01*
X338663Y192261D01*
X338581Y192311D01*
X338504Y192369D01*
X338390Y192427D01*
X338282Y192493D01*
X338192Y192528D01*
X338106Y192571D01*
X337984Y192608D01*
X337865Y192653D01*
X337770Y192672D01*
X337678Y192699D01*
X337551Y192713D01*
X337459Y192731D01*
X337459Y192920D01*
X337487Y193066D01*
X337488Y193093D01*
X337491Y193106D01*
X337491Y193136D01*
X337499Y193313D01*
X337499Y201750D01*
X337495Y201800D01*
X337497Y201850D01*
X337475Y202022D01*
X337459Y202195D01*
X337446Y202243D01*
X337440Y202293D01*
X337387Y202458D01*
X337341Y202626D01*
X337319Y202671D01*
X337304Y202718D01*
X337223Y202872D01*
X337148Y203028D01*
X337118Y203069D01*
X337095Y203113D01*
X336988Y203250D01*
X336886Y203390D01*
X336850Y203425D01*
X336819Y203464D01*
X336689Y203580D01*
X336564Y203700D01*
X336522Y203727D01*
X336484Y203761D01*
X336336Y203851D01*
X336192Y203947D01*
X336146Y203967D01*
X336103Y203993D01*
X335941Y204055D01*
X335781Y204124D01*
X335733Y204135D01*
X335686Y204153D01*
X335515Y204186D01*
X335346Y204225D01*
X335296Y204228D01*
X335247Y204237D01*
X335000Y204249D01*
X333906Y204249D01*
X331884Y205087D01*
X320087Y216884D01*
X319249Y218906D01*
X319249Y231094D01*
X319309Y231238D01*
X319352Y231375D01*
X319403Y231509D01*
X319418Y231588D01*
X319442Y231665D01*
X319460Y231807D01*
X319487Y231948D01*
X319493Y232071D01*
X319498Y232108D01*
X319496Y232135D01*
X319499Y232195D01*
X319499Y265500D01*
X319495Y265550D01*
X319497Y265600D01*
X319475Y265772D01*
X319459Y265945D01*
X319446Y265993D01*
X319440Y266043D01*
X319387Y266208D01*
X319341Y266376D01*
X319319Y266421D01*
X319304Y266468D01*
X319223Y266622D01*
X319148Y266778D01*
X319118Y266819D01*
X319095Y266863D01*
X318988Y267000D01*
X318886Y267140D01*
X318850Y267175D01*
X318819Y267214D01*
X318689Y267330D01*
X318564Y267450D01*
X318522Y267477D01*
X318484Y267511D01*
X318336Y267601D01*
X318192Y267697D01*
X318146Y267717D01*
X318103Y267743D01*
X317941Y267805D01*
X317781Y267874D01*
X317733Y267885D01*
X317686Y267903D01*
X317515Y267936D01*
X317346Y267975D01*
X317296Y267978D01*
X317247Y267987D01*
X317000Y267999D01*
X83935Y267999D01*
X83749Y267983D01*
X83563Y267971D01*
X83527Y267963D01*
X83490Y267959D01*
X83310Y267910D01*
X83129Y267866D01*
X83095Y267851D01*
X83059Y267841D01*
X82891Y267760D01*
X82721Y267684D01*
X82690Y267664D01*
X82657Y267648D01*
X82506Y267538D01*
X82351Y267433D01*
X82314Y267399D01*
X82295Y267386D01*
X82269Y267359D01*
X82168Y267267D01*
X67733Y252832D01*
X67613Y252689D01*
X67489Y252549D01*
X67470Y252518D01*
X67446Y252489D01*
X67354Y252327D01*
X67257Y252168D01*
X67244Y252133D01*
X67226Y252101D01*
X67164Y251925D01*
X67097Y251751D01*
X67090Y251715D01*
X67077Y251680D01*
X67048Y251495D01*
X67013Y251312D01*
X67010Y251262D01*
X67007Y251239D01*
X67008Y251202D01*
X67001Y251065D01*
X67001Y181435D01*
X67017Y181249D01*
X67029Y181063D01*
X67037Y181027D01*
X67041Y180990D01*
X67090Y180810D01*
X67134Y180629D01*
X67149Y180595D01*
X67159Y180559D01*
X67240Y180391D01*
X67316Y180221D01*
X67336Y180190D01*
X67352Y180157D01*
X67462Y180006D01*
X67567Y179851D01*
X67601Y179814D01*
X67614Y179795D01*
X67641Y179769D01*
X67733Y179668D01*
X90190Y157210D01*
X90300Y157118D01*
X90404Y157020D01*
X90471Y156976D01*
X90533Y156924D01*
X90658Y156853D01*
X90777Y156774D01*
X90889Y156722D01*
X90921Y156703D01*
X90947Y156694D01*
X91001Y156669D01*
X91749Y156359D01*
X93859Y154249D01*
X95001Y151492D01*
X95001Y148508D01*
X93859Y145751D01*
X91749Y143641D01*
X88992Y142499D01*
X86008Y142499D01*
X83251Y143641D01*
X81141Y145751D01*
X80831Y146499D01*
X80765Y146626D01*
X80707Y146757D01*
X80662Y146824D01*
X80624Y146895D01*
X80537Y147008D01*
X80456Y147126D01*
X80373Y147218D01*
X80350Y147247D01*
X80330Y147265D01*
X80290Y147310D01*
X56386Y171214D01*
X54065Y173534D01*
X52999Y176107D01*
X52999Y237514D01*
X52985Y237671D01*
X52979Y237830D01*
X52965Y237893D01*
X52959Y237958D01*
X52917Y238111D01*
X52883Y238266D01*
X52858Y238326D01*
X52841Y238389D01*
X52772Y238532D01*
X52711Y238678D01*
X52676Y238733D01*
X52648Y238792D01*
X52555Y238920D01*
X52469Y239053D01*
X52424Y239101D01*
X52386Y239154D01*
X52272Y239263D01*
X52163Y239379D01*
X52111Y239418D01*
X52064Y239463D01*
X51932Y239551D01*
X51804Y239645D01*
X51746Y239674D01*
X51692Y239710D01*
X51546Y239773D01*
X51404Y239844D01*
X51341Y239862D01*
X51281Y239887D01*
X51127Y239923D01*
X50975Y239967D01*
X50910Y239974D01*
X50846Y239989D01*
X50688Y239997D01*
X50530Y240013D01*
X50465Y240008D01*
X50400Y240011D01*
X50243Y239990D01*
X50085Y239978D01*
X50022Y239962D01*
X49957Y239953D01*
X49806Y239905D01*
X49653Y239865D01*
X49594Y239837D01*
X49532Y239818D01*
X49391Y239743D01*
X49248Y239676D01*
X49195Y239639D01*
X49137Y239608D01*
X49012Y239510D01*
X48883Y239419D01*
X48837Y239373D01*
X48786Y239332D01*
X48681Y239214D01*
X48569Y239101D01*
X48513Y239024D01*
X48489Y238998D01*
X48478Y238980D01*
X48450Y238957D01*
X48286Y238828D01*
X48276Y238816D01*
X48264Y238807D01*
X48127Y238649D01*
X47989Y238493D01*
X47981Y238480D01*
X47971Y238469D01*
X47865Y238289D01*
X47757Y238112D01*
X47752Y238098D01*
X47744Y238084D01*
X47672Y237890D01*
X47597Y237695D01*
X47594Y237680D01*
X47589Y237666D01*
X47552Y237462D01*
X47513Y237256D01*
X47512Y237236D01*
X47510Y237226D01*
X47510Y237201D01*
X47501Y237009D01*
X47501Y52991D01*
X47519Y52783D01*
X47535Y52576D01*
X47539Y52561D01*
X47541Y52546D01*
X47596Y52345D01*
X47649Y52144D01*
X47655Y52130D01*
X47659Y52115D01*
X47750Y51927D01*
X47837Y51739D01*
X47846Y51727D01*
X47852Y51713D01*
X47975Y51543D01*
X48094Y51374D01*
X48105Y51363D01*
X48114Y51351D01*
X48264Y51207D01*
X48413Y51060D01*
X48429Y51048D01*
X48436Y51041D01*
X48457Y51027D01*
X48481Y51010D01*
X53395Y43655D01*
X55117Y35000D01*
X53395Y26345D01*
X48469Y18972D01*
X48450Y18957D01*
X48286Y18828D01*
X48276Y18816D01*
X48264Y18807D01*
X48127Y18649D01*
X47989Y18493D01*
X47981Y18480D01*
X47971Y18469D01*
X47865Y18289D01*
X47757Y18112D01*
X47752Y18098D01*
X47744Y18084D01*
X47672Y17890D01*
X47597Y17695D01*
X47594Y17680D01*
X47589Y17666D01*
X47552Y17462D01*
X47513Y17256D01*
X47512Y17236D01*
X47510Y17226D01*
X47510Y17201D01*
X47501Y17009D01*
X47501Y12665D01*
X47505Y12615D01*
X47503Y12565D01*
X47525Y12393D01*
X47541Y12220D01*
X47554Y12172D01*
X47560Y12122D01*
X47613Y11957D01*
X47659Y11789D01*
X47681Y11744D01*
X47696Y11697D01*
X47777Y11543D01*
X47852Y11387D01*
X47882Y11346D01*
X47905Y11302D01*
X48012Y11165D01*
X48114Y11025D01*
X48150Y10990D01*
X48181Y10951D01*
X48311Y10835D01*
X48436Y10715D01*
X48478Y10688D01*
X48516Y10654D01*
X48664Y10564D01*
X48808Y10468D01*
X48855Y10448D01*
X48897Y10422D01*
X49059Y10360D01*
X49219Y10291D01*
X49267Y10280D01*
X49314Y10262D01*
X49485Y10229D01*
X49654Y10190D01*
X49704Y10187D01*
X49753Y10178D01*
X50000Y10166D01*
X775000Y10166D01*
X775050Y10170D01*
G37*
%LPC*%
G36*
X625978Y85834D02*
X625978Y85834D01*
X622242Y87382D01*
X619382Y90242D01*
X617834Y93978D01*
X617834Y122022D01*
X619382Y125758D01*
X622242Y128618D01*
X625978Y130166D01*
X627768Y130166D01*
X627931Y130180D01*
X628095Y130187D01*
X628153Y130200D01*
X628213Y130206D01*
X628371Y130249D01*
X628531Y130285D01*
X628586Y130308D01*
X628643Y130324D01*
X628791Y130395D01*
X628942Y130459D01*
X628992Y130492D01*
X629046Y130517D01*
X629179Y130614D01*
X629316Y130703D01*
X629360Y130744D01*
X629408Y130779D01*
X629522Y130898D01*
X629641Y131010D01*
X629676Y131058D01*
X629717Y131101D01*
X629808Y131238D01*
X629905Y131370D01*
X629932Y131424D01*
X629965Y131473D01*
X630030Y131624D01*
X630102Y131771D01*
X630118Y131829D01*
X630142Y131884D01*
X630179Y132043D01*
X630224Y132201D01*
X630229Y132261D01*
X630243Y132319D01*
X630251Y132482D01*
X630267Y132646D01*
X630262Y132705D01*
X630265Y132765D01*
X630244Y132927D01*
X630230Y133091D01*
X630215Y133149D01*
X630207Y133208D01*
X630157Y133364D01*
X630115Y133523D01*
X630090Y133577D01*
X630072Y133633D01*
X629995Y133778D01*
X629925Y133927D01*
X629878Y133998D01*
X629863Y134028D01*
X629841Y134056D01*
X629790Y134134D01*
X627542Y137227D01*
X625890Y145000D01*
X627542Y152773D01*
X629790Y155866D01*
X629874Y156007D01*
X629965Y156143D01*
X629988Y156198D01*
X630019Y156249D01*
X630077Y156403D01*
X630142Y156554D01*
X630155Y156612D01*
X630176Y156667D01*
X630206Y156829D01*
X630243Y156989D01*
X630246Y157048D01*
X630257Y157107D01*
X630257Y157271D01*
X630265Y157435D01*
X630257Y157494D01*
X630257Y157554D01*
X630228Y157715D01*
X630207Y157878D01*
X630189Y157935D01*
X630179Y157993D01*
X630121Y158147D01*
X630072Y158303D01*
X630044Y158356D01*
X630023Y158412D01*
X629939Y158553D01*
X629863Y158698D01*
X629826Y158745D01*
X629795Y158796D01*
X629688Y158920D01*
X629586Y159049D01*
X629542Y159089D01*
X629503Y159134D01*
X629375Y159237D01*
X629252Y159346D01*
X629201Y159377D01*
X629155Y159414D01*
X629011Y159493D01*
X628871Y159578D01*
X628815Y159599D01*
X628763Y159628D01*
X628607Y159679D01*
X628454Y159738D01*
X628395Y159749D01*
X628339Y159768D01*
X628176Y159791D01*
X628015Y159822D01*
X627929Y159826D01*
X627896Y159831D01*
X627861Y159830D01*
X627768Y159834D01*
X625978Y159834D01*
X622242Y161382D01*
X619382Y164242D01*
X617834Y167978D01*
X617834Y196022D01*
X619382Y199758D01*
X622242Y202618D01*
X625978Y204166D01*
X664022Y204166D01*
X667758Y202618D01*
X670618Y199758D01*
X672166Y196022D01*
X672166Y167978D01*
X670618Y164242D01*
X667758Y161382D01*
X664022Y159834D01*
X662705Y159834D01*
X662579Y159823D01*
X662453Y159822D01*
X662358Y159803D01*
X662260Y159794D01*
X662138Y159761D01*
X662015Y159737D01*
X661924Y159702D01*
X661829Y159676D01*
X661716Y159621D01*
X661598Y159576D01*
X661515Y159525D01*
X661427Y159483D01*
X661324Y159409D01*
X661217Y159343D01*
X661144Y159278D01*
X661065Y159221D01*
X660977Y159130D01*
X660883Y159046D01*
X660823Y158969D01*
X660755Y158899D01*
X660686Y158794D01*
X660608Y158694D01*
X660562Y158608D01*
X660508Y158527D01*
X660458Y158411D01*
X660399Y158299D01*
X660370Y158206D01*
X660331Y158116D01*
X660303Y157994D01*
X660265Y157873D01*
X660252Y157776D01*
X660230Y157681D01*
X660224Y157556D01*
X660208Y157430D01*
X660213Y157333D01*
X660208Y157235D01*
X660224Y157110D01*
X660231Y156984D01*
X660253Y156889D01*
X660266Y156792D01*
X660304Y156672D01*
X660333Y156549D01*
X660391Y156398D01*
X660401Y156367D01*
X660409Y156351D01*
X660422Y156318D01*
X663692Y148973D01*
X663692Y141027D01*
X660422Y133682D01*
X660381Y133562D01*
X660331Y133446D01*
X660309Y133351D01*
X660277Y133259D01*
X660259Y133134D01*
X660230Y133011D01*
X660225Y132914D01*
X660210Y132817D01*
X660214Y132691D01*
X660208Y132565D01*
X660220Y132469D01*
X660223Y132371D01*
X660249Y132247D01*
X660266Y132122D01*
X660295Y132029D01*
X660315Y131934D01*
X660363Y131817D01*
X660401Y131697D01*
X660447Y131610D01*
X660484Y131520D01*
X660551Y131413D01*
X660610Y131302D01*
X660671Y131225D01*
X660723Y131143D01*
X660808Y131050D01*
X660886Y130951D01*
X660960Y130886D01*
X661026Y130814D01*
X661126Y130738D01*
X661221Y130654D01*
X661304Y130604D01*
X661382Y130545D01*
X661495Y130488D01*
X661602Y130422D01*
X661693Y130387D01*
X661781Y130343D01*
X661901Y130307D01*
X662019Y130262D01*
X662115Y130243D01*
X662209Y130216D01*
X662334Y130202D01*
X662458Y130178D01*
X662619Y130170D01*
X662653Y130166D01*
X662670Y130167D01*
X662705Y130166D01*
X664022Y130166D01*
X667758Y128618D01*
X670618Y125758D01*
X672166Y122022D01*
X672166Y93978D01*
X670618Y90242D01*
X667758Y87382D01*
X664022Y85834D01*
X625978Y85834D01*
G37*
%LPD*%
%LPC*%
G36*
X160978Y85834D02*
X160978Y85834D01*
X157242Y87382D01*
X154382Y90242D01*
X152834Y93978D01*
X152834Y122022D01*
X154382Y125758D01*
X157242Y128618D01*
X160978Y130166D01*
X162768Y130166D01*
X162931Y130180D01*
X163095Y130187D01*
X163153Y130200D01*
X163213Y130206D01*
X163371Y130249D01*
X163531Y130285D01*
X163586Y130308D01*
X163643Y130324D01*
X163791Y130395D01*
X163942Y130459D01*
X163992Y130492D01*
X164046Y130517D01*
X164179Y130614D01*
X164316Y130703D01*
X164360Y130744D01*
X164408Y130779D01*
X164522Y130898D01*
X164641Y131010D01*
X164676Y131058D01*
X164717Y131101D01*
X164808Y131238D01*
X164905Y131370D01*
X164932Y131424D01*
X164965Y131473D01*
X165030Y131624D01*
X165102Y131771D01*
X165118Y131829D01*
X165142Y131884D01*
X165179Y132043D01*
X165224Y132201D01*
X165229Y132261D01*
X165243Y132319D01*
X165251Y132482D01*
X165267Y132646D01*
X165262Y132705D01*
X165265Y132765D01*
X165244Y132927D01*
X165230Y133091D01*
X165215Y133149D01*
X165207Y133208D01*
X165157Y133364D01*
X165115Y133523D01*
X165090Y133577D01*
X165072Y133633D01*
X164995Y133778D01*
X164925Y133927D01*
X164878Y133998D01*
X164863Y134028D01*
X164841Y134056D01*
X164790Y134134D01*
X162542Y137227D01*
X160890Y145000D01*
X162542Y152773D01*
X164790Y155866D01*
X164874Y156007D01*
X164965Y156143D01*
X164988Y156198D01*
X165019Y156249D01*
X165077Y156403D01*
X165142Y156554D01*
X165155Y156612D01*
X165176Y156667D01*
X165206Y156829D01*
X165243Y156989D01*
X165246Y157048D01*
X165257Y157107D01*
X165257Y157271D01*
X165265Y157435D01*
X165257Y157494D01*
X165257Y157554D01*
X165228Y157715D01*
X165207Y157878D01*
X165189Y157935D01*
X165179Y157993D01*
X165121Y158147D01*
X165072Y158303D01*
X165044Y158356D01*
X165023Y158412D01*
X164939Y158553D01*
X164863Y158698D01*
X164826Y158745D01*
X164795Y158796D01*
X164688Y158920D01*
X164586Y159049D01*
X164542Y159089D01*
X164503Y159134D01*
X164375Y159237D01*
X164252Y159346D01*
X164201Y159377D01*
X164155Y159414D01*
X164011Y159493D01*
X163871Y159578D01*
X163815Y159599D01*
X163763Y159628D01*
X163607Y159679D01*
X163454Y159738D01*
X163395Y159749D01*
X163339Y159768D01*
X163176Y159791D01*
X163015Y159822D01*
X162929Y159826D01*
X162896Y159831D01*
X162861Y159830D01*
X162768Y159834D01*
X160978Y159834D01*
X157242Y161382D01*
X154382Y164242D01*
X152834Y167978D01*
X152834Y196022D01*
X154382Y199758D01*
X157242Y202618D01*
X160978Y204166D01*
X199022Y204166D01*
X202758Y202618D01*
X205618Y199758D01*
X207166Y196022D01*
X207166Y167978D01*
X205618Y164242D01*
X202758Y161382D01*
X199022Y159834D01*
X197705Y159834D01*
X197579Y159823D01*
X197453Y159822D01*
X197358Y159803D01*
X197260Y159794D01*
X197138Y159761D01*
X197015Y159737D01*
X196924Y159702D01*
X196829Y159676D01*
X196716Y159621D01*
X196598Y159576D01*
X196515Y159525D01*
X196427Y159483D01*
X196324Y159409D01*
X196217Y159343D01*
X196144Y159278D01*
X196065Y159221D01*
X195977Y159130D01*
X195883Y159046D01*
X195823Y158969D01*
X195755Y158899D01*
X195686Y158794D01*
X195608Y158694D01*
X195562Y158608D01*
X195508Y158527D01*
X195458Y158411D01*
X195399Y158299D01*
X195370Y158206D01*
X195331Y158116D01*
X195303Y157994D01*
X195265Y157873D01*
X195252Y157776D01*
X195230Y157681D01*
X195224Y157556D01*
X195208Y157430D01*
X195213Y157333D01*
X195208Y157235D01*
X195224Y157110D01*
X195231Y156984D01*
X195253Y156889D01*
X195266Y156792D01*
X195304Y156672D01*
X195333Y156549D01*
X195391Y156398D01*
X195401Y156367D01*
X195409Y156351D01*
X195422Y156318D01*
X198692Y148973D01*
X198692Y141027D01*
X195422Y133682D01*
X195381Y133562D01*
X195331Y133446D01*
X195309Y133351D01*
X195277Y133259D01*
X195259Y133134D01*
X195230Y133011D01*
X195225Y132914D01*
X195210Y132817D01*
X195214Y132691D01*
X195208Y132565D01*
X195220Y132469D01*
X195223Y132371D01*
X195249Y132247D01*
X195266Y132122D01*
X195295Y132029D01*
X195315Y131934D01*
X195363Y131817D01*
X195401Y131697D01*
X195447Y131610D01*
X195484Y131520D01*
X195551Y131413D01*
X195610Y131302D01*
X195671Y131225D01*
X195723Y131143D01*
X195808Y131050D01*
X195886Y130951D01*
X195960Y130886D01*
X196026Y130814D01*
X196126Y130738D01*
X196221Y130654D01*
X196304Y130604D01*
X196382Y130545D01*
X196495Y130488D01*
X196602Y130422D01*
X196693Y130387D01*
X196781Y130343D01*
X196901Y130307D01*
X197019Y130262D01*
X197115Y130243D01*
X197209Y130216D01*
X197334Y130202D01*
X197458Y130178D01*
X197619Y130170D01*
X197653Y130166D01*
X197670Y130167D01*
X197705Y130166D01*
X199022Y130166D01*
X202758Y128618D01*
X205618Y125758D01*
X207166Y122022D01*
X207166Y93978D01*
X205618Y90242D01*
X202758Y87382D01*
X199022Y85834D01*
X160978Y85834D01*
G37*
%LPD*%
%LPC*%
G36*
X483024Y122499D02*
X483024Y122499D01*
X474754Y125925D01*
X468425Y132254D01*
X464999Y140524D01*
X464999Y149476D01*
X468425Y157746D01*
X474754Y164075D01*
X483024Y167501D01*
X491976Y167501D01*
X500246Y164075D01*
X506575Y157746D01*
X510001Y149476D01*
X510001Y140524D01*
X506575Y132254D01*
X500246Y125925D01*
X491976Y122499D01*
X483024Y122499D01*
G37*
%LPD*%
%LPC*%
G36*
X743508Y47499D02*
X743508Y47499D01*
X740751Y48641D01*
X738641Y50751D01*
X738331Y51499D01*
X738265Y51626D01*
X738207Y51757D01*
X738162Y51823D01*
X738124Y51895D01*
X738036Y52008D01*
X737956Y52126D01*
X737873Y52218D01*
X737850Y52247D01*
X737830Y52265D01*
X737790Y52310D01*
X729065Y61034D01*
X727999Y63607D01*
X727999Y111804D01*
X727986Y111946D01*
X727983Y112090D01*
X727967Y112168D01*
X727959Y112249D01*
X727921Y112387D01*
X727892Y112527D01*
X727851Y112643D01*
X727841Y112679D01*
X727829Y112704D01*
X727809Y112760D01*
X727499Y113508D01*
X727499Y116492D01*
X728641Y119249D01*
X730751Y121359D01*
X733508Y122501D01*
X736492Y122501D01*
X739249Y121359D01*
X741359Y119249D01*
X742501Y116492D01*
X742501Y113508D01*
X742191Y112760D01*
X742148Y112624D01*
X742097Y112490D01*
X742082Y112411D01*
X742058Y112334D01*
X742040Y112192D01*
X742013Y112051D01*
X742007Y111928D01*
X742002Y111891D01*
X742004Y111864D01*
X742001Y111804D01*
X742001Y68935D01*
X742017Y68749D01*
X742029Y68563D01*
X742037Y68527D01*
X742041Y68490D01*
X742090Y68310D01*
X742134Y68129D01*
X742149Y68095D01*
X742159Y68059D01*
X742240Y67891D01*
X742316Y67721D01*
X742336Y67690D01*
X742352Y67657D01*
X742462Y67506D01*
X742567Y67351D01*
X742601Y67314D01*
X742614Y67295D01*
X742641Y67269D01*
X742733Y67168D01*
X747690Y62210D01*
X747800Y62118D01*
X747904Y62020D01*
X747971Y61976D01*
X748033Y61924D01*
X748158Y61853D01*
X748277Y61774D01*
X748389Y61722D01*
X748421Y61703D01*
X748447Y61694D01*
X748501Y61669D01*
X749249Y61359D01*
X751359Y59249D01*
X752501Y56492D01*
X752501Y53508D01*
X751359Y50751D01*
X749249Y48641D01*
X746492Y47499D01*
X743508Y47499D01*
G37*
%LPD*%
G36*
X303050Y195755D02*
X303050Y195755D01*
X303100Y195753D01*
X303272Y195775D01*
X303445Y195791D01*
X303493Y195804D01*
X303543Y195810D01*
X303708Y195863D01*
X303876Y195909D01*
X303921Y195931D01*
X303969Y195946D01*
X304122Y196027D01*
X304278Y196102D01*
X304319Y196132D01*
X304363Y196155D01*
X304500Y196262D01*
X304640Y196364D01*
X304675Y196400D01*
X304714Y196431D01*
X304830Y196561D01*
X304950Y196686D01*
X304978Y196728D01*
X305011Y196766D01*
X305101Y196914D01*
X305197Y197058D01*
X305217Y197104D01*
X305243Y197147D01*
X305305Y197309D01*
X305374Y197469D01*
X305385Y197517D01*
X305403Y197564D01*
X305436Y197735D01*
X305475Y197904D01*
X305478Y197954D01*
X305487Y198003D01*
X305499Y198250D01*
X305499Y201750D01*
X305495Y201800D01*
X305497Y201850D01*
X305475Y202022D01*
X305459Y202195D01*
X305446Y202243D01*
X305440Y202293D01*
X305387Y202458D01*
X305341Y202626D01*
X305319Y202671D01*
X305304Y202718D01*
X305223Y202872D01*
X305148Y203028D01*
X305118Y203069D01*
X305095Y203113D01*
X304988Y203250D01*
X304886Y203390D01*
X304850Y203425D01*
X304819Y203464D01*
X304689Y203580D01*
X304564Y203700D01*
X304522Y203727D01*
X304485Y203761D01*
X304336Y203851D01*
X304192Y203947D01*
X304146Y203967D01*
X304103Y203993D01*
X303941Y204055D01*
X303782Y204124D01*
X303733Y204135D01*
X303686Y204153D01*
X303515Y204186D01*
X303346Y204225D01*
X303297Y204228D01*
X303247Y204237D01*
X303000Y204249D01*
X302950Y204245D01*
X302900Y204247D01*
X302728Y204225D01*
X302555Y204209D01*
X302507Y204196D01*
X302457Y204190D01*
X302292Y204137D01*
X302124Y204091D01*
X302079Y204069D01*
X302031Y204054D01*
X301878Y203973D01*
X301721Y203898D01*
X301681Y203868D01*
X301637Y203845D01*
X301500Y203738D01*
X301360Y203636D01*
X301325Y203600D01*
X301286Y203569D01*
X301170Y203439D01*
X301050Y203314D01*
X301022Y203272D01*
X300989Y203234D01*
X300899Y203086D01*
X300803Y202942D01*
X300783Y202896D01*
X300757Y202853D01*
X300695Y202691D01*
X300626Y202531D01*
X300615Y202483D01*
X300597Y202436D01*
X300564Y202265D01*
X300525Y202096D01*
X300522Y202046D01*
X300513Y201997D01*
X300501Y201750D01*
X300501Y198250D01*
X300505Y198200D01*
X300503Y198150D01*
X300525Y197978D01*
X300540Y197805D01*
X300554Y197757D01*
X300560Y197707D01*
X300613Y197542D01*
X300659Y197374D01*
X300681Y197329D01*
X300696Y197282D01*
X300777Y197128D01*
X300852Y196972D01*
X300882Y196931D01*
X300905Y196887D01*
X301012Y196750D01*
X301114Y196610D01*
X301150Y196575D01*
X301181Y196536D01*
X301311Y196420D01*
X301436Y196300D01*
X301478Y196273D01*
X301515Y196239D01*
X301664Y196149D01*
X301808Y196053D01*
X301854Y196033D01*
X301897Y196007D01*
X302059Y195945D01*
X302218Y195876D01*
X302267Y195865D01*
X302314Y195847D01*
X302485Y195814D01*
X302653Y195775D01*
X302703Y195772D01*
X302753Y195763D01*
X303000Y195751D01*
X303050Y195755D01*
G37*
D10*
X347000Y209750D03*
X347000Y203250D03*
X347000Y196750D03*
X347000Y190250D03*
X303000Y190250D03*
X303000Y196750D03*
X303000Y203250D03*
X303000Y209750D03*
X522000Y209750D03*
X522000Y203250D03*
X522000Y196750D03*
X522000Y190250D03*
X478000Y190250D03*
X478000Y196750D03*
X478000Y203250D03*
X478000Y209750D03*
D11*
X248620Y119600D02*
X233380Y119600D01*
X233380Y145000D02*
X248620Y145000D01*
X248620Y170400D02*
X233380Y170400D01*
D12*
X97500Y175000D03*
D13*
X303000Y196750D02*
X315000Y196750D01*
X315000Y203250D02*
X303000Y203250D01*
X315000Y203250D02*
X315000Y196750D01*
X478000Y196750D02*
X495000Y196750D01*
X501500Y190250D01*
X522000Y190250D01*
D14*
X534750Y190250D01*
X535000Y190000D01*
X522250Y190000D02*
X522000Y190250D01*
X522250Y190000D02*
X555000Y190000D01*
D15*
X555000Y190000D03*
D16*
X487500Y145000D03*
D12*
X735000Y115000D03*
X745000Y55000D03*
D17*
X735000Y65000D02*
X735000Y115000D01*
X735000Y65000D02*
X745000Y55000D01*
D12*
X735000Y155000D03*
D13*
X550000Y203250D02*
X522000Y203250D01*
D17*
X575000Y257500D02*
X710000Y257500D01*
D13*
X522000Y203250D02*
X505000Y203250D01*
X500000Y220000D02*
X495000Y225000D01*
X395000Y225000D01*
X500000Y208250D02*
X505000Y203250D01*
X500000Y208250D02*
X500000Y220000D01*
X395000Y225000D02*
X373250Y203250D01*
X347000Y203250D01*
X557500Y240000D02*
X575000Y257500D01*
D17*
X710000Y257500D02*
X735000Y232500D01*
X735000Y155000D01*
D13*
X557500Y210750D02*
X550000Y203250D01*
X557500Y210750D02*
X557500Y240000D01*
X535000Y209750D02*
X522000Y209750D01*
D12*
X735000Y135000D03*
D13*
X324750Y220000D02*
X324750Y230000D01*
X335000Y209750D02*
X347000Y209750D01*
D12*
X87500Y150000D03*
D17*
X60000Y177500D01*
X325000Y275000D02*
X545000Y275000D01*
X720000Y275000D01*
X60000Y255000D02*
X60000Y177500D01*
D13*
X324750Y220000D02*
X335000Y209750D01*
X324750Y230000D02*
X325000Y230250D01*
X325000Y275000D01*
X545000Y275000D02*
X545000Y219750D01*
D17*
X765000Y230000D02*
X765000Y145000D01*
X765000Y230000D02*
X720000Y275000D01*
X765000Y145000D02*
X755000Y135000D01*
X735000Y135000D01*
D13*
X545000Y219750D02*
X535000Y209750D01*
D17*
X80000Y275000D02*
X60000Y255000D01*
X80000Y275000D02*
X325000Y275000D01*
D16*
X337500Y145000D03*
D13*
X303000Y209750D02*
X285000Y209750D01*
X269600Y209750D02*
X264600Y209750D01*
D18*
X269600Y145000D02*
X337500Y145000D01*
D13*
X460000Y209750D02*
X478000Y209750D01*
D12*
X270000Y210000D03*
D13*
X264850Y210000D02*
X264600Y209750D01*
X264850Y210000D02*
X270000Y210000D01*
X290000Y190250D02*
X303000Y190250D01*
X477750Y190000D02*
X478000Y190250D01*
X477750Y190000D02*
X465000Y190000D01*
X460000Y205000D02*
X460000Y209750D01*
X461750Y203250D02*
X478000Y203250D01*
X461750Y203250D02*
X460000Y205000D01*
X285000Y209750D02*
X269600Y209750D01*
D17*
X337500Y145000D02*
X402500Y210000D01*
X459750Y210000D02*
X460000Y209750D01*
X459750Y210000D02*
X402500Y210000D01*
D18*
X269600Y145000D02*
X269600Y135000D01*
X254200Y119600D01*
X241000Y119600D01*
X269600Y145000D02*
X269600Y209750D01*
D13*
X285000Y195250D02*
X290000Y190250D01*
X285000Y195250D02*
X285000Y209750D01*
X460000Y195000D02*
X465000Y190000D01*
X460000Y195000D02*
X460000Y205000D01*
M02*
