G04 EAGLE Gerber X2 export*
%TF.Part,Single*%
%TF.FileFunction,Legend,Top,1*%
%TF.FilePolarity,Positive*%
%TF.GenerationSoftware,Autodesk,EAGLE,9.1.0*%
%TF.CreationDate,2020-08-17T16:37:06Z*%
G75*
%MOMM*%
%FSLAX34Y34*%
%LPD*%
%AMOC8*
5,1,8,0,0,1.08239X$1,22.5*%
G01*
%ADD10C,0.200000*%
%ADD11C,0.101600*%
%ADD12C,0.152400*%
%ADD13C,0.127000*%
%ADD14C,0.100000*%
%ADD15C,0.300000*%
%ADD16C,0.300000*%


D10*
X547250Y130500D02*
X542750Y130500D01*
X542750Y159500D01*
X547250Y159500D01*
X547250Y130500D01*
X550750Y130000D02*
X561250Y130000D01*
D11*
X535143Y169158D02*
X535143Y180842D01*
X539038Y174351D01*
X542933Y180842D01*
X542933Y169158D01*
X548366Y178246D02*
X551611Y180842D01*
X551611Y169158D01*
X548366Y169158D02*
X554857Y169158D01*
D10*
X115000Y216900D02*
X115000Y73100D01*
X73000Y73100D02*
X73000Y216900D01*
X138332Y188490D02*
X138334Y188541D01*
X138340Y188592D01*
X138350Y188642D01*
X138363Y188691D01*
X138381Y188739D01*
X138402Y188785D01*
X138427Y188830D01*
X138455Y188873D01*
X138486Y188913D01*
X138520Y188951D01*
X138557Y188986D01*
X138597Y189018D01*
X138639Y189047D01*
X138683Y189072D01*
X138729Y189094D01*
X138777Y189113D01*
X138826Y189127D01*
X138876Y189138D01*
X138926Y189145D01*
X138977Y189148D01*
X139028Y189147D01*
X139079Y189142D01*
X139129Y189133D01*
X139179Y189120D01*
X139227Y189104D01*
X139274Y189084D01*
X139319Y189060D01*
X139362Y189033D01*
X139403Y189002D01*
X139442Y188969D01*
X139477Y188932D01*
X139510Y188893D01*
X139540Y188852D01*
X139566Y188808D01*
X139589Y188762D01*
X139608Y188715D01*
X139624Y188666D01*
X139636Y188617D01*
X139644Y188566D01*
X139648Y188516D01*
X139648Y188464D01*
X139644Y188414D01*
X139636Y188363D01*
X139624Y188314D01*
X139608Y188265D01*
X139589Y188218D01*
X139566Y188172D01*
X139540Y188128D01*
X139510Y188087D01*
X139477Y188048D01*
X139442Y188011D01*
X139403Y187978D01*
X139362Y187947D01*
X139319Y187920D01*
X139274Y187896D01*
X139227Y187876D01*
X139179Y187860D01*
X139129Y187847D01*
X139079Y187838D01*
X139028Y187833D01*
X138977Y187832D01*
X138926Y187835D01*
X138876Y187842D01*
X138826Y187853D01*
X138777Y187867D01*
X138729Y187886D01*
X138683Y187908D01*
X138639Y187933D01*
X138597Y187962D01*
X138557Y187994D01*
X138520Y188029D01*
X138486Y188067D01*
X138455Y188107D01*
X138427Y188150D01*
X138402Y188195D01*
X138381Y188241D01*
X138363Y188289D01*
X138350Y188338D01*
X138340Y188388D01*
X138334Y188439D01*
X138332Y188490D01*
D11*
X130886Y64955D02*
X121798Y64955D01*
X130886Y64955D02*
X130985Y64953D01*
X131085Y64947D01*
X131184Y64938D01*
X131282Y64925D01*
X131380Y64908D01*
X131478Y64887D01*
X131574Y64862D01*
X131669Y64834D01*
X131763Y64802D01*
X131856Y64767D01*
X131948Y64728D01*
X132038Y64685D01*
X132126Y64640D01*
X132213Y64590D01*
X132297Y64538D01*
X132380Y64482D01*
X132460Y64424D01*
X132538Y64362D01*
X132613Y64297D01*
X132686Y64229D01*
X132756Y64159D01*
X132824Y64086D01*
X132889Y64011D01*
X132951Y63933D01*
X133009Y63853D01*
X133065Y63770D01*
X133117Y63686D01*
X133167Y63599D01*
X133212Y63511D01*
X133255Y63421D01*
X133294Y63329D01*
X133329Y63236D01*
X133361Y63142D01*
X133389Y63047D01*
X133414Y62951D01*
X133435Y62853D01*
X133452Y62755D01*
X133465Y62657D01*
X133474Y62558D01*
X133480Y62458D01*
X133482Y62359D01*
X133482Y61060D01*
X124394Y70228D02*
X121798Y73474D01*
X133482Y73474D01*
X133482Y70228D02*
X133482Y76720D01*
D12*
X228300Y113250D02*
X228300Y125950D01*
X234650Y132300D01*
X247350Y132300D02*
X253700Y125950D01*
X234650Y132300D02*
X228300Y138650D01*
X228300Y151350D01*
X234650Y157700D01*
X247350Y157700D02*
X253700Y151350D01*
X253700Y138650D01*
X247350Y132300D01*
X247350Y106900D02*
X234650Y106900D01*
X228300Y113250D01*
X247350Y106900D02*
X253700Y113250D01*
X253700Y125950D01*
X234650Y157700D02*
X228300Y164050D01*
X228300Y176750D01*
X234650Y183100D01*
X247350Y183100D02*
X253700Y176750D01*
X253700Y164050D01*
X247350Y157700D01*
X247350Y183100D02*
X234650Y183100D01*
D13*
X235285Y98010D02*
X237825Y94835D01*
X235285Y98010D02*
X246715Y98010D01*
X246715Y94835D02*
X246715Y101185D01*
X221315Y186345D02*
X212425Y186345D01*
X221315Y186345D02*
X221415Y186343D01*
X221514Y186337D01*
X221614Y186327D01*
X221712Y186314D01*
X221811Y186296D01*
X221908Y186275D01*
X222004Y186250D01*
X222100Y186221D01*
X222194Y186188D01*
X222287Y186152D01*
X222378Y186112D01*
X222468Y186068D01*
X222556Y186021D01*
X222642Y185971D01*
X222726Y185917D01*
X222808Y185860D01*
X222887Y185800D01*
X222965Y185736D01*
X223039Y185670D01*
X223111Y185601D01*
X223180Y185529D01*
X223246Y185455D01*
X223310Y185377D01*
X223370Y185298D01*
X223427Y185216D01*
X223481Y185132D01*
X223531Y185046D01*
X223578Y184958D01*
X223622Y184868D01*
X223662Y184777D01*
X223698Y184684D01*
X223731Y184590D01*
X223760Y184494D01*
X223785Y184398D01*
X223806Y184301D01*
X223824Y184202D01*
X223837Y184104D01*
X223847Y184004D01*
X223853Y183905D01*
X223855Y183805D01*
X223855Y182535D01*
X223855Y191754D02*
X223855Y194929D01*
X223853Y195040D01*
X223847Y195150D01*
X223838Y195261D01*
X223824Y195371D01*
X223807Y195480D01*
X223786Y195589D01*
X223761Y195697D01*
X223732Y195804D01*
X223700Y195910D01*
X223664Y196015D01*
X223624Y196118D01*
X223581Y196220D01*
X223534Y196321D01*
X223483Y196420D01*
X223430Y196517D01*
X223373Y196611D01*
X223312Y196704D01*
X223249Y196795D01*
X223182Y196884D01*
X223112Y196970D01*
X223039Y197053D01*
X222964Y197135D01*
X222886Y197213D01*
X222804Y197288D01*
X222721Y197361D01*
X222635Y197431D01*
X222546Y197498D01*
X222455Y197561D01*
X222362Y197622D01*
X222268Y197679D01*
X222171Y197732D01*
X222072Y197783D01*
X221971Y197830D01*
X221869Y197873D01*
X221766Y197913D01*
X221661Y197949D01*
X221555Y197981D01*
X221448Y198010D01*
X221340Y198035D01*
X221231Y198056D01*
X221122Y198073D01*
X221012Y198087D01*
X220901Y198096D01*
X220791Y198102D01*
X220680Y198104D01*
X220569Y198102D01*
X220459Y198096D01*
X220348Y198087D01*
X220238Y198073D01*
X220129Y198056D01*
X220020Y198035D01*
X219912Y198010D01*
X219805Y197981D01*
X219699Y197949D01*
X219594Y197913D01*
X219491Y197873D01*
X219389Y197830D01*
X219288Y197783D01*
X219189Y197732D01*
X219093Y197679D01*
X218998Y197622D01*
X218905Y197561D01*
X218814Y197498D01*
X218725Y197431D01*
X218639Y197361D01*
X218556Y197288D01*
X218474Y197213D01*
X218396Y197135D01*
X218321Y197053D01*
X218248Y196970D01*
X218178Y196884D01*
X218111Y196795D01*
X218048Y196704D01*
X217987Y196611D01*
X217930Y196517D01*
X217877Y196420D01*
X217826Y196321D01*
X217779Y196220D01*
X217736Y196118D01*
X217696Y196015D01*
X217660Y195910D01*
X217628Y195804D01*
X217599Y195697D01*
X217574Y195589D01*
X217553Y195480D01*
X217536Y195371D01*
X217522Y195261D01*
X217513Y195150D01*
X217507Y195040D01*
X217505Y194929D01*
X212425Y195564D02*
X212425Y191754D01*
X212425Y195564D02*
X212427Y195664D01*
X212433Y195763D01*
X212443Y195863D01*
X212456Y195961D01*
X212474Y196060D01*
X212495Y196157D01*
X212520Y196253D01*
X212549Y196349D01*
X212582Y196443D01*
X212618Y196536D01*
X212658Y196627D01*
X212702Y196717D01*
X212749Y196805D01*
X212799Y196891D01*
X212853Y196975D01*
X212910Y197057D01*
X212970Y197136D01*
X213034Y197214D01*
X213100Y197288D01*
X213169Y197360D01*
X213241Y197429D01*
X213315Y197495D01*
X213393Y197559D01*
X213472Y197619D01*
X213554Y197676D01*
X213638Y197730D01*
X213724Y197780D01*
X213812Y197827D01*
X213902Y197871D01*
X213993Y197911D01*
X214086Y197947D01*
X214180Y197980D01*
X214276Y198009D01*
X214372Y198034D01*
X214469Y198055D01*
X214568Y198073D01*
X214666Y198086D01*
X214766Y198096D01*
X214865Y198102D01*
X214965Y198104D01*
X215065Y198102D01*
X215164Y198096D01*
X215264Y198086D01*
X215362Y198073D01*
X215461Y198055D01*
X215558Y198034D01*
X215654Y198009D01*
X215750Y197980D01*
X215844Y197947D01*
X215937Y197911D01*
X216028Y197871D01*
X216118Y197827D01*
X216206Y197780D01*
X216292Y197730D01*
X216376Y197676D01*
X216458Y197619D01*
X216537Y197559D01*
X216615Y197495D01*
X216689Y197429D01*
X216761Y197360D01*
X216830Y197288D01*
X216896Y197214D01*
X216960Y197136D01*
X217020Y197057D01*
X217077Y196975D01*
X217131Y196891D01*
X217181Y196805D01*
X217228Y196717D01*
X217272Y196627D01*
X217312Y196536D01*
X217348Y196443D01*
X217381Y196349D01*
X217410Y196253D01*
X217435Y196157D01*
X217456Y196060D01*
X217474Y195961D01*
X217487Y195863D01*
X217497Y195763D01*
X217503Y195664D01*
X217505Y195564D01*
X217505Y193024D01*
X284300Y101700D02*
X295700Y101700D01*
X295700Y118300D02*
X284300Y118300D01*
D11*
X324745Y117692D02*
X324745Y106008D01*
X324745Y117692D02*
X327990Y117692D01*
X328103Y117690D01*
X328216Y117684D01*
X328329Y117674D01*
X328442Y117660D01*
X328554Y117643D01*
X328665Y117621D01*
X328775Y117596D01*
X328885Y117566D01*
X328993Y117533D01*
X329100Y117496D01*
X329206Y117456D01*
X329310Y117411D01*
X329413Y117363D01*
X329514Y117312D01*
X329613Y117257D01*
X329710Y117199D01*
X329805Y117137D01*
X329898Y117072D01*
X329988Y117004D01*
X330076Y116933D01*
X330162Y116858D01*
X330245Y116781D01*
X330325Y116701D01*
X330402Y116618D01*
X330477Y116532D01*
X330548Y116444D01*
X330616Y116354D01*
X330681Y116261D01*
X330743Y116166D01*
X330801Y116069D01*
X330856Y115970D01*
X330907Y115869D01*
X330955Y115766D01*
X331000Y115662D01*
X331040Y115556D01*
X331077Y115449D01*
X331110Y115341D01*
X331140Y115231D01*
X331165Y115121D01*
X331187Y115010D01*
X331204Y114898D01*
X331218Y114785D01*
X331228Y114672D01*
X331234Y114559D01*
X331236Y114446D01*
X331234Y114333D01*
X331228Y114220D01*
X331218Y114107D01*
X331204Y113994D01*
X331187Y113882D01*
X331165Y113771D01*
X331140Y113661D01*
X331110Y113551D01*
X331077Y113443D01*
X331040Y113336D01*
X331000Y113230D01*
X330955Y113126D01*
X330907Y113023D01*
X330856Y112922D01*
X330801Y112823D01*
X330743Y112726D01*
X330681Y112631D01*
X330616Y112538D01*
X330548Y112448D01*
X330477Y112360D01*
X330402Y112274D01*
X330325Y112191D01*
X330245Y112111D01*
X330162Y112034D01*
X330076Y111959D01*
X329988Y111888D01*
X329898Y111820D01*
X329805Y111755D01*
X329710Y111693D01*
X329613Y111635D01*
X329514Y111580D01*
X329413Y111529D01*
X329310Y111481D01*
X329206Y111436D01*
X329100Y111396D01*
X328993Y111359D01*
X328885Y111326D01*
X328775Y111296D01*
X328665Y111271D01*
X328554Y111249D01*
X328442Y111232D01*
X328329Y111218D01*
X328216Y111208D01*
X328103Y111202D01*
X327990Y111200D01*
X327990Y111201D02*
X324745Y111201D01*
X328639Y111201D02*
X331236Y106008D01*
X336101Y115096D02*
X339346Y117692D01*
X339346Y106008D01*
X336101Y106008D02*
X342592Y106008D01*
D13*
X295700Y71700D02*
X284300Y71700D01*
X284300Y88300D02*
X295700Y88300D01*
D11*
X267408Y63992D02*
X267408Y52308D01*
X267408Y63992D02*
X270654Y63992D01*
X270767Y63990D01*
X270880Y63984D01*
X270993Y63974D01*
X271106Y63960D01*
X271218Y63943D01*
X271329Y63921D01*
X271439Y63896D01*
X271549Y63866D01*
X271657Y63833D01*
X271764Y63796D01*
X271870Y63756D01*
X271974Y63711D01*
X272077Y63663D01*
X272178Y63612D01*
X272277Y63557D01*
X272374Y63499D01*
X272469Y63437D01*
X272562Y63372D01*
X272652Y63304D01*
X272740Y63233D01*
X272826Y63158D01*
X272909Y63081D01*
X272989Y63001D01*
X273066Y62918D01*
X273141Y62832D01*
X273212Y62744D01*
X273280Y62654D01*
X273345Y62561D01*
X273407Y62466D01*
X273465Y62369D01*
X273520Y62270D01*
X273571Y62169D01*
X273619Y62066D01*
X273664Y61962D01*
X273704Y61856D01*
X273741Y61749D01*
X273774Y61641D01*
X273804Y61531D01*
X273829Y61421D01*
X273851Y61310D01*
X273868Y61198D01*
X273882Y61085D01*
X273892Y60972D01*
X273898Y60859D01*
X273900Y60746D01*
X273898Y60633D01*
X273892Y60520D01*
X273882Y60407D01*
X273868Y60294D01*
X273851Y60182D01*
X273829Y60071D01*
X273804Y59961D01*
X273774Y59851D01*
X273741Y59743D01*
X273704Y59636D01*
X273664Y59530D01*
X273619Y59426D01*
X273571Y59323D01*
X273520Y59222D01*
X273465Y59123D01*
X273407Y59026D01*
X273345Y58931D01*
X273280Y58838D01*
X273212Y58748D01*
X273141Y58660D01*
X273066Y58574D01*
X272989Y58491D01*
X272909Y58411D01*
X272826Y58334D01*
X272740Y58259D01*
X272652Y58188D01*
X272562Y58120D01*
X272469Y58055D01*
X272374Y57993D01*
X272277Y57935D01*
X272178Y57880D01*
X272077Y57829D01*
X271974Y57781D01*
X271870Y57736D01*
X271764Y57696D01*
X271657Y57659D01*
X271549Y57626D01*
X271439Y57596D01*
X271329Y57571D01*
X271218Y57549D01*
X271106Y57532D01*
X270993Y57518D01*
X270880Y57508D01*
X270767Y57502D01*
X270654Y57500D01*
X270654Y57501D02*
X267408Y57501D01*
X271303Y57501D02*
X273899Y52308D01*
X285255Y61071D02*
X285253Y61178D01*
X285247Y61284D01*
X285237Y61390D01*
X285224Y61496D01*
X285206Y61602D01*
X285185Y61706D01*
X285160Y61810D01*
X285131Y61913D01*
X285099Y62014D01*
X285062Y62114D01*
X285022Y62213D01*
X284979Y62311D01*
X284932Y62407D01*
X284881Y62501D01*
X284827Y62593D01*
X284770Y62683D01*
X284710Y62771D01*
X284646Y62856D01*
X284579Y62939D01*
X284509Y63020D01*
X284437Y63098D01*
X284361Y63174D01*
X284283Y63246D01*
X284202Y63316D01*
X284119Y63383D01*
X284034Y63447D01*
X283946Y63507D01*
X283856Y63564D01*
X283764Y63618D01*
X283670Y63669D01*
X283574Y63716D01*
X283476Y63759D01*
X283377Y63799D01*
X283277Y63836D01*
X283176Y63868D01*
X283073Y63897D01*
X282969Y63922D01*
X282865Y63943D01*
X282759Y63961D01*
X282653Y63974D01*
X282547Y63984D01*
X282441Y63990D01*
X282334Y63992D01*
X282213Y63990D01*
X282092Y63984D01*
X281972Y63974D01*
X281851Y63961D01*
X281732Y63943D01*
X281612Y63922D01*
X281494Y63897D01*
X281377Y63868D01*
X281260Y63835D01*
X281145Y63799D01*
X281031Y63758D01*
X280918Y63715D01*
X280806Y63667D01*
X280697Y63616D01*
X280589Y63561D01*
X280482Y63503D01*
X280378Y63442D01*
X280276Y63377D01*
X280176Y63309D01*
X280078Y63238D01*
X279982Y63164D01*
X279889Y63087D01*
X279799Y63006D01*
X279711Y62923D01*
X279626Y62837D01*
X279543Y62748D01*
X279464Y62657D01*
X279387Y62563D01*
X279314Y62467D01*
X279244Y62369D01*
X279177Y62268D01*
X279113Y62165D01*
X279053Y62060D01*
X278996Y61953D01*
X278942Y61845D01*
X278892Y61735D01*
X278846Y61623D01*
X278803Y61510D01*
X278764Y61395D01*
X284282Y58799D02*
X284361Y58876D01*
X284437Y58957D01*
X284510Y59040D01*
X284580Y59125D01*
X284647Y59213D01*
X284711Y59303D01*
X284771Y59395D01*
X284828Y59490D01*
X284882Y59586D01*
X284933Y59684D01*
X284980Y59784D01*
X285024Y59886D01*
X285064Y59989D01*
X285100Y60093D01*
X285132Y60199D01*
X285161Y60305D01*
X285186Y60413D01*
X285208Y60521D01*
X285225Y60631D01*
X285239Y60740D01*
X285248Y60850D01*
X285254Y60961D01*
X285256Y61071D01*
X284282Y58799D02*
X278764Y52308D01*
X285255Y52308D01*
D14*
X760000Y83750D02*
X760000Y206250D01*
X718000Y206250D02*
X718000Y185000D01*
X718000Y105000D02*
X718000Y83750D01*
D15*
X695000Y115000D03*
D16*
X694956Y114998D01*
X694913Y114992D01*
X694871Y114983D01*
X694829Y114970D01*
X694789Y114953D01*
X694750Y114933D01*
X694713Y114910D01*
X694679Y114883D01*
X694646Y114854D01*
X694617Y114821D01*
X694590Y114787D01*
X694567Y114750D01*
X694547Y114711D01*
X694530Y114671D01*
X694517Y114629D01*
X694508Y114587D01*
X694502Y114544D01*
X694500Y114500D01*
X694502Y114456D01*
X694508Y114413D01*
X694517Y114371D01*
X694530Y114329D01*
X694547Y114289D01*
X694567Y114250D01*
X694590Y114213D01*
X694617Y114179D01*
X694646Y114146D01*
X694679Y114117D01*
X694713Y114090D01*
X694750Y114067D01*
X694789Y114047D01*
X694829Y114030D01*
X694871Y114017D01*
X694913Y114008D01*
X694956Y114002D01*
X695000Y114000D01*
D15*
X695000Y114000D03*
D16*
X695044Y114002D01*
X695087Y114008D01*
X695129Y114017D01*
X695171Y114030D01*
X695211Y114047D01*
X695250Y114067D01*
X695287Y114090D01*
X695321Y114117D01*
X695354Y114146D01*
X695383Y114179D01*
X695410Y114213D01*
X695433Y114250D01*
X695453Y114289D01*
X695470Y114329D01*
X695483Y114371D01*
X695492Y114413D01*
X695498Y114456D01*
X695500Y114500D01*
X695498Y114544D01*
X695492Y114587D01*
X695483Y114629D01*
X695470Y114671D01*
X695453Y114711D01*
X695433Y114750D01*
X695410Y114787D01*
X695383Y114821D01*
X695354Y114854D01*
X695321Y114883D01*
X695287Y114910D01*
X695250Y114933D01*
X695211Y114953D01*
X695171Y114970D01*
X695129Y114983D01*
X695087Y114992D01*
X695044Y114998D01*
X695000Y115000D01*
D11*
X696408Y201065D02*
X705496Y201065D01*
X705595Y201063D01*
X705695Y201057D01*
X705794Y201048D01*
X705892Y201035D01*
X705990Y201018D01*
X706088Y200997D01*
X706184Y200972D01*
X706279Y200944D01*
X706373Y200912D01*
X706466Y200877D01*
X706558Y200838D01*
X706648Y200795D01*
X706736Y200750D01*
X706823Y200700D01*
X706907Y200648D01*
X706990Y200592D01*
X707070Y200534D01*
X707148Y200472D01*
X707223Y200407D01*
X707296Y200339D01*
X707366Y200269D01*
X707434Y200196D01*
X707499Y200121D01*
X707561Y200043D01*
X707619Y199963D01*
X707675Y199880D01*
X707727Y199796D01*
X707777Y199709D01*
X707822Y199621D01*
X707865Y199531D01*
X707904Y199439D01*
X707939Y199346D01*
X707971Y199252D01*
X707999Y199157D01*
X708024Y199061D01*
X708045Y198963D01*
X708062Y198865D01*
X708075Y198767D01*
X708084Y198668D01*
X708090Y198568D01*
X708092Y198469D01*
X708092Y197170D01*
X696408Y209909D02*
X696410Y210016D01*
X696416Y210122D01*
X696426Y210228D01*
X696439Y210334D01*
X696457Y210440D01*
X696478Y210544D01*
X696503Y210648D01*
X696532Y210751D01*
X696564Y210852D01*
X696601Y210952D01*
X696641Y211051D01*
X696684Y211149D01*
X696731Y211245D01*
X696782Y211339D01*
X696836Y211431D01*
X696893Y211521D01*
X696953Y211609D01*
X697017Y211694D01*
X697084Y211777D01*
X697154Y211858D01*
X697226Y211936D01*
X697302Y212012D01*
X697380Y212084D01*
X697461Y212154D01*
X697544Y212221D01*
X697629Y212285D01*
X697717Y212345D01*
X697807Y212402D01*
X697899Y212456D01*
X697993Y212507D01*
X698089Y212554D01*
X698187Y212597D01*
X698286Y212637D01*
X698386Y212674D01*
X698487Y212706D01*
X698590Y212735D01*
X698694Y212760D01*
X698798Y212781D01*
X698904Y212799D01*
X699010Y212812D01*
X699116Y212822D01*
X699222Y212828D01*
X699329Y212830D01*
X696408Y209909D02*
X696410Y209788D01*
X696416Y209667D01*
X696426Y209547D01*
X696439Y209426D01*
X696457Y209307D01*
X696478Y209187D01*
X696503Y209069D01*
X696532Y208952D01*
X696565Y208835D01*
X696601Y208720D01*
X696642Y208606D01*
X696685Y208493D01*
X696733Y208381D01*
X696784Y208272D01*
X696839Y208164D01*
X696897Y208057D01*
X696958Y207953D01*
X697023Y207851D01*
X697091Y207751D01*
X697162Y207653D01*
X697236Y207557D01*
X697313Y207464D01*
X697394Y207374D01*
X697477Y207286D01*
X697563Y207201D01*
X697652Y207118D01*
X697743Y207039D01*
X697837Y206962D01*
X697933Y206889D01*
X698031Y206819D01*
X698132Y206752D01*
X698235Y206688D01*
X698340Y206628D01*
X698447Y206570D01*
X698555Y206517D01*
X698665Y206467D01*
X698777Y206421D01*
X698890Y206378D01*
X699005Y206339D01*
X701601Y211855D02*
X701523Y211934D01*
X701443Y212010D01*
X701360Y212083D01*
X701274Y212153D01*
X701187Y212220D01*
X701096Y212284D01*
X701004Y212344D01*
X700910Y212402D01*
X700813Y212456D01*
X700715Y212506D01*
X700615Y212553D01*
X700514Y212597D01*
X700411Y212637D01*
X700306Y212673D01*
X700201Y212705D01*
X700094Y212734D01*
X699987Y212759D01*
X699878Y212781D01*
X699769Y212798D01*
X699660Y212812D01*
X699550Y212821D01*
X699439Y212827D01*
X699329Y212829D01*
X701601Y211856D02*
X708092Y206338D01*
X708092Y212830D01*
M02*
